<?xml version="1.0" encoding="UTF-8" standalone="no"?>
<!-- Generator: Adobe Illustrator 16.0.0, SVG Export Plug-In . SVG Version: 6.00 Build 0)  -->

<svg
   xmlns:dc="http://purl.org/dc/elements/1.1/"
   xmlns:cc="http://creativecommons.org/ns#"
   xmlns:rdf="http://www.w3.org/1999/02/22-rdf-syntax-ns#"
   xmlns:svg="http://www.w3.org/2000/svg"
   xmlns="http://www.w3.org/2000/svg"
   xmlns:sodipodi="http://sodipodi.sourceforge.net/DTD/sodipodi-0.dtd"
   xmlns:inkscape="http://www.inkscape.org/namespaces/inkscape"
   version="1.1"
   id="HEW"
   x="0px"
   y="0px"
   width="359.33521"
   height="59.910507"
   viewBox="0 0 359.33522 59.910508"
   enable-background="new 0 0 324.301 74.432"
   xml:space="preserve"
   inkscape:version="0.91 r13725"
   sodipodi:docname="HetEchteWerk_CMYK_SM.svg"><metadata
     id="metadata91"><rdf:RDF><cc:Work
         rdf:about=""><dc:format>image/svg+xml</dc:format><dc:type
           rdf:resource="http://purl.org/dc/dcmitype/StillImage" /><dc:title></dc:title></cc:Work></rdf:RDF></metadata><defs
     id="defs89" /><sodipodi:namedview
     pagecolor="#ffffff"
     bordercolor="#666666"
     borderopacity="1"
     objecttolerance="10"
     gridtolerance="10"
     guidetolerance="10"
     inkscape:pageopacity="0"
     inkscape:pageshadow="2"
     inkscape:window-width="1920"
     inkscape:window-height="1056"
     id="namedview87"
     showgrid="false"
     inkscape:zoom="1.8131304"
     inkscape:cx="303.1102"
     inkscape:cy="30.818058"
     inkscape:window-x="0"
     inkscape:window-y="24"
     inkscape:window-maximized="1"
     inkscape:current-layer="HEW"
     fit-margin-top="0"
     fit-margin-left="0"
     fit-margin-right="0"
     fit-margin-bottom="0" /><path
     style="fill:#552988"
     inkscape:connector-curvature="0"
     id="path5"
     d="m 14.717616,24.850502 0,-11.020959 -9.5771653,0 0,11.020959 -5.1404507,0 0,-24.55448268 5.1404507,0 0,9.24572838 9.5771653,0 0,-9.24572838 5.176773,0 0,24.55448268 -5.176773,0 z" /><path
     style="fill:#552988"
     inkscape:connector-curvature="0"
     id="path7"
     d="m 26.885438,17.010429 c 0.147104,2.735944 1.700771,4.511175 4.06714,4.511175 1.552759,0 2.921185,-0.775472 3.254438,-2.034024 l 4.95521,0 c -1.109633,3.735703 -4.10437,5.844187 -7.987177,5.844187 -6.064842,0 -9.097717,-3.327082 -9.097717,-9.909511 0,-5.6217151 3.218117,-9.2448201 8.802602,-9.2448201 5.58267,0 8.541993,3.622197 8.541993,10.8339021 l -12.536489,0 z m 7.58128,-3.031058 c -0.07446,-2.70053 -1.847875,-3.9944966 -3.734795,-3.9944966 -1.922334,0 -3.513232,1.4801156 -3.698473,3.9944966 l 7.433268,0 z" /><path
     style="fill:#552988"
     inkscape:connector-curvature="0"
     id="path9"
     d="m 52.071922,12.869738 4.473944,0 0,5.17768 c 0,3.844669 -2.218357,7.283441 -7.358808,7.283441 -5.324784,0 -7.433268,-3.40245 -7.433268,-7.321578 l 0,-16.271284 4.732738,0 0,4.9179794 10.05843,0 0,3.4024496 -10.05843,0 0,7.46959 c 0,2.292817 0.81361,3.624921 2.774082,3.624921 1.922334,0 2.810403,-1.294874 2.810403,-3.550461 l 0,-4.732738 z" /><path
     style="fill:#552988"
     inkscape:connector-curvature="0"
     id="path11"
     d="m 69.011527,24.850502 0,-24.55448268 18.045607,0 0,4.29051928 -13.053167,0 0,5.2494162 12.017994,0 0,4.3277492 -12.017994,0 0,6.324543 13.644305,0 0,4.363163 -18.636745,0 z" /><path
     style="fill:#552988"
     inkscape:connector-curvature="0"
     id="path13"
     d="m 105.84461,18.267166 c -0.51667,4.217875 -3.95726,7.063693 -8.356747,7.063693 -4.955209,0 -8.356751,-3.29076 -8.356751,-9.798729 0,-6.5097846 3.401542,-9.3556021 8.504762,-9.3556021 4.732736,0 7.949946,2.699622 8.245966,6.9874171 l -4.84442,0 C 100.77953,11.277932 99.411105,10.1683 97.598645,10.1683 c -2.034024,0 -3.698474,1.294874 -3.698474,5.25214 0,3.95545 1.66445,5.879601 3.55137,5.879601 1.885104,0 3.365219,-1.074219 3.549549,-3.033783 l 4.84352,0 z" /><path
     style="fill:#552988"
     inkscape:connector-curvature="0"
     id="path15"
     d="m 119.56883,24.850502 0,-11.279752 c 0,-2.735036 -0.92712,-3.5867837 -3.10643,-3.5867837 -2.40541,0 -3.73479,1.9977017 -3.73479,4.4385307 l 0,10.428005 -4.8072,0 0,-24.8505058146977 4.8072,0 0,9.0232572146977 c 0.7001,-1.6254031 2.92118,-2.8458175 5.36201,-2.8458175 3.73298,0 6.32182,2.1811275 6.32182,5.8051401 l 0,12.868834 -4.84261,0 z" /><path
     style="fill:#552988"
     inkscape:connector-curvature="0"
     id="path17"
     d="m 137.50547,12.869738 4.47303,0 0,5.17768 c 0,3.844669 -2.21744,7.283441 -7.3588,7.283441 -5.3257,0 -7.43236,-3.40245 -7.43236,-7.321578 l 0,-16.271284 4.73273,0 0,4.9179794 10.05753,0 0,3.4024496 -10.05753,0 0,7.46959 c 0,2.292817 0.81361,3.624921 2.77318,3.624921 1.92415,0 2.81222,-1.294874 2.81222,-3.550461 l 0,-4.732738 z" /><path
     style="fill:#552988"
     inkscape:connector-curvature="0"
     id="path19"
     d="m 148.97046,17.010429 c 0.14801,2.735944 1.70168,4.511175 4.06714,4.511175 1.55367,0 2.9221,-0.775472 3.25535,-2.034024 l 4.95612,0 c -1.11054,3.735703 -4.1071,5.844187 -7.9899,5.844187 -6.06485,0 -9.09772,-3.327082 -9.09772,-9.909511 0,-5.6217151 3.21721,-9.2448201 8.8026,-9.2448201 5.58267,0 8.54199,3.622197 8.54199,10.8339021 l -12.53558,0 z m 7.58037,-3.031058 c -0.0735,-2.70053 -1.84787,-3.9944966 -3.73661,-3.9944966 -1.91961,0 -3.51141,1.4801156 -3.69575,3.9944966 l 7.43236,0 z" /><path
     style="fill:#552988"
     inkscape:connector-curvature="0"
     id="path21"
     d="m 19.539343,53.477573 -3.809255,-15.97526 -3.881898,15.97526 -4.8081062,0 -6.9520033,-24.552667 5.4727957,0 4.0308181,15.899893 3.4015417,-15.899893 5.399244,0 3.735703,15.899893 3.991772,-15.899893 5.251232,0 -6.876635,24.552667 -4.955209,0 z" /><path
     style="fill:#552988"
     inkscape:connector-curvature="0"
     id="path23"
     d="m 34.853545,45.638409 c 0.146196,2.736852 1.699863,4.512082 4.066232,4.512082 1.55276,0 2.920278,-0.776379 3.254439,-2.03584 l 4.954301,0 c -1.109633,3.736611 -4.10437,5.844187 -7.988084,5.844187 -6.063934,0 -9.095901,-3.327082 -9.095901,-9.908602 0,-5.621716 3.215392,-9.245729 8.801694,-9.245729 5.582669,0 8.540176,3.623105 8.540176,10.83481 l -12.532857,0 z m 7.579464,-3.031059 c -0.07355,-2.699622 -1.849691,-3.993588 -3.734795,-3.993588 -1.923242,0 -3.512324,1.477391 -3.698473,3.993588 l 7.433268,0 z" /><path
     style="fill:#552988"
     inkscape:connector-curvature="0"
     id="path25"
     d="m 49.720081,53.477573 0,-18.193618 4.511175,0 0,2.181128 c 1.590897,-2.440829 3.43968,-2.662392 5.400152,-2.662392 l 0.628368,0 0,4.917979 c -0.444035,-0.07446 -0.888069,-0.111689 -1.331196,-0.111689 -2.958415,0 -4.400393,1.479207 -4.400393,4.402209 l 0,9.465475 -4.808106,0 z" /><path
     style="fill:#552988"
     inkscape:connector-curvature="0"
     id="path27"
     d="m 73.388311,53.477573 -3.99268,-8.170601 -2.330047,2.401783 0,5.769726 -4.84352,0 0,-24.850506 4.84352,0 0,13.570754 5.992198,-6.914774 5.878693,0 -6.101164,6.693211 5.953152,11.499499 -5.400152,0 z" /><path
     style="fill:#552988"
     inkscape:connector-curvature="0"
     id="path29"
     d="m 91.067067,41.494993 4.474852,0 0,5.178589 c 0,3.846484 -2.219265,7.28344 -7.358808,7.28344 -5.323876,0 -7.433268,-3.401542 -7.433268,-7.321578 l 0,-16.269468 4.733646,0 0,4.917979 10.05843,0 0,3.40245 -10.059338,0 0,7.46959 c 0,2.291001 0.81361,3.624921 2.773174,3.624921 1.92415,0 2.810404,-1.294874 2.810404,-3.552277 l 0,-4.733646 z" /><g
     id="g31"
     transform="matrix(1.359591,0,0,1.359591,21.993196,-48.132295)"><g
       id="g33"><path
         style="fill:#552988"
         inkscape:connector-curvature="0"
         id="path35"
         d="m 144.411,40.264 -22.564,-1.849 c 0.002,0.106 0.009,0.205 0.009,0.315 0,3.756 -0.444,8.436 -1.333,13.865 l -2.356,0 c -0.887,-5.43 -1.333,-10.145 -1.333,-13.969 0,-0.212 0,-0.419 0.002,-0.622 l -2.047,-0.167 c -1.253,-0.104 -2.354,0.83 -2.456,2.084 l -2.428,29.619 c -0.101,1.254 0.83,2.354 2.085,2.455 l 29.62,2.428 c 1.254,0.102 2.354,-0.83 2.459,-2.084 l 2.424,-29.619 c 0.103,-1.254 -0.83,-2.354 -2.082,-2.456 z m -22.795,18.615 -4.609,0 0,-4.473 4.609,0 0,4.473 z" /></g></g><g
     id="g37"
     transform="matrix(1.0571981,0,0,1.0571981,16.485885,7.1637266)"
     style="fill:#000000"><path
       style="fill:#000000"
       inkscape:connector-curvature="0"
       id="path39"
       d="m 208.583,26.977 0,-14.567 2.818,0 0,14.566 -2.818,0 z" /><path
       style="fill:#000000"
       inkscape:connector-curvature="0"
       id="path41"
       d="m 215.629,22.38 c 0.087,1.606 0.996,2.647 2.383,2.647 0.911,0 1.714,-0.456 1.909,-1.193 l 2.904,0 c -0.653,2.189 -2.405,3.424 -4.683,3.424 -3.556,0 -5.331,-1.951 -5.331,-5.81 0,-3.293 1.886,-5.418 5.157,-5.418 3.274,0 5.007,2.125 5.007,6.35 l -7.346,0 z m 4.444,-1.776 c -0.044,-1.582 -1.083,-2.34 -2.19,-2.34 -1.127,0 -2.061,0.866 -2.167,2.34 l 4.357,0 z" /><path
       style="fill:#000000"
       inkscape:connector-curvature="0"
       id="path43"
       d="m 224.458,15.032 0,-2.622 2.815,0 0,2.622 -2.815,0 z m 0,11.945 0,-10.664 2.815,0 0,10.664 -2.815,0 z" /><path
       style="fill:#000000"
       inkscape:connector-curvature="0"
       id="path45"
       d="m 236.402,26.977 -0.021,-1.301 c -0.674,1.083 -1.669,1.582 -2.971,1.582 -2.688,0 -4.616,-2.125 -4.616,-5.725 0,-3.226 1.626,-5.503 4.379,-5.503 1.322,0 2.36,0.54 3.165,1.668 l 0,-5.288 2.774,0 0,14.566 -2.71,0 z m 0.044,-5.073 c 0,-2.32 -0.801,-3.47 -2.362,-3.47 -1.647,0 -2.429,1.106 -2.429,3.297 0,1.906 0.998,3.23 2.407,3.23 1.344,0.001 2.384,-1.258 2.384,-3.057 z" /><path
       style="fill:#000000"
       inkscape:connector-curvature="0"
       id="path47"
       d="m 243.368,22.38 c 0.086,1.606 0.995,2.647 2.382,2.647 0.912,0 1.715,-0.456 1.91,-1.193 l 2.903,0 c -0.65,2.189 -2.405,3.424 -4.683,3.424 -3.554,0 -5.332,-1.951 -5.332,-5.81 0,-3.293 1.888,-5.418 5.159,-5.418 3.272,0 5.007,2.125 5.007,6.35 l -7.346,0 z m 4.444,-1.776 c -0.044,-1.582 -1.083,-2.34 -2.189,-2.34 -1.128,0 -2.06,0.866 -2.168,2.34 l 4.357,0 z" /><path
       style="fill:#000000"
       inkscape:connector-curvature="0"
       id="path49"
       d="m 252.131,26.977 0,-10.664 2.643,0 0,1.277 c 0.932,-1.43 2.019,-1.56 3.167,-1.56 l 0.366,0 0,2.882 c -0.26,-0.042 -0.518,-0.063 -0.779,-0.063 -1.734,0 -2.579,0.867 -2.579,2.577 l 0,5.551 -2.818,0 z" /><path
       style="fill:#000000"
       inkscape:connector-curvature="0"
       id="path51"
       d="m 265.66,19.541 c -0.131,-0.977 -0.694,-1.41 -1.908,-1.41 -1.148,0 -1.755,0.24 -1.755,0.912 0,0.585 0.606,0.889 1.732,1.192 3.729,1.019 4.942,1.213 4.942,3.707 0,1.906 -1.625,3.315 -4.725,3.315 -3.056,0 -5.029,-1.451 -5.072,-3.705 l 2.903,0 c 0,0.995 0.89,1.58 2.148,1.58 1.061,0 1.948,-0.325 1.948,-1.016 0,-0.781 -0.563,-1.043 -1.711,-1.303 -4.141,-0.91 -4.899,-1.974 -4.899,-3.771 0,-1.604 1.233,-3.013 4.573,-3.013 3.057,0 4.401,1.321 4.529,3.511 l -2.705,0 z" /><path
       style="fill:#000000"
       inkscape:connector-curvature="0"
       id="path53"
       d="m 279.519,23.118 c -0.306,2.47 -2.321,4.14 -4.898,4.14 -2.905,0 -4.9,-1.929 -4.9,-5.744 0,-3.815 1.995,-5.483 4.983,-5.483 2.776,0 4.663,1.581 4.835,4.096 l -2.839,0 c -0.15,-1.104 -0.952,-1.755 -2.017,-1.755 -1.192,0 -2.167,0.759 -2.167,3.077 0,2.319 0.975,3.448 2.081,3.448 1.105,0 1.972,-0.629 2.082,-1.778 l 2.84,0 z" /><path
       style="fill:#000000"
       inkscape:connector-curvature="0"
       id="path55"
       d="m 287.608,26.977 0,-6.613 c 0,-1.602 -0.542,-2.1 -1.819,-2.1 -1.409,0 -2.19,1.168 -2.19,2.602 l 0,6.111 -2.819,0 0,-14.567 2.819,0 0,5.288 c 0.411,-0.954 1.712,-1.668 3.144,-1.668 2.188,0 3.706,1.28 3.706,3.401 l 0,7.545 -2.841,0 z" /><path
       style="fill:#000000"
       inkscape:connector-curvature="0"
       id="path57"
       d="m 298.801,26.977 c -0.09,-0.26 -0.153,-0.629 -0.175,-0.953 -0.673,0.735 -1.8,1.234 -3.228,1.234 -2.43,0 -3.56,-1.193 -3.56,-2.925 0,-3.079 2.062,-3.426 4.901,-3.817 1.41,-0.193 1.798,-0.475 1.798,-1.213 0,-0.694 -0.694,-1.104 -1.798,-1.104 -1.279,0 -1.799,0.627 -1.93,1.583 l -2.622,0 c 0.043,-2.214 1.256,-3.751 4.682,-3.751 3.381,0 4.553,1.516 4.553,4.205 l 0,6.741 -2.621,0 z m -0.197,-5.225 c -0.282,0.283 -0.779,0.434 -1.819,0.628 -1.604,0.304 -2.125,0.76 -2.125,1.67 0,0.803 0.477,1.193 1.366,1.193 1.45,0 2.535,-1.063 2.555,-2.321 l 0.023,-1.17 z" /><path
       style="fill:#000000"
       inkscape:connector-curvature="0"
       id="path59"
       d="m 303.097,32.029 0,-15.716 2.711,0 0.021,1.299 c 0.672,-1.083 1.669,-1.581 2.97,-1.581 2.688,0 4.618,2.125 4.618,5.722 0,3.229 -1.627,5.506 -4.378,5.506 -1.325,0 -2.365,-0.541 -3.168,-1.67 l 0,6.441 -2.774,0 z m 7.459,-10.472 c 0,-1.907 -0.997,-3.228 -2.409,-3.228 -1.343,0 -2.385,1.255 -2.385,3.054 0,2.32 0.804,3.47 2.364,3.47 1.647,0 2.43,-1.107 2.43,-3.296 z" /><path
       style="fill:#000000"
       inkscape:connector-curvature="0"
       id="path61"
       d="m 321.29,19.541 c -0.13,-0.977 -0.695,-1.41 -1.907,-1.41 -1.149,0 -1.758,0.24 -1.758,0.912 0,0.585 0.608,0.889 1.734,1.192 3.729,1.019 4.941,1.213 4.941,3.707 0,1.906 -1.622,3.315 -4.723,3.315 -3.056,0 -5.031,-1.451 -5.071,-3.705 l 2.901,0 c 0,0.995 0.891,1.58 2.146,1.58 1.063,0 1.95,-0.325 1.95,-1.016 0,-0.781 -0.563,-1.043 -1.711,-1.303 -4.142,-0.91 -4.9,-1.974 -4.9,-3.771 0,-1.604 1.236,-3.013 4.575,-3.013 3.057,0 4.4,1.321 4.53,3.511 l -2.707,0 z" /><path
       style="fill:#000000"
       inkscape:connector-curvature="0"
       id="path63"
       d="m 208.457,39.643 c 0,-3.341 2.077,-5.545 5.417,-5.545 3.294,0 5.35,2.184 5.35,5.545 0,3.338 -2.077,5.543 -5.35,5.543 -3.406,0 -5.417,-2.269 -5.417,-5.543 z m 7.963,0 c 0,-2.143 -0.855,-3.19 -2.546,-3.19 -1.694,0 -2.549,1.048 -2.549,3.19 0,2.139 0.854,3.207 2.549,3.207 1.69,0 2.546,-1.069 2.546,-3.207 z" /><path
       style="fill:#000000"
       inkscape:connector-curvature="0"
       id="path65"
       d="m 227.404,44.905 0,-6.377 c 0,-1.626 -0.469,-2.076 -1.796,-2.076 -1.456,0 -2.162,0.814 -2.162,2.419 l 0,6.034 -2.782,0 0,-10.528 2.651,0 0,1.54 c 0.644,-1.179 1.715,-1.819 3.404,-1.819 2.013,0 3.488,1.22 3.488,3.511 l 0,7.297 -2.803,0 z" /><path
       style="fill:#000000"
       inkscape:connector-curvature="0"
       id="path67"
       d="m 237.836,37.973 2.589,0 0,2.995 c 0,2.226 -1.286,4.218 -4.259,4.218 -3.083,0 -4.303,-1.968 -4.303,-4.241 l 0,-9.415 2.74,0 0,2.847 5.821,0 0,1.968 -5.821,0 0,4.322 c 0,1.328 0.471,2.098 1.604,2.098 1.114,0 1.629,-0.75 1.629,-2.054 l 0,-2.738 z" /><path
       style="fill:#000000"
       inkscape:connector-curvature="0"
       id="path69"
       d="m 250.657,44.905 -1.669,-6.119 -1.669,6.119 -2.846,0 -2.996,-10.528 2.932,0 1.711,6.763 1.458,-6.763 2.823,0 1.65,6.763 1.604,-6.763 2.869,0 -3.02,10.528 -2.847,0 z" /><path
       style="fill:#000000"
       inkscape:connector-curvature="0"
       id="path71"
       d="m 257.774,33.112 0,-2.588 2.781,0 0,2.588 -2.781,0 z m 0,11.793 0,-10.528 2.781,0 0,10.528 -2.781,0 z" /><path
       style="fill:#000000"
       inkscape:connector-curvature="0"
       id="path73"
       d="m 268.733,44.905 -2.311,-4.73 -1.349,1.391 0,3.34 -2.803,0 0,-14.382 2.803,0 0,7.854 3.467,-4.002 3.403,0 -3.531,3.875 3.446,6.653 -3.125,0 z" /><path
       style="fill:#000000"
       inkscape:connector-curvature="0"
       id="path75"
       d="m 279.505,44.905 -2.313,-4.73 -1.349,1.391 0,3.34 -2.804,0 0,-14.382 2.804,0 0,7.854 3.467,-4.002 3.404,0 -3.532,3.875 3.447,6.653 -3.124,0 z" /><path
       style="fill:#000000"
       inkscape:connector-curvature="0"
       id="path77"
       d="m 285.269,40.368 c 0.085,1.583 0.982,2.612 2.353,2.612 0.896,0 1.691,-0.45 1.885,-1.178 l 2.867,0 c -0.641,2.162 -2.375,3.383 -4.623,3.383 -3.51,0 -5.266,-1.927 -5.266,-5.737 0,-3.252 1.865,-5.351 5.095,-5.351 3.231,0 4.944,2.099 4.944,6.271 l -7.255,0 z m 4.388,-1.755 c -0.045,-1.561 -1.07,-2.312 -2.165,-2.312 -1.112,0 -2.031,0.855 -2.139,2.312 l 4.304,0 z" /><path
       style="fill:#000000"
       inkscape:connector-curvature="0"
       id="path79"
       d="m 293.918,44.905 0,-14.381 2.783,0 0,14.381 -2.783,0 z" /><path
       style="fill:#000000"
       inkscape:connector-curvature="0"
       id="path81"
       d="m 298.394,33.112 0,-2.588 2.783,0 0,2.588 -2.783,0 z m 0,11.793 0,-10.528 2.783,0 0,10.528 -2.783,0 z" /><path
       style="fill:#000000"
       inkscape:connector-curvature="0"
       id="path83"
       d="m 309.636,44.905 0,-6.377 c 0,-1.626 -0.474,-2.076 -1.801,-2.076 -1.456,0 -2.161,0.814 -2.161,2.419 l 0,6.034 -2.781,0 0,-10.528 2.654,0 0,1.54 c 0.64,-1.179 1.711,-1.819 3.399,-1.819 2.014,0 3.492,1.22 3.492,3.511 l 0,7.297 -2.802,0 z" /><path
       style="fill:#000000"
       inkscape:connector-curvature="0"
       id="path85"
       d="m 321.433,43.492 c -0.387,0.944 -1.521,1.499 -2.89,1.499 -3.468,0 -4.669,-2.652 -4.669,-5.414 0,-3.275 2.058,-5.479 4.604,-5.479 1.326,0 2.289,0.515 2.955,1.585 l 0,-1.306 2.781,0 0,10.637 c 0,3.169 -2.311,4.879 -5.243,4.879 -2.934,0 -5.097,-1.69 -5.097,-4.406 l 2.592,0 c 0,1.26 0.921,2.01 2.312,2.01 1.478,0 2.655,-0.878 2.655,-2.271 l 0,-1.734 z m 0.082,-3.596 c 0,-2.287 -0.789,-3.379 -2.374,-3.379 -1.563,0 -2.376,1.051 -2.376,3.211 0,1.884 1.004,3.082 2.376,3.082 1.348,0 2.374,-1.136 2.374,-2.914 z" /></g></svg>