<?xml version="1.0" encoding="UTF-8" standalone="no"?>
<svg
   xmlns:dc="http://purl.org/dc/elements/1.1/"
   xmlns:cc="http://creativecommons.org/ns#"
   xmlns:rdf="http://www.w3.org/1999/02/22-rdf-syntax-ns#"
   xmlns:svg="http://www.w3.org/2000/svg"
   xmlns="http://www.w3.org/2000/svg"
   viewBox="0 0 363.3125 107.8"
   height="107.8"
   width="363.3125"
   xml:space="preserve"
   version="1.1"
   id="svg2"><metadata
     id="metadata8"><rdf:RDF><cc:Work
         rdf:about=""><dc:format>image/svg+xml</dc:format><dc:type
           rdf:resource="http://purl.org/dc/dcmitype/StillImage" /><dc:title></dc:title></cc:Work></rdf:RDF></metadata><defs
     id="defs6" /><g
     transform="matrix(1.25,0,0,-1.25,0,107.8)"
     id="g10"><g
       transform="scale(0.1,0.1)"
       id="g12"><path
         id="path14"
         style="fill:#4d2587;fill-opacity:1;fill-rule:nonzero;stroke:none"
         d="m 162.074,588.773 0,121.368 -105.4685,0 0,-121.368 -56.6055,0 0,270.407 56.6055,0 0,-101.813 105.4685,0 0,101.813 57.012,0 0,-270.407 -57.012,0" /><path
         id="path16"
         style="fill:#4d2587;fill-opacity:1;fill-rule:nonzero;stroke:none"
         d="m 379.566,708.5 c -0.816,29.738 -20.351,43.996 -41.128,43.996 -21.172,0 -38.692,-16.301 -40.735,-43.996 l 81.863,0 z m -83.48,-33.387 c 1.617,-30.133 18.727,-49.679 44.789,-49.679 17.105,0 32.172,8.535 35.84,22.398 l 54.57,0 c -12.219,-41.137 -45.199,-64.355 -87.961,-64.355 -66.785,0 -100.187,36.652 -100.187,109.136 0,61.914 35.441,101.809 96.937,101.809 61.485,0 94.071,-39.895 94.071,-119.309 l -138.059,0" /><path
         id="path18"
         style="fill:#4d2587;fill-opacity:1;fill-rule:nonzero;stroke:none"
         d="m 573.445,720.719 49.27,0 0,-57.024 c 0,-42.347 -24.434,-80.218 -81.039,-80.218 -58.641,0 -81.856,37.476 -81.856,80.64 l 0,179.184 52.121,0 0,-54.16 110.774,0 0,-37.465 -110.774,0 0,-82.262 c 0,-25.25 8.965,-39.918 30.555,-39.918 21.172,0 30.949,14.258 30.949,39.102 l 0,52.121" /><path
         id="path20"
         style="fill:#4d2587;fill-opacity:1;fill-rule:nonzero;stroke:none"
         d="m 760,588.773 0,270.407 198.73,0 0,-47.239 -143.753,0 0,-57.82 132.347,0 0,-47.652 -132.347,0 0,-69.645 150.261,0 0,-48.051 -205.238,0" /><path
         id="path22"
         style="fill:#4d2587;fill-opacity:1;fill-rule:nonzero;stroke:none"
         d="m 1165.63,661.27 c -5.68,-46.434 -43.57,-77.793 -92.03,-77.793 -54.57,0 -92.03,36.246 -92.03,107.914 0,71.691 37.46,103.031 93.66,103.031 52.12,0 87.56,-29.727 90.81,-76.957 l -53.34,0 c -2.85,20.773 -17.91,32.988 -37.88,32.988 -22.39,0 -40.73,-14.258 -40.73,-57.84 0,-43.57 18.34,-64.746 39.11,-64.746 20.76,0 37.06,11.821 39.09,33.403 l 53.34,0" /><path
         id="path24"
         style="fill:#4d2587;fill-opacity:1;fill-rule:nonzero;stroke:none"
         d="m 1316.77,588.773 0,124.219 c 0,30.117 -10.21,39.504 -34.22,39.504 -26.49,0 -41.13,-22.008 -41.13,-48.879 l 0,-114.844 -52.94,0 0,273.668 52.94,0 0,-99.359 c 7.72,17.895 32.17,31.34 59.05,31.34 41.12,0 69.63,-24.024 69.63,-63.934 l 0,-141.715 -53.33,0" /><path
         id="path26"
         style="fill:#4d2587;fill-opacity:1;fill-rule:nonzero;stroke:none"
         d="m 1514.3,720.719 49.25,0 0,-57.024 c 0,-42.347 -24.42,-80.218 -81.03,-80.218 -58.65,0 -81.85,37.476 -81.85,80.64 l 0,179.184 52.12,0 0,-54.16 110.76,0 0,-37.465 -110.76,0 0,-82.262 c 0,-25.25 8.96,-39.918 30.54,-39.918 21.19,0 30.97,14.258 30.97,39.102 l 0,52.121" /><path
         id="path28"
         style="fill:#4d2587;fill-opacity:1;fill-rule:nonzero;stroke:none"
         d="m 1724.04,708.5 c -0.81,29.738 -20.35,43.996 -41.15,43.996 -21.14,0 -38.67,-16.301 -40.7,-43.996 l 81.85,0 z m -83.48,-33.387 c 1.63,-30.133 18.74,-49.679 44.79,-49.679 17.11,0 32.18,8.535 35.85,22.398 l 54.58,0 c -12.23,-41.137 -45.23,-64.355 -87.99,-64.355 -66.78,0 -100.18,36.652 -100.18,109.136 0,61.914 35.43,101.809 96.94,101.809 61.49,0 94.07,-39.895 94.07,-119.309 l -138.06,0" /><path
         id="path30"
         style="fill:#4d2587;fill-opacity:1;fill-rule:nonzero;stroke:none"
         d="m 215.176,273.516 -41.946,175.933 -42.75,-175.933 -52.9448,0 -76.56645,270.402 60.26955,0 44.3987,-175.109 37.461,175.109 59.457,0 41.14,-175.109 43.965,175.109 57.828,0 -75.73,-270.402 -54.582,0" /><path
         id="path32"
         style="fill:#4d2587;fill-opacity:1;fill-rule:nonzero;stroke:none"
         d="m 467.301,393.223 c -0.813,29.738 -20.367,43.992 -41.129,43.992 -21.184,0 -38.676,-16.277 -40.727,-43.992 l 81.856,0 z m -83.469,-33.379 c 1.613,-30.137 18.719,-49.688 44.781,-49.688 17.102,0 32.164,8.555 35.844,22.422 l 54.563,0 c -12.219,-41.152 -45.196,-64.355 -87.969,-64.355 -66.778,0 -100.168,36.64 -100.168,109.121 0,61.918 35.41,101.82 96.933,101.82 61.481,0 94.047,-39.902 94.047,-119.32 l -138.031,0" /><path
         id="path34"
         style="fill:#4d2587;fill-opacity:1;fill-rule:nonzero;stroke:none"
         d="m 547.555,273.516 0,200.351 49.675,0 0,-24.023 c 17.52,26.883 37.883,29.32 59.469,29.32 l 6.918,0 0,-54.156 c -4.887,0.812 -9.777,1.222 -14.656,1.222 -32.578,0 -48.457,-16.289 -48.457,-48.476 l 0,-104.238 -52.949,0" /><path
         id="path36"
         style="fill:#4d2587;fill-opacity:1;fill-rule:nonzero;stroke:none"
         d="m 808.199,273.516 -43.976,89.98 -25.66,-26.445 0,-63.535 -53.344,0 0,273.66 53.344,0 0,-149.461 65.988,76.152 64.734,0 -67.183,-73.699 65.554,-126.652 -59.457,0" /><path
         id="path38"
         style="fill:#4d2587;fill-opacity:1;fill-rule:nonzero;stroke:none"
         d="m 1002.89,405.469 49.27,0 0,-57.031 c 0,-42.364 -24.44,-80.215 -81.043,-80.215 -58.633,0 -81.855,37.461 -81.855,80.625 l 0,179.183 52.129,0 0,-54.164 110.769,0 0,-37.465 -110.769,0 0,-82.261 c 0,-25.235 8.961,-39.922 30.543,-39.922 21.187,0 30.956,14.258 30.956,39.121 l 0,52.129" /><path
         id="path40"
         style="fill:#4d2587;fill-opacity:1;fill-rule:nonzero;stroke:none"
         d="m 1216.16,273.652 -46.09,0 0,44.727 46.09,0 0,-44.727 z m 227.95,186.157 -225.64,18.488 c 0.02,-1.07 0.09,-2.051 0.09,-3.152 0,-37.567 -4.43,-84.364 -13.32,-138.661 l -23.57,0 c -8.87,54.297 -13.32,101.446 -13.32,139.688 0,2.125 0,4.195 0.02,6.226 l -20.47,1.672 c -12.54,1.028 -23.54,-8.304 -24.56,-20.84 l -24.28,-296.199 c -1.01,-12.539 8.29,-23.535 20.85,-24.551 l 296.19,-24.277 c 12.54,-1.015 23.54,8.301 24.59,20.84 l 24.24,296.199 c 1.03,12.547 -8.3,23.543 -20.82,24.567" /><path
         id="path42"
         style="fill:#231f20;fill-opacity:1;fill-rule:nonzero;stroke:none"
         d="m 1523.35,273.906 33.6875,0 0,174.105 -33.6875,0 0,-174.105 z" /><path
         id="path44"
         style="fill:#231f20;fill-opacity:1;fill-rule:nonzero;stroke:none"
         d="m 1660.68,350.078 c -0.52,18.906 -12.94,27.969 -26.17,27.969 -13.47,0 -24.63,-10.352 -25.91,-27.969 l 52.08,0 z m -53.11,-21.23 c 1.03,-19.2 11.9,-31.641 28.47,-31.641 10.89,0 20.49,5.449 22.83,14.258 l 34.71,0 c -7.81,-26.172 -28.75,-40.918 -55.97,-40.918 -42.49,0 -63.72,23.32 -63.72,69.433 0,39.356 22.54,64.754 61.65,64.754 39.13,0 59.84,-25.398 59.84,-75.886 l -87.81,0" /><path
         id="path46"
         style="fill:#231f20;fill-opacity:1;fill-rule:nonzero;stroke:none"
         d="m 1713.1,273.906 0,127.461 33.65,0 0,-127.461 -33.65,0 z m 0,142.766 0,31.34 33.65,0 0,-31.34 -33.65,0" /><path
         id="path48"
         style="fill:#231f20;fill-opacity:1;fill-rule:nonzero;stroke:none"
         d="m 1856.39,334.531 c 0,27.735 -9.58,41.465 -28.25,41.465 -19.68,0 -29.02,-13.223 -29.02,-39.394 0,-22.793 11.92,-38.614 28.77,-38.614 16.07,0 28.5,15.039 28.5,36.543 z m -0.53,-60.625 -0.24,15.547 c -8.06,-12.949 -19.96,-18.906 -35.51,-18.906 -32.12,0 -55.18,25.391 -55.18,68.418 0,38.555 19.44,65.769 52.34,65.769 15.81,0 28.21,-6.453 37.83,-19.929 l 0,63.207 33.16,0 0,-174.106 -32.4,0" /><path
         id="path50"
         style="fill:#231f20;fill-opacity:1;fill-rule:nonzero;stroke:none"
         d="m 1992.23,350.078 c -0.53,18.906 -12.95,27.969 -26.18,27.969 -13.48,0 -24.61,-10.352 -25.9,-27.969 l 52.08,0 z m -53.12,-21.23 c 1.04,-19.2 11.91,-31.641 28.48,-31.641 10.9,0 20.49,5.449 22.83,14.258 l 34.7,0 c -7.78,-26.172 -28.75,-40.918 -55.97,-40.918 -42.48,0 -63.73,23.32 -63.73,69.433 0,39.356 22.56,64.754 61.66,64.754 39.12,0 59.84,-25.398 59.84,-75.886 l -87.81,0" /><path
         id="path52"
         style="fill:#231f20;fill-opacity:1;fill-rule:nonzero;stroke:none"
         d="m 2043.85,273.906 0,127.461 31.59,0 0,-15.273 c 11.13,17.09 24.12,18.64 37.85,18.64 l 4.38,0 0,-34.441 c -3.11,0.508 -6.19,0.762 -9.32,0.762 -20.72,0 -30.82,-10.371 -30.82,-30.801 l 0,-66.348 -33.68,0" /><path
         id="path54"
         style="fill:#231f20;fill-opacity:1;fill-rule:nonzero;stroke:none"
         d="m 2205.56,362.773 c -1.57,11.68 -8.3,16.856 -22.82,16.856 -13.72,0 -20.96,-2.871 -20.96,-10.899 0,-6.992 7.24,-10.625 20.7,-14.257 44.56,-12.168 59.07,-14.493 59.07,-44.297 0,-22.793 -19.42,-39.629 -56.46,-39.629 -36.53,0 -60.12,17.344 -60.64,44.277 l 34.71,0 c 0,-11.894 10.63,-18.886 25.68,-18.886 12.67,0 23.29,3.886 23.29,12.148 0,9.336 -6.72,12.461 -20.45,15.566 -49.5,10.879 -58.57,23.594 -58.57,45.078 0,19.18 14.75,36.004 54.67,36.004 36.53,0 52.61,-15.789 54.13,-41.961 l -32.35,0" /><path
         id="path56"
         style="fill:#231f20;fill-opacity:1;fill-rule:nonzero;stroke:none"
         d="m 2371.2,320.02 c -3.65,-29.512 -27.74,-49.473 -58.55,-49.473 -34.73,0 -58.57,23.047 -58.57,68.652 0,45.606 23.84,65.535 59.56,65.535 33.19,0 55.74,-18.894 57.8,-48.953 l -33.94,0 c -1.8,13.203 -11.38,20.977 -24.1,20.977 -14.26,0 -25.9,-9.063 -25.9,-36.778 0,-27.714 11.64,-41.21 24.87,-41.21 13.22,0 23.57,7.519 24.89,21.25 l 33.94,0" /><path
         id="path58"
         style="fill:#231f20;fill-opacity:1;fill-rule:nonzero;stroke:none"
         d="m 2467.89,273.906 0,79.043 c 0,19.141 -6.47,25.098 -21.75,25.098 -16.83,0 -26.18,-13.965 -26.18,-31.094 l 0,-73.047 -33.69,0 0,174.106 33.69,0 0,-63.207 c 4.92,11.406 20.46,19.929 37.58,19.929 26.15,0 44.3,-15.3 44.3,-40.652 l 0,-90.176 -33.95,0" /><path
         id="path60"
         style="fill:#231f20;fill-opacity:1;fill-rule:nonzero;stroke:none"
         d="m 2599.31,336.348 c -3.37,-3.379 -9.32,-5.176 -21.75,-7.5 -19.18,-3.633 -25.39,-9.082 -25.39,-19.961 0,-9.59 5.69,-14.258 16.33,-14.258 17.33,0 30.29,12.695 30.53,27.734 l 0.28,13.985 z m 2.35,-62.442 c -1.06,3.106 -1.83,7.52 -2.09,11.387 -8.04,-8.789 -21.5,-14.746 -38.57,-14.746 -29.05,0 -42.54,14.258 -42.54,34.961 0,36.797 24.64,40.937 58.57,45.625 16.86,2.305 21.5,5.664 21.5,14.492 0,8.301 -8.31,13.203 -21.5,13.203 -15.28,0 -21.49,-7.5 -23.06,-18.926 l -31.33,0 c 0.5,26.465 15.01,44.832 55.94,44.832 40.41,0 54.43,-18.113 54.43,-50.261 l 0,-80.567 -31.35,0" /><path
         id="path62"
         style="fill:#231f20;fill-opacity:1;fill-rule:nonzero;stroke:none"
         d="m 2742.16,338.691 c 0,22.793 -11.92,38.575 -28.79,38.575 -16.06,0 -28.51,-15 -28.51,-36.504 0,-27.735 9.61,-41.465 28.27,-41.465 19.68,0 29.03,13.223 29.03,39.394 z m -89.15,-125.175 0,187.851 32.4,0 0.24,-15.527 c 8.04,12.949 19.96,18.894 35.5,18.894 32.14,0 55.2,-25.398 55.2,-68.386 0,-38.594 -19.45,-65.801 -52.33,-65.801 -15.84,0 -28.27,6.465 -37.86,19.961 l 0,-76.992 -33.15,0" /><path
         id="path64"
         style="fill:#231f20;fill-opacity:1;fill-rule:nonzero;stroke:none"
         d="m 2870.47,362.773 c -1.55,11.68 -8.31,16.856 -22.8,16.856 -13.73,0 -21.01,-2.871 -21.01,-10.899 0,-6.992 7.28,-10.625 20.72,-14.257 44.57,-12.168 59.08,-14.493 59.08,-44.297 0,-22.793 -19.4,-39.629 -56.46,-39.629 -36.52,0 -60.13,17.344 -60.62,44.277 l 34.69,0 c 0,-11.894 10.65,-18.886 25.65,-18.886 12.71,0 23.31,3.886 23.31,12.148 0,9.336 -6.73,12.461 -20.45,15.566 -49.49,10.879 -58.57,23.594 -58.57,45.078 0,19.18 14.78,36.004 54.69,36.004 36.53,0 52.59,-15.789 54.14,-41.961 l -32.37,0" /><path
         id="path66"
         style="fill:#231f20;fill-opacity:1;fill-rule:nonzero;stroke:none"
         d="m 1617.02,122.52 c 0,25.605 -10.22,38.125 -30.43,38.125 -20.25,0 -30.47,-12.52 -30.47,-38.125 0,-25.5669 10.22,-38.3403 30.47,-38.3403 20.21,0 30.43,12.7734 30.43,38.3403 z m -95.17,0 c 0,39.921 24.83,66.269 64.74,66.269 39.37,0 63.94,-26.094 63.94,-66.269 0,-39.9028 -24.83,-66.2505 -63.94,-66.2505 -40.71,0 -64.74,27.1094 -64.74,66.2505" /><path
         id="path68"
         style="fill:#231f20;fill-opacity:1;fill-rule:nonzero;stroke:none"
         d="m 1748.31,59.6094 0,76.2306 c 0,19.433 -5.6,24.805 -21.46,24.805 -17.41,0 -25.84,-9.727 -25.84,-28.907 l 0,-72.1286 -33.27,0 0,125.8396 31.7,0 0,-18.398 c 7.69,14.082 20.49,21.738 40.69,21.738 24.05,0 41.7,-14.57 41.7,-41.953 l 0,-87.2266 -33.52,0" /><path
         id="path70"
         style="fill:#231f20;fill-opacity:1;fill-rule:nonzero;stroke:none"
         d="m 1873,142.48 30.94,0 0,-35.8 c 0,-26.6019 -15.38,-50.4105 -50.91,-50.4105 -36.85,0 -51.42,23.5157 -51.42,50.6835 l 0,112.52 32.75,0 0,-34.024 69.58,0 0,-23.515 -69.58,0 0,-51.661 c 0,-15.8785 5.62,-25.0777 19.17,-25.0777 13.31,0 19.47,8.9649 19.47,24.5507 l 0,32.734" /><path
         id="path72"
         style="fill:#231f20;fill-opacity:1;fill-rule:nonzero;stroke:none"
         d="m 2026.24,59.6094 -19.95,73.1446 -19.95,-73.1446 -34.02,0 -35.8,125.8396 35.04,0 20.45,-80.82 17.42,80.82 33.74,0 19.74,-80.82 19.16,80.82 34.3,0 -36.1,-125.8396 -34.03,0" /><path
         id="path74"
         style="fill:#231f20;fill-opacity:1;fill-rule:nonzero;stroke:none"
         d="m 2111.3,59.6094 0,125.8396 33.25,0 0,-125.8396 -33.25,0 z m 0,140.9566 0,30.938 33.25,0 0,-30.938 -33.25,0" /><path
         id="path76"
         style="fill:#231f20;fill-opacity:1;fill-rule:nonzero;stroke:none"
         d="m 2242.29,59.6094 -27.61,56.5426 -16.13,-16.6207 0,-39.9219 -33.49,0 0,171.8946 33.49,0 0,-93.887 41.44,47.832 40.67,0 -42.2,-46.308 41.19,-79.5316 -37.36,0" /><path
         id="path78"
         style="fill:#231f20;fill-opacity:1;fill-rule:nonzero;stroke:none"
         d="m 2371.04,59.6094 -27.65,56.5426 -16.11,-16.6207 0,-39.9219 -33.52,0 0,171.8946 33.52,0 0,-93.887 41.43,47.832 40.68,0 -42.21,-46.308 41.21,-79.5316 -37.35,0" /><path
         id="path80"
         style="fill:#231f20;fill-opacity:1;fill-rule:nonzero;stroke:none"
         d="m 2492.37,134.824 c -0.53,18.653 -12.79,27.617 -25.87,27.617 -13.3,0 -24.28,-10.214 -25.56,-27.617 l 51.43,0 z m -52.45,-20.976 c 1.02,-18.9261 11.74,-31.2308 28.13,-31.2308 10.71,0 20.21,5.3906 22.52,14.082 l 34.26,0 c -7.65,-25.8398 -28.37,-40.4297 -55.25,-40.4297 -41.94,0 -62.94,23.0274 -62.94,68.5745 0,38.867 22.31,63.945 60.9,63.945 38.62,0 59.09,-25.078 59.09,-74.941 l -86.71,0" /><path
         id="path82"
         style="fill:#231f20;fill-opacity:1;fill-rule:nonzero;stroke:none"
         d="m 2543.3,59.6094 33.2695,0 0,171.895 -33.2695,0 0,-171.895 z" /><path
         id="path84"
         style="fill:#231f20;fill-opacity:1;fill-rule:nonzero;stroke:none"
         d="m 2596.8,59.6094 0,125.8396 33.26,0 0,-125.8396 -33.26,0 z m 0,140.9566 0,30.938 33.26,0 0,-30.938 -33.26,0" /><path
         id="path86"
         style="fill:#231f20;fill-opacity:1;fill-rule:nonzero;stroke:none"
         d="m 2731.17,59.6094 0,76.2306 c 0,19.433 -5.66,24.805 -21.52,24.805 -17.4,0 -25.83,-9.727 -25.83,-28.907 l 0,-72.1286 -33.25,0 0,125.8396 31.72,0 0,-18.398 c 7.65,14.082 20.45,21.738 40.64,21.738 24.06,0 41.74,-14.57 41.74,-41.953 l 0,-87.2266 -33.5,0" /><path
         id="path88"
         style="fill:#231f20;fill-opacity:1;fill-rule:nonzero;stroke:none"
         d="m 2873.15,119.492 c 0,27.344 -9.43,40.391 -28.37,40.391 -18.69,0 -28.4,-12.559 -28.4,-38.379 0,-22.5196 12,-36.836 28.4,-36.836 16.12,0 28.37,13.5742 28.37,34.824 z m -0.98,-42.9881 c -4.62,-11.2891 -18.18,-17.9101 -34.54,-17.9101 -41.45,0 -55.8,31.6992 -55.8,64.7072 0,39.14 24.59,65.488 55.02,65.488 15.85,0 27.36,-6.152 35.32,-18.945 l 0,15.605 33.24,0 0,-127.1287 C 2905.41,20.4492 2877.79,0 2842.74,0 c -35.05,0 -60.91,20.2148 -60.91,52.6758 l 30.97,0 c 0,-15.0586 11.01,-24.0235 27.63,-24.0235 17.67,0 31.74,10.4883 31.74,27.129 l 0,20.7226" /></g></g></svg>