<?xml version="1.0" encoding="utf-8"?>
<!-- Generator: Adobe Illustrator 16.0.0, SVG Export Plug-In . SVG Version: 6.00 Build 0)  -->
<!DOCTYPE svg PUBLIC "-//W3C//DTD SVG 1.1//EN" "http://www.w3.org/Graphics/SVG/1.1/DTD/svg11.dtd">
<svg version="1.1" id="Laag_1_kopie" xmlns="http://www.w3.org/2000/svg" xmlns:xlink="http://www.w3.org/1999/xlink" x="0px"
	 y="0px" width="115.414px" height="56.806px" viewBox="0 0 115.414 56.806" enable-background="new 0 0 115.414 56.806"
	 xml:space="preserve">
<g>
	<g>
		<g>
			<g>
				<path fill="#061556" d="M27.521,10.086c-4.754-0.006-7.624-1.605-5.496-6.182c0.128-0.277,0.499-0.958-0.212-0.743
					c-2.978,0.906-12.48,5.711,0.472,10.549c-1.249,0.261-2.746,0.42-4.703,0.418c-2.968-0.004-7.139-0.926-7.787-1.098
					c-1.083-0.288-1.096,0.712-0.128,1.778c2.719,2.994,11.705,5.842,18.642,5.127c3.836-0.396,8.232-3.26,8.232-3.26
					c-1.061-0.775-3.177,0.139-4.048,0.388c-3.067,0.879-5.246,0.061-5.95-0.979c0.615-0.219,1.205-0.439,1.766-0.673
					c14.976-6.268,19.657-7.015,34.077-2.524c-10.712-1.584-21.603,3.697-26.565,7.136c-1.872,1.297-1.798,2.507-0.12,1.797
					c1.628-0.688,2.467-1.282,3.758-1.362c1.643-0.104,3.665,0.978,4.716,1.479c4.932,2.356,10.945-3.644,13.241-5.146
					c1.933-1.263,4.298-2.592,6.453-1.131c0,0,2.88-0.654,5.132-1.287C42.092,0.038,34.804,10.095,27.521,10.086z"/>
				<path fill="#061556" d="M113.625,17.179c-2.525,2.659-6.549,5.129-12.028,5.281c-6.451,0.176-9.865-0.173-17.84-3.713
					c1.553-2.176,2.176-4.348,2.272-6.816c0.129-3.327-1.348-6.204-4.347-8.05c-3.237-1.992-5.189-2.953-5.189-2.953
					c1.537,0.862,2.584,3.146,2.988,6.049c0.549,3.93-0.456,8.797-5.075,11.806l6.031,10.584c-4.493-0.464-7.597,1.934-7.597,1.934
					l5.792,4.932c0,0,4.909-3.125,12.668-1.541l-9.407-13.017c7.093,3.888,18.207,6.245,18.207,6.245s-4.104,0.078-7.469-0.859
					c-1.005-0.279-1.934,0.008-0.539,0.744c0.351,0.185,4.566,2.337,8.607,2.767c7.252,0.771,9.983-2.074,10.578-2.987
					c0.962-1.473-1.224-0.66-4.971-0.635c-3.747,0.026-7.484-1.187-9.118-2.062c6.26-0.07,17.813-1.231,18.215-4.962
					C115.507,18.966,114.813,17.625,113.625,17.179z"/>
				<path fill="#061556" d="M67.838,21.153l-3.97,0.953v11.337c0,0-2.948,2.26-6.453,1.371l5.795,4.932
					c4.263,0.905,6.895-1.695,6.895-1.695v-12.3L67.838,21.153z"/>
				<path fill="#00AC5B" d="M69,14.373c-2.252,0.633-5.132,1.287-5.132,1.287c-2.155-1.461-4.521-0.132-6.453,1.131v18.023
					c3.505,0.889,6.453-1.371,6.453-1.371V22.106l3.97-0.953l2.267,4.598l2.736,5.55c0,0,3.104-2.397,7.597-1.934l-6.031-10.584
					c4.619-3.009,5.624-7.876,5.075-11.806c-0.404-2.903-1.451-5.187-2.988-6.049c-0.802-0.448-2.456-1.479-6.315-0.556
					L57.415,3.431l0,0c2.683,1.073,6.453,3.813,6.453,3.813s0,0,5.674-1.344c0.319-0.075,2.396-0.52,3.124,1.313
					c0.175,0.443,0.293,0.929,0.358,1.425c0.15,1.164,0.004,2.403-0.418,3.38c-0.22,0.513-0.518,0.954-0.884,1.272
					c-0.179,0.155-0.373,0.283-0.586,0.376C70.658,13.875,69.878,14.126,69,14.373z"/>
				<path fill="#061556" d="M63.868,7.245c0,0-3.771-2.74-6.453-3.813c-1.392-0.557-2.115-0.726-3.497-0.866
					c-2.333-0.234-4.196,1.977-1.949,2.188c4.563,0.427,12.121,4.353,19.754,8.538c0.366-0.318,0.664-0.76,0.884-1.272
					c-1.129-0.6-2.82-1.508-4.101-2.229c0,0,2.831-0.727,4.519-1.15c-0.065-0.496-0.184-0.981-0.358-1.425
					c-0.728-1.833-2.805-1.389-3.124-1.313C63.868,7.245,63.868,7.245,63.868,7.245z"/>
				<path fill="#061556" d="M3.049,6.987c-2.213-1.332-3.87,0.393-2.616,1.723c1.066,1.133,1.368,0.412,4.049,1.72
					c1.096,0.535,1.938,1.664,1.306,0.139C5.046,8.784,4.358,7.776,3.049,6.987z"/>
			</g>
		</g>
	</g>
	<g>
		<g>
			<path fill="#061556" d="M14.91,54.159h-1.591v-1.16h2.993v2.742c-0.289,0.282-0.711,0.529-1.265,0.744
				c-0.55,0.215-1.11,0.321-1.677,0.321c-0.721,0-1.347-0.15-1.884-0.453c-0.535-0.302-0.936-0.734-1.206-1.296
				c-0.27-0.563-0.404-1.173-0.404-1.834c0-0.716,0.15-1.354,0.452-1.909c0.299-0.559,0.739-0.984,1.319-1.282
				c0.442-0.229,0.989-0.344,1.647-0.344c0.854,0,1.521,0.18,2.003,0.538c0.48,0.358,0.788,0.854,0.927,1.486l-1.383,0.257
				c-0.098-0.337-0.278-0.604-0.546-0.8c-0.266-0.195-0.601-0.293-1.001-0.293c-0.608,0-1.092,0.192-1.449,0.577
				c-0.358,0.385-0.537,0.957-0.537,1.715c0,0.816,0.181,1.429,0.545,1.838c0.361,0.407,0.838,0.611,1.428,0.611
				c0.289,0,0.581-0.057,0.874-0.171c0.294-0.114,0.543-0.252,0.754-0.415V54.159z"/>
			<path fill="#061556" d="M19.334,52.915c0.188-0.21,0.425-0.314,0.715-0.314c0.271,0,0.497,0.099,0.687,0.298
				c0.188,0.198,0.285,0.489,0.295,0.871h-1.973C19.055,53.409,19.147,53.124,19.334,52.915z M20.636,55.646
				c-0.141,0.112-0.314,0.169-0.52,0.169c-0.306,0-0.559-0.108-0.762-0.325c-0.204-0.218-0.312-0.521-0.32-0.913h3.307
				c0.02-1.011-0.188-1.763-0.616-2.253c-0.43-0.488-1.013-0.733-1.757-0.733c-0.658,0-1.206,0.233-1.637,0.702
				c-0.434,0.467-0.648,1.114-0.648,1.941c0,0.69,0.163,1.264,0.493,1.718c0.414,0.566,1.057,0.85,1.926,0.85
				c0.547,0,1.003-0.125,1.369-0.378c0.362-0.252,0.628-0.618,0.799-1.101l-1.315-0.22C20.884,55.352,20.776,55.534,20.636,55.646z"
				/>
			<path fill="#061556" d="M23.798,56.689v-4.986h1.216v0.681c0.435-0.529,0.955-0.793,1.554-0.793c0.318,0,0.596,0.065,0.83,0.196
				c0.237,0.132,0.429,0.332,0.577,0.597c0.221-0.265,0.456-0.465,0.712-0.597c0.253-0.131,0.522-0.196,0.812-0.196
				c0.367,0,0.676,0.074,0.928,0.224c0.255,0.147,0.444,0.366,0.569,0.653c0.091,0.214,0.135,0.558,0.135,1.034v3.188h-1.316v-2.851
				c0-0.494-0.047-0.813-0.138-0.958c-0.122-0.188-0.31-0.28-0.563-0.28c-0.185,0-0.358,0.056-0.521,0.169
				c-0.164,0.111-0.28,0.276-0.352,0.494c-0.072,0.218-0.107,0.562-0.107,1.031v2.395h-1.321v-2.732
				c0-0.485-0.024-0.799-0.069-0.939c-0.047-0.142-0.121-0.245-0.218-0.314c-0.102-0.069-0.234-0.103-0.402-0.103
				c-0.204,0-0.389,0.053-0.55,0.164c-0.163,0.109-0.281,0.267-0.349,0.473c-0.069,0.207-0.106,0.551-0.106,1.03v2.422H23.798z"/>
			<path fill="#061556" d="M34.194,52.915c0.188-0.21,0.424-0.314,0.715-0.314c0.268,0,0.496,0.099,0.685,0.298
				c0.189,0.198,0.287,0.489,0.296,0.871h-1.972C33.915,53.409,34.008,53.124,34.194,52.915z M35.496,55.646
				c-0.142,0.112-0.316,0.169-0.522,0.169c-0.303,0-0.557-0.108-0.76-0.325c-0.203-0.218-0.309-0.521-0.318-0.913H37.2
				c0.018-1.011-0.188-1.763-0.617-2.253c-0.428-0.488-1.012-0.733-1.756-0.733c-0.657,0-1.205,0.233-1.637,0.702
				c-0.434,0.467-0.648,1.114-0.648,1.941c0,0.69,0.162,1.264,0.493,1.718c0.414,0.566,1.058,0.85,1.925,0.85
				c0.548,0,1.005-0.125,1.37-0.378c0.36-0.252,0.628-0.618,0.799-1.101l-1.314-0.22C35.745,55.352,35.637,55.534,35.496,55.646z"/>
			<path fill="#061556" d="M40.023,52.915c0.187-0.21,0.425-0.314,0.714-0.314c0.267,0,0.498,0.099,0.686,0.298
				c0.189,0.198,0.285,0.489,0.294,0.871h-1.97C39.743,53.409,39.835,53.124,40.023,52.915z M41.325,55.646
				c-0.143,0.112-0.317,0.169-0.523,0.169c-0.303,0-0.557-0.108-0.758-0.325c-0.205-0.218-0.311-0.521-0.32-0.913h3.306
				c0.018-1.011-0.188-1.763-0.619-2.253c-0.426-0.488-1.012-0.733-1.754-0.733c-0.659,0-1.206,0.233-1.639,0.702
				c-0.432,0.467-0.648,1.114-0.648,1.941c0,0.69,0.164,1.264,0.495,1.718c0.414,0.566,1.057,0.85,1.922,0.85
				c0.55,0,1.006-0.125,1.372-0.378c0.363-0.252,0.632-0.618,0.801-1.101l-1.315-0.22C41.571,55.352,41.466,55.534,41.325,55.646z"
				/>
			<path fill="#061556" d="M49.12,53.59v3.099h-1.319v-2.544c0-0.54-0.028-0.888-0.083-1.046c-0.058-0.158-0.149-0.281-0.275-0.369
				c-0.128-0.087-0.279-0.13-0.46-0.13c-0.228,0-0.433,0.062-0.613,0.188c-0.184,0.125-0.308,0.291-0.374,0.497
				c-0.067,0.206-0.1,0.589-0.1,1.146v2.259h-1.32v-4.986H45.8v0.731c0.437-0.563,0.984-0.844,1.645-0.844
				c0.291,0,0.555,0.052,0.795,0.156c0.244,0.105,0.426,0.238,0.548,0.402c0.125,0.163,0.211,0.348,0.261,0.554
				C49.097,52.911,49.12,53.206,49.12,53.59z"/>
		</g>
		<path fill="#061556" d="M66.19,50.97c0.563,0,0.901,0.008,1.015,0.022c0.225,0.039,0.398,0.128,0.524,0.272
			c0.121,0.142,0.184,0.327,0.184,0.56c0,0.207-0.046,0.379-0.141,0.517c-0.093,0.139-0.224,0.233-0.389,0.29
			c-0.168,0.057-0.585,0.085-1.249,0.085h-1.028V50.97H66.19z M65.106,53.816h0.282c0.317,0,0.552,0.025,0.7,0.077
			c0.145,0.052,0.284,0.146,0.417,0.287c0.132,0.138,0.376,0.476,0.731,1.011l1.006,1.498h1.661l-0.84-1.344
			c-0.332-0.535-0.598-0.907-0.792-1.116c-0.194-0.21-0.446-0.402-0.744-0.578c0.605-0.087,1.058-0.299,1.363-0.636
			c0.302-0.337,0.456-0.764,0.456-1.279c0-0.406-0.103-0.77-0.302-1.086c-0.199-0.315-0.466-0.535-0.801-0.658
			c-0.334-0.124-0.867-0.187-1.603-0.187h-2.928v6.884h1.392V53.816z"/>
		<path fill="#061556" d="M72.403,53.06c0.235-0.263,0.522-0.396,0.868-0.396c0.344,0,0.634,0.133,0.866,0.396
			c0.234,0.263,0.349,0.638,0.349,1.126c0,0.501-0.114,0.884-0.349,1.146c-0.232,0.264-0.522,0.395-0.866,0.395
			c-0.346,0-0.633-0.131-0.868-0.395c-0.234-0.262-0.352-0.642-0.352-1.136S72.169,53.323,72.403,53.06z M71.022,55.583
			c0.217,0.399,0.531,0.702,0.947,0.908c0.414,0.209,0.851,0.311,1.308,0.311c0.739,0,1.351-0.249,1.838-0.743
			c0.485-0.497,0.728-1.122,0.728-1.876c0-0.749-0.238-1.368-0.719-1.858c-0.486-0.488-1.101-0.733-1.855-0.733
			c-0.489,0-0.933,0.107-1.329,0.323c-0.396,0.217-0.7,0.528-0.917,0.938c-0.215,0.411-0.324,0.834-0.324,1.274
			C70.698,54.698,70.808,55.184,71.022,55.583z"/>
		<path fill="#061556" d="M78.744,51.703h0.902v1.052h-0.902v2.01c0,0.406,0.008,0.644,0.025,0.712
			c0.016,0.066,0.059,0.121,0.117,0.165c0.063,0.044,0.137,0.066,0.223,0.066c0.121,0,0.3-0.042,0.532-0.127l0.112,1.024
			c-0.309,0.131-0.654,0.196-1.043,0.196c-0.238,0-0.452-0.04-0.642-0.119c-0.192-0.08-0.334-0.184-0.423-0.311
			c-0.09-0.127-0.152-0.298-0.186-0.514c-0.028-0.153-0.043-0.464-0.043-0.929v-2.175h-0.605v-1.052h0.605V50.71l1.326-0.769V51.703
			z"/>
		<path fill="#061556" d="M82.797,51.703h0.901v1.052h-0.901v2.01c0,0.406,0.01,0.644,0.025,0.712
			c0.018,0.066,0.057,0.121,0.12,0.165c0.06,0.044,0.133,0.066,0.22,0.066c0.121,0,0.299-0.042,0.529-0.127l0.115,1.024
			c-0.308,0.131-0.654,0.196-1.043,0.196c-0.238,0-0.453-0.04-0.642-0.119c-0.193-0.08-0.334-0.184-0.422-0.311
			c-0.091-0.127-0.152-0.298-0.187-0.514c-0.027-0.153-0.041-0.464-0.041-0.929v-2.175h-0.607v-1.052h0.607V50.71l1.324-0.769
			V51.703z"/>
		<path fill="#061556" d="M86.48,52.915c0.188-0.21,0.426-0.314,0.714-0.314c0.267,0,0.499,0.099,0.686,0.298
			c0.188,0.198,0.286,0.489,0.294,0.871h-1.972C86.199,53.409,86.293,53.124,86.48,52.915z M87.78,55.646
			c-0.14,0.112-0.314,0.169-0.521,0.169c-0.302,0-0.556-0.108-0.759-0.325c-0.203-0.218-0.31-0.521-0.319-0.913h3.304
			c0.02-1.011-0.184-1.763-0.613-2.253c-0.43-0.488-1.016-0.733-1.756-0.733c-0.662,0-1.209,0.233-1.641,0.702
			c-0.431,0.467-0.647,1.114-0.647,1.941c0,0.69,0.165,1.264,0.493,1.718c0.417,0.566,1.058,0.85,1.926,0.85
			c0.546,0,1.003-0.125,1.369-0.378c0.363-0.252,0.631-0.618,0.8-1.101l-1.314-0.22C88.028,55.352,87.924,55.534,87.78,55.646z"/>
		<path fill="#061556" d="M52.321,51.703h0.906v1.052h-0.906v2.01c0,0.406,0.01,0.644,0.026,0.712
			c0.017,0.066,0.058,0.121,0.12,0.165c0.06,0.044,0.135,0.066,0.22,0.066c0.124,0,0.3-0.042,0.535-0.127l0.112,1.024
			c-0.31,0.131-0.657,0.196-1.045,0.196c-0.236,0-0.451-0.04-0.642-0.119c-0.192-0.08-0.33-0.184-0.42-0.311
			c-0.091-0.127-0.151-0.298-0.188-0.514C51.015,55.705,51,55.394,51,54.929v-2.175h-0.604v-1.052H51V50.71l1.321-0.769V51.703z"/>
		<path fill="#061556" d="M56.006,52.915c0.188-0.21,0.427-0.314,0.716-0.314c0.269,0,0.497,0.099,0.685,0.298
			c0.188,0.198,0.287,0.489,0.298,0.871H55.73C55.728,53.409,55.818,53.124,56.006,52.915z M57.308,55.646
			c-0.142,0.112-0.313,0.169-0.521,0.169c-0.305,0-0.558-0.108-0.761-0.325c-0.205-0.218-0.309-0.521-0.318-0.913h3.303
			c0.021-1.011-0.186-1.763-0.614-2.253c-0.429-0.488-1.013-0.733-1.756-0.733c-0.661,0-1.206,0.233-1.639,0.702
			c-0.433,0.467-0.646,1.114-0.646,1.941c0,0.69,0.165,1.264,0.491,1.718c0.417,0.566,1.06,0.85,1.926,0.85
			c0.548,0,1.004-0.125,1.367-0.378c0.367-0.252,0.634-0.618,0.802-1.101l-1.313-0.22C57.556,55.352,57.449,55.534,57.308,55.646z"
			/>
		<path fill="#061556" d="M92.305,55.149v1.54h-1.32v-4.986h1.225v0.709c0.212-0.335,0.4-0.556,0.568-0.661
			c0.167-0.106,0.356-0.16,0.569-0.16c0.299,0,0.59,0.083,0.869,0.248l-0.408,1.151c-0.224-0.145-0.431-0.217-0.62-0.217
			c-0.186,0-0.339,0.051-0.471,0.153c-0.128,0.102-0.229,0.285-0.303,0.551C92.342,53.744,92.305,54.301,92.305,55.149z"/>
		<path fill="#061556" d="M96.711,52.974c0.21-0.251,0.473-0.374,0.787-0.374c0.324,0,0.586,0.125,0.795,0.378
			c0.204,0.251,0.309,0.663,0.309,1.236c0,0.513-0.106,0.899-0.318,1.158c-0.216,0.258-0.472,0.386-0.776,0.386
			c-0.382,0-0.68-0.171-0.892-0.515c-0.148-0.238-0.222-0.624-0.222-1.156C96.394,53.593,96.499,53.221,96.711,52.974z
			 M98.594,49.805v2.479c-0.405-0.463-0.887-0.694-1.444-0.694c-0.607,0-1.11,0.22-1.508,0.659
			c-0.398,0.439-0.596,1.083-0.596,1.928c0,0.826,0.203,1.47,0.612,1.933c0.41,0.461,0.9,0.691,1.474,0.691
			c0.28,0,0.561-0.069,0.836-0.209c0.279-0.139,0.519-0.351,0.724-0.637v0.733h1.225v-6.884H98.594z"/>
		<path fill="#061556" d="M104.398,55.201c-0.053,0.172-0.156,0.318-0.317,0.437c-0.215,0.156-0.441,0.234-0.679,0.234
			c-0.215,0-0.39-0.066-0.528-0.202c-0.137-0.135-0.205-0.293-0.205-0.479c0-0.188,0.087-0.342,0.259-0.465
			c0.11-0.075,0.353-0.151,0.718-0.23c0.367-0.078,0.633-0.146,0.803-0.201v0.264C104.448,54.874,104.431,55.088,104.398,55.201z
			 M103.001,52.738c0.132-0.093,0.316-0.138,0.548-0.138c0.351,0,0.586,0.052,0.71,0.161c0.127,0.108,0.189,0.289,0.189,0.543v0.13
			c-0.239,0.102-0.665,0.208-1.282,0.325c-0.459,0.087-0.806,0.19-1.049,0.307c-0.245,0.119-0.432,0.287-0.566,0.508
			c-0.136,0.221-0.201,0.473-0.201,0.754c0,0.425,0.146,0.777,0.443,1.056c0.295,0.279,0.7,0.418,1.214,0.418
			c0.29,0,0.563-0.055,0.819-0.164c0.259-0.109,0.499-0.274,0.727-0.493c0.01,0.025,0.022,0.078,0.045,0.155
			c0.049,0.172,0.093,0.303,0.128,0.39h1.305c-0.117-0.238-0.195-0.46-0.238-0.669c-0.041-0.208-0.061-0.531-0.061-0.97l0.014-1.54
			c0-0.572-0.059-0.966-0.179-1.182c-0.117-0.213-0.318-0.39-0.605-0.529c-0.291-0.14-0.729-0.209-1.315-0.209
			c-0.648,0-1.136,0.116-1.465,0.347c-0.329,0.231-0.561,0.589-0.697,1.071l1.199,0.215
			C102.765,52.993,102.869,52.83,103.001,52.738z"/>
		<path fill="#061556" d="M107.428,56.689v-4.986h1.215v0.681c0.437-0.529,0.954-0.793,1.555-0.793c0.317,0,0.596,0.065,0.832,0.196
			c0.231,0.132,0.426,0.332,0.578,0.597c0.216-0.265,0.453-0.465,0.709-0.597c0.252-0.131,0.521-0.196,0.812-0.196
			c0.368,0,0.676,0.074,0.93,0.224c0.254,0.147,0.441,0.366,0.565,0.653c0.092,0.214,0.136,0.558,0.136,1.034v3.188h-1.318v-2.851
			c0-0.494-0.046-0.813-0.136-0.958c-0.122-0.188-0.311-0.28-0.563-0.28c-0.185,0-0.355,0.056-0.521,0.169
			c-0.164,0.111-0.279,0.276-0.353,0.494s-0.107,0.562-0.107,1.031v2.395h-1.318v-2.732c0-0.485-0.024-0.799-0.071-0.939
			c-0.046-0.142-0.12-0.245-0.221-0.314c-0.097-0.069-0.23-0.103-0.4-0.103c-0.203,0-0.386,0.053-0.55,0.164
			c-0.16,0.109-0.28,0.267-0.349,0.473c-0.071,0.207-0.106,0.551-0.106,1.03v2.422H107.428z"/>
	</g>
</g>
</svg>
