<?xml version="1.0" encoding="utf-8"?>
<!-- Generator: Adobe Illustrator 16.0.0, SVG Export Plug-In . SVG Version: 6.00 Build 0)  -->
<!DOCTYPE svg PUBLIC "-//W3C//DTD SVG 1.1//EN" "http://www.w3.org/Graphics/SVG/1.1/DTD/svg11.dtd">
<svg version="1.1" id="Layer_1" xmlns="http://www.w3.org/2000/svg" xmlns:xlink="http://www.w3.org/1999/xlink" x="0px" y="0px"
	 width="138.479px" height="32.359px" viewBox="0 0 138.479 32.359" enable-background="new 0 0 138.479 32.359"
	 xml:space="preserve">
<path fill="#552988" d="M56.79,15.801c-0.416,0.669-0.632,1.517-0.632,2.554c0,1.127,0.223,1.998,0.641,2.631
	c0.409,0.613,0.977,0.906,1.839,0.912c0.861-0.006,1.447-0.299,1.884-0.914c0.443-0.631,0.674-1.465,0.676-2.524
	c-0.002-1.499-0.377-2.499-1.062-3.08c-0.43-0.358-0.906-0.53-1.476-0.532C57.77,14.855,57.195,15.159,56.79,15.801 M58.638,22.491
	c-1.004,0.007-1.83-0.397-2.335-1.179c-0.501-0.764-0.737-1.754-0.737-2.957c0-1.118,0.236-2.082,0.721-2.867
	c0.497-0.816,1.339-1.24,2.373-1.232c0.695-0.002,1.329,0.227,1.857,0.671c0.871,0.743,1.273,1.947,1.271,3.533
	c0.002,1.144-0.251,2.108-0.78,2.865c-0.531,0.767-1.352,1.166-2.346,1.166H58.638z M54.393,13.708
	c-0.961,1.205-1.596,2.484-1.602,4.571c0.002,1.815,0.486,3.264,1.439,4.396c0.952,1.129,2.309,1.746,3.446,1.745
	c0.528-0.002,1.034-0.002,1.747-0.2c0.647-0.188,1.194-0.433,1.876-1.369l0.536-0.739v2.015h2.612V8.158h-2.751v5.903l-0.51-0.536
	c-0.679-0.705-0.78-0.752-1.375-1.09l0.145-0.259l-0.145,0.257c-0.548-0.308-1.17-0.463-1.89-0.463
	C56.561,11.972,55.335,12.539,54.393,13.708 M57.676,25.011c-1.345-0.002-2.834-0.701-3.897-1.955
	c-1.057-1.25-1.58-2.859-1.58-4.776c-0.004-2.213,0.713-3.68,1.733-4.942c1.039-1.297,2.46-1.963,3.989-1.96
	c0.805-0.002,1.54,0.177,2.181,0.54v0.001c0.415,0.23,0.66,0.376,1.002,0.689V7.565h3.935v17.153h-3.796v-0.879
	c-0.558,0.559-1.118,0.805-1.662,0.952c-0.722,0.203-1.284,0.22-1.779,0.22H57.676z"/>
<path fill="#552988" d="M75.49,16.729c-0.1-0.655-0.349-1.13-0.743-1.472c-0.469-0.402-1.038-0.604-1.761-0.607
	c-0.793,0.003-1.352,0.218-1.753,0.631l-0.213-0.207l0.211,0.207c-0.35,0.363-0.597,0.838-0.733,1.448H75.49z M69.8,17.322
	l0.05-0.338c0.126-0.866,0.442-1.583,0.958-2.115l0.001,0.001c0.529-0.55,1.28-0.812,2.178-0.809
	c0.836-0.003,1.568,0.248,2.147,0.75c0.597,0.511,0.921,1.268,0.981,2.195l0.021,0.316H69.8z M73.104,25.011
	c-1.719,0-3.411-0.402-4.646-1.639c-1.201-1.186-2.02-2.57-2.012-4.963c-0.002-2.235,0.597-4.001,1.823-5.232
	c1.213-1.224,2.811-1.839,4.717-1.836c1.133,0,2.163,0.204,3.084,0.616l-0.12,0.27l-0.121,0.271
	c-0.836-0.374-1.781-0.565-2.843-0.565c-1.785,0.002-3.193,0.554-4.297,1.66c-1.087,1.097-1.647,2.68-1.649,4.816
	c0.009,2.266,0.707,3.404,1.836,4.545c1.081,1.082,2.595,1.464,4.229,1.466c1.996-0.002,3.549-0.426,4.6-1.569
	c0.585-0.623,0.881-1.125,1.011-1.666h-2.838c-0.19,0.324-0.41,0.593-0.663,0.799c-0.53,0.438-1.218,0.646-2.019,0.646
	c-0.751,0-1.417-0.17-1.972-0.518c-0.927-0.566-1.412-1.579-1.458-2.9l-0.011-0.309h9.193c0-0.062,0-0.12,0-0.179
	c0-0.851-0.037-1.516-0.11-1.979c-0.146-0.95-0.464-1.774-0.956-2.486c-0.546-0.808-1.224-1.388-2.054-1.76l0.121-0.271l0.12-0.27
	c0.932,0.417,1.706,1.08,2.302,1.967c0.543,0.787,0.895,1.702,1.053,2.729c0.079,0.517,0.117,1.203,0.117,2.07
	c0,0.154-0.003,0.313-0.004,0.478l-0.003,0.293H70.38c0.104,1.032,0.49,1.7,1.157,2.114c0.447,0.281,0.995,0.429,1.658,0.429
	c0.703-0.002,1.235-0.176,1.644-0.511c0.218-0.178,0.423-0.436,0.604-0.778l0.082-0.157h3.875l-0.036,0.332
	c-0.095,0.817-0.477,1.541-1.227,2.332c-1.206,1.309-2.957,1.756-5.021,1.756H73.104z"/>
<path fill="#552988" d="M133.756,16.804l4.551-4.731h-4.127l-4.188,4.79V7.6h-3.267v17.116h3.267v-3.995l1.375-1.435l3.073,5.43
	h4.039L133.756,16.804z M120.544,19.772c-0.023,1.11-0.341,1.876-0.953,2.294c-0.61,0.419-1.278,0.633-2.004,0.633
	c-0.455,0-0.846-0.131-1.165-0.385c-0.316-0.248-0.479-0.66-0.479-1.227c0-0.635,0.258-1.106,0.781-1.408
	c0.307-0.178,0.816-0.327,1.524-0.453l0.757-0.143c0.38-0.067,0.675-0.143,0.892-0.226c0.217-0.081,0.431-0.187,0.646-0.321V19.772z
	 M124.076,23.841c-0.109-0.153-0.178-0.454-0.199-0.891c-0.015-0.576-0.022-1.063-0.022-1.467V15.66
	c0-1.526-0.542-2.571-1.626-3.123c-1.087-0.552-2.328-0.827-3.723-0.827c-2.146,0-3.657,0.56-4.54,1.681
	c-0.554,0.71-0.868,1.629-0.937,2.739h3.197c0.079-0.487,0.238-0.878,0.475-1.167c0.33-0.388,0.896-0.584,1.688-0.584
	c0.71,0,1.249,0.1,1.618,0.297c0.364,0.199,0.547,0.558,0.547,1.078c0,0.427-0.238,0.742-0.714,0.944
	c-0.269,0.117-0.708,0.214-1.332,0.291l-1.134,0.14c-1.293,0.164-2.271,0.437-2.935,0.816c-1.209,0.698-1.817,1.827-1.817,3.391
	c0,1.203,0.376,2.131,1.132,2.789c0.75,0.652,1.708,0.982,2.864,0.982c0.904,0,1.716-0.206,2.436-0.617
	c0.601-0.349,1.133-0.771,1.596-1.271c0.023,0.29,0.056,0.546,0.092,0.772c0.039,0.229,0.109,0.467,0.215,0.725h3.613v-0.489
	C124.352,24.125,124.185,23.996,124.076,23.841 M107.27,19.772c-0.02,1.11-0.343,1.876-0.953,2.294
	c-0.607,0.419-1.276,0.633-2,0.633c-0.459,0-0.847-0.131-1.168-0.385c-0.316-0.248-0.476-0.66-0.476-1.227
	c0-0.635,0.259-1.106,0.78-1.408c0.304-0.178,0.815-0.327,1.524-0.453l0.757-0.143c0.378-0.067,0.676-0.143,0.892-0.226
	c0.216-0.081,0.431-0.187,0.644-0.321V19.772z M110.805,23.841c-0.111-0.153-0.177-0.454-0.2-0.891
	c-0.015-0.576-0.022-1.063-0.022-1.467V15.66c0-1.526-0.543-2.571-1.627-3.123c-1.084-0.552-2.327-0.827-3.726-0.827
	c-2.142,0-3.655,0.56-4.539,1.681c-0.554,0.71-0.867,1.629-0.933,2.739h3.197c0.08-0.487,0.236-0.878,0.476-1.167
	c0.326-0.388,0.893-0.584,1.688-0.584c0.712,0,1.245,0.1,1.611,0.297c0.368,0.199,0.55,0.558,0.55,1.078
	c0,0.427-0.236,0.742-0.715,0.944c-0.264,0.117-0.709,0.214-1.326,0.291l-1.138,0.14c-1.292,0.164-2.269,0.437-2.933,0.816
	c-1.215,0.698-1.82,1.827-1.82,3.391c0,1.203,0.376,2.131,1.127,2.789c0.76,0.652,1.712,0.982,2.868,0.982
	c0.908,0,1.722-0.206,2.438-0.617c0.603-0.349,1.138-0.771,1.598-1.271c0.021,0.29,0.052,0.546,0.091,0.772
	c0.04,0.229,0.106,0.467,0.209,0.725h3.615v-0.489C111.074,24.125,110.913,23.996,110.805,23.841 M93.693,21.278
	c-0.474,0.688-1.14,1.036-1.996,1.036c-0.996,0-1.729-0.355-2.217-1.072c-0.483-0.713-0.724-1.615-0.724-2.701
	c0-0.924,0.117-1.678,0.351-2.26c0.455-1.095,1.286-1.642,2.491-1.642c1.196,0,2.017,0.557,2.463,1.677
	c0.234,0.592,0.352,1.335,0.352,2.237C94.413,19.679,94.174,20.585,93.693,21.278 M92.528,11.738c-0.93,0-1.695,0.191-2.299,0.58
	c-0.504,0.311-0.971,0.765-1.392,1.35V7.56h-3.322v17.156h3.282v-1.598c0.44,0.619,0.858,1.059,1.241,1.307
	c0.638,0.421,1.481,0.63,2.537,0.63c1.675,0,2.983-0.652,3.916-1.947c0.935-1.295,1.401-2.931,1.401-4.905
	c0-1.905-0.47-3.457-1.423-4.66C95.522,12.339,94.211,11.738,92.528,11.738"/>
<path fill="#552988" d="M76.784,19.194c0.008-0.014,0.258-8.5,8.968-9.833l0.059,0.39c-8.395,1.264-8.625,9.445-8.632,9.456
	L76.784,19.194z"/>
<path fill="#552988" d="M56.076,20.598c0.016-0.008,4.018-3.74,8.528-3.752c0.74,0,1.495,0.102,2.248,0.344l-0.121,0.374
	c-0.71-0.226-1.422-0.322-2.127-0.322c-4.291-0.01-8.259,3.636-8.26,3.646L56.076,20.598z"/>
<path fill="#552988" d="M52.187,23.289c-2.213-0.03-4.787-2.889-7.245-5.825c-2.425-2.942-4.746-6.017-5.975-6.445l0.137-0.371
	c1.479,0.57,3.692,3.624,6.143,6.563c2.419,2.941,5.068,5.714,6.94,5.684c0.493-0.002,0.935-0.174,1.355-0.59l0.279,0.28
	c-0.478,0.479-1.038,0.704-1.628,0.704H52.187z"/>
<path fill="#552988" d="M34.758,29.691c-0.017,0.059-0.064,0.086-0.153,0.072c-0.071,0.24,0.112,0.238,0.222,0.307
	c-0.001,0.025-0.001,0.051-0.002,0.076c0.102,0.001,0.203,0.004,0.304,0.006C35.159,29.898,34.932,29.503,34.758,29.691
	 M2.236,16.355c-0.285-0.127,0.372-0.132,0.269,0.096c-0.1,0.017-0.142,0.097-0.183,0.177c0.09,0.002,0.104,0.074,0.177,0.093
	c0.248,0.321,0.493,0.646,0.883,0.83c0.19,0.144,0.329,0.332,0.531,0.461c0.125-0.002,0.197,0.046,0.269,0.096
	c0.104,0.342,0.248,0.646,0.707,0.646c-0.008,0.153,0.065,0.231,0.176,0.271c0.286,0.195,0.496,0.466,0.796,0.648
	c0.399,0.5,1.165,1.115,1.593,1.293c0.03,0,0.061,0.002,0.091,0.002c0.4-0.031,0.212,0.5,0.713,0.375
	C8.413,20.9,7.951,21.048,8,20.707c-0.014-0.132-0.216-0.086-0.358-0.097c-0.355-0.306-0.753-0.569-1.154-0.832
	c-0.377-0.284-0.765-0.56-1.152-0.836c-0.118-0.299-0.406-0.437-0.617-0.644c-0.181-0.029-0.171-0.248-0.353-0.278
	c-0.185-0.029-0.173-0.246-0.356-0.276c-0.124-0.471-0.681-0.523-0.973-0.83c-0.216-0.502-0.686-0.756-1.15-1.016
	c0.03-0.207-0.259-0.104-0.265-0.275c-0.171-0.187-0.418-0.305-0.62-0.462c-0.043-0.253-0.43-0.178-0.625-0.284
	C0.37,15,0.416,15.076,0.462,15.148C1.064,15.483,1.61,16.338,2.236,16.355 M38.053,23.242c-0.024,0-0.051-0.001-0.075,0
	c-0.074-0.128-0.35-0.063-0.377-0.236c-0.518-0.219-0.958-0.516-1.577-0.64c-0.044-0.161-1.142-0.59-1.244-0.45
	c-0.272-0.076-0.112,0.297-0.161,0.455c0.243,0.098,0.064-0.246,0.306-0.15c0.287-0.049,0.685,0.691,1.014,0.598
	c0.174,0.029,0.291-0.004,0.38-0.068c-0.156,0.153,0.028,0.154,0.147,0.233c0.119,0.157,0.359,0.196,0.524,0.312
	c0.132,0.553,1.557,0.686,1.212,0.104C38.187,23.311,38.12,23.277,38.053,23.242 M1.545,10.67c-0.09-0.002-0.117,0.154-0.003,0.18
	c0.356,0.332,0.759,0.622,1.151,0.924c0.531,0.636,1.09,1.245,1.856,1.658c0.156,0.323,0.557,0.407,0.705,0.736
	c0.24,0.27,0.484,0.536,0.797,0.737c0.245-0.06,0.175,0.183,0.355,0.186c0.059,0.181,0.269,0.213,0.353,0.369
	c0.261,0.131,0.295,0.481,0.711,0.464c-0.023,0.316,0.31,0.29,0.44,0.459c-0.001-0.379-0.231-0.542-0.527-0.641
	c-0.106-0.25-0.454-0.27-0.62-0.463c-0.138-0.103-0.217-0.262-0.354-0.367c-0.003-0.055-0.01-0.106-0.089-0.092
	c-0.165-0.25-0.371-0.466-0.615-0.643c-0.429-0.236-0.781-1.013-1.15-1.016c-0.03,0.002-0.06-0.002-0.089,0
	c-0.021-0.186-0.238-0.183-0.356-0.277c-0.178-0.269-0.39-0.508-0.707-0.646c-0.001-0.114-0.113-0.127-0.084-0.272
	C3,12.008,2.927,11.814,2.783,11.686c-0.196-0.341-0.563-0.518-0.792-0.827c-0.202-0.22-0.37-0.47-0.708-0.555
	C1.197,10.591,1.575,10.432,1.545,10.67 M1.199,14.354c-0.28-0.086-0.166-0.548-0.53-0.551C0.753,14.02,0.982,14.555,1.199,14.354
	 M6.384,16.796c0.014,0.008,0.025,0.02,0.039,0.028C6.409,16.816,6.398,16.806,6.384,16.796z M7.192,17.396
	c-0.276-0.068-0.38-0.877-0.803-0.601C6.812,16.517,6.917,17.328,7.192,17.396 M1.329,12.375c0.355,0.25,0.596,0.604,0.973,0.831
	c0.13,0.229,0.397,0.324,0.622,0.464c0.029,0,0.059,0.001,0.09,0.001c0.09,0.383,0.572,0.39,0.704,0.734
	c0.166,0.313,0.494,0.469,0.798,0.647c0.394,0.565,1.023,0.9,1.411,1.47c0.207,0.273,0.521,0.441,0.797,0.648
	c0.343,0.115,0.664,0.712,0.977,0.559c-0.23-0.015-0.121-0.353-0.351-0.367c-0.48-0.569-1.05-1.053-1.681-1.475
	c-0.148-0.356-0.606-0.418-0.795-0.736c-0.559-0.848-1.419-1.404-2.209-2.027c-0.203-0.19-0.391-0.39-0.62-0.553
	c-0.129-0.229-0.398-0.324-0.62-0.463c0.043-0.248-0.333-0.092-0.354-0.277c-0.058-0.124-0.188-0.171-0.357-0.189
	C0.823,11.98,1.054,12.199,1.329,12.375 M2.034,17.431c0.085,0.361,0.552,0.354,0.708,0.646c0.003,0.055,0.009,0.106,0.089,0.09
	c0.046,0.221,0.334,0.209,0.532,0.283c0.006,0.055,0.014,0.106,0.089,0.092c-0.086,0.297,0.493,0.399,0.259,0.547
	c-0.09-0.002-0.105-0.076-0.178-0.094c-0.391-0.061-0.553-0.566-0.897-0.199c0.327,0.158,0.724,0.715,1.07,0.563
	c0.1,0.02,0.138,0.104,0.176,0.184c-0.023,0.256-0.022,0.489,0.261,0.455c0.297,0.51,0.881,0.742,1.327,1.109
	c0.031,0.002,0.06,0.002,0.091,0.003c0.062,0.291,0.318,0.397,0.53,0.55c0.323,0.307,0.739,0.522,1.062,0.831
	c0.143,0.128,0.103,0.431,0.442,0.369c0.126,0.172,0.193,0.405,0.533,0.373c-0.207-0.655-0.775-0.964-1.231-1.377
	c-0.2-0.281-0.561-0.405-0.797-0.647c-0.335-0.179-0.443-0.574-0.887-0.649c-0.174-0.331-0.525-0.498-0.796-0.735
	c-0.054-0.007-0.107-0.015-0.087-0.091c-0.013-0.373-0.581-0.209-0.529-0.644c0.159-0.022,0.271,0.43,0.357,0.188
	c0.056-0.259,0.139,0.143,0.268,0.098c0.137,0.31,0.48,0.42,0.8,0.555c0.235,0.628,1.124,0.628,1.415,1.201
	c0.177,0.355,1.168,1.218,1.158,0.654c-0.371-0.176-0.417-0.66-0.886-0.74c-0.251-0.111-0.33-0.388-0.621-0.461
	c-0.269-0.271-0.488-0.59-0.884-0.74c-0.32-0.457-0.88-0.686-1.239-1.106c-0.398,0.06-0.363-0.299-0.623-0.371
	c-0.168-0.282-0.483-0.42-0.706-0.646c-0.197-0.108-0.293-0.307-0.533-0.372c-0.308-0.177-0.388-0.57-0.798-0.647
	C0.945,16.419,0.64,15.888,0,15.679c0.319,0.545,0.82,0.92,1.417,1.2C1.679,17.009,1.742,17.332,2.034,17.431 M2.555,18.435
	c-0.332-0.205-0.812-0.813-1.419-1.021c-0.151-0.178-0.269-0.389-0.532-0.461c-0.165,0.598,0.394,0.506,0.615,0.734
	C1.431,18.102,2.199,18.448,2.555,18.435 M37.423,24.366c-0.21-0.143-0.381-0.327-0.675-0.392c-0.148-0.283-0.25-0.152-0.523-0.314
	c-0.311,0.031-0.925-0.5-1.174-0.299c0.188,0.342,1.458,0.682,1.467,0.684c-0.005,0.097-0.097,0.104-0.079,0.228
	c0.441-0.026,0.705,0.508,1.055,0.323C37.405,24.582,37.413,24.475,37.423,24.366 M8.022,28.362c-0.252-0.2-0.686-0.224-0.891-0.469
	c-0.24-0.388-0.953-0.319-1.154-0.744c-0.109-0.22-0.363-0.299-0.624-0.374c-0.339-0.143-0.589-0.374-0.98-0.471
	c-0.01-0.168-0.304-0.061-0.357-0.188c-0.33-0.037-0.357-0.363-0.805-0.285c-0.07,0.389,0.513,0.155,0.623,0.373
	c0,0.029,0,0.059-0.001,0.09c0.176-0.022,0.175,0.125,0.267,0.186c0.674,0.734,1.651,1.18,2.668,1.586
	c0.09,0.385,0.449,0.509,0.796,0.646c0.161,0.006,0.519,0.254,0.629,0.015c0.03,0,0.061,0.002,0.092,0.002
	C8.369,28.442,8.152,28.444,8.022,28.362 M7.079,30.414c-0.003,0.151-0.006,0.301-0.009,0.451c0.155-0.004,0.279,0.023,0.357,0.094
	c0.4,0.051,0.672-0.033,0.641-0.436c-0.125,0.004-0.197-0.044-0.269-0.094C7.726,30.241,7.174,30.321,7.079,30.414 M7.726,29.619
	c0-0.031,0-0.062,0.001-0.092c-0.224,0.01-0.275-0.146-0.446-0.189c-0.312-0.287-0.87-0.34-1.156-0.653
	c0-0.031,0.001-0.06,0.002-0.091c-0.188-0.082-0.261-0.279-0.536-0.281c-0.018-0.129-0.145-0.155-0.174-0.273
	c-0.121-0.004-0.24-0.006-0.359-0.009c0-0.028,0.001-0.06,0.001-0.089c-0.06-0.002-0.12-0.002-0.179-0.003
	c-0.005-0.056-0.012-0.106-0.088-0.093c-0.15,0.451,0.287,0.908,0.788,1.006c0.03,0.001,0.06,0.001,0.091,0.003
	c0.118,0.094,0.171,0.246,0.353,0.278c0.249,0.176,0.631,0.582,0.891,0.469c0.06,0.002,0.121,0.003,0.181,0.005
	c0.078,0.159,0.311,0.17,0.444,0.276c0.062,0.205,0.505,0.047,0.718,0.105C8.326,29.63,8.028,29.623,7.726,29.619 M2.925,9.256
	c-0.342-0.191-0.716-1.23-1.156-0.745C2.075,8.778,2.565,9.336,2.925,9.256 M7.942,14.854c-0.264-0.012-0.19-0.347-0.535-0.281
	c-0.001,0.09-0.003,0.181-0.005,0.27C7.669,14.823,7.838,15.207,7.942,14.854 M1.919,9.956c0.169,0.017,0.299,0.066,0.357,0.188
	c0,0.029-0.001,0.06-0.002,0.09c0.292-0.073,0.117,0.3,0.354,0.279c-0.003,0.3,0.558,0.516,0.621,0.46
	c-0.148,0.062-0.138-0.427,0.009-0.359c-0.002,0.091,0.155,0.116,0.178,0.003c-0.261-0.085-0.274-0.085-0.54-0.01
	c0.001-0.03,0.002-0.061,0.003-0.09c0.265-0.203-0.36-0.296-0.44-0.459C2.321,9.837,2.143,9.654,1.928,9.507
	c-0.06-0.001-0.119-0.003-0.179-0.003C1.546,9.433,1.732,8.988,1.398,9.045C1.179,9.476,1.651,9.731,1.919,9.956 M3.722,9.904
	C3.585,9.8,3.541,9.608,3.278,9.623c0.018,0.071-0.001,0.179,0.085,0.183c0.064,0.31,0.239,0.511,0.533,0.37
	c-0.008,0.156,0.064,0.233,0.175,0.275c0.293,0.279,0.604,0.538,0.883,0.829c0.346,0.435,0.631,0.925,1.33,1.018
	c-0.095-0.233-0.34-0.319-0.531-0.461c-0.463-0.498-0.875-1.042-1.501-1.381C4.285,10.07,3.828,10.153,3.722,9.904 M7.87,13.953
	c-0.137-0.43-0.502-0.638-0.79-0.918c-0.06-0.179-0.237-0.245-0.447-0.279c-0.02,0.314,0.312,0.29,0.443,0.459
	C7.309,13.491,7.598,13.712,7.87,13.953 M7.246,9.346C7.113,9.393,6.782,9.231,6.794,9.427c0.289,0.076,0.488,0.239,0.62,0.464
	C7.518,9.557,7.197,9.629,7.246,9.346 M7.637,12.145c-0.124,0.003-0.195-0.045-0.268-0.094c-0.14-0.482-0.713-0.552-0.972-0.922
	c-0.222,0.4,0.539,0.518,0.613,0.915c0.06,0.001,0.119,0.002,0.18,0.004c0.22,0.14,0.408,0.313,0.529,0.549
	c0.024,0.191,0.562,0.334,0.626,0.194C8.172,12.515,7.888,12.347,7.637,12.145 M4.189,9.102C4.081,8.618,3.682,8.411,3.308,8.183
	C3.303,8.128,3.296,8.077,3.219,8.092C2.956,7.64,2.713,7.166,2.069,7.076C2.631,7.89,3.25,8.652,4.189,9.102 M3.976,24.919
	c0.082,0.164,0.357,0.201,0.482,0.285C4.333,25.121,4.057,25.083,3.976,24.919 M8.324,26.837c0.001-0.061,0.002-0.119,0.004-0.18
	c-0.004-0.031-0.023-0.051-0.048-0.063c-0.26-0.356-1.056-0.809-1.548-1.143c-0.022-0.125-0.196-0.104-0.267-0.185
	c-0.4-0.497-1.08-0.728-1.504-1.201c-0.972-0.804-2.025-1.53-3.016-2.313c0-0.031,0.001-0.062,0.002-0.092
	c-0.244-0.06-0.216-0.377-0.533-0.369c-0.09,0-0.104-0.074-0.177-0.095c0.098-0.3-0.277-0.146-0.446-0.188
	c0.086,0.447,0.692,0.859,0.972,0.83c0.242,0.207,0.511,0.391,0.708,0.645c0.002,0.23,0.348,0.135,0.351,0.368
	c0.49,0.479,1.014,1.062,1.505,1.292c0.022,0.126,0.195,0.105,0.267,0.188c0.288,0.162,0.558,0.346,0.798,0.553
	c0.03,0.002,0.06,0.002,0.09,0.004c0.135,0.252,0.774,0.867,0.889,0.559c0.127,0.023,0.099,0.2,0.175,0.273
	c0.369,0.47,1.025,0.66,1.325,1.199c-0.307-0.174-0.724-0.248-0.98-0.474c-0.201-0.157-0.463-0.262-0.712-0.373
	c0.007-0.124-0.04-0.198-0.085-0.272c-0.059,0-0.12-0.002-0.18-0.004c-0.132-0.256-0.445-0.338-0.71-0.463
	c-0.06-0.002-0.12-0.004-0.181-0.004c-0.177-0.096-0.133-0.4-0.442-0.371c-0.323-0.131-0.39-0.508-0.8-0.558
	c-0.119-0.09-0.172-0.246-0.354-0.276c-0.321-0.221-0.543-0.537-1.069-0.563c-0.268-0.154-0.485-0.356-0.893-0.378
	c-0.136,0.576,0.644,0.265,0.891,0.469c0.007,0.525,0.556,0.525,0.793,0.826c0.018,0.104,0.098,0.146,0.177,0.186
	c0.356,0.215,0.606,0.536,1.067,0.652c0.034,0.021,0.067,0.043,0.101,0.064c-0.006,0.008-0.005,0.016-0.013,0.026
	c0.019,0.001,0.038,0.001,0.057,0.001c0.321,0.202,0.643,0.404,0.921,0.649c0.475-0.015,0.562,0.344,0.889,0.47
	c0.09,0.002,0.107,0.076,0.179,0.094c0.213,0.119,0.256,0.398,0.623,0.373c0.099,0.02,0.138,0.102,0.175,0.184
	c0.127,0.01,0.256,0.021,0.273-0.086c-0.007,0.043-0.041,0.059-0.078,0.072c0.347-0.027,0.935-0.086,0.895-0.324
	C8.414,26.89,8.339,26.941,8.324,26.837 M4.147,6.76c0.319,0.637,0.934,0.987,1.504,1.382C5.279,7.469,4.706,6.991,4.06,6.578
	C3.616,6.358,3.528,5.795,3,5.655C3.059,6.335,3.831,6.327,4.147,6.76 M4.81,5.243C4.575,4.908,4.306,4.608,3.925,4.415
	C4.083,4.765,4.519,5.314,4.81,5.243 M7.98,8.641C7.215,7.935,6.787,6.905,5.867,6.345C5.863,6.29,5.856,6.239,5.779,6.254
	c-0.313-0.502-0.63-0.556-0.971-0.92c0.001,0.264,0.198,0.338,0.35,0.458c0.496,0.758,1.205,1.312,1.76,2.016
	c0.167,0.221,0.414,0.366,0.618,0.554c0.211,0.179,0.31,0.465,0.619,0.553C8.185,8.738,8.037,8.735,7.98,8.641 M26.785,26.771
	c0.001-0.031,0.002-0.061,0.003-0.092c0.144-0.493-0.549-0.944-0.875-1.279c-0.03,0-0.06-0.001-0.089-0.001
	c-0.483-0.008-0.356-0.601-0.705-0.733c-0.202-0.426-0.544-0.715-0.881-1.009c-0.265-0.688-1.019-0.905-1.41-1.471
	c0.046-0.338-0.181-0.413-0.349-0.548c-0.245-0.178-0.451-0.391-0.616-0.645c-0.124-0.275-0.412-0.8,0.1-0.535
	c0.056,0.004,0.106,0.015,0.089,0.09c-0.001,0.031-0.002,0.061-0.002,0.092c0.186,0.054,0.254,0.226,0.535,0.189
	c-0.079,0.373,0.322,0.281,0.257,0.637c0.253,0.08,0.236-0.123,0.454-0.082c-0.147,0.221,0.299,0.271,0.266,0.097
	c0.184,0.03-0.013-0.261-0.083-0.272c-0.086-0.24-0.357-0.304-0.532-0.461c0.034-0.207-0.258-0.104-0.263-0.274
	c-0.177-0.419-0.791-0.419-0.972-0.832c0.02-0.196-0.07-0.287-0.266-0.275c-0.125-0.263-0.427-0.356-0.619-0.553
	c-0.047-0.205-0.142,0.106-0.269-0.097c-0.151-0.168-0.417-0.278-0.538-0.01c-0.115-0.187-0.048-0.543-0.35-0.549
	c-0.01-0.197-0.222-0.195-0.447-0.189c-0.26,0.279-0.44-0.59-0.806-0.196c-0.009,0.157,0.014,0.28,0.083,0.362
	c0.272,0.326,0.572,0.625,0.973,0.83c-0.033,0.238,0.184,0.238,0.353,0.279c-0.023-0.148,0.129-0.242,0.184-0.089
	c0.005,0.144,0.227,0.076,0.174,0.274c-0.107,0.013-0.255-0.02-0.272,0.084c0.091,0.003,0.105,0.074,0.178,0.095
	c0.146,0.497,1.678,2.001,0.879,1.011c0.031,0,0.061,0,0.09,0c0.358,0.275,0.424,0.828,0.88,1.008
	c0.004,0.055,0.012,0.107,0.088,0.094c0,0.029-0.001,0.059-0.002,0.09c0.353,0.074,0.276,0.559,0.617,0.641
	c0.576,0.537,1.114,1.108,1.585,1.745c-0.001,0.029-0.002,0.06-0.003,0.091c0.447,0.602,1.052,1.049,1.498,1.651
	c-0.002,0.179,0.244,0.119,0.173,0.364c-0.116-0.01-0.123-0.118-0.27-0.098c-0.139-0.068-0.126-0.287-0.353-0.275
	c0-0.031,0.001-0.063,0.002-0.092c-0.078-0.162-0.197-0.285-0.353-0.367c-0.246-0.174-0.471-0.37-0.616-0.643
	c-0.144-0.453-0.561-0.639-0.791-1.008c-0.16-0.345-0.653-0.37-0.793-0.734c-0.002-0.018-0.014-0.037-0.03-0.06
	c-0.001-0.001-0.003-0.003-0.005-0.004c-0.017-0.021-0.039-0.039-0.065-0.058c-0.276-0.371-0.599-0.695-0.959-0.982
	c-0.047-0.131-0.136-0.223-0.264-0.275c0.109-0.369-0.518-0.72-0.884-0.92c-0.172-0.156-0.444-0.22-0.528-0.461
	c-0.145-0.213-0.397-0.324-0.438-0.639c-0.029,0-0.06-0.001-0.09-0.001c-0.139-0.222-0.314-0.406-0.529-0.554
	c-0.455-0.237-0.592-0.785-1.059-1.012c-0.146-0.182-0.233-0.424-0.531-0.461c0.027,0.295,0.174,0.479,0.346,0.637
	c-0.019,0.227,0.132,0.283,0.263,0.369c0.242,0.295,0.453,0.621,0.794,0.824c0.177-0.025,0.175,0.124,0.266,0.186
	c0.766,1.088,1.699,2.017,2.732,2.849c0.06,0.001,0.122,0.001,0.18,0.003c0.227,0.075,0.038,0.553,0.35,0.549
	c-0.02,0.282,0.36,0.182,0.443,0.368c0.035,0.231,0.116,0.416,0.258,0.546c0.265,0.273,0.594,0.488,0.793,0.826
	c0.004,0.055,0.011,0.107,0.088,0.094c0.087,0.18,0.148,0.387,0.35,0.455c0.419,0.512,0.888,0.973,1.322,1.469
	c0.114,0.008,0.121,0.119,0.268,0.096c0.118,0.269,0.407,0.373,0.525,0.642c-0.001,0.03-0.001,0.06-0.001,0.091
	c0.269,0.324,0.284-0.078,0.629,0.104c0.008-0.42-0.253-0.581-0.434-0.821C26.653,26.941,26.823,26.964,26.785,26.771
	 M27.267,25.248c-0.056,0.262-0.137-0.139-0.268-0.094c0.021-0.109,0.1-0.053,0.18,0.003c-0.062-0.256-0.326-0.606-0.795-0.825
	c-0.158-0.436-0.5-0.697-0.88-0.92c-0.068-0.352-0.312-0.119-0.444-0.277c0.146,0.029,0.246-0.119,0.094-0.18
	c-0.031,0-0.06,0-0.091,0c-0.383-0.457-0.769-0.912-1.235-1.287c0,0.029,0,0.059-0.001,0.09c-0.131,0.047-0.462-0.115-0.452,0.08
	c0.197,0.104,0.293,0.307,0.533,0.371c0.166,0.252,0.372,0.465,0.616,0.644c0.184,0.09,0.068,0.465,0.352,0.456
	c0.109,0.191,0.255,0.345,0.441,0.461c0.182,0.031,0.172,0.244,0.353,0.275c0.037,0.143,0.283,0.086,0.175,0.367
	c0.509,0.006,0.521,0.498,0.886,0.648c0,0.029-0.001,0.061-0.001,0.089c-0.084,0.112,0.257,0.571,0.617,0.552
	C27.301,25.57,27.462,25.238,27.267,25.248 M6.445,8.789c-0.322-0.13-0.431-0.466-0.706-0.644C5.718,8.55,6.178,8.954,6.445,8.789
	 M26.034,28.285c-0.118-0.003-0.078-0.158-0.177-0.184c-0.517-0.621-1.058-1.219-1.767-1.657c-0.254-0.228-0.633-0.333-0.798-0.647
	c0.003-0.09,0.005-0.181,0.007-0.27c-0.12-0.031-0.169-0.131-0.358-0.098c-0.161,0.008-0.209-0.094-0.176-0.274
	c-0.265-0.39-0.68-0.638-1.061-0.92c0.001-0.03,0.001-0.062,0.002-0.091c-0.695-0.979-1.553-1.803-2.466-2.573
	c-0.262-0.31-0.579-0.563-0.885-0.83c-0.473-0.222-0.688-0.692-1.151-0.921c-0.111-0.158-0.179-0.359-0.443-0.372
	c-0.162-0.313-0.205-0.741-0.613-0.821c-0.03,0-0.06-0.002-0.09-0.002c-0.097-0.232-0.394-0.271-0.715-0.287l-0.007,0.361
	c0.09,0.001,0.181,0.004,0.27,0.006c0.197-0.014,0.285,0.077,0.264,0.276c0.174,0.422,0.568,0.63,0.881,0.919
	c0.018,0.102,0.098,0.143,0.177,0.184c0.189,0.318,0.486,0.532,0.795,0.736c0.113,0.039,0.182,0.119,0.175,0.273
	c0.151,0.002,0.301,0.006,0.45,0.009c0.034,0.372,0.703,0.844,1.056,1.192c0.017,0.1,0.097,0.143,0.176,0.185
	c-0.027,0.497,0.417,0.543,0.706,0.733c0.006,0.172,0.296,0.067,0.264,0.277c0.105,0.16,0.273,0.268,0.35,0.457
	c0.203-0.127-0.108-0.223,0.095-0.266c0.004,0.054,0.011,0.105,0.09,0.09c-0.001,0.031-0.001,0.061-0.002,0.089
	c-0.03-0.001-0.061-0.001-0.091-0.003c-0.048,0.284,0.238,0.245,0.262,0.458c-0.17-0.052-0.407-0.483-0.536-0.282
	c0.488,0.297,0.725,0.834,1.239,1.105c0.03,0.002,0.059,0.002,0.089,0.002c-0.002,0.091,0.071,0.109,0.086,0.182
	c0.359-0.05,0.485,0.125,0.625,0.283c-0.002,0.063-0.003,0.122-0.004,0.182c0.719,0.545,1.235,1.283,2.035,1.752
	c0.271,0.477,0.648,0.85,1.057,1.193c0.253,0.016,0.374,0.348,0.628,0.104C26.448,28.537,26.212,28.439,26.034,28.285
	 M18.713,25.164c0.109-0.15-0.129-0.168-0.157-0.474C18.584,24.996,18.823,25.013,18.713,25.164 M24.819,30.332
	c-0.084-0.125-0.235-0.186-0.353-0.277c-0.128-0.346-0.58-0.383-0.798-0.647c-0.016-0.1-0.096-0.142-0.176-0.183
	c-0.102-0.344-0.479-0.424-0.707-0.645c-0.163-0.313-0.493-0.469-0.797-0.65c-0.45-0.213-0.549-0.766-0.969-1.01
	c-0.034-0.113-0.111-0.186-0.266-0.186c-0.13-0.404-0.551-0.529-0.794-0.822c-0.088-0.418-0.487-0.535-0.794-0.74
	c-0.178-0.211-0.398-0.381-0.62-0.551v-0.002c-0.325-0.246-0.656-0.486-0.883-0.83c-0.181-0.355-0.573-0.51-0.885-0.738
	c-0.067-0.201-0.31-0.23-0.442-0.369c0-0.029,0.001-0.061,0.001-0.09c-0.264,0.017-0.272-0.209-0.536-0.191
	c0.017,0.17-0.106,0.195-0.099,0.357c0.366-0.084,0.398,0.15,0.535,0.283c0.124,0.176,0.272,0.328,0.441,0.459
	c0.226,0.312,0.367,0.707,0.794,0.824c0.03,0.002,0.059,0.002,0.089,0.004c0.282-0.035,0.283,0.198,0.261,0.455
	c0.06,0.002,0.121,0.002,0.181,0.004c0.235-0.05,0.323,0.043,0.264,0.276c0.514,0.302,0.521,1.088,1.418,1.021
	c0.057,0.332,0.275,0.502,0.437,0.729c0.03,0,0.059,0,0.09,0.002c0.004,0.055,0.011,0.105,0.088,0.092
	c0.089,0.473,0.627,0.514,0.791,0.918c0.283-0.037,0.233,0.247,0.445,0.279c0.089,0.001,0.106,0.074,0.178,0.093
	c0.253,0.315,0.598,0.542,0.975,0.741c-0.001,0.031-0.001,0.061-0.002,0.091c-0.001,0.029-0.002,0.06-0.002,0.089
	c0.473,0.547,1.007,1.035,1.591,1.473c0.429,0.029,0.474,0.428,0.799,0.558c0.022-0.069,0.078-0.103,0.182-0.087
	C25.325,30.611,25.025,30.516,24.819,30.332 M36.772,26.478c0.002-0.1,0.005-0.202,0.006-0.305c-0.301-0.131-0.36-0.498-0.746-0.547
	c-0.14-0.147-0.593-0.213-0.565,0.043c0.287-0.027,0.608,0.412,0.782,0.492C36.349,26.294,36.562,26.697,36.772,26.478 M35.447,27.2
	c-0.003,0.15-0.209,0.091-0.159,0.302c0.076,0,0.09,0.062,0.15,0.078c0.025,0,0.05,0.002,0.077,0.002
	c0.178,0.027,0.356,0.678,0.616,0.627c0.147,0.248,0.422-0.016,0.307-0.297C36.145,27.849,35.767,27.239,35.447,27.2 M5.596,23.809
	c0.331,0.487,1.019,1.065,1.413,1.2c0.27,0.42,0.603,0.777,1.061,1.014c0.021-0.1,0.103-0.141,0.184-0.178
	c-0.136-0.428-0.503-0.635-0.791-0.916c-0.208-0.241-0.346-0.551-0.707-0.645c-0.348-0.019-0.347-0.371-0.621-0.465
	c-0.391-0.299-0.798-0.587-1.15-0.923c-0.283-0.142-0.494-0.353-0.802-0.47c0.005,0.232,0.159,0.32,0.261,0.459
	C4.814,23,4.822,23.464,5.24,23.53c0,0.031,0,0.062-0.001,0.091C5.371,23.671,5.462,23.759,5.596,23.809 M35.25,28.229
	c-0.304,0.272,0.635,0.358,0.64,0.582c0.006-0.099,0.1-0.103,0.081-0.228C35.849,28.414,35.401,27.964,35.25,28.229 M23.644,30.578
	c-0.104-0.047-0.201-0.101-0.267-0.186c-0.187-0.143-0.329-0.331-0.529-0.46c-0.019-0.072-0.073-0.107-0.179-0.095
	c-0.085-0.123-0.236-0.186-0.355-0.277c-0.094-0.29-0.33-0.447-0.526-0.643c-0.179-0.006-0.109-0.248-0.356-0.186
	c-0.09-0.002-0.107-0.077-0.177-0.096c-0.12-0.336-0.02,0.265-0.186,0.178c-0.047-0.133,0.115-0.464-0.08-0.453
	c-0.107-0.189-0.255-0.343-0.441-0.46c-0.155-0.146-0.178-0.418-0.44-0.458c-0.533-0.371-0.879-0.926-1.505-1.202
	c-0.296-0.335-0.703-0.563-1.065-0.833c0.001-0.06,0.003-0.119,0.003-0.18c-0.371-0.262-0.562-0.695-1.063-0.833
	c0.021-0.294-0.357-0.438-0.535-0.281c-0.022,0.171,0.098,0.203,0.085,0.361c0.06,0.002,0.119,0.002,0.179,0.005
	c-0.001,0.031-0.001,0.059-0.002,0.091c0.333,0.032,0.21,0.504,0.619,0.461c0.12,0.007,0.081,0.16,0.178,0.185
	c0.11,0.013,0.213,0.031,0.176,0.184c0.117,0.918,1.207,0.902,1.588,1.564c-1.091-0.707,1.073,0.77,0.967,1.19
	c0.478-0.017,0.468,0.433,0.798,0.558c0.014,0.105,0.142,0.1,0.268,0.095c0.091,0.004,0.107,0.073,0.18,0.093
	c0.184,0.205,0.316,0.463,0.617,0.555c-0.001,0.029-0.001,0.061-0.002,0.09c0.51,0.396,0.929,0.873,1.507,1.201
	c0.132,0.109,0.097,0.377,0.353,0.368C23.536,31.009,23.9,30.733,23.644,30.578 M27.681,14.986l0.07,0.306
	c0.295,0.285,1.007,0.567,1.352,0.558c0.48,0.285,1.18,0.75,1.576,0.868c0.169-0.057,0.196-0.261,0.311-0.372
	c0.002-0.051,0.002-0.102,0.003-0.152c-1.175-0.384-1.955-1.148-3.309-1.359C27.683,14.885,27.682,14.936,27.681,14.986
	 M35.004,28.826c-0.017,0.059-0.064,0.088-0.152,0.073c-0.071,0.241,0.111,0.239,0.221,0.308c0,0.025-0.001,0.051-0.002,0.075
	c0.102,0.001,0.401,0.202,0.502,0.204C35.603,29.231,35.178,28.64,35.004,28.826 M27.661,6.258c-0.156-0.01-0.231,0.063-0.274,0.174
	c0.211,0.032,0.161,0.316,0.445,0.279C27.85,6.487,27.696,6.43,27.661,6.258 M6.694,5.552C7.581,6.23,7.951,7.403,8.986,7.941
	C8.305,7.124,7.561,5.897,6.694,5.552 M8.109,24.132c-0.155,0.004-0.279-0.027-0.357-0.098c-0.017-0.101-0.097-0.144-0.178-0.184
	c0.001-0.029,0.001-0.059,0.002-0.09c-0.118-0.09-0.172-0.248-0.353-0.278c-0.23-0.28-0.484-0.537-0.887-0.647
	c-0.03-0.002-0.06-0.002-0.09-0.002c0-0.029,0-0.061,0.001-0.09c-0.263-0.189-0.597-0.31-0.707-0.648
	c-0.06,0-0.121-0.002-0.179-0.004C5.341,22.022,5.287,21.987,5.183,22c-0.359-0.537-0.985-0.818-1.416-1.289
	c-0.091-0.002-0.105-0.078-0.178-0.096c-0.707-0.643-1.402-1.301-2.211-1.845c-0.113-0.157-0.179-0.358-0.443-0.369
	c-0.083,0.284,0.136,0.281,0.171,0.453c0.153,0.44,0.592,0.606,0.879,0.919c0.256,0.255,0.518,0.503,0.797,0.736
	c0.212,0.268,0.629,0.336,0.888,0.561c0.052,0.212,0.112,0.419,0.352,0.456c0.307,0.322,0.723,0.54,1.063,0.833
	c0.358,0.596,1.141,0.787,1.686,1.204c0.192,0.198,0.375,0.405,0.71,0.465c0.185,0.263,0.224,0.669,0.616,0.733
	c0.09,0.002,0.179,0.004,0.27,0.006c-0.001-0.123,0.047-0.196,0.096-0.268c-0.116-0.008-0.123-0.119-0.269-0.096
	C8.192,24.289,8.081,24.278,8.109,24.132 M3.731,22.419c0.321,0.035,0.47,0.185,0.458-0.262C3.931,22.136,3.696,22.138,3.731,22.419
	 M22.378,30.821c-0.469-0.226-0.765-0.616-1.15-0.922c-0.095-0.088-0.021-0.335-0.264-0.278c-0.033-0.293-0.37-0.293-0.44-0.55
	c-0.059,0-0.119-0.001-0.181-0.003c0.001-0.029,0.002-0.061,0.002-0.089c-0.13-0.052-0.222-0.14-0.356-0.188
	c-0.043-0.252-0.343-0.259-0.531-0.371c-0.211,0.022-0.097-0.263-0.266-0.276c-0.054-0.007-0.107-0.017-0.086-0.091
	c0-0.031,0-0.061,0.001-0.092c-0.225-0.164-0.521-0.265-0.711-0.463c0.001-0.119-0.157-0.084-0.177-0.186
	c-0.035-0.113-0.112-0.188-0.266-0.184c-0.179-0.287-0.247-0.104-0.362,0.082c-0.1-0.022-0.138-0.104-0.176-0.186
	c-0.04-0.281,0.219-0.361-0.082-0.45c-0.21-0.034-0.16-0.315-0.443-0.28c0.002-0.09,0.004-0.179,0.005-0.27
	c-0.09-0.002-0.18-0.003-0.27-0.006c-0.38-0.281-0.456-0.855-1.153-0.834c-0.275,0.299,0.622,0.223,0.434,0.729
	c0.061,0,0.122,0.002,0.182,0.004c0.206,0.478,0.861,0.526,0.876,1.189c0.283-0.037,0.364,0.119,0.443,0.279
	c0.305,0.268,0.597,0.546,1.067,0.654c0.006,0.053,0.011,0.105,0.09,0.09c0.262,0.276,0.527,0.555,0.791,0.826
	c0.071,0.022,0.177,0.006,0.178,0.094c0.129,0.231,0.341,0.379,0.622,0.465c0,0.029-0.001,0.06-0.002,0.089
	c0.269,0.213,0.517,0.444,0.889,0.56c0.03,0,0.061,0,0.091,0.002c-0.003,0.09-0.005,0.18-0.006,0.27
	c-0.001,0.029-0.002,0.061-0.003,0.09c0.16,0.316,0.409,0.548,0.797,0.648c0.1,0.021,0.139,0.101,0.178,0.182
	c-0.001,0.031-0.002,0.061-0.003,0.092c0.257,0.199,0.746,0.028,0.639-0.438C22.489,31.071,22.558,30.828,22.378,30.821
	 M3.474,21.875c-0.333-0.269-0.536-0.662-0.973-0.83c-0.244-0.367-1.234-1.291-1.423-0.84c0.163,0.254,0.359,0.479,0.708,0.555
	c0.003,0.115,0.111,0.127,0.084,0.271c0.181,0.21,0.766,0.793,1.24,1.016c0.03,0,0.06,0,0.089,0
	c0.076,0.086,0.571,0.207,0.631,0.015C3.69,22.02,3.76,21.777,3.474,21.875 M16.451,21.423c-0.007,0.055-0.016,0.104-0.092,0.088
	c0.001-0.051-0.071-0.102-0.09-0.002c0.101,0.136,0.371,0.113,0.353,0.369c0.196,0.07,0.377-0.324,0.187-0.358
	c-0.03,0.046-0.281,0.136-0.36-0.007C16.498,21.513,16.552,21.442,16.451,21.423 M37.1,25.345c0.005-0.131-0.056-0.194-0.148-0.23
	c-0.171-0.257-1.211-0.535-1.4-0.775c-0.101-0.002-0.203-0.004-0.304-0.006c0.049,0.352,1.059,0.633,1.248,0.848
	c0.118,0.061,0.108,0.244,0.298,0.234c0.209-0.051,0.15,0.154,0.301,0.159c-0.001,0.075,0.059,0.093,0.073,0.152
	c0.075,0.002,0.151,0.003,0.228,0.005c0.003-0.15,0.006-0.303,0.009-0.455c-0.051-0.002-0.102-0.003-0.153-0.003
	C37.177,25.272,37.161,25.333,37.1,25.345 M21.58,25.943c0.007-0.156-0.065-0.23-0.175-0.275c-0.137-0.221-0.315-0.404-0.53-0.553
	c-0.314-0.281-0.678-0.521-0.971-0.828c-0.006-0.057-0.012-0.107-0.089-0.092c-0.295-0.158-0.495-0.779-0.797-0.648
	c-0.12-0.002-0.078-0.158-0.177-0.183c-0.271-0.181-0.442-0.458-0.707-0.646c-0.222-0.314-0.718-0.373-0.792-0.825
	c-0.253,0.151-0.258,0.06-0.456,0.171c0.106,0.016,0.096,0.145,0.086,0.27c0.03,0,0.06,0,0.091,0.002
	c0.443,0.457,0.746,1.049,1.413,1.291c0.004,0.055,0.011,0.105,0.088,0.09c0.216,0.297,0.439,0.58,0.795,0.738
	c0.031,0.002,0.06,0.002,0.089,0.004c0.323,0.733,0.831,0.744,1.326,1.285c0.001-0.058,0.003-0.117,0.003-0.18
	c0.003-0.089-0.07-0.107-0.087-0.182c0.243,0.033,0.155,0.381,0.353,0.459c0.104,0.016,0.254-0.012,0.267,0.096
	c-0.218,0.357,0.555,0.521,0.702,0.822c0.002-0.057,0.003-0.118,0.004-0.178c0.12,0.09,0.176,0.243,0.265,0.366
	c0.046,0.13,0.134,0.222,0.262,0.275c0.004,0.054,0.012,0.106,0.09,0.09c0.257,0.312,0.212,0.915,0.789,0.918
	c0.213,0.032,0.162,0.315,0.445,0.278c0.221,0.379,0.592,0.611,0.882,0.92c0.153-0.174-0.007-0.113,0.007-0.358
	c0.141,0.009,0.066,0.229,0.268,0.185c0.233-0.436-0.441-0.672-0.794-0.826c-0.13,0.031-0.155,0.105-0.27-0.008
	c-0.048-0.129-0.136-0.222-0.266-0.273c-0.238-0.241-0.117-0.279,0.011-0.542c-0.287,0.071-0.274-0.146-0.445-0.188
	c-0.441-0.313-0.673-0.826-1.241-1.017c-0.035-0.142-0.281-0.083-0.171-0.364C21.724,26.039,21.651,25.991,21.58,25.943
	 M19.597,30.314c-0.08-0.193-0.724-0.354-0.259-0.546C19.511,29.88,19.823,30.085,19.597,30.314 M20.847,30.88
	c-0.363,0.008-0.369,0.002-0.265-0.277c-0.264,0.02-0.273-0.208-0.535-0.191c-0.043-0.105-0.093-0.205-0.175-0.271
	c-0.057-0.241-0.265-0.336-0.441-0.461c-0.004-0.055-0.012-0.105-0.089-0.092c-0.333-0.207-0.758-0.328-0.885-0.738
	c-0.089-0.004-0.179-0.004-0.27-0.006c-0.081-0.244-0.217-0.439-0.53-0.461c-0.423-0.41-0.931-0.734-1.418-1.08
	c0-0.01,0.003-0.018,0-0.032c-0.018-0.004-0.04-0.007-0.062-0.011c-0.038-0.027-0.077-0.053-0.115-0.082
	c-0.067-0.318-0.458-0.327-0.629-0.103c0.025,0.3,0.261,0.396,0.438,0.55c0.014,0.105,0.142,0.1,0.268,0.096
	c0,0.027,0,0.059-0.001,0.089c0.091,0.003,0.182,0.004,0.269,0.006c-0.006,0.126,0.039,0.198,0.086,0.272
	c-0.134-0.029-0.371-0.395-0.446-0.188c0.552,0.396,0.835,0.571,1.514,0.751c0.101,0.404,0.592,0.432,0.796,0.738
	c0.475,0.369,0.788,0.89,1.326,1.197c0.252,0.022,0.24,0.301,0.442,0.369c0.096,0.35,0.457,0.444,0.89,0.471
	c-0.068-0.258,0.132-0.233,0.101-0.45C20.999,30.968,20.994,30.858,20.847,30.88 M15.127,20.136
	c0.117,0.484,0.726,1.201,1.153,0.834C16.068,20.526,15.624,20.304,15.127,20.136 M18.602,30.564
	c-0.133-0.109-0.215-0.266-0.445-0.279c-0.336-0.266-0.574-0.625-1.064-0.744c-0.005-0.054-0.013-0.105-0.09-0.092
	c-0.003-0.056-0.01-0.109-0.086-0.091c-0.068-0.426-0.944-0.951-1.158-0.653c0.065,0.438,0.463,0.555,0.704,0.822
	c0.059,0.002,0.12,0.004,0.18,0.005c0.03,0,0.061,0,0.089,0.003c-0.02,0.196,0.069,0.288,0.264,0.274
	c0.018,0.103,0.098,0.144,0.178,0.183c0.157,0.252,0.451,0.467,0.436,0.641c0.155-0.227,0.235,0.356,0.535,0.281
	c0.345,0.082,0.716,0.602,0.98,0.471c0.269,0.098,0.162-0.196,0.188-0.356C18.85,31.091,18.955,30.607,18.602,30.564 M18.488,31.732
	c-0.09-0.003-0.109,0.068-0.182,0.087c0.085-0.289-0.229-0.192-0.262-0.366c-0.214-0.354-0.707-0.441-1.068-0.654
	c-0.005-0.229-0.333-0.151-0.444-0.278c-0.319-0.106-0.45-0.394-0.8-0.468c-0.002,0.091-0.004,0.182-0.006,0.271
	c-0.001,0.06-0.002,0.12-0.004,0.181c0.009,0.002,0.013,0.006,0.022,0.008c0.132,0.558,1.18,0.748,1.574,1.195
	c0.569,0.014,0.608,0.534,1.067,0.652C18.593,32.35,19.062,31.708,18.488,31.732 M19.478,5.727c0.212,0.267,0.573,0.39,0.797,0.648
	c0.061,0.205,0.265,0.274,0.442,0.37c0.319,0.399,0.757,0.684,1.242,0.926c0.241,0.443,0.757,0.625,1.151,0.924
	c0.707,0.381,1.104,1.057,1.77,1.477c0.221,0.172,0.354,0.425,0.619,0.553c0.09,0.001,0.107,0.074,0.179,0.093
	c0.648,0.144-0.197-0.703-0.435-0.818c-0.185-0.175-0.453-0.268-0.713-0.376C24.229,9.492,24.278,9.119,24,9.062
	c-0.163-0.256-0.367-0.47-0.616-0.643c-0.06,0-0.12-0.002-0.181-0.003c-0.201-0.276-0.437-0.52-0.705-0.734
	c-0.03,0-0.06-0.001-0.09-0.001c-0.104-0.019-0.095-0.147-0.084-0.273c-0.503-0.048-0.532-0.548-0.977-0.651
	c-0.291,0.072-0.118-0.299-0.355-0.279c-0.134-0.168-0.552-0.521-0.62-0.463c-0.312-0.023-0.335-0.323-0.623-0.373
	c-0.351-0.542-0.98-0.823-1.597-1.113c0.018-0.223-0.136-0.28-0.172-0.453c-0.059,0-0.12-0.002-0.18-0.003
	c0-0.031,0.001-0.06,0.002-0.091C17.336,3.9,17.27,3.436,16.734,3.419c-0.03,0-0.061,0-0.091-0.001
	c-0.002-0.116-0.113-0.127-0.083-0.272c-0.157,0.033-0.23-0.138-0.27-0.004c0.239,0.174-0.205-0.128-0.186,0.174
	c0.492,0.237,0.768,0.678,1.243,0.926C18.112,4.685,18.618,5.379,19.478,5.727 M39.837,18.824c-0.013-0.011-0.032-0.021-0.048-0.033
	c-1.23-0.863-2.624-1.568-3.946-2.345c-0.015-0.06-0.062-0.089-0.15-0.08c-0.156-0.123-0.304-0.253-0.526-0.314
	c-1.087-0.714-2.27-1.338-3.447-1.966c-0.062-0.115-0.243-0.115-0.377-0.16c0.001-0.027,0.001-0.051,0.002-0.076
	c-0.198-0.034-0.207-0.25-0.528-0.163c-0.072,0.22-0.072,0.231-0.009,0.455c-0.135-0.025-0.011,0.294,0.148,0.229
	c-0.017-0.197-0.018-0.379,0.233-0.297c-0.003,0.1-0.135,0.068-0.154,0.148c0.084,0.018,0.116,0.088,0.148,0.154
	c0.076,0.348,0.636,0.233,0.747,0.547c0.404,0.231,0.821,0.45,1.276,0.634c0.464,0.125,0.618,0.547,1.126,0.629
	c0.072,0.105,0.199,0.157,0.298,0.234c0.503,0.333,1.058,0.62,1.65,0.871c0.061,0.211,0.392,0.168,0.524,0.313
	c0.293,0.289,0.881,0.294,1.126,0.63c0.017,0.106,0.165,0.091,0.223,0.158c0.226,0.155,0.465,0.297,0.75,0.394
	c-0.001,0.076,0.06,0.092,0.074,0.153c0.342-0.056,0.374,0.187,0.601,0.241c0.029,0.129,0.099-0.016,0.228,0.004
	c0.071-0.077,0.28-0.02,0.231-0.223C39.973,18.912,39.902,18.871,39.837,18.824 M38.705,21.132c0.066,0.045,0.272,0.318,0.298,0.16
	c0.231,0.06,0.277-0.074,0.456-0.068c0.018-0.163-0.056-0.24-0.222-0.23c0.016-0.217-0.21-0.197-0.297-0.311
	c-0.173-0.205-0.428-0.333-0.673-0.471c0.004-0.225-0.354-0.104-0.45-0.237c-0.636-0.453-1.359-0.824-2.099-1.181
	c-0.004-0.047-0.009-0.09-0.074-0.078c-0.547-0.293-1.026-0.648-1.65-0.867c-0.575-0.316-1.091-0.689-1.804-0.872
	c-0.426-0.085-0.542-0.472-1.129-0.403c-0.002,0.125-0.005,0.253-0.008,0.378c0.617,0.316,1.13,0.668,1.749,0.762
	c0.018,0.012,0.035,0.025,0.056,0.035c0.004-0.01,0.002-0.018,0.005-0.026c0.075,0.009,0.144,0.03,0.222,0.03
	c-0.202,0.215,0.363,0.146,0.37,0.389c-0.057,0.083,0.387,0.318,0.678,0.316c0.003,0.193,0.279,0.127,0.374,0.235
	c0.076,0.002,0.152,0.003,0.228,0.005c-0.033,0.305,0.351,0.207,0.446,0.389c0.28,0.277,0.637,0.478,1.049,0.629
	c0.239-0.008,0.248,0.207,0.527,0.164c0.111,0.263,0.454,0.307,0.674,0.468c0.025,0,0.05,0,0.076,0.002
	c0.354,0.179,0.656,0.409,0.973,0.626c-0.017,0.111-0.184,0.064-0.305,0.068c-0.541-0.199-0.947-0.528-1.503-0.711
	c-0.012-0.09-0.118-0.086-0.226-0.08c-0.003-0.049-0.008-0.092-0.073-0.08c-0.282-0.151-0.568-0.297-0.826-0.473
	c-0.024,0-0.051,0-0.075-0.002c-0.121-0.156-0.247-0.306-0.524-0.313c-0.131-0.006-2.451-1.238-2.487-1.146
	c-0.223,0.194,0.361,0.886,0.696,0.789c-0.008,0.132,1.941,1.201,1.999,1.271c0.075,0.002,0.152,0.004,0.227,0.004
	c0.105,0,0.166,0.039,0.227,0.08c0.024,0.002,0.049,0.002,0.075,0.002c0.291,0.143,0.498,0.365,0.979,0.322
	c0.005,0.121-0.016,0.265,0.147,0.233c0.024,0,0.051,0,0.075,0.001c-0.006,0.23,0.381,0.082,0.374,0.311
	c0.3,0.213,1.047,0.561,1.498,0.867c0.017-0.246,0.633-0.265,0.391-0.523c-0.075-0.002-0.09-0.063-0.151-0.079
	c-0.024-0.001-0.05-0.001-0.074-0.001c-0.018-0.11-0.167-0.092-0.225-0.157c0.001-0.026,0.002-0.051,0.002-0.075
	C38.625,21.282,38.607,21.15,38.705,21.132 M23.795,1.585c0.227-0.009,0.279,0.145,0.355,0.279c0.061,0.001,0.119,0.003,0.18,0.004
	c0.481,0.508,1.074,1.38,1.681,1.474c-0.388-0.453-0.591-1.082-1.235-1.287c-0.107-0.19-0.254-0.342-0.44-0.458
	c0-0.029,0.001-0.062,0.002-0.091c-0.27-0.216-0.726-0.714-1.07-0.563c-0.002,0.06-0.002,0.122-0.004,0.181
	C23.479,1.239,23.463,1.583,23.795,1.585 M22.879,11.021c-0.238-0.172,0.109,0.276,0.173,0.363c0.222,0.436,0.481,0.834,1.062,0.924
	c0.06-0.345-0.373,0.065-0.445-0.28c0.391,0.017-0.002-0.45-0.08-0.541c-0.052-0.307-0.462-0.729-0.708-0.555
	c0.091,0,0.106,0.075,0.178,0.093C23.038,11.134,22.959,11.078,22.879,11.021 M38.149,22.562L38.149,22.562
	c0.125,0.002,0.249,0.005,0.374,0.008C38.398,22.567,38.274,22.564,38.149,22.562 M38.075,22.182c-0.91-0.396-3.32-1.989-4.43-1.943
	c-0.006,0.103,0.032,0.165,0.07,0.228c0,0.076-0.062,0.091-0.078,0.152c0.236-0.006,0.211,0.241,0.528,0.161
	c0.016,0.06,0.061,0.091,0.149,0.079c0.109,0.02,1.621,0.945,1.721,0.977c0.156,0.146,0.356,0.25,0.599,0.314
	c0.547,0.07,0.786,0.436,1.2,0.633c0.122,0.274,0.202,0.154,0.451,0.239c0.012-0.272,0.288-0.271,0.315-0.526
	C38.508,22.311,38.293,22.244,38.075,22.182 M22.355,1.555c0.168,0.173,0.164-0.049,0.452,0.01c-0.001,0.031-0.002,0.06-0.002,0.091
	c-0.188,0.211,0.313,0.516,0.525,0.641c0.125,0.353,0.483,0.944,0.884,0.738C24.06,2.947,24.022,2.75,24.046,2.49
	c-0.392-0.005-0.486-0.296-0.803-0.375c0.001-0.031,0.002-0.06,0.002-0.091c-0.003-0.259-0.379-0.163-0.35-0.458
	c-0.188-0.319-0.484-0.532-0.794-0.737c-0.03,0-0.061-0.001-0.09-0.001c-0.076-0.134-0.13-0.289-0.356-0.278
	C21.328,1.101,22.043,1.332,22.355,1.555 M16.01,12.23c0.992,0.725,1.982,1.921,3.014,2.312
	C18.029,13.821,17.022,12.642,16.01,12.23 M22,5.69c0.14,0.011,0.065,0.23,0.266,0.185c-0.001,0.031-0.002,0.06-0.002,0.091
	c0,0.029-0.001,0.06-0.002,0.09c-0.074,0.015-0.092,0.087-0.183,0.086c-0.118-0.002-0.239-0.005-0.358-0.006
	c-0.048-0.341-0.307-0.474-0.437-0.731C21.588,5.436,21.599,5.75,22,5.69 M24.214,7.446c0.532,0.196,0.878,0.571,1.242,0.927
	c0.222,0.199,0.341,0.496,0.616,0.642c-0.021,0.07-0.077,0.104-0.18,0.087c-0.031-0.001-0.062-0.001-0.091-0.001
	c-0.031-0.002-0.059-0.002-0.09-0.002c-0.168-0.191-0.337-0.382-0.621-0.464c-0.06-0.002-0.119-0.002-0.18-0.003
	c-0.048-0.131-0.136-0.222-0.264-0.275c-0.024-0.185-0.24-0.182-0.263-0.367c-0.103-0.225-0.302-0.359-0.532-0.462
	c0-0.029,0.001-0.06,0.002-0.09c-0.258-0.044-0.406-0.197-0.439-0.459C23.81,7.012,23.88,7.357,24.214,7.446 M18.664,1.478
	c-0.139-0.101-0.297-0.185-0.443-0.279c-0.064,0.051-0.058,0.094-0.026,0.134c-0.032-0.04-0.038-0.083,0.026-0.134
	C18.367,1.293,18.525,1.377,18.664,1.478z M16.832,3.062c0.029,0.001,0.059,0,0.089,0.001c0.57,0.187,0.86,0.648,1.331,0.928
	c0.288,0.048,0.311,0.35,0.624,0.373c0-0.03,0-0.06,0.001-0.089c0.124,0.006,0.198-0.039,0.272-0.085
	c0.003,0.124-0.046,0.196-0.095,0.267c0.075,0.134,0.129,0.288,0.353,0.281c0.346,0.049,0.314,0.462,0.71,0.464
	c0.187,0.027,0.178,0.243,0.264,0.363c0.09,0.002,0.181,0.005,0.271,0.006c0.178,0.005,0.109,0.247,0.355,0.187
	c-0.001,0.029-0.002,0.06-0.002,0.09c0.053,0.127,0.345,0.021,0.357,0.188c0.267,0.325,0.817,0.672,1.065,0.744
	c0.019,0.07-0.002,0.176,0.086,0.181c0,0.03-0.001,0.06-0.001,0.091c0.788-0.082,0.564,0.812,1.333,0.747
	c-0.001,0.09-0.003,0.181-0.005,0.27c0.03,0.002,0.061,0.002,0.091,0.002c0.125,0.232,0.473,0.251,0.62,0.462
	c0.047,0.339,0.498,0.291,0.62,0.555c0.078,0.159,0.328,0.156,0.352,0.367c0.145,0.183,0.232,0.424,0.531,0.461
	c-0.001-0.168,0.073-0.19,0.183-0.086c0.017,0.07,0.072,0.104,0.177,0.095c0.239,0.213,0.289-0.274,0.544-0.169
	c-0.026-0.477-0.173-0.836-0.612-0.915c-0.09-0.003-0.105-0.075-0.177-0.094c0.006-0.123-0.039-0.199-0.085-0.273
	c0.125-0.22-0.415-0.225-0.083-0.36c0.194-0.079,0.137-0.653-0.168-0.544c-0.303-0.15-0.419-0.482-0.708-0.645
	c-0.224-0.373-0.742-0.464-1.065-0.741c-0.452-0.566-1.026-1.015-1.591-1.476c-0.338-0.586-0.99-0.872-1.412-1.378
	c-0.255-0.401-0.867-0.463-1.06-0.924c0-0.029,0.001-0.06,0.002-0.089c-0.398,0.059-0.365-0.298-0.623-0.373
	c-0.143-0.011-0.066-0.231-0.266-0.185c-0.372-0.322-0.611-0.766-1.152-0.927c-0.288-0.252-0.844-0.246-0.794-0.826
	C17.045,0.004,16.924,0.001,16.805,0c0.013,0.339,0.331,0.387,0.344,0.726c0.333,0.005,0.619,0.052,0.624,0.373
	c0.412,0.429,0.69,0.984,1.326,1.2c0.012,0.104,0.139,0.1,0.268,0.095c0.4,0.407,0.784,0.836,1.327,1.109
	c0.555,0.379,0.967,0.895,1.504,1.292c0.169,0.454,0.804,0.463,0.971,0.918c0.346,0.434,0.695,0.864,1.238,1.107
	c0.29-0.072,0.275,0.147,0.446,0.188c0.043,0.108,0.093,0.208,0.176,0.273c0.087,0.241,0.349,0.313,0.439,0.552
	c-0.056,0.003-0.107,0.012-0.093,0.088c-0.742-0.259-0.969-1.011-1.685-1.295c-0.009-0.167-0.303-0.062-0.355-0.187
	c-0.13-0.259-0.365-0.417-0.528-0.642c0.072-0.019,0.179,0,0.182-0.087c-0.123-0.006-0.198,0.037-0.27,0.083
	c-0.22,0.034-0.194-0.168-0.449-0.097c0.028-0.294-0.098-0.436-0.35-0.458c-0.134-0.109-0.217-0.265-0.445-0.28
	c-0.229-0.281-0.628-0.399-0.886-0.648c-0.031,0-0.06-0.001-0.091-0.001c-0.342-0.231-0.599-0.544-1.068-0.652
	c-0.326-0.218-0.675-0.412-0.977-0.652c-0.472-0.313-0.585-0.965-1.42-0.93c0.018-0.518-0.402-0.615-0.704-0.823
	c0.087,0.319,0.179,0.962,1.059,1.011c-0.005,0.056-0.017,0.106-0.092,0.088c0.019,0.071-0.001,0.176,0.087,0.182
	c-0.039,0.154,0.128,0.234-0.006,0.268c-0.017-0.071-0.073-0.105-0.179-0.092c-0.256,0.069-0.23-0.133-0.447-0.099
	c0.045-0.202-0.485-0.288-0.539-0.102C16.53,2.585,16.543,2.957,16.832,3.062 M4.982,9.93C4.789,9.703,4.696,9.381,4.365,9.287
	c0.163,0.607,0.672,0.885,1.055,1.283c0.308,0.032,0.349,0.775,0.711,0.464C5.701,10.711,5.44,10.227,4.982,9.93 M22.602,20.02
	c0.129,0.024,0.15,0.153,0.267,0.187c0.331,0.238,0.547,0.592,0.883,0.828c0.031,0,0.061,0.002,0.09,0.002
	c0.055,0.008,0.106,0.016,0.089,0.09c0.021,0.129,0.195,0.109,0.266,0.187c0.232,0.103,0.261,0.397,0.532,0.461
	c0.499,0.463,0.688,1.22,1.593,1.295c0.009-0.153-0.066-0.233-0.174-0.272c-0.269-0.362-0.548-0.711-0.88-1.01
	c-0.029,0-0.06-0.002-0.089-0.002c-0.12-0.385-0.47-0.552-0.796-0.736c-0.098-0.289-0.576-0.215-0.619-0.553
	c-0.209,0.022-0.095-0.263-0.265-0.275c-0.019-0.131-0.144-0.157-0.173-0.274c-0.001-0.091-0.158-0.116-0.181-0.003
	c-0.1-0.064,0.024-0.301-0.263-0.367c-0.125-0.289-0.543-0.304-0.709-0.555c-0.034-0.262-0.182-0.415-0.44-0.461
	c-0.246-0.309-0.405-0.156-0.805-0.287c-0.084,0.287,0.133,0.287,0.263,0.367c0.152,0.088,0.174,0.304,0.352,0.369
	c0.014,0.132,0.216,0.086,0.359,0.095c0.195,0.401,0.613,0.589,0.972,0.832C22.858,20.253,22.58,19.738,22.602,20.02 M16.158,13.764
	c0.462,0.35,0.843,0.778,1.42,1.019c0.001-0.06,0.003-0.12,0.003-0.18c0.023-0.068,0.078-0.104,0.183-0.087
	c0.157,0.085,0.259,0.224,0.445,0.281c-0.52-0.649-1.328-1.491-2.128-1.578c0.104,0.138,0.335,0.149,0.444,0.283
	c0.294,0.362,0.257,0.397-0.184,0.176C16.271,13.695,16.163,13.676,16.158,13.764 M19.663,1.139
	c0.085,0.125,0.236,0.185,0.354,0.278c0.003,0.055,0.012,0.106,0.087,0.091c0.179,0.419,0.878,0.337,1.066,0.744
	c0.431-0.12,0.342,0.259,0.533,0.37c0.177,0.27,0.466,0.435,0.798,0.555C22.5,3.208,22.5,3.241,22.499,3.27
	c0.171,0.131,0.318,0.283,0.441,0.459c0.13,0.082,0.348,0.079,0.262,0.364c0.107,0.017,0.256-0.009,0.269,0.097
	c0.048,0.131,0.137,0.222,0.264,0.276c0.109,0.367,0.551,0.412,0.705,0.734c0.238-0.022,0.065,0.352,0.356,0.277
	c0.111,0.156,0.179,0.358,0.442,0.371c0.123,0.234,0.2,0.514,0.53,0.55c-0.001,0.031-0.001,0.06-0.002,0.091
	c0.127,0.021,0.147,0.149,0.265,0.185c0.483,0.095,0.538,0.601,1.068,0.652c-0.012-0.342-0.117-0.595-0.437-0.64
	c-0.12-0.21-0.367-0.296-0.532-0.461c-0.286-0.459-0.763-0.738-1.24-1.016c-0.03,0-0.06-0.001-0.088-0.001
	c-0.122-0.355-0.358-0.6-0.706-0.736c-0.102-0.02-0.138-0.103-0.178-0.183c-0.063-0.347-0.405-0.432-0.615-0.643
	c0.028,0.039,0.044,0.089,0.063,0.138c-0.018-0.049-0.034-0.1-0.063-0.138h-0.001c-0.03-0.029-0.065-0.054-0.088-0.091
	c0.001-0.029,0.001-0.06,0.002-0.091c-0.168-0.014-0.3-0.065-0.357-0.187c-0.004-0.141-0.228-0.075-0.173-0.274
	c-0.159-0.23-0.342-0.436-0.711-0.464c-0.056-0.008-0.106-0.017-0.088-0.092c-0.193-0.52-0.753-0.691-1.15-1.015
	c-0.42-0.304-0.956-0.495-1.242-0.926C18.952,0.146,19.213,1.19,19.663,1.139 M34.245,5.718c0.028,0.26-0.038,0.424-0.089,0.604
	c0.102,0.002,0.203,0.005,0.304,0.006c0.096,0.204,0.504,0.11,0.677,0.241c0,0.026-0.001,0.051-0.001,0.077
	c0.562,0.322,1.465,1.047,1.952,0.951c0.022,0.104,0.105,0.148,0.069,0.306c0.114-0.013,0.28,0.032,0.306-0.072
	c0.109-0.039,0.186-0.114,0.232-0.221c-0.306-0.104-0.549-0.267-0.749-0.471c-0.439-0.2-0.811-0.461-1.277-0.633
	C35.255,6.185,34.628,6.069,34.245,5.718 M34.088,9.583c0.254,0.219,0.439,0.04,0.679,0.242c0.003,0.046,0.01,0.089,0.074,0.077
	c0.094,0.108,0.356,0.052,0.45,0.162c0.077,0.001,0.093-0.06,0.155-0.074c0.533,0.701,1.594,0.899,2.167,1.562
	c0.1,0.003,0.201,0.006,0.303,0.007c0.157,0.346,0.636,0.381,0.742,0.773c0.329,0.033,0.549-0.045,0.612-0.29
	c-0.461-0.472-1.064-0.811-1.643-1.172c-0.156-0.123-0.304-0.253-0.524-0.314c-0.362-0.321-0.854-0.517-1.273-0.785
	c0-0.026,0.001-0.052,0.002-0.077c-0.188,0.008-0.366,0.005-0.454-0.085c-0.004-0.044-0.01-0.091-0.075-0.077
	c-0.33-0.227-0.614-0.498-1.204-0.479C34.095,9.228,34.092,9.406,34.088,9.583 M35.4,8.548c-0.368-0.092-0.583-0.333-0.9-0.474
	c-0.042,0.111-0.117,0.188-0.159,0.3c0.142,0.187,0.518,0.148,0.599,0.392c-0.36-0.036,0.882,0.455,0.822,0.624
	c0.019-0.058,0.065-0.088,0.153-0.074c-0.042,0.239,0.347,0.065,0.375,0.236c-0.001,0.025-0.002,0.051-0.003,0.076
	c0.529,0.36,2.916,1.248,4.388,2.72c0.199-0.102-0.36-0.466-0.329-0.742c-1.28-1.074-2.263-1.744-2.545-1.793
	c-0.025-0.002-0.05-0.004-0.075-0.004c-0.211-0.165-2.032-1.188-1.503-0.713c-0.213-0.119-0.391-0.269-0.599-0.39
	C35.607,8.598,35.459,8.615,35.4,8.548 M35.422,7.486C35.15,7.327,35.018,7.03,34.52,7.088c-0.001,0.05-0.002,0.101-0.003,0.152
	c-0.026,0-0.05-0.002-0.077-0.002c-0.232,0.264,0.264,0.347,0.451,0.238c0.322,0.471,0.709,0.423,1.122,0.781
	c0.229,0.227,0.596,0.319,0.822,0.549c0.294,0.137,0.008-0.119,0.765,0.415c-0.053-0.169,0.321,0.083,0.543,0.083
	c0-0.089,0.07-0.229-0.524-0.606C36.929,8.171,36.221,7.91,35.422,7.486 M34.718,4.893c-0.053-0.173-0.426-0.038-0.606-0.089
	c0.095,0.191-0.229,0.31-0.008,0.381c0.101,0.001,0.202,0.003,0.303,0.006c0.156,0.196,0.413,0.296,0.753,0.316
	c0.151,0.151,0.391,0.22,0.6,0.317c0.156,0.145,0.365,0.121,0.22,0.384c0.387,0.083,0.605,0.093,0.688-0.29
	c-0.151-0.003-0.092-0.208-0.301-0.155c-0.262-0.27-0.643-0.426-0.973-0.628C35.098,5.123,34.924,4.992,34.718,4.893 M33.061,11.61
	c0.274-0.142,0.276,0.036,0.528,0.086c0.172,0.068,0.236,0.397,0.597,0.469c0.051,0,0.101,0.002,0.153,0.003
	c0.026,0,0.05,0,0.076,0.002c0.433,0.276,0.906,0.518,1.349,0.783c0.295,0.264,0.655,0.466,1.048,0.629
	c0.278,0.059,0.366,0.687,0.595,0.546c-0.006-0.137,0.079-0.178,0.231-0.148c-0.067,0.311,0.109,0.391,0.371,0.385
	c0.017,0.062-0.001,0.151,0.073,0.156c0.01,0.089,0.119,0.085,0.226,0.08c0.144-0.014,0.166,0.09,0.303,0.082
	c-0.001,0.026-0.002,0.051-0.003,0.077c0.018,0.176,0.199,0.177,0.303,0.08c-0.008,0.378,0.343,0.413,0.671,0.47
	c0.129-0.085,0.383-0.373,0.085-0.453c-0.002-0.097-0.095-0.108-0.071-0.228c-0.177,0.02-0.316,0.14-0.455-0.009
	c-0.163-0.068-0.162-0.292-0.372-0.313c-0.096-0.278-0.444-0.318-0.595-0.545c0.151-0.248,0.673,0.25,0.979,0.326
	c0.115-0.062,0.114-0.242,0.158-0.376c-0.109-0.068-0.291-0.067-0.219-0.309c0.092-0.006,0.178-0.02,0.154-0.148
	c-0.105,0-0.167-0.04-0.226-0.082c-0.076,0-0.09-0.061-0.15-0.078c-0.057-0.193-0.307-0.201-0.448-0.313
	c-0.554-0.333-1.058-0.718-1.725-0.945c-0.098-0.202-0.422-0.19-0.601-0.315c-0.172-0.083-0.238-0.266-0.526-0.239
	c-0.171-0.083-0.262-0.243-0.525-0.24c-0.058-0.191-0.398-0.113-0.527-0.237c-0.159-0.071-0.22-0.236-0.451-0.236
	c-0.001,0.074-0.003,0.151-0.004,0.226c-0.01,0.142-0.251,0.048-0.232,0.222c0.144,0.036,0.187,0.168,0.376,0.161
	c0.011,0.089,0.119,0.084,0.226,0.08c0.177,0.203,0.462,0.3,0.751,0.395c0.183-0.027,0.162,0.141,0.377,0.082
	c0.123,0.13,0.192,0.312,0.449,0.315c0.591,0.495,1.767,0.734,2.022,1.18c0.01,0.087-0.017,0.212,0.071,0.228
	c0,0.026,0,0.05-0.001,0.077l-0.005,0.226c-0.502-0.137-0.765-0.505-1.199-0.707c-0.051-0.002-0.1-0.002-0.151-0.005
	c-0.057-0.193-0.309-0.2-0.447-0.311c-0.197-0.158-0.443-0.269-0.676-0.393c-0.029-0.193-0.324-0.135-0.373-0.312
	c-0.103,0.002-0.165-0.038-0.225-0.08c-0.384-0.399-0.995-0.581-1.577-0.791c-0.09,0.011-0.215-0.017-0.229,0.071
	C32.966,11.151,33.097,11.468,33.061,11.61 M28.744,14.934c0.198,0.082,0.462,0.1,0.756,0.091c0.009,0.213,0.126,0.325,0.373,0.31
	c0.089,0.04,0.171,0.085,0.224,0.157c0.149,0.133,0.472,0.093,0.68,0.166c0.134,0.07,0.188,0.215,0.452,0.161
	c0.132-0.003,0.236,0.022,0.301,0.082c0.003,0.046,0.01,0.091,0.075,0.077c0.986,0.578,1.629,1.026,2.7,1.498h0.075
	c0.332-0.071,0.14-0.083,0.148,0.232c0.649,0.219,1.097,0.629,1.726,0.869c0.224,0.158,0.47,0.293,0.749,0.396
	c-0.001,0.077,0.06,0.091,0.073,0.155c0.347-0.088,0.294,0.213,0.603,0.162c0.172,0.135,0.39,0.223,0.601,0.316
	c0.025,0,0.051,0.001,0.075,0.001c0.204-0.038,0.381,0.321,0.529,0.087c0.019-0.113,0.186-0.064,0.305-0.07
	c-0.762-0.877-2.254-1.056-3.224-1.736c-0.954-0.743-2.183-1.224-3.224-1.886c-0.039-0.185-0.282-0.174-0.45-0.237
	c-0.186-0.193-0.464-0.298-0.75-0.395c-0.05-0.001-0.1-0.001-0.151-0.003c-0.172-0.083-0.263-0.242-0.526-0.237
	c-0.011-0.089-0.118-0.085-0.226-0.082c-0.16-0.166-0.438-0.223-0.676-0.317c-0.05,0-0.101-0.002-0.152-0.004
	c-0.016-0.058-0.061-0.089-0.15-0.078c-0.233-0.026-0.484-0.421-0.755-0.168c-0.025,0-0.05,0-0.075-0.002
	C28.88,14.712,28.694,14.701,28.744,14.934 M27.068,4.444c-0.045-0.308-0.05-0.656-0.437-0.638c0.059-0.234-0.03-0.327-0.264-0.277
	c-0.036,0.3,0.192,0.345,0.258,0.547C26.769,4.202,26.905,4.335,27.068,4.444 M32.96,12.82c0.003,0.047,0.008,0.091,0.074,0.077
	c0.202,0.104,0.337,0.272,0.6,0.317c0.27-0.036,0.181,0.272,0.451,0.237c0.264,0.065,0.244,0.217,0.455,0.009
	c0.072,0.153,0.124,0.327,0.295,0.386c0.143,0.234,0.369,0.389,0.75,0.396c0.04,0.108,0.114,0.186,0.223,0.231
	c0.045,0.006,0.09,0.012,0.074,0.079c-0.034,0.18,0.346-0.036,0.223,0.23c0.104,0.006,0.168-0.031,0.229-0.072
	c0.066,0.136,0.164,0.241,0.297,0.31c0.182,0.247,0.607,0.259,0.825,0.474c0.003,0.044,0.009,0.089,0.074,0.075
	c0.103,0.347,0.698,0.221,0.822,0.549c0.076,0.003,0.152,0.004,0.228,0.004c0.11,0.142,0.313,0.196,0.37,0.389
	c0.253-0.074,0.329,0.05,0.46-0.219c0.001-0.025,0.001-0.051,0.001-0.075c0.026,0,0.051,0,0.077,0.001
	c-0.069-0.372-0.382-0.112-0.598-0.391c0.016-0.19-0.111-0.241-0.221-0.309c-0.026-0.001-0.051,0-0.076-0.001
	c-0.201-0.105-0.372-0.238-0.601-0.316c-0.148-0.13-0.275-0.281-0.523-0.315c-0.351-0.407-0.922-0.603-1.424-0.863
	c0-0.026,0.001-0.051,0.002-0.076c-0.181-0.1-0.325-0.234-0.526-0.314c-0.268,0.035-0.18-0.273-0.449-0.239
	c-0.369-0.29-0.818-0.503-1.275-0.708c-0.255-0.225-0.652-0.316-0.978-0.475c-0.005-0.166-0.319-0.038-0.453-0.084
	c-0.012,0.245-0.346,0.154-0.237,0.525C32.51,12.609,32.74,12.711,32.96,12.82 M31.276,13.545c0.086,0.065,0.201,0.103,0.377,0.083
	c0.407,0.245,1.035,0.484,1.28,0.483c0.13-0.002,0.193,0.061,0.224,0.156c0.24,0.24,0.603,0.363,0.9,0.548
	c0.216,0.201,0.447-0.001,0.525,0.241c0.003,0.045,0.01,0.089,0.074,0.077c0.248,0.33,0.783,0.388,1.048,0.703
	c0.29-0.006,0.36,0.199,0.602,0.24c0.182,0.321,0.749,0.666,0.971,0.702c0.024,0,0.051,0.001,0.076,0.001
	c0.24,0.214,0.594,0.6,0.671,0.549c0.026-0.003,0.051,0,0.076,0c0.197,0.256,0.535,0.379,0.822,0.549
	c0.167-0.041,0.585-0.211,0.388-0.373c-0.072,0.133-0.177,0.231-0.309,0.297c0-0.139,0.394-0.25,0.158-0.377
	c-0.016-0.059,0.001-0.149-0.073-0.152c-1.335-0.749-2.448-1.711-3.816-2.429c-0.174-0.082-0.239-0.266-0.526-0.239
	c0-0.025,0.001-0.05,0.001-0.074c-0.154-0.151-0.419-0.196-0.601-0.318c-0.686-0.282-1.157-0.772-1.952-0.951
	c-0.146-0.182-0.5-0.164-0.831-0.17c-0.088,0.356,0.287-0.145,0.223,0.233C31.386,13.298,31.256,13.344,31.276,13.545 M25.453,4.139
	c-0.171-0.424-0.63-0.569-1.065-0.741c-0.02,0.225,0.196,0.223,0.262,0.367c0.209,0.066,0.307,0.236,0.445,0.368
	c0.005,0.171,0.296,0.069,0.262,0.276c0.181,0.416,0.854,1.119,1.41,1.469c0.17,0.108,0.575,0.443,0.716,0.285
	c-0.05-0.001-0.101-0.075,0.001-0.089c-0.001,0.049,0.071,0.103,0.091,0.002c-0.188-0.087-0.397-0.15-0.535-0.281
	c-0.101-0.257-0.379-0.345-0.529-0.552c-0.184-0.265-0.349-0.547-0.615-0.734C25.733,4.401,25.596,4.267,25.453,4.139 M34.428,4.204
	c0.015,0.06,0.061,0.089,0.15,0.08c0.074,0.25,0.384,0.275,0.599,0.39c0.063,0.113,0.108,0.244,0.299,0.234
	c0.521-0.191,0.346-0.635-0.214-0.685c-0.015-0.059-0.06-0.088-0.144-0.079c0-0.002-0.002-0.002-0.003-0.002
	c-0.001-0.001-0.001-0.001-0.002-0.001c-0.001-0.102,0.038-0.164,0.079-0.224c0.359-0.145,0.176-0.394,0.013-0.606
	c-0.051,0-0.102-0.001-0.152-0.003c-0.065-0.16-0.219-0.237-0.45-0.237c-0.003-0.046-0.01-0.091-0.075-0.077
	c-0.076-0.225-0.355-0.253-0.677-0.244c-0.001,0.077-0.003,0.153-0.005,0.23c-0.187,0.113,0.278,0.225,0.372,0.311
	c0.004,0.293,0.371,0.239,0.524,0.39c-0.001,0.051-0.001,0.101-0.003,0.151C34.435,3.663,34.22,3.6,33.91,3.587
	c-0.027,0.104-0.111,0.144-0.082,0.303c-0.026-0.002-0.051-0.002-0.077-0.002C33.604,4.223,34.309,3.923,34.428,4.204 M19.461,6.538
	c-0.223-0.347-0.603-0.54-0.883-0.831c-0.298-0.271-0.483-0.652-0.884-0.828C17.56,4.773,17.478,4.616,17.249,4.6
	c-0.096-0.169-0.344-0.197-0.441-0.367c-0.106-0.143-0.435-0.519-0.626-0.285c0.258,0.046,0.206,0.39,0.441,0.46
	c0.278,0.144,0.526,0.319,0.709,0.555c0.101,0.256,0.377,0.342,0.529,0.55c0.104,0.373,0.464,0.498,0.797,0.647
	c0.185,0.147,0.165,0.489,0.53,0.461c0.145,0.244,0.374,0.406,0.528,0.642c0.176-0.025,0.175,0.123,0.266,0.185
	c0.475,0.311,0.749,0.814,1.33,1.02c0.073,0.329,0.263,0.059,0.538,0.099c0.165,0.177-0.057,0.163-0.009,0.45
	c0.285,0.019,0.26,0.339,0.531,0.373c0.376,0.406,0.672,0.885,1.147,1.194c0.187,0.115,0.346,0.257,0.532,0.371
	c0.089,0.239,0.351,0.31,0.439,0.55c-0.002,0.091,0.071,0.11,0.087,0.182c0.207,0.034,0.345-0.006,0.452-0.082
	c-0.011-0.314-0.198-0.456-0.439-0.548c-0.436-0.525-1.15-0.779-1.503-1.382c-0.369-0.235-0.528-0.669-0.881-0.92
	c-0.03,0-0.059-0.002-0.09-0.002c0.001-0.029,0.002-0.06,0.002-0.089c-0.058-0.237-0.419-0.185-0.533-0.371
	c-0.224-0.432-0.673-0.646-1.061-0.924c-0.26-0.072-0.442-0.224-0.622-0.372c-0.057-0.007-0.107-0.016-0.09-0.092
	c0.001-0.031,0.002-0.06,0.003-0.089C19.631,6.786,19.643,6.568,19.461,6.538 M6.826,3.486C6.7,3.341,6.606,3.166,6.384,3.114
	C6.386,3.325,6.72,3.665,6.826,3.486 M6.387,2.935c-0.425-0.03-0.22-0.67-0.705-0.644C5.66,2.696,6.021,3.196,6.387,2.935
	 M8.233,5.135c-0.3-0.566-0.739-0.997-1.231-1.376c0.135,0.427,0.463,0.672,0.699,1.005C7.948,5,8.261,5.633,8.587,5.502
	C8.429,5.417,8.444,5.168,8.233,5.135 M8.644,2.712C8.315,2.203,7.833,1.37,7.322,1.333C7.78,1.776,8.139,2.314,8.644,2.712
	 M8.173,3.692c0.233,0.074,0.311,0.754,0.621,0.463C8.157,3.444,7.598,2.656,6.855,2.044C6.939,2.406,7.23,2.57,7.38,2.866
	C7.513,3.268,7.905,3.421,8.173,3.692 M1.283,14.626c0.361-0.029,0.45,0.493,0.805,0.197c-0.143-0.305-0.667-0.709-0.885-0.649
	C1.399,14.163,1.237,14.493,1.283,14.626 M8.302,19.274c-0.168-0.164-0.413-0.253-0.533-0.461c-0.002-0.056-0.01-0.106-0.088-0.091
	c-0.207-0.363-0.569-0.574-0.883-0.831c-0.396-0.183-0.576-0.566-0.883-0.83c-0.327-0.42-0.684-0.813-1.147-1.103
	c-1.527-0.947-2.505-2.419-3.982-3.414c1.406,2.031,3.8,3.116,5.207,5.15c0.403,0.026,0.665,0.183,0.799,0.468
	c0.13,0.434,0.571,0.569,0.883,0.83C7.861,19.052,8.1,19.513,8.302,19.274 M4.491,11.991c0.232,0.128,0.332,0.385,0.619,0.463
	c0.036,0.32,0.479,0.245,0.528,0.55c0.234,0.305,0.405,0.671,0.886,0.741c0.177,0.07,0.389,0.558,0.533,0.369
	C6.886,14.101,7,13.816,6.792,13.839c-0.478-0.687-1.13-1.207-1.857-1.658c-0.09-0.091-0.178-0.182-0.263-0.276
	c0-0.031,0.001-0.061,0.002-0.091c-0.257,0.01-0.204-0.275-0.444-0.278c-0.375-0.202-0.557-0.587-0.976-0.741
	c0.094,0.377,0.513,0.448,0.704,0.735c-0.097,0.268,0.198,0.163,0.357,0.188c-0.002,0.09-0.004,0.18-0.006,0.27
	C4.369,11.988,4.43,11.989,4.491,11.991 M8.665,1.72c-0.241-0.269-0.45-1.036-0.883-0.826C8.156,1.091,8.204,1.603,8.665,1.72
	 M7.922,20.167c0.033-0.711-0.936-0.455-0.876-1.189c-0.06-0.002-0.12-0.003-0.18-0.005c-0.33-0.447-0.722-0.835-1.145-1.193
	c-0.483-0.128-0.572-0.629-1.157-0.654c0.135,0.338,0.578,0.383,0.705,0.734c-0.001,0.265,0.198,0.338,0.35,0.456
	c0.017,0.102,0.097,0.145,0.176,0.186c0.264,0.24,1.38,1.435,1.064,0.83C7.259,19.567,7.442,20.009,7.922,20.167 M4.662,16.676
	c-0.335-0.029-0.508-0.22-0.713-0.375c-0.806-0.314-1.042-1.176-1.953-1.392c0.606,0.773,1.411,1.354,2.212,1.938
	c0,0.03-0.001,0.059-0.001,0.09C4.463,16.96,4.697,16.958,4.662,16.676 M5.197,3.9c0.539,0.455,0.957,1.023,1.501,1.473
	c-0.237-0.597-0.83-0.851-1.142-1.372C5.347,3.759,5.21,3.45,4.85,3.355C4.803,3.692,5.029,3.768,5.197,3.9 M22.635,18.4
	c-0.217,0.032-0.19-0.168-0.447-0.102c-0.002,0.093-0.004,0.182-0.006,0.271c0.061,0.002,0.122,0.003,0.182,0.003
	c0.342,0.232,0.705,0.441,0.975,0.744c0.183,0.027,0.174,0.243,0.261,0.365c0.029,0,0.06,0,0.09,0.001
	c0.566,0.312,0.706,1.028,1.416,1.2c0.131-0.045,0.462,0.115,0.452-0.08c0.267-0.293-0.407-0.43-0.528-0.641
	c-0.19-0.039-0.568-0.381-0.796-0.646c0.071-0.247-0.176-0.187-0.173-0.367c-0.059,0-0.12-0.001-0.18-0.003
	C23.465,18.899,23.41,18.306,22.635,18.4 M16.536,8.548c0.633,0.511,1.281,1.006,1.768,1.659c0.232,0.275,0.387,0.628,0.887,0.648
	c1.06,1.073,2.122,2.14,3.268,3.128c-0.022,0.197,0.066,0.288,0.262,0.277c0.158,0.085,0.109,0.366,0.446,0.279
	c0.048-0.282-0.105-0.37-0.26-0.456c0.031-0.236-0.12-0.298-0.354-0.277c-0.259-0.283-0.579-0.505-0.794-0.827
	c-0.23-0.134-0.24-0.476-0.622-0.462c-0.309-0.293-0.632-0.571-0.882-0.919c-0.494-0.644-1.078-1.201-1.765-1.659
	c-0.696-0.45-1.21-1.075-1.858-1.569c-0.104-0.141-0.433-0.518-0.626-0.283C16.24,8.186,16.302,8.45,16.536,8.548 M18.272,11.736
	c-0.158-0.26-0.519-0.325-0.708-0.553c-0.401-0.148-0.577-0.507-0.885-0.741c-0.06-0.215-0.489-0.585-0.628-0.193
	c0.211,0.032,0.161,0.316,0.444,0.279c0.929,0.843,1.865,1.683,2.923,2.402C19.272,12.304,18.553,12.231,18.272,11.736 M19.04,9.41
	c-0.604-0.183-0.746-0.812-1.329-1.019c0.003-0.089-0.07-0.106-0.086-0.18c-0.079-0.159-0.161-0.318-0.445-0.279
	c-0.223-0.304-0.839-1.112-1.156-0.745c0.508,0.102,0.556,0.644,0.974,0.83c0.236,0.305,0.51,0.57,0.885,0.738
	c0.273,0.387,0.727,0.598,1.063,0.925c0.205,0.359,0.594,0.546,0.883,0.828c0.514,0.388,0.815,0.982,1.412,1.292
	c0.005,0.054,0.011,0.105,0.09,0.089c-0.001,0.06-0.003,0.121-0.004,0.18c0.368,0.469,0.757,0.919,1.325,1.199
	c0.021,0.07,0.074,0.106,0.179,0.092c-0.001-0.262-0.198-0.339-0.35-0.458c-0.003-0.054-0.012-0.105-0.089-0.091
	c-0.262-0.307-0.539-0.601-0.791-0.916c-0.312-0.259-0.494-0.644-0.885-0.827c-0.403-0.025-0.352-0.488-0.709-0.557
	C19.67,10.159,19.495,9.652,19.04,9.41 M16.39,11.337c0.051,0.192,0.388,0.561,0.532,0.372C16.68,11.647,16.705,11.328,16.39,11.337
	 M22.328,11.548c-0.128-0.05-0.217-0.143-0.263-0.272c-0.097-0.645-0.775-0.73-1.149-1.104c-0.43-0.057-0.577-0.765-0.888-0.649
	c0.588,0.963,1.735,1.393,2.293,2.386c0.02,0.128,0.195,0.11,0.268,0.188c0.307,0.293,0.671,0.998,1.06,0.921
	c-0.08-0.572-0.613-0.705-0.879-1.098C22.673,11.749,22.674,11.482,22.328,11.548 M17.404,5.864
	c-0.021,0.196,0.067,0.289,0.264,0.276c0.269,0.477,0.762,0.739,1.148,1.104c0.308-0.031,0.266,0.276,0.442,0.37
	c0.018,0.102,0.097,0.142,0.177,0.184c0.265,0.305,0.535,0.604,0.882,0.829c0.303,0.356,0.599,0.719,1.062,0.923
	c0.515,0.241,0.429,1.057,1.241,1.015c0.359-0.281-0.562-0.797-0.788-1.096c-0.315-0.141-0.539-0.367-0.8-0.558
	c-0.293-0.19-0.548-0.415-0.796-0.646c-0.004-0.116-0.114-0.128-0.085-0.272c-0.06-0.001-0.121-0.003-0.181-0.004
	c-0.099-0.403-0.46-0.558-0.794-0.737c-0.055-0.006-0.108-0.015-0.089-0.093c-0.343-0.405-0.604-0.888-1.149-1.103
	c-0.068-0.024-0.175-0.007-0.177-0.094c0.001-0.03,0.002-0.061,0.002-0.09c-0.128-0.024-0.147-0.153-0.266-0.185
	c-0.344-0.137-0.443-0.891-0.887-0.649C16.59,5.585,17.195,5.533,17.404,5.864 M19.771,13.298c0.374,0.347,0.864,0.581,1.241,0.928
	C20.846,13.735,20.163,13.277,19.771,13.298 M36.912,27.087c-0.404-0.233-0.883-0.678-1.417-0.783
	C35.31,26.716,36.614,27.621,36.912,27.087 M18.201,10.835c-0.139-0.248-0.203-0.571-0.619-0.555
	c-0.141-0.307-0.7-0.677-0.886-0.646c1.645,1.566,3.31,3.114,5.129,4.517C20.63,13.033,19.526,11.826,18.201,10.835 M20.194,14.567
	c-0.141-0.424-0.595-0.546-0.883-0.829c0.001-0.03,0.001-0.059,0.002-0.09c-0.12-0.03-0.169-0.131-0.359-0.097
	c-0.653-0.459-1.172-1.52-1.948-1.571c0.623,0.49,1.178,1.045,1.769,1.568c0.051,0.275,0.408,0.255,0.531,0.461
	C19.707,14.094,19.832,14.444,20.194,14.567 M16.137,6.108c0.605,0.362,0.939,0.982,1.595,1.293c0.024,0.3,0.261,0.397,0.438,0.551
	c0.234,0.129,0.302,0.418,0.622,0.462c0.482,0.187,0.671,1.118,1.149,1.015c-0.406-0.492-0.714-1.081-1.323-1.378
	c0.003-0.121,0.006-0.241,0.009-0.36c-0.359,0.05-0.484-0.123-0.625-0.285c-0.581-0.472-1.081-1.019-1.681-1.475
	c0-0.03,0.001-0.06,0.002-0.09c-0.171-0.041-0.222-0.199-0.447-0.189C15.799,5.962,15.953,6.051,16.137,6.108"/>
</svg>
