<?xml version="1.0" encoding="utf-8"?>
<!-- Generator: Adobe Illustrator 16.0.0, SVG Export Plug-In . SVG Version: 6.00 Build 0)  -->
<!DOCTYPE svg PUBLIC "-//W3C//DTD SVG 1.1//EN" "http://www.w3.org/Graphics/SVG/1.1/DTD/svg11.dtd">
<svg version="1.1"
	 id="svg4763" xmlns:cc="http://creativecommons.org/ns#" xmlns:dc="http://purl.org/dc/elements/1.1/" xmlns:sodipodi="http://sodipodi.sourceforge.net/DTD/sodipodi-0.dtd" xmlns:svg="http://www.w3.org/2000/svg" xmlns:inkscape="http://www.inkscape.org/namespaces/inkscape" xmlns:rdf="http://www.w3.org/1999/02/22-rdf-syntax-ns#" inkscape:version="0.91 r13725" sodipodi:docname="Siemens.svg"
	 xmlns="http://www.w3.org/2000/svg" xmlns:xlink="http://www.w3.org/1999/xlink" x="0px" y="0px" width="1000px"
	 height="159.105px" viewBox="0 0 1000 159.105" enable-background="new 0 0 1000 159.105" xml:space="preserve">
<sodipodi:namedview  units="px" showgrid="false" inkscape:cx="804.35663" pagecolor="#ffffff" inkscape:zoom="0.35355339" borderopacity="1.0" inkscape:cy="291.69117" bordercolor="#666666" id="base" inkscape:window-maximized="1" inkscape:window-x="-8" inkscape:window-height="705" inkscape:window-y="-8" inkscape:pageshadow="2" inkscape:window-width="1366" inkscape:document-units="px" inkscape:pageopacity="0.0" inkscape:current-layer="layer1">
	</sodipodi:namedview>
<g id="layer1" transform="translate(0,-893.25616)" inkscape:label="Layer 1" inkscape:groupmode="layer">
	<g id="g5329" transform="matrix(1.4419456,0,0,1.4419456,0,-465.08683)">
		<path id="path4166" inkscape:connector-curvature="0" fill="#009999" d="M685.398,945.893v20.654
			c-10.7-4.04-20.227-6.082-28.564-6.082c-4.939,0-8.871,0.914-11.828,2.683c-2.958,1.783-4.466,3.978-4.466,6.569
			c0,3.445,3.338,6.508,10.06,9.253l19.42,9.45c15.7,7.484,23.488,17.422,23.488,29.906c0,10.38-4.131,18.657-12.468,24.785
			c-8.277,6.189-19.419,9.252-33.29,9.252c-6.402,0-12.149-0.274-17.254-0.853c-5.106-0.549-10.975-1.677-17.483-3.293v-21.613
			c11.935,4.039,22.802,6.081,32.588,6.081c11.676,0,17.483-3.384,17.483-10.212c0-3.399-2.378-6.143-7.209-8.292l-21.568-9.191
			c-7.956-3.598-13.871-7.956-17.742-13.124c-3.811-5.213-5.747-11.188-5.747-18.016c0-9.557,4.024-17.255,11.981-23.109
			c8.017-5.807,18.657-8.718,31.887-8.718c4.299,0,9.253,0.381,14.74,1.082C674.957,943.85,680.277,944.764,685.398,945.893
			L685.398,945.893z"/>
		<path id="path4168" inkscape:connector-curvature="0" fill="#009999" d="M74.536,945.893v20.654
			c-10.701-4.04-20.212-6.082-28.55-6.082c-4.954,0-8.871,0.914-11.828,2.683c-2.957,1.783-4.466,3.978-4.466,6.569
			c0,3.445,3.384,6.508,10.106,9.253l19.419,9.45c15.638,7.484,23.443,17.422,23.443,29.906c0,10.38-4.146,18.657-12.423,24.785
			c-8.338,6.189-19.419,9.252-33.335,9.252c-6.402,0-12.164-0.274-17.27-0.853c-5.106-0.549-10.914-1.677-17.468-3.293v-21.613
			c11.981,4.039,22.849,6.081,32.574,6.081c11.676,0,17.483-3.384,17.483-10.212c0-3.399-2.363-6.143-7.149-8.292l-21.568-9.191
			c-8.017-3.597-13.932-7.956-17.742-13.124C1.89,986.651,0,980.676,0,973.848c0-9.557,3.994-17.255,11.996-23.109
			c7.956-5.807,18.611-8.718,31.842-8.718c4.344,0,9.237,0.381,14.785,1.082C64.111,943.85,69.43,944.764,74.536,945.893z"/>
		<polygon id="polygon4170" fill="#009999" points="128.419,943.956 128.419,1050.426 96.79,1050.426 96.79,943.956 		"/>
		<polygon id="polygon4172" fill="#009999" points="231.276,1050.426 152.884,1050.426 152.884,943.956 230.315,943.956 
			230.315,963.635 183.323,963.635 183.323,987.245 224.081,987.245 224.081,1004.988 183.323,1004.988 183.323,1029.772 
			231.276,1029.772 		"/>
		<polygon id="polygon4174" fill="#009999" points="248.759,1050.426 248.759,943.956 287.369,943.956 313.723,1009.134 
			341.297,943.956 377.97,943.956 377.97,1050.426 348.444,1050.426 348.444,980.204 317.808,1051.401 299.578,1051.401 
			270.114,980.204 270.114,1050.426 		"/>
		<polygon id="polygon4176" fill="#009999" points="480.783,1050.426 402.391,1050.426 402.391,943.956 479.823,943.956 
			479.823,963.635 433.086,963.635 433.086,987.245 473.845,987.245 473.845,1004.988 433.086,1004.988 433.086,1029.772 
			480.783,1029.772 		"/>
		<polygon id="polygon4178" fill="#009999" points="590.802,1050.426 557.255,1050.426 519.607,982.139 519.607,1050.426 
			498.266,1050.426 498.266,943.956 532.792,943.956 569.465,1011.07 569.465,943.956 590.802,943.956 		"/>
	</g>
</g>
</svg>
