<?xml version="1.0" encoding="utf-8"?>
<!-- Generator: Adobe Illustrator 16.0.0, SVG Export Plug-In . SVG Version: 6.00 Build 0)  -->
<!DOCTYPE svg PUBLIC "-//W3C//DTD SVG 1.1//EN" "http://www.w3.org/Graphics/SVG/1.1/DTD/svg11.dtd">
<svg version="1.1" id="Layer_1" xmlns="http://www.w3.org/2000/svg" xmlns:xlink="http://www.w3.org/1999/xlink" x="0px" y="0px"
	 width="554.806px" height="88.273px" viewBox="18.953 26.231 554.806 88.273"
	 enable-background="new 18.953 26.231 554.806 88.273" xml:space="preserve">
<g id="Ebene_x0020_1">
	<path fill="#542888" d="M567.272,29.329v16.523c-8.56-3.232-16.181-4.866-22.852-4.866c-3.95,0-7.097,0.732-9.462,2.146
		c-2.366,1.427-3.573,3.183-3.573,5.256c0,2.756,2.67,5.207,8.048,7.402l15.535,7.56c12.561,5.988,18.791,13.938,18.791,23.924
		c0,8.305-3.305,14.926-9.975,19.828c-6.621,4.951-15.535,7.402-26.632,7.402c-5.121,0-9.719-0.22-13.804-0.684
		c-4.085-0.438-8.779-1.342-13.986-2.634V93.896c9.548,3.231,18.242,4.865,26.07,4.865c9.341,0,13.987-2.707,13.987-8.17
		c0-2.72-1.902-4.914-5.768-6.634l-17.255-7.354c-6.365-2.877-11.097-6.365-14.194-10.499c-3.048-4.17-4.597-8.95-4.597-14.413
		c0-7.646,3.219-13.804,9.584-18.486c6.414-4.646,14.926-6.975,25.511-6.975c3.438,0,7.401,0.305,11.791,0.866
		C558.919,27.695,563.175,28.426,567.272,29.329L567.272,29.329z"/>
	<path fill="#542888" d="M78.582,29.329v16.523c-8.56-3.232-16.169-4.866-22.839-4.866c-3.964,0-7.098,0.732-9.463,2.146
		c-2.365,1.427-3.573,3.183-3.573,5.256c0,2.756,2.707,5.207,8.085,7.402l15.535,7.56c12.511,5.988,18.755,13.938,18.755,23.924
		c0,8.305-3.317,14.926-9.938,19.828c-6.67,4.951-15.535,7.402-26.668,7.402c-5.122,0-9.731-0.22-13.816-0.684
		c-4.085-0.438-8.73-1.342-13.975-2.634V93.896c9.585,3.231,18.279,4.865,26.059,4.865c9.341,0,13.987-2.707,13.987-8.17
		c0-2.72-1.891-4.914-5.72-6.634l-17.254-7.354c-6.414-2.877-11.146-6.365-14.194-10.499c-3.098-4.17-4.609-8.95-4.609-14.413
		c0-7.646,3.195-13.804,9.597-18.486c6.365-4.646,14.89-6.975,25.474-6.975c3.476,0,7.39,0.305,11.828,0.866
		C70.241,27.695,74.497,28.426,78.582,29.329z"/>
	<polygon fill="#542888" points="96.386,27.78 121.689,27.78 121.689,112.956 96.386,112.956 	"/>
	<polygon fill="#542888" points="203.206,27.78 203.206,43.523 165.612,43.523 165.612,62.411 198.219,62.411 198.219,76.604 
		165.612,76.604 165.612,96.433 203.974,96.433 203.974,112.956 141.26,112.956 141.26,27.78 	"/>
	<polygon fill="#542888" points="321.329,27.78 321.329,112.956 297.708,112.956 297.708,56.778 273.2,113.736 258.616,113.736 
		235.045,56.778 235.045,112.956 217.961,112.956 217.961,27.78 248.849,27.78 269.932,79.922 291.991,27.78 	"/>
	<polygon fill="#542888" points="402.812,27.78 402.812,43.523 365.422,43.523 365.422,62.411 398.03,62.411 398.03,76.604 
		365.422,76.604 365.422,96.433 403.579,96.433 403.579,112.956 340.866,112.956 340.866,27.78 	"/>
	<polygon fill="#542888" points="491.595,27.78 491.595,112.956 464.757,112.956 434.639,58.326 434.639,112.956 417.566,112.956 
		417.566,27.78 445.187,27.78 474.525,81.471 474.525,27.78 	"/>
</g>
</svg>
