<?xml version="1.0" encoding="utf-8"?>
<!-- Generator: Adobe Illustrator 16.0.0, SVG Export Plug-In . SVG Version: 6.00 Build 0)  -->
<!DOCTYPE svg PUBLIC "-//W3C//DTD SVG 1.1//EN" "http://www.w3.org/Graphics/SVG/1.1/DTD/svg11.dtd">
<svg version="1.1"
	 id="svg2" xmlns:sodipodi="http://sodipodi.sourceforge.net/DTD/sodipodi-0.dtd" xmlns:cc="http://creativecommons.org/ns#" xmlns:svg="http://www.w3.org/2000/svg" xmlns:dc="http://purl.org/dc/elements/1.1/" xmlns:rdf="http://www.w3.org/1999/02/22-rdf-syntax-ns#" xmlns:inkscape="http://www.inkscape.org/namespaces/inkscape" inkscape:version="0.91 r13725" inkscape:export-ydpi="90" inkscape:export-filename="C:\Users\Daijin\Desktop\Deloitte.png" sodipodi:docname="Deloitte_logo_2016.svg" inkscape:export-xdpi="90"
	 xmlns="http://www.w3.org/2000/svg" xmlns:xlink="http://www.w3.org/1999/xlink" x="0px" y="0px" width="885.829px"
	 height="165.617px" viewBox="17.087 17.191 885.829 165.617" enable-background="new 17.087 17.191 885.829 165.617"
	 xml:space="preserve">
<sodipodi:namedview  units="px" id="base" inkscape:zoom="0.6636812" borderopacity="1.0" inkscape:cx="300.28476" bordercolor="#666666" pagecolor="#ffffff" fit-margin-left="10" inkscape:cy="100" fit-margin-top="10" showgrid="false" inkscape:current-layer="g3359" inkscape:pageopacity="0" inkscape:pageshadow="2" fit-margin-right="10" inkscape:document-units="px" fit-margin-bottom="10" inkscape:window-y="-8" inkscape:window-x="-8" inkscape:window-height="1017" inkscape:window-width="1920" inkscape:window-maximized="1">
	</sodipodi:namedview>
<g id="layer1" transform="translate(-2521.9698,-654.34261)" inkscape:label="Layer 1" inkscape:groupmode="layer">
	<g id="g3359" transform="matrix(3.0676446,0,0,3.0676446,-6165.655,-2195.369)">
		<g id="g3371" transform="matrix(1.7716542,0,0,1.7716542,-2301.0501,-745.37663)">
			<path id="path3356" inkscape:connector-curvature="0" fill="#552988" d="M3054.828,974.386c0-2.385,1.936-4.32,4.32-4.32
				c2.385,0,4.319,1.935,4.319,4.32c0,2.385-1.934,4.319-4.319,4.319C3056.764,978.705,3054.828,976.771,3054.828,974.386"/>
			<path id="path3360" inkscape:connector-curvature="0" fill="#552988" d="M2917.055,962.946c0-2.736-0.529-4.766-1.586-6.089
				c-1.059-1.321-2.663-1.981-4.819-1.981h-2.294v16.732h1.755c2.395,0,4.15-0.71,5.268-2.135
				C2916.495,968.051,2917.055,965.874,2917.055,962.946 M2925.235,962.66c0,4.985-1.34,8.826-4.02,11.522
				c-2.68,2.698-6.448,4.046-11.304,4.046h-9.436v-29.871h10.095c4.683,0,8.298,1.226,10.845,3.678
				C2923.961,954.488,2925.235,958.028,2925.235,962.66"/>
			<path id="path3362" inkscape:connector-curvature="0" fill="#552988" d="M2951.373,978.229h7.509v-29.996h-7.509V978.229z"/>
			<path id="path3366" inkscape:connector-curvature="0" fill="#552988" d="M2969.43,967.04c0,1.912,0.25,3.371,0.749,4.374
				c0.5,1.004,1.337,1.505,2.515,1.505c1.165,0,1.989-0.501,2.469-1.505c0.48-1.003,0.719-2.461,0.719-4.374
				c0-1.903-0.242-3.338-0.729-4.306c-0.488-0.971-1.319-1.458-2.498-1.458c-1.153,0-1.976,0.484-2.476,1.446
				C2969.68,963.686,2969.43,965.125,2969.43,967.04 M2983.524,967.04c0,3.644-0.955,6.486-2.87,8.524
				c-1.914,2.039-4.593,3.059-8.036,3.059c-3.302,0-5.931-1.042-7.883-3.127c-1.954-2.085-2.93-4.903-2.93-8.455
				c0-3.633,0.956-6.455,2.871-8.468c1.915-2.013,4.6-3.019,8.057-3.019c2.136,0,4.026,0.466,5.664,1.398
				c1.639,0.931,2.904,2.265,3.792,4.003C2983.08,962.689,2983.524,964.719,2983.524,967.04"/>
			<path id="path3370" inkscape:connector-curvature="0" fill="#552988" d="M2986.506,978.229h7.51v-11.48v-10.801h-7.51V978.229z"
				/>
			<path id="path3372" inkscape:connector-curvature="0" fill="#552988" d="M2986.506,953.253h7.51v-5.021h-7.51V953.253z"/>
			<path id="path3376" inkscape:connector-curvature="0" fill="#552988" d="M3009.231,972.546c1.014,0,2.221-0.258,3.63-0.769v5.606
				c-1.012,0.445-1.975,0.764-2.89,0.953c-0.915,0.191-1.989,0.286-3.218,0.286c-2.521,0-4.339-0.634-5.455-1.899
				c-1.111-1.265-1.669-3.208-1.669-5.829v-9.185H2997v-5.76h2.63v-5.69l7.567-1.316v7.006h4.791v5.76h-4.791v8.672
				C3007.197,971.825,3007.876,972.546,3009.231,972.546"/>
			<path id="path3380" inkscape:connector-curvature="0" fill="#552988" d="M3026.612,972.546c1.014,0,2.221-0.258,3.63-0.769v5.606
				c-1.011,0.445-1.975,0.764-2.89,0.953c-0.917,0.191-1.986,0.286-3.218,0.286c-2.521,0-4.339-0.634-5.452-1.899
				c-1.114-1.265-1.671-3.208-1.671-5.829v-9.185h-2.631v-5.76h2.631v-5.776l7.566-1.23v7.006h4.794v5.76h-4.794v8.672
				C3024.577,971.825,3025.256,972.546,3026.612,972.546"/>
			<path id="path3384" inkscape:connector-curvature="0" fill="#552988" d="M3039.718,964.326c0.103-1.22,0.451-2.114,1.046-2.685
				c0.598-0.57,1.335-0.855,2.218-0.855c0.962,0,1.728,0.32,2.295,0.965c0.571,0.641,0.868,1.5,0.892,2.575L3039.718,964.326
				L3039.718,964.326z M3050.308,958.181c-1.785-1.75-4.317-2.626-7.594-2.626c-3.444,0-6.094,1.006-7.951,3.019
				c-1.856,2.013-2.785,4.9-2.785,8.663c0,3.644,1.004,6.454,3.006,8.426c2.004,1.972,4.817,2.96,8.441,2.96
				c1.74,0,3.238-0.119,4.493-0.355c1.247-0.234,2.455-0.656,3.626-1.266l-1.154-5.021c-0.852,0.348-1.661,0.615-2.426,0.791
				c-1.105,0.256-2.317,0.385-3.637,0.385c-1.448,0-2.59-0.354-3.428-1.061c-0.837-0.709-1.284-1.686-1.335-2.931h13.423v-3.421
				C3052.986,962.451,3052.094,959.93,3050.308,958.181"/>
			<path id="path3388" inkscape:connector-curvature="0" fill="#552988" d="M2935.201,964.326c0.103-1.22,0.451-2.114,1.046-2.685
				c0.596-0.57,1.335-0.855,2.219-0.855c0.96,0,1.725,0.32,2.294,0.965c0.571,0.641,0.867,1.5,0.894,2.575L2935.201,964.326
				L2935.201,964.326z M2945.792,958.181c-1.786-1.75-4.317-2.626-7.595-2.626c-3.445,0-6.094,1.006-7.95,3.019
				c-1.856,2.013-2.786,4.9-2.786,8.663c0,3.644,1.002,6.454,3.008,8.426c2.002,1.972,4.816,2.96,8.44,2.96
				c1.74,0,3.238-0.119,4.492-0.355c1.248-0.234,2.455-0.656,3.627-1.266l-1.155-5.021c-0.851,0.348-1.661,0.615-2.425,0.791
				c-1.107,0.256-2.319,0.385-3.639,0.385c-1.446,0-2.59-0.354-3.427-1.061c-0.839-0.709-1.284-1.686-1.335-2.931h13.423v-3.421
				C2948.469,962.451,2947.577,959.93,2945.792,958.181"/>
		</g>
	</g>
</g>
</svg>
