<?xml version="1.0" encoding="utf-8"?>
<!-- Generator: Adobe Illustrator 16.0.0, SVG Export Plug-In . SVG Version: 6.00 Build 0)  -->
<!DOCTYPE svg PUBLIC "-//W3C//DTD SVG 1.1//EN" "http://www.w3.org/Graphics/SVG/1.1/DTD/svg11.dtd">
<svg version="1.1"
	 id="Layer_1" xmlns:dc="http://purl.org/dc/elements/1.1/" xmlns:rdf="http://www.w3.org/1999/02/22-rdf-syntax-ns#" xmlns:cc="http://creativecommons.org/ns#"
	 xmlns="http://www.w3.org/2000/svg" xmlns:xlink="http://www.w3.org/1999/xlink" x="0px" y="0px" width="1177.92px"
	 height="261.782px" viewBox="6.316 290.054 1177.92 261.782" enable-background="new 6.316 290.054 1177.92 261.782"
	 xml:space="preserve">
<path fill="#542888" d="M364.664,363.275v115.276h26.253v-66.718l29.608,66.718h27.043l29.017-67.113v67.113h25.464V363.275h-29.411
	l-38.294,86.26l-38.887-86.26H364.664z M564.425,363.275L513.3,478.552h29.807l9.672-22.897h60.205l10.265,22.897h29.411
	l-51.52-115.276H564.425z M664.503,363.275v115.276h110.343v-23.095h-83.892V431.77h71.653v-22.503h-71.653V386.37h83.694v-23.095
	H664.503L664.503,363.275z M796.164,363.275v115.276h27.042v-39.28h30.398l25.464,39.28h29.609l-26.846-40.268
	c0.916,0,1.902,0.038,2.764,0c15.302,0,23.095-8.062,23.095-16.976v-38.689c0-12.222-7.043-19.344-19.345-19.344H796.164
	L796.164,363.275z M948.156,363.275c-9.941,0-18.16,7.406-18.16,17.765v34.347c0,9.72,7.54,16.581,17.962,16.581h65.337v23.687
	h-57.046v-8.882h-26.845v15.001c0,10.028,5.842,16.977,17.765,16.977h9.08h65.731c11.63,0,17.766-6.948,17.766-18.16v-32.768
	c0-12.246-8.749-18.752-18.357-18.752h-65.14v-22.7h57.046v9.08h26.451v-13.62c0-10.88-6.894-18.555-16.977-18.555H948.156z
	 M1065.406,363.275v115.474h27.438v-52.506l53.099,52.506h38.294l-64.35-61.783l61.981-53.691h-36.912l-52.112,46.19v-46.19
	L1065.406,363.275L1065.406,363.275z M582.585,384.988l21.318,48.953h-42.044L582.585,384.988z M823.207,386.37h57.836v29.806
	h-57.836V386.37z"/>
<g>
	<path fill="#542888" d="M224.546,290.054H36.162c-16.486,0-29.846,13.359-29.846,29.846v202.091
		c0,16.486,13.359,29.846,29.846,29.846h188.384c16.479,0,29.838-13.359,29.838-29.846V319.9
		C254.384,303.414,241.024,290.054,224.546,290.054z M240.584,448.465h-78.522l17.465,76.549l-0.213,0.11l-48.961-61.389
		l-48.961,61.389l-0.221-0.103l17.473-76.557H20.121l-0.057-0.245l70.745-34.069l-48.961-61.39l0.158-0.197l70.745,34.07
		l17.474-76.549h0.252l17.474,76.549l70.745-34.07l0.149,0.197l-48.953,61.39h0.003l70.745,34.069L240.584,448.465z"/>
</g>
</svg>
