<?xml version="1.0" encoding="utf-8"?>
<!-- Generator: Adobe Illustrator 16.0.0, SVG Export Plug-In . SVG Version: 6.00 Build 0)  -->
<!DOCTYPE svg PUBLIC "-//W3C//DTD SVG 1.1//EN" "http://www.w3.org/Graphics/SVG/1.1/DTD/svg11.dtd">
<svg version="1.1" id="Layer_1" xmlns="http://www.w3.org/2000/svg" xmlns:xlink="http://www.w3.org/1999/xlink" x="0px" y="0px"
	 width="1182.989px" height="196.274px" viewBox="3.78 322.746 1182.989 196.274"
	 enable-background="new 3.78 322.746 1182.989 196.274" xml:space="preserve">
<g>
	<path fill="#542888" d="M977.179,365.713c-0.42,1.47-12.601,68.673-12.811,69.934h-22.892c0.42-1.471,11.551-59.434,11.551-59.434
		h-0.84c0,0-22.262,54.394-24.361,59.434h-22.681c0-1.261-2.101-59.434-2.101-59.434h-0.84c0,0-10.291,58.173-10.501,59.434h-22.891
		c0.42-1.471,13.65-68.674,13.65-69.934h38.222c0,1.26,1.261,40.532,1.261,40.532h0.84c0,0,14.7-36.542,16.381-40.532H977.179
		L977.179,365.713z"/>
	<path fill="#542888" d="M629.822,435.436c0-1.261-2.94-68.674-3.15-69.934H587.19c-0.421,0.84-29.192,68.043-30.032,69.934h23.521
		c0.42-0.841,6.09-15.121,6.09-15.121h18.481c0,0,0,13.86,0,15.121H629.822z M592.02,407.505l0.42-0.84
		c2.1-5.251,11.971-30.452,11.971-30.452h0.84l0,0c0,0,0.21,20.791,0.21,30.872v0.63L592.02,407.505L592.02,407.505z"/>
	<path fill="#542888" d="M1177.739,396.584c5.46-3.149,9.03-9.45,9.03-15.961c0-0.42,0-0.84,0-1.26
		c-0.42-5.88-3.359-9.66-8.609-11.971c-4.201-1.89-9.871-1.89-14.701-2.1h-36.962c-0.21,1.05-12.811,68.463-13.23,69.934h24.361
		c0.21-1.051,5.25-28.981,5.25-28.981h2.101c1.47,0,4.619,0,6.51,3.149c0.84,1.261,1.05,2.73,1.26,3.78
		c0.21,1.681,0.21,3.36,0.21,4.62c0,0.841,0,1.891,0,2.73l-0.21,4.62c0,2.521,0,4.2,0,5.04v0.841c0.21,2.939,1.26,3.78,1.891,4.2
		h26.041c-0.63-1.051-1.26-2.311-1.26-5.251v-3.359v-7.351l-0.21-4.2c-0.42-6.301-3.57-10.081-7.561-12.601
		c-1.68-1.261-2.94-1.261-4.41-1.681h-0.42v-1.26C1169.339,399.314,1174.17,398.684,1177.739,396.584z M1156.738,393.854
		c-2.31,2.1-5.46,2.31-8.4,2.31h-3.78l3.78-20.161h0.42h2.94h0.21c2.73,0.21,7.561,0.42,7.98,6.511
		C1160.518,385.664,1159.469,391.334,1156.738,393.854z"/>
	<path fill="#542888" d="M1109.066,365.713c-0.21,1.26-2.521,12.811-2.73,13.65h-23.521l-2.52,13.021h21.631
		c-0.21,1.261-2.311,12.811-2.521,13.651h-21.631l-2.94,15.54h25.201c-0.42,1.261-2.52,12.811-2.729,13.651h-49.563
		c0.42-1.471,13.021-68.674,13.23-69.934L1109.066,365.713L1109.066,365.713z"/>
	<path fill="#542888" d="M1043.963,365.713c-0.42,1.26-2.521,12.811-2.73,13.65h-23.73l-2.311,13.021h21.631
		c-0.21,1.261-2.31,12.811-2.52,13.651h-21.842l-2.939,15.54h25.201c-0.21,1.261-2.311,12.811-2.521,13.651h-49.563
		c0.42-1.471,13.021-68.674,13.23-69.934L1043.963,365.713L1043.963,365.713z"/>
	<path fill="#542888" d="M854.323,396.584c5.46-3.149,9.03-9.45,9.03-15.961c0-0.42,0-0.84,0-1.26c-0.42-5.88-3.15-9.66-8.61-11.971
		c-4.2-1.89-8.61-1.89-13.65-2.1h-36.962c-0.21,1.05-12.811,68.463-13.021,69.934h24.361c0.21-1.051,5.46-28.981,5.46-28.981h2.1
		c1.471,0,4.621,0,6.511,3.149c0.84,1.261,1.05,2.73,1.05,3.78c0.21,1.681,0.21,3.15,0.21,4.62c0,1.051,0,1.891,0,2.73v4.62
		c-0.21,2.521-0.21,4.2-0.21,5.04v0.841c0.21,2.939,1.261,3.78,1.891,4.2h24.991c-0.63-1.051-1.261-2.311-1.47-5.251
		c0,0,0-3.569,0-3.359v-7.351l-0.211-4.2c-0.42-6.301-2.31-10.081-6.3-12.601c-1.891-1.261-3.15-1.261-4.62-1.681h-0.42v-1.26
		C846.972,399.314,850.753,398.684,854.323,396.584z M834.582,393.854c-2.31,2.1-5.46,2.31-8.19,2.31h-3.78l3.78-20.161h0.63h2.94
		h0.21c2.73,0.21,7.561,0.42,7.98,6.511C838.362,385.664,837.102,391.334,834.582,393.854z"/>
	<path fill="#542888" d="M787.54,365.713c-0.21,1.26-2.521,12.811-2.73,13.65h-23.73l-2.311,13.021h21.631
		c-0.21,1.261-2.52,12.811-2.729,13.651h-21.632l-2.939,15.54H778.3c-0.42,1.261-2.521,12.811-2.73,13.651h-49.563
		c0.42-1.471,13.021-68.674,13.23-69.934L787.54,365.713L787.54,365.713z"/>
	<path fill="#542888" d="M726.846,365.713c-0.63,1.68-25.831,68.883-26.041,69.934h-39.272c0-1.261-2.1-68.674-2.1-69.934h24.571
		c-0.21,6.09-1.26,55.232-1.26,55.232h0.84c0,0,17.431-50.822,18.9-55.232H726.846L726.846,365.713z"/>
	<path fill="#542888" d="M550.438,396.584c5.46-3.149,8.82-9.45,8.82-15.961c0-0.42,0-0.84,0-1.26c-0.42-5.88-3.15-9.66-8.61-11.971
		c-4.2-1.89-8.82-1.89-13.651-2.1h-36.962c-0.21,1.05-12.811,68.463-13.23,69.934h24.361c0.21-1.051,5.25-28.981,5.25-28.981h2.101
		c1.47,0,4.62,0,6.511,3.149c0.84,1.261,1.05,2.73,1.26,3.78c0.21,1.681,0.21,3.15,0.21,4.62c0,0.841,0,1.891,0,2.73v4.62
		c0,2.311-0.21,3.99-0.21,5.04c0,0.421,0,0.631,0,0.631c0.21,2.939,1.26,3.78,1.68,4.2h24.991c-0.63-1.051-1.26-2.311-1.26-5.251
		v-3.359v-7.351l-0.21-4.2c-0.42-6.301-2.311-10.081-6.301-12.601c-1.68-1.261-2.939-1.261-4.62-1.681h-0.42v-1.26
		C543.088,399.314,546.868,398.684,550.438,396.584z M530.697,393.854c-2.521,2.31-6.301,2.31-8.4,2.31h-3.78l3.78-20.161h0.63h2.94
		h0.21c2.729,0.21,7.561,0.42,7.98,6.511C534.267,385.664,533.217,391.334,530.697,393.854z"/>
	<path fill="#542888" d="M400.28,386.294c-0.42-6.301-2.1-14.491-11.341-18.271c-4.62-2.1-9.66-2.1-18.271-2.31h-31.292
		c-0.21,1.05-12.811,68.463-13.021,69.934h37.382c3.15,0,6.511,0,9.451-0.42c14.7-2.101,19.74-11.131,22.891-20.581
		c2.521-7.561,4.2-17.431,4.2-24.991C400.49,388.183,400.28,387.134,400.28,386.294z M376.549,391.754v0.42
		c-0.42,3.57-1.05,6.931-1.47,10.291v0.21c-0.84,4.41-3.15,17.431-10.08,20.791c-2.521,1.26-5.461,1.26-8.61,1.47h-3.15l9.24-48.933
		h0.42h2.94c4.83,0.21,10.29,0.21,11.13,8.61C376.759,387.134,376.549,389.444,376.549,391.754z"/>
	<path fill="#542888" d="M483.024,365.713c-0.42,1.47-8.19,43.262-8.19,43.262c-1.26,6.721-2.939,14.491-6.93,19.321
		c-7.561,9.03-21.842,9.03-26.672,9.03c-9.45,0-15.961-1.26-21.211-3.78c-6.091-3.36-9.24-7.771-9.66-14.7c0-0.63,0-1.261,0-1.891
		c0-2.939,0.42-5.88,1.05-8.61l0.21-1.05c0,0,6.931-36.752,7.771-41.582h24.991c-0.42,1.47-8.4,45.362-8.4,45.362v0.42
		c-0.63,3.99-1.05,5.88-1.05,7.141c0,0.63,0,1.26,0.21,1.68c0.63,2.311,2.729,3.78,5.25,3.78c3.78,0,5.881-2.311,6.511-2.94
		c1.68-2.1,2.1-5.04,3.149-9.66c0,0,7.561-40.532,8.611-45.782H483.024L483.024,365.713z"/>
</g>
<path fill="#542888" d="M133.567,323.081c-22.892-1.051-46.203,0.42-69.514,3.779L3.78,383.563L147.427,519.02l143.647-135.457
	C256.423,348.492,202.24,325.81,133.567,323.081"/>
<path fill="#FFFFFF" d="M38.432,351.011l-16.801,15.751c61.322,21.631,97.444,68.044,97.654,125.586l28.142,26.462l28.142-26.672
	C174.939,422.416,122.856,367.392,38.432,351.011 M258.733,414.015l-38.222,36.121c-18.481-61.323-79.595-105.005-169.269-111.096
	l8.61-8.19c9.45-0.42,18.69-0.42,28.142,0C169.058,334.001,229.122,365.923,258.733,414.015"/>
</svg>
