<?xml version="1.0" encoding="utf-8"?>
<!-- Generator: Adobe Illustrator 16.0.0, SVG Export Plug-In . SVG Version: 6.00 Build 0)  -->
<!DOCTYPE svg PUBLIC "-//W3C//DTD SVG 1.1//EN" "http://www.w3.org/Graphics/SVG/1.1/DTD/svg11.dtd">
<svg version="1.1" id="Layer_1" xmlns="http://www.w3.org/2000/svg" xmlns:xlink="http://www.w3.org/1999/xlink" x="0px" y="0px"
	 width="217.819px" height="79.272px" viewBox="12.077 35.118 217.819 79.272"
	 enable-background="new 12.077 35.118 217.819 79.272" xml:space="preserve">
<g>
	<rect x="33.828" y="87.503" fill="#542888" width="0.654" height="1.813"/>
	<path fill="#542888" d="M30.581,88.376c0.292-0.202,0.675-0.162,0.61,0.214c0,0-0.063,0.08-0.424,0.08c0,0,0.016,0.129,0.048,0.168
		c0,0-0.084,0.102-0.026,0.197c0,0,0.321-0.161,0.497-0.114c0.074,0.179,0.008,0.417-0.508,0.5
		c-0.646,0.103-0.997,0.286-1.067,0.988c0.502-0.038,0.818,0.2,1.207,0.387c0.586,0.272,1.232-0.108,1.232-0.11
		c-0.142-0.129-0.175-0.502,0.058-0.679c0.123,0.237,0.387,0.267,0.557,0.142c0.018-0.012,0.015-0.033,0-0.041
		c-0.284-0.153-0.315-0.414-0.183-0.691c0.148,0.215,0.473,0.049,0.507-0.135c0.002-0.01-0.008-0.014-0.019-0.008
		c-0.218,0.068-0.318-0.17-0.318-0.334c0-0.145,0.111-0.666-0.125-1.019c0.068-0.114,0.479-0.292,0.608-0.313
		c0.039-0.006,0.041-0.037-0.003-0.057c-0.172-0.074-0.567,0.008-0.635-0.076c0,0-0.072-0.57-0.097-0.584
		c-0.025-0.016-0.536,0.252-0.536,0.252c-0.107-0.006-0.266-0.377-0.425-0.479c-0.04-0.025-0.065-0.005-0.048,0.031
		c0.056,0.117,0.144,0.558,0.09,0.679c-0.454-0.041-0.61,0.132-0.637,0.257c-0.11,0.027-0.539,0.268-0.539,0.355
		c0,0.027,0.025,0.091,0.065,0.111C30.467,88.098,30.445,88.257,30.581,88.376z M31.39,87.795c-0.141,0.275-0.332,0.294-0.476,0.143
		C30.904,87.844,31.094,87.777,31.39,87.795z"/>
	<path fill="#154273" d="M21.841,85.193c-0.021-0.229-0.251-0.283-0.785-0.256C21.158,85.417,21.582,85.482,21.841,85.193z"/>
	<path fill="#542888" d="M27.581,89.473l-0.267,0.365c-0.058,0.079,0.221,0.283,0.279,0.204l0.35-0.478c0,0,1.126,0.604,1.408,0.776
		c0.017-0.235,0.102-0.454,0.237-0.634c-0.349-0.098-1.055-0.326-1.055-0.326c-0.034,0.057-0.153,0.104-0.234,0.104
		c-0.181,0-0.302-0.203-0.333-0.271c-0.003-0.008-0.002-0.013,0.009-0.008c0.048,0.021,0.174,0.076,0.212,0.023l0.143-0.197
		l0.318,0.15l0.149-0.211l-0.27-0.089l1.279-1.797c0.031-0.045,0.021-0.312,0.01-0.41c-0.097,0.021-0.354,0.095-0.387,0.14
		l-1.301,1.781l-0.169-0.229l-0.151,0.209l0.242,0.254l-0.12,0.164c-0.274-0.162-0.52,0.036-0.602,0.123
		c-0.008,0.01-0.005,0.014,0.004,0.012c0.079-0.021,0.38-0.086,0.379,0.115c-0.332-0.101-0.464,0.122-0.498,0.194
		c-0.008,0.014,0,0.018,0.008,0.016C27.28,89.438,27.492,89.38,27.581,89.473z"/>
	<path fill="#154273" d="M40.704,84.938c-0.535-0.027-0.764,0.025-0.786,0.256C40.177,85.482,40.601,85.417,40.704,84.938z"/>
	<path fill="#154273" d="M29.76,88.368c-0.007-0.032-0.035-0.032-0.045,0.003c-0.075,0.271,0.124,0.457,0.307,0.457
		c0.278,0,0.298-0.2,0.734-0.258c0.038-0.004,0.039-0.055,0.005-0.064c-0.024-0.007-0.254-0.031-0.463,0.021
		C29.958,88.613,29.788,88.486,29.76,88.368z"/>
	<path fill="#542888" d="M31.206,93.164c0.02-0.006,0.017-0.025-0.005-0.021c-0.184,0.037-0.428-0.252-0.182-0.552
		c-0.163-0.114-0.366-0.2-0.524-0.2c-0.715,0-1.252,0.779-1.353,0.893c-0.092,0.104-0.279,0.283-0.393,0.125
		c-0.014-0.021-0.022-0.02-0.022,0.007c0,0.321,0.262,0.323,0.364,0.267c0.01-0.006,0.017-0.004,0.015,0.01
		c-0.041,0.33,0.164,0.885,0.169,0.898c-0.029,0.031-0.331,0.318-0.543,0.318c-0.143,0-0.169-0.273-0.387-0.273
		c-0.068,0-0.135,0.032-0.205,0.106c-0.008,0.01-0.005,0.022,0.015,0.022c0.166,0.008,0.262,0.106,0.225,0.254
		c-0.204-0.17-0.514-0.144-0.507,0.248c0,0.019,0.014,0.024,0.025,0.01c0.145-0.209,0.371-0.057,0.393-0.034
		c-0.15,0.022-0.408,0.194-0.177,0.51c0.009,0.013,0.015,0.009,0.016-0.005c0.005-0.068,0.039-0.238,0.243-0.238
		c0.216,0,0.36,0.191,0.525-0.009c0.065,0.265,0.344,0.239,0.423,0.226c0.007,0,0.012-0.008,0.003-0.013
		c-0.124-0.083-0.166-0.171-0.166-0.237c0-0.172,0.353-0.381,0.46-0.381c0.106,0,0.142,0.107,0.338,0.107
		c0.084,0,0.186-0.034,0.273-0.139c0.013-0.015,0.008-0.021-0.011-0.019c-0.243,0.056-0.384-0.174-0.384-0.588
		C29.836,93.663,30.259,93.521,31.206,93.164z"/>
	<path fill="#542888" d="M26.79,91.896l0.429,0.188l0.031-0.046l0.37,0.097c-0.098,0.104-0.061,0.248-0.044,0.301
		c0.002,0.006,0.011,0.01,0.017,0c0.033-0.053,0.15-0.205,0.359-0.197c0.015,0,0.016,0.006,0.007,0.011
		c-0.072,0.036-0.306,0.181-0.227,0.462c0.003,0.012,0.017,0.014,0.023,0.004c0.09-0.129,0.259-0.188,0.326-0.21l-0.066,0.499
		c0.385,0.107,0.803-0.146,0.844-0.583l-0.43-0.099c0.462-0.336,1.085-0.563,1.665-0.563c0.917,0,1.505,0.988,1.505,1.577
		c0,0.147-0.016,0.364-0.128,0.526c-0.17,0.246-0.3,0.191-0.36,0.131c-0.016-0.016-0.026-0.014-0.02,0.012
		c0.076,0.318,0.488,0.309,0.538,0.146c0.013-0.041,0.032-0.028,0.036-0.012c0.211,0.758,1.157-0.053,1.643,0.916
		c-0.021,0.01-0.263,0.137-0.402,0.051c-0.273-0.178-0.423-0.002-0.473,0.117c-0.008,0.018,0,0.022,0.014,0.021
		c0.301-0.062,0.421,0.128,0.438,0.183c-0.229-0.097-0.547,0.016-0.402,0.403c0.008,0.021,0.021,0.019,0.028-0.002
		c0.098-0.271,0.328-0.175,0.351-0.16c-0.134,0.063-0.326,0.325,0.007,0.547c0.013,0.011,0.024,0.005,0.021-0.012
		c-0.033-0.192,0.06-0.335,0.2-0.335c0.078,0,0.281,0.007,0.379-0.23c0.133,0.229,0.406,0.145,0.534,0.098
		c0.021-0.01,0.022-0.027-0.004-0.035c-0.174-0.051-0.405-0.172-0.213-0.307c0,0,0.365,0.135,0.502-0.222
		c0.008-0.021,0-0.032-0.019-0.021c-0.018,0.009-0.38,0.199-0.464-0.143c-0.056-0.23-0.09-0.611-0.279-0.695
		c0.206-0.086,0.279-0.256,0.118-0.479c-0.011-0.016-0.031-0.037-0.032-0.002c-0.026,0.521-1.112,0.088-1.138-0.641
		C33.239,93.387,34,93.202,34,92.434c0-0.74-0.714-1.064-0.714-1.422c0-0.25,0.215-0.312,0.323-0.312
		c0.293,0,0.626,0.351,0.688,0.634c0.003,0.016,0.02,0.02,0.032,0.003c0.103-0.151,0.122-0.387,0.036-0.458
		c-0.021-0.016,0-0.048,0.03-0.027c0.071,0.051,0.648-0.002,0.648-0.398c0-0.135-0.042-0.217-0.033-0.275
		c0.007-0.049-0.07-0.07-0.096-0.006c-0.032,0.083-0.092,0.29-0.376,0.29c-0.239,0-0.654-0.122-0.937-0.122
		c-0.536,0-0.731,0.402-0.731,0.684c0,0.625,0.655,0.742,0.655,1.342c0,0.445-0.63,0.588-1.077,0.166
		c-0.113-0.521-0.216-0.896-0.508-1.331c-1.161,0.372-1.389-0.363-2.016-0.363c-0.527,0-1.215,0.942-1.767,1.073l0.078-0.559
		l0.062-0.012l-0.016-0.462c0,0-0.125,0.3-0.143,0.345c-0.015,0.035-0.036,0.032-0.048,0.006c-0.059-0.139-0.177-0.408-0.177-0.408
		s-0.007,0.367-0.009,0.445c0,0.027-0.021,0.034-0.038,0.012l-0.278-0.406c0,0,0.068,0.316,0.105,0.486
		c0.005,0.022-0.015,0.033-0.032,0.017l-0.379-0.356c0,0,0.105,0.256,0.197,0.485c0.009,0.022-0.009,0.038-0.031,0.021
		c-0.07-0.047-0.416-0.277-0.416-0.277s0.163,0.236,0.283,0.414c0.014,0.02,0.003,0.04-0.025,0.029
		c-0.249-0.094-0.424-0.157-0.424-0.157s0.153,0.149,0.328,0.321c0.019,0.018,0.017,0.041-0.02,0.041
		C27.106,91.895,26.79,91.896,26.79,91.896z"/>
	<path fill="#542888" d="M12.077,114.391h37.605V35.118H12.077V114.391z M24.916,102.975c0,1.428-2.352,0.088-4.622-0.058
		c-1.885-0.123-2.411,0.358-2.411,0.358l0.346-1.906c0.019-0.104,0.426-0.396,1.725-0.396c1.564,0,2.348,0.301,2.634,0.4v1
		c0,0.229,0.114,0.34,0.288,0.41c0-0.086,0.261-0.65,2.04-0.65V102.975z M22.808,95.426c-0.25-0.215-1.352-0.632-1.958-0.863
		c-0.032-0.013-0.029-0.035,0-0.041c0.167-0.047,0.331-0.148,0.353-0.354c0.015-0.129-0.013-0.306-0.158-0.39
		c0.299-0.324,0.893-0.551,1.206-0.551c1.199,0,2.216,1.623,2.703,1.623c0.061,0,0.14-0.021,0.211-0.125
		c0.017-0.022,0.033-0.024,0.033,0.012c0,0.49-0.26,0.535-0.399,0.535c-0.078,0-0.162-0.024-0.222-0.06
		c-0.016-0.009-0.024-0.001-0.024,0.017c0,0.02,0.004,0.068,0.004,0.103c0,0.578-0.604,1.21-0.604,1.21
		c0.272,0.284,0.955,0.762,1.146,0.508c0.082-0.104,0.439-0.746,0.917-0.234c0.017,0.021,0.005,0.041-0.027,0.041
		c-0.27,0-0.479,0.184-0.406,0.461c0.387-0.309,0.921-0.258,0.921,0.455c0,0.028-0.028,0.035-0.042,0.015
		c-0.255-0.366-0.659-0.118-0.718-0.065c0.271,0.041,0.741,0.358,0.328,0.922c-0.018,0.025-0.034,0.021-0.036,0
		c-0.042-0.369-0.268-0.434-0.452-0.434c-0.378,0-0.655,0.35-0.944-0.021c-0.104,0.483-0.641,0.438-0.771,0.416
		c-0.017-0.002-0.019-0.017-0.008-0.023c0.169-0.109,0.3-0.262,0.3-0.43c0-0.299-0.574-0.691-0.848-0.691
		c-0.163,0-0.28,0.195-0.595,0.195c-0.163,0-0.353-0.066-0.509-0.264c-0.012-0.016-0.005-0.027,0.014-0.023
		c0.13,0.021,0.485,0.107,0.65-0.531C23.046,96.165,23.104,95.682,22.808,95.426z M23.027,102.012
		c-0.039,0.043-0.055-0.002-0.055-0.035l-0.001-1.938c0-0.564,3.83-0.895,7.908-0.895s7.908,0.33,7.908,0.895l-0.001,1.938
		c0,0.033-0.016,0.078-0.055,0.035c-0.485-0.553-4.197-0.744-7.852-0.744C27.224,101.268,23.513,101.459,23.027,102.012z
		 M35.769,96.854c-0.032,0-0.043-0.021-0.027-0.041c0.478-0.512,0.835,0.131,0.917,0.234c0.191,0.254,0.874-0.225,1.147-0.508
		c0,0-0.604-0.633-0.604-1.21c0-0.033,0.003-0.083,0.003-0.103c0-0.018-0.008-0.024-0.023-0.017c-0.06,0.034-0.145,0.06-0.223,0.06
		c-0.138,0-0.398-0.045-0.398-0.535c0-0.037,0.017-0.034,0.033-0.012c0.071,0.104,0.151,0.125,0.211,0.125
		c0.487,0,1.504-1.623,2.703-1.623c0.313,0,0.906,0.227,1.206,0.551c-0.146,0.084-0.172,0.261-0.158,0.39
		c0.022,0.206,0.186,0.308,0.353,0.354c0.03,0.006,0.032,0.028,0,0.041c-0.606,0.231-1.707,0.648-1.957,0.863
		c-0.296,0.256-0.238,0.739-0.067,1.407c0.165,0.64,0.52,0.553,0.65,0.53c0.019-0.002,0.025,0.01,0.014,0.025
		c-0.157,0.195-0.347,0.262-0.51,0.262c-0.314,0-0.432-0.194-0.595-0.194c-0.274,0-0.848,0.394-0.848,0.692
		c0,0.166,0.131,0.318,0.3,0.429c0.011,0.008,0.008,0.021-0.008,0.024c-0.13,0.021-0.667,0.066-0.771-0.416
		c-0.289,0.369-0.565,0.021-0.944,0.021c-0.184,0-0.41,0.063-0.452,0.435c-0.002,0.02-0.018,0.024-0.036,0
		c-0.413-0.563,0.057-0.882,0.328-0.923c-0.059-0.053-0.462-0.301-0.717,0.065c-0.014,0.021-0.042,0.015-0.042-0.016
		c0-0.713,0.535-0.763,0.922-0.453C36.248,97.037,36.039,96.854,35.769,96.854z M41.466,102.917
		c-2.27,0.146-4.622,1.483-4.622,0.058v-0.842c1.779,0,2.04,0.564,2.04,0.65c0.174-0.07,0.289-0.184,0.289-0.41v-1
		c0.286-0.102,1.07-0.4,2.633-0.4c1.3,0,1.708,0.295,1.726,0.396l0.346,1.906C43.876,103.275,43.35,102.794,41.466,102.917z
		 M39.969,84.643c0.047-0.231,0.345-0.566,1.246-0.447c0.426,0.054,0.733-0.059,0.589-0.307c-0.024-0.041,0.052-0.05,0.092-0.009
		c0.099,0.099,0.234,0.377-0.139,0.563c-0.414,0.209-0.438,0.623-0.441,0.684c-0.007,0.088,0.099,0.098,0.123,0.01
		c0.19-0.701,1.146-0.851,1.712-0.48c-0.034,0.375-0.437,0.623-0.657,0.623c-0.127,0-0.303-0.127-0.303-0.301
		c0-0.084-0.043-0.074-0.068-0.008c-0.094,0.25,0.274,0.764,0.822,0.449c0.558,0.559,0.335,1.244,0.279,1.497
		c-0.1,0.454,0.123,0.896,0.532,0.688c0.021-0.008,0.042-0.018,0.042,0.033c0,0.284-0.373,0.607-0.812,0.361
		c-0.058,0.081-0.675,0.88,0.273,1.188c0.041,0.015,0.056,0.056-0.007,0.08c-0.7,0.293-1.039-0.244-1.039-0.244
		c-0.352,0.806,0.188,1.252,0.188,1.252c-0.076,0.146-0.411,0.389-0.917,0.502c-0.193-0.104-0.463-0.301-0.575-0.604
		c0,0-0.137,0.352-0.013,0.688c-1.429,0.131-1.935-1.012-3.035-0.807c-0.032,0.006-0.047-0.015-0.047-0.049
		c0-0.703,0.432-1.992,1.794-2.253c1.359-0.263,0.993-0.819,0.993-0.819c-0.573-0.027-0.904,0.223-0.904,0.223
		C39.592,86.984,39.74,86.8,39.74,86.8c-0.055-0.065-0.086-0.3-0.086-0.3c0.646,0,0.815-0.139,0.815-0.139
		c0.098-0.383-0.167-0.924-1.125-0.346c-0.239-0.213-0.221-0.539-0.221-0.539c-0.072-0.033-0.118-0.146-0.118-0.195
		C39.005,85.122,39.772,84.693,39.969,84.643z M37.748,85.979c0.021-0.082,0.068-0.063,0.08-0.008
		c0.051,0.215,0.315,0.34,0.594,0.34c0.345,0,0.419-0.119,0.963-0.119c0.049,0,0.388,0,0.388,0.07c0,0.068-0.158,0.032-0.388,0.071
		c-0.522,0.09-0.729,0.353-1.096,0.353C37.955,86.686,37.615,86.46,37.748,85.979z M30.243,77.297c0.12,0,0.226,0.053,0.284,0.096
		c0.121,0.084,0.187,0.069,0.226,0.029c0.04-0.04,0.053-0.105-0.031-0.227c-0.041-0.059-0.093-0.164-0.093-0.283
		c0-0.206,0.135-0.311,0.251-0.311c0.116,0,0.251,0.104,0.251,0.311c0,0.119-0.052,0.227-0.094,0.283
		c-0.084,0.121-0.071,0.187-0.032,0.227c0.04,0.04,0.106,0.055,0.226-0.029c0.059-0.043,0.164-0.096,0.285-0.096
		c0.206,0,0.308,0.137,0.308,0.252c0,0.116-0.102,0.251-0.308,0.251c-0.121,0-0.226-0.051-0.285-0.094
		c-0.12-0.084-0.187-0.069-0.226-0.031c-0.039,0.039,0.019,0.453,0.065,0.779c0.341,0.071,0.506,0.346,0.506,0.505
		c0,0.41-0.439,0.646-0.697,0.785c-0.258-0.139-0.697-0.375-0.697-0.785c0-0.159,0.165-0.434,0.506-0.505
		c0.046-0.326,0.104-0.74,0.064-0.779c-0.039-0.038-0.105-0.053-0.226,0.031c-0.059,0.043-0.164,0.094-0.284,0.094
		c-0.207,0-0.309-0.135-0.309-0.251C29.933,77.434,30.037,77.297,30.243,77.297z M31.38,80.462c0,0.276-0.224,0.501-0.5,0.501
		s-0.501-0.225-0.501-0.501s0.225-0.5,0.501-0.5S31.38,80.186,31.38,80.462z M26.778,80.563c0.454,0,0.382,0.295,0.769,0.295
		c0.048,0,0.097-0.012,0.097,0.021c0,0.128-0.108,0.346-0.285,0.346c-0.237,0-0.242-0.236-0.418-0.236
		c-0.076,0-0.186,0.062-0.186,0.305c0,0.473,0.309,0.996,0.674,1.398c0.083-0.114,0.197-0.188,0.334-0.188
		c0.215,0,0.405,0.227,0.405,0.504c0,0.104-0.017,0.178-0.054,0.264c0.122,0.068,0.229,0.106,0.311,0.106
		c0.165,0,0.413-0.065,0.413-0.427c0-0.805-1.077-1.512-1.077-2.529c0-0.486,0.325-0.971,1.004-0.971
		c0.728,0,0.592,0.664,1.222,0.664c0.029,0,0.052,0.01,0.052,0.035c0,0.041-0.109,0.408-0.435,0.408
		c-0.349,0-0.447-0.603-0.755-0.603c-0.115,0-0.288,0.067-0.288,0.478c0,0.316,0.157,0.83,0.383,1.322
		c0.082-0.082,0.192-0.141,0.317-0.141c0.27,0,0.464,0.26,0.464,0.572c0,0.196-0.078,0.388-0.212,0.514
		c0.159,0.203,0.321,0.367,0.542,0.367c0.435,0,0.627-0.246,0.627-0.516c0-0.291-0.531-0.396-0.531-0.853
		c0-0.31,0.201-0.481,0.394-0.481c0.208,0,0.314,0.137,0.336,0.137c0.021,0,0.127-0.137,0.335-0.137
		c0.193,0,0.395,0.174,0.395,0.481c0,0.454-0.532,0.562-0.532,0.853c0,0.27,0.192,0.516,0.627,0.516c0.22,0,0.383-0.164,0.542-0.367
		c-0.134-0.126-0.211-0.316-0.211-0.514c0-0.313,0.194-0.572,0.464-0.572c0.125,0,0.236,0.059,0.318,0.141
		c0.226-0.492,0.383-1.006,0.383-1.322c0-0.41-0.172-0.478-0.288-0.478c-0.309,0-0.407,0.603-0.755,0.603
		c-0.326,0-0.435-0.367-0.435-0.408c0-0.025,0.023-0.035,0.052-0.035c0.63,0,0.495-0.664,1.222-0.664
		c0.679,0,1.004,0.484,1.004,0.971c0,1.02-1.078,1.727-1.078,2.529c0,0.359,0.249,0.427,0.413,0.427
		c0.081,0,0.189-0.038,0.311-0.106c-0.038-0.086-0.054-0.16-0.054-0.264c0-0.277,0.189-0.504,0.405-0.504
		c0.136,0,0.25,0.072,0.334,0.188c0.365-0.402,0.673-0.926,0.673-1.398c0-0.242-0.109-0.305-0.186-0.305
		c-0.176,0-0.181,0.236-0.418,0.236c-0.177,0-0.286-0.218-0.286-0.346c0-0.033,0.049-0.021,0.097-0.021
		c0.387,0,0.315-0.295,0.769-0.295c0.153,0,0.669,0.082,0.669,0.813c0,1.107-1.368,1.441-1.051,2.293
		c-0.581-0.084-0.574,0.48-0.584,1.493c0,0-1.131-0.384-3.136-0.384c-2.005,0-3.136,0.384-3.136,0.384
		c-0.011-1.013-0.004-1.577-0.585-1.493c0.318-0.852-1.05-1.186-1.05-2.293C26.108,80.645,26.625,80.563,26.778,80.563z
		 M23.932,85.971c0.011-0.055,0.058-0.074,0.08,0.008c0.133,0.481-0.208,0.707-0.541,0.707c-0.367,0-0.573-0.263-1.097-0.353
		c-0.23-0.039-0.388-0.003-0.388-0.071c0-0.07,0.338-0.07,0.388-0.07c0.544,0,0.618,0.119,0.964,0.119
		C23.617,86.311,23.881,86.186,23.932,85.971z M18.004,87.605c0.409,0.207,0.631-0.234,0.532-0.688
		c-0.056-0.253-0.278-0.938,0.279-1.497c0.547,0.313,0.916-0.199,0.822-0.449c-0.025-0.066-0.068-0.076-0.068,0.008
		c0,0.174-0.176,0.301-0.303,0.301c-0.22,0-0.624-0.248-0.657-0.623c0.566-0.369,1.522-0.221,1.712,0.48
		c0.023,0.088,0.129,0.078,0.123-0.01c-0.003-0.061-0.029-0.475-0.442-0.684c-0.372-0.188-0.236-0.465-0.138-0.563
		c0.04-0.041,0.116-0.032,0.092,0.009c-0.144,0.248,0.164,0.359,0.59,0.307c0.901-0.119,1.198,0.216,1.246,0.447
		c0.197,0.051,0.963,0.479,0.963,0.641c0,0.049-0.044,0.162-0.117,0.195c0,0,0.018,0.326-0.221,0.539
		c-0.958-0.58-1.225-0.039-1.125,0.344c0,0,0.169,0.14,0.814,0.14c0,0-0.031,0.233-0.085,0.3c0,0,0.148,0.186,0.043,0.355
		c0,0-0.331-0.248-0.904-0.223c0,0-0.366,0.559,0.993,0.82c1.363,0.262,1.794,1.549,1.794,2.253c0,0.034-0.015,0.054-0.046,0.048
		c-1.101-0.205-1.606,0.938-3.035,0.807c0.124-0.334-0.013-0.687-0.013-0.687c-0.113,0.304-0.383,0.499-0.575,0.604
		c-0.508-0.114-0.842-0.357-0.919-0.502c0,0,0.54-0.447,0.188-1.252c0,0-0.339,0.537-1.039,0.244
		c-0.062-0.025-0.048-0.066-0.006-0.08c0.947-0.309,0.33-1.106,0.273-1.188c-0.439,0.246-0.812-0.077-0.812-0.362
		C17.962,87.589,17.982,87.598,18.004,87.605z M14.662,88.57c-0.021-0.045,0.034-0.077,0.062-0.021
		c0.074,0.146,0.207,0.529,0.739,0.529c0.005,0,1.088,0.002,1.271,0.002c1.42,0,1.55,1.146,1.55,1.43c0,1.163-1.478,1.67-1.478,2.85
		c0,0.277,0.141,0.74,0.905,0.74c0.313,0,0.645-0.091,0.844-0.176c0,0,0.341-2.068,1.343-2.783c0,0,1.174,0.568,2.335-0.061
		c0.888-0.48,1.306-0.803,2.084-0.264c0.778,0.537,1.458,1.115,1.543,1.101l0.186-0.036v-4.648c-0.361-0.039-0.386,0.285-0.37,0.369
		c0.02,0.109,0.139,0.193-0.109,0.563c-0.02,0.025-0.048,0.016-0.051-0.016c-0.01-0.094-0.058-0.25-0.184-0.25
		c-0.122,0-0.674,0.416-1.146,0.889c0,0-0.271-0.818-0.922-1.071c0.369-0.057,1.963-0.442,1.963-1.141
		c0-0.233,0.263-0.287,0.435-0.272c0.007-0.021,0.268-0.641,0.754-0.316c0.026,0.017,0.019,0.054-0.009,0.062
		c-0.215,0.05-0.307,0.272-0.315,0.515c0.175-0.055,0.567-0.168,1.112-0.287v1.482h0.654v-1.611c0.834-0.15,1.884-0.281,3.022-0.281
		c2.346,0,4.324,0.555,4.789,0.697c-0.009-0.242-0.101-0.465-0.315-0.515c-0.028-0.008-0.035-0.045-0.009-0.062
		c0.486-0.323,0.747,0.295,0.755,0.316c0.171-0.015,0.434,0.039,0.434,0.272c0,0.696,1.594,1.084,1.963,1.141
		c-0.651,0.253-0.922,1.071-0.922,1.071c-0.473-0.473-1.026-0.889-1.147-0.889c-0.125,0-0.173,0.156-0.183,0.25
		c-0.003,0.031-0.032,0.041-0.051,0.016c-0.247-0.369-0.129-0.453-0.109-0.563c0.017-0.084-0.009-0.408-0.37-0.369v4.648
		l0.186,0.036c0.085,0.017,0.764-0.562,1.543-1.101c0.778-0.539,1.196-0.217,2.084,0.264c1.161,0.629,2.336,0.061,2.336,0.061
		c1.001,0.715,1.343,2.783,1.343,2.783c0.199,0.085,0.529,0.176,0.843,0.176c0.765,0,0.905-0.463,0.905-0.74
		c0-1.18-1.477-1.687-1.477-2.85c0-0.281,0.13-1.43,1.549-1.43c0.182,0,1.266-0.002,1.271-0.002c0.532,0,0.664-0.383,0.738-0.529
		c0.028-0.056,0.083-0.023,0.062,0.021c-0.041,0.097,0.061,0.244,0.061,0.541c0,0.472-0.278,0.756-0.794,0.756
		c-0.234,0-0.457-0.066-0.528-0.109c-0.048-0.027-0.074,0.018-0.051,0.045c0.226,0.262,0.244,0.754,0.151,0.875
		c-0.022,0.028-0.05,0.02-0.055-0.004c-0.125-0.498-0.592-0.97-1.222-0.97c-0.77,0-0.767,0.653-0.767,0.812
		c0,0.947,1.663,1.643,1.663,2.943c0,1.32-1.395,1.604-2.203,1.395c0.048,1.321,1.561,1.771,1.607,0.826
		c0.003-0.045,0.036-0.056,0.061,0.004c0.191,0.467,0.116,0.879-0.473,1.008c-0.041,0.012-0.021,0.033,0.016,0.058
		c0.583,0.372,0.267,1.828,0.238,2.258c-0.044,0.617,0.57,0.543,0.621,0.524c0.024-0.01,0.049,0.004,0.011,0.053
		c-0.436,0.534-0.974,0.046-0.974,0.046c-0.407,0.127-0.155,0.474,0.117,0.656c0.042,0.028,0.038,0.056-0.007,0.06
		c-0.061,0.004-0.69,0.057-0.802-0.445c-0.279,0.334-0.688,0.213-0.774,0.168c-0.122-0.062-0.711-0.275-0.77,0.387
		c-0.004,0.049-0.032,0.018-0.051-0.008c-0.445-0.559,0.032-0.905,0.297-0.945c-0.022-0.031-0.379-0.327-0.7,0.083
		c-0.021,0.028-0.042,0.034-0.046-0.022c-0.037-0.709,0.542-0.773,0.915-0.465c0.018-0.074,0.142-0.474-0.422-0.459
		c-0.014,0-0.041-0.021-0.012-0.049c0.439-0.463,0.799-0.041,0.883,0.059c0.196,0.23,0.682,0.141,0.727,0.135
		c-0.152-2.471-2.328-1.596-2.627-2.795c-0.014-0.064-0.042-0.039-0.049-0.018c-0.082,0.293-0.82,0.334-0.956-0.244
		c-0.008-0.035-0.003-0.062,0.023-0.035c0.629,0.627,2.048-1.338,0.112-2.936c-1.652-1.363-3.133-0.604-3.696-0.154
		c-0.03,0.196,0.087,0.26,0.162,0.285c0.027,0.008,0.036,0.032-0.007,0.049c-0.158,0.061-0.379,0.041-0.483-0.105
		c-0.355,0.248-0.051,0.561,0.093,0.646c0.036,0.021,0.021,0.047-0.01,0.053c-0.325,0.059-0.594-0.273-0.607-0.465l-0.055,0.029
		v1.404c0,1.997-2.305,2.273-4.834,3.969c-2.53-1.693-4.835-1.972-4.835-3.969v-1.404l-0.055-0.029
		c-0.013,0.19-0.281,0.522-0.607,0.465c-0.03-0.006-0.046-0.03-0.009-0.053c0.143-0.086,0.447-0.398,0.092-0.646
		c-0.104,0.146-0.326,0.166-0.483,0.105c-0.043-0.017-0.034-0.041-0.008-0.049c0.076-0.025,0.193-0.089,0.164-0.285
		c-0.563-0.447-2.044-1.209-3.696,0.154c-1.936,1.598-0.517,3.563,0.112,2.936c0.026-0.026,0.03,0,0.023,0.035
		c-0.135,0.578-0.874,0.537-0.956,0.244c-0.006-0.021-0.035-0.048-0.048,0.018c-0.299,1.199-2.475,0.324-2.627,2.795
		c0.044,0.006,0.531,0.097,0.727-0.135c0.083-0.1,0.445-0.521,0.883-0.059c0.028,0.028,0.002,0.049-0.012,0.049
		c-0.565-0.015-0.441,0.385-0.423,0.459c0.375-0.31,0.952-0.244,0.916,0.465c-0.004,0.058-0.024,0.051-0.046,0.022
		c-0.321-0.41-0.678-0.114-0.7-0.083c0.265,0.04,0.743,0.387,0.297,0.945c-0.019,0.025-0.047,0.057-0.05,0.008
		c-0.059-0.662-0.649-0.447-0.77-0.387c-0.086,0.045-0.496,0.166-0.775-0.168c-0.112,0.502-0.741,0.449-0.802,0.445
		c-0.046-0.004-0.049-0.031-0.007-0.06c0.271-0.183,0.523-0.529,0.117-0.656c0,0-0.538,0.488-0.974-0.046
		c-0.039-0.049-0.015-0.063,0.011-0.053c0.05,0.019,0.665,0.093,0.621-0.524c-0.029-0.43-0.345-1.886,0.238-2.258
		c0.037-0.024,0.056-0.046,0.016-0.058c-0.589-0.129-0.665-0.541-0.473-1.008c0.024-0.06,0.057-0.049,0.061-0.004
		c0.046,0.945,1.559,0.495,1.606-0.826c-0.809,0.209-2.203-0.074-2.203-1.395c0-1.303,1.663-1.996,1.663-2.943
		c0-0.158,0.004-0.812-0.767-0.812c-0.629,0-1.097,0.472-1.221,0.97c-0.005,0.023-0.033,0.032-0.055,0.004
		c-0.093-0.121-0.075-0.613,0.15-0.875c0.022-0.027-0.003-0.072-0.051-0.045c-0.072,0.043-0.293,0.109-0.528,0.109
		c-0.518,0-0.795-0.284-0.795-0.756C14.6,88.814,14.702,88.667,14.662,88.57z"/>
	<rect x="30.88" y="95.496" fill="#542888" width="0.654" height="1.813"/>
	<path fill="#542888" d="M58.909,87.977c0.141,0,0.27,0,0.376-0.014c0.117,0,0.223-0.012,0.328-0.035
		c0.094-0.012,0.2-0.035,0.306-0.059c0.094-0.023,0.211-0.059,0.34-0.094v-0.258l-0.763-0.201l0.364-5.883l0.012-0.012l2.113,6.564
		l0.458-0.061l2.09-6.517h0.024l0.293,5.331c0.023,0.48-0.212,0.775-0.693,0.892v0.224c0.106,0.023,0.2,0.047,0.306,0.06
		c0.094,0.013,0.188,0.022,0.293,0.035c0.105,0,0.211,0.012,0.317,0.012c0.118,0.013,0.235,0.013,0.375,0.013
		c0.224,0,0.435-0.023,0.635-0.047c0.199-0.035,0.364-0.084,0.505-0.152v-0.258l-0.681-0.131L65.39,80.93l0.728-0.177v-0.341
		c-0.234-0.034-0.481-0.059-0.728-0.07c-0.246-0.012-0.481-0.012-0.692-0.012h-0.505l-1.785,5.693h-0.012l-1.843-5.693H60.13
		c-0.106,0-0.222,0-0.352,0c-0.129,0-0.27,0.012-0.411,0.012c-0.141,0.012-0.282,0.012-0.423,0.023
		c-0.141,0.013-0.282,0.035-0.411,0.047v0.341l0.682,0.2l-0.517,6c-0.012,0.176-0.082,0.316-0.2,0.434
		c-0.105,0.106-0.27,0.188-0.493,0.26v0.209c0.14,0.037,0.305,0.061,0.458,0.084C58.627,87.963,58.78,87.977,58.909,87.977z"/>
	<path fill="#542888" d="M68.074,81.001c0.059,0.06,0.129,0.104,0.2,0.142c0.083,0.035,0.165,0.047,0.247,0.047
		c0.094,0,0.176-0.012,0.258-0.06c0.082-0.036,0.152-0.082,0.212-0.153c0.058-0.058,0.105-0.14,0.14-0.223
		c0.035-0.094,0.047-0.188,0.047-0.294c0-0.095-0.012-0.187-0.047-0.257c-0.035-0.083-0.07-0.153-0.129-0.2
		c-0.059-0.06-0.129-0.104-0.199-0.13c-0.071-0.034-0.153-0.047-0.235-0.047c-0.106,0-0.199,0.023-0.282,0.061
		c-0.082,0.034-0.152,0.082-0.211,0.151c-0.059,0.069-0.105,0.142-0.129,0.224c-0.035,0.082-0.046,0.166-0.046,0.258
		c0,0.096,0.012,0.188,0.046,0.271C67.98,80.87,68.027,80.941,68.074,81.001z"/>
	<path fill="#542888" d="M68.027,87.023c0,0.07-0.011,0.143-0.047,0.199c-0.035,0.07-0.082,0.129-0.141,0.176
		c-0.058,0.06-0.129,0.106-0.199,0.154c-0.083,0.047-0.152,0.08-0.235,0.104v0.199c0.129,0.047,0.282,0.07,0.446,0.082
		c0.152,0.013,0.305,0.023,0.434,0.023c0.153,0,0.282-0.012,0.411-0.012c0.118-0.012,0.235-0.023,0.341-0.035
		c0.117-0.012,0.211-0.035,0.316-0.061c0.094-0.021,0.188-0.058,0.294-0.092v-0.224l-0.657-0.177V82.9l0.058-0.635h-0.376
		c-0.164,0-0.375,0.012-0.622,0.059c-0.246,0.035-0.505,0.082-0.775,0.164v0.248l0.751,0.316L68.027,87.023L68.027,87.023z"/>
	<path fill="#542888" d="M75.439,84.077c0-0.294-0.047-0.563-0.118-0.798c-0.083-0.225-0.2-0.411-0.341-0.564
		c-0.141-0.152-0.316-0.27-0.516-0.352c-0.199-0.084-0.422-0.118-0.669-0.118c-0.34,0-0.669,0.06-0.975,0.177
		c-0.304,0.117-0.563,0.281-0.762,0.48v-0.635h-0.282c-0.176,0-0.387,0.012-0.634,0.047s-0.505,0.082-0.775,0.164v0.26l0.763,0.316
		v3.969c0,0.07-0.012,0.143-0.047,0.199c-0.047,0.07-0.093,0.129-0.152,0.176c-0.059,0.06-0.118,0.106-0.2,0.154
		c-0.07,0.047-0.141,0.08-0.223,0.104v0.198c0.129,0.047,0.282,0.07,0.435,0.082c0.153,0.013,0.305,0.023,0.446,0.023
		c0.152,0,0.282-0.012,0.399-0.012c0.129-0.012,0.247-0.023,0.353-0.035c0.105-0.012,0.211-0.035,0.317-0.061
		c0.094-0.021,0.188-0.058,0.293-0.092v-0.224l-0.657-0.177v-3.945c0.128-0.094,0.304-0.188,0.528-0.258
		c0.211-0.07,0.446-0.105,0.681-0.105c0.176,0,0.328,0.023,0.481,0.082c0.141,0.061,0.259,0.153,0.364,0.281
		c0.106,0.118,0.188,0.281,0.247,0.493c0.047,0.2,0.083,0.446,0.083,0.729v2.24c0,0.212-0.036,0.378-0.106,0.495
		c-0.059,0.129-0.165,0.211-0.316,0.28v0.199c0.117,0.047,0.246,0.07,0.375,0.082c0.141,0.012,0.27,0.023,0.388,0.023
		c0.493,0,0.904-0.07,1.233-0.199v-0.223l-0.61-0.178v-3.282H75.439z"/>
	<path fill="#542888" d="M77.555,87.023c0,0.07-0.012,0.143-0.047,0.199c-0.035,0.07-0.083,0.129-0.141,0.176
		c-0.058,0.06-0.129,0.106-0.199,0.154c-0.082,0.047-0.153,0.08-0.235,0.104v0.199c0.129,0.047,0.281,0.07,0.446,0.082
		c0.153,0.013,0.305,0.023,0.435,0.023c0.152,0,0.281-0.012,0.411-0.012c0.117-0.012,0.235-0.023,0.34-0.035
		c0.117-0.012,0.211-0.035,0.317-0.061c0.094-0.021,0.188-0.058,0.293-0.092v-0.224l-0.657-0.177V82.9l0.058-0.635h-0.375
		c-0.165,0-0.376,0.012-0.622,0.059c-0.246,0.035-0.505,0.082-0.775,0.164v0.248l0.752,0.316L77.555,87.023L77.555,87.023z"/>
	<path fill="#542888" d="M77.602,81.001c0.059,0.06,0.129,0.104,0.2,0.142c0.082,0.035,0.165,0.047,0.247,0.047
		c0.094,0,0.176-0.012,0.258-0.06c0.083-0.036,0.153-0.082,0.212-0.153c0.058-0.058,0.106-0.14,0.141-0.223
		c0.035-0.094,0.047-0.188,0.047-0.294c0-0.095-0.012-0.187-0.047-0.257c-0.035-0.083-0.07-0.153-0.129-0.2
		c-0.059-0.06-0.128-0.104-0.199-0.13c-0.07-0.034-0.153-0.047-0.235-0.047c-0.105,0-0.199,0.023-0.281,0.061
		c-0.083,0.034-0.153,0.082-0.212,0.151s-0.105,0.142-0.129,0.224c-0.036,0.082-0.047,0.166-0.047,0.258
		c0,0.096,0.012,0.188,0.047,0.271C77.508,80.87,77.555,80.941,77.602,81.001z"/>
	<path fill="#542888" d="M82.966,87.506c0.188-0.152,0.341-0.34,0.447-0.541c0.105-0.211,0.152-0.436,0.152-0.656
		c0-0.166-0.023-0.328-0.059-0.471c-0.047-0.141-0.117-0.27-0.199-0.398c-0.094-0.117-0.223-0.224-0.364-0.316
		c-0.152-0.094-0.329-0.188-0.54-0.271l-0.634-0.246c-0.176-0.07-0.329-0.129-0.446-0.199c-0.117-0.059-0.211-0.129-0.282-0.211
		c-0.07-0.07-0.116-0.141-0.152-0.235c-0.023-0.082-0.035-0.176-0.035-0.28c0-0.095,0.023-0.189,0.059-0.281
		c0.046-0.084,0.117-0.166,0.211-0.235c0.094-0.06,0.2-0.118,0.34-0.151c0.141-0.035,0.306-0.06,0.493-0.06
		c0.223,0,0.458,0.047,0.693,0.129c0.247,0.082,0.458,0.188,0.646,0.317c0.012-0.084,0.035-0.166,0.047-0.248
		c0.012-0.069,0.012-0.151,0.012-0.246c0-0.104-0.023-0.211-0.071-0.307c-0.047-0.08-0.129-0.162-0.235-0.223
		c-0.105-0.059-0.246-0.117-0.411-0.139c-0.164-0.037-0.364-0.062-0.599-0.062c-0.306,0-0.587,0.048-0.833,0.142
		c-0.258,0.095-0.47,0.224-0.646,0.375c-0.176,0.154-0.317,0.34-0.422,0.553c-0.094,0.199-0.141,0.422-0.141,0.656
		c0,0.342,0.094,0.623,0.27,0.869c0.188,0.248,0.446,0.446,0.787,0.588l0.587,0.246c0.2,0.082,0.364,0.164,0.481,0.234
		c0.129,0.082,0.234,0.152,0.317,0.234c0.07,0.082,0.129,0.164,0.165,0.246c0.036,0.084,0.047,0.178,0.047,0.281
		c0,0.213-0.082,0.377-0.247,0.519c-0.176,0.142-0.422,0.211-0.752,0.211c-0.316,0-0.598-0.058-0.868-0.188
		c-0.258-0.117-0.529-0.305-0.787-0.553c-0.036,0.071-0.059,0.143-0.082,0.225c-0.012,0.094-0.023,0.176-0.023,0.258
		c0,0.316,0.117,0.563,0.363,0.717c0.235,0.164,0.611,0.247,1.127,0.247c0.329,0,0.634-0.048,0.892-0.142
		C82.543,87.799,82.778,87.67,82.966,87.506z"/>
	<path fill="#542888" d="M87.054,87.143c-0.153,0.059-0.305,0.082-0.481,0.082c-0.105,0-0.211-0.023-0.293-0.07
		c-0.094-0.047-0.164-0.118-0.223-0.211c-0.071-0.105-0.117-0.235-0.153-0.4c-0.036-0.164-0.047-0.363-0.047-0.6
		c0-0.223,0-0.434,0-0.656c0-0.234,0.011-0.471,0.011-0.717l0.024-1.479h1.503l0.083-0.634h-1.55l0.047-1.058l-0.388,0.047
		l-1.268,1.257v0.388h0.646l-0.035,1.563c-0.012,0.271-0.012,0.552-0.023,0.855c-0.012,0.295-0.012,0.588-0.012,0.869
		c0,0.576,0.117,0.986,0.34,1.245c0.235,0.258,0.587,0.388,1.057,0.388c0.799,0,1.221-0.353,1.269-1.046l-0.118-0.047
		C87.324,87.012,87.195,87.083,87.054,87.143z"/>
	<path fill="#542888" d="M92.535,86.837c-0.012-0.062-0.023-0.104-0.035-0.13c-0.105,0.068-0.235,0.143-0.364,0.211
		c-0.141,0.059-0.27,0.117-0.422,0.152c-0.142,0.048-0.282,0.082-0.435,0.105c-0.153,0.023-0.294,0.035-0.435,0.035
		c-0.247,0-0.47-0.046-0.681-0.141c-0.211-0.096-0.399-0.234-0.552-0.411c-0.153-0.177-0.282-0.388-0.376-0.646
		c-0.082-0.26-0.128-0.554-0.128-0.883h3.464c0.011-0.141,0.011-0.281,0.011-0.398c0-0.129,0-0.233,0-0.353
		c0-0.34-0.047-0.634-0.141-0.916c-0.094-0.269-0.223-0.491-0.399-0.692c-0.176-0.188-0.387-0.328-0.634-0.433
		c-0.258-0.104-0.54-0.153-0.857-0.153c-0.306,0-0.61,0.069-0.904,0.211c-0.293,0.129-0.552,0.342-0.775,0.6
		c-0.235,0.27-0.422,0.6-0.563,0.984c-0.141,0.399-0.212,0.857-0.212,1.363c0,0.41,0.071,0.785,0.188,1.114
		c0.129,0.329,0.305,0.61,0.528,0.847c0.223,0.234,0.47,0.41,0.775,0.539c0.293,0.131,0.599,0.188,0.939,0.188
		c0.305,0,0.587-0.022,0.845-0.082c0.247-0.059,0.458-0.129,0.635-0.223c0.176-0.096,0.305-0.211,0.399-0.33
		c0.094-0.117,0.141-0.246,0.141-0.388C92.547,86.954,92.547,86.895,92.535,86.837z M89.248,83.865
		c0.082-0.2,0.176-0.389,0.306-0.54c0.117-0.151,0.258-0.282,0.422-0.363c0.165-0.094,0.317-0.142,0.481-0.142
		c0.165,0,0.329,0.035,0.47,0.104c0.153,0.071,0.27,0.177,0.376,0.317c0.105,0.141,0.188,0.316,0.247,0.527
		c0.059,0.211,0.093,0.459,0.093,0.752h-2.512C89.131,84.288,89.166,84.077,89.248,83.865z"/>
	<path fill="#542888" d="M96.432,82.21c-0.2,0-0.376,0.047-0.541,0.131c-0.164,0.081-0.34,0.21-0.493,0.386l-0.329,0.364h-0.012
		V82.27h-0.282c-0.175,0-0.387,0.012-0.634,0.047s-0.505,0.082-0.775,0.164v0.26l0.763,0.316v3.967c0,0.07-0.012,0.144-0.047,0.201
		c-0.046,0.069-0.093,0.129-0.152,0.176c-0.059,0.059-0.118,0.105-0.2,0.152c-0.071,0.049-0.141,0.082-0.223,0.105v0.197
		c0.128,0.049,0.281,0.072,0.446,0.084c0.152,0.012,0.317,0.022,0.493,0.022c0.164,0,0.317-0.012,0.458-0.012
		c0.129-0.013,0.258-0.022,0.376-0.035c0.117-0.013,0.222-0.035,0.316-0.06c0.106-0.022,0.211-0.059,0.305-0.094v-0.223l-0.81-0.178
		v-3.732c0.328-0.316,0.669-0.48,1.033-0.48c0.129,0,0.247,0.023,0.375,0.07c0.129,0.047,0.247,0.116,0.353,0.198
		c0.059-0.104,0.105-0.222,0.141-0.353c0.035-0.129,0.047-0.246,0.047-0.353C97.042,82.374,96.842,82.21,96.432,82.21z"/>
	<path fill="#542888" d="M98.283,87.023c0,0.07-0.011,0.143-0.047,0.199c-0.035,0.07-0.082,0.129-0.141,0.176
		c-0.058,0.06-0.128,0.106-0.199,0.154c-0.083,0.047-0.153,0.08-0.235,0.104v0.199c0.129,0.047,0.282,0.07,0.446,0.082
		c0.152,0.013,0.306,0.023,0.435,0.023c0.152,0,0.281-0.012,0.411-0.012c0.117-0.012,0.235-0.023,0.34-0.035
		c0.118-0.012,0.211-0.035,0.317-0.061c0.094-0.021,0.188-0.058,0.294-0.092v-0.224l-0.658-0.177V82.9l0.059-0.635h-0.376
		c-0.164,0-0.375,0.012-0.622,0.059c-0.247,0.035-0.505,0.082-0.775,0.164v0.248l0.751,0.316V87.023z"/>
	<path fill="#542888" d="M98.331,81.001c0.059,0.06,0.129,0.104,0.2,0.142c0.082,0.035,0.164,0.047,0.247,0.047
		c0.094,0,0.176-0.012,0.258-0.06c0.082-0.036,0.153-0.082,0.211-0.153c0.059-0.058,0.105-0.14,0.141-0.223
		c0.036-0.094,0.047-0.188,0.047-0.294c0-0.095-0.012-0.187-0.047-0.257c-0.035-0.083-0.07-0.153-0.129-0.2
		c-0.059-0.06-0.129-0.104-0.199-0.13c-0.071-0.034-0.153-0.047-0.235-0.047c-0.106,0-0.199,0.023-0.281,0.061
		c-0.082,0.035-0.153,0.082-0.211,0.151s-0.105,0.142-0.129,0.224c-0.035,0.082-0.047,0.166-0.047,0.258
		c0,0.096,0.012,0.188,0.047,0.271C98.236,80.87,98.283,80.941,98.331,81.001z"/>
	<path fill="#542888" d="M104.599,87.729c0.176-0.095,0.305-0.211,0.399-0.328c0.094-0.117,0.142-0.246,0.142-0.389
		c0-0.058,0-0.117-0.013-0.175c-0.012-0.062-0.023-0.104-0.035-0.13c-0.105,0.068-0.235,0.143-0.364,0.211
		c-0.141,0.059-0.27,0.117-0.423,0.152c-0.141,0.048-0.282,0.082-0.435,0.105c-0.153,0.023-0.293,0.035-0.434,0.035
		c-0.247,0-0.47-0.046-0.681-0.141c-0.211-0.096-0.399-0.234-0.552-0.411c-0.153-0.177-0.282-0.388-0.376-0.646
		c-0.082-0.26-0.129-0.554-0.129-0.883h3.463c0.012-0.141,0.012-0.281,0.012-0.398c0-0.129,0-0.233,0-0.353
		c0-0.34-0.047-0.634-0.14-0.916c-0.095-0.269-0.224-0.491-0.4-0.692c-0.176-0.188-0.387-0.328-0.634-0.433
		c-0.258-0.104-0.541-0.153-0.857-0.153c-0.305,0-0.61,0.069-0.904,0.211c-0.293,0.129-0.552,0.342-0.775,0.6
		c-0.234,0.27-0.422,0.6-0.562,0.984c-0.141,0.399-0.211,0.857-0.211,1.363c0,0.41,0.07,0.785,0.188,1.114
		c0.129,0.329,0.305,0.61,0.528,0.847c0.222,0.234,0.469,0.41,0.774,0.539c0.293,0.131,0.599,0.188,0.94,0.188
		c0.304,0,0.586-0.022,0.845-0.082C104.211,87.893,104.422,87.822,104.599,87.729z M101.839,83.865
		c0.083-0.2,0.176-0.389,0.306-0.54c0.117-0.151,0.258-0.282,0.423-0.363c0.164-0.094,0.317-0.142,0.481-0.142
		c0.165,0,0.329,0.035,0.47,0.104c0.152,0.071,0.27,0.177,0.375,0.317s0.188,0.316,0.247,0.527s0.094,0.459,0.094,0.752h-2.512
		C101.722,84.288,101.757,84.077,101.839,83.865z"/>
	<polygon fill="#542888" points="110.759,87.999 112.837,82.82 113.178,82.551 113.178,82.27 111.357,82.27 111.357,82.551 
		112.039,82.868 110.736,86.555 110.724,86.555 109.444,82.833 110.113,82.551 110.113,82.27 107.882,82.27 107.882,82.551 
		108.364,82.893 110.348,88.021 	"/>
	<path fill="#542888" d="M117.472,86.85l0.036-1.902c0-0.084,0.012-0.188,0.012-0.295c0-0.105,0.012-0.223,0.012-0.328
		c0.012-0.118,0.012-0.223,0.012-0.316c0.012-0.105,0.012-0.188,0.012-0.246c0-0.246-0.047-0.47-0.129-0.658
		c-0.082-0.188-0.211-0.352-0.375-0.494c-0.165-0.139-0.353-0.233-0.587-0.315c-0.235-0.069-0.505-0.104-0.798-0.104
		c-0.341,0-0.634,0.022-0.881,0.082c-0.247,0.047-0.446,0.129-0.599,0.233c-0.152,0.095-0.27,0.224-0.34,0.365
		c-0.07,0.151-0.106,0.317-0.106,0.504c0,0.13,0.012,0.248,0.036,0.354c0.247-0.248,0.528-0.436,0.821-0.564
		c0.305-0.13,0.61-0.199,0.939-0.199c0.188,0,0.341,0.023,0.469,0.059c0.142,0.047,0.247,0.129,0.329,0.234
		c0.083,0.117,0.141,0.27,0.188,0.471c0.035,0.199,0.059,0.457,0.059,0.774v0.315c-0.481,0-0.916,0.06-1.292,0.152
		c-0.375,0.105-0.693,0.248-0.951,0.424c-0.27,0.176-0.469,0.375-0.599,0.609c-0.141,0.225-0.211,0.471-0.211,0.729
		c0,0.188,0.036,0.363,0.106,0.517c0.082,0.164,0.176,0.306,0.317,0.423c0.129,0.117,0.282,0.199,0.47,0.27
		c0.176,0.061,0.375,0.096,0.598,0.096c0.153,0,0.306-0.012,0.458-0.047c0.165-0.024,0.306-0.061,0.447-0.118
		c0.141-0.048,0.258-0.104,0.387-0.177c0.118-0.069,0.211-0.141,0.293-0.223c0.07,0.117,0.152,0.223,0.235,0.328
		c0.094,0.094,0.188,0.178,0.305,0.248c0.153-0.07,0.305-0.166,0.446-0.283c0.152-0.104,0.271-0.211,0.353-0.316
		c-0.105-0.082-0.2-0.176-0.282-0.28C117.578,87.061,117.52,86.954,117.472,86.85z M116.58,87.012
		c-0.071,0.049-0.152,0.082-0.247,0.118c-0.094,0.048-0.188,0.082-0.293,0.104c-0.095,0.025-0.2,0.047-0.306,0.07
		c-0.094,0.012-0.188,0.023-0.282,0.023c-0.305,0-0.528-0.068-0.681-0.211c-0.152-0.143-0.234-0.329-0.234-0.563
		c0-0.164,0.047-0.307,0.129-0.459c0.094-0.142,0.223-0.271,0.399-0.375c0.164-0.107,0.375-0.189,0.634-0.26
		c0.258-0.059,0.552-0.093,0.88-0.093L116.58,87.012L116.58,87.012z"/>
	<path fill="#542888" d="M123.82,84.077c0-0.294-0.047-0.563-0.116-0.798c-0.083-0.225-0.2-0.411-0.341-0.564
		c-0.143-0.152-0.316-0.27-0.518-0.352c-0.199-0.084-0.423-0.118-0.668-0.118c-0.342,0-0.671,0.06-0.976,0.177
		c-0.306,0.117-0.563,0.281-0.763,0.48v-0.635h-0.282c-0.176,0-0.388,0.012-0.634,0.047s-0.505,0.082-0.774,0.164v0.26l0.763,0.316
		v3.969c0,0.07-0.012,0.143-0.047,0.199c-0.047,0.07-0.094,0.129-0.152,0.176c-0.059,0.06-0.118,0.106-0.201,0.154
		c-0.069,0.047-0.14,0.08-0.222,0.104v0.198c0.128,0.047,0.281,0.07,0.434,0.082c0.153,0.013,0.305,0.023,0.446,0.023
		c0.153,0,0.282-0.012,0.399-0.012c0.129-0.012,0.247-0.023,0.353-0.035c0.106-0.012,0.211-0.035,0.316-0.061
		c0.096-0.021,0.188-0.058,0.293-0.092v-0.224l-0.656-0.177v-3.945c0.128-0.094,0.304-0.188,0.528-0.258
		c0.211-0.07,0.444-0.105,0.681-0.105c0.178,0,0.328,0.023,0.481,0.082c0.142,0.061,0.258,0.153,0.362,0.281
		c0.107,0.118,0.189,0.281,0.246,0.493c0.05,0.2,0.084,0.446,0.084,0.729v2.24c0,0.212-0.034,0.378-0.105,0.495
		c-0.059,0.129-0.165,0.211-0.316,0.28v0.199c0.117,0.047,0.246,0.07,0.377,0.082c0.14,0.012,0.269,0.023,0.385,0.023
		c0.494,0,0.906-0.07,1.234-0.199v-0.223l-0.611-0.178V84.077L123.82,84.077z"/>
	<path fill="#542888" d="M133.34,81.2c-0.271-0.306-0.599-0.54-0.986-0.703c-0.377-0.166-0.774-0.248-1.211-0.248
		c-0.305,0-0.598,0.048-0.892,0.13c-0.306,0.094-0.575,0.225-0.834,0.387c-0.271,0.166-0.504,0.364-0.739,0.602
		c-0.224,0.232-0.41,0.504-0.574,0.809c-0.153,0.305-0.283,0.635-0.377,0.999c-0.08,0.363-0.129,0.738-0.129,1.149
		c0,0.588,0.082,1.104,0.246,1.563c0.164,0.469,0.389,0.857,0.67,1.174c0.281,0.317,0.61,0.563,0.998,0.739
		c0.375,0.177,0.774,0.261,1.209,0.261c0.471,0,0.916-0.097,1.352-0.295c0.422-0.188,0.798-0.471,1.125-0.834
		c0.318-0.365,0.578-0.812,0.765-1.34c0.2-0.527,0.294-1.138,0.294-1.808c0-0.54-0.082-1.032-0.246-1.468
		C133.844,81.882,133.621,81.506,133.34,81.2z M132.916,85.475c-0.128,0.41-0.307,0.762-0.518,1.033
		c-0.223,0.27-0.457,0.469-0.728,0.6c-0.271,0.141-0.552,0.199-0.834,0.199c-0.271,0-0.528-0.06-0.774-0.199
		c-0.246-0.131-0.469-0.33-0.656-0.588c-0.2-0.258-0.354-0.588-0.471-0.975c-0.117-0.389-0.176-0.845-0.176-1.361
		c0-0.518,0.07-0.963,0.188-1.363c0.13-0.397,0.307-0.727,0.518-0.996c0.211-0.271,0.446-0.471,0.717-0.611s0.551-0.211,0.834-0.211
		c0.27,0,0.527,0.059,0.785,0.176c0.247,0.117,0.471,0.307,0.67,0.551c0.188,0.248,0.34,0.553,0.457,0.93
		c0.118,0.375,0.178,0.82,0.178,1.339C133.104,84.559,133.046,85.053,132.916,85.475z"/>
	<path fill="#542888" d="M140.182,84.077c0-0.294-0.048-0.563-0.117-0.798c-0.082-0.225-0.199-0.411-0.342-0.564
		c-0.141-0.152-0.316-0.27-0.517-0.352c-0.199-0.084-0.422-0.118-0.669-0.118c-0.342,0-0.67,0.06-0.975,0.177
		c-0.307,0.117-0.563,0.281-0.764,0.48v-0.635h-0.281c-0.178,0-0.389,0.012-0.636,0.047c-0.245,0.035-0.505,0.082-0.774,0.164v0.26
		l0.764,0.316v3.969c0,0.07-0.012,0.143-0.047,0.199c-0.047,0.07-0.094,0.129-0.151,0.176c-0.06,0.06-0.118,0.106-0.198,0.154
		c-0.072,0.047-0.144,0.08-0.225,0.104v0.198c0.128,0.047,0.281,0.07,0.436,0.082c0.152,0.013,0.305,0.023,0.444,0.023
		c0.153,0,0.282-0.012,0.399-0.012c0.13-0.012,0.246-0.023,0.352-0.035s0.211-0.035,0.318-0.061
		c0.094-0.021,0.188-0.058,0.293-0.092v-0.224l-0.657-0.177v-3.945c0.129-0.094,0.306-0.188,0.526-0.258
		c0.213-0.07,0.447-0.105,0.683-0.105c0.177,0,0.329,0.023,0.481,0.082c0.141,0.061,0.259,0.153,0.363,0.281
		c0.105,0.118,0.188,0.281,0.246,0.493c0.049,0.2,0.082,0.446,0.082,0.729v2.24c0,0.212-0.033,0.378-0.105,0.495
		c-0.059,0.129-0.164,0.211-0.315,0.28v0.199c0.117,0.047,0.246,0.07,0.375,0.082c0.142,0.012,0.271,0.023,0.39,0.023
		c0.492,0,0.902-0.07,1.231-0.199v-0.223l-0.61-0.178V84.077L140.182,84.077z"/>
	<path fill="#542888" d="M146.178,86.813v-6.727l0.07-0.658h-0.376c-0.177,0-0.388,0.022-0.658,0.045
		c-0.257,0.037-0.526,0.084-0.798,0.166v0.258l0.798,0.317v2.065c-0.093-0.023-0.224-0.045-0.375-0.059
		c-0.151-0.013-0.293-0.023-0.435-0.023c-0.387,0-0.739,0.07-1.079,0.212c-0.341,0.141-0.646,0.353-0.894,0.633
		c-0.259,0.271-0.457,0.612-0.609,1.022c-0.153,0.398-0.223,0.869-0.223,1.396c0,0.39,0.059,0.74,0.164,1.058
		c0.115,0.317,0.271,0.588,0.457,0.811c0.198,0.212,0.422,0.388,0.682,0.505c0.258,0.117,0.539,0.177,0.834,0.177
		c0.117,0,0.244-0.012,0.387-0.048c0.141-0.034,0.271-0.082,0.411-0.142c0.13-0.059,0.258-0.129,0.376-0.211
		c0.129-0.082,0.234-0.176,0.328-0.271c0.059,0.117,0.142,0.247,0.234,0.376c0.105,0.129,0.211,0.234,0.328,0.33
		c0.164-0.084,0.316-0.178,0.446-0.26c0.13-0.094,0.258-0.188,0.375-0.293c-0.117-0.096-0.199-0.213-0.271-0.328
		C146.283,87.047,146.225,86.93,146.178,86.813z M145.227,86.871c-0.07,0.059-0.141,0.105-0.234,0.152s-0.188,0.082-0.293,0.117
		s-0.211,0.06-0.329,0.082c-0.117,0.012-0.224,0.023-0.341,0.023c-0.188,0-0.363-0.035-0.528-0.129
		c-0.175-0.083-0.315-0.213-0.444-0.375c-0.129-0.166-0.234-0.377-0.316-0.624c-0.083-0.245-0.118-0.528-0.118-0.845
		c0-0.412,0.047-0.764,0.13-1.069c0.094-0.306,0.211-0.55,0.361-0.751c0.166-0.199,0.355-0.352,0.564-0.445
		c0.211-0.105,0.446-0.152,0.692-0.152c0.165,0,0.317,0.013,0.47,0.035c0.164,0.034,0.295,0.06,0.389,0.094v3.887H145.227z"/>
	<path fill="#542888" d="M151.471,82.773c-0.177-0.188-0.389-0.328-0.635-0.434c-0.258-0.105-0.54-0.154-0.855-0.154
		c-0.306,0-0.611,0.07-0.905,0.211c-0.294,0.131-0.552,0.342-0.772,0.601c-0.236,0.271-0.424,0.599-0.564,0.985
		c-0.141,0.398-0.211,0.856-0.211,1.363c0,0.409,0.07,0.784,0.188,1.113c0.131,0.329,0.305,0.611,0.528,0.846
		c0.223,0.235,0.471,0.411,0.774,0.539c0.293,0.131,0.601,0.189,0.938,0.189c0.306,0,0.587-0.023,0.847-0.083
		c0.245-0.06,0.457-0.13,0.633-0.224c0.178-0.095,0.307-0.211,0.399-0.328c0.095-0.117,0.142-0.246,0.142-0.389
		c0-0.058,0-0.117-0.012-0.175c-0.012-0.062-0.023-0.104-0.035-0.13c-0.104,0.068-0.236,0.143-0.365,0.211
		c-0.141,0.059-0.27,0.117-0.422,0.152c-0.141,0.047-0.281,0.082-0.436,0.105c-0.15,0.023-0.293,0.035-0.434,0.035
		c-0.246,0-0.471-0.046-0.682-0.141c-0.212-0.096-0.398-0.234-0.553-0.412c-0.152-0.176-0.28-0.387-0.375-0.645
		c-0.082-0.26-0.129-0.554-0.129-0.883h3.463c0.014-0.141,0.014-0.281,0.014-0.398c0-0.129,0-0.233,0-0.353
		c0-0.34-0.048-0.634-0.142-0.916C151.775,83.197,151.646,82.975,151.471,82.773z M148.559,84.521c0-0.233,0.035-0.444,0.117-0.656
		c0.083-0.2,0.176-0.389,0.307-0.54c0.117-0.151,0.259-0.282,0.422-0.363c0.164-0.094,0.316-0.142,0.48-0.142
		c0.165,0,0.329,0.035,0.471,0.104c0.152,0.071,0.271,0.177,0.375,0.317c0.105,0.14,0.188,0.316,0.246,0.527
		c0.06,0.211,0.096,0.459,0.096,0.752H148.559L148.559,84.521z"/>
	<path fill="#542888" d="M155.857,82.21c-0.199,0-0.375,0.047-0.541,0.131c-0.164,0.081-0.34,0.21-0.491,0.386l-0.329,0.364h-0.012
		V82.27h-0.281c-0.178,0-0.389,0.012-0.635,0.047s-0.506,0.082-0.774,0.164v0.26l0.763,0.316v3.967c0,0.07-0.012,0.144-0.047,0.201
		c-0.047,0.069-0.094,0.129-0.152,0.176c-0.059,0.059-0.116,0.105-0.198,0.152c-0.07,0.049-0.142,0.082-0.224,0.105v0.197
		c0.127,0.049,0.281,0.072,0.446,0.084c0.152,0.012,0.315,0.022,0.492,0.022c0.164,0,0.317-0.012,0.458-0.012
		c0.128-0.013,0.259-0.022,0.376-0.035s0.224-0.035,0.315-0.06c0.106-0.022,0.213-0.059,0.306-0.094v-0.223l-0.81-0.178v-3.732
		c0.328-0.316,0.67-0.48,1.033-0.48c0.129,0,0.245,0.023,0.375,0.07c0.129,0.047,0.246,0.116,0.352,0.198
		c0.061-0.104,0.107-0.222,0.143-0.353c0.036-0.129,0.047-0.246,0.047-0.353C156.469,82.374,156.27,82.21,155.857,82.21z"/>
	<polygon fill="#542888" points="162.995,82.551 163.676,82.868 162.469,86.589 162.455,86.589 161.398,82.809 161.738,82.551 
		161.738,82.27 159.742,82.27 159.742,82.551 160.389,82.855 159.227,86.602 159.214,86.602 158.17,82.833 158.839,82.551 
		158.839,82.27 156.572,82.27 156.572,82.551 157.078,82.902 158.827,88.021 159.355,87.999 160.719,83.701 160.729,83.701 
		162.021,88.021 162.514,87.999 164.484,82.809 164.814,82.551 164.814,82.27 162.995,82.27 	"/>
	<path fill="#542888" d="M165.938,81.001c0.061,0.06,0.131,0.104,0.201,0.142c0.082,0.035,0.164,0.047,0.246,0.047
		c0.094,0,0.178-0.012,0.26-0.06c0.082-0.036,0.15-0.082,0.209-0.153c0.061-0.058,0.106-0.14,0.144-0.223
		c0.035-0.094,0.047-0.188,0.047-0.294c0-0.095-0.012-0.187-0.047-0.257c-0.036-0.083-0.071-0.153-0.13-0.2
		c-0.059-0.06-0.131-0.104-0.199-0.13c-0.07-0.034-0.152-0.047-0.234-0.047c-0.105,0-0.201,0.023-0.283,0.061
		c-0.082,0.035-0.151,0.082-0.211,0.151s-0.105,0.142-0.129,0.224c-0.035,0.082-0.045,0.166-0.045,0.258
		c0,0.096,0.01,0.188,0.045,0.271C165.844,80.87,165.891,80.941,165.938,81.001z"/>
	<path fill="#542888" d="M166.854,82.902l0.061-0.635h-0.375c-0.165,0-0.377,0.012-0.623,0.06c-0.247,0.036-0.505,0.083-0.775,0.163
		v0.248l0.752,0.316v3.969c0,0.07-0.013,0.143-0.047,0.199c-0.035,0.07-0.08,0.129-0.141,0.176c-0.059,0.06-0.13,0.106-0.201,0.154
		c-0.081,0.047-0.152,0.08-0.232,0.104v0.199c0.127,0.047,0.281,0.07,0.444,0.082c0.153,0.013,0.306,0.023,0.435,0.023
		c0.154,0,0.283-0.012,0.412-0.012c0.117-0.012,0.233-0.023,0.34-0.035c0.117-0.012,0.211-0.035,0.316-0.061
		c0.096-0.021,0.188-0.058,0.295-0.092v-0.224l-0.658-0.177v-4.459H166.854z"/>
	<path fill="#542888" d="M169.947,80.003c-0.061-0.06-0.119-0.104-0.202-0.13c-0.067-0.034-0.151-0.047-0.224-0.047
		c-0.104,0-0.199,0.023-0.279,0.061c-0.083,0.034-0.154,0.082-0.213,0.151s-0.105,0.142-0.141,0.224
		c-0.023,0.082-0.035,0.166-0.035,0.258c0,0.096,0.012,0.188,0.047,0.271c0.022,0.081,0.07,0.153,0.129,0.212
		s0.117,0.105,0.201,0.143c0.069,0.033,0.151,0.047,0.244,0.047c0.094,0,0.178-0.014,0.258-0.061
		c0.084-0.035,0.144-0.082,0.215-0.152c0.057-0.059,0.093-0.141,0.127-0.224c0.035-0.094,0.047-0.188,0.047-0.294
		c0-0.094-0.012-0.188-0.047-0.257C170.04,80.12,170.004,80.05,169.947,80.003z"/>
	<path fill="#542888" d="M169.007,82.327c-0.247,0.036-0.505,0.083-0.774,0.164v0.247l0.752,0.316v5.412
		c0,0.295-0.035,0.553-0.096,0.775c-0.047,0.223-0.129,0.41-0.223,0.563c-0.094,0.153-0.212,0.26-0.329,0.342
		c-0.129,0.069-0.258,0.104-0.387,0.104v0.188c0.081,0.094,0.176,0.164,0.293,0.211c0.116,0.049,0.233,0.07,0.376,0.07
		c0.176,0,0.354-0.033,0.518-0.117c0.164-0.082,0.305-0.223,0.424-0.422c0.117-0.199,0.209-0.459,0.279-0.774
		c0.07-0.329,0.107-0.729,0.107-1.21v-5.271l0.068-0.658h-0.389C169.464,82.27,169.252,82.279,169.007,82.327z"/>
	<path fill="#542888" d="M174.641,85.439c-0.094-0.119-0.224-0.225-0.363-0.317c-0.152-0.095-0.33-0.188-0.541-0.271l-0.633-0.246
		c-0.178-0.071-0.33-0.129-0.447-0.201c-0.115-0.059-0.211-0.129-0.28-0.211c-0.071-0.069-0.117-0.139-0.153-0.234
		c-0.021-0.082-0.035-0.176-0.035-0.281c0-0.094,0.024-0.188,0.06-0.281c0.047-0.082,0.118-0.164,0.212-0.234
		c0.094-0.059,0.198-0.118,0.341-0.152c0.14-0.035,0.306-0.059,0.493-0.059c0.223,0,0.458,0.047,0.691,0.129
		c0.246,0.082,0.457,0.188,0.646,0.316c0.012-0.082,0.035-0.164,0.047-0.246c0.012-0.07,0.012-0.152,0.012-0.246
		c0-0.105-0.022-0.213-0.069-0.307c-0.048-0.082-0.13-0.164-0.235-0.224s-0.244-0.117-0.41-0.14
		c-0.164-0.037-0.363-0.061-0.599-0.061c-0.306,0-0.588,0.047-0.833,0.141c-0.26,0.096-0.471,0.225-0.646,0.377
		s-0.316,0.34-0.422,0.552c-0.096,0.2-0.143,0.422-0.143,0.657c0,0.341,0.094,0.621,0.271,0.869
		c0.188,0.246,0.445,0.445,0.785,0.586l0.588,0.246c0.199,0.084,0.364,0.166,0.48,0.235c0.13,0.082,0.236,0.153,0.318,0.235
		c0.068,0.08,0.127,0.162,0.162,0.246c0.037,0.082,0.049,0.177,0.049,0.281c0,0.211-0.084,0.375-0.248,0.518
		c-0.176,0.143-0.422,0.211-0.752,0.211c-0.316,0-0.598-0.059-0.868-0.188c-0.259-0.119-0.527-0.306-0.786-0.554
		c-0.035,0.071-0.059,0.144-0.081,0.224c-0.013,0.094-0.024,0.176-0.024,0.26c0,0.316,0.117,0.562,0.364,0.716
		c0.234,0.164,0.611,0.247,1.128,0.247c0.328,0,0.633-0.047,0.893-0.143c0.271-0.094,0.505-0.223,0.693-0.387
		c0.187-0.152,0.34-0.34,0.444-0.541c0.104-0.211,0.153-0.436,0.153-0.656c0-0.166-0.024-0.328-0.059-0.471
		C174.794,85.697,174.723,85.568,174.641,85.439z"/>
	<path fill="#542888" d="M176.835,86.577c-0.06,0-0.13,0.012-0.201,0.048c-0.069,0.023-0.14,0.059-0.198,0.105
		c-0.07,0.045-0.129,0.094-0.188,0.164c-0.059,0.06-0.118,0.129-0.165,0.199l0.411,0.518c0,0.34-0.059,0.658-0.188,0.928
		c-0.117,0.27-0.306,0.54-0.539,0.787l0.315,0.082c0.13-0.035,0.271-0.118,0.423-0.247c0.165-0.117,0.316-0.281,0.457-0.472
		c0.143-0.198,0.26-0.42,0.354-0.668c0.104-0.246,0.152-0.504,0.152-0.774c0-0.2-0.06-0.365-0.177-0.493
		C177.175,86.637,177.021,86.577,176.835,86.577z"/>
	<path fill="#542888" d="M185.736,86.425c-0.129,0.308-0.307,0.54-0.541,0.693c-0.246,0.142-0.574,0.211-1.01,0.211
		c-0.271,0-0.539-0.058-0.81-0.188c-0.259-0.117-0.493-0.305-0.694-0.563c-0.209-0.259-0.375-0.575-0.492-0.976
		c-0.127-0.397-0.188-0.869-0.188-1.408c0-0.504,0.061-0.963,0.199-1.36c0.13-0.399,0.294-0.739,0.505-1.011
		c0.212-0.281,0.458-0.481,0.729-0.633c0.28-0.143,0.563-0.213,0.855-0.213c0.211,0,0.389,0.023,0.54,0.06s0.282,0.094,0.388,0.176
		c0.106,0.082,0.199,0.188,0.27,0.317c0.072,0.129,0.143,0.281,0.178,0.47l0.047,0.211h0.316l0.095-1.632
		c-0.212-0.105-0.446-0.188-0.729-0.234c-0.27-0.059-0.609-0.082-1.008-0.082c-0.308,0-0.611,0.047-0.904,0.129
		c-0.295,0.096-0.575,0.225-0.834,0.387c-0.271,0.166-0.506,0.365-0.729,0.6c-0.212,0.246-0.412,0.518-0.564,0.822
		c-0.164,0.293-0.281,0.635-0.375,0.998c-0.08,0.353-0.129,0.74-0.129,1.15c0,0.609,0.082,1.149,0.26,1.607
		c0.164,0.47,0.396,0.857,0.681,1.163c0.293,0.315,0.621,0.552,1.009,0.704c0.377,0.152,0.786,0.236,1.211,0.236
		c0.444,0,0.846-0.037,1.196-0.097c0.341-0.069,0.622-0.164,0.847-0.271l0.115-1.551h-0.316L185.736,86.425z"/>
	<path fill="#542888" d="M191.896,86.882v-3.968l0.072-0.657h-0.389c-0.165,0-0.363,0.013-0.587,0.06
		c-0.224,0.035-0.472,0.082-0.739,0.164v0.246l0.682,0.33v3.803c-0.072,0.047-0.144,0.096-0.225,0.129
		c-0.094,0.035-0.188,0.072-0.281,0.105c-0.105,0.036-0.211,0.061-0.318,0.072c-0.116,0.021-0.223,0.034-0.327,0.034
		c-0.188,0-0.353-0.022-0.493-0.082s-0.26-0.142-0.363-0.271c-0.095-0.129-0.166-0.293-0.212-0.507
		c-0.047-0.198-0.071-0.456-0.071-0.772v-2.654l0.071-0.657h-0.388c-0.164,0-0.352,0.013-0.575,0.06
		c-0.224,0.035-0.469,0.082-0.739,0.164v0.246l0.67,0.33v3.004c0,0.342,0.035,0.623,0.104,0.869c0.082,0.248,0.188,0.447,0.329,0.6
		c0.141,0.164,0.316,0.271,0.517,0.353c0.199,0.07,0.423,0.106,0.669,0.106c0.188,0,0.363-0.012,0.528-0.061
		c0.176-0.035,0.329-0.094,0.481-0.152c0.151-0.057,0.281-0.129,0.398-0.198c0.117-0.07,0.211-0.142,0.282-0.212
		c0.06,0.13,0.128,0.259,0.224,0.375c0.105,0.117,0.211,0.224,0.327,0.308c0.069-0.036,0.153-0.071,0.224-0.118
		c0.082-0.048,0.152-0.095,0.225-0.142c0.07-0.048,0.14-0.095,0.197-0.153c0.061-0.046,0.105-0.093,0.154-0.14
		c-0.095-0.095-0.177-0.2-0.259-0.306C192.003,87.083,191.945,86.977,191.896,86.882z"/>
	<path fill="#542888" d="M194.936,80.087l0.06-0.659h-0.376c-0.081,0-0.176,0.014-0.281,0.014c-0.105,0.011-0.223,0.021-0.34,0.033
		c-0.13,0.023-0.26,0.049-0.389,0.071s-0.271,0.058-0.399,0.095v0.258l0.765,0.316v6.809c0,0.07-0.013,0.144-0.047,0.201
		c-0.048,0.069-0.095,0.129-0.154,0.176c-0.059,0.059-0.116,0.105-0.197,0.152c-0.07,0.049-0.143,0.082-0.225,0.105v0.197
		c0.129,0.049,0.283,0.072,0.436,0.084s0.305,0.022,0.445,0.022c0.154,0,0.281-0.012,0.398-0.012
		c0.131-0.013,0.247-0.022,0.352-0.035c0.106-0.013,0.213-0.035,0.318-0.06c0.094-0.022,0.188-0.059,0.293-0.094v-0.223
		l-0.656-0.178v-7.274H194.936z"/>
	<path fill="#542888" d="M199.102,87.143c-0.151,0.059-0.304,0.082-0.479,0.082c-0.106,0-0.212-0.023-0.294-0.07
		c-0.094-0.047-0.164-0.118-0.225-0.211c-0.069-0.105-0.117-0.235-0.15-0.4c-0.036-0.164-0.049-0.363-0.049-0.6
		c0-0.223,0-0.434,0-0.656c0-0.234,0.013-0.471,0.013-0.717l0.022-1.479h1.504l0.082-0.634h-1.551l0.047-1.058l-0.387,0.047
		l-1.269,1.257v0.388h0.646l-0.035,1.563c-0.012,0.271-0.012,0.552-0.023,0.855c-0.012,0.295-0.012,0.588-0.012,0.869
		c0,0.576,0.117,0.986,0.34,1.245c0.236,0.258,0.588,0.388,1.058,0.388c0.8,0,1.222-0.353,1.269-1.046l-0.117-0.047
		C199.371,87.012,199.244,87.083,199.102,87.143z"/>
	<path fill="#542888" d="M204.911,86.882v-3.968l0.071-0.657h-0.389c-0.164,0-0.363,0.013-0.587,0.06
		c-0.223,0.035-0.47,0.082-0.739,0.164v0.246l0.682,0.33v3.803c-0.07,0.047-0.141,0.096-0.223,0.129
		c-0.096,0.035-0.188,0.072-0.283,0.105c-0.105,0.036-0.211,0.061-0.316,0.072c-0.118,0.021-0.223,0.034-0.329,0.034
		c-0.187,0-0.353-0.022-0.493-0.082s-0.258-0.142-0.363-0.271c-0.094-0.129-0.164-0.293-0.211-0.507
		c-0.047-0.198-0.07-0.456-0.07-0.772v-2.654l0.07-0.657h-0.389c-0.164,0-0.352,0.013-0.574,0.06
		c-0.224,0.035-0.47,0.082-0.74,0.164v0.246l0.67,0.33v3.004c0,0.342,0.035,0.623,0.104,0.869c0.083,0.248,0.188,0.447,0.329,0.6
		c0.143,0.164,0.316,0.271,0.518,0.353c0.199,0.07,0.422,0.106,0.668,0.106c0.188,0,0.363-0.012,0.529-0.061
		c0.176-0.035,0.327-0.094,0.48-0.152c0.154-0.059,0.281-0.129,0.4-0.198c0.116-0.07,0.211-0.142,0.28-0.212
		c0.06,0.13,0.13,0.259,0.224,0.375c0.105,0.117,0.211,0.224,0.328,0.308c0.07-0.036,0.153-0.071,0.223-0.118
		c0.084-0.048,0.152-0.095,0.225-0.142c0.07-0.048,0.143-0.095,0.199-0.153c0.059-0.046,0.105-0.093,0.152-0.14
		c-0.094-0.095-0.176-0.2-0.258-0.306C205.018,87.083,204.958,86.977,204.911,86.882z"/>
	<path fill="#542888" d="M211.085,86.882v-3.968l0.069-0.657h-0.387c-0.164,0-0.365,0.013-0.588,0.06
		c-0.224,0.035-0.47,0.082-0.74,0.164v0.246l0.683,0.33v3.803c-0.069,0.047-0.142,0.096-0.224,0.129
		c-0.094,0.035-0.188,0.072-0.281,0.105c-0.105,0.036-0.213,0.061-0.317,0.072c-0.116,0.021-0.224,0.034-0.329,0.034
		c-0.187,0-0.352-0.022-0.492-0.082c-0.14-0.06-0.26-0.142-0.365-0.271c-0.094-0.129-0.163-0.293-0.211-0.507
		c-0.047-0.198-0.069-0.456-0.069-0.772v-2.654l0.069-0.657h-0.387c-0.166,0-0.353,0.013-0.576,0.06
		c-0.223,0.035-0.469,0.082-0.737,0.164v0.246l0.668,0.33v3.004c0,0.342,0.034,0.623,0.104,0.869c0.084,0.248,0.188,0.447,0.33,0.6
		c0.141,0.164,0.315,0.271,0.518,0.353c0.197,0.07,0.421,0.106,0.669,0.106c0.188,0,0.362-0.012,0.526-0.061
		c0.178-0.035,0.33-0.094,0.481-0.152c0.153-0.059,0.282-0.129,0.399-0.198c0.117-0.07,0.211-0.142,0.281-0.212
		c0.061,0.13,0.129,0.259,0.223,0.375c0.106,0.117,0.213,0.224,0.328,0.308c0.072-0.036,0.153-0.071,0.225-0.118
		c0.083-0.048,0.152-0.095,0.225-0.142c0.069-0.048,0.141-0.095,0.198-0.153c0.06-0.046,0.104-0.093,0.153-0.14
		c-0.096-0.095-0.178-0.2-0.26-0.306C211.189,87.083,211.132,86.977,211.085,86.882z"/>
	<path fill="#542888" d="M215.46,82.21c-0.198,0-0.375,0.047-0.539,0.131c-0.164,0.081-0.341,0.21-0.493,0.386l-0.328,0.364h-0.013
		V82.27h-0.28c-0.179,0-0.389,0.012-0.636,0.047c-0.245,0.035-0.505,0.082-0.774,0.164v0.26l0.764,0.316v3.967
		c0,0.07-0.012,0.144-0.047,0.201c-0.047,0.069-0.094,0.129-0.152,0.176c-0.059,0.059-0.117,0.105-0.199,0.152
		c-0.07,0.049-0.142,0.082-0.223,0.105v0.197c0.128,0.049,0.281,0.072,0.445,0.084c0.152,0.012,0.316,0.022,0.492,0.022
		c0.164,0,0.316-0.012,0.459-0.012c0.127-0.013,0.258-0.022,0.375-0.035s0.224-0.035,0.316-0.06
		c0.105-0.022,0.212-0.059,0.307-0.094v-0.223l-0.813-0.178v-3.732c0.33-0.316,0.671-0.48,1.035-0.48
		c0.129,0,0.244,0.023,0.375,0.07c0.13,0.047,0.246,0.116,0.352,0.198c0.061-0.104,0.105-0.222,0.143-0.353
		c0.035-0.129,0.048-0.246,0.048-0.353C216.072,82.374,215.872,82.21,215.46,82.21z"/>
	<path fill="#542888" d="M222.891,82.773c-0.178-0.188-0.389-0.328-0.635-0.434c-0.258-0.105-0.54-0.154-0.857-0.154
		c-0.303,0-0.609,0.07-0.902,0.211c-0.294,0.131-0.553,0.342-0.773,0.601c-0.236,0.271-0.424,0.599-0.564,0.985
		c-0.141,0.398-0.211,0.856-0.211,1.363c0,0.409,0.07,0.784,0.188,1.113c0.129,0.329,0.307,0.611,0.528,0.846
		c0.224,0.235,0.47,0.411,0.774,0.539c0.293,0.131,0.6,0.189,0.938,0.189c0.306,0,0.588-0.023,0.847-0.083
		c0.246-0.06,0.457-0.13,0.635-0.224c0.176-0.095,0.304-0.211,0.397-0.328c0.095-0.117,0.142-0.246,0.142-0.389
		c0-0.058,0-0.117-0.012-0.175c-0.012-0.062-0.023-0.104-0.035-0.13c-0.105,0.068-0.236,0.143-0.365,0.211
		c-0.141,0.059-0.271,0.117-0.422,0.152c-0.141,0.047-0.281,0.082-0.435,0.105s-0.294,0.035-0.435,0.035
		c-0.248,0-0.471-0.046-0.682-0.141c-0.211-0.096-0.398-0.234-0.553-0.412c-0.152-0.176-0.279-0.387-0.376-0.645
		c-0.081-0.26-0.128-0.554-0.128-0.883h3.464c0.013-0.141,0.013-0.281,0.013-0.398c0-0.129,0-0.233,0-0.353
		c0-0.34-0.048-0.634-0.143-0.916C223.195,83.197,223.064,82.975,222.891,82.773z M219.979,84.521c0-0.233,0.035-0.444,0.117-0.656
		c0.084-0.2,0.178-0.389,0.307-0.54c0.115-0.151,0.259-0.282,0.423-0.363c0.163-0.094,0.317-0.142,0.481-0.142
		s0.327,0.035,0.469,0.104c0.152,0.071,0.271,0.177,0.375,0.317c0.105,0.14,0.188,0.316,0.246,0.527
		c0.06,0.211,0.097,0.459,0.097,0.752H219.979L219.979,84.521z"/>
	<path fill="#542888" d="M229.286,87.363v-3.286c0-0.294-0.048-0.563-0.117-0.798c-0.083-0.225-0.2-0.411-0.342-0.564
		c-0.14-0.152-0.317-0.27-0.515-0.352c-0.201-0.084-0.424-0.118-0.67-0.118c-0.342,0-0.67,0.06-0.976,0.177
		c-0.308,0.117-0.563,0.281-0.765,0.48v-0.635h-0.28c-0.177,0-0.388,0.012-0.636,0.047c-0.246,0.035-0.504,0.082-0.773,0.164v0.26
		l0.764,0.316v3.969c0,0.07-0.013,0.143-0.047,0.199c-0.047,0.07-0.094,0.129-0.152,0.176c-0.06,0.06-0.117,0.106-0.199,0.154
		c-0.07,0.047-0.141,0.08-0.223,0.104v0.199c0.127,0.047,0.281,0.07,0.435,0.082c0.151,0.013,0.304,0.023,0.444,0.023
		c0.154,0,0.281-0.012,0.399-0.012c0.13-0.012,0.246-0.023,0.353-0.035c0.105-0.012,0.211-0.035,0.316-0.061
		c0.094-0.021,0.188-0.058,0.295-0.092v-0.224l-0.658-0.177v-3.945c0.129-0.094,0.306-0.188,0.527-0.258
		c0.211-0.07,0.446-0.105,0.682-0.105c0.176,0,0.33,0.023,0.48,0.082c0.141,0.061,0.26,0.153,0.364,0.281
		c0.104,0.118,0.188,0.281,0.247,0.493c0.047,0.2,0.082,0.446,0.082,0.729v2.24c0,0.212-0.035,0.378-0.105,0.495
		c-0.061,0.129-0.164,0.211-0.316,0.28v0.199c0.117,0.047,0.246,0.07,0.375,0.082c0.142,0.012,0.271,0.023,0.389,0.023
		c0.492,0,0.902-0.07,1.232-0.199v-0.223L229.286,87.363z"/>
	<path fill="#542888" d="M66.33,93.574c-0.2,0-0.4,0.012-0.599,0.048c-0.211,0.022-0.411,0.081-0.634,0.14v0.247l0.717,0.224
		l-1.292,5.061H64.51l-1.139-4.756c-0.083-0.328,0-0.527,0.223-0.609v-0.224c-0.117-0.034-0.258-0.069-0.434-0.093
		c-0.177-0.014-0.341-0.024-0.517-0.024c-0.224,0-0.435,0.013-0.646,0.048c-0.2,0.021-0.411,0.069-0.634,0.141v0.259l0.622,0.187
		l-1.244,5.086h-0.012l-1.28-4.732c-0.047-0.188-0.047-0.34,0-0.445c0.059-0.105,0.176-0.188,0.364-0.225V93.68
		c-0.188-0.045-0.352-0.082-0.516-0.094c-0.165-0.012-0.341-0.012-0.529-0.012s-0.387,0.012-0.598,0.048
		c-0.2,0.034-0.4,0.081-0.599,0.151v0.246l0.646,0.199l2.196,7.01l0.446-0.047l1.621-6.152h0.012l1.632,6.199l0.458-0.047
		l1.925-6.457c0.059-0.199,0.129-0.365,0.224-0.494c0.093-0.117,0.211-0.233,0.364-0.328v-0.211
		c-0.118-0.035-0.235-0.069-0.353-0.094C66.623,93.586,66.494,93.574,66.33,93.574z"/>
	<path fill="#542888" d="M71.16,96.039c-0.176-0.188-0.387-0.328-0.634-0.434c-0.258-0.104-0.541-0.151-0.857-0.151
		c-0.306,0-0.61,0.067-0.904,0.21c-0.293,0.13-0.552,0.342-0.774,0.6c-0.235,0.271-0.424,0.6-0.564,0.985
		c-0.14,0.399-0.211,0.856-0.211,1.362c0,0.41,0.071,0.785,0.188,1.115c0.13,0.328,0.306,0.608,0.529,0.846
		c0.223,0.234,0.469,0.41,0.775,0.539c0.293,0.129,0.598,0.188,0.939,0.188c0.305,0,0.586-0.023,0.845-0.083
		c0.247-0.06,0.458-0.127,0.634-0.223c0.176-0.095,0.305-0.212,0.399-0.329c0.094-0.117,0.141-0.246,0.141-0.387
		c0-0.059,0-0.117-0.012-0.178c-0.012-0.059-0.023-0.104-0.035-0.127c-0.106,0.068-0.235,0.139-0.364,0.211
		c-0.142,0.059-0.271,0.117-0.423,0.15c-0.141,0.048-0.282,0.083-0.435,0.105c-0.152,0.023-0.293,0.035-0.434,0.035
		c-0.247,0-0.47-0.047-0.682-0.142c-0.211-0.093-0.399-0.233-0.552-0.41c-0.152-0.175-0.282-0.387-0.375-0.646
		c-0.083-0.26-0.129-0.553-0.129-0.881h3.463C71.7,98.26,71.7,98.118,71.7,98.001c0-0.13,0-0.235,0-0.353
		c0-0.342-0.047-0.635-0.142-0.916C71.465,96.463,71.336,96.24,71.16,96.039z M68.248,97.789c0-0.234,0.035-0.445,0.118-0.658
		c0.082-0.199,0.176-0.386,0.305-0.54c0.118-0.151,0.258-0.28,0.423-0.362c0.165-0.096,0.317-0.143,0.481-0.143
		c0.165,0,0.329,0.035,0.47,0.105c0.152,0.07,0.27,0.177,0.375,0.318c0.106,0.141,0.188,0.316,0.247,0.526
		c0.059,0.212,0.094,0.459,0.094,0.752L68.248,97.789L68.248,97.789z"/>
	<path fill="#542888" d="M75.29,100.406c-0.152,0.06-0.305,0.082-0.481,0.082c-0.105,0-0.212-0.022-0.293-0.069
		c-0.094-0.047-0.165-0.116-0.223-0.211c-0.071-0.106-0.118-0.233-0.153-0.399c-0.035-0.164-0.047-0.363-0.047-0.599
		c0-0.224,0-0.435,0-0.657c0-0.234,0.012-0.471,0.012-0.717l0.023-1.479h1.503l0.082-0.635h-1.55l0.047-1.058l-0.388,0.047
		l-1.268,1.257v0.389H73.2l-0.035,1.561c-0.012,0.27-0.012,0.553-0.024,0.857c-0.012,0.293-0.012,0.588-0.012,0.869
		c0,0.574,0.117,0.985,0.341,1.242c0.234,0.262,0.587,0.389,1.057,0.389c0.798,0,1.221-0.352,1.268-1.045l-0.117-0.047
		C75.56,100.277,75.431,100.35,75.29,100.406z"/>
	<path fill="#542888" d="M80.278,96.039c-0.176-0.188-0.387-0.328-0.634-0.434c-0.258-0.104-0.541-0.151-0.857-0.151
		c-0.305,0-0.61,0.067-0.904,0.21c-0.293,0.13-0.552,0.342-0.775,0.6c-0.235,0.271-0.422,0.6-0.563,0.985
		c-0.141,0.399-0.211,0.856-0.211,1.362c0,0.41,0.07,0.785,0.188,1.115c0.129,0.328,0.306,0.608,0.529,0.846
		c0.223,0.234,0.469,0.41,0.774,0.539c0.294,0.129,0.599,0.188,0.939,0.188c0.305,0,0.587-0.023,0.845-0.083
		c0.247-0.06,0.458-0.127,0.634-0.223c0.176-0.095,0.305-0.212,0.399-0.329c0.094-0.117,0.141-0.246,0.141-0.387
		c0-0.059,0-0.117-0.012-0.178c-0.012-0.059-0.023-0.104-0.035-0.127c-0.106,0.068-0.235,0.139-0.364,0.211
		c-0.141,0.059-0.27,0.117-0.422,0.15c-0.141,0.048-0.282,0.083-0.435,0.105c-0.153,0.023-0.293,0.035-0.435,0.035
		c-0.247,0-0.47-0.047-0.681-0.142c-0.211-0.093-0.399-0.233-0.551-0.41c-0.152-0.175-0.282-0.387-0.376-0.646
		c-0.083-0.26-0.129-0.553-0.129-0.881h3.464c0.012-0.141,0.012-0.281,0.012-0.398c0-0.13,0-0.234,0-0.354
		c0-0.34-0.047-0.635-0.141-0.914C80.583,96.463,80.454,96.24,80.278,96.039z M77.366,97.789c0-0.234,0.036-0.445,0.118-0.658
		c0.082-0.199,0.176-0.386,0.305-0.54c0.118-0.151,0.258-0.28,0.422-0.362c0.165-0.096,0.318-0.143,0.481-0.143
		c0.165,0,0.329,0.035,0.47,0.105c0.152,0.07,0.27,0.177,0.375,0.318c0.106,0.141,0.188,0.316,0.247,0.526
		c0.059,0.212,0.094,0.459,0.094,0.752L77.366,97.789L77.366,97.789z"/>
	<path fill="#542888" d="M86.674,97.344c0-0.294-0.047-0.563-0.118-0.799c-0.082-0.223-0.199-0.412-0.34-0.564
		c-0.141-0.151-0.317-0.27-0.517-0.353c-0.199-0.081-0.422-0.116-0.669-0.116c-0.34,0-0.669,0.061-0.975,0.178
		c-0.305,0.115-0.564,0.279-0.763,0.479v-0.635H83.01c-0.176,0-0.387,0.013-0.634,0.047c-0.247,0.035-0.505,0.083-0.775,0.165v0.26
		l0.763,0.316v3.968c0,0.069-0.012,0.142-0.047,0.198c-0.047,0.07-0.094,0.131-0.152,0.177c-0.059,0.062-0.118,0.106-0.2,0.153
		c-0.07,0.048-0.141,0.08-0.223,0.105v0.198c0.129,0.047,0.282,0.071,0.434,0.082c0.153,0.012,0.306,0.022,0.447,0.022
		c0.152,0,0.282-0.012,0.399-0.012c0.129-0.012,0.247-0.021,0.353-0.033c0.105-0.014,0.211-0.035,0.316-0.061
		c0.094-0.023,0.188-0.059,0.293-0.094v-0.223l-0.657-0.177v-3.946c0.129-0.094,0.305-0.187,0.528-0.256
		c0.211-0.07,0.446-0.105,0.681-0.105c0.176,0,0.329,0.023,0.481,0.082c0.141,0.059,0.258,0.152,0.364,0.279
		c0.105,0.117,0.188,0.283,0.246,0.496c0.047,0.197,0.082,0.444,0.082,0.727v2.242c0,0.211-0.035,0.375-0.105,0.494
		c-0.059,0.129-0.165,0.211-0.318,0.281v0.198c0.118,0.047,0.247,0.071,0.376,0.082c0.141,0.012,0.27,0.022,0.388,0.022
		c0.493,0,0.904-0.07,1.232-0.197v-0.225l-0.61-0.176v-3.283H86.674z"/>
	<path fill="#542888" d="M91.438,98.704c-0.094-0.117-0.223-0.224-0.364-0.315c-0.152-0.096-0.328-0.188-0.54-0.271L89.9,97.871
		c-0.176-0.07-0.329-0.129-0.446-0.199c-0.118-0.059-0.212-0.129-0.282-0.212c-0.07-0.069-0.117-0.142-0.153-0.233
		c-0.023-0.082-0.035-0.177-0.035-0.281c0-0.094,0.023-0.188,0.059-0.282c0.047-0.083,0.118-0.164,0.211-0.233
		c0.094-0.061,0.2-0.117,0.34-0.152c0.141-0.035,0.306-0.059,0.494-0.059c0.223,0,0.458,0.045,0.692,0.129
		c0.247,0.082,0.458,0.188,0.646,0.315c0.012-0.083,0.035-0.164,0.047-0.246c0.012-0.069,0.012-0.153,0.012-0.247
		c0-0.105-0.024-0.212-0.071-0.307c-0.047-0.08-0.129-0.164-0.235-0.223c-0.105-0.06-0.247-0.117-0.41-0.14
		c-0.165-0.035-0.364-0.06-0.599-0.06c-0.305,0-0.587,0.047-0.833,0.14c-0.258,0.097-0.469,0.224-0.646,0.376
		c-0.176,0.152-0.317,0.342-0.423,0.553c-0.094,0.199-0.141,0.422-0.141,0.658c0,0.34,0.095,0.621,0.27,0.869
		c0.188,0.244,0.446,0.443,0.787,0.585l0.587,0.247c0.199,0.082,0.363,0.165,0.481,0.234c0.129,0.082,0.234,0.152,0.316,0.234
		c0.071,0.083,0.129,0.164,0.165,0.246s0.047,0.178,0.047,0.283c0,0.21-0.082,0.375-0.247,0.516
		c-0.176,0.141-0.422,0.213-0.751,0.213c-0.317,0-0.599-0.061-0.868-0.189c-0.259-0.116-0.529-0.305-0.787-0.551
		c-0.035,0.069-0.059,0.141-0.082,0.223c-0.012,0.095-0.023,0.177-0.023,0.258c0,0.318,0.118,0.563,0.364,0.717
		c0.235,0.164,0.611,0.247,1.127,0.247c0.329,0,0.634-0.047,0.893-0.142c0.27-0.094,0.504-0.223,0.692-0.387
		c0.188-0.152,0.341-0.342,0.447-0.541c0.105-0.211,0.152-0.436,0.152-0.658c0-0.163-0.024-0.327-0.059-0.469
		C91.59,98.963,91.521,98.834,91.438,98.704z"/>
	<path fill="#542888" d="M96.155,100.208c-0.106,0.06-0.211,0.104-0.329,0.151c-0.117,0.035-0.234,0.07-0.352,0.094
		c-0.117,0.023-0.234,0.035-0.352,0.035c-0.224,0-0.447-0.047-0.646-0.129c-0.2-0.094-0.375-0.223-0.528-0.398
		c-0.152-0.176-0.271-0.389-0.353-0.656c-0.082-0.26-0.129-0.564-0.129-0.916c0-0.34,0.036-0.646,0.118-0.916
		c0.082-0.258,0.188-0.494,0.329-0.67c0.14-0.188,0.293-0.33,0.481-0.435c0.176-0.093,0.375-0.14,0.575-0.14
		c0.247,0,0.481,0.047,0.705,0.14c0.211,0.095,0.435,0.223,0.658,0.399c0.047-0.094,0.083-0.199,0.106-0.295
		c0.023-0.093,0.035-0.197,0.035-0.316c0-0.094-0.023-0.188-0.07-0.27c-0.036-0.082-0.106-0.164-0.211-0.224
		c-0.094-0.06-0.223-0.104-0.388-0.142c-0.165-0.035-0.364-0.058-0.599-0.058c-0.388,0-0.751,0.068-1.081,0.224
		c-0.34,0.14-0.634,0.351-0.88,0.621c-0.247,0.27-0.447,0.598-0.586,0.986c-0.141,0.387-0.212,0.821-0.212,1.303
		c0,0.412,0.059,0.774,0.188,1.115c0.129,0.328,0.293,0.609,0.517,0.846c0.211,0.234,0.458,0.424,0.74,0.551
		c0.293,0.131,0.587,0.188,0.916,0.188c0.282,0,0.529-0.024,0.74-0.071c0.211-0.059,0.387-0.129,0.528-0.211
		c0.153-0.093,0.259-0.197,0.33-0.314c0.082-0.118,0.117-0.249,0.117-0.389c0-0.117-0.024-0.213-0.059-0.295
		C96.367,100.09,96.273,100.148,96.155,100.208z"/>
	<path fill="#542888" d="M102.289,97.344c0-0.294-0.036-0.563-0.118-0.799c-0.07-0.223-0.188-0.412-0.329-0.564
		c-0.141-0.151-0.316-0.27-0.516-0.353c-0.2-0.081-0.434-0.116-0.681-0.116c-0.364,0-0.693,0.061-0.963,0.166
		c-0.281,0.116-0.528,0.279-0.739,0.479v-2.805L99,92.693h-0.375c-0.199,0-0.422,0.022-0.657,0.047
		c-0.235,0.035-0.481,0.08-0.751,0.164v0.259l0.763,0.315v6.812c0,0.069-0.012,0.142-0.047,0.198
		c-0.035,0.07-0.082,0.131-0.141,0.177c-0.059,0.062-0.129,0.106-0.2,0.153c-0.082,0.047-0.152,0.08-0.234,0.105v0.198
		c0.128,0.047,0.281,0.071,0.445,0.082c0.153,0.012,0.306,0.022,0.435,0.022c0.152,0,0.281-0.012,0.411-0.012
		c0.117-0.012,0.235-0.021,0.34-0.033c0.117-0.014,0.211-0.035,0.317-0.061c0.094-0.023,0.188-0.059,0.293-0.094v-0.223
		l-0.657-0.177v-3.946c0.07-0.045,0.153-0.094,0.235-0.14c0.094-0.047,0.188-0.082,0.293-0.117c0.094-0.034,0.211-0.06,0.317-0.081
		c0.117-0.013,0.235-0.023,0.34-0.023c0.188,0,0.352,0.023,0.505,0.082c0.14,0.059,0.27,0.152,0.375,0.279
		c0.094,0.117,0.176,0.283,0.234,0.496c0.059,0.197,0.083,0.444,0.083,0.727v2.242c0,0.211-0.035,0.375-0.106,0.494
		c-0.07,0.129-0.176,0.211-0.316,0.281v0.198c0.117,0.047,0.234,0.071,0.375,0.082c0.129,0.012,0.258,0.022,0.375,0.022
		c0.258,0,0.481-0.022,0.693-0.045c0.199-0.035,0.386-0.084,0.551-0.152v-0.225l-0.61-0.176v-3.283H102.289z"/>
	<path fill="#542888" d="M107.557,100.113l0.035-1.901c0-0.082,0.012-0.188,0.012-0.294s0.011-0.223,0.011-0.328
		c0.012-0.117,0.012-0.225,0.012-0.316c0.012-0.104,0.012-0.188,0.012-0.248c0-0.244-0.047-0.469-0.129-0.656
		c-0.082-0.188-0.211-0.354-0.376-0.492c-0.164-0.143-0.353-0.236-0.587-0.316c-0.234-0.07-0.504-0.104-0.798-0.104
		c-0.34,0-0.634,0.021-0.881,0.08c-0.246,0.047-0.447,0.13-0.599,0.235c-0.152,0.094-0.27,0.224-0.34,0.362
		c-0.071,0.154-0.106,0.318-0.106,0.507c0,0.129,0.012,0.246,0.035,0.352c0.246-0.245,0.529-0.434,0.822-0.563
		c0.305-0.129,0.61-0.199,0.939-0.199c0.188,0,0.34,0.023,0.469,0.06c0.141,0.047,0.247,0.129,0.329,0.233
		c0.083,0.117,0.142,0.27,0.188,0.47c0.036,0.2,0.059,0.458,0.059,0.774v0.316c-0.481,0-0.916,0.061-1.292,0.152
		c-0.375,0.105-0.692,0.246-0.952,0.424c-0.27,0.176-0.468,0.376-0.598,0.609c-0.141,0.224-0.212,0.471-0.212,0.729
		c0,0.188,0.036,0.363,0.106,0.518c0.083,0.164,0.177,0.307,0.317,0.424c0.129,0.115,0.282,0.199,0.469,0.269
		c0.177,0.06,0.376,0.095,0.599,0.095c0.153,0,0.306-0.013,0.458-0.047c0.165-0.023,0.306-0.059,0.446-0.117
		c0.141-0.045,0.259-0.104,0.388-0.177c0.118-0.071,0.211-0.14,0.293-0.224c0.07,0.117,0.152,0.224,0.235,0.328
		c0.094,0.095,0.188,0.178,0.305,0.246c0.153-0.068,0.305-0.162,0.446-0.279c0.153-0.105,0.27-0.211,0.353-0.316
		c-0.106-0.082-0.2-0.178-0.282-0.283C107.661,100.329,107.604,100.221,107.557,100.113z M106.664,100.277
		c-0.071,0.048-0.152,0.082-0.247,0.117c-0.094,0.047-0.188,0.082-0.293,0.105c-0.094,0.023-0.2,0.047-0.305,0.07
		c-0.094,0.013-0.188,0.023-0.282,0.023c-0.305,0-0.528-0.07-0.681-0.212c-0.152-0.141-0.234-0.329-0.234-0.563
		c0-0.162,0.046-0.305,0.129-0.457c0.094-0.141,0.223-0.271,0.399-0.375c0.165-0.105,0.376-0.188,0.634-0.26
		c0.258-0.059,0.552-0.095,0.88-0.095V100.277z"/>
	<path fill="#542888" d="M113.496,96.109c-0.188-0.209-0.423-0.363-0.681-0.471c-0.259-0.104-0.541-0.164-0.834-0.164
		c-0.27,0-0.54,0.06-0.822,0.164c-0.271,0.118-0.506,0.262-0.693,0.436v-0.54h-0.281c-0.176,0-0.376,0.013-0.623,0.047
		s-0.517,0.083-0.786,0.165v0.26l0.763,0.316v6.738c0,0.069-0.012,0.142-0.047,0.211c-0.035,0.06-0.082,0.117-0.153,0.176
		c-0.059,0.06-0.117,0.105-0.199,0.142c-0.071,0.048-0.141,0.083-0.223,0.106v0.197c0.141,0.037,0.282,0.071,0.434,0.084
		c0.153,0.012,0.306,0.021,0.446,0.021c0.306,0,0.587-0.012,0.821-0.047c0.236-0.021,0.458-0.069,0.658-0.141v-0.234l-0.775-0.164
		v-2.303c0.093,0.047,0.211,0.084,0.353,0.105c0.141,0.023,0.27,0.036,0.399,0.036c0.376,0,0.739-0.069,1.08-0.211
		c0.353-0.13,0.658-0.34,0.917-0.623c0.27-0.28,0.481-0.623,0.634-1.032c0.152-0.424,0.234-0.893,0.234-1.443
		c0-0.399-0.059-0.752-0.165-1.057C113.836,96.579,113.683,96.322,113.496,96.109z M112.967,99.292
		c-0.094,0.293-0.234,0.54-0.398,0.739c-0.165,0.188-0.365,0.341-0.587,0.422c-0.235,0.095-0.481,0.143-0.74,0.143
		c-0.141,0-0.282,0-0.411-0.012s-0.246-0.036-0.34-0.07v-3.979c0.153-0.095,0.317-0.152,0.493-0.199
		c0.176-0.047,0.375-0.071,0.587-0.071c0.2,0,0.387,0.036,0.576,0.118c0.187,0.082,0.351,0.21,0.492,0.376
		c0.141,0.163,0.259,0.362,0.341,0.609c0.082,0.248,0.129,0.527,0.129,0.846C113.108,98.622,113.061,98.986,112.967,99.292z"/>
</g>
</svg>
