<?xml version="1.0" encoding="utf-8"?>
<!-- Generator: Adobe Illustrator 16.0.0, SVG Export Plug-In . SVG Version: 6.00 Build 0)  -->
<!DOCTYPE svg PUBLIC "-//W3C//DTD SVG 1.1//EN" "http://www.w3.org/Graphics/SVG/1.1/DTD/svg11.dtd">
<svg version="1.1" id="Layer_1" xmlns="http://www.w3.org/2000/svg" xmlns:xlink="http://www.w3.org/1999/xlink" x="0px" y="0px"
	 width="192.572px" height="79.272px" viewBox="12.077 35.118 192.572 79.272"
	 enable-background="new 12.077 35.118 192.572 79.272" xml:space="preserve">
<rect x="33.828" y="87.503" fill="#542888" width="0.653" height="1.813"/>
<path fill="#542888" d="M30.581,88.376c0.292-0.202,0.675-0.162,0.609,0.214c0,0-0.063,0.08-0.424,0.08c0,0,0.017,0.129,0.048,0.168
	c0,0-0.084,0.102-0.025,0.197c0,0,0.32-0.161,0.497-0.114c0.073,0.179,0.008,0.417-0.509,0.5c-0.646,0.103-0.997,0.286-1.066,0.988
	c0.502-0.038,0.817,0.199,1.207,0.387c0.586,0.271,1.231-0.108,1.231-0.11c-0.142-0.129-0.175-0.502,0.059-0.679
	c0.123,0.237,0.387,0.267,0.557,0.142c0.019-0.012,0.015-0.033,0-0.041c-0.284-0.152-0.314-0.414-0.183-0.69
	c0.147,0.215,0.473,0.049,0.507-0.136c0.002-0.01-0.008-0.014-0.02-0.008c-0.218,0.068-0.317-0.17-0.317-0.334
	c0-0.145,0.11-0.666-0.125-1.019c0.067-0.114,0.479-0.292,0.607-0.313c0.039-0.006,0.041-0.037-0.003-0.057
	c-0.172-0.074-0.566,0.008-0.635-0.076c0,0-0.072-0.57-0.097-0.584c-0.025-0.016-0.536,0.252-0.536,0.252
	c-0.107-0.006-0.267-0.377-0.425-0.479c-0.04-0.025-0.065-0.005-0.048,0.03c0.056,0.117,0.144,0.559,0.09,0.68
	c-0.454-0.041-0.61,0.132-0.638,0.257c-0.109,0.027-0.539,0.268-0.539,0.354c0,0.027,0.025,0.092,0.065,0.111
	C30.467,88.098,30.445,88.257,30.581,88.376z M31.39,87.795c-0.141,0.274-0.332,0.294-0.476,0.143
	C30.904,87.844,31.094,87.777,31.39,87.795z"/>
<path fill="#154273" d="M21.841,85.193c-0.021-0.229-0.251-0.282-0.785-0.256C21.158,85.417,21.582,85.482,21.841,85.193z"/>
<path fill="#542888" d="M27.581,89.473l-0.268,0.365c-0.058,0.079,0.222,0.283,0.279,0.204l0.35-0.479c0,0,1.126,0.604,1.408,0.776
	c0.018-0.235,0.103-0.454,0.237-0.634c-0.35-0.099-1.055-0.326-1.055-0.326c-0.034,0.057-0.153,0.104-0.234,0.104
	c-0.181,0-0.302-0.203-0.333-0.271c-0.003-0.008-0.002-0.013,0.009-0.008c0.048,0.021,0.174,0.075,0.212,0.022l0.144-0.197
	l0.317,0.15l0.149-0.211l-0.271-0.089l1.279-1.797c0.031-0.045,0.021-0.313,0.01-0.41c-0.097,0.021-0.354,0.095-0.387,0.14
	l-1.301,1.781l-0.169-0.229l-0.151,0.209l0.242,0.254l-0.12,0.164c-0.274-0.162-0.52,0.035-0.602,0.123
	c-0.009,0.01-0.006,0.014,0.004,0.012c0.079-0.021,0.38-0.086,0.379,0.115c-0.332-0.102-0.464,0.121-0.498,0.193
	c-0.008,0.015,0,0.019,0.008,0.017C27.28,89.438,27.492,89.38,27.581,89.473z"/>
<path fill="#154273" d="M40.704,84.938c-0.535-0.026-0.765,0.025-0.786,0.256C40.177,85.482,40.601,85.417,40.704,84.938z"/>
<path fill="#154273" d="M29.76,88.368c-0.007-0.032-0.035-0.032-0.045,0.003c-0.075,0.271,0.124,0.457,0.307,0.457
	c0.278,0,0.298-0.2,0.734-0.259c0.038-0.004,0.039-0.055,0.005-0.063c-0.024-0.007-0.254-0.031-0.463,0.021
	C29.958,88.613,29.788,88.486,29.76,88.368z"/>
<path fill="#542888" d="M31.206,93.164c0.02-0.006,0.017-0.025-0.005-0.021c-0.185,0.037-0.429-0.252-0.183-0.552
	c-0.163-0.114-0.366-0.2-0.523-0.2c-0.716,0-1.252,0.779-1.354,0.894c-0.092,0.104-0.279,0.282-0.393,0.125
	c-0.015-0.021-0.022-0.021-0.022,0.007c0,0.32,0.262,0.322,0.364,0.267c0.01-0.006,0.017-0.004,0.015,0.01
	c-0.041,0.33,0.164,0.886,0.169,0.898c-0.028,0.031-0.331,0.318-0.543,0.318c-0.143,0-0.169-0.273-0.387-0.273
	c-0.068,0-0.135,0.032-0.205,0.106c-0.008,0.01-0.005,0.021,0.015,0.021c0.166,0.008,0.263,0.106,0.226,0.254
	c-0.204-0.17-0.514-0.144-0.507,0.248c0,0.02,0.014,0.024,0.024,0.01c0.146-0.209,0.371-0.057,0.394-0.033
	c-0.15,0.021-0.408,0.193-0.178,0.51c0.01,0.013,0.016,0.009,0.017-0.005c0.005-0.068,0.039-0.238,0.243-0.238
	c0.216,0,0.359,0.191,0.524-0.009c0.065,0.265,0.345,0.238,0.423,0.226c0.008,0,0.013-0.008,0.004-0.013
	c-0.124-0.083-0.166-0.171-0.166-0.237c0-0.172,0.353-0.381,0.46-0.381c0.105,0,0.142,0.107,0.338,0.107
	c0.084,0,0.186-0.034,0.272-0.14c0.014-0.015,0.008-0.021-0.011-0.019c-0.243,0.056-0.384-0.174-0.384-0.588
	C29.836,93.663,30.259,93.521,31.206,93.164z"/>
<path fill="#542888" d="M26.79,91.896l0.429,0.188l0.031-0.046l0.37,0.097c-0.099,0.104-0.062,0.248-0.044,0.301
	c0.002,0.006,0.011,0.01,0.017,0c0.033-0.053,0.15-0.205,0.359-0.197c0.015,0,0.016,0.007,0.007,0.012
	c-0.072,0.036-0.307,0.181-0.228,0.462c0.003,0.012,0.018,0.014,0.023,0.004c0.09-0.129,0.259-0.188,0.326-0.21l-0.066,0.499
	c0.385,0.106,0.803-0.146,0.844-0.583l-0.43-0.1c0.462-0.336,1.085-0.563,1.665-0.563c0.917,0,1.505,0.988,1.505,1.577
	c0,0.146-0.016,0.364-0.128,0.525c-0.17,0.246-0.3,0.191-0.36,0.132c-0.016-0.017-0.025-0.015-0.02,0.012
	c0.076,0.318,0.488,0.309,0.538,0.146c0.013-0.041,0.032-0.027,0.036-0.012c0.211,0.758,1.156-0.053,1.643,0.916
	c-0.021,0.01-0.263,0.137-0.402,0.051c-0.272-0.178-0.423-0.002-0.473,0.117c-0.008,0.019,0,0.022,0.014,0.021
	c0.302-0.063,0.422,0.128,0.438,0.183c-0.229-0.097-0.547,0.016-0.402,0.403c0.009,0.021,0.021,0.019,0.028-0.002
	c0.098-0.271,0.328-0.176,0.351-0.16c-0.134,0.063-0.325,0.325,0.008,0.547c0.013,0.011,0.023,0.005,0.021-0.012
	c-0.033-0.192,0.061-0.335,0.2-0.335c0.078,0,0.281,0.007,0.379-0.23c0.133,0.229,0.406,0.146,0.534,0.098
	c0.021-0.01,0.021-0.026-0.004-0.034c-0.174-0.052-0.405-0.173-0.213-0.308c0,0,0.364,0.135,0.502-0.222
	c0.008-0.021,0-0.032-0.02-0.021c-0.018,0.01-0.38,0.199-0.464-0.143c-0.056-0.23-0.09-0.611-0.279-0.695
	c0.206-0.086,0.279-0.256,0.118-0.479c-0.011-0.017-0.031-0.037-0.032-0.002c-0.025,0.521-1.111,0.088-1.138-0.642
	C33.239,93.387,34,93.202,34,92.434c0-0.74-0.714-1.063-0.714-1.422c0-0.25,0.215-0.312,0.322-0.312
	c0.293,0,0.626,0.351,0.688,0.634c0.003,0.016,0.02,0.02,0.032,0.003c0.103-0.151,0.122-0.387,0.036-0.458
	c-0.021-0.017,0-0.048,0.029-0.027c0.071,0.051,0.648-0.002,0.648-0.397c0-0.136-0.042-0.218-0.033-0.275
	c0.007-0.049-0.07-0.07-0.096-0.006c-0.032,0.083-0.093,0.29-0.376,0.29c-0.239,0-0.654-0.122-0.938-0.122
	c-0.536,0-0.73,0.402-0.73,0.684c0,0.625,0.654,0.742,0.654,1.343c0,0.444-0.63,0.588-1.077,0.166
	c-0.112-0.521-0.216-0.896-0.508-1.331c-1.161,0.371-1.389-0.363-2.016-0.363c-0.527,0-1.215,0.941-1.767,1.073l0.077-0.56
	l0.063-0.012l-0.017-0.462c0,0-0.125,0.3-0.143,0.345c-0.015,0.035-0.036,0.032-0.048,0.006c-0.06-0.139-0.177-0.408-0.177-0.408
	s-0.008,0.367-0.01,0.445c0,0.027-0.021,0.034-0.037,0.012l-0.278-0.405c0,0,0.067,0.315,0.104,0.485
	c0.005,0.022-0.015,0.033-0.031,0.018l-0.379-0.356c0,0,0.104,0.256,0.196,0.485c0.009,0.021-0.009,0.038-0.031,0.021
	c-0.069-0.047-0.415-0.276-0.415-0.276s0.162,0.235,0.282,0.414c0.015,0.02,0.003,0.04-0.024,0.028
	c-0.249-0.094-0.424-0.156-0.424-0.156s0.152,0.148,0.327,0.32c0.02,0.019,0.018,0.041-0.02,0.041
	C27.106,91.895,26.79,91.896,26.79,91.896z"/>
<path fill="#542888" d="M12.077,114.391h37.604V35.118H12.077V114.391z M24.916,102.975c0,1.428-2.353,0.088-4.622-0.058
	c-1.885-0.123-2.411,0.357-2.411,0.357l0.346-1.905c0.02-0.104,0.426-0.396,1.726-0.396c1.563,0,2.348,0.301,2.634,0.4v1
	c0,0.229,0.114,0.34,0.288,0.41c0-0.087,0.261-0.65,2.04-0.65V102.975z M22.808,95.426c-0.25-0.215-1.352-0.632-1.958-0.863
	c-0.032-0.013-0.029-0.035,0-0.041c0.167-0.047,0.331-0.147,0.354-0.354c0.015-0.129-0.014-0.307-0.158-0.391
	c0.299-0.323,0.893-0.551,1.206-0.551c1.199,0,2.216,1.623,2.703,1.623c0.061,0,0.14-0.021,0.211-0.125
	c0.017-0.021,0.032-0.023,0.032,0.012c0,0.49-0.26,0.535-0.398,0.535c-0.078,0-0.162-0.023-0.222-0.06
	c-0.017-0.009-0.024-0.001-0.024,0.017c0,0.021,0.004,0.068,0.004,0.104c0,0.578-0.604,1.21-0.604,1.21
	c0.271,0.284,0.955,0.762,1.146,0.508c0.082-0.104,0.439-0.746,0.917-0.234c0.018,0.021,0.005,0.041-0.027,0.041
	c-0.27,0-0.479,0.185-0.405,0.461c0.387-0.309,0.921-0.258,0.921,0.455c0,0.028-0.028,0.035-0.042,0.016
	c-0.255-0.366-0.659-0.118-0.718-0.065c0.271,0.041,0.74,0.358,0.327,0.922c-0.018,0.025-0.033,0.021-0.035,0
	c-0.042-0.369-0.269-0.434-0.452-0.434c-0.378,0-0.655,0.35-0.944-0.021c-0.104,0.483-0.641,0.438-0.771,0.416
	c-0.018-0.002-0.02-0.017-0.009-0.022c0.169-0.109,0.301-0.263,0.301-0.431c0-0.299-0.574-0.69-0.849-0.69
	c-0.163,0-0.279,0.194-0.595,0.194c-0.163,0-0.354-0.065-0.509-0.264c-0.013-0.016-0.005-0.027,0.014-0.022
	c0.13,0.021,0.485,0.106,0.65-0.531C23.046,96.165,23.104,95.682,22.808,95.426z M23.027,102.012
	c-0.039,0.043-0.055-0.002-0.055-0.035l-0.001-1.938c0-0.564,3.83-0.896,7.908-0.896s7.908,0.33,7.908,0.896l-0.001,1.938
	c0,0.033-0.017,0.078-0.056,0.035c-0.484-0.553-4.196-0.744-7.852-0.744S23.513,101.459,23.027,102.012z M35.769,96.854
	c-0.032,0-0.043-0.021-0.026-0.041c0.478-0.512,0.835,0.131,0.917,0.234c0.19,0.254,0.874-0.226,1.146-0.508
	c0,0-0.604-0.634-0.604-1.21c0-0.033,0.003-0.083,0.003-0.104c0-0.018-0.009-0.023-0.023-0.017c-0.06,0.034-0.145,0.06-0.223,0.06
	c-0.139,0-0.398-0.045-0.398-0.535c0-0.037,0.018-0.033,0.033-0.012c0.071,0.104,0.151,0.125,0.211,0.125
	c0.487,0,1.504-1.623,2.703-1.623c0.313,0,0.906,0.228,1.206,0.551c-0.146,0.084-0.172,0.262-0.158,0.391
	c0.022,0.206,0.187,0.308,0.354,0.354c0.029,0.006,0.031,0.028,0,0.041c-0.606,0.231-1.707,0.648-1.957,0.863
	c-0.297,0.256-0.238,0.739-0.067,1.407c0.165,0.64,0.52,0.553,0.65,0.529c0.019-0.002,0.024,0.011,0.014,0.025
	c-0.157,0.195-0.347,0.262-0.51,0.262c-0.314,0-0.433-0.193-0.596-0.193c-0.273,0-0.848,0.394-0.848,0.691
	c0,0.166,0.131,0.318,0.3,0.429c0.012,0.009,0.008,0.021-0.008,0.024c-0.13,0.021-0.667,0.066-0.771-0.416
	c-0.289,0.369-0.565,0.021-0.944,0.021c-0.185,0-0.41,0.063-0.452,0.435c-0.002,0.02-0.018,0.024-0.036,0
	c-0.413-0.563,0.058-0.882,0.328-0.923c-0.059-0.053-0.462-0.301-0.717,0.064c-0.014,0.021-0.042,0.016-0.042-0.016
	c0-0.713,0.535-0.763,0.922-0.453C36.248,97.037,36.039,96.854,35.769,96.854z M41.466,102.917
	c-2.271,0.146-4.622,1.482-4.622,0.058v-0.842c1.779,0,2.04,0.563,2.04,0.65c0.174-0.07,0.289-0.185,0.289-0.41v-1
	c0.286-0.103,1.07-0.4,2.633-0.4c1.3,0,1.708,0.295,1.727,0.396l0.346,1.905C43.876,103.275,43.35,102.794,41.466,102.917z
	 M39.969,84.643c0.047-0.23,0.345-0.565,1.246-0.447c0.426,0.055,0.732-0.059,0.589-0.307c-0.024-0.041,0.052-0.05,0.092-0.009
	c0.1,0.099,0.234,0.377-0.139,0.563c-0.414,0.209-0.438,0.623-0.441,0.685c-0.007,0.088,0.1,0.098,0.123,0.01
	c0.19-0.701,1.146-0.851,1.712-0.48c-0.033,0.375-0.437,0.623-0.656,0.623c-0.127,0-0.304-0.127-0.304-0.301
	c0-0.084-0.043-0.074-0.067-0.008c-0.095,0.25,0.273,0.764,0.821,0.449c0.559,0.559,0.335,1.244,0.279,1.497
	c-0.1,0.454,0.123,0.896,0.532,0.688c0.021-0.008,0.042-0.018,0.042,0.033c0,0.284-0.373,0.607-0.813,0.361
	c-0.058,0.081-0.675,0.88,0.273,1.188c0.041,0.016,0.056,0.057-0.007,0.08c-0.7,0.293-1.039-0.244-1.039-0.244
	c-0.353,0.807,0.188,1.252,0.188,1.252c-0.075,0.146-0.411,0.39-0.917,0.502c-0.192-0.104-0.463-0.301-0.574-0.604
	c0,0-0.138,0.352-0.014,0.688c-1.429,0.132-1.935-1.012-3.035-0.807c-0.031,0.006-0.047-0.015-0.047-0.049
	c0-0.703,0.433-1.992,1.794-2.253c1.359-0.264,0.993-0.819,0.993-0.819c-0.573-0.027-0.904,0.223-0.904,0.223
	C39.592,86.984,39.74,86.8,39.74,86.8c-0.056-0.065-0.087-0.3-0.087-0.3c0.646,0,0.815-0.14,0.815-0.14
	c0.098-0.383-0.167-0.924-1.125-0.346c-0.239-0.213-0.221-0.539-0.221-0.539c-0.072-0.033-0.118-0.146-0.118-0.195
	C39.005,85.122,39.772,84.693,39.969,84.643z M37.748,85.979c0.021-0.082,0.067-0.063,0.08-0.008c0.051,0.215,0.314,0.34,0.594,0.34
	c0.345,0,0.419-0.119,0.963-0.119c0.049,0,0.388,0,0.388,0.07c0,0.068-0.157,0.032-0.388,0.071c-0.522,0.09-0.729,0.353-1.096,0.353
	C37.955,86.686,37.615,86.46,37.748,85.979z M30.243,77.297c0.119,0,0.226,0.053,0.283,0.096c0.121,0.084,0.188,0.069,0.227,0.029
	c0.04-0.04,0.053-0.105-0.031-0.228c-0.041-0.059-0.093-0.164-0.093-0.282c0-0.206,0.135-0.312,0.251-0.312s0.251,0.104,0.251,0.312
	c0,0.118-0.052,0.227-0.094,0.282c-0.084,0.121-0.071,0.188-0.032,0.228c0.04,0.04,0.105,0.055,0.226-0.029
	c0.06-0.043,0.164-0.096,0.285-0.096c0.206,0,0.309,0.137,0.309,0.252c0,0.116-0.103,0.251-0.309,0.251
	c-0.121,0-0.226-0.051-0.285-0.094c-0.12-0.084-0.187-0.069-0.226-0.031c-0.039,0.039,0.019,0.453,0.064,0.779
	c0.342,0.07,0.507,0.346,0.507,0.505c0,0.41-0.439,0.646-0.697,0.785c-0.258-0.14-0.697-0.375-0.697-0.785
	c0-0.159,0.165-0.435,0.506-0.505c0.046-0.326,0.104-0.74,0.064-0.779c-0.039-0.038-0.105-0.053-0.227,0.031
	c-0.059,0.043-0.164,0.094-0.283,0.094c-0.207,0-0.31-0.135-0.31-0.251C29.933,77.434,30.037,77.297,30.243,77.297z M31.38,80.462
	c0,0.275-0.225,0.501-0.5,0.501c-0.276,0-0.501-0.226-0.501-0.501c0-0.276,0.225-0.5,0.501-0.5
	C31.156,79.962,31.38,80.186,31.38,80.462z M26.778,80.563c0.454,0,0.383,0.295,0.77,0.295c0.048,0,0.097-0.012,0.097,0.021
	c0,0.128-0.107,0.346-0.285,0.346c-0.236,0-0.241-0.236-0.418-0.236c-0.075,0-0.186,0.063-0.186,0.306
	c0,0.473,0.309,0.996,0.674,1.397c0.083-0.113,0.197-0.188,0.334-0.188c0.215,0,0.405,0.227,0.405,0.504
	c0,0.104-0.018,0.178-0.055,0.264c0.122,0.068,0.229,0.106,0.312,0.106c0.165,0,0.413-0.065,0.413-0.427
	c0-0.806-1.077-1.513-1.077-2.529c0-0.486,0.325-0.971,1.004-0.971c0.729,0,0.592,0.663,1.222,0.663
	c0.029,0,0.053,0.011,0.053,0.035c0,0.041-0.109,0.408-0.436,0.408c-0.349,0-0.446-0.603-0.755-0.603
	c-0.115,0-0.288,0.066-0.288,0.478c0,0.316,0.157,0.83,0.383,1.322c0.082-0.082,0.192-0.142,0.317-0.142
	c0.27,0,0.464,0.261,0.464,0.572c0,0.196-0.078,0.388-0.212,0.515c0.159,0.202,0.321,0.366,0.542,0.366
	c0.436,0,0.627-0.246,0.627-0.516c0-0.291-0.531-0.396-0.531-0.854c0-0.31,0.201-0.48,0.395-0.48c0.208,0,0.313,0.137,0.336,0.137
	c0.021,0,0.127-0.137,0.335-0.137c0.193,0,0.395,0.174,0.395,0.48c0,0.454-0.531,0.563-0.531,0.854c0,0.27,0.191,0.516,0.627,0.516
	c0.22,0,0.383-0.164,0.542-0.366c-0.135-0.127-0.211-0.316-0.211-0.515c0-0.313,0.193-0.572,0.464-0.572
	c0.125,0,0.235,0.06,0.317,0.142c0.227-0.492,0.384-1.006,0.384-1.322c0-0.41-0.173-0.478-0.288-0.478
	c-0.31,0-0.407,0.603-0.755,0.603c-0.326,0-0.436-0.367-0.436-0.408c0-0.024,0.023-0.035,0.052-0.035
	c0.63,0,0.495-0.663,1.223-0.663c0.679,0,1.004,0.483,1.004,0.971c0,1.02-1.078,1.727-1.078,2.529c0,0.358,0.249,0.427,0.413,0.427
	c0.081,0,0.188-0.038,0.311-0.106c-0.038-0.086-0.054-0.16-0.054-0.264c0-0.277,0.189-0.504,0.405-0.504
	c0.136,0,0.25,0.072,0.334,0.188c0.364-0.401,0.673-0.926,0.673-1.397c0-0.242-0.109-0.306-0.187-0.306
	c-0.176,0-0.181,0.236-0.418,0.236c-0.177,0-0.285-0.218-0.285-0.346c0-0.033,0.049-0.021,0.097-0.021
	c0.387,0,0.314-0.295,0.769-0.295c0.153,0,0.669,0.082,0.669,0.813c0,1.106-1.367,1.44-1.051,2.293
	c-0.581-0.084-0.574,0.479-0.584,1.493c0,0-1.131-0.385-3.136-0.385s-3.136,0.385-3.136,0.385c-0.012-1.014-0.004-1.577-0.585-1.493
	c0.317-0.853-1.051-1.187-1.051-2.293C26.108,80.645,26.625,80.563,26.778,80.563z M23.932,85.971
	c0.011-0.055,0.059-0.074,0.08,0.008c0.133,0.481-0.208,0.707-0.541,0.707c-0.367,0-0.573-0.263-1.097-0.353
	c-0.23-0.039-0.389-0.003-0.389-0.071c0-0.07,0.339-0.07,0.389-0.07c0.544,0,0.618,0.119,0.964,0.119
	C23.617,86.311,23.881,86.186,23.932,85.971z M18.004,87.605c0.409,0.207,0.631-0.233,0.532-0.688
	c-0.057-0.253-0.278-0.938,0.278-1.497c0.547,0.313,0.916-0.199,0.822-0.449c-0.025-0.066-0.068-0.076-0.068,0.008
	c0,0.174-0.176,0.301-0.303,0.301c-0.22,0-0.624-0.248-0.657-0.623c0.566-0.368,1.522-0.221,1.712,0.48
	c0.023,0.088,0.13,0.078,0.123-0.01c-0.003-0.062-0.028-0.476-0.441-0.685c-0.372-0.188-0.236-0.465-0.139-0.563
	c0.04-0.041,0.116-0.032,0.093,0.009c-0.145,0.248,0.164,0.359,0.59,0.307c0.9-0.118,1.198,0.217,1.246,0.447
	c0.196,0.051,0.963,0.479,0.963,0.642c0,0.049-0.044,0.161-0.117,0.194c0,0,0.018,0.326-0.221,0.539
	c-0.958-0.58-1.226-0.039-1.125,0.344c0,0,0.169,0.141,0.813,0.141c0,0-0.03,0.232-0.085,0.3c0,0,0.148,0.186,0.043,0.354
	c0,0-0.331-0.247-0.903-0.223c0,0-0.366,0.56,0.992,0.82c1.363,0.262,1.794,1.549,1.794,2.253c0,0.034-0.015,0.054-0.046,0.048
	c-1.101-0.205-1.605,0.938-3.034,0.807c0.123-0.334-0.014-0.687-0.014-0.687c-0.113,0.304-0.383,0.499-0.575,0.604
	c-0.508-0.113-0.842-0.356-0.919-0.502c0,0,0.54-0.446,0.188-1.252c0,0-0.339,0.537-1.039,0.244
	c-0.063-0.024-0.048-0.065-0.006-0.08c0.947-0.309,0.33-1.105,0.272-1.188c-0.438,0.246-0.812-0.077-0.812-0.362
	C17.962,87.589,17.982,87.598,18.004,87.605z M14.662,88.57c-0.021-0.045,0.033-0.076,0.062-0.021
	c0.074,0.146,0.207,0.529,0.739,0.529c0.005,0,1.088,0.002,1.271,0.002c1.42,0,1.551,1.146,1.551,1.43
	c0,1.163-1.479,1.67-1.479,2.85c0,0.277,0.141,0.74,0.905,0.74c0.313,0,0.645-0.091,0.844-0.176c0,0,0.341-2.068,1.343-2.783
	c0,0,1.174,0.568,2.335-0.061c0.889-0.48,1.307-0.804,2.084-0.265c0.778,0.537,1.458,1.115,1.543,1.102l0.187-0.036v-4.648
	c-0.361-0.039-0.386,0.285-0.37,0.369c0.02,0.109,0.139,0.193-0.109,0.563c-0.02,0.024-0.048,0.016-0.051-0.017
	c-0.01-0.094-0.058-0.25-0.184-0.25c-0.122,0-0.674,0.416-1.146,0.89c0,0-0.271-0.818-0.922-1.071
	c0.369-0.057,1.963-0.442,1.963-1.141c0-0.233,0.264-0.287,0.436-0.272c0.007-0.021,0.268-0.641,0.754-0.316
	c0.025,0.018,0.019,0.055-0.009,0.063c-0.216,0.05-0.308,0.271-0.315,0.515c0.175-0.055,0.567-0.168,1.112-0.287v1.482h0.653v-1.611
	c0.834-0.149,1.885-0.28,3.022-0.28c2.346,0,4.324,0.555,4.789,0.696c-0.009-0.242-0.102-0.465-0.315-0.515
	c-0.027-0.008-0.035-0.045-0.009-0.063c0.486-0.322,0.747,0.295,0.755,0.316c0.171-0.015,0.435,0.039,0.435,0.272
	c0,0.695,1.594,1.084,1.963,1.141c-0.651,0.253-0.922,1.071-0.922,1.071c-0.474-0.474-1.026-0.89-1.147-0.89
	c-0.125,0-0.173,0.156-0.183,0.25c-0.003,0.031-0.032,0.041-0.052,0.017c-0.247-0.369-0.129-0.453-0.108-0.563
	c0.017-0.084-0.009-0.408-0.37-0.369v4.648l0.186,0.036c0.085,0.017,0.765-0.563,1.543-1.102s1.196-0.217,2.084,0.265
	c1.161,0.629,2.336,0.061,2.336,0.061c1.001,0.715,1.344,2.783,1.344,2.783c0.198,0.085,0.528,0.176,0.843,0.176
	c0.765,0,0.905-0.463,0.905-0.74c0-1.18-1.478-1.687-1.478-2.85c0-0.281,0.13-1.43,1.549-1.43c0.183,0,1.267-0.002,1.271-0.002
	c0.532,0,0.664-0.384,0.738-0.529c0.027-0.056,0.083-0.023,0.062,0.021c-0.041,0.098,0.062,0.244,0.062,0.541
	c0,0.473-0.278,0.757-0.795,0.757c-0.233,0-0.456-0.066-0.527-0.109c-0.048-0.027-0.074,0.018-0.051,0.045
	c0.226,0.262,0.243,0.754,0.15,0.875c-0.021,0.028-0.05,0.02-0.055-0.004c-0.125-0.498-0.592-0.97-1.222-0.97
	c-0.771,0-0.768,0.652-0.768,0.812c0,0.947,1.663,1.644,1.663,2.943c0,1.319-1.395,1.604-2.203,1.395
	c0.048,1.321,1.562,1.771,1.607,0.826c0.003-0.045,0.036-0.056,0.061,0.004c0.191,0.467,0.116,0.879-0.473,1.008
	c-0.041,0.013-0.021,0.033,0.016,0.059c0.583,0.372,0.268,1.828,0.238,2.258c-0.044,0.617,0.57,0.543,0.621,0.523
	c0.023-0.01,0.049,0.005,0.011,0.054c-0.436,0.534-0.974,0.046-0.974,0.046c-0.407,0.127-0.155,0.474,0.117,0.656
	c0.042,0.027,0.037,0.056-0.008,0.06c-0.061,0.004-0.689,0.057-0.802-0.445c-0.279,0.334-0.688,0.213-0.773,0.168
	c-0.122-0.062-0.711-0.274-0.771,0.388c-0.004,0.049-0.032,0.018-0.051-0.009c-0.445-0.559,0.032-0.904,0.297-0.944
	c-0.022-0.031-0.379-0.327-0.7,0.083c-0.021,0.027-0.042,0.034-0.046-0.022c-0.037-0.709,0.542-0.772,0.915-0.465
	c0.019-0.074,0.142-0.474-0.422-0.459c-0.014,0-0.041-0.021-0.012-0.049c0.438-0.463,0.799-0.041,0.883,0.059
	c0.196,0.23,0.682,0.142,0.727,0.136c-0.151-2.472-2.328-1.597-2.627-2.796c-0.014-0.063-0.042-0.038-0.049-0.018
	c-0.082,0.293-0.82,0.334-0.956-0.244c-0.008-0.035-0.003-0.062,0.023-0.035c0.629,0.627,2.048-1.338,0.111-2.936
	c-1.651-1.363-3.133-0.604-3.695-0.154c-0.03,0.196,0.087,0.26,0.162,0.285c0.026,0.008,0.035,0.032-0.008,0.049
	c-0.157,0.062-0.379,0.041-0.482-0.104c-0.355,0.248-0.051,0.561,0.093,0.646c0.036,0.021,0.021,0.047-0.01,0.053
	c-0.325,0.06-0.594-0.272-0.607-0.465l-0.055,0.029V94.5c0,1.997-2.305,2.272-4.834,3.969c-2.53-1.693-4.835-1.972-4.835-3.969
	v-1.404l-0.055-0.029c-0.014,0.19-0.281,0.522-0.607,0.465c-0.03-0.006-0.046-0.029-0.009-0.053
	c0.143-0.086,0.446-0.397,0.092-0.646c-0.104,0.146-0.326,0.166-0.483,0.104c-0.043-0.017-0.033-0.041-0.008-0.049
	c0.076-0.025,0.193-0.089,0.164-0.285c-0.563-0.447-2.044-1.209-3.696,0.154c-1.936,1.598-0.517,3.563,0.112,2.936
	c0.026-0.025,0.03,0,0.023,0.035c-0.136,0.578-0.874,0.537-0.956,0.244c-0.006-0.021-0.035-0.048-0.048,0.018
	c-0.3,1.199-2.476,0.324-2.628,2.796c0.045,0.006,0.531,0.097,0.728-0.136c0.083-0.1,0.445-0.521,0.883-0.059
	c0.028,0.028,0.002,0.049-0.012,0.049c-0.565-0.015-0.441,0.385-0.423,0.459c0.375-0.31,0.952-0.244,0.916,0.465
	c-0.004,0.059-0.024,0.051-0.046,0.022c-0.321-0.41-0.679-0.114-0.7-0.083c0.265,0.04,0.743,0.387,0.297,0.944
	c-0.02,0.025-0.047,0.058-0.05,0.009c-0.06-0.662-0.649-0.447-0.771-0.388c-0.086,0.045-0.496,0.166-0.774-0.168
	c-0.112,0.502-0.741,0.449-0.803,0.445c-0.046-0.004-0.049-0.031-0.007-0.06c0.271-0.184,0.523-0.529,0.117-0.656
	c0,0-0.538,0.488-0.974-0.046c-0.039-0.049-0.016-0.063,0.011-0.054c0.05,0.02,0.665,0.094,0.621-0.523
	c-0.029-0.43-0.345-1.886,0.238-2.258c0.036-0.024,0.056-0.046,0.016-0.059c-0.589-0.129-0.665-0.541-0.473-1.008
	c0.023-0.06,0.057-0.049,0.061-0.004c0.046,0.945,1.559,0.495,1.606-0.826c-0.81,0.209-2.203-0.074-2.203-1.395
	c0-1.304,1.663-1.996,1.663-2.943c0-0.158,0.004-0.812-0.768-0.812c-0.629,0-1.097,0.472-1.221,0.97
	c-0.005,0.022-0.033,0.032-0.055,0.004c-0.094-0.121-0.075-0.613,0.149-0.875c0.022-0.027-0.003-0.072-0.051-0.045
	c-0.072,0.043-0.293,0.109-0.528,0.109c-0.518,0-0.795-0.284-0.795-0.757C14.6,88.814,14.702,88.667,14.662,88.57z"/>
<rect x="30.88" y="95.496" fill="#542888" width="0.654" height="1.813"/>
<g enable-background="new    ">
	<path fill="#542888" d="M58.222,87.991v-0.21c0.413-0.12,0.636-0.344,0.669-0.669l0.503-5.82l-0.659-0.2V80.76
		c0.394-0.052,0.909-0.078,1.547-0.078h0.409l1.793,5.528l0.014-0.001l1.729-5.527h0.488c0.566,0,1.027,0.026,1.382,0.078v0.332
		l-0.698,0.171l0.508,6.274l0.649,0.127v0.249c-0.279,0.127-0.646,0.19-1.103,0.19c-0.5,0-0.915-0.037-1.246-0.112v-0.22
		c0.443-0.107,0.663-0.369,0.659-0.786c0-0.022,0-0.047,0-0.073l-0.321-5.181l-0.028-0.015l-2.029,6.343l-0.399,0.063l-2.053-6.381
		l-0.01,0.01l-0.361,5.727l0.75,0.186v0.249c-0.426,0.127-0.866,0.19-1.322,0.19C58.83,88.104,58.541,88.067,58.222,87.991z"/>
	<path fill="#542888" d="M67.267,83.021v-0.239c0.502-0.146,0.955-0.22,1.358-0.22h0.362l-0.06,0.62v4.331l0.645,0.171v0.22
		c-0.362,0.127-0.803,0.188-1.321,0.186c-0.339,0-0.623-0.032-0.852-0.098v-0.19c0.404-0.153,0.604-0.359,0.601-0.62v-3.848
		L67.267,83.021z M67.873,80.872c0-0.186,0.062-0.345,0.185-0.479s0.277-0.2,0.462-0.2c0.173,0,0.317,0.056,0.432,0.169
		c0.115,0.111,0.172,0.263,0.172,0.451c0,0.192-0.062,0.356-0.187,0.493c-0.124,0.137-0.276,0.205-0.456,0.205
		c-0.172,0-0.316-0.061-0.433-0.181C67.931,81.211,67.873,81.058,67.873,80.872z"/>
	<path fill="#542888" d="M70.358,83.003v-0.239c0.488-0.135,0.943-0.202,1.364-0.202h0.272v0.597
		c0.427-0.411,0.992-0.616,1.693-0.616c0.487,0,0.874,0.148,1.16,0.444s0.429,0.73,0.429,1.304v3.193l0.601,0.171v0.22
		c-0.32,0.127-0.72,0.188-1.199,0.186c-0.294,0-0.542-0.032-0.744-0.098v-0.19c0.277-0.127,0.415-0.381,0.415-0.762v-2.168
		c0-1.025-0.38-1.538-1.14-1.538c-0.479,0-0.874,0.115-1.184,0.347v3.833l0.645,0.171v0.22c-0.362,0.127-0.803,0.188-1.321,0.186
		c-0.339,0-0.623-0.032-0.852-0.098v-0.19c0.167-0.059,0.309-0.145,0.426-0.259s0.175-0.234,0.175-0.361v-3.848L70.358,83.003z"/>
	<path fill="#542888" d="M76.633,83.021v-0.239c0.502-0.146,0.955-0.22,1.358-0.22h0.362l-0.06,0.62v4.331l0.645,0.171v0.22
		c-0.362,0.127-0.803,0.188-1.321,0.186c-0.339,0-0.623-0.032-0.852-0.098v-0.19c0.404-0.153,0.604-0.359,0.601-0.62v-3.848
		L76.633,83.021z M77.238,80.872c0-0.186,0.062-0.345,0.185-0.479s0.277-0.2,0.462-0.2c0.173,0,0.317,0.056,0.432,0.169
		c0.115,0.111,0.172,0.263,0.172,0.451c0,0.192-0.062,0.356-0.187,0.493c-0.124,0.137-0.276,0.205-0.456,0.205
		c-0.172,0-0.316-0.061-0.433-0.181C77.296,81.211,77.238,81.058,77.238,80.872z"/>
	<path fill="#542888" d="M79.684,87.24c0-0.191,0.036-0.348,0.107-0.468c0.503,0.478,1.032,0.719,1.586,0.722
		c0.31,0,0.547-0.066,0.713-0.2c0.166-0.133,0.249-0.303,0.249-0.51c0-0.206-0.07-0.379-0.21-0.52
		c-0.141-0.14-0.398-0.29-0.774-0.453l-0.573-0.239c-0.661-0.292-0.992-0.761-0.992-1.404c0-0.47,0.183-0.869,0.549-1.198
		c0.366-0.33,0.835-0.495,1.407-0.495c0.844,0,1.266,0.24,1.266,0.722c0,0.146-0.019,0.307-0.057,0.479
		c-0.416-0.292-0.847-0.438-1.292-0.438c-0.346,0-0.611,0.066-0.795,0.2c-0.185,0.133-0.277,0.303-0.277,0.51
		c0,0.206,0.065,0.376,0.196,0.51c0.13,0.133,0.364,0.263,0.7,0.39l0.607,0.239c0.402,0.159,0.688,0.349,0.858,0.568
		c0.17,0.219,0.255,0.503,0.255,0.851c0,0.449-0.194,0.839-0.583,1.167c-0.389,0.328-0.892,0.492-1.509,0.492
		C80.162,88.159,79.684,87.852,79.684,87.24z"/>
	<path fill="#542888" d="M83.962,83.363v-0.371l1.224-1.221l0.378-0.049l-0.039,1.03h1.499l-0.083,0.61h-1.46l-0.02,1.444
		c-0.006,0.319-0.01,0.763-0.01,1.331c0,0.829,0.231,1.243,0.693,1.243c0.319,0,0.602-0.097,0.85-0.289l0.107,0.039
		c-0.045,0.675-0.456,1.012-1.23,1.012c-0.463,0-0.804-0.128-1.021-0.384s-0.326-0.656-0.326-1.2c0-0.065,0.013-0.623,0.039-1.674
		l0.029-1.522H83.962z"/>
	<path fill="#542888" d="M87.487,85.554c0-0.942,0.239-1.689,0.717-2.241c0.479-0.553,1.039-0.829,1.682-0.829
		c0.618,0,1.103,0.188,1.456,0.566c0.353,0.377,0.53,0.898,0.53,1.563c0,0.297-0.003,0.543-0.01,0.737h-3.384
		c0,0.631,0.159,1.13,0.478,1.498s0.721,0.553,1.208,0.553c0.599,0,1.141-0.166,1.628-0.498c0.026,0.083,0.04,0.185,0.04,0.304
		c0,0.258-0.181,0.481-0.544,0.671c-0.363,0.19-0.841,0.285-1.436,0.285c-0.669,0-1.231-0.239-1.685-0.719
		S87.487,86.334,87.487,85.554z M88.508,84.74h2.437c0-0.54-0.105-0.949-0.314-1.229c-0.209-0.277-0.491-0.417-0.845-0.417
		c-0.312,0-0.603,0.164-0.873,0.493S88.508,84.3,88.508,84.74z"/>
	<path fill="#542888" d="M92.609,83.021v-0.249c0.488-0.14,0.944-0.21,1.367-0.21h0.273v0.801h0.01l0.317-0.352
		c0.313-0.332,0.646-0.498,1.001-0.498c0.4,0,0.601,0.163,0.601,0.488c0,0.228-0.063,0.454-0.19,0.679
		c-0.221-0.173-0.454-0.259-0.698-0.259c-0.345,0-0.682,0.156-1.011,0.469v3.623l0.796,0.171v0.22
		c-0.369,0.127-0.84,0.188-1.414,0.186c-0.382,0-0.685-0.032-0.91-0.098v-0.19c0.167-0.059,0.309-0.145,0.426-0.259
		s0.175-0.234,0.175-0.361v-3.848L92.609,83.021z"/>
	<path fill="#542888" d="M96.447,83.021v-0.239c0.502-0.146,0.955-0.22,1.358-0.22h0.362l-0.06,0.62v4.331l0.645,0.171v0.22
		c-0.362,0.127-0.803,0.188-1.321,0.186c-0.339,0-0.623-0.032-0.852-0.098v-0.19c0.404-0.153,0.604-0.359,0.601-0.62v-3.848
		L96.447,83.021z M97.052,80.872c0-0.186,0.062-0.345,0.185-0.479s0.277-0.2,0.462-0.2c0.173,0,0.317,0.056,0.432,0.169
		c0.115,0.111,0.172,0.263,0.172,0.451c0,0.192-0.062,0.356-0.187,0.493c-0.124,0.137-0.276,0.205-0.456,0.205
		c-0.172,0-0.316-0.061-0.433-0.181C97.111,81.211,97.052,81.058,97.052,80.872z"/>
	<path fill="#542888" d="M99.567,85.554c0-0.942,0.239-1.689,0.717-2.241c0.479-0.553,1.039-0.829,1.682-0.829
		c0.618,0,1.103,0.188,1.456,0.566c0.353,0.377,0.53,0.898,0.53,1.563c0,0.297-0.003,0.543-0.01,0.737h-3.384
		c0,0.631,0.159,1.13,0.478,1.498s0.721,0.553,1.208,0.553c0.599,0,1.141-0.166,1.628-0.498c0.026,0.083,0.04,0.185,0.04,0.304
		c0,0.258-0.181,0.481-0.544,0.671c-0.363,0.19-0.841,0.285-1.436,0.285c-0.669,0-1.231-0.239-1.685-0.719
		S99.567,86.334,99.567,85.554z M100.588,84.74h2.437c0-0.54-0.105-0.949-0.314-1.229c-0.209-0.277-0.491-0.417-0.845-0.417
		c-0.312,0-0.603,0.164-0.873,0.493S100.588,84.3,100.588,84.74z"/>
	<path fill="#542888" d="M106.291,82.84v-0.278h2.178v0.278l-0.649,0.273l1.23,3.608h0.01l1.27-3.569l-0.65-0.313v-0.278h1.754
		v0.278l-0.322,0.264l-2.032,5.029l-0.381,0.02l-1.938-4.98L106.291,82.84z"/>
	<path fill="#542888" d="M111.609,86.909c0-0.529,0.268-0.973,0.802-1.33c0.534-0.358,1.255-0.537,2.161-0.537v-0.312
		c0-0.591-0.076-0.986-0.229-1.186c-0.152-0.2-0.412-0.3-0.779-0.3c-0.649,0-1.221,0.247-1.714,0.74
		c-0.026-0.113-0.04-0.228-0.04-0.341c0-0.777,0.625-1.164,1.872-1.161c0.58,0,1.032,0.136,1.356,0.408s0.486,0.646,0.486,1.123
		c0,0.101-0.01,0.305-0.027,0.611s-0.027,0.485-0.027,0.538l-0.029,1.853c0.082,0.223,0.231,0.416,0.449,0.582
		c-0.179,0.219-0.434,0.409-0.766,0.573c-0.215-0.132-0.393-0.316-0.533-0.554c-0.165,0.157-0.388,0.287-0.667,0.39
		s-0.567,0.154-0.866,0.154c-0.424,0-0.77-0.119-1.042-0.356C111.743,87.568,111.609,87.269,111.609,86.909z M112.599,86.728
		c0,0.242,0.075,0.431,0.225,0.564s0.37,0.201,0.662,0.201c0.387,0,0.748-0.104,1.086-0.314V85.57c-0.609,0-1.092,0.111-1.443,0.334
		C112.776,86.126,112.599,86.401,112.599,86.728z"/>
	<path fill="#542888" d="M116.726,83.003v-0.239c0.488-0.135,0.942-0.202,1.363-0.202h0.271v0.597
		c0.428-0.411,0.992-0.616,1.693-0.616c0.487,0,0.874,0.148,1.16,0.444c0.285,0.296,0.428,0.73,0.428,1.304v3.193l0.602,0.171v0.22
		c-0.32,0.127-0.721,0.188-1.199,0.186c-0.295,0-0.543-0.032-0.744-0.098v-0.19c0.276-0.127,0.414-0.381,0.414-0.762v-2.168
		c0-1.025-0.379-1.538-1.14-1.538c-0.479,0-0.874,0.115-1.185,0.347v3.833l0.645,0.171v0.22c-0.361,0.127-0.803,0.188-1.32,0.186
		c-0.34,0-0.623-0.032-0.852-0.098v-0.19c0.167-0.059,0.309-0.145,0.426-0.259c0.116-0.114,0.174-0.234,0.174-0.361v-3.848
		L116.726,83.003z"/>
	<path fill="#542888" d="M124.753,81.082v-0.239c0.374-0.12,0.75-0.181,1.127-0.181c0.368,0,0.719,0.032,1.051,0.098v0.22
		c-0.264,0.075-0.396,0.227-0.396,0.454c0,0.078,0.016,0.164,0.045,0.259l1.361,4.668h0.02l1.48-5.068l-0.719-0.2v-0.239
		c0.434-0.127,0.844-0.19,1.23-0.19c0.268,0,0.526,0.036,0.777,0.107v0.22c-0.307,0.114-0.523,0.378-0.65,0.791l-2.016,6.279
		l-0.465,0.029l-2.227-6.807L124.753,81.082z"/>
	<path fill="#542888" d="M130.788,85.539c0-0.908,0.264-1.646,0.793-2.214c0.528-0.567,1.16-0.852,1.895-0.852
		c0.712,0,1.303,0.243,1.773,0.73c0.47,0.486,0.705,1.122,0.705,1.907c0,0.898-0.268,1.633-0.801,2.204s-1.156,0.856-1.868,0.856
		s-1.306-0.237-1.782-0.711S130.788,86.347,130.788,85.539z M131.827,85.433c0,0.657,0.146,1.167,0.439,1.528
		s0.654,0.542,1.087,0.542c0.419,0,0.784-0.201,1.095-0.603c0.311-0.402,0.465-0.964,0.465-1.688c0-0.638-0.147-1.143-0.443-1.514
		c-0.295-0.371-0.654-0.557-1.077-0.557s-0.789,0.202-1.1,0.607C131.984,84.156,131.827,84.716,131.827,85.433z"/>
	<path fill="#542888" d="M136.794,80.262v-0.249c0.472-0.14,0.928-0.21,1.367-0.21h0.361l-0.059,0.64v7.07l0.645,0.171v0.22
		c-0.363,0.127-0.803,0.188-1.322,0.186c-0.339,0-0.623-0.032-0.852-0.098v-0.19c0.168-0.059,0.31-0.145,0.426-0.259
		c0.117-0.114,0.176-0.234,0.176-0.361V80.57L136.794,80.262z"/>
	<path fill="#542888" d="M139.831,80.262v-0.249c0.488-0.14,0.943-0.21,1.367-0.21h0.381l-0.068,0.64v4.561l0.629-0.542
		c0.319-0.273,0.596-0.583,0.83-0.931c0.234-0.346,0.352-0.646,0.352-0.9c0.18-0.059,0.38-0.088,0.602-0.088
		c0.159,0,0.313,0.032,0.459,0.098c-0.02,0.267-0.16,0.582-0.42,0.945c-0.261,0.362-0.639,0.718-1.133,1.066l-0.4,0.278l1.752,2.144
		c0.307,0.361,0.59,0.54,0.85,0.537v0.239c-0.24,0.159-0.524,0.239-0.852,0.239s-0.597-0.144-0.809-0.43l-1.859-2.446v2.3
		l0.605,0.181v0.22c-0.375,0.12-0.807,0.179-1.293,0.176c-0.339,0-0.627-0.032-0.865-0.098v-0.19
		c0.174-0.059,0.32-0.145,0.442-0.259s0.183-0.234,0.183-0.361V80.57L139.831,80.262z"/>
	<path fill="#542888" d="M145.163,87.24c0-0.191,0.035-0.348,0.107-0.468c0.502,0.478,1.031,0.719,1.586,0.722
		c0.31,0,0.547-0.066,0.713-0.2c0.166-0.133,0.25-0.303,0.25-0.51c0-0.206-0.07-0.379-0.211-0.52
		c-0.141-0.14-0.398-0.29-0.773-0.453l-0.573-0.239c-0.661-0.292-0.991-0.761-0.991-1.404c0-0.47,0.183-0.869,0.549-1.198
		c0.366-0.33,0.835-0.495,1.407-0.495c0.844,0,1.266,0.24,1.266,0.722c0,0.146-0.019,0.307-0.058,0.479
		c-0.416-0.292-0.846-0.438-1.291-0.438c-0.347,0-0.611,0.066-0.796,0.2c-0.185,0.133-0.276,0.303-0.276,0.51
		c0,0.206,0.064,0.376,0.195,0.51c0.131,0.133,0.363,0.263,0.7,0.39l0.607,0.239c0.401,0.159,0.688,0.349,0.858,0.568
		c0.17,0.219,0.256,0.503,0.256,0.851c0,0.449-0.195,0.839-0.584,1.167s-0.892,0.492-1.509,0.492
		C145.64,88.159,145.163,87.852,145.163,87.24z"/>
	<path fill="#542888" d="M149.308,89.514c0-0.295,0.1-0.554,0.299-0.776c0.199-0.224,0.459-0.381,0.78-0.474v-0.01
		c-0.413-0.162-0.622-0.464-0.624-0.905c0-0.219,0.072-0.428,0.216-0.627s0.317-0.337,0.521-0.413v-0.021
		c-0.277-0.114-0.515-0.314-0.713-0.6c-0.198-0.284-0.297-0.615-0.297-0.992c0-0.625,0.221-1.151,0.664-1.58
		c0.443-0.428,0.976-0.642,1.599-0.642c0.228,0,0.466,0.042,0.712,0.127c0.245,0.084,0.418,0.175,0.52,0.271
		c0.106-0.107,0.256-0.199,0.447-0.274c0.191-0.076,0.379-0.114,0.563-0.114c0.183,0,0.351,0.021,0.504,0.065l-0.078,0.721
		c-0.388-0.081-0.803-0.12-1.246-0.117v0.01c0.189,0.146,0.344,0.332,0.463,0.558c0.119,0.225,0.18,0.451,0.18,0.679
		c0,0.657-0.228,1.199-0.682,1.625c-0.455,0.427-0.995,0.64-1.621,0.64c-0.255,0-0.491-0.051-0.71-0.151
		c-0.095,0.056-0.179,0.142-0.252,0.257s-0.11,0.227-0.11,0.335c0,0.37,0.244,0.556,0.729,0.556l1.595-0.01c0.014,0,0.028,0,0.045,0
		c0.467,0,0.827,0.102,1.082,0.305c0.265,0.209,0.396,0.51,0.396,0.904c0,0.547-0.27,1.017-0.811,1.407
		c-0.541,0.392-1.209,0.587-2.004,0.587c-0.686,0-1.217-0.124-1.596-0.373C149.498,90.232,149.308,89.909,149.308,89.514z
		 M150.177,89.315c0,0.246,0.129,0.452,0.385,0.619c0.258,0.167,0.611,0.25,1.063,0.25c0.526,0,0.957-0.108,1.292-0.325
		s0.502-0.468,0.502-0.753c0-0.463-0.279-0.694-0.84-0.694h-1.84c-0.162,0.081-0.296,0.205-0.402,0.374
		C150.231,88.953,150.177,89.13,150.177,89.315z M150.48,84.627c0,0.457,0.107,0.81,0.32,1.056c0.215,0.247,0.475,0.37,0.781,0.37
		c0.361,0,0.66-0.137,0.893-0.409c0.233-0.272,0.35-0.675,0.35-1.206c0-0.438-0.107-0.772-0.324-1.005
		c-0.218-0.232-0.489-0.349-0.815-0.349c-0.333,0-0.616,0.143-0.852,0.428S150.48,84.169,150.48,84.627z"/>
	<path fill="#542888" d="M154.835,85.554c0-0.942,0.24-1.689,0.718-2.241c0.479-0.553,1.039-0.829,1.683-0.829
		c0.617,0,1.102,0.188,1.455,0.566c0.354,0.377,0.529,0.898,0.529,1.563c0,0.297-0.003,0.543-0.01,0.737h-3.383
		c0,0.631,0.158,1.13,0.477,1.498s0.722,0.553,1.209,0.553c0.599,0,1.141-0.166,1.628-0.498c0.026,0.083,0.04,0.185,0.04,0.304
		c0,0.258-0.182,0.481-0.545,0.671c-0.362,0.19-0.841,0.285-1.436,0.285c-0.668,0-1.23-0.239-1.684-0.719
		C155.063,86.964,154.835,86.334,154.835,85.554z M155.857,84.74h2.436c0-0.54-0.104-0.949-0.314-1.229
		c-0.209-0.277-0.49-0.417-0.845-0.417c-0.312,0-0.603,0.164-0.872,0.493S155.857,84.3,155.857,84.74z"/>
	<path fill="#542888" d="M159.753,87.813l2.807-4.533h-1.338c-0.433,0-0.706,0.16-0.82,0.48l-0.098,0.271h-0.342l0.117-1.421
		l3.652,0.01l0.088,0.217l-2.768,4.485h1.41c0.28,0,0.488-0.032,0.625-0.097s0.241-0.17,0.313-0.317l0.182-0.367h0.313l-0.162,1.45
		h-3.891L159.753,87.813z"/>
	<path fill="#542888" d="M164.46,85.539c0-0.908,0.264-1.646,0.793-2.214c0.528-0.567,1.16-0.852,1.895-0.852
		c0.712,0,1.303,0.243,1.773,0.73c0.47,0.486,0.705,1.122,0.705,1.907c0,0.898-0.268,1.633-0.801,2.204s-1.156,0.856-1.868,0.856
		s-1.306-0.237-1.782-0.711S164.46,86.347,164.46,85.539z M165.499,85.433c0,0.657,0.146,1.167,0.439,1.528s0.654,0.542,1.087,0.542
		c0.419,0,0.784-0.201,1.095-0.603c0.311-0.402,0.465-0.964,0.465-1.688c0-0.638-0.147-1.143-0.443-1.514
		c-0.295-0.371-0.654-0.557-1.077-0.557s-0.789,0.202-1.1,0.607C165.656,84.156,165.499,84.716,165.499,85.433z"/>
	<path fill="#542888" d="M170.47,83.003v-0.239c0.488-0.135,0.943-0.202,1.364-0.202h0.272v0.597
		c0.427-0.411,0.991-0.616,1.692-0.616c0.487,0,0.874,0.148,1.159,0.444c0.286,0.296,0.43,0.73,0.43,1.304v3.193l0.6,0.171v0.22
		c-0.319,0.127-0.719,0.188-1.199,0.186c-0.293,0-0.541-0.032-0.744-0.098v-0.19c0.277-0.127,0.416-0.381,0.416-0.762v-2.168
		c0-1.025-0.381-1.538-1.141-1.538c-0.479,0-0.874,0.115-1.184,0.347v3.833l0.645,0.171v0.22c-0.363,0.127-0.803,0.188-1.322,0.186
		c-0.339,0-0.623-0.032-0.852-0.098v-0.19c0.168-0.059,0.31-0.145,0.426-0.259c0.117-0.114,0.176-0.234,0.176-0.361v-3.848
		L170.47,83.003z"/>
	<path fill="#542888" d="M176.769,85.643c0-0.98,0.263-1.748,0.787-2.305c0.523-0.557,1.172-0.835,1.943-0.835
		c0.313,0,0.572,0.022,0.781,0.068V80.57l-0.762-0.308v-0.249c0.484-0.14,0.953-0.21,1.402-0.21h0.369l-0.063,0.64v6.519
		c0.094,0.263,0.237,0.484,0.43,0.665c-0.192,0.178-0.459,0.359-0.801,0.546c-0.236-0.19-0.419-0.422-0.547-0.696
		c-0.186,0.191-0.417,0.35-0.693,0.477c-0.277,0.127-0.533,0.19-0.768,0.19c-0.592,0-1.087-0.229-1.484-0.687
		C176.968,86.998,176.769,86.394,176.769,85.643z M177.761,85.462c0,0.593,0.133,1.061,0.4,1.404
		c0.267,0.343,0.589,0.515,0.967,0.515c0.479,0,0.869-0.124,1.172-0.371v-3.77c-0.241-0.088-0.521-0.13-0.84-0.127
		c-0.508,0-0.918,0.202-1.23,0.605S177.761,84.703,177.761,85.462z"/>
	<path fill="#542888" d="M182.54,80.239V79.99c0.473-0.14,0.928-0.21,1.367-0.21h0.361l-0.059,0.64v2.729
		c0.434-0.404,0.988-0.606,1.664-0.606c0.494,0,0.882,0.146,1.164,0.439c0.283,0.293,0.424,0.729,0.424,1.309v3.193l0.602,0.171
		v0.22c-0.326,0.127-0.73,0.188-1.209,0.186c-0.308,0-0.553-0.032-0.734-0.098v-0.19c0.276-0.134,0.414-0.388,0.414-0.762v-2.168
		c0-1.025-0.387-1.538-1.159-1.538c-0.454,0-0.842,0.115-1.165,0.347v3.833l0.645,0.171v0.22c-0.361,0.127-0.803,0.188-1.32,0.186
		c-0.34,0-0.623-0.032-0.852-0.098v-0.19c0.403-0.153,0.604-0.359,0.6-0.62v-6.605L182.54,80.239z"/>
	<path fill="#542888" d="M188.845,85.554c0-0.942,0.238-1.689,0.717-2.241c0.479-0.553,1.039-0.829,1.682-0.829
		c0.618,0,1.104,0.188,1.456,0.566c0.353,0.377,0.53,0.898,0.53,1.563c0,0.297-0.004,0.543-0.01,0.737h-3.385
		c0,0.631,0.16,1.13,0.479,1.498s0.721,0.553,1.208,0.553c0.599,0,1.142-0.166,1.628-0.498c0.026,0.083,0.039,0.185,0.039,0.304
		c0,0.258-0.181,0.481-0.543,0.671c-0.363,0.19-0.842,0.285-1.436,0.285c-0.67,0-1.231-0.239-1.686-0.719
		C189.072,86.964,188.845,86.334,188.845,85.554z M189.865,84.74h2.438c0-0.54-0.105-0.949-0.314-1.229
		c-0.21-0.277-0.492-0.417-0.846-0.417c-0.313,0-0.604,0.164-0.873,0.493S189.865,84.3,189.865,84.74z"/>
	<path fill="#542888" d="M193.976,83.021v-0.239c0.502-0.146,0.955-0.22,1.359-0.22h0.361l-0.061,0.62v4.331l0.645,0.171v0.22
		c-0.361,0.127-0.803,0.188-1.32,0.186c-0.34,0-0.623-0.032-0.852-0.098v-0.19c0.403-0.153,0.604-0.359,0.6-0.62v-3.848
		L193.976,83.021z M194.581,80.872c0-0.186,0.063-0.345,0.186-0.479s0.277-0.2,0.461-0.2c0.174,0,0.318,0.056,0.432,0.169
		c0.115,0.111,0.172,0.263,0.172,0.451c0,0.192-0.062,0.356-0.186,0.493c-0.125,0.137-0.276,0.205-0.456,0.205
		c-0.172,0-0.315-0.061-0.433-0.181S194.581,81.058,194.581,80.872z"/>
	<path fill="#542888" d="M197.097,85.643c0-0.98,0.262-1.748,0.785-2.305c0.524-0.557,1.172-0.835,1.943-0.835
		c0.313,0,0.573,0.022,0.781,0.068V80.57l-0.762-0.308v-0.249c0.486-0.14,0.953-0.21,1.404-0.21h0.369l-0.064,0.64v6.519
		c0.095,0.263,0.238,0.484,0.43,0.665c-0.191,0.178-0.458,0.359-0.799,0.546c-0.237-0.19-0.42-0.422-0.549-0.696
		c-0.186,0.191-0.416,0.35-0.693,0.477c-0.276,0.127-0.531,0.19-0.766,0.19c-0.593,0-1.088-0.229-1.484-0.687
		C197.295,86.998,197.097,86.394,197.097,85.643z M198.087,85.462c0,0.593,0.134,1.061,0.4,1.404
		c0.268,0.343,0.59,0.515,0.967,0.515c0.479,0,0.869-0.124,1.172-0.371v-3.77c-0.24-0.088-0.521-0.13-0.84-0.127
		c-0.508,0-0.918,0.202-1.23,0.605S198.087,84.703,198.087,85.462z"/>
	<path fill="#542888" d="M203.025,89.412c0.465-0.495,0.697-1.048,0.697-1.66l-0.391-0.503c0.205-0.332,0.443-0.498,0.715-0.498
		c0.181,0,0.326,0.059,0.438,0.176s0.166,0.275,0.166,0.474c0,0.488-0.149,0.939-0.449,1.353s-0.59,0.659-0.869,0.737
		L203.025,89.412z"/>
</g>
<g enable-background="new    ">
	<path fill="#542888" d="M57.797,94.092v-0.239c0.394-0.127,0.784-0.19,1.172-0.19c0.407,0,0.742,0.032,1.006,0.098v0.22
		c-0.257,0.056-0.384,0.197-0.381,0.425c0,0.068,0.011,0.144,0.034,0.225l1.24,4.595l0.01,0.001l1.211-4.932l-0.601-0.191v-0.249
		c0.407-0.12,0.82-0.181,1.239-0.181c0.394,0,0.7,0.039,0.918,0.117v0.21c-0.163,0.059-0.243,0.181-0.239,0.366
		c0,0.068,0.01,0.144,0.029,0.225l1.099,4.619h0.01l1.26-4.907l-0.698-0.22v-0.239c0.413-0.12,0.813-0.181,1.201-0.181
		c0.273,0,0.519,0.036,0.737,0.107v0.21c-0.28,0.179-0.469,0.446-0.566,0.801l-1.87,6.27l-0.439,0.039l-1.592-6.016h-0.01
		l-1.573,5.977l-0.437,0.039l-2.129-6.797L57.797,94.092z"/>
	<path fill="#542888" d="M67.223,98.554c0-0.942,0.239-1.689,0.717-2.241c0.479-0.553,1.039-0.829,1.682-0.829
		c0.618,0,1.103,0.188,1.456,0.566c0.353,0.377,0.53,0.898,0.53,1.563c0,0.297-0.003,0.543-0.01,0.737h-3.384
		c0,0.631,0.159,1.13,0.478,1.498s0.721,0.553,1.208,0.553c0.599,0,1.141-0.166,1.628-0.498c0.026,0.083,0.04,0.185,0.04,0.304
		c0,0.258-0.181,0.481-0.544,0.671c-0.363,0.19-0.841,0.285-1.436,0.285c-0.669,0-1.231-0.239-1.685-0.719
		S67.223,99.334,67.223,98.554z M68.244,97.74h2.437c0-0.54-0.105-0.949-0.314-1.229c-0.209-0.277-0.491-0.417-0.845-0.417
		c-0.312,0-0.603,0.164-0.873,0.493S68.244,97.3,68.244,97.74z"/>
	<path fill="#542888" d="M72.345,93.262v-0.249c0.472-0.14,0.928-0.21,1.367-0.21h0.361l-0.059,0.64v7.07l0.645,0.171v0.22
		c-0.362,0.127-0.803,0.188-1.321,0.186c-0.339,0-0.623-0.032-0.852-0.098v-0.19c0.167-0.059,0.309-0.145,0.426-0.259
		s0.175-0.234,0.175-0.361V93.57L72.345,93.262z"/>
	<path fill="#542888" d="M75.187,100.813l2.808-4.533h-1.338c-0.433,0-0.707,0.16-0.82,0.48l-0.098,0.271h-0.342l0.117-1.421
		l3.652,0.01l0.088,0.217l-2.769,4.485h1.411c0.28,0,0.488-0.032,0.625-0.097s0.241-0.17,0.313-0.317l0.181-0.367h0.313l-0.161,1.45
		h-3.892L75.187,100.813z"/>
	<path fill="#542888" d="M79.841,96.021v-0.239c0.502-0.146,0.955-0.22,1.358-0.22h0.362l-0.06,0.62v4.331l0.645,0.171v0.22
		c-0.362,0.127-0.803,0.188-1.321,0.186c-0.339,0-0.623-0.032-0.852-0.098v-0.19c0.404-0.153,0.604-0.359,0.601-0.62v-3.848
		L79.841,96.021z M80.446,93.872c0-0.186,0.062-0.345,0.185-0.479s0.277-0.2,0.462-0.2c0.173,0,0.317,0.056,0.432,0.169
		c0.115,0.111,0.172,0.263,0.172,0.451c0,0.192-0.062,0.356-0.187,0.493c-0.124,0.137-0.276,0.205-0.456,0.205
		c-0.172,0-0.316-0.061-0.433-0.181C80.504,94.211,80.446,94.058,80.446,93.872z"/>
	<path fill="#542888" d="M82.629,103.321c0.273,0,0.507-0.153,0.701-0.459s0.291-0.732,0.291-1.279v-5.249l-0.742-0.313v-0.239
		c0.517-0.146,0.975-0.22,1.375-0.22h0.373l-0.078,0.64v5.122c0,1.634-0.425,2.449-1.274,2.446c-0.287,0-0.501-0.09-0.645-0.269
		V103.321z M83.503,93.872c0-0.186,0.059-0.345,0.176-0.479c0.118-0.134,0.272-0.2,0.465-0.2c0.171,0,0.315,0.056,0.433,0.169
		c0.118,0.111,0.176,0.263,0.176,0.451c0,0.192-0.062,0.356-0.186,0.493s-0.281,0.205-0.471,0.205c-0.17,0-0.312-0.061-0.424-0.181
		C83.559,94.211,83.503,94.058,83.503,93.872z"/>
	<path fill="#542888" d="M85.871,96.003v-0.239c0.488-0.135,0.943-0.202,1.364-0.202h0.272v0.597
		c0.427-0.411,0.992-0.616,1.693-0.616c0.487,0,0.874,0.148,1.16,0.444s0.429,0.73,0.429,1.304v3.193l0.601,0.171v0.22
		c-0.32,0.127-0.72,0.188-1.199,0.186c-0.294,0-0.542-0.032-0.744-0.098v-0.19c0.277-0.127,0.415-0.381,0.415-0.762v-2.168
		c0-1.025-0.38-1.538-1.14-1.538c-0.479,0-0.874,0.115-1.184,0.347v3.833l0.645,0.171v0.22c-0.362,0.127-0.803,0.188-1.321,0.186
		c-0.339,0-0.623-0.032-0.852-0.098v-0.19c0.167-0.059,0.309-0.145,0.426-0.259s0.175-0.234,0.175-0.361v-3.848L85.871,96.003z"/>
	<path fill="#542888" d="M94.396,98.554c0-0.942,0.239-1.689,0.717-2.241c0.479-0.553,1.039-0.829,1.682-0.829
		c0.618,0,1.103,0.188,1.456,0.566c0.353,0.377,0.53,0.898,0.53,1.563c0,0.297-0.003,0.543-0.01,0.737h-3.384
		c0,0.631,0.159,1.13,0.478,1.498s0.721,0.553,1.208,0.553c0.599,0,1.141-0.166,1.628-0.498c0.026,0.083,0.04,0.185,0.04,0.304
		c0,0.258-0.181,0.481-0.544,0.671c-0.363,0.19-0.841,0.285-1.436,0.285c-0.669,0-1.231-0.239-1.685-0.719
		S94.396,99.334,94.396,98.554z M95.417,97.74h2.437c0-0.54-0.105-0.949-0.314-1.229c-0.209-0.277-0.491-0.417-0.845-0.417
		c-0.312,0-0.603,0.164-0.873,0.493S95.417,97.3,95.417,97.74z"/>
	<path fill="#542888" d="M99.523,96.003v-0.239c0.488-0.135,0.943-0.202,1.364-0.202h0.272v0.597
		c0.427-0.411,0.992-0.616,1.693-0.616c0.487,0,0.874,0.148,1.16,0.444s0.429,0.73,0.429,1.304v3.193l0.601,0.171v0.22
		c-0.32,0.127-0.72,0.188-1.199,0.186c-0.294,0-0.542-0.032-0.744-0.098v-0.19c0.277-0.127,0.415-0.381,0.415-0.762v-2.168
		c0-1.025-0.38-1.538-1.14-1.538c-0.479,0-0.874,0.115-1.184,0.347v3.833l0.645,0.171v0.22c-0.362,0.127-0.803,0.188-1.321,0.186
		c-0.339,0-0.623-0.032-0.852-0.098v-0.19c0.167-0.059,0.309-0.145,0.426-0.259s0.175-0.234,0.175-0.361v-3.848L99.523,96.003z"/>
	<path fill="#542888" d="M108.019,100.918v-1.665h0.332l0.078,0.289c0.082,0.331,0.229,0.568,0.442,0.714s0.533,0.218,0.96,0.218
		c0.426,0,0.781-0.112,1.064-0.338c0.283-0.225,0.424-0.508,0.424-0.85c0-0.47-0.33-0.899-0.99-1.29l-1.08-0.65
		c-0.693-0.417-1.04-0.998-1.04-1.744c0-0.566,0.229-1.041,0.688-1.424s1.025-0.574,1.699-0.574c0.629,0,1.159,0.095,1.592,0.285
		l-0.102,1.585h-0.332l-0.049-0.226c-0.074-0.332-0.201-0.562-0.38-0.69c-0.179-0.128-0.46-0.192-0.847-0.192
		c-0.394,0-0.716,0.103-0.967,0.308c-0.25,0.205-0.375,0.445-0.375,0.721c0,0.475,0.28,0.861,0.84,1.159l1.133,0.625
		c0.801,0.431,1.201,1.021,1.201,1.773c0,0.591-0.253,1.104-0.758,1.539c-0.504,0.435-1.1,0.652-1.787,0.652
		C109.054,101.143,108.472,101.068,108.019,100.918z"/>
	<path fill="#542888" d="M113.097,96.024v-0.25c0.488-0.142,0.943-0.212,1.364-0.212h0.272v0.531
		c0.186-0.174,0.414-0.313,0.685-0.42s0.533-0.16,0.788-0.16c0.602,0,1.102,0.209,1.497,0.628c0.396,0.418,0.595,1.002,0.595,1.751
		c0,1.016-0.271,1.808-0.814,2.377s-1.204,0.854-1.982,0.854c-0.281,0-0.523-0.05-0.729-0.148v2.225l0.752,0.155v0.249
		c-0.375,0.12-0.857,0.179-1.443,0.176c-0.34,0-0.623-0.032-0.852-0.098v-0.197c0.167-0.052,0.31-0.134,0.428-0.244
		s0.178-0.235,0.178-0.375v-6.528L113.097,96.024z M114.763,100.372c0.179,0.052,0.422,0.079,0.729,0.082
		c0.541,0,0.979-0.19,1.313-0.571s0.501-0.959,0.501-1.734c0-0.587-0.145-1.047-0.436-1.378c-0.289-0.331-0.643-0.496-1.057-0.496
		s-0.764,0.087-1.051,0.262V100.372z"/>
	<path fill="#542888" d="M119.171,98.539c0-0.908,0.265-1.646,0.793-2.214c0.529-0.567,1.161-0.852,1.896-0.852
		c0.712,0,1.304,0.243,1.772,0.73c0.471,0.486,0.705,1.122,0.705,1.907c0,0.898-0.266,1.633-0.8,2.204s-1.156,0.856-1.868,0.856
		c-0.711,0-1.306-0.237-1.783-0.711C119.409,99.988,119.171,99.347,119.171,98.539z M120.212,98.433
		c0,0.657,0.146,1.167,0.438,1.528s0.655,0.542,1.087,0.542c0.42,0,0.784-0.201,1.094-0.603c0.311-0.402,0.467-0.964,0.467-1.688
		c0-0.638-0.148-1.143-0.444-1.514s-0.655-0.557-1.077-0.557s-0.789,0.202-1.1,0.607S120.212,97.716,120.212,98.433z"/>
	<path fill="#542888" d="M125.177,96.021v-0.249c0.488-0.14,0.944-0.21,1.367-0.21h0.273v0.801h0.01l0.318-0.352
		c0.313-0.332,0.646-0.498,1-0.498c0.4,0,0.602,0.163,0.602,0.488c0,0.228-0.064,0.454-0.191,0.679
		c-0.221-0.173-0.453-0.259-0.697-0.259c-0.346,0-0.683,0.156-1.012,0.469v3.623l0.797,0.171v0.22
		c-0.369,0.127-0.84,0.188-1.414,0.186c-0.383,0-0.686-0.032-0.91-0.098v-0.19c0.167-0.059,0.309-0.145,0.426-0.259
		c0.116-0.114,0.174-0.234,0.174-0.361v-3.848L125.177,96.021z"/>
	<path fill="#542888" d="M129.04,96.363v-0.371l1.223-1.221l0.379-0.049l-0.039,1.03h1.498l-0.082,0.61h-1.461l-0.02,1.444
		c-0.006,0.319-0.01,0.763-0.01,1.331c0,0.829,0.231,1.243,0.693,1.243c0.319,0,0.603-0.097,0.85-0.289l0.107,0.039
		c-0.045,0.675-0.455,1.012-1.23,1.012c-0.463,0-0.804-0.128-1.021-0.384c-0.217-0.256-0.326-0.656-0.326-1.2
		c0-0.065,0.014-0.623,0.039-1.674l0.029-1.522H129.04z"/>
</g>
</svg>
