<?xml version="1.0" encoding="utf-8"?>
<!-- Generator: Adobe Illustrator 16.0.0, SVG Export Plug-In . SVG Version: 6.00 Build 0)  -->
<!DOCTYPE svg PUBLIC "-//W3C//DTD SVG 1.1//EN" "http://www.w3.org/Graphics/SVG/1.1/DTD/svg11.dtd">
<svg version="1.1"
	 id="svg4256" xmlns:cc="http://creativecommons.org/ns#" xmlns:dc="http://purl.org/dc/elements/1.1/" xmlns:svg="http://www.w3.org/2000/svg" xmlns:rdf="http://www.w3.org/1999/02/22-rdf-syntax-ns#"
	 xmlns="http://www.w3.org/2000/svg" xmlns:xlink="http://www.w3.org/1999/xlink" x="0px" y="0px" width="498px" height="87.68px"
	 viewBox="0 0 498 87.68" enable-background="new 0 0 498 87.68" xml:space="preserve">
<path id="path4258" d="M178.417,88.677c-18.04,0-34.786-5.41-45.965-15.443c-8.444-7.58-12.503-17.876-12.503-28.473
	c0-10.47,4.233-20.835,12.502-28.375C142.833,6.925,161.16,1,178.417,1c19.097,0,34.38,4.812,46.063,15.412
	c8.313,7.544,12.332,17.865,12.332,28.352c0,10.161-4.266,20.984-12.332,28.472C213.6,83.332,196.503,88.677,178.417,88.677V77.113
	c9.574,0,18.457-3.306,24.659-9.478c6.16-6.132,9.03-13.665,9.03-22.874c0-8.822-3.096-17.07-9.03-22.922
	c-6.119-6.026-15.214-9.42-24.659-9.42c-9.476,0-18.575,3.357-24.7,9.42c-5.901,5.85-9.006,14.12-9.006,22.922
	c0,8.771,3.141,17.04,9.006,22.875c6.131,6.098,15.198,9.478,24.7,9.478V88.677L178.417,88.677z M46.562,1.042
	c-9.65,0-20.613,1.807-29.929,5.965C8.037,10.844,1.001,17.047,1.001,27.332C0.996,36.595,6.884,42.02,6.723,41.87
	c2.504,2.305,6.534,6.23,17.073,8.535c4.71,1.03,14.779,2.612,24.809,3.66c9.954,1.05,19.75,2.048,23.74,3.058
	c3.17,0.809,8.494,1.906,8.494,7.88c0,5.95-5.609,7.768-6.585,8.16c-0.975,0.385-7.704,3.475-19.803,3.475
	c-8.932,0-19.67-2.688-23.584-4.088c-4.512-1.604-9.244-3.729-13.659-9.121c-1.099-1.339-2.83-5.016-2.83-8.655H3.43v30.68H15.6
	v-4.145c0-0.474,0.59-2.413,2.633-1.49c2.542,1.155,10.004,4.126,17.807,5.755c6.396,1.338,10.521,2.297,18.476,2.297
	c12.976,0,19.946-2.114,24.766-3.49c4.54-1.3,10.15-3.634,14.707-7.268c2.469-1.965,7.88-7.002,7.88-16.146
	c0-8.774-4.71-14.223-6.366-15.88c-2.258-2.258-5.015-4.008-7.888-5.355c-2.503-1.178-6.453-2.593-9.685-3.384
	c-6.273-1.54-20.457-3.44-27.24-4.15c-7.113-0.743-19.452-1.765-24.38-3.29c-1.494-0.463-4.54-1.914-4.54-5.45
	c0-2.515,1.393-4.646,4.146-6.37c4.369-2.736,13.196-4.438,22.397-4.438c10.878-0.04,20.09,2.446,25.95,5.065
	c1.992,0.892,4.324,2.168,6.177,3.682c2.09,1.704,5.023,5.245,6.085,10.184h9.83V4.87H85.379v3.104c0,1.002-1.034,2.304-2.991,1.228
	C77.475,6.625,63.587,1.065,46.562,1.042 M287.096,5.895l53.542,48.318l-0.551-32.531c-0.055-4.268-0.84-6.047-5.454-6.047h-10.066
	V5.903h45.78v9.732h-9.82c-4.706,0-5.003,1.505-5.06,6.047l0.829,62.163h-15.679l-61.67-55.04l0.014,39.062
	c0.055,4.246,0.253,6.246,4.628,6.246h10.995v9.728h-44.96v-9.727h10.511c3.926,0,3.77-3.743,3.77-6.468V22.052
	c0-2.943-0.413-6.41-6.577-6.41h-8.527V5.895H287.096z M422.661,74.095c0.431,0,2.341-0.057,2.71-0.168
	c1.058-0.33,1.773-1.084,2.105-1.87c0.141-0.33,0.21-1.79,0.21-2.107l0.008-15.38c0-0.37-0.026-0.53-0.653-1.354
	c-0.69-0.898-28.047-31.898-29.299-33.265c-1.555-1.695-4.284-4.313-8.433-4.313h-9.514V5.9h53.688v9.724h-6.472
	c-1.497,0-2.492,1.42-1.213,2.998c0,0,18.063,21.607,18.233,21.833c0.168,0.23,0.313,0.285,0.542,0.075
	c0.227-0.215,18.517-21.71,18.659-21.88c0.87-1.042,0.28-3.015-1.595-3.015h-6.64V5.9h44v9.735h-9.829
	c-3.566,0-5.018,0.658-7.7,3.691c-1.228,1.388-28.874,32.945-29.626,33.8c-0.395,0.447-0.36,1.07-0.36,1.44v15.378
	c0,0.312,0.07,1.774,0.211,2.102c0.332,0.79,1.054,1.544,2.109,1.87c0.37,0.114,2.254,0.17,2.684,0.17h10.056v9.734h-53.411v-9.735
	L422.661,74.095L422.661,74.095z"/>
</svg>
