<?xml version="1.0" encoding="utf-8"?>
<!-- Generator: Adobe Illustrator 16.0.0, SVG Export Plug-In . SVG Version: 6.00 Build 0)  -->
<!DOCTYPE svg PUBLIC "-//W3C//DTD SVG 1.1//EN" "http://www.w3.org/Graphics/SVG/1.1/DTD/svg11.dtd">
<svg version="1.1" id="Layer_1" xmlns="http://www.w3.org/2000/svg" xmlns:xlink="http://www.w3.org/1999/xlink" x="0px" y="0px"
	 width="159.005px" height="121.729px" viewBox="0 0 159.005 121.729" enable-background="new 0 0 159.005 121.729"
	 xml:space="preserve">
<g>
	<path fill="#552988" d="M13.088,121.485v-0.746l8.337-13.422h-5.9l-1.002,2.711H13.68V106.3h10.524v0.655l-8.337,13.398h6.173
		l1.458-2.713h0.774l-0.387,3.845H13.088z"/>
	<path fill="#552988" d="M25.331,109.87v-0.528h5.772v0.528l-1.82,0.722v6.955c0,2.109,1.019,3.103,3.106,3.103
		c2.063,0,3.058-0.969,3.058-3.005v-7.053l-1.82-0.722v-0.528h5.059v0.528l-1.789,0.722v6.762c0,1.964-0.507,3.005-1.741,3.729
		c-0.849,0.456-1.723,0.647-3.18,0.647c-3.39,0-4.832-1.177-4.832-3.915v-7.368L25.331,109.87z"/>
	<path fill="#552988" d="M40.284,121.485v-0.553l1.813-0.697v-9.644l-1.813-0.722v-0.528h5.766v0.528l-1.789,0.722v9.644
		l1.789,0.697v0.553H40.284z"/>
	<path fill="#552988" d="M52.334,110.397h1.935c1.621,0,2.564,0.412,3.338,1.479c0.653,0.873,0.968,1.987,0.968,3.465
		c0,1.695-0.412,2.907-1.355,3.877c-0.871,0.896-1.669,1.188-3.192,1.188h-1.693V110.397z M54.197,121.485
		c1.911,0,3.265-0.361,4.378-1.152c1.54-1.115,2.404-2.981,2.404-5.211c0-1.695-0.504-3.053-1.538-4.167
		c-1.205-1.277-2.293-1.613-4.954-1.613h-6.129v0.528l1.813,0.722v9.644l-1.813,0.697v0.553H54.197z"/>
	<path fill="#552988" d="M69.352,101.98v5.995l1.935,0.795v0.565h-6.012v-0.565l1.937-0.795V95.511l-1.937-0.795v-0.564h6.012v0.564
		l-1.935,0.795v5.338h7.079v-5.338l-1.911-0.795v-0.564h5.988v0.564l-1.913,0.795v12.465l1.913,0.795v0.565H74.52v-0.565
		l1.911-0.795v-5.995H69.352z"/>
	<path fill="#552988" d="M87.811,98.001c2.322,0,3.748,2.038,3.748,5.311c0,3.178-1.426,5.189-3.651,5.189
		c-2.273,0-3.701-2.061-3.701-5.335C84.206,99.918,85.536,98.001,87.811,98.001z M87.69,109.581c3.725,0,6.25-2.68,6.25-6.633
		c0-3.661-2.309-6.027-5.912-6.027c-3.701,0-6.203,2.706-6.203,6.657C81.825,107.216,84.134,109.581,87.69,109.581z"/>
	<path fill="#552988" d="M95.697,109.336v-0.552l1.813-0.697v-9.644l-1.813-0.722v-0.528h5.766v0.528l-1.788,0.722v9.934h3.165
		l1.186-2.276h0.749l-0.314,3.235H95.697z"/>
	<path fill="#552988" d="M106.604,109.336v-0.552l1.813-0.697v-9.644l-1.813-0.722v-0.528h5.764v0.528l-1.788,0.722v9.934h3.166
		l1.186-2.276h0.748l-0.313,3.235H106.604z"/>
	<path fill="#552988" d="M122.79,99.352l0.242,0.629l0.289,0.846l1.012,2.852h-3.254L122.79,99.352z M124.574,104.518l1.255,3.569
		l-1.496,0.697v0.552h5.476v-0.552l-1.641-0.697l-4.123-11.008h-1.423l-4.589,11.008l-1.619,0.697v0.552h4.448v-0.552l-1.474-0.697
		l1.329-3.569H124.574z"/>
	<path fill="#552988" d="M130.988,109.336v-0.557l1.814-0.7v-9.615l-1.814-0.725v-0.531h3.646l6.688,8.673v-7.417l-1.787-0.725
		v-0.531h4.801v0.531l-1.809,0.725v10.993h-0.963l-7.558-9.904v8.526l1.784,0.7v0.557H130.988z"/>
	<path fill="#552988" d="M150.359,98.249h1.936c1.619,0,2.563,0.412,3.338,1.479c0.652,0.873,0.967,1.987,0.967,3.465
		c0,1.695-0.412,2.908-1.354,3.877c-0.871,0.896-1.669,1.188-3.192,1.188h-1.693V98.249z M152.222,109.336
		c1.911,0,3.265-0.36,4.378-1.152c1.539-1.114,2.405-2.98,2.405-5.21c0-1.695-0.506-3.052-1.539-4.167
		c-1.205-1.278-2.294-1.613-4.954-1.613h-6.128v0.528l1.813,0.722v9.644l-1.813,0.697v0.552H152.222z"/>
	<path fill="#552988" d="M2.262,94.915c0.298-0.131,0.676-0.195,1.091-0.195c1.248,0,2.079,0.977,2.079,2.449
		c0,1.604-0.91,2.542-2.456,2.542c-0.247,0-0.442-0.013-0.714-0.039V94.915z M3.081,100.293c2.079,0,3.585-1.47,3.585-3.488
		c0-1.63-1.051-2.869-2.428-2.869c-0.39,0-1.222,0.287-1.975,0.692v-0.809L0,94.327v0.301l1.107,0.339v7.383L0,102.752v0.326h3.626
		v-0.326l-1.364-0.402v-2.16C2.522,100.267,2.743,100.293,3.081,100.293z"/>
	<path fill="#552988" d="M8.198,100.225v-0.323l1.093-0.453V94.98l-1.093-0.313v-0.301l2.262-0.521v0.822l0.117-0.064
		c0.859-0.445,1.444-0.667,1.809-0.667c0.247,0,0.442,0.065,0.664,0.196v1.434h-0.898l-0.391-0.768c-0.143,0-0.26-0.014-0.325-0.014
		c-0.299,0-0.664,0.079-0.976,0.196v4.468l1.354,0.453v0.323H8.198z"/>
	<path fill="#552988" d="M17.354,94.448c1.146,0,1.81,1.056,1.81,2.868c0,1.591-0.625,2.517-1.693,2.517
		c-1.133,0-1.811-1.031-1.811-2.777C15.661,95.399,16.286,94.448,17.354,94.448z M17.302,100.415c1.836,0,3.147-1.431,3.147-3.398
		c0-1.878-1.195-3.15-2.965-3.15c-1.863,0-3.109,1.363-3.109,3.385C14.375,99.116,15.583,100.415,17.302,100.415z"/>
	<path fill="#552988" d="M24.423,100.361l-2.187-5.682l-0.794-0.353v-0.326h2.981v0.326l-0.898,0.353l1.054,2.946
		c0.156,0.43,0.26,0.795,0.39,1.316l1.56-4.184l-0.872-0.432v-0.326h2.523v0.326l-0.754,0.432l-2.457,5.603H24.423z"/>
	<path fill="#552988" d="M29.667,100.225v-0.323l1.093-0.453v-4.48l-1.093-0.338v-0.287l2.261-0.494v5.6l1.093,0.453v0.323H29.667z
		 M30.565,91.765c0-0.442,0.26-0.678,0.766-0.678c0.545,0,0.792,0.208,0.792,0.664c0,0.481-0.248,0.704-0.779,0.704
		C30.825,92.455,30.565,92.232,30.565,91.765z"/>
	<path fill="#552988" d="M34.825,100.225v-0.323l1.093-0.453V94.98l-1.093-0.34v-0.288l2.262-0.508v0.73
		c0.078-0.025,0.143-0.053,0.182-0.064c0.065-0.026,0.286-0.105,0.636-0.235c0.597-0.235,0.986-0.34,1.349-0.34
		c0.507,0,0.948,0.196,1.286,0.549c0.363,0.391,0.48,0.756,0.48,1.485v3.479l1.106,0.453v0.323h-3.299v-0.323l1.038-0.453v-3.23
		c0-1.004-0.493-1.434-1.635-1.434c-0.376,0-0.804,0.039-1.142,0.091v4.573l0.974,0.453v0.323H34.825z"/>
	<path fill="#552988" d="M48.628,94.218v1.342h-0.794l-0.572-1.16c-0.13-0.014-0.195-0.014-0.273-0.014
		c-1.276,0-2.252,1.121-2.252,2.633c0,0.73,0.221,1.396,0.625,1.852c0.442,0.509,0.977,0.719,1.822,0.719
		c0.417,0,0.586-0.014,1.275-0.13l0.13-0.027l0.078,0.418l-0.13,0.039l-0.664,0.197c-0.599,0.182-1.132,0.273-1.614,0.273
		c-1.613,0-2.743-1.268-2.743-3.054c0-2.021,1.402-3.371,3.499-3.371C47.509,93.935,48.003,94.024,48.628,94.218z"/>
	<path fill="#552988" d="M50.569,100.225v-0.323l1.093-0.453v-4.48l-1.093-0.338v-0.287l2.262-0.494v5.6l1.093,0.453v0.323H50.569z
		 M51.467,91.765c0-0.442,0.26-0.678,0.767-0.678c0.545,0,0.792,0.208,0.792,0.664c0,0.481-0.247,0.704-0.779,0.704
		C51.728,92.455,51.467,92.232,51.467,91.765z"/>
	<path fill="#552988" d="M56.845,96.55c0.117-1.408,0.625-2.098,1.549-2.098c0.847,0,1.211,0.546,1.237,1.836L56.845,96.55z
		 M60.787,95.519c-0.259-0.951-1.168-1.584-2.275-1.584c-1.719,0-2.978,1.429-2.978,3.357c0,1.827,1.156,3.067,2.861,3.067
		c0.6,0,1.653-0.222,2.432-0.523l-0.065-0.416c-0.545,0.09-1.142,0.155-1.494,0.155c-0.677,0-1.25-0.183-1.654-0.521
		c-0.546-0.47-0.768-1.07-0.781-2.139h4.098C60.904,96.119,60.878,95.897,60.787,95.519z"/>
	<path fill-rule="evenodd" clip-rule="evenodd" fill="#FFFFFF" d="M65.375,62.588c0.034,0.001,0.067,0.002,0.102,0.004
		c-0.014,0.141-0.029,0.278-0.042,0.425c-0.439-0.018-0.858-0.034-1.296-0.054c0-0.027,0-0.061,0-0.087
		c0.083-0.033,0.163-0.064,0.246-0.098c0-0.487,0-0.933,0-1.376c-0.083-0.035-0.163-0.069-0.246-0.105c0-0.023,0-0.045,0-0.068
		c0.435,0.014,0.851,0.025,1.286,0.039c0,0.123,0,0.242,0,0.369c-0.034-0.001-0.068-0.002-0.102-0.004
		c-0.04-0.088-0.077-0.174-0.118-0.264c-0.178-0.005-0.349-0.01-0.527-0.015c0,0.212,0,0.42,0,0.642
		c0.145,0.006,0.284,0.01,0.429,0.015c0.029-0.071,0.059-0.144,0.088-0.215c0.035,0.001,0.067,0.003,0.102,0.003
		c0,0.189,0,0.373,0,0.57c-0.035-0.002-0.067-0.004-0.102-0.004c-0.028-0.074-0.059-0.158-0.088-0.232
		c-0.145-0.005-0.284-0.01-0.429-0.016c0,0.238,0,0.47,0,0.717c0.183,0.009,0.359,0.014,0.542,0.022
		C65.27,62.77,65.325,62.674,65.375,62.588z M68.254,61.549c0.143,0.16,0.207,0.334,0.209,0.586
		c-0.005,0.334-0.114,0.604-0.326,0.783c-0.157,0.125-0.326,0.176-0.592,0.171c-0.268-0.009-0.523-0.017-0.791-0.024
		c0-0.027,0-0.063,0-0.09c0.082-0.035,0.163-0.068,0.246-0.104c0-0.498,0-0.949,0-1.396c-0.083-0.033-0.163-0.068-0.246-0.102
		c0-0.025,0-0.047,0-0.07c0.281,0.007,0.549,0.012,0.83,0.018C67.955,61.33,68.084,61.369,68.254,61.549z M68.137,62.16
		c-0.002-0.221-0.042-0.364-0.131-0.49c-0.11-0.15-0.225-0.201-0.451-0.209c-0.088-0.002-0.173-0.004-0.262-0.005
		c0,0.462,0,0.933,0,1.451c0.078,0.002,0.152,0.005,0.229,0.006c0.212,0.003,0.31-0.036,0.432-0.173
		C68.083,62.586,68.135,62.415,68.137,62.16z M69.92,62.986c-0.184-0.002-0.359-0.006-0.543-0.01c0-0.258,0-0.496,0-0.739
		c0.145,0.001,0.283,0.004,0.429,0.007c0.028,0.073,0.061,0.16,0.088,0.235c0.034,0.001,0.067,0.001,0.102,0.001
		c0-0.201,0-0.389,0-0.58c-0.034,0-0.067-0.002-0.102-0.002c-0.028,0.072-0.06,0.148-0.088,0.221
		c-0.146-0.002-0.284-0.005-0.429-0.006c0-0.228,0-0.439,0-0.654c0.178,0.004,0.349,0.004,0.526,0.008
		c0.04,0.088,0.079,0.175,0.118,0.264c0.034,0,0.066,0.001,0.102,0.001c0-0.128,0-0.249,0-0.373
		c-0.435-0.004-0.851-0.011-1.285-0.015c0,0.023,0,0.045,0,0.068c0.083,0.036,0.162,0.068,0.245,0.102c0,0.449,0,0.906,0,1.41
		c-0.081,0.037-0.163,0.072-0.245,0.107c0,0.027,0,0.064,0,0.092c0.438,0.008,0.856,0.018,1.295,0.025
		c0.014-0.152,0.028-0.295,0.042-0.441c-0.034,0-0.066-0.002-0.101-0.002C70.025,62.794,69.968,62.898,69.92,62.986z M62.358,62.793
		c0,0.026,0,0.059,0,0.086c-0.252-0.014-0.492-0.027-0.743-0.039c0-0.027,0-0.059,0-0.085c0.068-0.032,0.134-0.063,0.202-0.095
		c-0.058-0.181-0.112-0.352-0.169-0.526c-0.178-0.009-0.347-0.017-0.525-0.024c-0.061,0.168-0.118,0.332-0.179,0.505
		c0.066,0.038,0.133,0.077,0.199,0.115c0,0.026,0,0.057,0,0.084c-0.203-0.013-0.397-0.022-0.601-0.034c0-0.026,0-0.058,0-0.083
		c0.074-0.031,0.145-0.062,0.219-0.093c0.213-0.545,0.408-1.016,0.621-1.498c0.065,0.003,0.128,0.005,0.193,0.008
		c0.192,0.501,0.367,0.987,0.56,1.563C62.208,62.715,62.284,62.754,62.358,62.793z M61.615,62.012
		c-0.047-0.139-0.091-0.269-0.138-0.402c-0.013-0.04-0.027-0.078-0.04-0.117c-0.011-0.029-0.021-0.058-0.033-0.086
		c-0.079,0.194-0.154,0.383-0.233,0.584C61.322,61.998,61.465,62.005,61.615,62.012z M62.425,61.563
		c0.036,0.002,0.069,0.003,0.105,0.005c0.043-0.093,0.084-0.179,0.127-0.271c0.12,0.006,0.234,0.01,0.354,0.016
		c0,0.453,0,0.908,0,1.405c-0.087,0.032-0.172,0.063-0.258,0.095c0,0.027,0,0.059,0,0.086c0.275,0.012,0.538,0.025,0.813,0.039
		c0-0.027,0-0.061,0-0.087c-0.087-0.039-0.174-0.079-0.262-0.118c0-0.5,0-0.955,0-1.41c0.127,0.006,0.249,0.01,0.376,0.014
		c0.038,0.095,0.073,0.186,0.111,0.28c0.033,0.001,0.064,0.003,0.098,0.003c0-0.137,0-0.267,0-0.399
		c-0.496-0.019-0.97-0.036-1.465-0.056C62.425,61.297,62.425,61.428,62.425,61.563z M76.09,61.459
		c-0.316,0.015-0.482,0.239-0.488,0.734c0.008,0.498,0.184,0.814,0.501,0.822c0.311-0.016,0.487-0.33,0.495-0.814
		C76.59,61.701,76.414,61.465,76.09,61.459z M112.631,60.057l-0.112,0.43l-1.045,4.076c-0.22-0.088-0.436-0.16-0.705-0.228v-0.001
		c0,0-0.273-0.107-0.523-0.111l-0.439,1.669c-0.19,0.254-0.805,0.425-1.671,0.233c-0.743-0.165-3.383-0.953-5.168-0.953
		c-1.783,0-4.909,0.887-5.374,0.977c-0.326,0.063-0.846,0.072-1.182-0.08c-0.141-0.064-0.256-0.158-0.304-0.285l-0.521-2.045
		c-0.244-0.023-0.38-0.037-0.453-0.045c0.007,0.001,0.014,0.001,0.02,0.002l0,0c0,0-0.193-0.019-0.02-0.002
		c-3.743-0.182-11.273,0.749-22.244,0.749v20.596H30.331V0H72.89v14.015c0,0-0.447,0.878-1.168,1.156
		c-0.579,0.223-1.022,1.055-0.445,1.646c-0.824,0.039-1.217,1.25-0.564,2.131c0.375,0.506,0.852,0.637,1.462,0.718
		c-0.144,0.27-0.373,0.499-0.735,0.617c-0.958,0.313-1.823-0.749-2.137-1.195c0.002,0,0.003,0,0.005,0h-0.005l0.006-0.004
		c0.338-0.111,0.493-0.6,0.372-1.204c-0.144-0.601-0.501-0.98-0.863-0.895c-0.352,0.121-0.506,0.645-0.371,1.24
		c0.13,0.488,0.396,0.807,0.68,0.861c-0.159,0.554-0.731,2.114-1.969,1.385c-0.165-0.098-0.289-0.222-0.389-0.354
		c1.255-0.458,1.202-1.465,1.202-1.465c0.004-0.694-0.412-1.182-1.063-1.106c0.272-0.419,0.007-0.96-0.85-1.167
		c-0.603-0.145-0.919-0.461-1.208-0.744c0,0,0.18,0.895-0.34,1.336c-0.455,0.386-0.341,1.209,0.079,1.363
		c-0.619,0.145-0.647,0.898-0.434,1.307c0.31,0.595,0.768,0.844,1.736,0.711l0.002-0.001c-0.097,0.506-0.539,0.887-0.999,0.747
		c-0.284-0.087-0.785-0.324-1.16-0.823l0,0c0.184-0.14,0.193-0.499,0.009-0.9c-0.21-0.418-0.524-0.646-0.762-0.542
		c-0.223,0.128-0.239,0.519-0.037,0.935c0.194,0.367,0.463,0.579,0.683,0.551c0.018,0.275,0.091,0.653-0.062,1.165
		c-0.14,0.471-0.731,0.422-0.992,0.188c0,0,0.726-0.523,0.256-1.455c-0.126-0.251-0.382-0.381-0.636-0.384
		c-0.143-0.005-0.287,0.034-0.413,0.122c-0.066-0.38-0.523-0.514-0.944-0.334c-0.462,0.197-0.721,0.151-0.921,0.077
		c0,0,0.824,0.678,1.558,1.413c-0.176-0.027-0.325,0.041-0.325,0.041l0.078,0.015c0.418,0.219,1.016,0.458,1.423,1.664
		c0.067,0.201,0.126,0.391,0.182,0.585c0,0,0.161-0.162,0.255-0.2c0.151-0.061,3.295-1.851,9.808-1.981v-7.11
		c0.035,0.239,0.203,0.816,0.979,1.082c0.912,0.313,1.153,1.215,0.36,1.637c0.976,0.091,1.253,1.035,0.917,1.64
		c-0.406,0.997-1.692,1.145-1.692,1.145c0.134,0.212,0.289,0.361,0.413,0.451c0.394,0.283,0.98,0.281,1.534-0.214
		c0.333-0.298,0.528-0.578,0.642-0.771l-0.026-0.003c-0.303-0.141-0.455-0.587-0.361-1.145c0.126-0.602,0.483-0.997,0.865-0.93
		c0.371,0.103,0.552,0.614,0.434,1.211c-0.119,0.505-0.392,0.84-0.698,0.893l-0.033-0.005l0.035,0.006
		c0.195,0.575,0.737,1.783,1.705,1.265c0.096-0.063,0.262-0.19,0.422-0.367c-0.381-0.151-0.684-0.375-0.854-0.709
		c-0.023-0.048-0.045-0.099-0.063-0.151c-0.356-0.774,0.185-1.807,1.036-1.664c-0.271-0.288-0.201-0.952,0.592-1.042
		c0.34-0.039,0.865-0.187,1.337-0.574c0,0-0.02,0.74,0.372,1.054c0.579,0.463,0.425,1.183-0.087,1.359
		c0.791,0.333,0.585,1.731-0.872,1.912c-0.129,0.021-0.458,0.031-0.458,0.031c0.093,0.772,0.604,1.014,1.063,0.888
		c0.363-0.101,0.773-0.437,0.993-0.636c-0.183-0.136-0.206-0.489-0.044-0.892c0.189-0.428,0.491-0.669,0.734-0.578
		c0.229,0.117,0.264,0.506,0.083,0.932c-0.169,0.36-0.414,0.582-0.628,0.583c-0.016,0.167-0.004,0.603,0.166,0.962
		c0.18,0.38,0.752,0.641,1.198,0.222c-0.071-0.021-0.184-0.101-0.184-0.101c-0.834-0.625,0.042-2.315,0.776-1.692
		c0.045-0.261,0.275-0.397,0.551-0.393c0.182,0.002,0.314,0.051,0.393,0.084c0.604,0.257,1.016,0.11,1.016,0.11
		s-0.729,0.284-1.588,1.348c0.146,0.013,0.43,0.123,0.492,0.211c0,0-0.588-0.184-1.074,0.526c-0.124,0.181-0.178,0.307-0.268,0.473
		c-0.348,0.631-0.537,1.133-0.738,1.786l-1.622,0.385l1.186,1.344l-0.249,1.44c-0.717-0.38-3.254-1.569-8.838-1.523
		c-5.719,0.048-8.099,0.981-8.814,1.349l-0.257,0.156c0,0,0.457,0.314,1.705,0.64c0.393,0.106,0.868,0.216,1.431,0.323
		c0.679-0.046,1.404-0.087,2.173-0.12c1.18-0.049,2.463-0.08,3.843-0.08c2.693,0,5.008,0.113,6.924,0.265
		c3.827,0.305,5.983,0.759,5.983,0.759l0.004,2.455c0.152,0.092,0.299,0.258,0.421,0.542c0,0,0.174-0.227,0.424-0.271
		c0.01-0.155-0.004-0.461-0.265-0.678c-0.069-0.058-0.148-0.089-0.229-0.105c0.213-0.09,0.458-0.068,0.661,0.086
		c0.252,0.192,0.359,0.545,0.319,0.887c0.099,0.105,0.177,0.243,0.229,0.402c0.141,0.433,0.102,1.012-0.174,1.451
		c0,0,0.112,0.302,0.334,0.67c0.197,0.331,0.482,0.714,0.854,0.98c0.617,0.443,1.092,0.532,1.584,0.867
		c0.133,0.091,0.268,0.201,0.408,0.341c0.383,0.382,0.584,0.583,0.584,0.583s-0.201-0.382-0.02-0.825c0,0,0.137,0.083,0.347,0.16
		c0.337,0.124,0.864,0.233,1.323-0.04c0.416-0.247,0.601-0.621,0.538-0.91c-0.049-0.229-0.254-0.404-0.618-0.419
		c-0.207-0.008-0.412,0.005-0.576,0.023c-0.219,0.024-0.37,0.057-0.37,0.057s-0.481-0.47-0.141-0.946
		c0.103-0.144,0.228-0.224,0.392-0.265c0.05-0.162,0.129-0.349,0.259-0.536c0,0,0.028,0.225,0.099,0.496
		c0.078-0.001,0.163-0.001,0.256,0.003c0.469,0.018,1.599-0.036,1.743-1.129c-0.299-0.06-0.686-0.106-1.103-0.073
		c-1.09,0.085-1.668,0.952-2.6,1.041c-1.475,0.141-2.104-1.179-1.637-2.238c0.29-0.66,1.18-0.802,1.495-0.042
		c0.289,0.691-0.354,1.109-0.354,1.109c0.32,0.591,1.019,0.329,1.908-0.096c1.063-0.508,1.912-0.32,2.303-0.005
		c-0.002-0.045,0-0.088-0.004-0.137c-0.008-0.095-0.02-0.201-0.04-0.308c-0.021-0.104-0.051-0.208-0.099-0.308
		c-0.141-0.298-0.434-0.543-1.069-0.532c-0.293,0.004-0.627,0.048-0.88,0.042c-0.042,0.101-0.081,0.204-0.114,0.301
		c-0.094,0.265-0.154,0.482-0.154,0.482c-0.236-0.314-0.283-0.745-0.293-0.883c-0.109-0.042-0.209-0.094-0.296-0.165
		c-0.135-0.109-0.226-0.268-0.264-0.496c-0.026-0.165-0.026-0.365,0.009-0.61c0.08-0.584,0.039-0.845-0.021-1.067
		c-0.059-0.221,0.162-0.342,0.604-0.282c0.442,0.061,1.007,0.322,1.49-0.02c0.294-0.208,0.514-0.335,0.932-0.293
		c0.146,0.015,0.317,0.05,0.525,0.111c0.171,0.05,0.367,0.116,0.596,0.202c0,0-0.023-0.823,0.905-0.966
		c0.866-0.133,0.961,0.405,1.973,0.464c0.21,0.012,0.46,0.004,0.765-0.035c0,0-0.024,0.311-0.202,0.608
		c-0.237,0.397-0.748,0.772-1.837,0.358c0,0,1.271,0.427,1.342,1.718c0.08,1.476,0.375,1.852,0.805,2.121
		c0,0-0.268,0.429-0.751,0.161c0,0,0.054,1.368,0.993,1.717c0,0-0.377,0.617-1.074,0.162c0,0-0.16,1.502,0.752,1.878
		c0,0-0.59,0.483-1.128-0.027c0,0,0.474,0.955-0.886,2.121c-0.938,0.805-0.678,1.662-0.678,1.662s-0.225-0.029-0.471-0.173
		c0.076,0.17,0.511,1.139,0.863,1.671c0.265,0.403,0.609,0.885,1.016,1.37c0.498,0.59,1.086,1.184,1.739,1.635
		c1.771,1.229,4.949,1.754,6.199,0.504c0.888-0.886,0.767-2.697-0.039-3.261c-1.242-0.87-2.643-0.805-3.062,0.219
		c-0.098,0.237-0.142,0.527-0.12,0.868c0,0-0.138-0.101-0.279-0.285c-0.063-0.08-0.125-0.176-0.177-0.286
		c-0.093-0.196-0.151-0.438-0.116-0.718c0.032-0.252,0.141-0.536,0.372-0.844c0,0-0.54-0.181-1.026-0.664
		c-0.482-0.478-0.909-1.25-0.704-2.437c0.206-1.201,1.126-1.739,1.757-1.97c0.354-0.129,0.617-0.163,0.617-0.163
		s-0.725-1.409,0.443-2.174c0.975-0.639,2.23,0.21,3.017-0.313c0.156-0.104,0.292-0.26,0.406-0.492c0,0,0.177,0.398,0.174,0.865
		c-0.004,0.304-0.082,0.636-0.336,0.906c0,0,0.458-0.055,0.914-0.496c0.365-0.354,0.732-0.957,0.857-1.979
		c0,0,0.235,0.625,0.26,1.449c0.02,0.742-0.132,1.644-0.783,2.395c-1.188,1.369-3.005,0.785-4.026,0.664
		c-1.871-0.221-3.184,2.031-1.488,3.241c0.563,0.402,1.167,0.462,1.73,0.523c0.563,0.06,1.368,0.081,2.052,0.584
		c0,0-0.12-1.268,1.833-0.705c0,0-0.396,0.048-0.665,0.361c-0.189,0.22-0.316,0.571-0.2,1.128c0.281,1.349,1.018,3.362-0.867,4.952
		c-1.67,1.409-4.548,0.423-4.548,0.423s0.726,0.362,0.865,1.609c0.085,0.752,0.447,0.941,0.722,0.973
		c0.182,0.022,0.326-0.025,0.326-0.025s-0.077,0.127-0.219,0.265c-0.201,0.196-0.533,0.413-0.969,0.318c0,0,0.582,0.704,0.725,1.872
		c0,0,0.072-0.213,0.324-0.412c0.18-0.141,0.448-0.273,0.844-0.319c0.143-0.017,0.303-0.022,0.481-0.014
		c0.765,0.04,1.007-0.543,0.784-1.007c0,0,0.447,0.113,0.662,0.407c0.144,0.194,0.184,0.468-0.077,0.841
		c0,0,0.325-0.025,0.707,0.177c0.092,0.048,0.186,0.108,0.28,0.187c0.073,0.061,0.134,0.127,0.184,0.201
		c0.533,0.779-0.107,2.222,0.999,2.778c0.074,0.039,0.155,0.071,0.246,0.1c0,0-0.043,0.059-0.117,0.125
		c-0.162,0.147-0.484,0.339-0.869,0.076c0,0,0.182,0.842,0.904,1.15c0.074,0.033,0.155,0.059,0.242,0.078
		c0,0-0.057,0.045-0.154,0.094c-0.205,0.105-0.582,0.227-0.953-0.033c0,0,0.082,0.742,0.75,1.057
		c0.078,0.036,0.163,0.066,0.257,0.09c0,0-0.056,0.047-0.147,0.102c-0.23,0.134-0.686,0.311-1.101-0.061
		c0,0-0.202,1.285-1.026,2.214c-0.454,0.51-0.844,0.646-1.208,0.649c1.925,0.21,3.755,0.638,4.387,0.739
		c0.843,0.137,1.556-0.055,1.685-0.314c0.076-0.338-0.451-0.58-1.313-0.686c-0.805-0.098-1.242-0.246-1.306-0.606l-0.007-0.078l0,0
		c0.004-0.042,0.004-0.018,0.014-0.054c0.156-0.587,1.655-0.368,2.51-0.241c0.482,0.072,1.123,0.252,1.518,0.369
		C112.491,60.014,112.566,60.037,112.631,60.057z M77.873,25.203c0.694,0.095,1.298-0.211,1.371-0.782
		c0.004-0.033,0.008-0.077,0.008-0.109c0.007-0.522-0.428-0.975-1.104-1.095c-0.73-0.093-1.311,0.253-1.396,0.816
		c0,0.009,0,0.019,0,0.028C76.669,24.621,77.186,25.075,77.873,25.203z M85.798,39.212l0.003,6.524
		c0.052,0.01,0.099,0.021,0.14,0.034c0,0,1.72-1.028,2.718-2.214c0.322-0.383,0.523-0.624,0.523-0.624s-0.322,0.302-0.845,0.04
		c0,0,0.664-0.101,0.784-0.865c0,0-0.925-0.061-1.207-0.886c0,0,0.504,0.04,0.926-0.181c0,0-0.725-0.443-1.046-1.55
		c-0.322-1.107-0.726-1.45-1.147-1.57c0,0,0.422-0.222,0.785-0.181c0,0-0.175-1.058-1.63-2.084L85.798,39.212z M84.132,59.555
		c-0.29-0.032-0.531-0.16-0.729-0.527c-0.082,0.051-0.158,0.124-0.217,0.237c-0.049,0.094-0.037,0.246-0.031,0.345
		c-0.151-0.233-0.193-0.532-0.086-0.813c0.049-0.128,0.126-0.237,0.218-0.325c0.112-0.523,0.923-0.664,0.923-0.664
		s-0.032-0.074-0.041-0.178c-0.148-0.076-0.467-0.196-0.728,0.018c-0.067,0.055-0.163,0.195-0.193,0.272
		c-0.034-0.229,0.034-0.471,0.21-0.647c0.236-0.238,0.65-0.286,0.973-0.12c0.046-0.026,0.099-0.05,0.162-0.069
		c0.231-0.07,0.445-0.074,0.646-0.046c0.605,0.087,1.099,0.474,1.628,0.267c1.289-0.502,1.453-1.238,2.396-1.992
		c0.378-0.303,0.68-0.557,0.908-0.801c0.317-0.34,0.494-0.661,0.54-1.071c0,0-0.523,0.564-1.448-0.141c0,0,0.965-0.182,1.005-0.785
		c0,0-0.886,0.443-1.469-0.342c0,0,0.354-0.002,0.664-0.182c0.483-0.281,0.121-1.248,0.765-1.51c0,0-0.965-0.201-0.523-1.348
		c0,0,0.135,0.264,0.482,0.328c0.103,0.019,0.222,0.02,0.363-0.006c0.945-0.182,1.193-1.469,2.415-1.893
		c0.397-0.137,0.836-0.19,1.219-0.205c0.57-0.021,1.017,0.045,1.017,0.045l-0.362-0.283c0,0,0.442-0.08,0.846,0
		c0,0-0.182-0.354-0.967-0.624c-0.485-0.168-1.588-0.655-1.869-1.98c-0.243,0.311-0.651,0.691-1.191,0.914
		c-0.959,0.395-1.463,0.711-1.79,1.127c-0.14,0.178-0.246,0.375-0.344,0.604c0,0-0.125-0.1-0.186-0.321
		c-0.028-0.111-0.042-0.25-0.015-0.424c0,0-0.794,0.31-1.188,0.806c-0.57,0.719-0.201,1.393-0.503,1.773
		c0.048,0.228,0.015,0.432-0.06,0.58c-0.127,0.257-0.363,0.414-0.623,0.449c0.072-0.059,0.126-0.139,0.18-0.225
		c0.143-0.229,0.072-0.46,0.014-0.582c-0.046,0-0.091-0.004-0.133-0.01c-0.196-0.029-0.343-0.115-0.343-0.115
		s-0.044,0.428-0.395,0.639c-0.039,0.27-0.158,0.469-0.304,0.592c-0.12,0.102-0.259,0.152-0.401,0.162
		c-0.891,3.896-4.383,7.714-8.944,9.083c-0.136,0.041-0.271,0.08-0.41,0.117c-0.49,0.129-0.993,0.23-1.505,0.301
		c3.328-0.047,6.659-0.205,9.699-0.387C84.313,59.603,84.218,59.563,84.132,59.555z M70.79,23.81c0.196,0.066,1.426,0.78,2.141,1.2
		c0.698-0.429,1.866-1.147,2.081-1.225c-0.707-0.451-1.371-0.855-2.122-1.292C72.151,22.938,71.494,23.35,70.79,23.81z
		 M66.702,24.232c-0.005,0.066-0.004,0.132,0.006,0.2c0.083,0.584,0.731,0.894,1.461,0.792c0.724-0.136,1.246-0.635,1.145-1.208
		c-0.102-0.574-0.708-0.924-1.468-0.824C67.181,23.313,66.739,23.736,66.702,24.232z M62.751,25.397l0.71,0.68l1.399-1.38
		l-1.8-0.428L62.751,25.397z M62.577,59.029c0.084,0.116,0.128,0.282,0.102,0.512c0.167-0.185,0.284-0.583,0.147-0.849
		c-0.046-0.09-0.101-0.163-0.16-0.226c-0.066-0.663-0.858-0.685-0.858-0.685s0.059-0.061,0.075-0.163
		c0.294-0.048,0.604,0.078,0.7,0.388c0.057-0.225,0.025-0.484-0.148-0.664c-0.271-0.28-0.606-0.271-0.85-0.21
		c-0.308-0.192-0.743-0.179-1.105-0.115c-0.463,0.081-0.785,0.483-1.51,0.222s-1.429-1.188-1.933-1.65
		c-0.503-0.463-0.805-0.725-1.248-1.127c-0.443-0.402-0.524-1.008-0.524-1.008c1.087,0.564,1.671-0.482,1.671-0.482
		c-0.966,0.182-1.268-0.604-1.268-0.604c0.966,0.483,1.529-0.241,1.529-0.241s-0.825-0.12-0.865-0.765
		c-0.05-0.807-0.624-1.006-0.624-1.006c1.006-0.342,0.523-1.309,0.523-1.309s-0.181,0.402-0.705,0.302
		c-0.299-0.058-0.644-0.302-1.026-0.685c-0.795-0.795-1.469-1.025-1.69-1.086s-0.362-0.08-0.625-0.141
		c-0.639-0.147-1.389-0.142-1.69-0.142c-0.302,0-0.805,0.04-0.805,0.04s0.483-0.563,1.972-1.048c1.49-0.482,2.094-1.268,2.094-1.268
		c0.382,0.322,0.765,0.504,1.59,0.865c0.826,0.363,1.067,1.27,1.067,1.27c0.382-0.304,0.181-0.766,0.181-0.766
		s0.443,0.141,1.228,0.806c0.726,0.613,0.214,1.091,0.419,1.588c-0.128,0.42-0.02,0.751,0.145,0.941
		c0.186,0.219,0.453,0.314,0.712,0.284c-0.084-0.04-0.163-0.097-0.229-0.174c-0.149-0.175-0.202-0.403-0.164-0.618
		c0.003-0.018,0.003-0.033,0.006-0.051c0.288,0.027,0.56-0.18,0.56-0.18c0.036,0.131,0.05,0.413,0.224,0.621
		c0.036,0.516,0.286,0.863,0.533,0.99c0.236,0.121,0.497,0.094,0.706-0.045c-0.085-0.001-0.172-0.02-0.256-0.063
		c-0.214-0.109-0.348-0.34-0.373-0.591c-0.002-0.017-0.006-0.033-0.01-0.049c0.02,0,0.038,0.002,0.059,0.001
		c0.825-0.02,0.667-0.964,0.667-0.964c0.307,0.112,0.561,0.053,0.743-0.094c0.193,0.153,0.3,0.4,0.257,0.658
		c-0.017,0.099-0.054,0.189-0.106,0.269c0.243-0.12,0.426-0.347,0.472-0.628c0.04-0.24-0.082-0.537-0.336-0.768
		c0.038-0.162,0.034-0.332-0.023-0.484c-0.151-0.408-0.624-0.584-0.624-0.584c0.363-0.153,0.542-0.343,0.607-0.528
		c0.191,0.068,0.353,0.21,0.426,0.409c0.035,0.094,0.046,0.189,0.04,0.28c0.152-0.214,0.2-0.492,0.104-0.755
		c-0.091-0.247-0.347-0.468-0.694-0.531c-0.074-0.099-0.161-0.18-0.241-0.225c-0.181-0.102-0.322-0.141-0.503-0.161
		c-0.343-0.037-0.892,0.018-0.892,0.018c-0.946-0.443-1.665-1.124-2.027-1.486c-0.362-0.363-0.684-0.725-0.866-0.946
		c-0.181-0.222-0.342-0.402-0.342-0.402c0.543,0,0.745-0.282,0.745-0.282c-0.523-0.121-0.543-0.624-0.543-0.624
		c0.725-0.04,0.926-0.966,0.926-0.966c-0.624,0.262-0.825-0.1-0.825-0.1c0.745-0.423,1.026-1.409,1.308-2.113
		c0.282-0.705,0.886-0.926,0.886-0.926c-0.362-0.302-0.826-0.202-0.826-0.202c0.507-1.292,1.359-1.856,1.564-1.983v-4.192
		c-0.222,0.193-0.356,0.438-0.356,0.438s-0.141-0.262-0.362-0.282c-0.052-0.005-0.114-0.007-0.18,0
		c-0.058-0.276,0.041-0.47,0.283-0.656c0.071-0.055,0.148-0.089,0.228-0.105c-0.211-0.09-0.456-0.068-0.657,0.087
		c-0.266,0.203-0.368,0.585-0.309,0.945c-0.066,0.092-0.125,0.213-0.169,0.374c-0.216,0.766,0.221,1.409,0.221,1.409
		s-0.1,0.141-0.161,0.342c-0.232,0.774-0.664,1.268-1.711,1.651c-1.046,0.382-1.832,1.389-1.832,1.389
		c0.161-0.363-0.061-0.785-0.061-0.785s-0.765,0.463-1.469,0.181c-0.704-0.282-0.865-1.007-0.503-1.268
		c0.362-0.262,1.348-0.041,1.348-0.041c0.539-0.646,0.276-1.04-0.102-1.182c-0.081-0.03-0.167-0.047-0.251-0.054
		c-0.05-0.157-0.127-0.336-0.25-0.516c0,0-0.03,0.229-0.101,0.503c-0.004,0.017-0.01,0.037-0.016,0.057
		c-0.423,0.119-1.527,0.189-1.797-1.062c-0.01-0.048-0.019-0.094-0.027-0.14c0.311-0.069,0.755-0.135,1.224-0.098
		c1.085,0.085,1.659,0.952,2.587,1.041c1.469,0.141,2.096-1.179,1.632-2.238c-0.288-0.659-1.174-0.802-1.489-0.042
		c-0.288,0.692,0.351,1.109,0.351,1.109c-0.319,0.591-1.015,0.329-1.901-0.095c-1.07-0.515-1.948-0.182-2.435,0.12
		c-0.134-1.15,0.511-1.473,1.708-1.288c0.098,0.015,0.188,0.023,0.273,0.027c0.031,0.078,0.061,0.156,0.086,0.23
		c0.093,0.265,0.152,0.482,0.152,0.482c0.187-0.249,0.255-0.571,0.28-0.762c0.597-0.174,0.703-0.729,0.717-1.104
		c0.021-0.503-0.141-0.745-0.04-1.006c0.101-0.262,0.079-0.479-0.604-0.544c-0.081-0.008-0.155-0.011-0.221-0.012
		c-0.105,0-0.194,0.007-0.271,0.018c-0.375,0.053-0.474,0.186-0.957-0.147c-0.396-0.272-0.903-0.24-1.309-0.141
		c-0.402,0.099-0.705,0.262-0.705,0.262c-0.065-0.208-0.162-0.383-0.278-0.526c-0.458-0.562-1.239-0.641-1.795-0.299
		c-0.698,0.429-1.503,0.161-1.503,0.161s-0.027,0.403,0.114,0.645c0.49,0.84,1.61,0.584,1.61,0.584s-0.322,0.121-0.604,0.241
		s-0.785,0.463-1.066,0.785c-0.663,0.757-0.262,1.59-0.725,2.053c-0.379,0.379-0.866,0.503-0.866,0.503
		c0.483,0.604,1.268,0.483,1.268,0.483c-0.201,1.269-1.228,1.57-1.228,1.57c0.624,0.563,1.248,0.362,1.248,0.362
		c-0.021,1.309-1.047,1.772-1.047,1.772C47.497,37.573,48,36.849,48,36.849c-0.101,1.288-1.268,1.529-1.268,1.529
		c0.926,0.705,1.57,0.402,1.57,0.402s0.422,0.383,0.503,1.067c0.067,0.568-0.342,1.147-0.342,1.147
		c0.705,0.402,1.208-0.02,1.208-0.02c-1.067,1.67-1.973,2.697-2.899,3.442c-1.502,1.209-3.261,1.63-4.217,1.731
		c-0.455,0.048-0.976-0.034-1.379-0.168s-0.725-0.456-0.939-0.806c-0.321-0.521-0.564-1.852,0.134-2.71
		c0.87-1.071,2.255-0.886,2.953-0.457c0.698,0.43,0.429,1.396,0.429,1.396c1.208-1.315,0.161-2.201,0.161-2.201
		c2.335-0.805,2.067-3.194,1.235-4.213c-0.692-0.849-1.785-0.979-1.785-0.979c0.107-0.416,0.161-0.873,0.134-1.101
		s-0.081-0.429-0.188-0.59c-0.075-0.113-0.178-0.239-0.302-0.349c-0.107-0.095-0.232-0.178-0.369-0.228
		c-0.905-0.329-1.557,0.094-2.282-0.054c-0.597-0.122-0.886-0.711-0.886-0.711s-0.188,0.322-0.175,0.858
		c0.016,0.658,0.39,0.966,0.39,0.966c-1.638-0.416-1.785-2.536-1.785-2.536s-0.255,0.778-0.242,1.637
		c0.038,2.415,1.557,3.381,4.2,2.953c2.327-0.378,2.845,1.073,2.872,1.717c0.027,0.645-0.255,0.953-0.309,1.02
		c-0.054,0.067-0.067,0.081-0.161,0.188c-0.925,1.057-2.321,0.677-3.378,1.013c-0.405,0.128-0.755,0.383-0.755,0.383
		c-0.121-0.953-0.967-0.859-1.289-0.846c-0.322,0.014-0.537,0.121-0.537,0.121s0.646,0.098,0.845,0.805
		c0.269,0.953-0.778,2.053-0.295,3.892c0.236,0.898,0.647,1.638,2.161,2.215c1.516,0.577,3.644-0.107,3.644-0.107
		c-0.946,0.402-1.167,1.369-1.369,2.113s-0.946,0.583-0.946,0.583c0.523,0.726,1.248,0.564,1.248,0.564s-0.101,0.181-0.181,0.382
		c-0.249,0.621-0.322,1.49-0.322,1.49c-0.584-1.148-1.249-0.725-1.833-0.826c-0.976-0.168-0.604-0.986-0.604-0.986
		s-0.604,0.121-0.744,0.604c-0.141,0.484,0.241,0.705,0.241,0.705s-0.282-0.04-0.442-0.021c-0.161,0.021-0.544,0.04-0.766,0.443
		c-0.25,0.455-0.221,1.39-0.483,2.154c-0.194,0.568-0.826,0.805-0.826,0.805c0.463,0.504,0.946,0.182,0.946,0.182
		c-0.222,0.945-1.127,1.207-1.127,1.207c0.422,0.443,1.127,0.101,1.127,0.101c-0.181,1.026-1.026,1.128-1.026,1.128
		c0.725,0.563,1.248,0.061,1.248,0.061s0.239,1.288,0.564,1.851c0.498,0.863,1.149,1.082,1.718,1.094
		c-1.802,0.22-3.466,0.607-4.062,0.703c-0.843,0.137-1.52,0.027-1.687-0.314c-0.075-0.338,0.452-0.58,1.314-0.686
		s1.302-0.268,1.313-0.685l-0.015-0.054c-0.156-0.587-1.656-0.368-2.51-0.241c-0.454,0.068-1.047,0.23-1.444,0.348l-0.313,0.097
		l0.604,2.352l0.553,2.154l0.273-0.119c0.285-0.108,0.691-0.217,1.035-0.274l0.346,1.614c0.055,0.132,0.232,0.238,0.481,0.311
		c0.329,0.093,0.776,0.116,1.204,0.031c0.747-0.149,3.383-0.953,5.167-0.953c1.783,0,4.909,0.887,5.374,0.977
		c0.466,0.09,1.325,0.064,1.486-0.365l0,0l0.492-1.912c0.299-0.2,0.793-0.219,0.793-0.219l-0.001,0.003
		c3.776-0.311,10.164,0.787,21.402,0.787v-4.327l-0.197-0.006c-0.518-0.01-1.032-0.051-1.537-0.122
		c-3.333-0.044-6.552-0.21-9.46-0.398C62.038,59.601,62.409,59.439,62.577,59.029z M74.945,62.645c-0.033-0.002-0.066,0-0.102,0
		c-0.049,0.103-0.111,0.23-0.16,0.333c-0.082,0.011-0.16,0.022-0.242,0.033c-0.418-0.008-0.613-0.274-0.621-0.78
		c0.002-0.266,0.057-0.435,0.183-0.574c0.12-0.125,0.267-0.178,0.522-0.181c0.062,0.003,0.12,0.003,0.182,0.005
		c0.033,0.098,0.068,0.193,0.102,0.291c0.039,0,0.078-0.001,0.117-0.001c0-0.134,0-0.261,0-0.39
		c-0.139-0.033-0.295-0.048-0.471-0.047c-0.624,0.018-0.944,0.295-0.96,0.933c0.003,0.278,0.068,0.485,0.218,0.665
		c0.16,0.187,0.329,0.26,0.663,0.26c0.175-0.002,0.364-0.037,0.536-0.1C74.924,62.938,74.935,62.793,74.945,62.645z M76.922,62.142
		c-0.014-0.556-0.299-0.823-0.803-0.829c-0.516,0.021-0.827,0.34-0.842,0.944c0.014,0.56,0.301,0.935,0.796,0.94
		C76.594,63.174,76.906,62.74,76.922,62.142z M79.09,61.289c-0.22,0.005-0.431,0.01-0.65,0.016c0,0.023,0,0.047,0,0.07
		c0.082,0.031,0.16,0.061,0.243,0.092c0,0.348,0,0.697,0,1.078c-0.313-0.455-0.597-0.836-0.909-1.226
		c-0.168,0.003-0.326,0.007-0.494,0.011c0,0.023,0,0.047,0,0.07c0.084,0.031,0.162,0.062,0.245,0.092
		c0,0.455,0.001,0.916,0.001,1.43c-0.082,0.039-0.165,0.08-0.245,0.12c0,0.027,0,0.065,0,0.092c0.22-0.005,0.43-0.01,0.649-0.015
		c0-0.027,0-0.065,0-0.092c-0.08-0.037-0.161-0.073-0.24-0.109c0-0.457-0.002-0.869-0.002-1.279
		c0.354,0.465,0.675,0.926,1.028,1.479c0.044-0.001,0.087-0.003,0.13-0.004c0-0.599,0-1.13,0-1.651
		c0.082-0.035,0.162-0.068,0.244-0.104C79.09,61.335,79.09,61.313,79.09,61.289z M80.657,61.242
		c-0.411,0.014-0.808,0.025-1.22,0.037c0,0.025,0,0.047,0,0.072c0.084,0.029,0.162,0.06,0.246,0.09c0,0.454,0,0.912,0,1.422
		c-0.082,0.041-0.166,0.082-0.245,0.122c0,0.028,0,0.065,0,0.093c0.27-0.01,0.526-0.02,0.797-0.028c0-0.028,0-0.064,0-0.092
		c-0.085-0.034-0.17-0.07-0.258-0.104c0-0.242,0-0.469,0-0.697c0.127-0.004,0.249-0.008,0.377-0.012
		c0.029,0.074,0.063,0.158,0.091,0.232c0.034-0.001,0.067-0.002,0.102-0.004c0-0.201,0-0.389,0-0.582
		c-0.034,0-0.067,0.003-0.102,0.003c-0.03,0.073-0.062,0.152-0.091,0.226c-0.127,0.004-0.25,0.008-0.377,0.012
		c0-0.229,0-0.44,0-0.656c0.161-0.006,0.313-0.01,0.475-0.015c0.036,0.082,0.07,0.161,0.105,0.243c0.033,0,0.066-0.002,0.1-0.003
		C80.657,61.479,80.657,61.361,80.657,61.242z M81.749,62.896c-0.082-0.035-0.162-0.068-0.243-0.103c0-0.505,0-0.96,0-1.411
		c0.081-0.035,0.16-0.07,0.243-0.106c0-0.024,0-0.047,0-0.071c-0.266,0.01-0.518,0.018-0.781,0.027c0,0.025,0,0.047,0,0.072
		c0.082,0.03,0.161,0.059,0.244,0.088c0,0.453,0,0.909,0,1.414c-0.08,0.041-0.164,0.082-0.244,0.123c0,0.027,0,0.063,0,0.092
		c0.264-0.012,0.516-0.024,0.781-0.035C81.749,62.959,81.749,62.924,81.749,62.896z M83.821,61.918
		c-0.003-0.251-0.066-0.42-0.209-0.571c-0.17-0.169-0.3-0.202-0.67-0.188c-0.281,0.011-0.549,0.022-0.83,0.033
		c0,0.025,0,0.047,0,0.07c0.084,0.031,0.161,0.06,0.245,0.09c0,0.45,0,0.903,0,1.404c-0.081,0.041-0.165,0.082-0.245,0.123
		c0,0.027,0,0.063,0,0.09c0.268-0.012,0.523-0.025,0.791-0.039c0.266-0.017,0.436-0.08,0.592-0.215
		C83.707,62.52,83.817,62.248,83.821,61.918z M85.534,62.355c-0.035,0.001-0.068,0.004-0.102,0.006
		c-0.049,0.09-0.105,0.191-0.154,0.281c-0.184,0.01-0.359,0.021-0.543,0.031c0-0.248,0-0.48,0-0.717
		c0.145-0.008,0.283-0.017,0.428-0.023c0.029,0.073,0.061,0.15,0.089,0.225c0.034-0.004,0.067-0.005,0.102-0.007
		c0-0.195,0-0.38,0-0.568c-0.034,0.003-0.067,0.005-0.102,0.006c-0.028,0.073-0.059,0.149-0.089,0.224
		c-0.145,0.007-0.283,0.015-0.428,0.021c0-0.224,0-0.434,0-0.648c0.178-0.008,0.348-0.019,0.527-0.026
		c0.039,0.087,0.077,0.169,0.117,0.256c0.033-0.001,0.066-0.003,0.101-0.006c0-0.127,0-0.247,0-0.372
		c-0.435,0.021-0.85,0.043-1.284,0.064c0,0.025,0,0.047,0,0.071c0.084,0.03,0.162,0.057,0.244,0.085c0,0.449,0,0.896,0,1.389
		c-0.08,0.043-0.163,0.083-0.244,0.125c0,0.025,0,0.06,0,0.087c0.438-0.027,0.857-0.054,1.295-0.08
		C85.505,62.633,85.52,62.497,85.534,62.355z M87.704,60.908c-0.22,0.015-0.431,0.027-0.651,0.04c0,0.024,0,0.047,0,0.07
		c0.084,0.028,0.16,0.056,0.244,0.083c0,0.342,0,0.678,0,1.037c-0.313-0.412-0.598-0.772-0.911-1.151
		c-0.167,0.009-0.326,0.019-0.493,0.028c0,0.023,0,0.045,0,0.07c0.083,0.028,0.161,0.055,0.245,0.084c0,0.446,0,0.889,0,1.371
		c-0.082,0.041-0.165,0.082-0.245,0.123c0,0.026,0,0.059,0,0.086c0.22-0.016,0.431-0.029,0.65-0.045c0-0.026,0-0.059,0-0.085
		c-0.083-0.03-0.16-0.06-0.242-0.089c0-0.429,0-0.824,0-1.224c0.354,0.444,0.675,0.872,1.027,1.358
		c0.045-0.003,0.088-0.006,0.131-0.01c0-0.55,0-1.054,0-1.564c0.082-0.037,0.163-0.074,0.245-0.111
		C87.704,60.955,87.704,60.934,87.704,60.908z M89.402,60.796c-0.495,0.034-0.97,0.065-1.465,0.099c0,0.135,0,0.267,0,0.404
		c0.035-0.002,0.07-0.004,0.104-0.006c0.042-0.098,0.085-0.191,0.128-0.287c0.119-0.008,0.232-0.016,0.353-0.023
		c0,0.459,0,0.907,0,1.391c-0.085,0.041-0.172,0.082-0.257,0.123c0,0.026,0,0.057,0,0.082c0.275-0.021,0.538-0.042,0.813-0.064
		c0-0.026,0-0.055,0-0.082c-0.088-0.027-0.173-0.054-0.261-0.082c0-0.48,0-0.93,0-1.386c0.127-0.009,0.249-0.017,0.376-0.025
		c0.038,0.091,0.073,0.177,0.11,0.269c0.034-0.001,0.065-0.004,0.099-0.006C89.402,61.063,89.402,60.932,89.402,60.796z
		 M90.988,61.963c-0.033,0.002-0.066,0.006-0.102,0.008c-0.051,0.087-0.104,0.177-0.152,0.264c-0.184,0.016-0.36,0.031-0.545,0.046
		c0-0.23,0-0.448,0-0.675c0.146-0.012,0.284-0.021,0.43-0.031c0.029,0.07,0.059,0.139,0.088,0.209
		c0.035-0.002,0.067-0.006,0.102-0.008c0-0.186,0-0.361,0-0.546c-0.034,0.003-0.066,0.007-0.102,0.008
		c-0.029,0.073-0.059,0.146-0.088,0.219c-0.146,0.011-0.283,0.021-0.43,0.032c0-0.217,0-0.423,0-0.639
		c0.18-0.012,0.35-0.025,0.527-0.039c0.041,0.087,0.078,0.166,0.118,0.253c0.034-0.003,0.067-0.005,0.102-0.009
		c0-0.125,0-0.246,0-0.371c-0.435,0.033-0.851,0.064-1.286,0.096c0,0.023,0,0.047,0,0.07c0.084,0.027,0.162,0.054,0.246,0.081
		c0,0.442,0,0.874,0,1.333c-0.081,0.041-0.163,0.081-0.246,0.121c0,0.025,0,0.055,0,0.081c0.439-0.038,0.857-0.075,1.297-0.113
		C90.96,62.219,90.975,62.094,90.988,61.963z M92.524,61.77c-0.003-0.207-0.054-0.277-0.337-0.434
		c-0.094-0.051-0.182-0.099-0.275-0.151c-0.174-0.094-0.2-0.125-0.201-0.226c0.004-0.152,0.104-0.23,0.332-0.253
		c0.065-0.001,0.128-0.003,0.193-0.003c0.042,0.093,0.08,0.178,0.121,0.271c0.035-0.004,0.068-0.006,0.102-0.008
		c0-0.129,0-0.252,0-0.381c-0.014-0.002-0.025-0.004-0.039-0.007c-0.158-0.02-0.318-0.025-0.436-0.017
		c-0.339,0.036-0.525,0.211-0.533,0.492c0.002,0.186,0.062,0.267,0.299,0.398c0.087,0.046,0.166,0.09,0.253,0.137
		c0.177,0.1,0.212,0.14,0.214,0.263c-0.004,0.178-0.111,0.272-0.336,0.296c-0.073-0.003-0.145-0.006-0.219-0.01
		c-0.043-0.098-0.084-0.191-0.127-0.289c-0.035,0.002-0.066,0.004-0.102,0.008c0,0.135,0,0.264,0,0.4
		c0.012,0,0.021,0.002,0.033,0.004c0.201,0.033,0.363,0.043,0.475,0.033C92.307,62.254,92.516,62.062,92.524,61.77z M104.701,56.058
		c-0.031-0.129-0.073-0.234-0.123-0.322c-0.244-0.418-0.691-0.386-1.125-0.202c-0.523,0.222-1.287,0.725-2.174,0.383
		c0,0,0.453,0.544,0.205,1.196c-0.084,0.219-0.244,0.449-0.527,0.675c0,0,0.121-0.575-0.203-1.126
		c-0.098-0.161-0.232-0.321-0.42-0.463c0,0,0.17,0.439-0.012,0.848c-0.077,0.17-0.214,0.336-0.451,0.46c0,0,0.316-0.478-0.162-0.784
		c-0.282-0.183-0.765-0.283-0.685-1.027c0,0-0.523,0.522-1.328-0.161c0,0,0.313,0,0.59-0.151c0.113-0.061,0.221-0.148,0.297-0.271
		c0.26-0.423-0.248-0.814-0.536-1.792c-0.298-1.016-0.167-1.66-0.028-2.271l0.076-0.345c0,0-0.791-0.048-1.465,0.04
		c0,0-0.745,0.081-1.389,0.383c-0.645,0.301-0.807,0.559-0.604,1.389c0.202,0.825-0.019,1.108-0.222,1.831
		c-0.166,0.594-0.196,1.305,0.427,1.416c0.054,0.009,0.112,0.014,0.178,0.014c0,0-0.058,0.057-0.158,0.125
		c-0.243,0.162-0.742,0.387-1.312,0.017c0,0,0.229,0.606-0.24,1.146c-0.546,0.624-1.993,0.322-1.652,1.61
		c0,0-0.044-0.004-0.11-0.025c-0.088-0.028-0.219-0.084-0.334-0.193c-0.141-0.135-0.26-0.348-0.26-0.687
		c0,0-0.548,0.293-0.671,0.808c-0.031,0.133-0.034,0.279,0.007,0.439c0,0-0.15-0.045-0.293-0.176
		c-0.141-0.131-0.271-0.347-0.23-0.689c0,0-0.375,0.17-0.535,0.641c-0.045,0.136-0.072,0.297-0.068,0.486
		c0,0-0.256-0.039-0.43-0.255c-0.076-0.093-0.135-0.22-0.154-0.389c0,0-0.39,0.079-0.885,0.442c-0.23,0.17-0.432,0.283-0.658,0.357
		c5.016-0.328,8.861-0.643,9.915-0.447c0.742,0.137,0.976,0.458,0.976,0.713l0,0c-0.026,0.462-0.521,0.612-1.562,0.735
		c-1.271,0.148-1.541,0.57-1.404,0.844c0.191,0.393,0.764,0.413,1.526,0.319c1.253-0.153,3.879-0.831,6.322-0.859
		c-0.213,0.001-0.42-0.018-0.604-0.087c-0.221-0.084-0.409-0.237-0.542-0.506c-0.152,0.022-0.281,0.105-0.326,0.26
		c-0.028,0.09-0.027,0.254-0.006,0.35c-0.244-0.174-0.325-0.543-0.23-0.796c0.092-0.248,0.262-0.373,0.451-0.431
		c0.086-0.299,0.421-0.523,0.795-0.492c0,0-0.081-0.071-0.109-0.181c-0.15-0.095-0.434-0.221-0.641,0.006
		c-0.086,0.094-0.1,0.232-0.1,0.232c-0.111-0.195-0.07-0.49,0.08-0.646c0.225-0.232,0.698-0.232,0.978-0.047
		c0.173-0.067,0.401-0.088,0.636-0.058c0.275,0.035,0.559,0.137,0.768,0.311C103.957,58.653,105.109,57.731,104.701,56.058z
		 M82.913,61.302c-0.089,0.005-0.174,0.007-0.262,0.011c0,0.467,0,0.937,0,1.456c0.076-0.003,0.15-0.008,0.229-0.011
		c0.213-0.014,0.309-0.06,0.432-0.207c0.13-0.162,0.182-0.333,0.184-0.586c-0.002-0.219-0.041-0.361-0.131-0.482
		C83.254,61.339,83.139,61.294,82.913,61.302z M72.208,62.174c-0.015,0.598-0.328,1.021-0.849,1.031
		c-0.497-0.02-0.782-0.396-0.795-0.949c0.014-0.601,0.323-0.911,0.841-0.923C71.909,61.348,72.194,61.621,72.208,62.174z
		 M71.884,62.227c-0.008-0.497-0.185-0.734-0.508-0.748c-0.317,0.008-0.481,0.229-0.488,0.72c0.007,0.495,0.184,0.813,0.502,0.827
		C71.699,63.018,71.876,62.71,71.884,62.227z M60.054,62.607c-0.145-0.01-0.284-0.016-0.429-0.025c0-0.482,0-0.928,0-1.379
		c0.083-0.029,0.16-0.057,0.242-0.086c0-0.023,0-0.045,0-0.068c-0.264-0.014-0.517-0.027-0.781-0.041c0,0.024,0,0.047,0,0.07
		c0.083,0.036,0.162,0.072,0.245,0.109c0,0.438,0,0.869,0,1.335c-0.083,0.028-0.162,0.058-0.245,0.087c0,0.027,0,0.056,0,0.082
		c0.401,0.024,0.785,0.049,1.187,0.072c0.014-0.161,0.028-0.314,0.043-0.473c-0.035-0.002-0.067-0.004-0.102-0.006
		C60.161,62.395,60.108,62.497,60.054,62.607z M44.092,60.357c-0.136,0.208-0.314,0.323-0.515,0.382l0,0
		c0.208,0.004,0.415,0.012,0.624,0.024c0.009-0.076,0.009-0.152-0.013-0.223C44.165,60.464,44.131,60.404,44.092,60.357z
		 M51.301,30.49c0,0,0.769,0.333,1.177,0.045c0.261-0.184-0.096-0.53-0.096-0.53S52.219,30.49,51.301,30.49z M57.32,58.588
		c0,0-0.001,0.473-0.487,0.657c0.69,0.051,1.413,0.104,2.167,0.158c-0.137-0.039-0.275-0.093-0.413-0.172
		C57.742,58.749,57.32,58.588,57.32,58.588z M51.614,30.153c0.381-0.137,0.145-0.425,0.038-0.548
		c-0.107-0.123-0.004-0.357,0.356-0.151c0.168,0.096,0.332-0.137,0.332-0.137s-0.418-0.321-0.953-0.321c0,0-0.044,0.786-0.713,1.211
		C50.675,30.208,51.233,30.291,51.614,30.153z M67.769,24.194c-0.191,0.024-0.347-0.058-0.377-0.201
		c-0.018-0.145,0.104-0.272,0.296-0.305c0.194-0.024,0.35,0.061,0.378,0.204C68.081,24.035,67.958,24.16,67.769,24.194z
		 M58.48,62.471c0-0.463,0-0.893,0-1.329c0.083-0.028,0.159-0.056,0.243-0.083c0-0.024,0-0.046,0-0.07
		c-0.265-0.016-0.518-0.029-0.782-0.044c0,0.024,0,0.046,0,0.07c0.083,0.037,0.163,0.073,0.246,0.11c0,0.438,0,0.866,0,1.326
		c-0.083,0.029-0.162,0.057-0.246,0.086c0,0.026,0,0.055,0,0.08c0.264,0.018,0.517,0.034,0.782,0.051c0-0.025,0-0.055,0-0.081
		C58.642,62.548,58.561,62.51,58.48,62.471z M56.938,61.915c0.082,0.038,0.164,0.075,0.246,0.112c0,0.125,0,0.244,0,0.371
		c-0.077,0.004-0.151,0.008-0.229,0.012c-0.404-0.037-0.61-0.284-0.619-0.734c0.002-0.248,0.061-0.408,0.19-0.539
		c0.127-0.115,0.264-0.15,0.537-0.136c0.062,0.007,0.122,0.014,0.183,0.021c0.04,0.096,0.076,0.189,0.115,0.286
		c0.033,0.002,0.065,0.005,0.098,0.007c0-0.129,0-0.25,0-0.376c-0.115-0.042-0.279-0.071-0.478-0.083
		c-0.152-0.01-0.252-0.007-0.377,0.018c-0.372,0.078-0.583,0.357-0.592,0.793c0.003,0.255,0.07,0.447,0.219,0.617
		c0.158,0.172,0.338,0.253,0.642,0.277c0.196,0.012,0.384-0.004,0.586-0.051c0-0.158,0-0.309,0-0.465
		c0.072-0.028,0.14-0.057,0.212-0.085c0-0.025,0-0.052,0-0.077c-0.248-0.016-0.484-0.029-0.733-0.045
		C56.938,61.863,56.938,61.889,56.938,61.915z M54.855,60.816c0.082,0.039,0.163,0.076,0.245,0.115c0,0.438,0,0.861,0,1.309
		c-0.083,0.028-0.162,0.053-0.245,0.08c0,0.025,0,0.052,0,0.078c0.264,0.02,0.517,0.039,0.782,0.059c0-0.027,0-0.053,0-0.079
		c-0.082-0.038-0.162-0.077-0.243-0.115c0-0.45,0-0.874,0-1.312c0.083-0.027,0.16-0.054,0.243-0.08c0-0.024,0-0.047,0-0.07
		c-0.265-0.019-0.518-0.036-0.782-0.055C54.855,60.771,54.855,60.793,54.855,60.816z M54.096,60.242
		c0.083,0.043,0.165,0.086,0.249,0.13c-0.204,0.534-0.389,1.036-0.592,1.593c-0.008-0.028-0.017-0.057-0.025-0.086
		c-0.026-0.078-0.051-0.156-0.076-0.236c-0.153-0.461-0.301-0.9-0.455-1.361c0.085-0.031,0.164-0.06,0.249-0.092
		c0-0.027,0-0.053,0-0.08c-0.281-0.024-0.55-0.047-0.832-0.07c0,0.027,0,0.054,0,0.08c0.084,0.047,0.168,0.09,0.252,0.137
		c0.252,0.708,0.481,1.354,0.733,2.078c0.053,0.005,0.104,0.01,0.157,0.012c0.279-0.684,0.533-1.303,0.811-1.957
		c0.084-0.031,0.162-0.061,0.245-0.093c0-0.026,0-0.052,0-0.079c-0.242-0.018-0.474-0.036-0.716-0.055
		C54.096,60.189,54.096,60.215,54.096,60.242z M49.522,58.985c1.133-0.182,3.741-0.002,7.235,0.254
		c0.003-0.16-0.011-0.904-0.585-1.154c0,0,0.121,0.725-0.543,0.905c0,0,0.282-0.725-0.705-1.308c0,0,0.201,0.844-0.664,0.945
		c0,0,0.282-0.302,0.04-0.705c-0.242-0.402-0.583-0.422-1.228-0.644c-0.644-0.221-0.866-0.845-0.684-1.429
		c0,0-0.477,0.323-1.088,0.101c-0.221-0.081-0.362-0.222-0.362-0.222s0.725,0.041,0.725-0.805s-0.221-1.127-0.342-1.631
		c-0.121-0.503,0.121-0.806,0.04-1.309s-0.382-1.369-3.502-1.409c0,0,0.263,0.914,0.121,2.193c-0.161,1.451-0.846,1.652-0.665,2.114
		c0.141,0.36,0.463,0.545,0.926,0.645c0,0-0.664,0.623-1.328,0.121c0,0,0.161,0.443-0.362,0.766
		c-0.523,0.321-0.503,1.025-0.503,1.025s-0.685-0.302-0.423-1.328c0,0-0.684,0.563-0.644,1.61c0,0-0.584-0.483-0.563-1.026
		c0.021-0.545,0.282-0.826,0.282-0.826s-1.147,0.281-1.932-0.221c-0.785-0.504-1.529-0.682-1.731,1.207
		c-0.061,0.564,0.262,1.429,0.845,1.832c0,0,0.746-0.532,1.371-0.254c0.359-0.133,0.735-0.096,0.942,0.125
		c0.167,0.175,0.187,0.424,0.084,0.666c-0.017-0.08-0.056-0.148-0.112-0.215c-0.179-0.201-0.407-0.206-0.584-0.166
		c-0.007,0.111-0.049,0.205-0.049,0.205s0.896-0.037,0.767,0.765c0.057,0.062,0.104,0.131,0.129,0.214
		c0.07,0.231,0.021,0.548-0.168,0.737c2.21,0.145,4.436,0.738,5.565,0.831c0.739,0.062,1.334-0.059,1.554-0.38l0,0
		c0.136-0.272-0.254-0.614-1.341-0.783c-0.799-0.126-1.418-0.078-1.588-0.715l0,0C48.449,59.296,48.854,59.095,49.522,58.985z
		 M80.854,37.809c1.94,0.375,3.582-0.688,3.034-3.625c0,0-0.313,1.84-1.487,2.036c0,0,0.586-0.626,0.234-1.449
		c0,0-0.313,0.744-1.291,0.548c-0.979-0.195-2.116,0.196-1.763,1.879c0,0-1.646,0.231-1.781,1.983
		c-0.071,0.909,0.57,1.633,1.268,1.848c-0.226,0.256-0.547,0.784-0.136,1.422c0,0,0.179-1.075,1.441-1.075
		c1.262,0,1.646,1.269,1.098,2.504c-0.594,1.334-3.153,1.152-4.484,0.473c-1.04-0.531-1.749-1.516-1.979-2.687
		c-0.23-1.171,0.148-2.178,0.148-2.178s0.015,0.725,0.77,0.67c0,0-0.352-0.884,0.111-1.498c0.148,0.137,0.529,0.372,0.914,0.023
		c0,0-0.438-0.135-0.33-0.699c0.1-0.533,0.026-0.805-0.141-1.099c0,0,0.454,0.49,1.016-0.035c0,0-0.562-0.246-0.562-1.438
		c0,0,0.491,0.316,0.911-0.14c0,0-0.771-0.105-0.841-1.472c0,0,0.421,0.21,0.735-0.21c0,0-0.735-0.211-0.735-1.051
		c0-0.841-0.257-1.199-0.747-1.374c0,0,1.59,0.537,1.756-1.147c0,0-0.726,0.25-1.414-0.198c-0.832-0.541-1.545,0.322-1.662,0.648
		c0,0-0.393-0.241-0.912-0.363c-0.722-0.169-1.198,0.295-1.653,0.19s-1.328-0.011-1.488,0.07c-0.161,0.08-0.011,0.523-0.011,0.523
		s-0.323,1.364,0.573,1.726c0,0,0.021,0.285,0.18,0.488c0,0,0.072-0.23,0.18-0.487c0,0,0.203,0.053,0.658-0.054
		c0.307-0.072,1.393,0,1.072,1.032c-0.003,0.01-0.006,0.017-0.009,0.027l0.006-0.06c-0.382-0.291-1.03-0.643-1.987-0.234
		c-1.467,0.626-1.822,0.339-1.855-0.422c0,0-0.621,0.838-0.142,1.348c0.757,0.805,1.741-0.222,2.389-0.497
		c0.505-0.214,1.048-0.107,1.507,0.093c-0.488,1.125-1.605,0.831-1.605,0.831h-0.01c-0.065-0.248-0.092-0.463-0.092-0.463
		c-0.121,0.162-0.195,0.323-0.241,0.461c0,0-0.773,0.24-0.311,1.146c0,0,0.747-0.21,1.202,0.019c0,0-0.186,1.407-1.832,0.636
		c0,0-0.188,0.467,0.326,0.747c0,0-0.22,0.048-0.695-0.081c-0.563-0.563-1.407-1.281-2.173-1.686
		c-0.766-0.405-1.688-0.73-2.278-1.478c0,0,0.229-0.41,0.24-0.816c0.245-0.176,0.375-0.478,0.306-0.782
		c-0.057-0.249-0.233-0.441-0.459-0.535c0.052,0.068,0.08,0.15,0.11,0.235c0.085,0.246-0.006,0.457-0.115,0.575
		c-0.047-0.248-0.522-0.356-0.761-0.134c0.138-0.265,0.115-0.596-0.09-0.838c-0.163-0.192-0.4-0.283-0.634-0.266
		c0.075,0.037,0.137,0.095,0.201,0.157c0.185,0.176,0.206,0.4,0.168,0.55c-0.179-0.097-0.816,0.039-0.755,0.691
		c-0.068-0.193-0.213-0.357-0.417-0.444c-0.232-0.098-0.485-0.071-0.686,0.049c0.083-0.001,0.165,0.023,0.25,0.049
		c0.218,0.066,0.336,0.224,0.385,0.365c0,0-0.327,0.102-0.426,0.44c-0.175,0.593,0.385,0.95,0.385,0.95s-0.676,0.47-0.16,1.095
		c-0.125,0.079-0.317,0.127-0.527,0.042c-0.082-0.034-0.161-0.066-0.225-0.119c0.081,0.219,0.261,0.399,0.503,0.468
		c0.253,0.073,0.512,0.006,0.698-0.154c0.602,0.157,0.645-0.163,1.162,0.009c0.404,0.134,1.063,0.598,1.779,1.364
		c0,0-0.417,0.096-0.608,0.544c0,0,0.736,0.096,1.185,0.673c0.306,0.393,0.777,1.123,1.359,1.548
		c-0.184,0.148-0.389,0.266-0.606,0.306c0,0,0.331,0.347,0.822,0.405c-0.184,0.496-0.99,0.737-0.99,0.737s0.192,0.192,0.513,0.192
		c0,0-0.687,0.343-1.243,0.901c-0.557,0.558-0.945,0.748-1.704,1.074c0,0-0.235-0.131-0.653-0.194
		c-0.133-0.268-0.399-0.451-0.71-0.447c-0.266,0.003-0.5,0.141-0.645,0.349c0.08-0.037,0.169-0.048,0.263-0.06
		c0.268-0.033,0.462,0.105,0.559,0.242c-0.047,0.026-0.092,0.058-0.136,0.098c-0.245,0.229-0.192,0.546-0.167,0.649
		c-0.239-0.198-0.582-0.248-0.873-0.093c-0.231,0.123-0.375,0.346-0.411,0.587c0.055-0.068,0.128-0.118,0.205-0.171
		c0.22-0.148,0.452-0.121,0.597-0.049c-0.273,0.404-0.034,0.926,0.536,0.92c-0.211,0.027-0.411,0.139-0.543,0.327
		c-0.151,0.215-0.179,0.479-0.101,0.709c0.017-0.085,0.061-0.163,0.105-0.243c0.115-0.208,0.303-0.295,0.457-0.313
		c0.031,0.117,0.113,0.24,0.285,0.354c0.433,0.283,0.988-0.069,0.988-0.069s0.332,0.612,0.886,0.415
		c0.027,0.153-0.001,0.356-0.167,0.525c-0.065,0.066-0.127,0.132-0.203,0.173c0.244,0.008,0.488-0.097,0.649-0.303
		c0.169-0.216,0.207-0.493,0.125-0.735c0.396-0.537-0.035-1.32,1.658-2.018c0,0-0.176,0.432,0.025,0.646
		c0,0,0.257-0.584,1.089-0.814c0.464-0.13,1.311-0.388,1.949-0.949c0.336,0.992,1.354,1.289,1.883,2.137
		c-0.424,0.021-1.387,0.138-1.991,0.297c-0.891,0.232-1.511,0.815-1.73,1.242c-0.251,0.489-0.982,0.033-0.982,0.033
		c-0.083,0.62,0.507,0.755,0.507,0.755s-0.269,0.326-0.169,0.782c0.113,0.524-0.174,0.72-0.174,0.72
		c0.544,0.038,0.765-0.561,0.765-0.561c0.035,0.736-0.598,1.207-0.598,1.207c0.449,0.008,0.733-0.068,0.733-0.068
		c-0.034,0.428,0.464,1.541,0,1.878c-0.648,0.47-1.421,1.338-2.249,1.677c0,0-0.557-0.26-1.06-0.249
		c-0.163-0.242-0.447-0.383-0.747-0.335c-0.252,0.042-0.455,0.205-0.563,0.425c0.071-0.048,0.155-0.071,0.242-0.096
		c0.251-0.069,0.457,0.036,0.567,0.152c-0.043,0.031-0.083,0.067-0.118,0.11c-0.2,0.252-0.104,0.546-0.065,0.641
		c-0.256-0.155-0.588-0.154-0.842,0.037c-0.202,0.149-0.307,0.382-0.306,0.615c0.042-0.072,0.104-0.13,0.169-0.19
		c0.188-0.174,0.412-0.18,0.56-0.133c-0.01,0.063-0.012,0.139,0.003,0.23c0.083,0.496,0.534,0.559,0.638,0.566
		c-0.197,0.056-0.371,0.19-0.469,0.389c-0.112,0.225-0.102,0.479,0.006,0.687c0.004-0.083,0.034-0.163,0.065-0.247
		c0.079-0.213,0.246-0.321,0.389-0.36c0.046,0.106,0.142,0.212,0.321,0.294c0.452,0.207,0.929-0.207,0.929-0.207
		s0.379,0.623,0.869,0.332c0.057,0.138,0.071,0.335-0.051,0.529c-0.047,0.074-0.093,0.146-0.157,0.199
		c0.23-0.039,0.439-0.186,0.55-0.411c0.102-0.207,0.099-0.436,0.013-0.632c0.282-0.399,0.072-0.818,0.682-1.193
		c0,0.417,0.32,0.609,0.32,0.609c0.032-0.705,0.706-1.024,0.706-1.024c-0.085,0.51,0.319,0.577,0.319,0.577
		c0.001-0.674,0.501-1.035,0.501-1.035c0.032,0.514,0.461,0.586,0.461,0.586c-0.158-0.637,0.432-1.219,1.007-1.411
		c0.972-0.325,0.161-1.324,0.021-1.852c0.337,0.247,0.72,0.042,0.72,0.042c-0.804-0.678-0.06-0.917-0.423-1.61
		C72.07,48.333,72.5,48.196,73.392,48c0.426-0.094,1.019-0.226,1.521-0.496c-0.1,0.256-0.199,0.342-0.334,0.707
		c-0.272,0.742-0.213,1.438,0.012,1.906c0.502,1.047-0.597,1.333-0.597,1.333s0.663,0.245,1.119-0.112c0,0-0.021,0.432,0.284,0.568
		c0.443,0.199,0.371,0.165,0.572,0.44c0,0,0.104-0.384-0.148-0.644c0,0,0.785,0.014,0.929,0.539c0,0,0.21-0.346-0.062-0.736
		c0,0,1.508,0.268,1.279,0.766c-0.229,0.5-0.64,1.834-1.182,2.351c0,0-0.453-0.146-0.855-0.078c-0.225-0.205-0.551-0.27-0.836-0.135
		c-0.231,0.109-0.38,0.322-0.423,0.563c0.056-0.063,0.13-0.109,0.206-0.156c0.221-0.138,0.447-0.094,0.586-0.013
		c-0.031,0.041-0.061,0.086-0.082,0.138c-0.121,0.298,0.052,0.553,0.115,0.633c-0.287-0.076-0.605,0.019-0.799,0.27
		c-0.15,0.201-0.188,0.453-0.121,0.678c0.02-0.082,0.064-0.155,0.109-0.23c0.133-0.219,0.346-0.287,0.5-0.284
		c0.008,0.064,0.027,0.137,0.068,0.222c0.217,0.453,0.668,0.387,0.77,0.365c-0.174,0.109-0.302,0.286-0.343,0.504
		c-0.045,0.247,0.036,0.488,0.198,0.658c-0.02-0.082-0.014-0.166-0.008-0.255c0.018-0.229,0.15-0.382,0.278-0.457
		c0.075,0.087,0.194,0.161,0.386,0.194c0.593,0.104,0.828-0.547,0.828-0.547s0.836,0.366,1.096-0.143
		c0.123,0.082,0.245,0.236,0.252,0.464c0.002,0.089,0.006,0.174-0.018,0.255c0.168-0.163,0.26-0.4,0.225-0.65
		c-0.031-0.224-0.159-0.409-0.336-0.523c0.004-0.473-0.434-0.666-0.102-1.097c0.123,0.325,0.488,0.312,0.488,0.312
		c-0.432-0.39,0.16-0.991,0.16-0.991c0.191,0.336,0.494,0.356,0.494,0.356c-0.408-0.531,0.182-1.133,0.182-1.133
		c0.107,0.512,0.518,0.49,0.518,0.49c-0.296-0.328-0.194-0.974,0.441-1.694c0.675-0.765,0.913-1.438-0.548-1.688
		c0,0,0.432-0.324,0.441-0.888c0,0-0.496,0.521-1.782-0.132c-0.678-0.346-1.413-0.216-1.413-0.216l0.11-0.54
		c0.357,0.312,0.824,0.03,0.824,0.03c-1.162-0.62,0.544-1.63,0.01-2.92c0.916,0.182,1.918,0.041,2.706-0.435
		c2.146-1.296,1.369-3.123,1.285-3.623c-0.103-0.617,0.516-1.372,0.516-1.372s-0.795-0.265-1.168,0.48c0,0-0.348-0.36-1.404-0.446
		c-1.065-0.085-1.889-0.583-1.81-1.462C78.602,38.317,79.124,37.474,80.854,37.809z M73.249,32.029
		c-0.273-0.11-0.095-0.405-0.095-0.405s0.226,0.388,1.092,0.219C74.246,31.843,73.677,32.202,73.249,32.029z M73.916,31.669
		c-0.379-0.048-0.219-0.312-0.136-0.438c0.082-0.126-0.126-0.324-0.438-0.08c-0.146,0.114-0.334-0.057-0.334-0.057
		s0.329-0.34,0.837-0.439c0,0,0.266,0.707,0.867,0.899C74.713,31.554,74.297,31.717,73.916,31.669z"/>
	<g>
		<path d="M94.294,30.152c0.381,0.137,0.939,0.055,0.939,0.055c-0.669-0.425-0.713-1.212-0.713-1.212
			c-0.535,0-0.952,0.321-0.952,0.321s0.163,0.233,0.331,0.137c0.361-0.206,0.463,0.027,0.357,0.15
			C94.149,29.728,93.913,30.015,94.294,30.152z"/>
		<path fill="#552988" d="M84.407,59.599c-0.094,0.004-0.189-0.035-0.275-0.044c-0.29-0.032-0.531-0.16-0.729-0.527
			c-0.082,0.051-0.158,0.124-0.217,0.237c-0.049,0.094-0.037,0.246-0.031,0.345c-0.151-0.233-0.193-0.532-0.086-0.813
			c0.049-0.128,0.126-0.237,0.218-0.325c0.112-0.523,0.923-0.664,0.923-0.664s-0.032-0.074-0.041-0.178
			c-0.148-0.076-0.467-0.196-0.728,0.018c-0.067,0.055-0.163,0.195-0.193,0.272c-0.034-0.229,0.034-0.471,0.21-0.647
			c0.236-0.238,0.65-0.286,0.973-0.12c0.046-0.026,0.099-0.05,0.162-0.069c0.231-0.07,0.445-0.074,0.646-0.046
			c0.605,0.087,1.099,0.474,1.628,0.267c1.289-0.502,1.453-1.238,2.396-1.992c0.378-0.303,0.68-0.557,0.908-0.801
			c0.317-0.34,0.494-0.661,0.54-1.071c0,0-0.523,0.564-1.448-0.141c0,0,0.965-0.182,1.005-0.785c0,0-0.886,0.443-1.469-0.342
			c0,0,0.354-0.002,0.664-0.182c0.483-0.281,0.121-1.248,0.765-1.51c0,0-0.965-0.201-0.523-1.348c0,0,0.135,0.264,0.482,0.328
			c0.103,0.019,0.222,0.02,0.363-0.006c0.945-0.182,1.193-1.469,2.415-1.893c0.397-0.137,0.836-0.19,1.219-0.205
			c0.57-0.021,1.017,0.045,1.017,0.045l-0.362-0.283c0,0,0.442-0.08,0.846,0c0,0-0.182-0.354-0.967-0.624
			c-0.485-0.168-1.588-0.655-1.869-1.98c-0.243,0.311-0.651,0.691-1.191,0.914c-0.959,0.395-1.463,0.711-1.79,1.127
			c-0.14,0.178-0.246,0.375-0.344,0.604c0,0-0.125-0.1-0.186-0.321c-0.028-0.111-0.042-0.25-0.015-0.424c0,0-0.794,0.31-1.188,0.806
			c-0.57,0.719-0.201,1.393-0.503,1.773c0.048,0.228,0.015,0.432-0.06,0.58c-0.127,0.257-0.363,0.414-0.623,0.449
			c0.072-0.059,0.126-0.139,0.18-0.225c0.143-0.229,0.072-0.46,0.014-0.582c-0.046,0-0.091-0.004-0.133-0.01
			c-0.196-0.029-0.343-0.115-0.343-0.115s-0.044,0.428-0.395,0.639c-0.039,0.27-0.158,0.469-0.304,0.592
			c-0.12,0.102-0.259,0.152-0.401,0.162c-0.891,3.896-4.383,7.714-8.944,9.083c-0.136,0.041-0.271,0.08-0.41,0.117
			c-0.49,0.129-0.993,0.23-1.505,0.301C78.036,59.938,81.367,59.78,84.407,59.599z"/>
		<path fill="#552988" d="M98.095,50.702c0,0-0.791-0.048-1.465,0.04c0,0-0.745,0.081-1.389,0.383
			c-0.645,0.301-0.807,0.559-0.604,1.389c0.202,0.825-0.019,1.108-0.222,1.831c-0.166,0.594-0.196,1.305,0.427,1.416
			c0.054,0.009,0.112,0.014,0.178,0.014c0,0-0.058,0.057-0.158,0.125c-0.243,0.162-0.742,0.387-1.312,0.017
			c0,0,0.229,0.606-0.24,1.146c-0.546,0.624-1.993,0.322-1.652,1.61c0,0-0.044-0.004-0.11-0.025
			c-0.088-0.028-0.219-0.084-0.334-0.193c-0.141-0.135-0.26-0.348-0.26-0.687c0,0-0.548,0.293-0.671,0.808
			c-0.031,0.133-0.034,0.279,0.007,0.439c0,0-0.15-0.045-0.293-0.176c-0.141-0.131-0.271-0.347-0.23-0.689
			c0,0-0.375,0.17-0.535,0.641c-0.045,0.136-0.072,0.297-0.068,0.486c0,0-0.256-0.039-0.43-0.255
			c-0.076-0.093-0.135-0.22-0.154-0.389c0,0-0.39,0.079-0.885,0.442c-0.23,0.17-0.432,0.283-0.658,0.357
			c5.016-0.328,8.861-0.643,9.915-0.447c0.742,0.137,0.976,0.458,0.976,0.713l0,0c-0.026,0.462-0.521,0.612-1.562,0.735
			c-1.271,0.148-1.541,0.57-1.404,0.844c0.191,0.393,0.764,0.413,1.526,0.319c1.253-0.153,3.879-0.831,6.322-0.859
			c-0.213,0.001-0.42-0.018-0.604-0.087c-0.221-0.084-0.409-0.237-0.542-0.506c-0.152,0.022-0.281,0.105-0.326,0.26
			c-0.028,0.09-0.027,0.254-0.006,0.35c-0.244-0.174-0.325-0.543-0.23-0.796c0.092-0.248,0.262-0.373,0.451-0.431
			c0.086-0.299,0.421-0.523,0.795-0.492c0,0-0.081-0.071-0.109-0.181c-0.15-0.095-0.434-0.221-0.641,0.006
			c-0.086,0.094-0.1,0.232-0.1,0.232c-0.111-0.195-0.07-0.49,0.08-0.646c0.225-0.232,0.698-0.232,0.978-0.047
			c0.173-0.067,0.401-0.088,0.636-0.058c0.275,0.035,0.559,0.137,0.768,0.311c0,0,1.152-0.922,0.744-2.596
			c-0.031-0.129-0.073-0.234-0.123-0.322c-0.244-0.418-0.691-0.386-1.125-0.202c-0.523,0.222-1.287,0.725-2.174,0.383
			c0,0,0.453,0.544,0.205,1.196c-0.084,0.219-0.244,0.449-0.527,0.675c0,0,0.121-0.575-0.203-1.126
			c-0.098-0.161-0.232-0.321-0.42-0.463c0,0,0.17,0.439-0.012,0.848c-0.077,0.17-0.214,0.336-0.451,0.46
			c0,0,0.316-0.478-0.162-0.784c-0.282-0.183-0.765-0.283-0.685-1.027c0,0-0.523,0.522-1.328-0.161c0,0,0.313,0,0.59-0.151
			c0.113-0.061,0.221-0.148,0.297-0.271c0.26-0.423-0.248-0.814-0.536-1.792c-0.298-1.016-0.167-1.66-0.028-2.271L98.095,50.702z"/>
		<path d="M93.431,30.535c0.407,0.288,1.176-0.045,1.176-0.045c-0.918,0-1.08-0.485-1.08-0.485S93.169,30.35,93.431,30.535z"/>
		<path fill="#552988" d="M87.432,37.739c0,0-0.175-1.058-1.63-2.084l-0.004,3.557l0.003,6.524c0.052,0.01,0.099,0.021,0.14,0.034
			c0,0,1.72-1.028,2.718-2.214c0.322-0.383,0.523-0.624,0.523-0.624s-0.322,0.302-0.845,0.04c0,0,0.664-0.101,0.784-0.865
			c0,0-0.925-0.061-1.207-0.886c0,0,0.504,0.04,0.926-0.181c0,0-0.725-0.443-1.046-1.55c-0.322-1.107-0.726-1.45-1.147-1.57
			C86.646,37.92,87.068,37.699,87.432,37.739z"/>
		<path fill="#552988" d="M61.478,61.609c-0.013-0.04-0.027-0.078-0.04-0.117c-0.011-0.029-0.021-0.058-0.033-0.086
			c-0.079,0.194-0.154,0.383-0.233,0.584c0.149,0.008,0.293,0.015,0.443,0.021C61.568,61.873,61.524,61.743,61.478,61.609z"/>
		<path fill="#552988" d="M67.521,62.913c0.212,0.003,0.31-0.036,0.432-0.173c0.13-0.154,0.182-0.325,0.184-0.58
			c-0.002-0.221-0.042-0.364-0.131-0.49c-0.11-0.15-0.225-0.201-0.451-0.209c-0.088-0.002-0.173-0.004-0.262-0.005
			c0,0.462,0,0.933,0,1.451C67.37,62.909,67.444,62.912,67.521,62.913z"/>
		<polygon fill="#552988" points="64.861,24.697 63.062,24.269 62.751,25.397 63.462,26.077 		"/>
		<path fill="#552988" d="M71.39,63.025c0.31-0.008,0.486-0.315,0.494-0.799c-0.008-0.497-0.185-0.734-0.508-0.748
			c-0.317,0.008-0.481,0.229-0.488,0.72C70.895,62.693,71.071,63.011,71.39,63.025z"/>
		<path fill="#552988" d="M60.051,35.731v-4.192c-0.222,0.193-0.356,0.438-0.356,0.438s-0.141-0.262-0.362-0.282
			c-0.052-0.005-0.114-0.007-0.18,0c-0.058-0.276,0.041-0.47,0.283-0.656c0.071-0.055,0.148-0.089,0.228-0.105
			c-0.211-0.09-0.456-0.068-0.657,0.087c-0.266,0.203-0.368,0.585-0.309,0.945c-0.066,0.092-0.125,0.213-0.169,0.374
			c-0.216,0.766,0.221,1.409,0.221,1.409s-0.1,0.141-0.161,0.342c-0.232,0.774-0.664,1.268-1.711,1.651
			c-1.046,0.382-1.832,1.389-1.832,1.389c0.161-0.363-0.061-0.785-0.061-0.785s-0.765,0.463-1.469,0.181
			c-0.704-0.282-0.865-1.007-0.503-1.268c0.362-0.262,1.348-0.041,1.348-0.041c0.539-0.646,0.276-1.04-0.102-1.182
			c-0.081-0.03-0.167-0.047-0.251-0.054c-0.05-0.157-0.127-0.336-0.25-0.516c0,0-0.03,0.229-0.101,0.503
			c-0.004,0.017-0.01,0.037-0.016,0.057c-0.423,0.119-1.527,0.189-1.797-1.062c-0.01-0.048-0.019-0.094-0.027-0.14
			c0.311-0.069,0.755-0.135,1.224-0.098c1.085,0.085,1.659,0.952,2.587,1.041c1.469,0.141,2.096-1.179,1.632-2.238
			c-0.288-0.659-1.174-0.802-1.489-0.042c-0.288,0.692,0.351,1.109,0.351,1.109c-0.319,0.591-1.015,0.329-1.901-0.095
			c-1.07-0.515-1.948-0.182-2.435,0.12c-0.134-1.15,0.511-1.473,1.708-1.288c0.098,0.015,0.188,0.023,0.273,0.027
			c0.031,0.078,0.061,0.156,0.086,0.23c0.093,0.265,0.152,0.482,0.152,0.482c0.187-0.249,0.255-0.571,0.28-0.762
			c0.597-0.174,0.703-0.729,0.717-1.104c0.021-0.503-0.141-0.745-0.04-1.006c0.101-0.262,0.079-0.479-0.604-0.544
			c-0.081-0.008-0.155-0.011-0.221-0.012c-0.105,0-0.194,0.007-0.271,0.018c-0.375,0.053-0.474,0.186-0.957-0.147
			c-0.396-0.272-0.903-0.24-1.309-0.141c-0.402,0.099-0.705,0.262-0.705,0.262c-0.065-0.208-0.162-0.383-0.278-0.526
			c-0.458-0.562-1.239-0.641-1.795-0.299c-0.698,0.429-1.503,0.161-1.503,0.161s-0.027,0.403,0.114,0.645
			c0.49,0.84,1.61,0.584,1.61,0.584s-0.322,0.121-0.604,0.241s-0.785,0.463-1.066,0.785c-0.663,0.757-0.262,1.59-0.725,2.053
			c-0.379,0.379-0.866,0.503-0.866,0.503c0.483,0.604,1.268,0.483,1.268,0.483c-0.201,1.269-1.228,1.57-1.228,1.57
			c0.624,0.563,1.248,0.362,1.248,0.362c-0.021,1.309-1.047,1.772-1.047,1.772C47.497,37.573,48,36.849,48,36.849
			c-0.101,1.288-1.268,1.529-1.268,1.529c0.926,0.705,1.57,0.402,1.57,0.402s0.422,0.383,0.503,1.067
			c0.067,0.568-0.342,1.147-0.342,1.147c0.705,0.402,1.208-0.02,1.208-0.02c-1.067,1.67-1.973,2.697-2.899,3.442
			c-1.502,1.209-3.261,1.63-4.217,1.731c-0.455,0.048-0.976-0.034-1.379-0.168s-0.725-0.456-0.939-0.806
			c-0.321-0.521-0.564-1.852,0.134-2.71c0.87-1.071,2.255-0.886,2.953-0.457c0.698,0.43,0.429,1.396,0.429,1.396
			c1.208-1.315,0.161-2.201,0.161-2.201c2.335-0.805,2.067-3.194,1.235-4.213c-0.692-0.849-1.785-0.979-1.785-0.979
			c0.107-0.416,0.161-0.873,0.134-1.101s-0.081-0.429-0.188-0.59c-0.075-0.113-0.178-0.239-0.302-0.349
			c-0.107-0.095-0.232-0.178-0.369-0.228c-0.905-0.329-1.557,0.094-2.282-0.054c-0.597-0.122-0.886-0.711-0.886-0.711
			s-0.188,0.322-0.175,0.858c0.016,0.658,0.39,0.966,0.39,0.966c-1.638-0.416-1.785-2.536-1.785-2.536s-0.255,0.778-0.242,1.637
			c0.038,2.415,1.557,3.381,4.2,2.953c2.327-0.378,2.845,1.073,2.872,1.717c0.027,0.645-0.255,0.953-0.309,1.02
			c-0.054,0.067-0.067,0.081-0.161,0.188c-0.925,1.057-2.321,0.677-3.378,1.013c-0.405,0.128-0.755,0.383-0.755,0.383
			c-0.121-0.953-0.967-0.859-1.289-0.846c-0.322,0.014-0.537,0.121-0.537,0.121s0.646,0.098,0.845,0.805
			c0.269,0.953-0.778,2.053-0.295,3.892c0.236,0.898,0.647,1.638,2.161,2.215c1.516,0.577,3.644-0.107,3.644-0.107
			c-0.946,0.402-1.167,1.369-1.369,2.113s-0.946,0.583-0.946,0.583c0.523,0.726,1.248,0.564,1.248,0.564s-0.101,0.181-0.181,0.382
			c-0.249,0.621-0.322,1.49-0.322,1.49c-0.584-1.148-1.249-0.725-1.833-0.826c-0.976-0.168-0.604-0.986-0.604-0.986
			s-0.604,0.121-0.744,0.604c-0.141,0.484,0.241,0.705,0.241,0.705s-0.282-0.04-0.442-0.021c-0.161,0.021-0.544,0.04-0.766,0.443
			c-0.25,0.455-0.221,1.39-0.483,2.154c-0.194,0.568-0.826,0.805-0.826,0.805c0.463,0.504,0.946,0.182,0.946,0.182
			c-0.222,0.945-1.127,1.207-1.127,1.207c0.422,0.443,1.127,0.101,1.127,0.101c-0.181,1.026-1.026,1.128-1.026,1.128
			c0.725,0.563,1.248,0.061,1.248,0.061s0.239,1.288,0.564,1.851c0.498,0.863,1.149,1.082,1.718,1.094
			c-1.802,0.22-3.466,0.607-4.062,0.703c-0.843,0.137-1.52,0.027-1.687-0.314c-0.075-0.338,0.452-0.58,1.314-0.686
			s1.302-0.268,1.313-0.685l-0.015-0.054c-0.156-0.587-1.656-0.368-2.51-0.241c-0.454,0.068-1.047,0.23-1.444,0.348l-0.313,0.097
			l0.604,2.352l0.553,2.154l0.273-0.119c0.285-0.108,0.691-0.217,1.035-0.274l0.346,1.614c0.055,0.132,0.232,0.238,0.481,0.311
			c0.329,0.093,0.776,0.116,1.204,0.031c0.747-0.149,3.383-0.953,5.167-0.953c1.783,0,4.909,0.887,5.374,0.977
			c0.466,0.09,1.325,0.064,1.486-0.365l0,0l0.492-1.912c0.299-0.2,0.793-0.219,0.793-0.219l-0.001,0.003
			c3.776-0.311,10.164,0.787,21.402,0.787v-4.327l-0.197-0.006c-0.518-0.01-1.032-0.051-1.537-0.122
			c-3.333-0.044-6.552-0.21-9.46-0.398c0.343,0.012,0.714-0.149,0.881-0.56c0.084,0.116,0.128,0.282,0.102,0.512
			c0.167-0.185,0.284-0.583,0.147-0.849c-0.046-0.09-0.101-0.163-0.16-0.226c-0.066-0.663-0.858-0.685-0.858-0.685
			s0.059-0.061,0.075-0.163c0.294-0.048,0.604,0.078,0.7,0.388c0.057-0.225,0.025-0.484-0.148-0.664
			c-0.271-0.28-0.606-0.271-0.85-0.21c-0.308-0.192-0.743-0.179-1.105-0.115c-0.463,0.081-0.785,0.483-1.51,0.222
			s-1.429-1.188-1.933-1.65c-0.503-0.463-0.805-0.725-1.248-1.127c-0.443-0.402-0.524-1.008-0.524-1.008
			c1.087,0.564,1.671-0.482,1.671-0.482c-0.966,0.182-1.268-0.604-1.268-0.604c0.966,0.483,1.529-0.241,1.529-0.241
			s-0.825-0.12-0.865-0.765c-0.05-0.807-0.624-1.006-0.624-1.006c1.006-0.342,0.523-1.309,0.523-1.309s-0.181,0.402-0.705,0.302
			c-0.299-0.058-0.644-0.302-1.026-0.685c-0.795-0.795-1.469-1.025-1.69-1.086s-0.362-0.08-0.625-0.141
			c-0.639-0.147-1.389-0.142-1.69-0.142c-0.302,0-0.805,0.04-0.805,0.04s0.483-0.563,1.972-1.048
			c1.49-0.482,2.094-1.268,2.094-1.268c0.382,0.322,0.765,0.504,1.59,0.865c0.826,0.363,1.067,1.27,1.067,1.27
			c0.382-0.304,0.181-0.766,0.181-0.766s0.443,0.141,1.228,0.806c0.726,0.613,0.214,1.091,0.419,1.588
			c-0.128,0.42-0.02,0.751,0.145,0.941c0.186,0.219,0.453,0.314,0.712,0.284c-0.084-0.04-0.163-0.097-0.229-0.174
			c-0.149-0.175-0.202-0.403-0.164-0.618c0.003-0.018,0.003-0.033,0.006-0.051c0.288,0.027,0.56-0.18,0.56-0.18
			c0.036,0.131,0.05,0.413,0.224,0.621c0.036,0.516,0.286,0.863,0.533,0.99c0.236,0.121,0.497,0.094,0.706-0.045
			c-0.085-0.001-0.172-0.02-0.256-0.063c-0.214-0.109-0.348-0.34-0.373-0.591c-0.002-0.017-0.006-0.033-0.01-0.049
			c0.02,0,0.038,0.002,0.059,0.001c0.825-0.02,0.667-0.964,0.667-0.964c0.307,0.112,0.561,0.053,0.743-0.094
			c0.193,0.153,0.3,0.4,0.257,0.658c-0.017,0.099-0.054,0.189-0.106,0.269c0.243-0.12,0.426-0.347,0.472-0.628
			c0.04-0.24-0.082-0.537-0.336-0.768c0.038-0.162,0.034-0.332-0.023-0.484c-0.151-0.408-0.624-0.584-0.624-0.584
			c0.363-0.153,0.542-0.343,0.607-0.528c0.191,0.068,0.353,0.21,0.426,0.409c0.035,0.094,0.046,0.189,0.04,0.28
			c0.152-0.214,0.2-0.492,0.104-0.755c-0.091-0.247-0.347-0.468-0.694-0.531c-0.074-0.099-0.161-0.18-0.241-0.225
			c-0.181-0.102-0.322-0.141-0.503-0.161c-0.343-0.037-0.892,0.018-0.892,0.018c-0.946-0.443-1.665-1.124-2.027-1.486
			c-0.362-0.363-0.684-0.725-0.866-0.946c-0.181-0.222-0.342-0.402-0.342-0.402c0.543,0,0.745-0.282,0.745-0.282
			c-0.523-0.121-0.543-0.624-0.543-0.624c0.725-0.04,0.926-0.966,0.926-0.966c-0.624,0.262-0.825-0.1-0.825-0.1
			c0.745-0.423,1.026-1.409,1.308-2.113c0.282-0.705,0.886-0.926,0.886-0.926c-0.362-0.302-0.826-0.202-0.826-0.202
			C58.994,36.422,59.846,35.858,60.051,35.731z M71.405,61.333c0.504,0.015,0.789,0.288,0.803,0.841
			c-0.015,0.598-0.328,1.021-0.849,1.031c-0.497-0.02-0.782-0.396-0.795-0.949C70.578,61.655,70.888,61.345,71.405,61.333z
			 M68.838,61.344c0.435,0.004,0.851,0.011,1.285,0.015c0,0.124,0,0.245,0,0.373c-0.035,0-0.067-0.001-0.102-0.001
			c-0.039-0.089-0.078-0.176-0.118-0.264c-0.178-0.004-0.349-0.004-0.526-0.008c0,0.215,0,0.427,0,0.654
			c0.145,0.001,0.283,0.004,0.429,0.006c0.028-0.072,0.06-0.148,0.088-0.221c0.034,0,0.067,0.002,0.102,0.002
			c0,0.191,0,0.379,0,0.58c-0.034,0-0.067,0-0.102-0.001c-0.027-0.075-0.06-0.162-0.088-0.235c-0.146-0.003-0.284-0.006-0.429-0.007
			c0,0.243,0,0.481,0,0.739c0.184,0.004,0.359,0.008,0.543,0.01c0.048-0.088,0.105-0.192,0.154-0.281
			c0.034,0,0.066,0.002,0.101,0.002c-0.014,0.146-0.028,0.289-0.042,0.441c-0.438-0.008-0.857-0.018-1.295-0.025
			c0-0.027,0-0.064,0-0.092c0.082-0.035,0.164-0.07,0.245-0.107c0-0.504,0-0.961,0-1.41C69,61.48,68.92,61.448,68.838,61.412
			C68.838,61.389,68.838,61.367,68.838,61.344z M66.753,61.303c0.281,0.007,0.549,0.012,0.83,0.018c0.371,0.01,0.5,0.049,0.67,0.229
			c0.143,0.16,0.207,0.334,0.209,0.586c-0.005,0.334-0.114,0.604-0.326,0.783c-0.157,0.125-0.326,0.176-0.592,0.171
			c-0.268-0.009-0.523-0.017-0.791-0.024c0-0.027,0-0.063,0-0.09c0.082-0.035,0.163-0.068,0.246-0.104c0-0.498,0-0.949,0-1.396
			c-0.083-0.033-0.163-0.068-0.246-0.102C66.753,61.348,66.753,61.326,66.753,61.303z M64.139,61.229
			c0.435,0.014,0.851,0.025,1.286,0.039c0,0.123,0,0.242,0,0.369c-0.034-0.001-0.068-0.002-0.102-0.004
			c-0.04-0.088-0.077-0.174-0.118-0.264c-0.178-0.005-0.349-0.01-0.527-0.015c0,0.212,0,0.42,0,0.642
			c0.145,0.006,0.284,0.01,0.429,0.015c0.029-0.071,0.059-0.144,0.088-0.215c0.035,0.001,0.067,0.003,0.102,0.003
			c0,0.189,0,0.373,0,0.57c-0.035-0.002-0.067-0.004-0.102-0.004c-0.028-0.074-0.059-0.158-0.088-0.232
			c-0.145-0.005-0.284-0.01-0.429-0.016c0,0.238,0,0.47,0,0.717c0.183,0.009,0.359,0.014,0.542,0.022
			c0.049-0.087,0.104-0.183,0.154-0.269c0.034,0.001,0.067,0.002,0.102,0.004c-0.014,0.141-0.029,0.278-0.042,0.425
			c-0.439-0.018-0.858-0.034-1.296-0.054c0-0.027,0-0.061,0-0.087c0.083-0.033,0.163-0.064,0.246-0.098c0-0.487,0-0.933,0-1.376
			c-0.083-0.035-0.163-0.069-0.246-0.105C64.139,61.273,64.139,61.252,64.139,61.229z M62.425,61.164
			c0.496,0.02,0.97,0.037,1.465,0.056c0,0.133,0,0.263,0,0.399c-0.034,0-0.065-0.002-0.098-0.003
			c-0.038-0.095-0.073-0.186-0.111-0.28c-0.127-0.004-0.249-0.008-0.376-0.014c0,0.455,0,0.91,0,1.41
			c0.087,0.039,0.175,0.079,0.262,0.118c0,0.026,0,0.06,0,0.087c-0.275-0.014-0.538-0.027-0.813-0.039c0-0.027,0-0.059,0-0.086
			c0.086-0.032,0.171-0.063,0.258-0.095c0-0.497,0-0.952,0-1.405c-0.12-0.006-0.234-0.01-0.354-0.016
			c-0.043,0.093-0.084,0.179-0.127,0.271c-0.036-0.002-0.069-0.003-0.105-0.005C62.425,61.428,62.425,61.297,62.425,61.164z
			 M60.542,62.696c0.074-0.031,0.145-0.062,0.219-0.093c0.213-0.545,0.408-1.016,0.621-1.498c0.065,0.003,0.128,0.005,0.193,0.008
			c0.192,0.501,0.367,0.987,0.56,1.563c0.073,0.039,0.149,0.078,0.223,0.117c0,0.026,0,0.059,0,0.086
			c-0.252-0.014-0.492-0.027-0.743-0.039c0-0.027,0-0.059,0-0.085c0.068-0.032,0.134-0.063,0.202-0.095
			c-0.058-0.181-0.112-0.352-0.169-0.526c-0.178-0.009-0.347-0.017-0.525-0.024c-0.061,0.168-0.118,0.332-0.179,0.505
			c0.066,0.038,0.133,0.077,0.199,0.115c0,0.026,0,0.057,0,0.084c-0.203-0.013-0.397-0.022-0.601-0.034
			C60.542,62.753,60.542,62.722,60.542,62.696z M44.201,60.764c-0.208-0.013-0.416-0.021-0.624-0.024l0,0
			c0.2-0.059,0.378-0.174,0.515-0.382c0.039,0.047,0.072,0.106,0.096,0.184C44.21,60.611,44.21,60.688,44.201,60.764z
			 M54.812,60.296c-0.083,0.032-0.161,0.062-0.245,0.093c-0.278,0.654-0.532,1.273-0.811,1.957
			c-0.053-0.002-0.104-0.007-0.157-0.012c-0.252-0.725-0.481-1.37-0.733-2.078c-0.084-0.047-0.168-0.09-0.252-0.137
			c0-0.026,0-0.053,0-0.08c0.281,0.023,0.55,0.046,0.832,0.07c0,0.027,0,0.053,0,0.08c-0.085,0.032-0.163,0.061-0.249,0.092
			c0.154,0.461,0.301,0.9,0.455,1.361c0.025,0.08,0.05,0.158,0.076,0.236c0.009,0.029,0.017,0.058,0.025,0.086
			c0.203-0.557,0.388-1.059,0.592-1.593c-0.083-0.044-0.166-0.087-0.249-0.13c0-0.027,0-0.053,0-0.08
			c0.242,0.019,0.474,0.037,0.716,0.055C54.812,60.244,54.812,60.27,54.812,60.296z M55.637,60.871
			c-0.083,0.026-0.16,0.053-0.243,0.08c0,0.438,0,0.861,0,1.312c0.081,0.038,0.161,0.077,0.243,0.115c0,0.026,0,0.052,0,0.079
			c-0.265-0.02-0.518-0.039-0.782-0.059c0-0.026,0-0.053,0-0.078c0.083-0.027,0.162-0.052,0.245-0.08c0-0.447,0-0.871,0-1.309
			c-0.083-0.039-0.163-0.076-0.245-0.115c0-0.023,0-0.046,0-0.07c0.264,0.019,0.517,0.036,0.782,0.055
			C55.637,60.824,55.637,60.847,55.637,60.871z M57.671,61.96c-0.072,0.028-0.14,0.057-0.212,0.085c0,0.156,0,0.307,0,0.465
			c-0.202,0.047-0.39,0.063-0.586,0.051c-0.304-0.024-0.484-0.105-0.642-0.277c-0.148-0.17-0.216-0.362-0.219-0.617
			c0.009-0.436,0.22-0.715,0.592-0.793c0.125-0.024,0.225-0.027,0.377-0.018c0.199,0.012,0.362,0.041,0.478,0.083
			c0,0.126,0,0.247,0,0.376c-0.033-0.002-0.065-0.005-0.098-0.007c-0.039-0.097-0.075-0.19-0.115-0.286
			c-0.062-0.007-0.121-0.014-0.183-0.021c-0.273-0.015-0.41,0.021-0.537,0.136c-0.129,0.131-0.188,0.291-0.19,0.539
			c0.009,0.45,0.215,0.697,0.619,0.734c0.078-0.004,0.152-0.008,0.229-0.012c0-0.127,0-0.246,0-0.371
			c-0.082-0.037-0.164-0.074-0.246-0.112c0-0.026,0-0.052,0-0.077c0.249,0.016,0.485,0.029,0.733,0.045
			C57.671,61.908,57.671,61.935,57.671,61.96z M57.941,62.617c0-0.025,0-0.054,0-0.08c0.083-0.029,0.163-0.057,0.246-0.086
			c0-0.46,0-0.889,0-1.326c-0.083-0.037-0.163-0.073-0.246-0.11c0-0.024,0-0.046,0-0.07c0.264,0.015,0.517,0.028,0.782,0.044
			c0,0.024,0,0.046,0,0.07c-0.083,0.027-0.16,0.055-0.243,0.083c0,0.437,0,0.866,0,1.329c0.081,0.039,0.162,0.077,0.243,0.116
			c0,0.026,0,0.056,0,0.081C58.458,62.651,58.205,62.635,57.941,62.617z M59.087,62.609c0.083-0.029,0.162-0.059,0.245-0.087
			c0-0.466,0-0.897,0-1.335c-0.083-0.037-0.162-0.073-0.245-0.109c0-0.023,0-0.046,0-0.07c0.264,0.014,0.517,0.027,0.781,0.041
			c0,0.023,0,0.045,0,0.068c-0.083,0.029-0.16,0.057-0.242,0.086c0,0.451,0,0.896,0,1.379c0.145,0.01,0.284,0.016,0.429,0.025
			c0.054-0.11,0.106-0.213,0.16-0.322c0.035,0.002,0.067,0.004,0.102,0.006c-0.015,0.158-0.029,0.312-0.043,0.473
			c-0.402-0.023-0.785-0.048-1.187-0.072C59.087,62.665,59.087,62.637,59.087,62.609z M57.32,58.588c0,0,0.422,0.161,1.268,0.644
			c0.138,0.079,0.276,0.133,0.413,0.172c-0.755-0.054-1.478-0.107-2.167-0.158C57.318,59.061,57.32,58.588,57.32,58.588z
			 M51.361,51.985c0.081,0.503-0.161,0.806-0.04,1.309c0.121,0.504,0.342,0.785,0.342,1.631s-0.725,0.805-0.725,0.805
			s0.141,0.141,0.362,0.222c0.611,0.223,1.088-0.101,1.088-0.101c-0.182,0.584,0.04,1.208,0.684,1.429
			c0.644,0.222,0.986,0.241,1.228,0.644c0.242,0.403-0.04,0.705-0.04,0.705c0.865-0.102,0.664-0.945,0.664-0.945
			c0.987,0.583,0.705,1.308,0.705,1.308c0.665-0.181,0.543-0.905,0.543-0.905c0.574,0.25,0.588,0.994,0.585,1.154
			c-3.494-0.256-6.102-0.436-7.235-0.254c-0.668,0.109-1.073,0.311-1.073,0.733l0,0c0.169,0.637,0.789,0.589,1.588,0.715
			c1.087,0.169,1.478,0.511,1.341,0.783l0,0c-0.22,0.321-0.814,0.441-1.554,0.38c-1.129-0.093-3.354-0.687-5.565-0.831
			c0.189-0.189,0.238-0.506,0.168-0.737c-0.025-0.083-0.072-0.152-0.129-0.214c0.13-0.802-0.767-0.765-0.767-0.765
			s0.042-0.094,0.049-0.205c0.177-0.04,0.406-0.035,0.584,0.166c0.056,0.066,0.096,0.135,0.112,0.215
			c0.103-0.242,0.082-0.491-0.084-0.666c-0.207-0.221-0.583-0.258-0.942-0.125c-0.625-0.278-1.371,0.254-1.371,0.254
			c-0.583-0.403-0.905-1.268-0.845-1.832c0.202-1.889,0.946-1.711,1.731-1.207c0.785,0.502,1.932,0.221,1.932,0.221
			s-0.261,0.281-0.282,0.826c-0.021,0.543,0.563,1.026,0.563,1.026c-0.04-1.048,0.644-1.61,0.644-1.61
			c-0.262,1.026,0.423,1.328,0.423,1.328s-0.021-0.704,0.503-1.025c0.523-0.322,0.362-0.766,0.362-0.766
			c0.664,0.502,1.328-0.121,1.328-0.121c-0.462-0.1-0.785-0.284-0.926-0.645c-0.181-0.462,0.503-0.663,0.665-2.114
			c0.142-1.279-0.121-2.193-0.121-2.193C50.979,50.616,51.281,51.482,51.361,51.985z M50.675,30.208
			c0.668-0.425,0.713-1.211,0.713-1.211c0.535,0,0.953,0.321,0.953,0.321s-0.164,0.233-0.332,0.137
			c-0.361-0.206-0.463,0.028-0.356,0.151c0.106,0.123,0.343,0.411-0.038,0.548C51.233,30.291,50.675,30.208,50.675,30.208z
			 M51.301,30.49c0.918,0,1.082-0.485,1.082-0.485s0.356,0.346,0.096,0.53C52.07,30.823,51.301,30.49,51.301,30.49z"/>
		<path fill="#552988" d="M66.708,24.432c-0.01-0.067-0.011-0.134-0.006-0.2c0.037-0.497,0.479-0.919,1.144-1.04
			c0.76-0.101,1.367,0.25,1.468,0.824c0.101,0.573-0.421,1.071-1.145,1.208C67.439,25.326,66.792,25.016,66.708,24.432z
			 M68.066,23.891c-0.028-0.143-0.184-0.228-0.378-0.204c-0.192,0.033-0.314,0.161-0.296,0.305c0.03,0.143,0.186,0.225,0.377,0.201
			C67.958,24.16,68.081,24.035,68.066,23.891z"/>
		<path d="M95.153,63.695c0,0-0.193-0.019-0.02-0.002C95.141,63.694,95.147,63.694,95.153,63.695L95.153,63.695z"/>
		<path fill="#552988" d="M75.012,23.785c-0.707-0.451-1.371-0.855-2.122-1.292c-0.738,0.445-1.396,0.857-2.1,1.317
			c0.196,0.066,1.426,0.78,2.141,1.2C73.629,24.582,74.797,23.863,75.012,23.785z"/>
		<path fill="#552988" d="M79.244,24.421c0.004-0.033,0.008-0.077,0.008-0.109c0.007-0.522-0.428-0.975-1.104-1.095
			c-0.73-0.093-1.311,0.253-1.396,0.816c0,0.009,0,0.019,0,0.028c-0.083,0.56,0.434,1.015,1.121,1.143
			C78.567,25.298,79.171,24.992,79.244,24.421z"/>
		<path fill="#552988" d="M72.89,0v14.015c0,0-0.447,0.878-1.168,1.156c-0.579,0.223-1.022,1.055-0.445,1.646
			c-0.824,0.039-1.217,1.25-0.564,2.131c0.375,0.506,0.852,0.637,1.462,0.718c-0.144,0.27-0.373,0.499-0.735,0.617
			c-0.958,0.313-1.823-0.749-2.137-1.195c0.002,0,0.003,0,0.005,0h-0.005l0.006-0.004c0.338-0.111,0.493-0.6,0.372-1.204
			c-0.144-0.601-0.501-0.98-0.863-0.895c-0.352,0.121-0.506,0.645-0.371,1.24c0.13,0.488,0.396,0.807,0.68,0.861
			c-0.159,0.554-0.731,2.114-1.969,1.385c-0.165-0.098-0.289-0.222-0.389-0.354c1.255-0.458,1.202-1.465,1.202-1.465
			c0.004-0.694-0.412-1.182-1.063-1.106c0.272-0.419,0.007-0.96-0.85-1.167c-0.603-0.145-0.919-0.461-1.208-0.744
			c0,0,0.18,0.895-0.34,1.336c-0.455,0.386-0.341,1.209,0.079,1.363c-0.619,0.145-0.647,0.898-0.434,1.307
			c0.31,0.595,0.768,0.844,1.736,0.711l0.002-0.001c-0.097,0.506-0.539,0.887-0.999,0.747c-0.284-0.087-0.785-0.324-1.16-0.823l0,0
			c0.184-0.14,0.193-0.499,0.009-0.9c-0.21-0.418-0.524-0.646-0.762-0.542c-0.223,0.128-0.239,0.519-0.037,0.935
			c0.194,0.367,0.463,0.579,0.683,0.551c0.018,0.275,0.091,0.653-0.062,1.165c-0.14,0.471-0.731,0.422-0.992,0.188
			c0,0,0.726-0.523,0.256-1.455c-0.126-0.251-0.382-0.381-0.636-0.384c-0.143-0.005-0.287,0.034-0.413,0.122
			c-0.066-0.38-0.523-0.514-0.944-0.334c-0.462,0.197-0.721,0.151-0.921,0.077c0,0,0.824,0.678,1.558,1.413
			c-0.176-0.027-0.325,0.041-0.325,0.041l0.078,0.015c0.418,0.219,1.016,0.458,1.423,1.664c0.067,0.201,0.126,0.391,0.182,0.585
			c0,0,0.161-0.162,0.255-0.2c0.151-0.061,3.295-1.851,9.808-1.981v-7.11c0.035,0.239,0.203,0.816,0.979,1.082
			c0.912,0.313,1.153,1.215,0.36,1.637c0.976,0.091,1.253,1.035,0.917,1.64c-0.406,0.997-1.692,1.145-1.692,1.145
			c0.134,0.212,0.289,0.361,0.413,0.451c0.394,0.283,0.98,0.281,1.534-0.214c0.333-0.298,0.528-0.578,0.642-0.771l-0.026-0.003
			c-0.303-0.141-0.455-0.587-0.361-1.145c0.126-0.602,0.483-0.997,0.865-0.93c0.371,0.103,0.552,0.614,0.434,1.211
			c-0.119,0.505-0.392,0.84-0.698,0.893l-0.033-0.005l0.035,0.006c0.195,0.575,0.737,1.783,1.705,1.265
			c0.096-0.063,0.262-0.19,0.422-0.367c-0.381-0.151-0.684-0.375-0.854-0.709c-0.023-0.048-0.045-0.099-0.063-0.151
			c-0.356-0.774,0.185-1.807,1.036-1.664c-0.271-0.288-0.201-0.952,0.592-1.042c0.34-0.039,0.865-0.187,1.337-0.574
			c0,0-0.02,0.74,0.372,1.054c0.579,0.463,0.425,1.183-0.087,1.359c0.791,0.333,0.585,1.731-0.872,1.912
			c-0.129,0.021-0.458,0.031-0.458,0.031c0.093,0.772,0.604,1.014,1.063,0.888c0.363-0.101,0.773-0.437,0.993-0.636
			c-0.183-0.136-0.206-0.489-0.044-0.892c0.189-0.428,0.491-0.669,0.734-0.578c0.229,0.117,0.264,0.506,0.083,0.932
			c-0.169,0.36-0.414,0.582-0.628,0.583c-0.016,0.167-0.004,0.603,0.166,0.962c0.18,0.38,0.752,0.641,1.198,0.222
			c-0.071-0.021-0.184-0.101-0.184-0.101c-0.834-0.625,0.042-2.315,0.776-1.692c0.045-0.261,0.275-0.397,0.551-0.393
			c0.182,0.002,0.314,0.051,0.393,0.084c0.604,0.257,1.016,0.11,1.016,0.11s-0.729,0.284-1.588,1.348
			c0.146,0.013,0.43,0.123,0.492,0.211c0,0-0.588-0.184-1.074,0.526c-0.124,0.181-0.178,0.307-0.268,0.473
			c-0.348,0.631-0.537,1.133-0.738,1.786l-1.622,0.385l1.186,1.344l-0.249,1.44c-0.717-0.38-3.254-1.569-8.838-1.523
			c-5.719,0.048-8.099,0.981-8.814,1.349l-0.257,0.156c0,0,0.457,0.314,1.705,0.64c0.393,0.106,0.868,0.216,1.431,0.323
			c0.679-0.046,1.404-0.087,2.173-0.12c1.18-0.049,2.463-0.08,3.843-0.08c2.693,0,5.008,0.113,6.924,0.265
			c3.827,0.305,5.983,0.759,5.983,0.759l0.004,2.455c0.152,0.092,0.299,0.258,0.421,0.542c0,0,0.174-0.227,0.424-0.271
			c0.01-0.155-0.004-0.461-0.265-0.678c-0.069-0.058-0.148-0.089-0.229-0.105c0.213-0.09,0.458-0.068,0.661,0.086
			c0.252,0.192,0.359,0.545,0.319,0.887c0.099,0.105,0.177,0.243,0.229,0.402c0.141,0.433,0.102,1.012-0.174,1.451
			c0,0,0.112,0.302,0.334,0.67c0.197,0.331,0.482,0.714,0.854,0.98c0.617,0.443,1.092,0.532,1.584,0.867
			c0.133,0.091,0.268,0.201,0.408,0.341c0.383,0.382,0.584,0.583,0.584,0.583s-0.201-0.382-0.02-0.825c0,0,0.137,0.083,0.347,0.16
			c0.337,0.124,0.864,0.233,1.323-0.04c0.416-0.247,0.601-0.621,0.538-0.91c-0.049-0.229-0.254-0.404-0.618-0.419
			c-0.207-0.008-0.412,0.005-0.576,0.023c-0.219,0.024-0.37,0.057-0.37,0.057s-0.481-0.47-0.141-0.946
			c0.103-0.144,0.228-0.224,0.392-0.265c0.05-0.162,0.129-0.349,0.259-0.536c0,0,0.028,0.225,0.099,0.496
			c0.078-0.001,0.163-0.001,0.256,0.003c0.469,0.018,1.599-0.036,1.743-1.129c-0.299-0.06-0.686-0.106-1.103-0.073
			c-1.09,0.085-1.668,0.952-2.6,1.041c-1.475,0.141-2.104-1.179-1.637-2.238c0.29-0.66,1.18-0.802,1.495-0.042
			c0.289,0.691-0.354,1.109-0.354,1.109c0.32,0.591,1.019,0.329,1.908-0.096c1.063-0.508,1.912-0.32,2.303-0.005
			c-0.002-0.045,0-0.088-0.004-0.137c-0.008-0.095-0.02-0.201-0.04-0.308c-0.021-0.104-0.051-0.208-0.099-0.308
			c-0.141-0.298-0.434-0.543-1.069-0.532c-0.293,0.004-0.627,0.048-0.88,0.042c-0.042,0.101-0.081,0.204-0.114,0.301
			c-0.094,0.265-0.154,0.482-0.154,0.482c-0.236-0.314-0.283-0.745-0.293-0.883c-0.109-0.042-0.209-0.094-0.296-0.165
			c-0.135-0.109-0.226-0.268-0.264-0.496c-0.026-0.165-0.026-0.365,0.009-0.61c0.08-0.584,0.039-0.845-0.021-1.067
			c-0.059-0.221,0.162-0.342,0.604-0.282c0.442,0.061,1.007,0.322,1.49-0.02c0.294-0.208,0.514-0.335,0.932-0.293
			c0.146,0.015,0.317,0.05,0.525,0.111c0.171,0.05,0.367,0.116,0.596,0.202c0,0-0.023-0.823,0.905-0.966
			c0.866-0.133,0.961,0.405,1.973,0.464c0.21,0.012,0.46,0.004,0.765-0.035c0,0-0.024,0.311-0.202,0.608
			c-0.237,0.397-0.748,0.772-1.837,0.358c0,0,1.271,0.427,1.342,1.718c0.08,1.476,0.375,1.852,0.805,2.121
			c0,0-0.268,0.429-0.751,0.161c0,0,0.054,1.368,0.993,1.717c0,0-0.377,0.617-1.074,0.162c0,0-0.16,1.502,0.752,1.878
			c0,0-0.59,0.483-1.128-0.027c0,0,0.474,0.955-0.886,2.121c-0.938,0.805-0.678,1.662-0.678,1.662s-0.225-0.029-0.471-0.173
			c0.076,0.17,0.511,1.139,0.863,1.671c0.265,0.403,0.609,0.885,1.016,1.37c0.498,0.59,1.086,1.184,1.739,1.635
			c1.771,1.229,4.949,1.754,6.199,0.504c0.888-0.886,0.767-2.697-0.039-3.261c-1.242-0.87-2.643-0.805-3.062,0.219
			c-0.098,0.237-0.142,0.527-0.12,0.868c0,0-0.138-0.101-0.279-0.285c-0.063-0.08-0.125-0.176-0.177-0.286
			c-0.093-0.196-0.151-0.438-0.116-0.718c0.032-0.252,0.141-0.536,0.372-0.844c0,0-0.54-0.181-1.026-0.664
			c-0.482-0.478-0.909-1.25-0.704-2.437c0.206-1.201,1.126-1.739,1.757-1.97c0.354-0.129,0.617-0.163,0.617-0.163
			s-0.725-1.409,0.443-2.174c0.975-0.639,2.23,0.21,3.017-0.313c0.156-0.104,0.292-0.26,0.406-0.492c0,0,0.177,0.398,0.174,0.865
			c-0.004,0.304-0.082,0.636-0.336,0.906c0,0,0.458-0.055,0.914-0.496c0.365-0.354,0.732-0.957,0.857-1.979
			c0,0,0.235,0.625,0.26,1.449c0.02,0.742-0.132,1.644-0.783,2.395c-1.188,1.369-3.005,0.785-4.026,0.664
			c-1.871-0.221-3.184,2.031-1.488,3.241c0.563,0.402,1.167,0.462,1.73,0.523c0.563,0.06,1.368,0.081,2.052,0.584
			c0,0-0.12-1.268,1.833-0.705c0,0-0.396,0.048-0.665,0.361c-0.189,0.22-0.316,0.571-0.2,1.128c0.281,1.349,1.018,3.362-0.867,4.952
			c-1.67,1.409-4.548,0.423-4.548,0.423s0.726,0.362,0.865,1.609c0.085,0.752,0.447,0.941,0.722,0.973
			c0.182,0.022,0.326-0.025,0.326-0.025s-0.077,0.127-0.219,0.265c-0.201,0.196-0.533,0.413-0.969,0.318
			c0,0,0.582,0.704,0.725,1.872c0,0,0.072-0.213,0.324-0.412c0.18-0.141,0.448-0.273,0.844-0.319
			c0.143-0.017,0.303-0.022,0.481-0.014c0.765,0.04,1.007-0.543,0.784-1.007c0,0,0.447,0.113,0.662,0.407
			c0.144,0.194,0.184,0.468-0.077,0.841c0,0,0.325-0.025,0.707,0.177c0.092,0.048,0.186,0.108,0.28,0.187
			c0.073,0.061,0.134,0.127,0.184,0.201c0.533,0.779-0.107,2.222,0.999,2.778c0.074,0.039,0.155,0.071,0.246,0.1
			c0,0-0.043,0.059-0.117,0.125c-0.162,0.147-0.484,0.339-0.869,0.076c0,0,0.182,0.842,0.904,1.15
			c0.074,0.033,0.155,0.059,0.242,0.078c0,0-0.057,0.045-0.154,0.094c-0.205,0.105-0.582,0.227-0.953-0.033
			c0,0,0.082,0.742,0.75,1.057c0.078,0.036,0.163,0.066,0.257,0.09c0,0-0.056,0.047-0.147,0.102
			c-0.23,0.134-0.686,0.311-1.101-0.061c0,0-0.202,1.285-1.026,2.214c-0.454,0.51-0.844,0.646-1.208,0.649
			c1.925,0.21,3.755,0.638,4.387,0.739c0.843,0.137,1.556-0.055,1.685-0.314c0.076-0.338-0.451-0.58-1.313-0.686
			c-0.805-0.098-1.242-0.246-1.306-0.606l-0.007-0.078l0,0c0.004-0.042,0.004-0.018,0.014-0.054c0.156-0.587,1.655-0.368,2.51-0.241
			c0.482,0.072,1.123,0.252,1.518,0.369c0.102,0.032,0.177,0.056,0.241,0.075l-0.112,0.43l-1.045,4.076
			c-0.22-0.088-0.436-0.16-0.705-0.228v-0.001c0,0-0.273-0.107-0.523-0.111l-0.439,1.669c-0.19,0.254-0.805,0.425-1.671,0.233
			c-0.743-0.165-3.383-0.953-5.168-0.953c-1.783,0-4.909,0.887-5.374,0.977c-0.326,0.063-0.846,0.072-1.182-0.08
			c-0.141-0.064-0.256-0.158-0.304-0.285l-0.521-2.045c-0.244-0.023-0.38-0.037-0.453-0.045c-3.743-0.182-11.273,0.749-22.244,0.749
			v20.596h42.487V0H72.89z"/>
		<g>
			<path fill="#552988" d="M89.65,62.466c0.439-0.038,0.857-0.075,1.297-0.113c0.013-0.134,0.027-0.259,0.041-0.39
				c-0.033,0.002-0.066,0.006-0.102,0.008c-0.051,0.087-0.104,0.177-0.152,0.264c-0.184,0.016-0.36,0.031-0.545,0.046
				c0-0.23,0-0.448,0-0.675c0.146-0.012,0.284-0.021,0.43-0.031c0.029,0.07,0.059,0.139,0.088,0.209
				c0.035-0.002,0.067-0.006,0.102-0.008c0-0.186,0-0.361,0-0.546c-0.034,0.003-0.066,0.007-0.102,0.008
				c-0.029,0.073-0.059,0.146-0.088,0.219c-0.146,0.011-0.283,0.021-0.43,0.032c0-0.217,0-0.423,0-0.639
				c0.18-0.012,0.35-0.025,0.527-0.039c0.041,0.087,0.078,0.166,0.118,0.253c0.034-0.003,0.067-0.005,0.102-0.009
				c0-0.125,0-0.246,0-0.371c-0.435,0.033-0.851,0.064-1.286,0.096c0,0.023,0,0.047,0,0.07c0.084,0.027,0.162,0.054,0.246,0.081
				c0,0.442,0,0.874,0,1.333c-0.081,0.041-0.163,0.081-0.246,0.121C89.65,62.41,89.65,62.439,89.65,62.466z"/>
			<path fill="#552988" d="M91.881,62.148c-0.073-0.003-0.145-0.006-0.219-0.01c-0.043-0.098-0.084-0.191-0.127-0.289
				c-0.035,0.002-0.066,0.004-0.102,0.008c0,0.135,0,0.264,0,0.4c0.012,0,0.021,0.002,0.033,0.004
				c0.201,0.033,0.363,0.043,0.475,0.033c0.365-0.041,0.574-0.233,0.583-0.525c-0.003-0.207-0.054-0.277-0.337-0.434
				c-0.094-0.051-0.182-0.099-0.275-0.151c-0.174-0.094-0.2-0.125-0.201-0.226c0.004-0.152,0.104-0.23,0.332-0.253
				c0.065-0.001,0.128-0.003,0.193-0.003c0.042,0.093,0.08,0.178,0.121,0.271c0.035-0.004,0.068-0.006,0.102-0.008
				c0-0.129,0-0.252,0-0.381c-0.014-0.002-0.025-0.004-0.039-0.007c-0.158-0.02-0.318-0.025-0.436-0.017
				c-0.339,0.036-0.525,0.211-0.533,0.492c0.002,0.186,0.062,0.267,0.299,0.398c0.087,0.046,0.166,0.09,0.253,0.137
				c0.177,0.1,0.212,0.14,0.214,0.263C92.213,62.03,92.105,62.125,91.881,62.148z"/>
			<path fill="#552988" d="M89.193,60.938c0.038,0.091,0.073,0.177,0.11,0.269c0.034-0.001,0.065-0.004,0.099-0.006
				c0-0.138,0-0.27,0-0.405c-0.495,0.034-0.97,0.065-1.465,0.099c0,0.135,0,0.267,0,0.404c0.035-0.002,0.07-0.004,0.104-0.006
				c0.042-0.098,0.085-0.191,0.128-0.287c0.119-0.008,0.232-0.016,0.353-0.023c0,0.459,0,0.907,0,1.391
				c-0.085,0.041-0.172,0.082-0.257,0.123c0,0.026,0,0.057,0,0.082c0.275-0.021,0.538-0.042,0.813-0.064c0-0.026,0-0.055,0-0.082
				c-0.088-0.027-0.173-0.054-0.261-0.082c0-0.48,0-0.93,0-1.386C88.944,60.955,89.066,60.947,89.193,60.938z"/>
			<path fill="#552988" d="M74.525,61.476c0.062,0.003,0.12,0.003,0.182,0.005c0.033,0.098,0.068,0.193,0.102,0.291
				c0.039,0,0.078-0.001,0.117-0.001c0-0.134,0-0.261,0-0.39c-0.139-0.033-0.295-0.048-0.471-0.047
				c-0.624,0.018-0.944,0.295-0.96,0.933c0.003,0.278,0.068,0.485,0.218,0.665c0.16,0.187,0.329,0.26,0.663,0.26
				c0.175-0.002,0.364-0.037,0.536-0.1c0.012-0.154,0.022-0.299,0.033-0.447c-0.033-0.002-0.066,0-0.102,0
				c-0.049,0.103-0.111,0.23-0.16,0.333c-0.082,0.011-0.16,0.022-0.242,0.033c-0.418-0.008-0.613-0.274-0.621-0.78
				c0.002-0.266,0.057-0.435,0.183-0.574C74.123,61.531,74.27,61.479,74.525,61.476z"/>
			<path fill="#552988" d="M75.277,62.257c0.014,0.56,0.301,0.935,0.796,0.94c0.521-0.023,0.833-0.457,0.849-1.056
				c-0.014-0.556-0.299-0.823-0.803-0.829C75.604,61.334,75.292,61.652,75.277,62.257z M76.598,62.201
				c-0.008,0.484-0.185,0.799-0.495,0.814c-0.317-0.008-0.493-0.324-0.501-0.822c0.006-0.495,0.172-0.72,0.488-0.734
				C76.414,61.465,76.59,61.701,76.598,62.201z"/>
			<path fill="#552988" d="M87.704,60.908c-0.22,0.015-0.431,0.027-0.651,0.04c0,0.024,0,0.047,0,0.07
				c0.084,0.028,0.16,0.056,0.244,0.083c0,0.342,0,0.678,0,1.037c-0.313-0.412-0.598-0.772-0.911-1.151
				c-0.167,0.009-0.326,0.019-0.493,0.028c0,0.023,0,0.045,0,0.07c0.083,0.028,0.161,0.055,0.245,0.084c0,0.446,0,0.889,0,1.371
				c-0.082,0.041-0.165,0.082-0.245,0.123c0,0.026,0,0.059,0,0.086c0.22-0.016,0.431-0.029,0.65-0.045c0-0.026,0-0.059,0-0.085
				c-0.083-0.03-0.16-0.06-0.242-0.089c0-0.429,0-0.824,0-1.224c0.354,0.444,0.675,0.872,1.027,1.358
				c0.045-0.003,0.088-0.006,0.131-0.01c0-0.55,0-1.054,0-1.564c0.082-0.037,0.163-0.074,0.245-0.111
				C87.704,60.955,87.704,60.934,87.704,60.908z"/>
			<path fill="#552988" d="M80.968,63.021c0.264-0.012,0.516-0.024,0.781-0.035c0-0.027,0-0.063,0-0.09
				c-0.082-0.035-0.162-0.068-0.243-0.103c0-0.505,0-0.96,0-1.411c0.081-0.035,0.16-0.07,0.243-0.106c0-0.024,0-0.047,0-0.071
				c-0.266,0.01-0.518,0.018-0.781,0.027c0,0.025,0,0.047,0,0.072c0.082,0.03,0.161,0.059,0.244,0.088c0,0.453,0,0.909,0,1.414
				c-0.08,0.041-0.164,0.082-0.244,0.123C80.968,62.957,80.968,62.992,80.968,63.021z"/>
			<path fill="#552988" d="M84.196,62.858c0.438-0.027,0.857-0.054,1.295-0.08c0.014-0.146,0.028-0.281,0.043-0.423
				c-0.035,0.001-0.068,0.004-0.102,0.006c-0.049,0.09-0.105,0.191-0.154,0.281c-0.184,0.01-0.359,0.021-0.543,0.031
				c0-0.248,0-0.48,0-0.717c0.145-0.008,0.283-0.017,0.428-0.023c0.029,0.073,0.061,0.15,0.089,0.225
				c0.034-0.004,0.067-0.005,0.102-0.007c0-0.195,0-0.38,0-0.568c-0.034,0.003-0.067,0.005-0.102,0.006
				c-0.028,0.073-0.059,0.149-0.089,0.224c-0.145,0.007-0.283,0.015-0.428,0.021c0-0.224,0-0.434,0-0.648
				c0.178-0.008,0.348-0.019,0.527-0.026c0.039,0.087,0.077,0.169,0.117,0.256c0.033-0.001,0.066-0.003,0.101-0.006
				c0-0.127,0-0.247,0-0.372c-0.435,0.021-0.85,0.043-1.284,0.064c0,0.025,0,0.047,0,0.071c0.084,0.03,0.162,0.057,0.244,0.085
				c0,0.449,0,0.896,0,1.389c-0.08,0.043-0.163,0.083-0.244,0.125C84.196,62.797,84.196,62.831,84.196,62.858z"/>
			<path fill="#552988" d="M82.112,62.969c0.268-0.012,0.523-0.025,0.791-0.039c0.266-0.017,0.436-0.08,0.592-0.215
				c0.212-0.195,0.322-0.467,0.326-0.797c-0.003-0.251-0.066-0.42-0.209-0.571c-0.17-0.169-0.3-0.202-0.67-0.188
				c-0.281,0.011-0.549,0.022-0.83,0.033c0,0.025,0,0.047,0,0.07c0.084,0.031,0.161,0.06,0.245,0.09c0,0.45,0,0.903,0,1.404
				c-0.081,0.041-0.165,0.082-0.245,0.123C82.112,62.906,82.112,62.941,82.112,62.969z M82.913,61.302
				c0.226-0.008,0.341,0.037,0.451,0.181c0.09,0.121,0.129,0.264,0.131,0.482c-0.002,0.253-0.054,0.424-0.184,0.586
				c-0.123,0.147-0.219,0.193-0.432,0.207c-0.078,0.003-0.152,0.008-0.229,0.011c0-0.52,0-0.989,0-1.456
				C82.739,61.309,82.824,61.307,82.913,61.302z"/>
			<path fill="#552988" d="M79.09,61.289c-0.22,0.005-0.431,0.01-0.65,0.016c0,0.023,0,0.047,0,0.07
				c0.082,0.031,0.16,0.061,0.243,0.092c0,0.348,0,0.697,0,1.078c-0.313-0.455-0.597-0.836-0.909-1.226
				c-0.168,0.003-0.326,0.007-0.494,0.011c0,0.023,0,0.047,0,0.07c0.084,0.031,0.162,0.062,0.245,0.092
				c0,0.455,0.001,0.916,0.001,1.43c-0.082,0.039-0.165,0.08-0.245,0.12c0,0.027,0,0.065,0,0.092c0.22-0.005,0.43-0.01,0.649-0.015
				c0-0.027,0-0.065,0-0.092c-0.08-0.037-0.161-0.073-0.24-0.109c0-0.457-0.002-0.869-0.002-1.279
				c0.354,0.465,0.675,0.926,1.028,1.479c0.044-0.001,0.087-0.003,0.13-0.004c0-0.599,0-1.13,0-1.651
				c0.082-0.035,0.162-0.068,0.244-0.104C79.09,61.335,79.09,61.313,79.09,61.289z"/>
			<path fill="#552988" d="M80.452,61.36c0.036,0.082,0.07,0.161,0.105,0.243c0.033,0,0.066-0.002,0.1-0.003
				c0-0.122,0-0.239,0-0.358c-0.411,0.014-0.808,0.025-1.22,0.037c0,0.025,0,0.047,0,0.072c0.084,0.029,0.162,0.06,0.246,0.09
				c0,0.454,0,0.912,0,1.422c-0.082,0.041-0.166,0.082-0.245,0.122c0,0.028,0,0.065,0,0.093c0.27-0.01,0.526-0.02,0.797-0.028
				c0-0.028,0-0.064,0-0.092c-0.085-0.034-0.17-0.07-0.258-0.104c0-0.242,0-0.469,0-0.697c0.127-0.004,0.249-0.008,0.377-0.012
				c0.029,0.074,0.063,0.158,0.091,0.232c0.034-0.001,0.067-0.002,0.102-0.004c0-0.201,0-0.389,0-0.582
				c-0.034,0-0.067,0.003-0.102,0.003c-0.03,0.073-0.062,0.152-0.091,0.226c-0.127,0.004-0.25,0.008-0.377,0.012
				c0-0.229,0-0.44,0-0.656C80.139,61.369,80.291,61.365,80.452,61.36z"/>
		</g>
		<g>
			<path fill-rule="evenodd" clip-rule="evenodd" d="M94.521,28.995c0,0,0.044,0.787,0.713,1.212c0,0-0.559,0.082-0.939-0.055
				c-0.381-0.137-0.145-0.425-0.037-0.549c0.105-0.123,0.004-0.356-0.357-0.15c-0.168,0.096-0.331-0.137-0.331-0.137
				S93.985,28.995,94.521,28.995z"/>
			<path fill-rule="evenodd" clip-rule="evenodd" d="M93.431,30.535c-0.262-0.185,0.096-0.531,0.096-0.531s0.162,0.485,1.08,0.485
				C94.606,30.489,93.838,30.822,93.431,30.535z"/>
		</g>
		<path fill="#552988" d="M80.854,37.809c1.94,0.375,3.582-0.688,3.034-3.625c0,0-0.313,1.84-1.487,2.036
			c0,0,0.586-0.626,0.234-1.449c0,0-0.313,0.744-1.291,0.548c-0.979-0.195-2.116,0.196-1.763,1.879c0,0-1.646,0.231-1.781,1.983
			c-0.071,0.909,0.57,1.633,1.268,1.848c-0.226,0.256-0.547,0.784-0.136,1.422c0,0,0.179-1.075,1.441-1.075
			c1.262,0,1.646,1.269,1.098,2.504c-0.594,1.334-3.153,1.152-4.484,0.473c-1.04-0.531-1.749-1.516-1.979-2.687
			c-0.23-1.171,0.148-2.178,0.148-2.178s0.015,0.725,0.77,0.67c0,0-0.352-0.884,0.111-1.498c0.148,0.137,0.529,0.372,0.914,0.023
			c0,0-0.438-0.135-0.33-0.699c0.1-0.533,0.026-0.805-0.141-1.099c0,0,0.454,0.49,1.016-0.035c0,0-0.562-0.246-0.562-1.438
			c0,0,0.491,0.316,0.911-0.14c0,0-0.771-0.105-0.841-1.472c0,0,0.421,0.21,0.735-0.21c0,0-0.735-0.211-0.735-1.051
			c0-0.841-0.257-1.199-0.747-1.374c0,0,1.59,0.537,1.756-1.147c0,0-0.726,0.25-1.414-0.198c-0.832-0.541-1.545,0.322-1.662,0.648
			c0,0-0.393-0.241-0.912-0.363c-0.722-0.169-1.198,0.295-1.653,0.19s-1.328-0.011-1.488,0.07c-0.161,0.08-0.011,0.523-0.011,0.523
			s-0.323,1.364,0.573,1.726c0,0,0.021,0.285,0.18,0.488c0,0,0.072-0.23,0.18-0.487c0,0,0.203,0.053,0.658-0.054
			c0.307-0.072,1.393,0,1.072,1.032c-0.003,0.01-0.006,0.017-0.009,0.027l0.006-0.06c-0.382-0.291-1.03-0.643-1.987-0.234
			c-1.467,0.626-1.822,0.339-1.855-0.422c0,0-0.621,0.838-0.142,1.348c0.757,0.805,1.741-0.222,2.389-0.497
			c0.505-0.214,1.048-0.107,1.507,0.093c-0.488,1.125-1.605,0.831-1.605,0.831h-0.01c-0.065-0.248-0.092-0.463-0.092-0.463
			c-0.121,0.162-0.195,0.323-0.241,0.461c0,0-0.773,0.24-0.311,1.146c0,0,0.747-0.21,1.202,0.019c0,0-0.186,1.407-1.832,0.636
			c0,0-0.188,0.467,0.326,0.747c0,0-0.22,0.048-0.695-0.081c-0.563-0.563-1.407-1.281-2.173-1.686
			c-0.766-0.405-1.688-0.73-2.278-1.478c0,0,0.229-0.41,0.24-0.816c0.245-0.176,0.375-0.478,0.306-0.782
			c-0.057-0.249-0.233-0.441-0.459-0.535c0.052,0.068,0.08,0.15,0.11,0.235c0.085,0.246-0.006,0.457-0.115,0.575
			c-0.047-0.248-0.522-0.356-0.761-0.134c0.138-0.265,0.115-0.596-0.09-0.838c-0.163-0.192-0.4-0.283-0.634-0.266
			c0.075,0.037,0.137,0.095,0.201,0.157c0.185,0.176,0.206,0.4,0.168,0.55c-0.179-0.097-0.816,0.039-0.755,0.691
			c-0.068-0.193-0.213-0.357-0.417-0.444c-0.232-0.098-0.485-0.071-0.686,0.049c0.083-0.001,0.165,0.023,0.25,0.049
			c0.218,0.066,0.336,0.224,0.385,0.365c0,0-0.327,0.102-0.426,0.44c-0.175,0.593,0.385,0.95,0.385,0.95s-0.676,0.47-0.16,1.095
			c-0.125,0.079-0.317,0.127-0.527,0.042c-0.082-0.034-0.161-0.066-0.225-0.119c0.081,0.219,0.261,0.399,0.503,0.468
			c0.253,0.073,0.512,0.006,0.698-0.154c0.602,0.157,0.645-0.163,1.162,0.009c0.404,0.134,1.063,0.598,1.779,1.364
			c0,0-0.417,0.096-0.608,0.544c0,0,0.736,0.096,1.185,0.673c0.306,0.393,0.777,1.123,1.359,1.548
			c-0.184,0.148-0.389,0.266-0.606,0.306c0,0,0.331,0.347,0.822,0.405c-0.184,0.496-0.99,0.737-0.99,0.737s0.192,0.192,0.513,0.192
			c0,0-0.687,0.343-1.243,0.901c-0.557,0.558-0.945,0.748-1.704,1.074c0,0-0.235-0.131-0.653-0.194
			c-0.133-0.268-0.399-0.451-0.71-0.447c-0.266,0.003-0.5,0.141-0.645,0.349c0.08-0.037,0.169-0.048,0.263-0.06
			c0.268-0.033,0.462,0.105,0.559,0.242c-0.047,0.026-0.092,0.058-0.136,0.098c-0.245,0.229-0.192,0.546-0.167,0.649
			c-0.239-0.198-0.582-0.248-0.873-0.093c-0.231,0.123-0.375,0.346-0.411,0.587c0.055-0.068,0.128-0.118,0.205-0.171
			c0.22-0.148,0.452-0.121,0.597-0.049c-0.273,0.404-0.034,0.926,0.536,0.92c-0.211,0.027-0.411,0.139-0.543,0.327
			c-0.151,0.215-0.179,0.479-0.101,0.709c0.017-0.085,0.061-0.163,0.105-0.243c0.115-0.208,0.303-0.295,0.457-0.313
			c0.031,0.117,0.113,0.24,0.285,0.354c0.433,0.283,0.988-0.069,0.988-0.069s0.332,0.612,0.886,0.415
			c0.027,0.153-0.001,0.356-0.167,0.525c-0.065,0.066-0.127,0.132-0.203,0.173c0.244,0.008,0.488-0.097,0.649-0.303
			c0.169-0.216,0.207-0.493,0.125-0.735c0.396-0.537-0.035-1.32,1.658-2.018c0,0-0.176,0.432,0.025,0.646
			c0,0,0.257-0.584,1.089-0.814c0.464-0.13,1.311-0.388,1.949-0.949c0.336,0.992,1.354,1.289,1.883,2.137
			c-0.424,0.021-1.387,0.138-1.991,0.297c-0.891,0.232-1.511,0.815-1.73,1.242c-0.251,0.489-0.982,0.033-0.982,0.033
			c-0.083,0.62,0.507,0.755,0.507,0.755s-0.269,0.326-0.169,0.782c0.113,0.524-0.174,0.72-0.174,0.72
			c0.544,0.038,0.765-0.561,0.765-0.561c0.035,0.736-0.598,1.207-0.598,1.207c0.449,0.008,0.733-0.068,0.733-0.068
			c-0.034,0.428,0.464,1.541,0,1.878c-0.648,0.47-1.421,1.338-2.249,1.677c0,0-0.557-0.26-1.06-0.249
			c-0.163-0.242-0.447-0.383-0.747-0.335c-0.252,0.042-0.455,0.205-0.563,0.425c0.071-0.048,0.155-0.071,0.242-0.096
			c0.251-0.069,0.457,0.036,0.567,0.152c-0.043,0.031-0.083,0.067-0.118,0.11c-0.2,0.252-0.104,0.546-0.065,0.641
			c-0.256-0.155-0.588-0.154-0.842,0.037c-0.202,0.149-0.307,0.382-0.306,0.615c0.042-0.072,0.104-0.13,0.169-0.19
			c0.188-0.174,0.412-0.18,0.56-0.133c-0.01,0.063-0.012,0.139,0.003,0.23c0.083,0.496,0.534,0.559,0.638,0.566
			c-0.197,0.056-0.371,0.19-0.469,0.389c-0.112,0.225-0.102,0.479,0.006,0.687c0.004-0.083,0.034-0.163,0.065-0.247
			c0.079-0.213,0.246-0.321,0.389-0.36c0.046,0.106,0.142,0.212,0.321,0.294c0.452,0.207,0.929-0.207,0.929-0.207
			s0.379,0.623,0.869,0.332c0.057,0.138,0.071,0.335-0.051,0.529c-0.047,0.074-0.093,0.146-0.157,0.199
			c0.23-0.039,0.439-0.186,0.55-0.411c0.102-0.207,0.099-0.436,0.013-0.632c0.282-0.399,0.072-0.818,0.682-1.193
			c0,0.417,0.32,0.609,0.32,0.609c0.032-0.705,0.706-1.024,0.706-1.024c-0.085,0.51,0.319,0.577,0.319,0.577
			c0.001-0.674,0.501-1.035,0.501-1.035c0.032,0.514,0.461,0.586,0.461,0.586c-0.158-0.637,0.432-1.219,1.007-1.411
			c0.972-0.325,0.161-1.324,0.021-1.852c0.337,0.247,0.72,0.042,0.72,0.042c-0.804-0.678-0.06-0.917-0.423-1.61
			C72.07,48.333,72.5,48.196,73.392,48c0.426-0.094,1.019-0.226,1.521-0.496c-0.1,0.256-0.199,0.342-0.334,0.707
			c-0.272,0.742-0.213,1.438,0.012,1.906c0.502,1.047-0.597,1.333-0.597,1.333s0.663,0.245,1.119-0.112c0,0-0.021,0.432,0.284,0.568
			c0.443,0.199,0.371,0.165,0.572,0.44c0,0,0.104-0.384-0.148-0.644c0,0,0.785,0.014,0.929,0.539c0,0,0.21-0.346-0.062-0.736
			c0,0,1.508,0.268,1.279,0.766c-0.229,0.5-0.64,1.834-1.182,2.351c0,0-0.453-0.146-0.855-0.078
			c-0.225-0.205-0.551-0.27-0.836-0.135c-0.231,0.109-0.38,0.322-0.423,0.563c0.056-0.063,0.13-0.109,0.206-0.156
			c0.221-0.138,0.447-0.094,0.586-0.013c-0.031,0.041-0.061,0.086-0.082,0.138c-0.121,0.298,0.052,0.553,0.115,0.633
			c-0.287-0.076-0.605,0.019-0.799,0.27c-0.15,0.201-0.188,0.453-0.121,0.678c0.02-0.082,0.064-0.155,0.109-0.23
			c0.133-0.219,0.346-0.287,0.5-0.284c0.008,0.064,0.027,0.137,0.068,0.222c0.217,0.453,0.668,0.387,0.77,0.365
			c-0.174,0.109-0.302,0.286-0.343,0.504c-0.045,0.247,0.036,0.488,0.198,0.658c-0.02-0.082-0.014-0.166-0.008-0.255
			c0.018-0.229,0.15-0.382,0.278-0.457c0.075,0.087,0.194,0.161,0.386,0.194c0.593,0.104,0.828-0.547,0.828-0.547
			s0.836,0.366,1.096-0.143c0.123,0.082,0.245,0.236,0.252,0.464c0.002,0.089,0.006,0.174-0.018,0.255
			c0.168-0.163,0.26-0.4,0.225-0.65c-0.031-0.224-0.159-0.409-0.336-0.523c0.004-0.473-0.434-0.666-0.102-1.097
			c0.123,0.325,0.488,0.312,0.488,0.312c-0.432-0.39,0.16-0.991,0.16-0.991c0.191,0.336,0.494,0.356,0.494,0.356
			c-0.408-0.531,0.182-1.133,0.182-1.133c0.107,0.512,0.518,0.49,0.518,0.49c-0.296-0.328-0.194-0.974,0.441-1.694
			c0.675-0.765,0.913-1.438-0.548-1.688c0,0,0.432-0.324,0.441-0.888c0,0-0.496,0.521-1.782-0.132
			c-0.678-0.346-1.413-0.216-1.413-0.216l0.11-0.54c0.357,0.312,0.824,0.03,0.824,0.03c-1.162-0.62,0.544-1.63,0.01-2.92
			c0.916,0.182,1.918,0.041,2.706-0.435c2.146-1.296,1.369-3.123,1.285-3.623c-0.103-0.617,0.516-1.372,0.516-1.372
			s-0.795-0.265-1.168,0.48c0,0-0.348-0.36-1.404-0.446c-1.065-0.085-1.889-0.583-1.81-1.462
			C78.602,38.317,79.124,37.474,80.854,37.809z M73.249,32.029c-0.273-0.11-0.095-0.405-0.095-0.405s0.226,0.388,1.092,0.219
			C74.246,31.843,73.677,32.202,73.249,32.029z M73.916,31.669c-0.379-0.048-0.219-0.312-0.136-0.438
			c0.082-0.126-0.126-0.324-0.438-0.08c-0.146,0.114-0.334-0.057-0.334-0.057s0.329-0.34,0.837-0.439c0,0,0.266,0.707,0.867,0.899
			C74.713,31.554,74.297,31.717,73.916,31.669z"/>
	</g>
</g>
</svg>
