<?xml version="1.0" encoding="utf-8"?>
<!-- Generator: Adobe Illustrator 16.0.0, SVG Export Plug-In . SVG Version: 6.00 Build 0)  -->
<!DOCTYPE svg PUBLIC "-//W3C//DTD SVG 1.1//EN" "http://www.w3.org/Graphics/SVG/1.1/DTD/svg11.dtd">
<svg version="1.1" id="Layer_1" xmlns="http://www.w3.org/2000/svg" xmlns:xlink="http://www.w3.org/1999/xlink" x="0px" y="0px"
	 width="1182.989px" height="169.602px" viewBox="3.78 322.746 1182.989 169.602"
	 enable-background="new 3.78 322.746 1182.989 169.602" xml:space="preserve">
<g>
	<path fill="#542888" d="M977.179,365.713c-0.42,1.47-12.602,68.673-12.812,69.934h-22.892c0.42-1.471,11.551-59.434,11.551-59.434
		h-0.84c0,0-22.262,54.394-24.361,59.434h-22.681c0-1.261-2.101-59.434-2.101-59.434h-0.841c0,0-10.291,58.173-10.501,59.434
		h-22.891c0.42-1.471,13.65-68.674,13.65-69.934h38.222c0,1.26,1.261,40.531,1.261,40.531h0.84c0,0,14.7-36.542,16.381-40.531
		H977.179L977.179,365.713z"/>
	<path fill="#542888" d="M629.822,435.436c0-1.261-2.939-68.674-3.149-69.934H587.19c-0.421,0.84-29.192,68.043-30.032,69.934
		h23.521c0.42-0.841,6.09-15.121,6.09-15.121h18.481c0,0,0,13.86,0,15.121H629.822z M592.02,407.505l0.42-0.841
		c2.1-5.251,11.971-30.451,11.971-30.451h0.841l0,0c0,0,0.21,20.791,0.21,30.872v0.63L592.02,407.505L592.02,407.505z"/>
	<path fill="#542888" d="M1177.739,396.584c5.46-3.149,9.03-9.45,9.03-15.962c0-0.42,0-0.84,0-1.26
		c-0.42-5.88-3.359-9.66-8.609-11.971c-4.201-1.89-9.871-1.89-14.701-2.1h-36.962c-0.21,1.05-12.811,68.463-13.229,69.934h24.361
		c0.209-1.051,5.25-28.981,5.25-28.981h2.101c1.47,0,4.619,0,6.51,3.149c0.84,1.261,1.05,2.729,1.26,3.78
		c0.21,1.681,0.21,3.359,0.21,4.62c0,0.841,0,1.891,0,2.729l-0.21,4.62c0,2.521,0,4.2,0,5.04v0.841c0.21,2.939,1.261,3.78,1.892,4.2
		h26.041c-0.63-1.051-1.26-2.312-1.26-5.251v-3.359v-7.351l-0.211-4.2c-0.42-6.301-3.569-10.081-7.561-12.601
		c-1.68-1.262-2.939-1.262-4.41-1.682h-0.42v-1.26C1169.339,399.314,1174.17,398.684,1177.739,396.584z M1156.738,393.854
		c-2.31,2.1-5.46,2.31-8.399,2.31h-3.78l3.78-20.16h0.42h2.939h0.21c2.73,0.21,7.562,0.42,7.98,6.511
		C1160.518,385.663,1159.469,391.334,1156.738,393.854z"/>
	<path fill="#542888" d="M1109.066,365.713c-0.21,1.26-2.521,12.811-2.729,13.649h-23.521l-2.52,13.021h21.631
		c-0.21,1.261-2.312,12.811-2.521,13.65h-21.631l-2.939,15.54h25.2c-0.42,1.262-2.52,12.812-2.729,13.651h-49.563
		c0.42-1.471,13.021-68.674,13.229-69.934L1109.066,365.713L1109.066,365.713z"/>
	<path fill="#542888" d="M1043.963,365.713c-0.421,1.26-2.521,12.811-2.73,13.649h-23.729l-2.312,13.021h21.631
		c-0.21,1.261-2.31,12.811-2.52,13.65h-21.842l-2.939,15.54h25.201c-0.21,1.262-2.312,12.812-2.521,13.651h-49.563
		c0.42-1.471,13.021-68.674,13.229-69.934L1043.963,365.713L1043.963,365.713z"/>
	<path fill="#542888" d="M854.323,396.584c5.46-3.149,9.03-9.45,9.03-15.962c0-0.42,0-0.84,0-1.26c-0.42-5.88-3.15-9.66-8.61-11.971
		c-4.2-1.89-8.609-1.89-13.649-2.1h-36.962c-0.21,1.05-12.812,68.463-13.021,69.934h24.361c0.21-1.051,5.46-28.981,5.46-28.981h2.1
		c1.472,0,4.621,0,6.512,3.149c0.84,1.261,1.05,2.729,1.05,3.78c0.21,1.681,0.21,3.149,0.21,4.62c0,1.051,0,1.891,0,2.729v4.62
		c-0.21,2.521-0.21,4.2-0.21,5.04v0.841c0.21,2.939,1.261,3.78,1.891,4.2h24.991c-0.63-1.051-1.261-2.312-1.47-5.251
		c0,0,0-3.569,0-3.359v-7.351l-0.211-4.2c-0.421-6.301-2.311-10.081-6.301-12.601c-1.891-1.262-3.149-1.262-4.619-1.682h-0.421
		v-1.26C846.972,399.314,850.753,398.684,854.323,396.584z M834.581,393.854c-2.31,2.1-5.46,2.31-8.189,2.31h-3.78l3.78-20.16h0.63
		h2.94h0.21c2.729,0.21,7.561,0.42,7.979,6.511C838.362,385.663,837.102,391.334,834.581,393.854z"/>
	<path fill="#542888" d="M787.539,365.713c-0.21,1.26-2.521,12.811-2.729,13.649h-23.73l-2.311,13.021H780.4
		c-0.21,1.261-2.52,12.811-2.729,13.65h-21.633l-2.938,15.54h25.2c-0.42,1.262-2.521,12.812-2.73,13.651h-49.563
		c0.42-1.471,13.021-68.674,13.229-69.934L787.539,365.713L787.539,365.713z"/>
	<path fill="#542888" d="M726.846,365.713c-0.63,1.68-25.831,68.883-26.041,69.934h-39.272c0-1.261-2.1-68.674-2.1-69.934h24.571
		c-0.21,6.09-1.261,55.231-1.261,55.231h0.841c0,0,17.431-50.822,18.899-55.231H726.846L726.846,365.713z"/>
	<path fill="#542888" d="M550.438,396.584c5.46-3.149,8.82-9.45,8.82-15.962c0-0.42,0-0.84,0-1.26c-0.42-5.88-3.15-9.66-8.61-11.971
		c-4.2-1.89-8.82-1.89-13.651-2.1h-36.962c-0.21,1.05-12.811,68.463-13.229,69.934h24.36c0.211-1.051,5.25-28.981,5.25-28.981h2.102
		c1.47,0,4.62,0,6.511,3.149c0.84,1.261,1.05,2.729,1.26,3.78c0.21,1.681,0.21,3.149,0.21,4.62c0,0.841,0,1.891,0,2.729v4.62
		c0,2.311-0.21,3.99-0.21,5.04c0,0.421,0,0.631,0,0.631c0.21,2.939,1.261,3.78,1.681,4.2h24.991
		c-0.631-1.051-1.261-2.312-1.261-5.251v-3.359v-7.351l-0.21-4.2c-0.42-6.301-2.311-10.081-6.301-12.601
		c-1.68-1.262-2.939-1.262-4.62-1.682h-0.42v-1.26C543.088,399.314,546.867,398.684,550.438,396.584z M530.697,393.854
		c-2.521,2.31-6.301,2.31-8.399,2.31h-3.78l3.78-20.16h0.63h2.939h0.21c2.729,0.21,7.562,0.42,7.98,6.511
		C534.267,385.663,533.217,391.334,530.697,393.854z"/>
	<path fill="#542888" d="M400.28,386.294c-0.42-6.302-2.1-14.491-11.341-18.271c-4.62-2.1-9.66-2.1-18.271-2.31h-31.292
		c-0.21,1.05-12.812,68.463-13.021,69.934h37.382c3.15,0,6.512,0,9.451-0.42c14.7-2.101,19.74-11.131,22.892-20.581
		c2.521-7.561,4.199-17.431,4.199-24.991C400.49,388.183,400.28,387.134,400.28,386.294z M376.549,391.754v0.42
		c-0.42,3.569-1.05,6.931-1.47,10.291v0.21c-0.841,4.41-3.15,17.431-10.08,20.791c-2.521,1.26-5.461,1.26-8.61,1.47h-3.15
		l9.24-48.933h0.42h2.94c4.83,0.21,10.29,0.21,11.13,8.609C376.759,387.134,376.549,389.444,376.549,391.754z"/>
	<path fill="#542888" d="M483.024,365.713c-0.42,1.47-8.19,43.262-8.19,43.262c-1.26,6.721-2.938,14.491-6.93,19.321
		c-7.561,9.029-21.842,9.029-26.672,9.029c-9.45,0-15.961-1.26-21.211-3.779c-6.091-3.36-9.24-7.771-9.66-14.7
		c0-0.63,0-1.261,0-1.892c0-2.938,0.42-5.88,1.051-8.609l0.21-1.05c0,0,6.931-36.752,7.771-41.582h24.991
		c-0.42,1.47-8.4,45.361-8.4,45.361v0.42c-0.63,3.99-1.05,5.881-1.05,7.142c0,0.63,0,1.26,0.21,1.68
		c0.63,2.312,2.729,3.78,5.25,3.78c3.78,0,5.881-2.312,6.511-2.94c1.68-2.1,2.101-5.04,3.149-9.66c0,0,7.561-40.531,8.61-45.781
		L483.024,365.713L483.024,365.713z"/>
</g>
<g>
	<path fill="#542888" d="M119.285,492.348c-0.21-57.54-36.33-103.952-97.649-125.584L3.78,383.563"/>
	<path fill="#542888" d="M51.152,339.021l-12.72,11.99c84.424,16.381,136.507,71.404,137.137,141.127l44.935-42.027
		c-18.491-61.31-79.6-104.98-169.261-111.071"/>
	<path fill="#542888" d="M59.852,330.85c9.45-0.42,18.69-0.42,28.143,0c81.063,3.151,141.128,35.073,170.738,83.165l32.342-30.452
		c-34.651-35.071-88.835-57.753-157.508-60.482c-22.892-1.051-46.203,0.421-69.514,3.779"/>
	<path fill="#542888" d="M236.594,434.937"/>
	<line fill="#FFFFFF" x1="21.631" y1="366.762" x2="21.636" y2="366.764"/>
	<path fill="#FFFFFF" d="M220.503,450.111c0.002,0.009,0.005,0.017,0.008,0.025"/>
</g>
</svg>
