<?xml version="1.0" encoding="utf-8"?>
<!-- Generator: Adobe Illustrator 16.0.0, SVG Export Plug-In . SVG Version: 6.00 Build 0)  -->
<!DOCTYPE svg PUBLIC "-//W3C//DTD SVG 1.1//EN" "http://www.w3.org/Graphics/SVG/1.1/DTD/svg11.dtd">
<svg version="1.1" id="Layer_1" xmlns="http://www.w3.org/2000/svg" xmlns:xlink="http://www.w3.org/1999/xlink" x="0px" y="0px"
	 width="133.015px" height="24.282px" viewBox="0 0 133.015 24.282" enable-background="new 0 0 133.015 24.282"
	 xml:space="preserve">
<path fill="#565C61" d="M133.015,0.191v0.811l-1.129-0.015c-0.097-0.002-0.177,0.082-0.177,0.175v4.106h-0.994V1.163
	c0-0.098-0.085-0.177-0.178-0.175l-1.128,0.015V0.191H133.015z"/>
<path fill="#565C61" d="M128.491,0.191V1c-0.103-0.001-1.911-0.023-1.951-0.023c-0.102,0-0.179,0.086-0.179,0.175v0.708
	c0,0.094,0.079,0.177,0.176,0.175l1.396-0.014v0.81l-1.393-0.026c-0.099-0.002-0.179,0.083-0.179,0.175v1.325
	c0,0.124,0.115,0.177,0.179,0.175c0.141-0.006,1.954-0.023,1.954-0.023v0.811h-3.128V0.191H128.491z"/>
<path fill="#565C61" d="M120.656,0.191c0.031,0.03,2.174,2.077,2.174,2.077c0.05,0.049,0.124,0.062,0.189,0.035
	c0.065-0.028,0.107-0.091,0.107-0.161V0.191h0.994v5.077h-0.994V4.183c-0.002-0.285-0.11-0.472-0.25-0.601l-1.746-1.623
	c-0.051-0.048-0.126-0.06-0.189-0.032c-0.065,0.028-0.105,0.091-0.105,0.161v3.181h-0.97V0.191H120.656z"/>
<path fill="#565C61" d="M118.056,5.353c0.333,0,0.603-0.27,0.603-0.603s-0.27-0.603-0.603-0.603s-0.603,0.27-0.603,0.603
	S117.723,5.353,118.056,5.353"/>
<path fill="#565C61" d="M89.638,15.819v7.643c0,0.292-0.236,0.528-0.528,0.528h-4.832c-0.291,0-0.527-0.236-0.527-0.528v-1.456
	c0.196-0.081,0.336-0.274,0.336-0.501c0.3,0,0.543-0.243,0.543-0.543c0.3,0,0.543-0.243,0.543-0.543c0.3,0,0.543-0.243,0.543-0.542
	v-0.001c0.3,0,0.542-0.243,0.542-0.543h0.001c0.28,0,0.502-0.214,0.531-0.486c0.112-0.013,0.214-0.055,0.295-0.125
	c0.095,0.082,0.215,0.137,0.35,0.137c0.136,0,0.256-0.055,0.351-0.137c0.095,0.082,0.215,0.137,0.35,0.137
	c0.136,0,0.256-0.055,0.351-0.137c0.095,0.082,0.215,0.137,0.351,0.137c0.299,0,0.542-0.243,0.542-0.543s-0.243-0.543-0.542-0.543
	c-0.136,0-0.256,0.056-0.351,0.138c-0.095-0.082-0.215-0.138-0.351-0.138c-0.106,0-0.199,0.04-0.281,0.095
	c0.016-0.052,0.033-0.105,0.033-0.163c0-0.299-0.244-0.542-0.543-0.542c-0.3,0-0.543,0.243-0.543,0.542v0.002
	c-0.168,0-0.312,0.08-0.411,0.2c-0.003,0.001-0.005,0.002-0.008,0.004c-0.095-0.082-0.214-0.138-0.35-0.138
	c-0.136,0-0.256,0.056-0.351,0.138c-0.095-0.082-0.215-0.138-0.35-0.138c-0.136,0-0.256,0.056-0.351,0.138
	c-0.095-0.082-0.215-0.138-0.35-0.138c-0.136,0-0.256,0.056-0.351,0.138c-0.095-0.082-0.216-0.138-0.351-0.138
	c-0.063,0-0.122,0.018-0.178,0.036V0.72c0-0.292,0.236-0.528,0.527-0.528h4.832c0.292,0,0.528,0.236,0.528,0.528v14.06
	c-0.243,0.054-0.43,0.26-0.43,0.52C89.208,15.558,89.395,15.765,89.638,15.819 M85.477,18.846c-0.047,0.01-0.095,0.013-0.145,0.013
	c-0.136,0-0.256-0.055-0.351-0.137c-0.095,0.082-0.215,0.137-0.35,0.137c-0.136,0-0.256-0.055-0.351-0.137
	c-0.095,0.082-0.216,0.137-0.351,0.137c-0.063,0-0.122-0.017-0.178-0.036v1.725c0.092-0.076,0.207-0.127,0.336-0.127l0.001-0.001
	c0-0.299,0.242-0.542,0.542-0.542h0.001c0-0.3,0.242-0.543,0.542-0.543v-0.001C85.173,19.106,85.297,18.93,85.477,18.846
	 M84.63,2.028c0.3,0,0.543-0.243,0.543-0.543c0-0.299-0.243-0.542-0.543-0.542c-0.299,0-0.542,0.243-0.542,0.542
	C84.088,1.785,84.331,2.028,84.63,2.028 M88.838,4.132c0.3,0,0.542-0.243,0.542-0.543c0-0.3-0.242-0.543-0.542-0.543
	c-0.299,0-0.543,0.243-0.543,0.543C88.295,3.889,88.539,4.132,88.838,4.132 M84.63,6.236c0.3,0,0.543-0.243,0.543-0.543
	c0-0.3-0.243-0.543-0.543-0.543c-0.299,0-0.542,0.243-0.542,0.543C84.088,5.993,84.331,6.236,84.63,6.236 M88.838,8.339
	c0.3,0,0.542-0.243,0.542-0.542c0-0.3-0.242-0.543-0.542-0.543c-0.299,0-0.543,0.243-0.543,0.543
	C88.295,8.096,88.539,8.339,88.838,8.339 M84.63,8.339c0.3,0,0.543-0.243,0.543-0.542c0-0.3-0.243-0.543-0.543-0.543
	c-0.299,0-0.542,0.243-0.542,0.543C84.088,8.096,84.331,8.339,84.63,8.339 M86.734,10.443c0.3,0,0.543-0.243,0.543-0.543
	s-0.243-0.542-0.543-0.542c-0.299,0-0.542,0.242-0.542,0.542S86.435,10.443,86.734,10.443 M88.838,12.547
	c0.3,0,0.542-0.243,0.542-0.543c0-0.299-0.242-0.542-0.542-0.542c-0.299,0-0.543,0.243-0.543,0.542
	C88.295,12.304,88.539,12.547,88.838,12.547 M84.63,12.547c0.3,0,0.543-0.243,0.543-0.543c0-0.299-0.243-0.542-0.543-0.542
	c-0.299,0-0.542,0.243-0.542,0.542C84.088,12.304,84.331,12.547,84.63,12.547 M88.838,14.651c0.3,0,0.542-0.243,0.542-0.543
	c0-0.301-0.242-0.543-0.542-0.543c-0.299,0-0.543,0.242-0.543,0.543C88.295,14.408,88.539,14.651,88.838,14.651 M86.734,14.651
	c0.3,0,0.543-0.243,0.543-0.543c0-0.301-0.243-0.543-0.543-0.543c-0.299,0-0.542,0.242-0.542,0.543
	C86.192,14.408,86.435,14.651,86.734,14.651 M88.838,15.67c-0.299,0-0.543,0.242-0.543,0.542h0.001h-0.001
	c-0.3,0-0.542,0.243-0.542,0.543c0,0.299,0.242,0.543,0.542,0.543c0.299,0,0.543-0.244,0.543-0.543v-0.001
	c0.3,0,0.542-0.242,0.542-0.542S89.138,15.67,88.838,15.67 M88.838,20.962c0.3,0,0.542-0.243,0.542-0.542
	c0-0.3-0.242-0.543-0.542-0.543c-0.299,0-0.543,0.243-0.543,0.543C88.295,20.719,88.539,20.962,88.838,20.962 M88.838,23.065
	c0.3,0,0.542-0.242,0.542-0.543c0-0.299-0.242-0.542-0.542-0.542c-0.299,0-0.543,0.243-0.543,0.542
	C88.295,22.823,88.539,23.065,88.838,23.065 M86.734,23.065c0.3,0,0.543-0.242,0.543-0.543c0-0.299-0.243-0.542-0.543-0.542
	c-0.299,0-0.542,0.243-0.542,0.542C86.192,22.823,86.435,23.065,86.734,23.065 M84.63,23.065c0.3,0,0.543-0.242,0.543-0.543
	c0-0.299-0.243-0.542-0.543-0.542c-0.299,0-0.542,0.243-0.542,0.542C84.088,22.823,84.331,23.065,84.63,23.065"/>
<path fill="#565C61" d="M74.654,14.108L74.654,14.108c-0.001,0.3-0.244,0.543-0.543,0.543L74.11,14.65v0.001
	c0,0.299-0.242,0.542-0.542,0.542v0.001c0,0.3-0.243,0.543-0.543,0.543h-0.001c0,0.22-0.132,0.408-0.321,0.494
	c-0.09,0.699-0.237,1.214-0.472,1.593c0.187,0.086,0.319,0.273,0.319,0.491c0,0.3-0.243,0.543-0.543,0.543
	c-0.239,0-0.435-0.156-0.508-0.37c-0.405,0.201-0.929,0.3-1.613,0.347c0.001,0.013,0.007,0.021,0.007,0.033
	c0,0.3-0.243,0.543-0.543,0.543c-0.297,0-0.539-0.241-0.541-0.538c-0.235,0.003-0.483,0.004-0.746,0.004
	c-0.387,0-1.24,0-2.113-0.002v-0.089c-0.077,0.042-0.161,0.072-0.254,0.072c-0.136,0-0.256-0.055-0.351-0.137
	c-0.095,0.082-0.216,0.137-0.351,0.137c-0.136,0-0.256-0.055-0.351-0.137c-0.095,0.082-0.215,0.137-0.351,0.137
	c-0.299,0-0.542-0.243-0.542-0.543c0-0.299,0.243-0.542,0.542-0.542c0.136,0,0.256,0.055,0.351,0.137
	c0.095-0.082,0.215-0.137,0.351-0.137c0.135,0,0.256,0.055,0.351,0.137c0.095-0.082,0.215-0.137,0.351-0.137
	c0.093,0,0.177,0.03,0.254,0.071v-3.266c-0.077,0.041-0.161,0.072-0.254,0.072c-0.301,0-0.544-0.243-0.544-0.543
	s0.243-0.543,0.544-0.543c0.093,0,0.177,0.029,0.254,0.073v-3.268c-0.077,0.042-0.161,0.072-0.254,0.072
	c-0.301,0-0.544-0.243-0.544-0.543c0-0.299,0.243-0.542,0.544-0.542c0.093,0,0.177,0.03,0.254,0.072V6.163
	c-0.077,0.042-0.161,0.072-0.254,0.072c-0.301,0-0.544-0.243-0.544-0.542c0-0.3,0.243-0.543,0.544-0.543
	c0.147,0,0.281,0.06,0.378,0.156c0.622-0.005,1.477-0.005,1.989-0.005c1.623,0,2.695,0.05,3.403,0.38
	c0.008-0.294,0.245-0.531,0.541-0.531c0.3,0,0.543,0.243,0.543,0.543c0,0.252-0.177,0.455-0.411,0.516
	c0.69,0.885,0.707,2.621,0.707,6.018c0,0.954-0.006,1.768-0.032,2.468c0.065-0.028,0.136-0.043,0.211-0.043
	c0-0.3,0.243-0.542,0.543-0.542h0.001l-0.001-0.001c0-0.3,0.243-0.543,0.543-0.543c0-0.3,0.243-0.543,0.543-0.543
	s0.542,0.243,0.542,0.543S74.954,14.108,74.654,14.108 M74.111,18.858c-0.3,0-0.543-0.243-0.543-0.543
	c0-0.299,0.243-0.542,0.543-0.542c0.299,0,0.542,0.243,0.542,0.542C74.653,18.615,74.41,18.858,74.111,18.858 M74.111,23.066
	c-0.3,0-0.543-0.244-0.543-0.543c0-0.3,0.243-0.542,0.543-0.542c0.299,0,0.542,0.242,0.542,0.542
	C74.653,22.822,74.41,23.066,74.111,23.066 M72.007,20.962c-0.3,0-0.543-0.243-0.543-0.542c0-0.3,0.243-0.544,0.543-0.544
	s0.543,0.244,0.543,0.544C72.55,20.719,72.307,20.962,72.007,20.962 M72.007,23.066c-0.3,0-0.543-0.244-0.543-0.543
	c0-0.3,0.243-0.542,0.543-0.542s0.543,0.242,0.543,0.542C72.55,22.822,72.307,23.066,72.007,23.066 M69.903,23.066
	c-0.299,0-0.543-0.244-0.543-0.543c0-0.3,0.244-0.542,0.543-0.542c0.3,0,0.542,0.242,0.542,0.542
	C70.445,22.822,70.203,23.066,69.903,23.066 M68.342,20.419L68.342,20.419L68.342,20.419c0,0.3-0.244,0.543-0.543,0.543
	c-0.3,0-0.542-0.243-0.542-0.542c0-0.3,0.242-0.544,0.542-0.544l0.001,0.001l-0.001-0.001c0-0.299,0.244-0.542,0.543-0.542
	c0.3,0,0.542,0.243,0.542,0.542C68.884,20.176,68.642,20.419,68.342,20.419 M67.799,23.066c-0.3,0-0.542-0.244-0.542-0.543
	c0-0.3,0.242-0.542,0.542-0.542c0.299,0,0.543,0.242,0.543,0.542C68.342,22.822,68.098,23.066,67.799,23.066 M63.591,20.962
	c-0.299,0-0.542-0.243-0.542-0.542c0-0.3,0.243-0.544,0.542-0.544c0.3,0,0.543,0.244,0.543,0.544
	C64.134,20.719,63.891,20.962,63.591,20.962 M63.591,23.066c-0.299,0-0.542-0.244-0.542-0.543c0-0.3,0.243-0.542,0.542-0.542
	c0.3,0,0.543,0.242,0.543,0.542C64.134,22.822,63.891,23.066,63.591,23.066 M62.189,18.858c-0.136,0-0.256-0.055-0.351-0.137
	c-0.095,0.082-0.215,0.137-0.351,0.137c-0.299,0-0.542-0.243-0.542-0.543c0-0.299,0.243-0.542,0.542-0.542
	c0.136,0,0.256,0.055,0.351,0.137c0.095-0.082,0.215-0.137,0.351-0.137c0.299,0,0.542,0.243,0.542,0.542
	C62.731,18.615,62.488,18.858,62.189,18.858 M61.487,23.066c-0.299,0-0.542-0.244-0.542-0.543c0-0.3,0.243-0.542,0.542-0.542
	c0.3,0,0.543,0.242,0.543,0.542C62.03,22.822,61.787,23.066,61.487,23.066 M61.487,13.565c0.3,0,0.543,0.243,0.543,0.543
	s-0.243,0.543-0.543,0.543c-0.299,0-0.542-0.243-0.542-0.543S61.188,13.565,61.487,13.565 M61.487,5.15
	c0.3,0,0.543,0.243,0.543,0.543c0,0.299-0.243,0.542-0.543,0.542c-0.299,0-0.542-0.243-0.542-0.542
	C60.945,5.393,61.188,5.15,61.487,5.15 M61.487,0.942c0.3,0,0.543,0.243,0.543,0.543c0,0.3-0.243,0.543-0.543,0.543
	c-0.299,0-0.542-0.243-0.542-0.543C60.945,1.185,61.188,0.942,61.487,0.942 M63.591,15.669c0.3,0,0.543,0.243,0.543,0.543
	c0,0.301-0.243,0.542-0.543,0.542c-0.299,0-0.542-0.241-0.542-0.542C63.049,15.912,63.292,15.669,63.591,15.669 M63.591,13.565
	c0.3,0,0.543,0.243,0.543,0.543s-0.243,0.543-0.543,0.543c-0.299,0-0.542-0.243-0.542-0.543S63.292,13.565,63.591,13.565
	 M63.591,11.462c0.3,0,0.543,0.242,0.543,0.542s-0.243,0.543-0.543,0.543c-0.299,0-0.542-0.243-0.542-0.543
	S63.292,11.462,63.591,11.462 M63.591,7.254c0.3,0,0.543,0.243,0.543,0.542c0,0.301-0.243,0.543-0.543,0.543
	c-0.299,0-0.542-0.242-0.542-0.543C63.049,7.497,63.292,7.254,63.591,7.254 M69.903,0.942c0.3,0,0.542,0.243,0.542,0.543
	c0,0.3-0.242,0.543-0.542,0.543c-0.299,0-0.543-0.243-0.543-0.543C69.36,1.185,69.604,0.942,69.903,0.942 M72.007,3.046
	c0.3,0,0.543,0.243,0.543,0.543c0,0.299-0.243,0.542-0.543,0.542s-0.543-0.243-0.543-0.542C71.464,3.289,71.707,3.046,72.007,3.046
	 M74.111,9.358c0.299,0,0.542,0.243,0.542,0.542c0,0.3-0.243,0.543-0.542,0.543c-0.3,0-0.543-0.243-0.543-0.543
	C73.568,9.602,73.811,9.358,74.111,9.358 M74.111,5.15c0.299,0,0.542,0.243,0.542,0.543c0,0.299-0.243,0.542-0.542,0.542
	c-0.3,0-0.543-0.243-0.543-0.542C73.568,5.393,73.811,5.15,74.111,5.15 M75.672,18.315c0-0.135,0.055-0.255,0.137-0.351
	c-0.082-0.095-0.137-0.215-0.137-0.35c0-0.301,0.243-0.543,0.543-0.543s0.543,0.242,0.543,0.543c0,0.135-0.055,0.255-0.137,0.35
	c0.082,0.096,0.137,0.216,0.137,0.351c0,0.136-0.055,0.256-0.137,0.351c0.082,0.095,0.137,0.216,0.137,0.352
	c0,0.3-0.243,0.542-0.543,0.542s-0.543-0.242-0.543-0.542c0-0.136,0.055-0.257,0.137-0.352
	C75.727,18.571,75.672,18.451,75.672,18.315 M75.672,15.51c0-0.135,0.055-0.255,0.137-0.35c-0.082-0.095-0.137-0.215-0.137-0.351
	s0.055-0.256,0.137-0.352c-0.082-0.095-0.137-0.215-0.137-0.35c0-0.136,0.055-0.256,0.137-0.352
	c-0.082-0.095-0.137-0.215-0.137-0.35c0-0.3,0.243-0.543,0.543-0.543s0.543,0.243,0.543,0.543c0,0.135-0.055,0.255-0.137,0.35
	c0.082,0.096,0.137,0.216,0.137,0.352c0,0.135-0.055,0.255-0.137,0.35c0.082,0.096,0.137,0.216,0.137,0.352
	s-0.055,0.256-0.137,0.351c0.082,0.095,0.137,0.215,0.137,0.35c0,0.137-0.055,0.257-0.137,0.352
	c0.082,0.095,0.137,0.215,0.137,0.351c0,0.301-0.243,0.542-0.543,0.542s-0.543-0.241-0.543-0.542c0-0.136,0.055-0.256,0.137-0.351
	C75.727,15.767,75.672,15.646,75.672,15.51 M75.672,10.602c0-0.136,0.055-0.255,0.137-0.351c-0.082-0.095-0.137-0.215-0.137-0.351
	c0-0.299,0.243-0.542,0.543-0.542s0.543,0.243,0.543,0.542c0,0.136-0.055,0.256-0.137,0.351c0.082,0.096,0.137,0.215,0.137,0.351
	s-0.055,0.256-0.137,0.351c0.082,0.095,0.137,0.215,0.137,0.352c0,0.3-0.243,0.543-0.543,0.543s-0.543-0.243-0.543-0.543
	c0-0.137,0.055-0.257,0.137-0.352C75.727,10.857,75.672,10.737,75.672,10.602 M76.215,7.254c0.3,0,0.543,0.243,0.543,0.542
	c0,0.301-0.243,0.543-0.543,0.543s-0.543-0.242-0.543-0.543C75.672,7.497,75.915,7.254,76.215,7.254 M76.215,5.15
	c0.3,0,0.543,0.243,0.543,0.543c0,0.299-0.243,0.542-0.543,0.542s-0.543-0.243-0.543-0.542C75.672,5.393,75.915,5.15,76.215,5.15
	 M76.215,3.046c0.3,0,0.543,0.243,0.543,0.543c0,0.299-0.243,0.542-0.543,0.542s-0.543-0.243-0.543-0.542
	C75.672,3.289,75.915,3.046,76.215,3.046 M75.672,22.523c0-0.136,0.055-0.255,0.137-0.351c-0.082-0.095-0.137-0.215-0.137-0.351
	c0-0.135,0.055-0.256,0.137-0.351c-0.082-0.096-0.137-0.216-0.137-0.352c0-0.299,0.243-0.542,0.543-0.542s0.543,0.243,0.543,0.542
	c0,0.136-0.055,0.256-0.137,0.352c0.082,0.095,0.137,0.216,0.137,0.351l-0.003,0.011c1.092-1.375,1.71-3.626,1.885-7.299
	c-0.091,0.069-0.199,0.117-0.321,0.117c-0.3,0-0.543-0.243-0.543-0.543s0.243-0.543,0.543-0.543c0.136,0,0.256,0.055,0.352,0.138
	c0.014-0.489,0.023-0.994,0.023-1.53c0-0.619-0.004-1.244-0.019-1.869c-0.096,0.084-0.219,0.14-0.356,0.14
	c-0.3,0-0.543-0.243-0.543-0.543c0-0.299,0.243-0.542,0.543-0.542c0.125,0,0.235,0.049,0.328,0.121
	c-0.138-3.023-0.672-5.929-2.742-7.718c-1.716-1.483-3.94-1.57-7.178-1.57h-8.131c-0.291,0-0.528,0.237-0.528,0.529v17.056
	c0.006,0,0.011-0.003,0.017-0.003c0.3,0,0.543,0.243,0.543,0.542c0,0.3-0.243,0.543-0.543,0.543c-0.006,0-0.011-0.003-0.017-0.003
	v4.605c0,0.292,0.237,0.529,0.528,0.529h2.96c0.07-0.219,0.268-0.38,0.51-0.38h0.001v-0.001c0-0.299,0.242-0.543,0.542-0.543h0.001
	h-0.001c0-0.299,0.244-0.542,0.543-0.542h0.001l-0.001-0.001c0-0.3,0.243-0.542,0.544-0.542V21.98c0-0.299,0.242-0.543,0.542-0.543
	h0.001c0-0.299,0.243-0.542,0.542-0.542c0.3,0,0.543,0.243,0.543,0.542c0,0.3-0.243,0.543-0.543,0.543H66.78h0.001
	c0,0.3-0.243,0.543-0.543,0.543c0,0.299-0.243,0.543-0.542,0.543h-0.002c0,0.3-0.242,0.542-0.542,0.542v0.001
	c0,0.148-0.06,0.283-0.157,0.381h3.827c3.026,0,5.315-0.096,6.924-1.208C75.704,22.704,75.672,22.619,75.672,22.523"/>
<path fill="#565C61" d="M34.136,4.132c-0.299,0-0.542-0.243-0.542-0.543c0-0.299,0.243-0.542,0.542-0.542
	c0.3,0,0.543,0.243,0.543,0.542C34.679,3.889,34.436,4.132,34.136,4.132 M32.033,2.028c-0.3,0-0.543-0.243-0.543-0.542
	c0-0.3,0.243-0.543,0.543-0.543c0.299,0,0.542,0.243,0.542,0.543C32.575,1.785,32.332,2.028,32.033,2.028 M29.069,18.315
	c0,0.299-0.243,0.543-0.543,0.543c-0.135,0-0.255-0.054-0.351-0.136c-0.095,0.082-0.215,0.136-0.35,0.136
	c-0.136,0-0.256-0.054-0.351-0.137c-0.095,0.083-0.215,0.137-0.35,0.137c-0.3,0-0.543-0.244-0.543-0.543
	c0-0.3,0.243-0.542,0.543-0.542c0.07,0,0.136,0.016,0.198,0.04c-0.024-0.062-0.04-0.129-0.04-0.199c0-0.135,0.055-0.256,0.137-0.351
	c-0.082-0.095-0.137-0.215-0.137-0.351s0.055-0.256,0.137-0.351c-0.082-0.095-0.137-0.215-0.137-0.35
	c0-0.137,0.055-0.256,0.137-0.352c-0.082-0.095-0.137-0.216-0.137-0.351c0-0.3,0.243-0.542,0.543-0.542
	c0.299,0,0.542,0.242,0.542,0.542c0,0.135-0.054,0.256-0.136,0.351c0.082,0.096,0.136,0.215,0.136,0.352
	c0,0.135-0.054,0.255-0.136,0.35c0.082,0.095,0.136,0.215,0.136,0.351s-0.054,0.256-0.136,0.351
	c0.082,0.095,0.136,0.216,0.136,0.351c0,0.07-0.015,0.138-0.04,0.199c0.062-0.024,0.128-0.04,0.199-0.04
	C28.826,17.773,29.069,18.016,29.069,18.315 M25.721,2.028c-0.3,0-0.543-0.243-0.543-0.542c0-0.3,0.243-0.543,0.543-0.543
	c0.299,0,0.543,0.243,0.543,0.543C26.264,1.785,26.02,2.028,25.721,2.028 M25.721,10.443c-0.3,0-0.543-0.243-0.543-0.543
	s0.243-0.543,0.543-0.543c0.299,0,0.543,0.243,0.543,0.543S26.02,10.443,25.721,10.443 M25.721,14.651
	c-0.3,0-0.543-0.244-0.543-0.544c0-0.299,0.243-0.542,0.543-0.542c0.299,0,0.543,0.243,0.543,0.542
	C26.264,14.407,26.02,14.651,25.721,14.651 M25.721,16.755c-0.3,0-0.543-0.243-0.543-0.542c0-0.3,0.243-0.543,0.543-0.543
	c0.299,0,0.543,0.243,0.543,0.543C26.264,16.512,26.02,16.755,25.721,16.755 M25.721,20.963c-0.3,0-0.543-0.243-0.543-0.543
	s0.243-0.543,0.543-0.543c0.299,0,0.543,0.243,0.543,0.543S26.02,20.963,25.721,20.963 M25.721,23.065
	c-0.3,0-0.543-0.243-0.543-0.542c0-0.3,0.243-0.543,0.543-0.543c0.299,0,0.543,0.243,0.543,0.543
	C26.264,22.822,26.02,23.065,25.721,23.065 M27.282,12.706c0-0.136,0.055-0.257,0.137-0.352c-0.082-0.095-0.137-0.215-0.137-0.35
	c0-0.3,0.243-0.543,0.543-0.543c0.299,0,0.542,0.243,0.542,0.543c0,0.135-0.054,0.255-0.136,0.35
	c0.082,0.095,0.136,0.216,0.136,0.352c0,0.135-0.054,0.255-0.136,0.351c0.082,0.095,0.136,0.215,0.136,0.35
	c0,0.301-0.243,0.543-0.542,0.543c-0.3,0-0.543-0.242-0.543-0.543c0-0.135,0.055-0.255,0.137-0.35
	C27.337,12.961,27.282,12.841,27.282,12.706 M27.825,9.357c0.299,0,0.542,0.243,0.542,0.543s-0.243,0.543-0.542,0.543
	c-0.3,0-0.543-0.243-0.543-0.543S27.525,9.357,27.825,9.357 M29.929,21.98c0.299,0,0.542,0.243,0.542,0.543
	c0,0.299-0.243,0.542-0.542,0.542c-0.3,0-0.543-0.243-0.543-0.542C29.386,22.224,29.629,21.98,29.929,21.98 M29.929,19.877
	c0.299,0,0.542,0.243,0.542,0.543s-0.243,0.543-0.542,0.543c-0.3,0-0.543-0.243-0.543-0.543S29.629,19.877,29.929,19.877
	 M29.929,15.67c0.299,0,0.542,0.243,0.542,0.543c0,0.299-0.243,0.542-0.542,0.542c-0.3,0-0.543-0.243-0.543-0.542
	C29.386,15.913,29.629,15.67,29.929,15.67 M29.929,13.565c0.299,0,0.542,0.243,0.542,0.542c0,0.3-0.243,0.544-0.542,0.544
	c-0.3,0-0.543-0.244-0.543-0.544C29.386,13.809,29.629,13.565,29.929,13.565 M29.929,7.254c0.299,0,0.542,0.243,0.542,0.543
	S30.228,8.34,29.929,8.34c-0.3,0-0.543-0.243-0.543-0.543S29.629,7.254,29.929,7.254 M23.617,2.028c-0.3,0-0.543-0.243-0.543-0.542
	c0-0.3,0.243-0.543,0.543-0.543c0.299,0,0.542,0.243,0.542,0.543C24.159,1.785,23.916,2.028,23.617,2.028 M35.83,0.191H19.57
	c-0.291,0-0.528,0.237-0.528,0.529v4.024c0,0.142,0.056,0.277,0.158,0.377c0.1,0.099,0.237,0.154,0.378,0.152
	c0,0,4.302-0.056,5.182-0.068v12.643c0.078-0.044,0.164-0.075,0.26-0.075c0.299,0,0.542,0.242,0.542,0.542
	c0,0.299-0.243,0.543-0.542,0.543c-0.096,0-0.182-0.031-0.26-0.075v4.68c0,0.291,0.237,0.527,0.528,0.527h2.007
	c-0.003-0.021-0.013-0.042-0.013-0.064c0-0.135,0.055-0.255,0.137-0.351c-0.082-0.095-0.137-0.215-0.137-0.351
	c0-0.135,0.055-0.255,0.137-0.351c-0.082-0.096-0.137-0.216-0.137-0.351c0-0.136,0.055-0.256,0.137-0.351
	c-0.082-0.096-0.137-0.215-0.137-0.351s0.055-0.256,0.137-0.351c-0.082-0.095-0.137-0.215-0.137-0.351
	c0-0.137,0.055-0.256,0.137-0.351c-0.082-0.095-0.137-0.215-0.137-0.351c0-0.3,0.243-0.543,0.543-0.543
	c0.299,0,0.542,0.243,0.542,0.543c0,0.136-0.054,0.256-0.136,0.351c0.082,0.095,0.136,0.214,0.136,0.351
	c0,0.136-0.054,0.256-0.136,0.351c0.082,0.095,0.136,0.215,0.136,0.351s-0.054,0.255-0.136,0.351
	c0.082,0.095,0.136,0.215,0.136,0.351c0,0.135-0.054,0.255-0.136,0.351c0.082,0.096,0.136,0.216,0.136,0.351
	c0,0.136-0.054,0.256-0.136,0.351c0.082,0.096,0.136,0.216,0.136,0.351c0,0.022-0.01,0.043-0.013,0.064h1.758
	c0.292,0,0.528-0.236,0.528-0.527v-4.606c-0.003,0-0.007,0.002-0.01,0.002c-0.136,0-0.256-0.054-0.351-0.137
	c-0.095,0.083-0.215,0.137-0.35,0.137c-0.3,0-0.543-0.244-0.543-0.543c0-0.3,0.243-0.542,0.543-0.542
	c0.135,0,0.255,0.054,0.35,0.136c0.095-0.082,0.215-0.136,0.351-0.136c0.003,0,0.007,0.002,0.01,0.002V6.233
	c-0.003,0-0.007,0.002-0.01,0.002c-0.136,0-0.256-0.055-0.351-0.137c-0.095,0.082-0.215,0.137-0.35,0.137
	c-0.136,0-0.256-0.055-0.351-0.137c-0.095,0.082-0.215,0.137-0.351,0.137c-0.299,0-0.542-0.243-0.542-0.543
	c0-0.299,0.243-0.542,0.542-0.542c0.136,0,0.256,0.054,0.351,0.136c0.095-0.082,0.215-0.136,0.351-0.136
	c0.135,0,0.255,0.054,0.35,0.136c0.095-0.082,0.215-0.136,0.351-0.136c0.085,0,0.163,0.023,0.234,0.058
	c1.218,0.016,4.959,0.065,4.959,0.065c0.14,0.002,0.277-0.053,0.378-0.152c0.101-0.1,0.157-0.235,0.157-0.377V0.721
	C36.358,0.429,36.122,0.191,35.83,0.191"/>
<path fill="#565C61" d="M53.071,23.066c-0.3,0-0.543-0.243-0.543-0.543s0.243-0.542,0.543-0.542c0.3,0,0.543,0.242,0.543,0.542
	S53.372,23.066,53.071,23.066 M50.967,20.962c-0.3,0-0.542-0.243-0.542-0.542c0-0.3,0.242-0.543,0.542-0.543
	c0.3,0,0.543,0.243,0.543,0.543C51.51,20.719,51.268,20.962,50.967,20.962 M50.967,23.066c-0.3,0-0.542-0.243-0.542-0.543
	s0.242-0.542,0.542-0.542c0.3,0,0.543,0.242,0.543,0.542S51.268,23.066,50.967,23.066 M48.863,23.066
	c-0.299,0-0.542-0.243-0.542-0.543s0.243-0.542,0.542-0.542c0.3,0,0.543,0.242,0.543,0.542S49.164,23.066,48.863,23.066
	 M46.759,20.962c-0.299,0-0.542-0.243-0.542-0.542c0-0.3,0.243-0.543,0.542-0.543c0.3,0,0.543,0.243,0.543,0.543
	C47.302,20.719,47.06,20.962,46.759,20.962 M46.759,23.066c-0.299,0-0.542-0.243-0.542-0.543s0.243-0.542,0.542-0.542
	c0.3,0,0.543,0.242,0.543,0.542S47.06,23.066,46.759,23.066 M44.655,14.651c-0.299,0-0.542-0.243-0.542-0.543
	c0-0.301,0.243-0.542,0.542-0.542c0.3,0,0.543,0.241,0.543,0.542C45.198,14.408,44.956,14.651,44.655,14.651 M44.655,18.858
	c-0.299,0-0.542-0.243-0.542-0.542c0-0.301,0.243-0.543,0.542-0.543c0.3,0,0.543,0.242,0.543,0.543
	C45.198,18.615,44.956,18.858,44.655,18.858 M42.552,12.547c-0.3,0-0.543-0.243-0.543-0.543c0-0.299,0.243-0.542,0.543-0.542
	c0.299,0,0.542,0.243,0.542,0.542C43.094,12.304,42.852,12.547,42.552,12.547 M42.552,16.754c-0.3,0-0.543-0.242-0.543-0.542
	c0-0.299,0.243-0.543,0.543-0.543c0.299,0,0.542,0.244,0.542,0.543C43.094,16.512,42.852,16.754,42.552,16.754 M42.552,18.858
	c-0.3,0-0.543-0.243-0.543-0.542c0-0.301,0.243-0.543,0.543-0.543c0.299,0,0.542,0.242,0.542,0.543
	C43.094,18.615,42.852,18.858,42.552,18.858 M42.552,20.962c-0.3,0-0.543-0.243-0.543-0.542v-0.001c-0.3,0-0.543-0.243-0.543-0.542
	c0-0.3,0.243-0.543,0.543-0.543c0.299,0,0.542,0.243,0.542,0.543h0.001c0.299,0,0.542,0.243,0.542,0.543
	C43.094,20.719,42.852,20.962,42.552,20.962 M43.094,22.523c0,0.3-0.243,0.543-0.542,0.543c-0.3,0-0.543-0.243-0.543-0.543
	s0.243-0.542,0.543-0.542C42.852,21.981,43.094,22.224,43.094,22.523 M42.552,7.254c0.299,0,0.542,0.243,0.542,0.543
	c0,0.299-0.243,0.542-0.542,0.542c-0.3,0-0.543-0.243-0.543-0.542C42.009,7.497,42.252,7.254,42.552,7.254 M42.552,0.943
	c0.299,0,0.542,0.242,0.542,0.542c0,0.3-0.243,0.543-0.542,0.543c-0.3,0-0.543-0.243-0.543-0.543
	C42.009,1.185,42.252,0.943,42.552,0.943 M40.448,23.066c-0.3,0-0.543-0.243-0.543-0.543s0.243-0.542,0.543-0.542
	c0.299,0,0.542,0.242,0.542,0.542S40.748,23.066,40.448,23.066 M40.448,6.236c-0.3,0-0.543-0.244-0.543-0.543
	c0-0.3,0.243-0.543,0.543-0.543c0.299,0,0.542,0.243,0.542,0.543C40.99,5.992,40.748,6.236,40.448,6.236 M44.655,5.15
	c0.3,0,0.543,0.243,0.543,0.543c0,0.299-0.243,0.543-0.543,0.543c-0.299,0-0.542-0.244-0.542-0.543
	C44.113,5.393,44.356,5.15,44.655,5.15 M48.863,0.943c0.3,0,0.543,0.242,0.543,0.542c0,0.3-0.243,0.543-0.543,0.543
	c-0.299,0-0.542-0.243-0.542-0.543C48.321,1.185,48.564,0.943,48.863,0.943 M50.967,3.046c0.3,0,0.543,0.243,0.543,0.543
	c0,0.3-0.243,0.543-0.543,0.543c-0.3,0-0.542-0.243-0.542-0.543C50.425,3.289,50.667,3.046,50.967,3.046 M50.967,11.462
	c0.3,0,0.543,0.243,0.543,0.542c0,0.3-0.243,0.543-0.543,0.543c-0.3,0-0.542-0.243-0.542-0.543
	C50.425,11.705,50.667,11.462,50.967,11.462 M54.903,19.061c-0.101-0.099-0.236-0.153-0.378-0.153c0,0-8.241,0.09-8.802,0.102
	v-4.557c0.916,0.018,6.343,0.122,6.343,0.122c0.143,0.002,0.279-0.052,0.38-0.152c0.102-0.099,0.159-0.235,0.159-0.378v-4.023
	c0-0.144-0.057-0.279-0.159-0.379c-0.101-0.1-0.237-0.152-0.38-0.15c0,0-0.285,0.005-0.733,0.013C51.44,9.604,51.51,9.743,51.51,9.9
	c0,0.3-0.243,0.543-0.543,0.543c-0.3,0-0.542-0.243-0.542-0.543c0-0.149,0.06-0.283,0.157-0.382
	c-0.401,0.009-0.852,0.017-1.317,0.025c0.085,0.096,0.141,0.219,0.141,0.356c0,0.3-0.243,0.543-0.543,0.543
	c-0.299,0-0.542-0.243-0.542-0.543c0-0.13,0.052-0.246,0.13-0.341c-0.442,0.009-0.873,0.018-1.263,0.024
	c0.067,0.09,0.114,0.196,0.114,0.316c0,0.3-0.243,0.543-0.543,0.543c-0.135,0-0.255-0.056-0.35-0.138
	c-0.095,0.082-0.215,0.138-0.351,0.138c-0.136,0-0.255-0.056-0.351-0.137c-0.095,0.081-0.215,0.137-0.35,0.137
	c-0.136,0-0.256-0.056-0.351-0.137c-0.095,0.081-0.215,0.137-0.351,0.137c-0.135,0-0.255-0.056-0.35-0.137
	c-0.095,0.081-0.215,0.137-0.351,0.137c-0.135,0-0.255-0.056-0.35-0.137c-0.096,0.081-0.216,0.137-0.351,0.137
	c-0.3,0-0.543-0.243-0.543-0.543s0.243-0.542,0.543-0.542c0.135,0,0.255,0.054,0.351,0.137c0.095-0.083,0.215-0.137,0.35-0.137
	c0.136,0,0.256,0.054,0.351,0.137c0.095-0.083,0.215-0.137,0.35-0.137c0.136,0,0.256,0.054,0.351,0.137
	c0.095-0.083,0.215-0.137,0.351-0.137c0.135,0,0.255,0.054,0.35,0.137c0.005-0.004,0.011-0.006,0.016-0.01V5.173
	c0.57,0.011,8.786,0.101,8.786,0.101c0.141,0.002,0.277-0.053,0.377-0.153c0.101-0.099,0.157-0.234,0.157-0.376V0.72
	c0-0.292-0.237-0.528-0.528-0.528h-14.15c-0.292,0-0.528,0.236-0.528,0.528v8.656c0.097,0.018,0.188,0.056,0.26,0.119
	c0.095-0.083,0.215-0.137,0.351-0.137c0.135,0,0.255,0.054,0.35,0.137c0.095-0.083,0.215-0.137,0.351-0.137
	c0.3,0,0.543,0.242,0.543,0.542s-0.243,0.543-0.543,0.543c-0.136,0-0.256-0.056-0.351-0.137c-0.095,0.081-0.215,0.137-0.35,0.137
	c-0.136,0-0.256-0.056-0.351-0.137c-0.072,0.063-0.163,0.101-0.26,0.118v6.558c0.039,0.074,0.067,0.156,0.067,0.248
	c0.3,0,0.543,0.242,0.543,0.543h0.001c0.299,0,0.542,0.242,0.542,0.543v0.001v-0.001c0.3,0,0.543,0.242,0.543,0.543
	c0,0.299-0.243,0.542-0.542,0.542c-0.3,0-0.543-0.243-0.543-0.542v-0.001c-0.136,0-0.256-0.055-0.351-0.137
	c-0.072,0.063-0.163,0.101-0.26,0.118v4.622c0,0.292,0.236,0.528,0.528,0.528h4.991c-0.097-0.099-0.157-0.232-0.157-0.381
	c-0.3,0-0.543-0.243-0.543-0.543h-0.001c-0.299,0-0.542-0.243-0.542-0.543c-0.3,0-0.543-0.243-0.543-0.543
	c-0.3,0-0.543-0.243-0.543-0.542c0-0.301,0.243-0.543,0.542-0.543c0.3,0,0.543,0.242,0.543,0.543c0.3,0,0.543,0.242,0.543,0.542
	v0.001c0.3,0,0.543,0.242,0.543,0.542v0.001h0.001c0.299,0,0.542,0.242,0.542,0.542c0.3,0,0.543,0.243,0.543,0.543v0.001
	c0.243,0,0.441,0.162,0.51,0.38h7.737c0.292,0,0.528-0.236,0.528-0.528v-4.025C55.06,19.296,55.003,19.161,54.903,19.061"/>
<path fill="#565C61" d="M15.201,18.858c-0.136,0-0.256-0.055-0.351-0.137c-0.095,0.082-0.215,0.137-0.35,0.137
	c-0.3,0-0.543-0.243-0.543-0.543c0-0.299,0.243-0.542,0.543-0.542c0.135,0,0.255,0.055,0.35,0.137
	c0.095-0.082,0.215-0.137,0.351-0.137c0.3,0,0.543,0.243,0.543,0.542C15.744,18.615,15.501,18.858,15.201,18.858 M13.572,16.28
	c-0.3,0-0.543-0.243-0.543-0.543s0.243-0.543,0.543-0.543c0-0.3,0.243-0.543,0.543-0.543c0.3,0,0.543,0.243,0.543,0.543
	s-0.243,0.543-0.543,0.543C14.115,16.037,13.872,16.28,13.572,16.28 M13.097,20.962c-0.3,0-0.543-0.243-0.543-0.542
	c0-0.3,0.243-0.544,0.543-0.544c0.3,0,0.543,0.244,0.543,0.544C13.64,20.719,13.397,20.962,13.097,20.962 M13.097,23.066
	c-0.3,0-0.543-0.243-0.543-0.543s0.243-0.542,0.543-0.542c0.3,0,0.543,0.242,0.543,0.542S13.397,23.066,13.097,23.066
	 M12.554,14.108c0-0.3,0.243-0.543,0.543-0.543c0.3,0,0.543,0.243,0.543,0.543s-0.243,0.543-0.543,0.543
	C12.797,14.651,12.554,14.408,12.554,14.108 M13.097,11.462c0.3,0,0.543,0.243,0.543,0.542c0,0.3-0.243,0.543-0.543,0.543
	c-0.3,0-0.543-0.243-0.543-0.543C12.554,11.705,12.797,11.462,13.097,11.462 M10.993,23.066c-0.299,0-0.542-0.243-0.542-0.543
	s0.243-0.542,0.542-0.542c0.3,0,0.543,0.242,0.543,0.542S11.293,23.066,10.993,23.066 M8.889,23.066c-0.3,0-0.542-0.243-0.542-0.543
	s0.242-0.542,0.542-0.542s0.543,0.242,0.543,0.542S9.189,23.066,8.889,23.066 M4.681,20.962c-0.299,0-0.542-0.243-0.542-0.542
	c0-0.3,0.243-0.544,0.542-0.544c0.3,0,0.543,0.244,0.543,0.544C5.224,20.719,4.981,20.962,4.681,20.962 M4.681,23.066
	c-0.299,0-0.542-0.243-0.542-0.543s0.243-0.542,0.542-0.542c0.3,0,0.543,0.242,0.543,0.542S4.981,23.066,4.681,23.066 M2.577,23.066
	c-0.299,0-0.542-0.243-0.542-0.543s0.243-0.542,0.542-0.542c0.3,0,0.543,0.242,0.543,0.542S2.877,23.066,2.577,23.066
	 M10.993,14.651c-0.299,0-0.542-0.243-0.542-0.543s0.243-0.543,0.542-0.543c0.3,0,0.543,0.243,0.543,0.543
	S11.293,14.651,10.993,14.651 M8.889,12.547c-0.3,0-0.542-0.243-0.542-0.543c0-0.299,0.242-0.542,0.542-0.542
	s0.543,0.243,0.543,0.542C9.432,12.304,9.189,12.547,8.889,12.547 M6.084,10.443c-0.135,0-0.256-0.056-0.351-0.138
	c-0.095,0.082-0.215,0.138-0.35,0.138c-0.136,0-0.256-0.056-0.351-0.138c-0.095,0.082-0.215,0.138-0.351,0.138
	c-0.299,0-0.542-0.243-0.542-0.543c0-0.299,0.243-0.542,0.542-0.542c0.136,0,0.256,0.054,0.351,0.137
	c0.095-0.083,0.215-0.137,0.351-0.137c0.135,0,0.255,0.054,0.35,0.137c0.095-0.083,0.216-0.137,0.351-0.137
	c0.3,0,0.543,0.243,0.543,0.542C6.627,10.2,6.384,10.443,6.084,10.443 M4.681,12.547c-0.299,0-0.542-0.243-0.542-0.543
	c0-0.299,0.243-0.542,0.542-0.542c0.3,0,0.543,0.243,0.543,0.542C5.224,12.304,4.981,12.547,4.681,12.547 M2.577,10.443
	c-0.299,0-0.542-0.243-0.542-0.543c0-0.299,0.243-0.542,0.542-0.542c0.3,0,0.543,0.243,0.543,0.542
	C3.12,10.2,2.877,10.443,2.577,10.443 M4.681,7.254c0.3,0,0.543,0.243,0.543,0.542c0,0.3-0.243,0.543-0.543,0.543
	c-0.299,0-0.542-0.243-0.542-0.543C4.139,7.497,4.382,7.254,4.681,7.254 M4.681,0.942c0.3,0,0.543,0.243,0.543,0.543
	c0,0.3-0.243,0.543-0.543,0.543c-0.299,0-0.542-0.243-0.542-0.543C4.139,1.185,4.382,0.942,4.681,0.942 M8.889,3.046
	c0.3,0,0.543,0.243,0.543,0.543c0,0.3-0.243,0.543-0.543,0.543S8.347,3.889,8.347,3.589C8.347,3.289,8.589,3.046,8.889,3.046
	 M10.993,0.942c0.3,0,0.543,0.243,0.543,0.543c0,0.3-0.243,0.543-0.543,0.543c-0.299,0-0.542-0.243-0.542-0.543
	C10.451,1.185,10.694,0.942,10.993,0.942 M15.201,14.651c-0.3,0-0.543-0.243-0.543-0.543s0.243-0.543,0.543-0.543h0.001h-0.001
	c0-0.127,0.051-0.24,0.125-0.333c-0.476-1.066-1.39-1.8-3.081-2.518l-0.925-0.393c-0.092,0.072-0.202,0.121-0.327,0.121
	c-0.136,0-0.255-0.056-0.351-0.138c-0.095,0.082-0.215,0.138-0.35,0.138c-0.136,0-0.256-0.056-0.351-0.138
	c-0.095,0.082-0.215,0.138-0.35,0.138c-0.136,0-0.256-0.056-0.351-0.138c-0.095,0.082-0.215,0.138-0.351,0.138
	c-0.135,0-0.255-0.056-0.35-0.138c-0.096,0.082-0.215,0.138-0.351,0.138c-0.136,0-0.256-0.056-0.351-0.138
	c-0.095,0.082-0.215,0.138-0.35,0.138c-0.3,0-0.543-0.243-0.543-0.543c0-0.299,0.243-0.542,0.543-0.542
	c0.135,0,0.255,0.054,0.35,0.137c0.095-0.083,0.215-0.137,0.351-0.137c0.136,0,0.255,0.054,0.351,0.137
	c0.095-0.083,0.215-0.137,0.35-0.137c0.136,0,0.256,0.054,0.351,0.137c0.013-0.012,0.031-0.018,0.045-0.028
	c-1.803-0.72-2.518-1.021-2.646-1.07C5.804,8.025,5.78,7.862,5.78,6.941L5.779,6.509c0-0.61,0.038-0.957,0.238-1.159
	c0.114-0.114,0.349-0.266,1.062-0.266l2.542,0.034l1.916,0.088l2.846,0.139C14.529,5.353,14.669,5.3,14.774,5.2
	c0.104-0.099,0.165-0.237,0.165-0.382l0.012-4.034c0.002-0.281-0.218-0.514-0.499-0.53L12.718,0.16C11.355,0.064,10.455,0,8.929,0
	C7.362,0,6.124,0,4.998,0.142c-2.596,0.355-3.84,1.54-4.441,2.921c0.259,0.042,0.459,0.256,0.459,0.526
	c0,0.3-0.243,0.543-0.542,0.543c-0.09,0-0.17-0.027-0.244-0.065C0.026,4.95,0,5.851,0,6.626c0,4.34,0.957,5.212,4.729,6.783
	l1.531,0.614c0.042-0.257,0.256-0.458,0.525-0.458c0.3,0,0.543,0.243,0.543,0.543c0,0.115-0.044,0.215-0.104,0.303l1.942,0.779
	c0.878,0.345,0.875,0.567,0.857,1.8c0,0-0.001,0.459-0.003,0.871c0.081-0.051,0.17-0.088,0.272-0.088
	c0.136,0,0.256,0.055,0.351,0.137c0.002-0.002,0.005-0.003,0.007-0.005c0.099-0.119,0.244-0.2,0.411-0.2h0.001
	c0-0.3,0.243-0.543,0.542-0.543h0.001c0-0.3,0.242-0.543,0.542-0.543c0.3,0,0.543,0.243,0.543,0.543s-0.243,0.542-0.543,0.542
	c0,0.058-0.016,0.111-0.033,0.163c0.083-0.054,0.175-0.094,0.282-0.094c0.299,0,0.542,0.243,0.542,0.542
	c0,0.3-0.243,0.543-0.542,0.543c-0.136,0-0.256-0.055-0.351-0.138c-0.095,0.083-0.215,0.138-0.35,0.138
	c-0.136,0-0.256-0.055-0.351-0.138c-0.081,0.071-0.183,0.113-0.294,0.126c-0.03,0.272-0.252,0.486-0.532,0.486
	c0,0.3-0.243,0.543-0.543,0.543c0,0.3-0.243,0.543-0.542,0.543H9.432c0,0.3-0.243,0.543-0.543,0.543
	c-0.299,0-0.542-0.243-0.542-0.543c0-0.299,0.243-0.543,0.542-0.543H8.89c0-0.299,0.243-0.542,0.543-0.542v-0.001
	c0-0.076,0.023-0.15,0.056-0.222c-0.379,0.05-0.997,0.054-1.677,0.054c-2.259,0-3.268-0.071-3.957-0.14
	c-0.009,0-3.182-0.24-3.182-0.24c-0.146-0.011-0.286,0.041-0.394,0.141c-0.109,0.102-0.164,0.243-0.164,0.392v0.702
	c0.096-0.086,0.22-0.144,0.359-0.144c0.299,0,0.542,0.244,0.542,0.544c0,0.299-0.243,0.542-0.542,0.542
	c-0.139,0-0.263-0.056-0.359-0.142v1.302c0.096-0.085,0.22-0.141,0.359-0.141c0.299,0,0.542,0.242,0.542,0.542
	s-0.243,0.543-0.542,0.543c-0.139,0-0.263-0.058-0.359-0.143v0.494c0.002,0.273,0.211,0.5,0.482,0.524
	c0.6,0.054,2.177,0.171,3.81,0.253c0.064-0.027,0.133-0.042,0.207-0.042v-0.001c0-0.3,0.243-0.542,0.542-0.542h0.001v-0.001
	c0-0.299,0.243-0.543,0.542-0.543H5.7c0-0.299,0.242-0.542,0.542-0.542h0.001v-0.001c0-0.3,0.243-0.542,0.542-0.542h0.001V21.98
	c0-0.3,0.243-0.543,0.542-0.543h0.001c0-0.3,0.243-0.542,0.542-0.542c0.3,0,0.543,0.242,0.543,0.542S8.171,21.98,7.871,21.98
	c0,0.3-0.243,0.543-0.543,0.543c0,0.3-0.243,0.543-0.543,0.543c0,0.3-0.243,0.543-0.543,0.543c0,0.3-0.243,0.543-0.543,0.543
	c0,0.034-0.013,0.063-0.019,0.096l0.143,0.006c0.523,0.018,1.022,0.028,1.465,0.028c2.894,0,6.393-0.326,7.787-2.862l0.001-0.002
	c0.641-1.182,0.723-3.284,0.723-4.983c0-0.791-0.036-1.468-0.138-2.056C15.566,14.538,15.4,14.651,15.201,14.651"/>
<path fill="#565C61" d="M100.76,9.358c-0.3,0-0.543,0.242-0.543,0.542s0.243,0.543,0.543,0.543c0.136,0,0.255-0.055,0.35-0.137
	c0.091,0.077,0.205,0.127,0.332,0.132v1.027c-0.29,0.01-0.523,0.245-0.523,0.538s0.233,0.529,0.523,0.539v1.026
	c-0.29,0.011-0.523,0.246-0.523,0.539s0.233,0.527,0.523,0.538v1.026c-0.29,0.011-0.523,0.246-0.523,0.539s0.233,0.528,0.523,0.539
	v1.026c-0.127,0.005-0.241,0.055-0.332,0.133c-0.095-0.082-0.214-0.138-0.35-0.138c-0.136,0-0.256,0.056-0.351,0.138
	c-0.095-0.082-0.215-0.138-0.35-0.138c-0.136,0-0.256,0.056-0.351,0.138c-0.095-0.082-0.216-0.138-0.351-0.138
	c-0.299,0-0.542,0.243-0.542,0.543s0.243,0.543,0.542,0.543c0.135,0,0.256-0.055,0.351-0.137c0.095,0.082,0.215,0.137,0.351,0.137
	c0.135,0,0.255-0.055,0.35-0.137c0.095,0.082,0.215,0.137,0.351,0.137c0.136,0,0.255-0.055,0.35-0.137
	c0.091,0.078,0.205,0.128,0.332,0.132v1.027c-0.29,0.01-0.523,0.246-0.523,0.539s0.233,0.528,0.523,0.538v1.026
	c-0.29,0.011-0.523,0.245-0.523,0.538s0.233,0.529,0.523,0.539v0.4c0,0.292-0.236,0.528-0.528,0.528h-3.131
	c0.002-0.022,0.013-0.041,0.013-0.064c0-0.136-0.055-0.255-0.137-0.351c0.082-0.096,0.137-0.214,0.137-0.351
	c0-0.136-0.055-0.256-0.137-0.351c0.082-0.095,0.137-0.215,0.137-0.352c0-0.135-0.055-0.255-0.137-0.35
	c0.082-0.095,0.137-0.215,0.137-0.351c0-0.301-0.243-0.543-0.543-0.543c-0.299,0-0.543,0.242-0.543,0.543
	c0,0.136,0.056,0.256,0.138,0.351c-0.082,0.095-0.138,0.215-0.138,0.35c0,0.137,0.056,0.257,0.138,0.352
	c-0.082,0.095-0.138,0.215-0.138,0.351c0,0.137,0.056,0.255,0.138,0.351c-0.082,0.096-0.138,0.215-0.138,0.351
	c0,0.023,0.011,0.042,0.014,0.064H96.19c-0.291,0-0.528-0.236-0.528-0.528V10.405c0.059,0.021,0.122,0.038,0.189,0.038
	c0.299,0,0.542-0.243,0.542-0.543s-0.243-0.542-0.542-0.542c-0.067,0-0.13,0.016-0.189,0.037V0.72c0-0.292,0.237-0.528,0.528-0.528
	h3.797c0.136,0,0.269,0.044,0.367,0.139c0,0,0.291,0.28,0.768,0.74c-0.121,0.1-0.203,0.245-0.203,0.414
	c0,0.3,0.243,0.543,0.542,0.543c0.177,0,0.326-0.09,0.426-0.221c2.239,2.158,6.311,6.081,7.863,7.576
	c-0.237,0.06-0.416,0.263-0.416,0.518c0,0.3,0.243,0.543,0.543,0.543c0.299,0,0.542-0.243,0.542-0.543
	c0-0.279-0.214-0.501-0.486-0.531V8.571c0.087,0.182,0.271,0.311,0.487,0.311c0.299,0,0.542-0.243,0.542-0.542
	c0-0.3-0.243-0.543-0.542-0.543h-0.001c0-0.28-0.214-0.502-0.486-0.532V0.72c0-0.292,0.237-0.528,0.528-0.528h4.829
	c0.291,0,0.528,0.236,0.528,0.528l0.001,12.393c-0.035-0.008-0.068-0.021-0.106-0.021V13.09c0-0.299-0.243-0.542-0.542-0.542h-0.001
	c0-0.3-0.243-0.543-0.542-0.543l-0.001-0.001c0-0.299-0.243-0.542-0.543-0.542c-0.299,0-0.542,0.243-0.542,0.542
	c0,0.3,0.243,0.543,0.542,0.543h0.001c0,0.3,0.243,0.543,0.543,0.543c0,0.3,0.243,0.543,0.543,0.543c0,0.3,0.243,0.543,0.542,0.543
	h0.001c0,0.116,0.044,0.217,0.105,0.305l0.001,8.981c0,0.292-0.236,0.528-0.528,0.528h-4.831c-0.291,0-0.528-0.236-0.528-0.528
	v-2.511c0.272-0.03,0.486-0.252,0.486-0.531c0-0.28-0.213-0.502-0.485-0.531l0.001-1.042c0.11-0.013,0.212-0.056,0.293-0.125
	c0.095,0.082,0.214,0.137,0.35,0.137c0.299,0,0.543-0.243,0.543-0.543s-0.244-0.543-0.543-0.543c-0.136,0-0.255,0.056-0.35,0.138
	c-0.095-0.082-0.216-0.138-0.351-0.138c-0.005,0-0.009,0.004-0.013,0.004c-0.138-0.51-0.425-0.984-0.816-1.391l-0.708-0.741
	c0,0-2.991-2.743-5.804-5.324c0.091,0.072,0.202,0.123,0.328,0.123c0.135,0,0.255-0.055,0.35-0.138
	c0.095,0.083,0.216,0.138,0.351,0.138c0.135,0,0.255-0.055,0.351-0.138c0.095,0.083,0.215,0.138,0.35,0.138
	c0.136,0,0.256-0.055,0.351-0.137c0.095,0.082,0.215,0.137,0.351,0.137c0.299,0,0.542-0.243,0.542-0.543s-0.243-0.542-0.542-0.542
	c-0.136,0-0.256,0.054-0.351,0.137c-0.095-0.083-0.215-0.137-0.351-0.137c-0.135,0-0.255,0.054-0.35,0.137
	c-0.096-0.083-0.216-0.137-0.351-0.137c-0.135,0-0.256,0.054-0.351,0.137c-0.095-0.083-0.215-0.137-0.35-0.137
	c-0.136,0-0.256,0.054-0.351,0.137c-0.095-0.083-0.215-0.137-0.35-0.137c-0.136,0-0.256,0.054-0.351,0.137
	c-0.095-0.083-0.216-0.137-0.351-0.137s-0.255,0.054-0.351,0.137C101.016,9.412,100.896,9.358,100.76,9.358 M111.98,2.028
	c0.3,0,0.543-0.243,0.543-0.543c0-0.299-0.243-0.542-0.543-0.542c-0.299,0-0.542,0.243-0.542,0.542
	C111.438,1.785,111.682,2.028,111.98,2.028 M114.084,4.132c0.3,0,0.543-0.243,0.543-0.543c0-0.3-0.243-0.543-0.543-0.543
	c-0.299,0-0.542,0.243-0.542,0.543C113.542,3.889,113.786,4.132,114.084,4.132 M97.253,4.132c0.3,0,0.543-0.243,0.543-0.543
	c0-0.3-0.243-0.543-0.543-0.543c-0.299,0-0.543,0.243-0.543,0.543C96.71,3.889,96.955,4.132,97.253,4.132 M111.98,6.236
	c0.3,0,0.543-0.243,0.543-0.543c0-0.3-0.243-0.543-0.543-0.543c-0.299,0-0.542,0.243-0.542,0.543
	C111.438,5.993,111.682,6.236,111.98,6.236 M103.565,6.236c0.3,0,0.542-0.243,0.542-0.543c0-0.3-0.242-0.543-0.542-0.543
	c-0.299,0-0.543,0.243-0.543,0.543C103.022,5.993,103.267,6.236,103.565,6.236 M99.357,6.236c0.3,0,0.543-0.243,0.543-0.543
	c0-0.3-0.243-0.543-0.543-0.543c-0.299,0-0.542,0.243-0.542,0.543C98.815,5.993,99.059,6.236,99.357,6.236 M97.253,8.339
	c0.3,0,0.543-0.243,0.543-0.542c0-0.3-0.243-0.543-0.543-0.543c-0.299,0-0.543,0.243-0.543,0.543
	C96.71,8.096,96.955,8.339,97.253,8.339 M112.524,9.901L112.524,9.901c-0.001-0.301-0.244-0.543-0.544-0.543V9.356
	c0-0.299-0.243-0.541-0.542-0.541c-0.3,0-0.542,0.242-0.542,0.541c0,0.301,0.242,0.544,0.542,0.544c0,0.3,0.243,0.543,0.542,0.543
	h0.001c0,0.3,0.243,0.543,0.543,0.543c0.299,0,0.542-0.243,0.542-0.543S112.823,9.901,112.524,9.901 M107.773,9.358
	c-0.136,0-0.256,0.054-0.351,0.137c-0.095-0.083-0.215-0.137-0.35-0.137c-0.3,0-0.543,0.242-0.543,0.542s0.243,0.543,0.543,0.543
	c0.135,0,0.255-0.055,0.35-0.137c0.095,0.082,0.215,0.137,0.351,0.137c0.299,0,0.543-0.243,0.543-0.543S108.072,9.358,107.773,9.358
	 M99.357,9.358c-0.135,0-0.255,0.054-0.35,0.137c-0.096-0.083-0.216-0.137-0.351-0.137c-0.136,0-0.256,0.054-0.351,0.137
	c-0.095-0.083-0.215-0.137-0.35-0.137c-0.3,0-0.543,0.242-0.543,0.542s0.243,0.543,0.543,0.543c0.135,0,0.255-0.055,0.35-0.137
	c0.095,0.082,0.215,0.137,0.351,0.137c0.135,0,0.255-0.055,0.351-0.138c0.095,0.083,0.215,0.138,0.35,0.138
	c0.3,0,0.543-0.243,0.543-0.543S99.657,9.358,99.357,9.358 M105.669,12.547c0.3,0,0.542-0.243,0.542-0.543
	c0-0.299-0.242-0.542-0.542-0.542s-0.543,0.243-0.543,0.542C105.126,12.304,105.37,12.547,105.669,12.547 M97.253,12.547
	c0.3,0,0.543-0.243,0.543-0.543c0-0.299-0.243-0.542-0.543-0.542c-0.299,0-0.543,0.243-0.543,0.542
	C96.71,12.304,96.955,12.547,97.253,12.547 M114.084,14.651c0.3,0,0.543-0.243,0.543-0.543c0-0.301-0.243-0.543-0.543-0.543
	c-0.299,0-0.542,0.242-0.542,0.543C113.542,14.408,113.786,14.651,114.084,14.651 M109.877,14.651c0.299,0,0.542-0.243,0.542-0.543
	c0-0.301-0.243-0.543-0.542-0.543c-0.3,0-0.543,0.242-0.543,0.543C109.334,14.408,109.578,14.651,109.877,14.651 M107.773,14.651
	c0.299,0,0.543-0.243,0.543-0.543c0-0.301-0.244-0.543-0.543-0.543c-0.3,0-0.543,0.242-0.543,0.543
	C107.23,14.408,107.474,14.651,107.773,14.651 M99.357,14.651c0.3,0,0.543-0.243,0.543-0.543c0-0.301-0.243-0.543-0.543-0.543
	c-0.299,0-0.542,0.242-0.542,0.543C98.815,14.408,99.059,14.651,99.357,14.651 M97.796,13.407c0-0.299-0.243-0.543-0.543-0.543
	c-0.299,0-0.543,0.244-0.543,0.543c0,0.136,0.056,0.255,0.138,0.351c-0.082,0.095-0.138,0.214-0.138,0.351
	c0,0.3,0.244,0.543,0.543,0.543c0.3,0,0.543-0.243,0.543-0.543c0-0.137-0.055-0.256-0.137-0.351
	C97.741,13.662,97.796,13.543,97.796,13.407 M114.084,16.754c0.3,0,0.543-0.242,0.543-0.542c0-0.299-0.243-0.542-0.543-0.542
	c-0.299,0-0.542,0.243-0.542,0.542C113.542,16.512,113.786,16.754,114.084,16.754 M97.796,16.212c0-0.3-0.243-0.542-0.543-0.542
	c-0.299,0-0.543,0.242-0.543,0.542c0,0.136,0.056,0.256,0.138,0.351c-0.082,0.096-0.138,0.215-0.138,0.351
	c0,0.3,0.244,0.543,0.543,0.543c0.3,0,0.543-0.243,0.543-0.543c0-0.136-0.055-0.255-0.137-0.351
	C97.741,16.468,97.796,16.348,97.796,16.212 M114.084,17.772c-0.135,0-0.255,0.056-0.35,0.138c-0.095-0.082-0.215-0.138-0.351-0.138
	c-0.135,0-0.255,0.056-0.35,0.138c-0.095-0.082-0.215-0.138-0.351-0.138c-0.3,0-0.542,0.243-0.542,0.543s0.242,0.543,0.542,0.543
	c0.136,0,0.256-0.055,0.351-0.137c0.095,0.082,0.215,0.137,0.35,0.137c0.136,0,0.256-0.055,0.351-0.137
	c0.095,0.082,0.215,0.137,0.35,0.137c0.3,0,0.543-0.243,0.543-0.543S114.384,17.772,114.084,17.772 M114.084,20.962
	c0.3,0,0.543-0.243,0.543-0.542c0-0.3-0.243-0.543-0.543-0.543c-0.299,0-0.542,0.243-0.542,0.543
	C113.542,20.719,113.786,20.962,114.084,20.962 M97.796,19.718c0-0.299-0.243-0.542-0.543-0.542c-0.299,0-0.543,0.243-0.543,0.542
	c0,0.136,0.056,0.256,0.138,0.352c-0.082,0.095-0.138,0.215-0.138,0.351c0,0.299,0.244,0.542,0.543,0.542
	c0.3,0,0.543-0.243,0.543-0.542c0-0.136-0.055-0.256-0.137-0.351C97.741,19.974,97.796,19.854,97.796,19.718 M114.084,23.065
	c0.3,0,0.543-0.242,0.543-0.543c0-0.299-0.243-0.542-0.543-0.542c-0.299,0-0.542,0.243-0.542,0.542
	C113.542,22.823,113.786,23.065,114.084,23.065 M111.98,23.065c0.3,0,0.543-0.242,0.543-0.543c0-0.299-0.243-0.542-0.543-0.542
	c-0.299,0-0.542,0.243-0.542,0.542C111.438,22.823,111.682,23.065,111.98,23.065 M99.357,23.065c0.3,0,0.543-0.242,0.543-0.543
	c0-0.299-0.243-0.542-0.543-0.542c-0.299,0-0.542,0.243-0.542,0.542C98.815,22.823,99.059,23.065,99.357,23.065"/>
</svg>
