<?xml version="1.0" encoding="utf-8"?>
<!-- Generator: Adobe Illustrator 16.0.0, SVG Export Plug-In . SVG Version: 6.00 Build 0)  -->
<!DOCTYPE svg PUBLIC "-//W3C//DTD SVG 1.1//EN" "http://www.w3.org/Graphics/SVG/1.1/DTD/svg11.dtd">
<svg version="1.1" id="Layer_1" xmlns="http://www.w3.org/2000/svg" xmlns:xlink="http://www.w3.org/1999/xlink" x="0px" y="0px"
	 width="1181.413px" height="276.318px" viewBox="0 282.51 1181.413 276.318" enable-background="new 0 282.51 1181.413 276.318"
	 xml:space="preserve">
<path fill="#005291" d="M623.793,495.977c-17.166,0-30.456-4.706-39.593-13.844c-8.859-8.859-17.166-20.211-17.166-42.361
	c0-19.104,5.261-34.332,15.505-44.576c10.244-10.521,23.812-15.781,40.146-15.781c9.69,0,18.551,1.661,26.303,5.261
	c8.029,3.599,14.397,9.137,19.658,16.889c4.707,6.645,7.476,14.397,8.86,23.257c0.83,4.984,1.107,12.183,0.83,21.873v2.492h-78.078
	c0.831,8.583,4.153,14.397,9.968,17.997c3.876,2.491,8.583,3.599,14.12,3.599c5.814,0,10.521-1.384,14.121-4.43
	c1.938-1.661,3.599-3.876,5.261-6.645l0.83-1.385h32.948l-0.277,2.769c-0.831,6.922-3.876,13.013-10.521,19.935
	C657.295,491.271,643.728,495.977,623.793,495.977z M622.685,384.398c-14.951,0-27.41,4.707-36.547,14.12
	c-9.414,9.414-14.12,23.258-14.12,40.978c0,19.104,6.368,29.349,15.781,38.762c8.307,8.307,20.488,12.459,35.993,12.459
	c18.273,0,30.733-4.152,39.316-13.289c4.706-4.984,7.476-9.414,8.583-14.397h-24.088c-1.661,2.769-3.6,5.261-5.814,6.922
	c-4.43,3.599-10.244,5.537-17.166,5.537c-6.368,0-12.183-1.385-16.89-4.43c-7.752-4.707-11.905-13.013-12.459-24.642v-2.492h78.354
	c0-8.029-0.276-14.12-0.83-18.551c-1.107-8.029-3.876-15.228-8.029-21.318c-4.707-6.922-10.521-11.906-17.443-14.951
	C639.851,386.059,631.822,384.398,622.685,384.398L622.685,384.398z M492.279,495.977c-11.906,0-24.642-6.368-33.225-16.612
	c-8.86-10.521-13.567-24.364-13.567-40.7c0-16.612,4.431-29.349,14.675-42.084c8.859-11.075,20.488-16.612,34.055-16.612
	c6.922,0,13.29,1.661,18.551,4.707c3.876,2.215,5.814,3.322,8.583,5.813V347.02h33.502v146.466h-32.395v-7.476
	c-4.983,4.983-9.69,6.922-14.12,8.029C501.692,495.977,496.709,495.977,492.279,495.977z M494.217,384.676
	c-11.905,0-22.427,5.26-30.179,14.95c-6.645,8.307-13.566,19.658-13.566,39.039c0,15.229,4.152,27.965,12.182,37.378
	c7.753,9.137,19.104,14.951,29.349,14.951c4.43,0,8.86,0,14.951-1.661c5.814-1.661,10.521-4.153,16.059-11.629l4.707-6.368v17.166
	h22.149V352.004h-23.534v50.392l-4.43-4.707c-5.537-5.814-6.922-6.646-11.629-9.414
	C505.845,386.059,500.308,384.676,494.217,384.676z M500.308,474.382c-8.86,0-15.505-3.322-19.936-9.968
	c-4.152-6.367-6.367-14.674-6.367-25.195c0-9.69,1.938-17.996,6.091-24.364c4.43-6.922,11.075-10.521,20.212-10.521
	c6.091,0,11.352,1.938,15.781,5.814c7.199,6.091,10.798,16.336,10.798,30.179c0,9.968-2.215,17.997-6.645,24.365
	C516.09,471.059,509.168,474.382,500.308,474.382L500.308,474.382z M500.585,409.317c-7.476,0-12.459,2.769-16.059,8.029
	c-3.599,5.813-5.261,13.013-5.261,21.872c0,9.414,1.938,16.89,5.538,22.427c3.322,5.261,8.583,7.753,15.781,7.753
	c7.199,0,12.46-2.492,16.059-7.753c3.876-5.537,5.814-12.736,5.814-21.596c0-12.459-3.046-21.042-9.137-26.303
	C509.445,410.701,505.292,409.317,500.585,409.317z M649.819,430.359h-53.99l0.554-2.769c1.107-7.476,3.876-13.567,8.307-17.997
	c4.43-4.707,10.798-6.922,18.55-6.922c7.199,0,13.29,2.215,18.273,6.368c4.984,4.43,7.753,10.521,8.307,18.827V430.359z
	 M601.643,425.375h42.638c-0.83-5.537-2.769-9.69-6.367-12.459c-4.153-3.599-8.86-5.261-14.951-5.261
	c-6.646,0-11.352,1.661-14.951,5.261C604.966,415.962,602.751,420.115,601.643,425.375z M1141.267,425.929l38.762-40.424h-35.163
	l-35.716,40.978v-79.186h-27.965v146.188h27.965V459.43l11.628-12.183l26.303,46.238h34.332L1141.267,425.929 M1058.76,486.01
	c-0.831-1.385-1.662-3.877-1.662-7.476c0-4.984-0.276-9.137-0.276-12.459v-49.838c0-13.013-4.707-21.872-13.844-26.579
	c-9.414-4.707-19.935-6.922-31.841-6.922c-18.273,0-31.286,4.707-38.762,14.397c-4.707,6.091-7.476,13.844-8.029,23.257h27.41
	c0.554-4.153,1.938-7.476,4.153-9.967c2.769-3.323,7.753-4.984,14.397-4.984c6.091,0,10.521,0.831,13.844,2.492
	c3.045,1.661,4.707,4.707,4.707,9.137c0,3.6-1.938,6.368-6.092,8.029c-2.215,1.107-6.091,1.938-11.352,2.492l-9.69,1.107
	c-11.075,1.384-19.381,3.599-24.919,6.922c-10.244,6.091-15.504,15.505-15.504,29.071c0,10.244,3.322,18.273,9.689,23.811
	c6.368,5.538,14.675,8.307,24.365,8.307c7.752,0,14.674-1.661,20.766-5.261c5.26-3.046,9.69-6.645,13.566-10.798
	c0.277,2.492,0.554,4.707,0.831,6.645c0.276,1.938,0.83,3.877,1.938,6.092h30.733v-4.153
	C1061.251,488.502,1059.59,487.394,1058.76,486.01 M1028.58,451.125c-0.277,9.413-3.046,16.059-8.029,19.657
	c-5.261,3.6-10.798,5.261-17.166,5.261c-3.876,0-7.199-1.107-9.968-3.322s-4.153-5.537-4.153-10.521
	c0-5.537,2.216-9.413,6.646-11.905c2.492-1.385,6.922-2.769,13.013-3.876l6.368-1.107c3.323-0.554,5.814-1.107,7.753-1.938
	c1.938-0.554,3.599-1.661,5.537-2.769V451.125L1028.58,451.125z M945.518,486.01c-0.831-1.385-1.385-3.876-1.661-7.476
	c0-4.984-0.277-9.137-0.277-12.459v-49.838c0-13.013-4.707-21.872-13.844-26.579s-19.935-6.922-31.84-6.922
	c-18.273,0-31.286,4.707-38.762,14.397c-4.707,6.091-7.476,13.844-8.029,23.257h27.41c0.554-4.153,1.938-7.476,4.152-9.967
	c2.77-3.323,7.753-4.984,14.398-4.984c6.091,0,10.521,0.831,13.843,2.492c3.046,1.661,4.707,4.707,4.707,9.137
	c0,3.6-1.938,6.368-6.091,8.029c-2.215,1.107-6.092,1.938-11.352,2.492l-9.691,1.107c-11.074,1.384-19.381,3.599-24.918,6.922
	c-10.244,6.091-15.505,15.505-15.505,29.071c0,10.244,3.322,18.273,9.69,23.811c6.368,5.538,14.674,8.307,24.365,8.307
	c7.752,0,14.674-1.661,20.765-5.261c5.261-3.046,9.69-6.645,13.567-10.798c0.276,2.492,0.554,4.707,0.83,6.645
	c0.277,1.938,0.831,3.877,1.661,6.092h30.733v-4.153C947.733,488.502,946.349,487.394,945.518,486.01 M915.34,451.125
	c-0.277,9.413-3.046,16.059-8.029,19.657c-5.261,3.6-10.799,5.261-17.166,5.261c-3.877,0-7.199-1.107-9.968-3.322
	s-4.153-5.537-4.153-10.521c0-5.537,2.215-9.413,6.645-11.905c2.492-1.384,6.922-2.769,13.014-3.876l6.368-1.107
	c3.322-0.554,5.814-1.107,7.476-1.938c1.938-0.554,3.6-1.661,5.537-2.769v10.521H915.34z M789.639,382.737
	c-8.029,0-14.397,1.661-19.658,4.983c-4.43,2.769-8.306,6.646-11.905,11.629V347.02h-28.241v146.466h27.964v-13.567
	c3.877,5.261,7.199,9.137,10.521,11.075c5.537,3.6,12.736,5.261,21.596,5.261c14.397,0,25.473-5.538,33.502-16.612
	c8.029-11.075,11.905-24.919,11.905-41.808c0-16.336-4.153-29.626-12.183-39.87S804.037,382.737,789.639,382.737 M799.606,464.137
	c-4.152,5.814-9.69,8.859-17.166,8.859c-8.583,0-14.674-3.045-18.827-9.137c-4.152-6.091-6.091-13.843-6.091-22.98
	c0-7.752,1.107-14.396,3.046-19.381c3.876-9.413,11.074-14.12,21.318-14.12c10.245,0,17.166,4.707,21.043,14.397
	c1.938,4.983,3.045,11.352,3.045,19.104C805.698,450.571,803.483,458.047,799.606,464.137"/>
<path fill="#005291" d="M445.211,481.303h-1.107c-21.319-1.107-48.453-34.609-72.264-63.957
	c-15.505-19.382-30.456-37.378-39.316-40.7l1.107-3.046c9.69,3.6,24.088,21.319,40.7,41.808
	c23.534,28.795,50.114,61.742,70.049,62.573c4.707,0.276,8.86-1.385,12.46-4.984l2.491,2.492
	C455.177,479.089,450.471,481.303,445.211,481.303z M480.927,460.815l-2.216-2.492c1.938-1.661,47.346-43.192,91.922-29.071
	l-1.107,3.322C526.887,418.73,481.204,460.261,480.927,460.815z M658.678,446.418h-3.322c0-0.831,3.046-72.817,76.417-83.893
	l0.554,3.322C661.447,376.369,658.678,445.587,658.678,446.418z"/>
<path fill="#005291" d="M296.53,535.847c-0.277,0.554-0.554,0.83-1.385,0.554c-0.554,1.938,0.831,1.938,1.938,2.491v0.554h2.492
	C300.13,537.509,298.191,534.186,296.53,535.847 M19.104,422.052c-2.492-1.107,3.046-1.107,2.215,0.831
	c-0.83,0.276-1.107,0.83-1.661,1.384c0.831,0,0.831,0.554,1.385,0.831c2.215,2.769,4.152,5.537,7.476,7.198
	c1.661,1.107,2.769,2.77,4.43,3.877c1.107,0,1.661,0.276,2.215,0.83c0.83,3.046,2.215,5.538,6.091,5.538
	c0,1.384,0.554,1.938,1.385,2.215c2.492,1.661,4.153,3.876,6.922,5.537c3.322,4.153,9.967,9.414,13.566,11.075h0.831
	c3.322-0.277,1.938,4.152,6.091,3.322c1.385-3.876-2.492-2.492-2.215-5.537c0-1.107-1.938-0.831-3.046-0.831
	c-3.045-2.492-6.368-4.983-9.967-7.198c-3.323-2.492-6.646-4.707-9.69-7.199c-1.108-2.492-3.323-3.6-5.261-5.537
	c-1.661-0.277-1.385-2.215-3.046-2.492c-1.661-0.276-1.385-2.215-3.046-2.492c-1.107-4.152-5.814-4.43-8.306-7.198
	c-1.938-4.153-5.814-6.368-9.69-8.583c0.554-1.107-1.938-0.277-1.938-1.661c-1.384-1.661-3.6-2.492-5.261-3.876
	c-0.276-2.215-3.599-1.385-5.261-2.492c0,1.107,0.277,1.661,0.831,2.215C9.136,414.577,13.844,422.052,19.104,422.052
	 M324.771,480.75h-0.554c-0.554-1.107-3.046-0.554-3.323-1.938c-4.43-1.938-8.306-4.43-13.566-5.537
	c-0.276-1.385-9.69-4.983-10.521-3.876c-2.215-0.554-0.83,2.491-1.384,3.876c1.938,0.831,0.554-2.215,2.492-1.385
	c2.491-0.554,5.813,5.814,8.583,4.984c1.384,0.276,2.491,0,3.322-0.554c-1.385,1.384,0.276,1.384,1.384,1.938
	c1.107,1.385,3.046,1.661,4.431,2.769c1.107,4.707,13.289,5.814,10.244,0.831C325.879,481.303,325.325,481.026,324.771,480.75
	 M13.29,373.6c-0.83,0-1.107,1.384,0,1.661c3.046,2.769,6.368,5.261,9.69,7.752c4.43,5.538,9.414,10.521,15.782,14.121
	c1.384,2.769,4.706,3.6,6.091,6.368c1.938,2.215,4.153,4.706,6.922,6.368c2.215-0.555,1.385,1.661,3.046,1.661
	c0.554,1.661,2.215,1.938,3.045,3.045c2.215,1.107,2.492,4.153,6.092,3.877c-0.277,2.769,2.769,2.491,3.876,3.876
	c0-3.322-1.938-4.707-4.43-5.538c-0.831-2.215-3.877-2.215-5.261-3.876c-1.107-0.83-1.938-2.215-3.046-3.045
	c0-0.555,0-0.831-0.83-0.831c-1.385-2.215-3.046-3.876-5.261-5.537c-3.6-1.938-6.646-8.583-9.69-8.583h-0.831
	c-0.554-1.661-2.492-1.661-3.322-2.492c-1.385-2.215-3.322-4.43-6.091-5.537c0-1.107-0.831-1.107-0.831-2.215
	c-2.769,0.276-3.322-1.385-4.43-2.492c-1.661-2.769-4.984-4.43-6.922-6.922c-1.661-1.938-3.046-4.153-5.814-4.707
	C10.244,372.769,13.567,371.662,13.29,373.6 M10.244,404.886c-2.491-0.83-1.384-4.707-4.43-4.707
	C6.368,402.118,8.306,406.825,10.244,404.886 M11.351,387.998c3.046,2.215,4.984,5.261,8.307,7.198
	c1.107,1.938,3.322,2.769,5.261,3.876h0.83c0.831,3.323,4.984,3.323,6.092,6.368c1.384,2.769,4.152,3.877,6.922,5.538
	c3.322,4.706,8.859,7.752,11.905,12.459c1.661,2.215,4.43,3.876,6.922,5.537c3.045,1.107,5.537,6.092,8.306,4.707
	c-1.938,0-1.107-3.046-3.045-3.046c-4.153-4.983-8.86-8.859-14.397-12.459c-1.385-3.046-5.261-3.6-6.922-6.368
	c-4.707-7.198-12.183-11.905-18.827-17.166c-1.661-1.661-3.323-3.322-5.261-4.707c-1.107-1.938-3.322-2.769-5.261-3.876
	c0.277-2.215-2.769-0.83-3.046-2.492c-0.554-1.107-1.661-1.384-3.045-1.661C6.922,384.676,8.86,386.613,11.351,387.998
	 M61.466,430.913c-2.492-0.554-3.322-7.476-6.922-5.261C58.143,423.437,58.973,430.359,61.466,430.913 M54.544,425.929l0.277,0.276
	C54.821,425.929,54.544,425.929,54.544,425.929z M17.443,431.189c0.83,3.046,4.707,3.046,6.091,5.538c0,0.554,0,0.83,0.831,0.83
	c0.276,1.938,2.769,1.661,4.43,2.492c0,0.554,0,0.83,0.831,0.83c-0.831,2.492,4.152,3.323,2.215,4.707
	c-0.831,0-0.831-0.554-1.661-0.83c-3.323-0.554-4.707-4.707-7.753-1.661c2.769,1.384,6.092,6.091,9.137,4.706
	c0.831,0.277,1.107,0.831,1.385,1.661c-0.277,2.216-0.277,4.153,2.215,3.877c2.492,4.43,7.476,6.368,11.352,9.413h0.831
	c0.554,2.492,2.769,3.323,4.43,4.707c2.769,2.492,6.368,4.43,9.137,7.199c1.107,1.107,0.831,3.599,3.876,3.045
	c1.107,1.385,1.661,3.322,4.431,3.322c-1.662-5.537-6.646-8.306-10.521-11.628c-1.661-2.492-4.707-3.322-6.922-5.538
	c-2.769-1.661-3.876-4.983-7.476-5.537c-1.385-2.769-4.43-4.153-6.922-6.368c-0.554,0-0.831,0-0.831-0.83
	c0-3.323-4.983-1.662-4.43-5.538c1.385-0.276,2.215,3.6,3.046,1.661c0.554-2.215,1.107,1.107,2.215,0.831
	c1.107,2.769,4.153,3.6,6.922,4.707c1.938,5.261,9.69,5.261,12.183,10.244c1.384,3.045,9.967,10.244,9.967,5.537
	c-3.045-1.384-3.599-5.537-7.476-6.368c-2.215-0.83-2.769-3.322-5.26-3.876c-2.216-2.215-4.153-4.983-7.476-6.368
	c-2.77-3.876-7.476-5.814-10.521-9.413c-3.322,0.554-3.046-2.492-5.261-3.046c-1.384-2.492-4.153-3.6-6.091-5.537
	c-1.661-0.831-2.492-2.492-4.431-3.046c-2.491-1.385-3.322-4.983-6.921-5.538c-4.984-2.769-7.476-7.198-13.014-9.137
	c2.769,4.707,6.922,8.029,12.183,10.245C14.397,427.591,14.951,430.359,17.443,431.189 M21.873,439.772
	c-2.769-1.661-6.922-6.922-12.183-8.583c-1.384-1.384-2.215-3.322-4.43-3.876c-1.385,4.983,3.322,4.43,5.261,6.368
	C12.182,437.004,18.827,440.05,21.873,439.772 M319.233,490.44c-1.661-1.107-3.322-2.769-5.814-3.322
	c-1.384-2.492-2.215-1.385-4.43-2.769c-2.769,0.276-7.752-4.153-9.967-2.492c1.661,3.046,12.459,5.814,12.459,5.814
	c0,0.83-0.831,0.83-0.554,1.938c3.876-0.276,6.091,4.431,9.137,2.77C319.233,492.379,319.233,491.271,319.233,490.44
	 M68.387,524.496c-2.215-1.662-5.814-1.938-7.476-3.877c-1.938-3.322-8.029-2.769-9.968-6.368c-0.83-1.938-3.045-2.491-5.26-3.322
	c-2.77-1.107-4.984-3.322-8.307-3.876c0-1.385-2.492-0.554-3.046-1.661c-2.769-0.277-3.045-3.046-6.922-2.492
	c-0.554,3.322,4.431,1.385,5.261,3.046v0.83c1.385-0.276,1.385,1.108,2.215,1.662c5.814,6.367,14.121,9.967,22.704,13.566
	c0.83,3.322,3.876,4.43,6.922,5.537c1.384,0,4.43,2.215,5.261,0h0.83C71.433,525.326,69.495,525.326,68.387,524.496 M60.358,541.938
	v3.876c1.385,0,2.492,0.277,3.046,0.831c3.322,0.554,5.814-0.277,5.537-3.6c-1.107,0-1.661-0.276-2.215-0.83
	C65.895,540.554,61.189,541.385,60.358,541.938 M65.895,535.294v-0.831c-1.938,0-2.215-1.384-3.876-1.661
	c-2.769-2.492-7.476-3.046-9.968-5.537v-0.831c-1.661-0.83-2.215-2.491-4.43-2.491c-0.276-1.108-1.107-1.385-1.384-2.216h-3.046
	v-0.83h-1.661c0-0.554,0-0.831-0.831-0.831c-1.384,3.877,2.492,7.753,6.646,8.583h0.83c1.107,0.831,1.385,2.215,3.046,2.492
	c2.215,1.385,5.261,4.983,7.476,3.876h1.661c0.554,1.385,2.769,1.385,3.876,2.492c0.554,1.661,4.43,0.276,6.092,0.83
	C71.156,535.294,68.387,535.294,65.895,535.294 M24.919,361.418c-3.046-1.661-6.092-10.521-9.968-6.368
	C17.719,357.542,21.873,362.249,24.919,361.418 M67.834,409.316c-2.215,0-1.661-3.045-4.43-2.491v2.215
	C65.342,409.04,67.003,412.362,67.834,409.316 M16.336,367.509c1.384,0.277,2.491,0.554,3.045,1.662v0.83
	c2.492-0.554,1.108,2.492,3.046,2.492c0,2.491,4.707,4.43,5.261,3.876c-1.385,0.554-1.107-3.6,0-3.046c0,0.831,1.385,1.107,1.385,0
	c-2.216-0.83-2.216-0.83-4.707,0v-0.83c2.215-1.661-3.046-2.492-3.876-3.876c-1.108-1.938-2.77-3.323-4.431-4.707h-1.661
	c-1.661-0.554-0.276-4.431-3.046-3.877C9.968,363.356,14.121,365.571,16.336,367.509 M31.841,366.955
	c-1.107-0.83-1.661-2.491-3.877-2.491c0.277,0.554,0,1.661,0.831,1.661c0.554,2.769,1.938,4.43,4.43,3.046
	c0,1.384,0.554,1.938,1.385,2.215c2.492,2.491,5.261,4.706,7.476,7.198c3.046,3.6,5.261,8.029,11.352,8.583
	c-0.831-1.938-2.769-2.769-4.43-3.876c-3.876-4.153-7.476-8.86-12.736-11.905C36.548,368.34,32.671,369.171,31.841,366.955
	 M67.28,401.564c-1.107-3.6-4.153-5.537-6.646-7.752c-0.554-1.662-1.938-2.216-3.876-2.492c-0.276,2.769,2.769,2.492,3.876,3.876
	C62.297,397.688,64.788,399.626,67.28,401.564 M61.743,362.249c-1.108,0.276-3.877-1.107-3.877,0.83
	c2.492,0.554,4.153,1.938,5.261,3.876C64.234,364.186,61.466,364.74,61.743,362.249 M65.065,386.059
	c-1.107,0-1.661-0.276-2.215-0.83c-1.107-4.153-6.092-4.707-8.307-7.753c-1.938,3.322,4.707,4.43,5.261,7.753h1.661
	c1.938,1.107,3.6,2.769,4.43,4.706c0.277,1.661,4.707,2.77,5.261,1.661C69.772,389.382,67.28,387.998,65.065,386.059 M35.717,360.31
	c-0.831-4.153-4.43-5.814-7.476-7.752c0-0.555,0-0.831-0.831-0.831c-2.215-3.876-4.43-8.029-9.69-8.583
	C22.427,349.789,27.687,356.434,35.717,360.31 M71.156,511.482v-1.661c0-0.276-0.276-0.554-0.276-0.554
	c-2.216-3.046-9.137-6.922-13.29-9.69c-0.277-1.107-1.661-0.831-2.215-1.661c-3.323-4.153-9.137-6.091-12.736-10.244
	c-8.583-6.646-17.72-12.736-26.026-19.658v-0.83c-2.215-0.554-1.938-3.323-4.43-3.046c-0.831,0-0.831-0.554-1.385-0.831
	c0.831-2.491-2.491-1.107-3.876-1.661c0.831,3.876,5.814,7.199,8.307,7.199c1.938,1.661,4.43,3.322,6.091,5.537
	c0,1.938,3.046,1.107,3.046,3.046c4.153,4.152,8.583,9.137,12.736,11.074c0.276,1.107,1.661,0.831,2.215,1.661
	c2.491,1.385,4.706,3.046,6.922,4.707h0.83c1.107,2.215,6.646,7.476,7.476,4.707c1.107,0.277,0.831,1.661,1.385,2.215
	c3.045,4.153,8.859,5.538,11.352,10.244c-2.492-1.384-6.091-2.215-8.307-4.152c-1.661-1.385-3.876-2.216-6.091-3.323
	c0-1.107-0.277-1.661-0.831-2.215H50.39c-1.107-2.215-3.876-2.769-6.091-3.876h-1.661c-1.385-0.831-1.107-3.322-3.876-3.046
	c-2.77-1.107-3.323-4.43-6.922-4.707c-1.107-0.83-1.385-2.215-3.046-2.215c-2.769-1.938-4.707-4.706-9.137-4.706
	c-2.215-1.385-4.153-3.046-7.753-3.323c-1.107,4.984,5.538,2.215,7.476,3.877c0,4.43,4.707,4.43,6.646,6.922
	c0.276,0.83,0.83,1.107,1.384,1.661c3.046,1.938,5.261,4.706,9.137,5.537c0.277,0.276,0.555,0.276,0.831,0.554v0.277h0.554
	c2.769,1.661,5.537,3.322,7.753,5.537c4.152,0,4.706,3.046,7.476,3.876c0.83,0,0.83,0.554,1.661,0.831
	c1.938,1.107,2.215,3.322,5.26,3.045c0.831,0.277,1.108,0.831,1.385,1.661c1.107,0,2.215,0.277,2.215-0.83
	c0,0.276-0.276,0.554-0.554,0.554c3.046-0.277,8.029-0.831,7.753-2.769C71.71,512.036,71.156,512.313,71.156,511.482
	 M34.055,495.147c0.83,1.384,3.046,1.661,4.153,2.491C37.101,496.808,34.609,496.531,34.055,495.147 M35.439,340.098
	c2.77,5.538,8.029,8.307,12.736,11.905c-3.045-5.813-8.029-9.69-13.566-13.289c-3.876-1.938-4.43-6.646-9.137-7.753
	C26.026,336.5,32.671,336.5,35.439,340.098 M40.977,327.362c-1.938-2.769-4.431-5.537-7.476-7.198
	C34.885,323.21,38.485,327.916,40.977,327.362 M68.11,356.157c-6.645-6.091-10.244-14.674-17.996-19.657
	c0-0.555,0-0.831-0.831-0.831c-2.769-4.153-5.261-4.707-8.306-7.753c0,2.216,1.661,2.77,3.045,3.877
	c4.153,6.368,10.245,11.074,14.951,17.166c1.385,1.938,3.6,3.045,5.261,4.707c1.661,1.661,2.769,3.876,5.261,4.706
	C69.772,356.988,68.664,356.988,68.11,356.157 M228.696,510.928v-0.83c1.107-4.153-4.706-8.029-7.476-10.799h-0.83
	c-4.153,0-3.046-4.983-6.092-6.367c-1.661-3.6-4.706-6.092-7.476-8.583c-2.215-5.814-8.583-7.753-11.905-12.46
	c0.277-2.769-1.661-3.599-3.045-4.706c-2.216-1.385-3.877-3.323-5.261-5.538c-1.107-2.215-3.6-6.922,0.83-4.707
	c0.554,0,0.831,0,0.831,0.831v0.83c1.661,0.555,2.215,1.938,4.43,1.662c-0.554,3.322,2.769,2.491,2.215,5.537
	c2.215,0.554,1.938-1.107,3.876-0.831c-1.384,1.938,2.492,2.216,2.216,0.831c1.661,0.276,0-2.215-0.831-2.215
	c-0.83-1.938-3.046-2.492-4.43-3.876c0.276-1.662-2.215-0.831-2.215-2.216c-1.385-3.599-6.646-3.599-8.307-7.198
	c0.277-1.661-0.554-2.492-2.215-2.215c-1.107-2.215-3.6-3.046-5.261-4.707c-0.276-1.661-1.107,0.831-2.215-0.831
	c-1.385-1.384-3.6-2.491-4.707,0c-1.107-1.661-0.276-4.706-3.045-4.706c0-1.661-1.938-1.661-3.877-1.661
	c-2.215,2.491-3.876-4.984-6.922-1.662c0,1.385,0,2.492,0.831,3.046c2.215,2.769,4.983,5.261,8.306,7.199
	c-0.276,1.938,1.662,1.938,3.046,2.491c-0.276-1.384,1.107-1.938,1.661-0.83c0,1.107,1.938,0.554,1.385,2.215
	c-0.831,0-2.215-0.277-2.215,0.83c0.83,0,0.83,0.554,1.661,0.831c1.384,4.153,14.397,17.166,7.476,8.583h0.83
	c3.046,2.215,3.6,7.198,7.476,8.583c0,0.554,0,0.831,0.831,0.831v0.83c3.045,0.554,2.491,4.707,5.261,5.537
	c4.983,4.707,9.413,9.414,13.566,14.951v0.831c3.876,5.261,8.86,8.86,12.736,14.12c0,1.661,2.215,1.107,1.384,3.046
	c-1.107,0-1.107-1.107-2.215-0.831c-1.107-0.554-1.107-2.491-3.045-2.215v-0.83c-0.555-1.385-1.662-2.492-3.046-3.046
	c-2.215-1.385-4.153-3.046-5.261-5.537c-1.107-3.877-4.707-5.538-6.645-8.583c-1.385-3.046-5.538-3.046-6.646-6.368
	c0-0.277,0-0.277-0.276-0.554l-0.554-0.554c-2.216-3.046-4.984-5.814-8.307-8.307c-0.276-1.107-1.107-1.938-2.215-2.491
	c0.831-3.046-4.43-6.092-7.476-7.753c-1.385-1.384-3.876-1.938-4.43-3.876c-1.107-1.938-3.322-2.769-3.876-5.537H166.4
	c-1.107-1.938-2.769-3.323-4.43-4.707c-3.877-1.938-4.984-6.646-9.137-8.583c-1.107-1.661-1.938-3.6-4.431-3.877
	c0.277,2.492,1.385,4.153,3.046,5.538c-0.276,1.938,1.107,2.491,2.215,3.045c1.938,2.492,3.876,5.261,6.646,6.922
	c1.384-0.276,1.384,1.107,2.215,1.662c6.645,9.413,14.397,17.166,23.257,24.364h1.661c1.938,0.554,0.277,4.707,3.046,4.707
	c-0.277,2.491,3.046,1.661,3.876,3.045c0.277,1.938,1.107,3.6,2.215,4.707c2.215,2.215,4.984,4.153,6.646,6.922
	c0,0.554,0,0.831,0.83,0.831c0.831,1.661,1.385,3.322,3.046,3.876c3.6,4.43,7.476,8.306,11.352,12.459
	c1.107,0,1.107,1.107,2.215,0.831c1.107,2.215,3.6,3.322,4.431,5.537v0.831c2.215,2.769,2.491-0.554,5.26,0.83
	c0-3.599-2.215-4.983-3.599-6.922C227.312,512.313,228.973,512.59,228.696,510.928 M232.573,497.916
	c-0.554,2.215-1.108-1.107-2.216-0.831c0.277-0.83,0.831-0.554,1.661,0c-0.554-2.215-2.769-5.26-6.921-6.922
	c-1.385-3.599-4.153-5.813-7.476-7.752c-0.554-3.046-2.77-1.107-3.877-2.492c1.107,0.277,2.216-1.107,0.831-1.661h-0.831
	c-3.322-3.876-6.645-7.752-10.521-11.074v0.83c-1.107,0.554-3.877-0.83-3.877,0.831c1.662,0.83,2.492,2.491,4.431,3.045
	c1.384,2.215,3.045,3.877,5.261,5.538c1.661,0.83,0.554,3.876,3.045,3.876c0.831,1.661,2.215,3.046,3.876,3.876
	c1.662,0.277,1.385,2.215,3.046,2.492c0.277,1.107,2.492,0.83,1.385,3.045c4.43,0,4.43,4.153,7.476,5.538v0.83
	c-0.831,0.831,2.215,4.984,5.261,4.707C232.849,500.684,234.234,497.916,232.573,497.916 M55.097,357.542
	c-2.769-1.107-3.6-3.876-6.091-5.538C48.729,355.603,52.605,358.926,55.097,357.542 M222.052,523.942
	c-1.107,0-0.554-1.385-1.385-1.662c-4.43-5.26-9.137-10.521-14.951-14.12c-2.215-1.938-5.537-2.769-6.922-5.537v-2.215
	c-1.107-0.277-1.384-1.107-3.045-0.831c-1.385,0-1.661-0.831-1.385-2.215c-2.215-3.322-5.814-5.537-9.137-7.753v-0.83
	c-5.814-8.307-13.29-15.505-21.042-21.873c-2.215-2.769-4.983-4.707-7.476-7.198c-4.153-1.938-5.814-5.814-9.69-7.753
	c-0.831-1.385-1.661-3.046-3.876-3.046c-1.385-2.769-1.662-6.368-5.261-6.921h-0.831c-0.83-1.938-3.322-2.216-6.091-2.492v3.045
	h2.215c1.661,0,2.492,0.555,2.215,2.216c1.385,3.599,4.707,5.26,7.476,7.752c0.277,0.831,0.831,1.107,1.385,1.661
	c1.661,2.769,4.152,4.43,6.922,6.368c0.83,0.277,1.661,1.107,1.384,2.215h3.876c0.277,3.046,6.092,7.199,9.137,10.244
	c0.277,0.831,0.831,1.107,1.385,1.661c-0.277,4.153,3.6,4.707,6.091,6.368c0,1.385,2.492,0.554,2.215,2.492
	c0.831,1.385,2.216,2.215,3.046,3.876c1.661-1.107-0.83-1.938,0.831-2.215c0,0.554,0,0.831,0.83,0.831v0.83h-0.83
	c-0.554,2.492,1.938,2.215,2.215,3.876c-1.385-0.554-3.6-4.152-4.707-2.491c4.153,2.491,6.091,7.198,10.521,9.413h0.83
	c0,0.831,0.554,0.831,0.831,1.662c3.046-0.555,4.153,1.107,5.261,2.491v1.661c6.091,4.707,10.521,11.075,17.442,14.951
	c2.215,4.153,5.538,7.199,9.137,10.244c2.215,0,3.323,3.046,5.261,0.831C225.651,526.157,223.713,525.326,222.052,523.942
	 M211.807,541.385c-0.831-1.107-1.938-1.661-3.046-2.215c-1.107-3.046-4.983-3.322-6.922-5.537c0-0.831-0.83-1.107-1.384-1.661
	c-0.831-3.046-4.153-3.6-6.092-5.538c-1.384-2.769-4.153-3.876-6.922-5.537c-3.876-1.938-4.706-6.646-8.306-8.583
	c-0.277-1.107-0.831-1.661-2.215-1.661c-1.107-3.322-4.707-4.431-6.646-6.922c-0.83-3.6-4.152-4.43-6.645-6.368
	c-1.385-1.938-3.322-3.322-5.261-4.707c-2.769-2.215-5.537-4.153-7.476-7.198c-1.661-3.046-4.983-4.431-7.476-6.368
	c-0.554-1.661-2.769-1.938-3.876-3.046v-0.83c-2.215,0.276-2.215-1.662-4.707-1.662c0.277,1.385-0.83,1.662-0.83,3.046
	c3.045-0.83,3.322,1.385,4.43,2.492c1.107,1.384,2.215,2.769,3.876,3.876c1.938,2.769,3.046,6.091,6.645,6.922h0.831
	c2.492-0.277,2.492,1.661,2.215,3.876h1.661c1.938-0.554,2.769,0.277,2.215,2.492c4.431,2.491,4.431,9.413,12.183,8.583
	c0.554,2.769,2.215,4.43,3.6,6.091h0.83c0,0.554,0,0.831,0.831,0.831c0.83,4.153,5.261,4.43,6.645,7.752
	c2.492-0.276,1.938,2.215,3.877,2.492c0.83,0,0.83,0.554,1.384,0.83c2.215,2.77,4.983,4.707,8.307,6.368v1.661
	c4.152,4.707,8.583,8.86,13.566,12.46c3.6,0.276,4.153,3.599,6.922,4.707c0.276-0.554,0.554-0.831,1.661-0.831
	C216.237,543.599,213.469,543.046,211.807,541.385 M159.756,497.362c0.83-1.385-1.108-1.385-1.385-4.153
	C158.647,495.701,160.586,495.977,159.756,497.362 M313.696,508.437v-2.492c-2.492-1.107-3.046-4.153-6.368-4.707
	c-1.107-1.384-4.983-1.938-4.707,0.277c2.492-0.277,5.261,3.599,6.646,4.152C310.096,506.775,312.035,510.375,313.696,508.437
	 M302.344,514.528c0,1.385-1.661,0.831-1.385,2.492c0.554,0,0.831,0.554,1.385,0.554h0.554c1.384,0.276,3.046,5.813,5.261,5.26
	c1.384,2.216,3.599,0,2.491-2.491C308.435,520.065,305.113,515.082,302.344,514.528 M47.622,485.733
	c2.769,4.153,8.583,9.137,12.183,10.244c2.215,3.6,5.261,6.646,9.137,8.583c0.277-0.83,0.831-1.107,1.661-1.384
	c-1.107-3.6-4.153-5.538-6.645-7.753c-1.661-1.938-3.046-4.707-6.092-5.537c-3.045-0.277-3.045-3.046-5.261-3.876
	c-3.322-2.492-6.921-4.984-9.69-7.753c-2.491-1.107-4.152-3.045-6.922-3.876c0,1.938,1.385,2.769,2.216,3.876
	c3.045,0.831,3.322,4.984,6.922,5.538v0.83C45.961,484.626,46.514,485.179,47.622,485.733 M300.683,523.388
	c-2.492,2.215,5.537,3.045,5.537,4.983c0-0.831,0.831-0.831,0.554-1.938C305.943,525.05,302.067,521.173,300.683,523.388
	 M201.84,543.323c-0.83-0.277-1.661-0.831-2.215-1.661c-1.661-1.107-2.769-2.77-4.43-3.877c-0.277-0.554-0.554-0.83-1.661-0.83
	c-0.831-1.107-1.938-1.661-3.046-2.492c-0.831-2.491-2.769-3.876-4.43-5.537c-1.661,0-0.831-2.215-3.046-1.661
	c-0.831,0-0.831-0.554-1.385-0.831c-1.107-2.769-0.276,2.215-1.661,1.385c-0.276-1.107,1.107-3.876-0.554-3.876
	c-0.83-1.662-2.215-3.046-3.876-3.877c-1.385-1.107-1.385-3.599-3.876-3.876c-4.43-3.046-7.476-8.029-12.736-10.244
	c-2.492-2.769-6.091-4.707-9.137-7.199v-1.661c-3.046-2.215-4.707-5.813-9.137-7.198c0.276-2.492-3.046-3.876-4.43-2.492
	c-0.277,1.385,0.83,1.661,0.83,3.046h1.661v0.831c2.769,0.276,1.938,4.43,5.261,3.876c1.107,0,0.554,1.384,1.385,1.661
	c0.83,0,1.938,0.276,1.384,1.661c1.107,7.752,10.244,7.752,13.567,13.29c-9.414-6.092,9.137,6.645,8.306,10.244
	c4.153-0.277,3.876,3.6,6.922,4.707c0,0.83,1.107,0.83,2.215,0.83c0.831,0,0.831,0.554,1.661,0.831
	c1.661,1.661,2.769,3.876,5.261,4.707v0.83c4.43,3.322,8.029,7.476,12.736,10.244c1.107,0.831,0.83,3.322,3.046,3.046
	C200.732,547.199,204.054,544.707,201.84,543.323 M236.172,410.425l0.554,2.491c2.492,2.492,8.583,4.707,11.629,4.707
	c4.153,2.492,9.968,6.368,13.566,7.476c1.385-0.554,1.661-2.215,2.769-3.046v-1.384c-9.967-3.323-16.612-9.69-28.24-11.629
	C236.172,409.594,236.172,409.871,236.172,410.425 M298.745,528.372c-0.276,0.554-0.554,0.83-1.385,0.554
	c-0.554,1.938,0.831,1.938,1.938,2.492v0.554c0.831,0,3.322,1.661,4.153,1.661C303.728,531.971,300.13,526.987,298.745,528.372
	 M236.172,335.946c-1.384,0-1.938,0.554-2.215,1.384c1.938,0.277,1.385,2.769,3.876,2.492
	C237.556,337.884,236.449,337.33,236.172,335.946 M57.036,329.854c7.476,5.814,10.798,15.782,19.657,20.488
	C70.88,343.421,64.511,332.9,57.036,329.854 M69.219,488.502c-1.385,0-2.492-0.276-3.046-0.83c-0.277-0.831-0.831-1.107-1.661-1.661
	v-0.831c-1.107-0.83-1.385-2.215-3.046-2.492c-1.938-2.491-4.153-4.706-7.476-5.537h-0.83v-0.83
	c-2.216-1.661-4.984-2.77-6.092-5.538h-1.661c-0.276-0.554-0.554-0.83-1.385-0.83c-3.045-4.707-8.306-6.922-12.182-11.075
	c-0.831,0-0.831-0.554-1.385-0.83c-6.091-5.538-11.905-11.075-18.827-15.782c-0.831-1.385-1.661-3.046-3.876-3.046
	c-0.831,2.492,1.107,2.492,1.384,3.877c1.385,3.876,4.984,5.26,7.476,7.752c2.215,2.215,4.431,4.153,6.922,6.368
	c1.938,2.215,5.261,2.769,7.476,4.707c0.554,1.938,0.831,3.599,3.046,3.876c2.491,2.769,6.091,4.707,9.137,7.198
	c3.046,4.984,9.69,6.646,14.397,10.245c1.661,1.661,3.322,3.322,6.091,3.876c1.661,2.215,1.938,5.814,5.261,6.368h2.215
	c0-1.107,0.277-1.661,0.831-2.215c-1.107,0-1.107-1.108-2.215-0.831C69.772,489.886,68.941,489.609,69.219,488.502 M31.841,473.828
	c2.769,0.276,3.876,1.661,3.876-2.215C33.502,471.336,31.563,471.336,31.841,473.828 M191.042,545.538
	c-3.876-1.938-6.645-5.261-9.69-7.753c-0.831-0.83-0.277-2.769-2.215-2.491c-0.277-2.492-3.046-2.492-3.876-4.707h-1.662v-0.831
	c-1.107-0.554-1.938-1.107-3.045-1.661c-0.277-2.215-3.046-2.215-4.431-3.045c-1.938,0.276-0.83-2.216-2.215-2.216
	c-0.554,0-0.83,0-0.83-0.83v-0.831c-1.938-1.384-4.43-2.215-6.092-3.876c0-1.107-1.384-0.83-1.384-1.661
	c-0.277-0.831-0.831-1.661-2.215-1.661c-1.661-2.492-2.215-0.831-3.046,0.83c-0.831-0.276-1.107-0.83-1.385-1.661
	c-0.276-2.491,1.938-3.045-0.83-3.876c-1.661-0.276-1.385-2.769-3.876-2.492v-2.215h-2.216c-3.322-2.491-3.876-7.198-9.967-7.198
	c-2.215,2.492,5.261,1.938,3.6,6.091h1.661c1.661,4.153,7.476,4.431,7.476,10.244c2.491-0.276,3.045,1.107,3.876,2.492
	c2.492,2.215,4.983,4.707,9.137,5.537c0,0.554,0,0.831,0.831,0.831c2.215,2.492,4.43,4.707,6.645,6.922
	c0.554,0.276,1.385,0,1.385,0.83c1.107,1.938,3.045,3.323,5.26,3.877v0.83c2.215,1.938,4.431,3.876,7.476,4.707h0.831v3.046
	c1.384,2.769,3.6,4.706,6.922,5.537c0.83,0.277,1.107,0.831,1.384,1.661v0.831c2.215,1.661,6.368,0.276,5.538-3.6
	C191.873,547.753,192.427,545.538,191.042,545.538 M29.626,469.121c-2.77-2.215-4.707-5.537-8.307-7.198
	c-2.215-3.046-10.521-11.075-12.183-7.199c1.385,2.215,3.046,4.153,6.092,4.707c0,1.107,0.83,1.107,0.83,2.215
	c1.661,1.661,6.646,6.646,10.521,8.583h0.83c0.554,0.831,4.984,1.661,5.261,0C31.563,470.506,32.117,468.291,29.626,469.121
	 M140.374,465.245c0,0.554,0,0.831-0.83,0.831c0-0.555-0.554-0.831-0.831,0c0.831,1.107,3.046,1.107,3.046,3.045
	c1.661,0.554,3.322-2.769,1.661-3.045c-0.276,0.276-2.492,1.107-3.046,0C140.651,466.076,141.205,465.521,140.374,465.245
	 M316.465,498.746c0-1.107-0.554-1.661-1.384-1.938c-1.385-2.215-10.245-4.43-11.906-6.646h-2.491
	c0.276,3.046,9.137,5.538,10.521,7.199c1.107,0.554,0.831,1.938,2.492,1.938c1.661-0.555,1.385,1.384,2.492,1.384
	c0,0.554,0.554,0.831,0.554,1.385h1.938v-3.877h-1.384C317.296,498.192,317.018,498.746,316.465,498.746 M184.12,504.007
	c0-1.384-0.554-1.938-1.385-2.215c-1.107-1.938-2.769-3.322-4.43-4.707c-2.769-2.491-5.814-4.43-8.306-7.198
	c0-0.554,0-0.831-0.831-0.831c-2.492-1.384-4.153-6.645-6.922-5.537c-1.107,0-0.554-1.385-1.384-1.661
	c-2.215-1.661-3.877-3.876-6.092-5.537c-1.938-2.77-6.091-3.046-6.645-6.922c-2.215,1.384-2.215,0.554-3.876,1.384
	c0.83,0,0.83,1.107,0.83,2.215h0.831c3.876,3.877,6.368,8.86,12.182,11.075c0,0.554,0,0.831,0.831,0.831
	c1.938,2.491,3.876,4.983,6.922,6.368h0.83c2.77,6.367,7.199,6.367,11.353,11.074v-1.661c0-0.83-0.554-0.83-0.831-1.661
	c1.938,0.277,1.385,3.322,3.046,3.876c0.83,0,2.215,0,2.215,0.831c-1.938,3.046,4.707,4.43,6.091,6.922v-1.661
	c1.107,0.83,1.385,2.215,2.215,3.045c0.277,1.107,1.108,1.938,2.216,2.216c0,0.554,0,0.83,0.83,0.83
	c2.215,2.769,1.938,7.753,6.646,7.753c1.938,0.276,1.384,2.769,3.876,2.491c1.938,3.322,4.983,5.261,7.476,7.753
	c1.384-1.385,0-1.107,0-3.046c1.107,0,0.554,1.938,2.215,1.661c1.938-3.6-3.876-5.814-6.645-6.922c-1.108,0.277-1.385,0.831-2.216,0
	c-0.276-1.107-1.107-1.938-2.215-2.215c-1.938-1.938-1.107-2.492,0-4.707c-2.491,0.554-2.215-1.384-3.876-1.661
	c-3.876-2.769-5.814-6.922-10.521-8.583c-0.276-1.107-2.491-0.83-1.384-3.046C185.505,504.838,184.674,504.284,184.12,504.007
	 M177.752,546.092c-3.046,0-3.046,0-2.215-2.215c-2.215,0.276-2.215-1.661-4.707-1.661c-0.276-0.831-0.83-1.661-1.384-2.215
	c-0.554-1.938-2.215-2.77-3.877-3.877c0-0.554,0-0.83-0.83-0.83c-2.769-1.661-6.368-2.769-7.476-6.368h-2.215
	c-0.554-1.938-1.938-3.876-4.43-3.876c-3.6-3.6-8.029-6.368-12.183-9.137v-0.277h-0.554c-0.277-0.276-0.554-0.554-1.107-0.83
	c-0.554-2.77-3.877-2.77-5.261-0.831c0.276,2.492,2.215,3.322,3.6,4.707c0,0.83,1.107,0.83,2.215,0.83v0.831h2.215
	c0,1.107,0.276,1.661,0.83,2.215c-1.107-0.276-3.045-3.322-3.876-1.661c4.707,3.322,7.199,4.983,13.013,6.368
	c0.831,3.322,4.984,3.6,6.922,6.368c4.153,3.045,6.646,7.476,11.353,10.244c2.215,0.276,1.938,2.492,3.876,3.046
	c0.83,3.045,3.876,3.876,7.476,4.152c-0.554-2.215,1.107-1.938,0.83-3.876C179.136,546.645,179.136,545.814,177.752,546.092
	 M167.23,541.108c-0.554-1.661-6.091-3.046-2.215-4.707C166.4,537.509,169.169,539.17,167.23,541.108 M129.022,454.447
	c1.107,4.153,6.092,10.244,9.968,7.198C137.052,457.769,133.452,455.831,129.022,454.447 M158.647,543.323
	c-1.107-0.831-1.938-2.215-3.876-2.492c-2.769-2.215-4.983-5.261-9.137-6.368c0-0.554,0-0.83-0.83-0.83c0-0.554,0-0.831-0.831-0.831
	c-0.554-3.6-8.029-8.029-9.968-5.537c0.555,3.599,3.877,4.706,6.092,6.922h2.492c-0.277,1.661,0.554,2.491,2.215,2.215
	c0.276,0.83,0.83,1.107,1.384,1.661c1.385,2.215,3.876,3.876,3.6,5.537c1.385-1.938,1.938,3.046,4.43,2.492
	c3.046,0.83,6.092,5.261,8.307,4.153c2.215,0.83,1.384-1.661,1.661-3.046C160.863,547.753,161.693,543.599,158.647,543.323
	 M157.817,553.29c-0.831,0-0.831,0.554-1.661,0.831c0.83-2.492-1.938-1.661-2.215-3.046c-1.938-3.046-6.092-3.876-9.137-5.537
	c0-1.938-2.77-1.385-3.877-2.492c-2.769-0.83-3.876-3.322-6.922-3.876v3.876h0.277c1.107,4.707,9.968,6.368,13.566,10.244
	c4.984,0,5.261,4.431,9.137,5.538C158.647,558.551,162.801,553.013,157.817,553.29 M166.123,331.515
	c1.938,2.215,4.984,3.322,6.922,5.538c0.554,1.661,2.216,2.215,3.877,3.045c2.769,3.322,6.367,5.814,10.521,8.029
	c1.938,3.876,6.368,5.261,9.69,7.753c6.092,3.322,9.414,9.137,15.229,12.736c1.938,1.384,3.045,3.599,5.261,4.706
	c0.83,0,0.83,0.554,1.661,0.831c5.537,1.107-1.661-6.092-3.6-6.922c-1.661-1.385-3.876-2.215-6.091-3.322
	c-2.492-0.277-2.216-3.322-4.431-3.877c-1.384-2.215-3.045-3.876-5.26-5.537h-1.662c-1.661-2.215-3.599-4.43-6.091-6.368h-0.831
	c-0.83-0.276-0.83-1.384-0.83-2.215c-4.43-0.276-4.43-4.707-8.307-5.537c-2.491,0.554-1.107-2.492-3.045-2.492
	c-1.107-1.384-4.707-4.43-5.261-3.876c-2.769-0.277-2.769-2.769-5.261-3.322c-3.046-4.707-8.306-6.922-13.566-9.414
	c0.276-1.938-1.107-2.492-1.385-3.876h-1.661v-0.831c-3.876-0.83-4.43-4.706-9.137-4.706h-0.831c0-1.108-0.83-1.108-0.83-2.216
	c-1.385,0.277-1.938-1.107-2.215,0c1.938,1.385-1.661-1.107-1.661,1.385c4.152,1.938,6.645,5.814,10.521,8.029
	C154.495,322.379,158.925,328.47,166.123,331.515 M339.999,443.095l-0.276-0.277c-10.521-7.476-22.427-13.29-33.778-19.935
	c0-0.554-0.554-0.831-1.385-0.554c-1.385-1.107-2.492-2.215-4.43-2.769c-9.414-6.092-19.382-11.353-29.349-16.89
	c-0.554-1.107-1.938-1.107-3.322-1.384v-0.554c-1.661-0.277-1.661-2.216-4.431-1.385c-0.554,1.938-0.554,1.938,0,3.876
	c-1.107-0.276,0,2.492,1.385,1.938c-0.276-1.661-0.276-3.322,1.938-2.492c0,0.831-1.107,0.554-1.385,1.385
	c0.831,0.276,1.107,0.83,1.385,1.384c0.554,3.046,5.537,1.938,6.368,4.707c3.322,1.938,6.921,3.876,10.798,5.537
	c3.876,1.108,5.261,4.707,9.69,5.261c0.554,0.831,1.661,1.385,2.491,1.938c4.431,2.769,9.138,5.261,14.121,7.476
	c0.554,1.938,3.322,1.384,4.43,2.769c2.492,2.492,7.476,2.492,9.69,5.261c0.277,0.83,1.385,0.83,1.938,1.384
	c1.938,1.385,3.876,2.492,6.368,3.323c0,0.554,0.554,0.83,0.554,1.384c3.045-0.554,3.322,1.661,5.261,1.938
	c0.276,1.107,0.83-0.277,1.938,0c0.554-0.554,2.492-0.277,1.938-1.938C341.106,443.926,340.552,443.649,339.999,443.095
	 M330.308,462.753c0.554,0.277,2.215,2.769,2.492,1.385c1.938,0.554,2.491-0.554,3.876-0.554c0.276-1.385-0.554-1.938-1.938-1.938
	c0.277-1.938-1.661-1.661-2.491-2.769c-1.385-1.661-3.6-2.769-5.814-3.876c0-1.938-3.046-0.831-3.876-1.938
	c-5.538-3.876-11.629-6.922-17.997-9.967c0-0.277,0-0.831-0.554-0.554c-4.707-2.492-8.86-5.538-14.12-7.476
	c-4.984-2.77-9.414-5.814-15.505-7.476c-3.6-0.831-4.707-4.153-9.69-3.323v3.323c5.26,2.769,9.69,5.813,14.95,6.368
	c0.277,0,0.277,0.276,0.554,0.276v-0.276c0.555,0,1.108,0.276,1.938,0.276c-1.661,1.938,3.046,1.385,3.046,3.322
	c-0.554,0.831,3.322,2.769,5.814,2.769c0,1.662,2.491,1.107,3.322,1.938h1.938c-0.276,2.492,3.046,1.661,3.877,3.322
	c2.491,2.492,5.537,4.153,8.859,5.261c1.938,0,2.215,1.661,4.43,1.385c0.831,2.215,3.877,2.491,5.814,3.876h0.554
	c3.046,1.661,5.538,3.6,8.307,5.261c0,0.83-1.661,0.554-2.492,0.554c-4.707-1.661-8.029-4.431-12.736-6.092
	c0-0.83-1.107-0.83-1.938-0.554c0-0.276,0-0.83-0.554-0.554c-2.492-1.384-4.707-2.491-6.922-4.152h-0.554
	c-1.107-1.385-2.215-2.492-4.43-2.77c-1.107,0-21.043-10.521-21.319-9.69c-1.938,1.661,3.045,7.476,5.814,6.646
	c0,1.107,16.612,10.244,17.166,10.798h1.938c0.831,0,1.385,0.276,1.938,0.554h0.554c2.492,1.107,4.153,3.046,8.306,2.769
	c0,1.107,0,2.215,1.385,1.938h0.554c0,1.938,3.322,0.83,3.322,2.769c2.492,1.938,8.86,4.707,12.736,7.476
	c0.277-2.215,5.537-2.215,3.322-4.43c-0.554,0-0.83-0.554-1.384-0.554h-0.554c-0.277-0.831-1.385-0.831-1.938-1.385v-0.554
	C329.477,464.137,329.477,463.03,330.308,462.753 M202.947,296.076c1.938,0,2.492,1.107,3.046,2.492h1.661
	c4.153,4.43,9.137,11.905,14.397,12.459c-3.322-3.876-4.983-9.137-10.521-11.075c-1.107-1.661-2.215-2.769-3.876-3.876v-0.831
	c-2.215-1.938-6.091-6.091-9.137-4.706v1.661C200.455,293.03,200.178,296.076,202.947,296.076 M195.195,376.646
	c-1.938-1.385,0.83,2.491,1.384,3.045c1.938,3.6,4.153,7.199,9.137,8.029c0.554-3.045-3.045,0.554-3.876-2.491
	c3.322,0.276,0-3.877-0.554-4.707c-0.554-2.492-3.876-6.092-6.091-4.707c0.83,0,0.83,0.554,1.384,0.831
	C196.579,377.476,196.025,376.923,195.195,376.646 M324.771,471.889c-7.753-3.322-28.241-16.889-37.932-16.612
	c0,0.831,0.276,1.385,0.554,1.938c0,0.554-0.554,0.831-0.554,1.385c1.938,0,1.938,1.938,4.43,1.384
	c0.277,0.554,0.554,0.831,1.385,0.554c0.83,0.277,13.844,8.029,14.674,8.307c1.385,1.384,3.046,2.215,4.983,2.769
	c4.707,0.554,6.646,3.6,10.245,5.261c1.107,2.215,1.661,1.384,3.876,1.938c0-2.215,2.491-2.215,2.769-4.43
	C328.647,472.997,326.709,472.443,324.771,471.889 M325.601,474.935h3.322C327.54,475.213,326.709,474.935,325.601,474.935
	 M190.764,295.799c1.385,1.385,1.385-0.554,3.877,0v0.831c-1.661,1.938,2.769,4.43,4.43,5.537c1.107,3.046,4.153,8.029,7.476,6.368
	c-1.385-0.83-1.661-2.491-1.385-4.706c-3.322,0-4.152-2.492-6.922-3.323v-0.83c0-2.216-3.322-1.385-3.045-3.877
	c-1.661-2.769-4.153-4.43-6.646-6.368h-0.83c-0.554-1.107-1.107-2.491-3.046-2.491C181.905,291.923,187.996,293.861,190.764,295.799
	 M136.498,386.89c8.583,6.091,16.89,16.335,25.749,19.657C153.941,400.457,145.358,390.489,136.498,386.89 M143.697,308.535h0.83
	c4.983,1.661,7.199,5.538,11.352,8.029c2.492,0.277,2.769,3.046,5.261,3.323v-0.831c1.107,0,1.661-0.277,2.215-0.831
	c0,1.108-0.276,1.662-0.83,2.216c0.554,1.107,1.107,2.491,3.045,2.491c3.046,0.554,2.77,3.876,6.092,3.876
	c1.661,0.277,1.384,1.938,2.215,3.046h2.215c1.661,0,0.831,2.215,3.046,1.661v0.831c0.554,1.107,3.045,0.276,3.045,1.661
	c2.216,2.769,6.922,5.814,9.137,6.368c0.277,0.554,0,1.384,0.831,1.661v0.83c6.645-0.83,4.707,6.922,11.352,6.368v2.215h0.831
	c1.107,1.938,4.153,2.216,5.261,3.877c0.276,2.769,4.152,2.491,5.26,4.706c0.554,1.385,2.77,1.385,3.046,3.046
	c1.107,1.661,1.938,3.6,4.43,3.876c0-1.384,0.554-1.661,1.662-0.83c0.276,0.554,0.554,0.83,1.661,0.83
	c1.938,1.938,2.491-2.215,4.706-1.384c-0.276-4.153-1.384-7.199-5.26-7.753c-0.831,0-0.831-0.554-1.385-0.83
	c0-1.107-0.277-1.661-0.831-2.215c1.107-1.938-3.599-1.938-0.83-3.046c1.661-0.554,1.107-5.537-1.385-4.707
	c-2.491-1.384-3.599-4.153-6.091-5.537c-1.938-3.322-6.368-3.876-9.137-6.368c-3.876-4.707-8.86-8.583-13.567-12.459
	c-2.769-4.984-8.583-7.476-12.182-11.629c-2.215-3.322-7.476-3.876-9.137-7.752v-0.831c-3.323,0.554-3.046-2.492-5.261-3.322
	c-1.107,0-0.554-1.938-2.215-1.662c-3.046-2.769-5.261-6.645-9.69-8.029c-2.492-2.215-7.199-2.215-6.646-6.921h-3.045
	c0,2.769,2.769,3.322,3.045,6.091c2.769,0,5.261,0.554,5.261,3.322c3.6,3.6,5.814,8.307,11.352,10.244
	c0,0.831,1.107,0.831,2.215,0.831c3.323,3.6,6.646,7.198,11.353,9.414c4.706,3.322,8.306,7.752,12.735,11.074
	c1.385,3.877,6.922,3.877,8.307,7.753c3.046,3.599,5.814,7.476,10.521,9.413c2.491-0.554,2.215,1.385,3.876,1.661
	c0.276,0.831,0.83,1.662,1.384,2.216c0.831,1.938,3.046,2.769,3.877,4.706c-0.554,0-0.831,0-0.831,0.831
	c-6.368-2.215-8.306-8.583-14.397-11.075c0-1.384-2.492-0.554-3.046-1.661c-1.107-2.215-3.045-3.6-4.43-5.537
	c0.554-0.277,1.661,0,1.661-0.831c-1.107,0-1.661,0.277-2.215,0.831c-1.938,0.276-1.661-1.385-3.876-0.831
	c0.276-2.491-0.831-3.599-3.046-3.876c-1.107-0.831-1.938-2.215-3.876-2.492c-1.938-2.491-5.261-3.322-7.476-5.537h-0.831
	c-3.045-1.938-4.983-4.707-9.137-5.537c-2.769-1.938-5.813-3.6-8.306-5.538c-4.153-2.769-4.983-8.306-12.183-8.029
	c0.277-4.43-3.322-5.261-6.091-6.922c0.83,2.769,1.661,8.307,9.137,8.583c0,0.554-0.277,0.831-0.831,0.831
	c0.277,0.554,0,1.385,0.831,1.661c-0.277,1.385,1.107,1.938,0,2.215c-0.277-0.554-0.554-0.83-1.661-0.83
	c-2.215,0.554-1.938-1.107-3.876-0.831c0.276-1.661-4.153-2.492-4.707-0.83C140.927,304.659,141.205,307.705,143.697,308.535
	 M159.201,295.245c-1.107-0.83-2.491-1.661-3.876-2.491c-0.276,0.554-0.276,0.83,0,1.107c-0.276-0.277-0.276-0.554,0.277-1.107
	C156.71,293.584,158.094,294.137,159.201,295.245L159.201,295.245z M206.547,345.913c4.43,1.661,7.476,4.983,10.521,8.029
	c1.938,1.661,3.045,4.153,5.26,5.537c-0.276,0.554-0.554,0.831-1.661,0.831h-1.661c-1.384-1.661-2.769-3.322-5.261-3.876h-1.661
	c-0.276-1.107-1.107-1.938-2.215-2.215c-0.276-1.661-1.938-1.661-2.215-3.046c-0.831-1.938-2.492-3.046-4.43-3.876v-0.831
	c-2.215-0.276-3.6-1.661-3.877-3.876C203.224,342.313,203.778,345.359,206.547,345.913 M187.719,330.962
	c1.107,0,0.554,1.938,2.215,1.661v1.661c-0.554,0-0.831,0.831-1.661,0.831h-3.046c-0.276-3.046-2.492-4.153-3.6-6.368
	C184.12,329.024,184.397,331.515,187.719,330.962 M42.638,367.232c-1.661-1.938-2.492-4.707-5.261-5.537
	c1.385,5.26,5.814,7.476,9.137,11.074c2.492,0.277,3.046,6.646,6.091,3.877C48.729,373.877,46.514,369.724,42.638,367.232
	 M192.98,453.34c1.107,0.276,1.384,1.384,2.215,1.661c2.769,1.938,4.707,4.983,7.476,7.198h0.83c0.554,0,0.831,0.277,0.831,0.831
	c0.276,1.107,1.661,0.83,2.215,1.661c1.938,0.83,2.215,3.322,4.43,3.876c4.153,3.876,5.814,10.521,13.567,11.075
	c0-1.385-0.554-1.938-1.385-2.215c-2.215-3.046-4.707-6.092-7.476-8.583h-0.831c-1.107-3.323-3.876-4.707-6.921-6.368
	c-0.831-2.492-4.984-1.938-5.261-4.707c-1.661,0.277-0.831-2.215-2.215-2.215c-0.277-1.107-1.108-1.385-1.385-2.215
	c0-0.831-1.385-1.107-1.661,0c-0.831-0.554,0.276-2.492-2.215-3.046c-1.107-2.492-4.707-2.492-6.092-4.707
	c-0.276-2.215-1.661-3.599-3.876-3.876c-2.215-2.769-3.322-1.385-6.922-2.492c-0.83,2.492,1.107,2.492,2.215,3.046
	c1.385,0.831,1.385,2.492,3.046,3.046c0,1.107,1.938,0.83,3.046,0.83c1.661,3.322,5.261,4.984,8.306,7.199
	C194.918,455.277,192.703,450.847,192.98,453.34 M137.883,399.903c3.876,3.046,7.198,6.645,12.182,8.583v-1.661
	c0.277-0.554,0.555-0.831,1.662-0.831c1.384,0.831,2.215,1.938,3.876,2.492c-4.43-5.537-11.352-12.736-18.273-13.566
	c0.83,1.107,2.769,1.384,3.876,2.491c2.492,3.046,2.215,3.323-1.661,1.385C138.713,399.349,137.883,399.349,137.883,399.903
	 M167.785,292.2c0.83,1.107,1.938,1.661,3.045,2.491c0,0.554,0,0.831,0.831,0.831c1.661,3.6,7.476,2.769,9.137,6.368
	c3.6-1.107,3.046,2.215,4.43,3.046c1.385,2.215,3.876,3.599,6.922,4.706v0.831c1.385,1.107,2.769,2.492,3.876,3.876
	c1.107,0.831,3.046,0.554,2.215,3.046c0.831,0.276,2.216,0,2.216,0.83c0.554,1.108,1.107,1.938,2.215,2.492
	c0.83,3.046,4.706,3.6,6.091,6.368c1.938-0.277,0.554,3.046,3.046,2.492c0.83,1.384,1.384,3.045,3.876,3.045
	c1.107,1.938,1.661,4.431,4.43,4.707v0.831c1.107,0.276,1.385,1.384,2.215,1.661c4.153,0.83,4.707,5.261,9.137,5.537
	c0-3.046-1.107-4.983-3.599-5.537c-1.107-1.661-3.046-2.492-4.431-3.876c-2.491-3.877-6.645-6.368-10.521-8.583h-0.831
	c-1.107-3.046-3.045-4.984-6.091-6.368c-0.831-0.277-1.107-0.831-1.385-1.661c-0.554-3.046-3.322-3.6-5.261-5.538
	c0.277,0.277,0.277,0.831,0.555,1.107c-0.277-0.554-0.277-0.83-0.555-1.107l-0.83-0.83v-0.831c-1.385,0-2.492-0.554-3.046-1.661
	c0-1.107-1.938-0.554-1.384-2.215c-1.385-1.938-3.046-3.6-6.092-3.876c-0.554,0-0.83-0.277-0.83-0.831
	c-1.661-4.43-6.368-5.814-9.69-8.583c-3.6-2.492-8.029-4.153-10.521-8.029C161.693,283.893,163.908,292.754,167.785,292.2
	 M292.1,331.239c0.276,2.215-0.277,3.599-0.831,5.261h2.492c0.83,1.661,4.43,0.83,5.814,1.938v0.554
	c4.706,2.769,12.459,8.86,16.612,8.029c0.276,0.831,0.83,1.385,0.554,2.492c0.83,0,2.491,0.276,2.491-0.554
	c0.831-0.277,1.661-1.107,1.938-1.938c-2.492-0.83-4.707-2.215-6.368-4.153c-3.876-1.661-6.922-3.876-10.798-5.537
	C300.96,335.391,295.423,334.284,292.1,331.239 M290.993,364.186c2.215,1.938,3.876,0.277,5.813,1.938c0,0.276,0,0.83,0.554,0.554
	c0.831,0.83,3.046,0.554,3.877,1.384c0.554,0,0.83-0.554,1.384-0.554c4.431,6.092,13.567,7.753,18.551,13.29h2.492
	c1.384,3.046,5.537,3.322,6.367,6.646c2.77,0.276,4.707-0.277,5.261-2.492c-3.876-4.153-9.137-6.922-14.12-9.968
	c-1.385-1.107-2.492-2.215-4.43-2.769c-3.046-2.769-7.199-4.43-10.799-6.645v-0.554c-1.661,0-3.045,0-3.876-0.831
	c0-0.276,0-0.83-0.554-0.554c-2.769-1.938-5.261-4.153-10.244-4.153C290.993,361.141,290.993,362.802,290.993,364.186
	 M302.067,355.327c-3.045-0.831-4.983-2.769-7.752-4.153c-0.277,0.83-1.107,1.661-1.385,2.492c1.107,1.661,4.43,1.384,4.983,3.322
	c-3.045-0.277,7.476,3.876,6.922,5.261c0.277-0.554,0.554-0.831,1.385-0.554c-0.277,1.938,3.046,0.554,3.322,1.938v0.554
	c4.43,3.046,24.919,10.521,37.378,23.258c1.661-0.831-3.046-3.877-2.769-6.368c-10.798-9.137-19.381-14.951-21.597-15.229h-0.554
	c-1.938-1.384-17.442-10.244-12.735-6.091c-1.938-1.107-3.323-2.215-4.984-3.322C303.728,355.881,302.621,356.157,302.067,355.327
	 M302.344,346.467c-2.215-1.384-3.322-3.876-7.753-3.322v1.385h-0.554c-1.938,2.215,2.215,3.045,3.876,1.938
	c2.77,4.153,6.092,3.6,9.691,6.646c1.938,1.938,4.983,2.769,6.921,4.706c2.492,1.107,0-1.107,6.646,3.6
	c-0.554-1.385,2.769,0.831,4.707,0.831c0-0.831,0.554-1.938-4.431-5.261C315.081,352.281,308.989,350.066,302.344,346.467
	 M296.253,324.317c-0.554-1.385-3.599-0.277-5.26-0.831c0.83,1.661-1.938,2.769,0,3.322h2.491c1.385,1.662,3.6,2.492,6.368,2.77
	c1.385,1.384,3.322,1.938,4.983,2.769c1.385,1.107,3.046,1.107,1.938,3.322c3.322,0.831,5.261,0.831,5.814-2.492
	c-1.385,0-0.831-1.661-2.492-1.384c-2.215-2.215-5.537-3.6-8.306-5.261C299.576,326.255,297.914,325.147,296.253,324.317
	 M282.133,381.63c2.215-1.107,2.492,0.276,4.43,0.83c1.385,0.554,1.938,3.323,4.984,3.877h1.938c3.6,2.215,7.753,4.43,11.629,6.645
	c2.492,2.215,5.537,3.876,8.859,5.261c2.492,0.554,3.046,5.814,4.984,4.707c0-1.107,0.554-1.385,1.938-1.385
	c-0.554,2.769,0.831,3.322,3.046,3.322c0.277,0.554,0,1.385,0.554,1.385c0,0.83,1.107,0.83,1.938,0.554
	c1.107,0,1.384,0.83,2.491,0.83v0.554c0.277,1.385,1.661,1.385,2.492,0.555c0,3.322,3.046,3.599,5.814,3.876
	c1.107-0.831,3.322-3.322,0.83-3.876c0-0.831-0.83-0.831-0.554-1.938c-1.384,0.276-2.769,1.107-3.876,0
	c-1.384-0.554-1.384-2.492-3.046-2.769c-0.83-2.492-3.876-2.769-4.983-4.707c1.385-2.215,5.814,2.215,8.307,2.769
	c1.107-0.554,1.107-1.938,1.384-3.322c-0.83-0.554-2.491-0.554-1.938-2.769c0.83,0,1.661-0.277,1.384-1.385
	c-0.83,0-1.384-0.276-1.938-0.83c-0.554,0-0.831-0.554-1.385-0.554c-0.554-1.662-2.492-1.662-3.876-2.77
	c-4.707-2.769-9.137-6.091-14.675-8.029c-0.83-1.661-3.599-1.661-5.26-2.769c-1.385-0.83-1.938-2.215-4.431-1.938
	c-1.384-0.831-2.215-1.938-4.43-1.938c-0.554-1.661-3.322-0.831-4.43-1.938c-1.385-0.554-1.938-1.938-3.876-1.938v1.938
	c0,1.107-2.216,0.277-1.938,1.938c1.107,0.276,1.661,1.385,3.322,1.385c0,0.83,1.107,0.83,1.938,0.554
	c1.384,1.661,3.876,2.491,6.368,3.322c1.661-0.277,1.384,1.107,3.322,0.83c1.107,1.107,1.661,2.77,3.876,2.77
	c4.983,4.152,14.951,6.367,17.166,9.967c0,0.831-0.276,1.938,0.554,1.938v2.491c-4.153-1.107-6.645-4.43-10.244-6.091h-1.385
	c-0.554-1.661-2.491-1.661-3.876-2.769c-1.661-1.385-3.876-2.215-5.814-3.322c-0.276-1.661-2.769-1.107-3.322-2.77
	c-0.83,0-1.384-0.276-1.938-0.554c-3.323-3.322-8.584-4.983-13.567-6.645c-0.83,0-1.938-0.276-1.938,0.554
	C281.302,377.754,282.41,380.245,282.133,381.63 M245.308,409.871c1.661,0.83,3.877,0.83,6.368,0.83
	c0,1.938,1.107,2.769,3.322,2.769c0.831,0.277,1.385,0.831,1.938,1.385c1.385,1.107,4.153,0.83,5.814,1.384
	c1.107,0.555,1.661,1.938,3.876,1.385c1.107,0,1.938,0.277,2.492,0.831c0,0.276,0,0.83,0.554,0.554
	c8.306,4.983,13.844,8.859,22.98,12.735h0.554c2.769-0.554,1.107-0.83,1.384,1.938c5.538,1.938,9.414,5.261,14.675,7.476
	c1.938,1.385,3.876,2.492,6.368,3.322c0,0.554,0.554,0.831,0.554,1.385c3.045-0.831,2.491,1.938,5.26,1.384
	c1.385,1.107,3.323,1.938,5.261,2.77h0.554c1.661-0.277,3.323,2.769,4.431,0.83c0.276-0.83,1.661-0.554,2.491-0.554
	c-6.645-7.476-19.381-9.137-27.41-14.674c-8.029-6.368-18.551-10.521-27.41-16.059c-0.277-1.661-2.492-1.385-3.876-1.938
	c-1.661-1.661-3.877-2.492-6.368-3.322h-1.385c-1.384-0.831-2.215-1.938-4.43-1.938c0-0.83-1.107-0.83-1.938-0.83
	c-1.384-1.385-3.599-1.938-5.814-2.769h-1.384c0-0.555-0.554-0.831-1.385-0.555c-1.938-0.276-4.153-3.599-6.368-1.384h-0.554
	C246.416,407.932,244.755,407.932,245.308,409.871 M230.911,320.441c-0.276-2.77-0.554-5.538-3.599-5.538
	c0.554-1.938-0.277-2.769-2.215-2.491c-0.277,2.491,1.661,3.045,2.215,4.706C228.42,318.503,229.527,319.61,230.911,320.441
	 M281.302,391.874c0,0.276,0,0.831,0.554,0.554c1.661,0.831,2.769,2.215,5.26,2.769c2.216-0.276,1.661,2.215,3.877,1.938
	c2.215,0.554,2.215,1.938,3.876,0c0.554,1.384,1.107,2.769,2.492,3.322c1.107,1.938,3.045,3.322,6.367,3.322
	c0.277,0.831,1.107,1.661,1.938,1.938c0.277,0,0.831,0,0.554,0.554c-0.276,1.661,3.046-0.277,1.938,1.938
	c0.83,0,1.384-0.276,1.938-0.554c0.554,1.108,1.385,1.938,2.492,2.77c1.661,2.215,5.261,2.215,6.922,4.152
	c0,0.277,0,0.831,0.554,0.554c0.83,3.046,6.091,1.938,6.922,4.707h1.938c0.831,1.107,2.77,1.661,3.046,3.322
	c2.215-0.554,2.769,0.554,3.876-1.938v-0.554h0.554c-0.554-3.046-3.322-0.831-4.983-3.323c0.277-1.661-0.831-1.938-1.938-2.769
	h-0.554c-1.661-0.83-3.045-1.938-5.26-2.769c-1.385-1.107-2.216-2.492-4.431-2.769c-3.045-3.6-7.752-5.261-12.182-7.476v-0.554
	c-1.662-0.831-2.77-1.938-4.431-2.769c-2.215,0.276-1.661-2.215-3.876-1.938c-3.046-2.491-6.922-4.43-10.798-6.091
	c-2.215-1.938-5.537-2.769-8.307-4.153c0-1.384-2.769-0.276-3.876-0.83c0,2.215-3.046,1.384-1.938,4.43
	C277.426,390.213,279.364,391.043,281.302,391.874 M266.905,397.965c0.83,0.554,1.661,0.831,3.322,0.831
	c3.6,2.215,8.859,4.153,10.798,4.153c1.107,0,1.661,0.554,1.938,1.384c1.938,1.938,5.26,3.046,7.752,4.707
	c1.938,1.661,3.876,0,4.43,1.938c0,0.276,0,0.83,0.554,0.554c2.215,2.769,6.646,3.322,8.86,6.091c2.492,0,3.046,1.661,5.261,1.938
	c1.661,2.769,6.368,5.813,8.306,6.091h0.554c1.938,1.938,4.984,4.983,5.814,4.707h0.554c1.661,2.215,4.43,3.322,6.922,4.707
	c1.385-0.277,4.983-1.662,3.322-3.046c-0.554,1.107-1.384,1.938-2.769,2.492c0-1.108,3.322-2.216,1.385-3.323
	c0-0.554,0-1.384-0.554-1.384c-11.353-6.368-20.766-14.675-32.671-20.766c-1.385-0.831-1.938-2.215-4.431-1.938v-0.554
	c-1.384-1.384-3.599-1.661-5.26-2.769c-5.814-2.491-9.968-6.645-16.612-8.029c-1.108-1.661-4.153-1.384-7.199-1.384
	c-0.83,3.045,2.492-1.107,1.938,1.938C267.735,396.027,266.628,396.303,266.905,397.965 M217.067,317.949
	c-1.384-3.6-5.26-4.983-9.137-6.368c-0.276,1.938,1.662,1.938,2.216,3.046c1.661,0.554,2.491,1.938,3.876,3.045
	c0,1.385,2.491,0.554,2.215,2.216c1.661,3.599,7.198,9.69,11.905,12.459c1.385,0.83,4.984,3.876,6.092,2.491
	c-0.554,0-0.831-0.554,0-0.83c0,0.554,0.554,0.83,0.83,0c-1.661-0.831-3.322-1.385-4.43-2.492c-0.831-2.215-3.322-3.045-4.43-4.707
	c-1.662-2.215-3.046-4.706-5.261-6.367C219.559,320.164,218.452,319.056,217.067,317.949 M293.761,318.503
	c0,0.554,0.554,0.831,1.384,0.554c0.554,2.215,3.322,2.215,4.984,3.322c0.554,0.831,0.83,1.938,2.491,1.938
	c4.431-1.661,3.046-5.538-1.938-5.814c0-0.554-0.554-0.831-1.107-0.554c0-0.831,0.276-1.385,0.554-1.938
	c3.045-1.107,1.384-3.322,0-5.261h-1.385c-0.554-1.384-1.938-1.938-3.876-1.938c0-0.277,0-0.831-0.554-0.554
	c-0.554-1.938-3.046-2.215-5.814-1.938v1.938c-1.661,0.83,2.492,1.938,3.046,2.769c0,2.492,3.045,1.938,4.43,3.322v1.385
	c-2.492-1.385-4.43-1.938-7.199-2.215c-0.276,0.83-0.83,1.107-0.83,2.491h-0.554C286.84,318.503,292.654,316.01,293.761,318.503
	 M166.123,338.161c-1.938-3.046-5.26-4.707-7.476-7.199c-2.491-2.215-4.152-5.537-7.475-6.922c-1.108-0.83-1.938-2.215-3.877-2.491
	c-0.83-1.385-3.045-1.661-3.876-3.046c-0.83-1.107-3.6-4.43-5.261-2.492c2.215,0.277,1.661,3.323,3.876,3.877
	c2.492,1.107,4.431,2.769,6.092,4.706c0.83,2.215,3.322,3.046,4.43,4.707c0.831,3.322,3.876,4.153,6.922,5.537
	c1.661,1.385,1.385,4.153,4.43,3.877c1.107,2.215,3.323,3.322,4.431,5.537c1.384-0.277,1.384,1.107,2.215,1.661
	c4.152,2.769,6.368,6.922,11.352,8.583c0.554,2.769,2.215,0.554,4.707,0.831c1.384,1.384-0.554,1.384,0,3.876
	c2.491,0.276,2.215,2.769,4.43,3.322c3.322,3.322,5.814,7.476,9.69,10.244c1.661,1.107,3.046,2.215,4.43,3.046
	c0.831,1.938,3.046,2.769,3.877,4.707c0,0.83,0.554,0.83,0.83,1.661c1.661,0.276,3.046,0,3.876-0.831
	c0-2.769-1.661-3.876-3.876-4.706c-3.6-4.431-9.69-6.646-12.736-11.906c-3.045-1.938-4.43-5.814-7.476-7.752h-0.83v-0.831
	c-0.554-1.938-3.6-1.661-4.43-3.045c-1.938-3.6-5.814-5.538-9.138-7.753c-2.215-0.554-3.876-1.938-5.26-3.046
	c-0.554,0-0.831-0.276-0.831-0.83v-0.831C167.508,340.376,167.508,338.437,166.123,338.161 M58.143,312.135
	c-1.107-1.107-1.938-2.769-3.876-3.046C54.544,310.75,57.312,313.796,58.143,312.135 M54.544,307.427
	c-3.6,0-1.938-5.537-6.091-5.261C48.176,305.49,51.498,309.92,54.544,307.427 M70.326,326.255
	c-2.492-4.706-6.368-8.583-10.521-11.628c1.107,3.599,3.876,5.814,6.091,8.583c2.215,1.938,4.707,7.476,7.476,6.368
	C71.987,328.747,71.987,326.532,70.326,326.255 M73.648,305.766c-2.769-4.43-6.922-11.352-11.352-11.629
	C66.449,297.737,69.495,302.167,73.648,305.766 M69.772,314.073c1.938,0.554,2.769,6.368,5.26,3.876
	c-5.537-6.091-10.244-12.736-16.612-17.997c0.831,3.046,3.323,4.431,4.431,6.922C64.234,310.473,67.556,311.581,69.772,314.073
	 M11.075,407.379c3.046-0.277,3.876,4.153,6.922,1.661c-1.107-2.492-5.814-6.091-7.476-5.537
	C11.905,403.503,10.521,406.271,11.075,407.379 M70.88,446.971c-1.385-1.385-3.6-2.215-4.431-3.876c0-0.554,0-0.831-0.83-0.831
	c-1.661-3.046-4.984-4.983-7.476-7.198c-3.322-1.662-4.983-4.707-7.476-7.199c-2.769-3.6-5.814-6.922-9.69-9.413
	c-13.29-7.753-21.597-20.489-34.332-28.795c11.905,17.442,32.394,26.579,44.299,44.022c3.323,0.277,5.538,1.661,6.922,3.876
	c1.107,3.6,4.984,4.984,7.476,7.199C67.003,445.033,69.219,448.909,70.88,446.971 M38.209,384.952
	c1.938,1.107,2.769,3.322,5.26,3.876c0.277,2.769,4.153,2.215,4.431,4.707c1.938,2.492,3.322,5.814,7.476,6.368
	c1.384,0.554,3.322,4.707,4.43,3.046c-1.385,0-0.554-2.492-2.215-2.215c-4.153-5.814-9.69-10.245-15.782-14.121
	c-0.83-0.83-1.384-1.661-2.215-2.492v-0.83c-2.215,0-1.661-2.215-3.876-2.492c-3.322-1.661-4.707-4.983-8.307-6.368
	c0.831,3.323,4.431,3.877,6.092,6.368c-0.831,2.215,1.661,1.385,3.046,1.661v2.216C37.378,384.676,37.931,384.952,38.209,384.952
	 M73.925,297.183c-1.938-2.215-3.876-8.86-7.476-6.922C69.495,291.923,70.049,296.076,73.925,297.183 M67.556,454.723
	c0.277-6.091-8.029-3.876-7.476-10.244H58.42c-2.769-3.876-6.091-7.198-9.69-10.244c-4.153-1.107-4.983-5.261-9.967-5.537
	c1.107,2.769,4.983,3.322,6.091,6.368c0,2.215,1.661,2.769,3.046,3.876c0.276,0.83,0.83,1.107,1.384,1.661
	c2.215,1.938,11.906,12.183,9.137,7.198C62.019,449.463,63.404,453.34,67.556,454.723 M39.87,424.821
	c-2.769-0.276-4.431-1.938-6.092-3.322c-6.922-2.769-8.859-9.967-16.612-11.905c5.261,6.645,12.183,11.629,18.827,16.612v0.831
	C38.209,427.313,40.146,427.313,39.87,424.821 M44.3,315.734c4.707,3.876,8.029,8.859,12.736,12.459
	c-1.938-4.983-7.199-7.198-9.69-11.629c-1.661-1.938-3.046-4.706-6.092-5.537C40.977,314.073,42.915,314.627,44.3,315.734
	 M193.257,439.496c-1.938,0.276-1.661-1.385-3.876-0.831v2.215h1.661c3.046,1.938,6.091,3.877,8.306,6.368
	c1.662,0.277,1.385,1.938,2.216,3.046h0.83c4.707,2.769,6.092,8.86,12.183,10.244c1.107-0.276,3.876,1.107,3.876-0.554
	c2.215-2.492-3.6-3.6-4.43-5.537c-1.661-0.277-4.707-3.322-6.922-5.538c0.554-2.215-1.385-1.661-1.385-3.045h-1.661
	C200.178,443.649,199.902,438.665,193.257,439.496 M141.205,355.327c5.537,4.43,10.798,8.583,14.951,14.12
	c1.938,2.215,3.322,5.261,7.476,5.537c9.137,9.137,17.996,18.274,27.964,26.58c0,1.938,0.554,2.769,2.215,2.769
	c1.385,0.831,0.831,3.046,3.876,2.492c0.277-2.492-0.83-3.046-2.215-3.876c0.277-1.938-1.107-2.492-3.045-2.492
	c-2.216-2.492-4.984-4.43-6.922-6.922c-1.938-1.107-1.938-4.153-5.261-3.876c-2.492-2.492-5.261-4.983-7.476-7.753
	c-4.153-5.537-9.137-10.244-14.951-14.12s-10.244-9.137-15.782-13.29c-0.83-1.107-3.599-4.43-5.26-2.492
	C138.713,352.281,138.99,354.496,141.205,355.327 M155.879,382.737c-1.384-2.215-4.43-2.769-6.091-4.707
	c-3.322-1.384-4.983-4.43-7.476-6.368c-0.554-1.938-4.153-4.983-5.261-1.661c1.661,0.277,1.385,2.769,3.876,2.492
	c8.029,7.198,15.782,14.397,24.919,20.488C164.462,387.444,158.371,386.89,155.879,382.737 M162.524,362.802
	c-5.261-1.661-6.368-6.922-11.352-8.583c0-0.831-0.554-0.831-0.831-1.661c-0.554-1.385-1.385-2.77-3.876-2.492
	c-1.938-2.492-7.199-9.414-9.968-6.368c4.43,0.831,4.707,5.537,8.307,7.198c1.938,2.492,4.43,4.984,7.476,6.368
	c2.215,3.323,6.091,4.984,9.137,8.029c1.661,3.046,4.983,4.707,7.476,7.199c4.43,3.322,6.922,8.306,12.182,11.074
	c0,0.554,0,0.831,0.831,0.831v1.661c3.046,3.876,6.368,7.753,11.352,10.244c0.277,0.554,0.554,0.831,1.661,0.831
	c0-2.215-1.661-2.769-3.045-3.877c0-0.554,0-0.83-0.831-0.83c-2.215-2.492-4.707-5.261-6.645-7.752
	c-2.77-2.216-4.153-5.538-7.476-7.199c-3.323-0.276-3.046-4.153-6.092-4.707C167.785,369.171,166.4,364.74,162.524,362.802
	 M139.82,379.137c0.554,1.661,3.323,4.707,4.431,3.046C142.312,381.906,142.59,379.137,139.82,379.137 M190.488,381.076
	c-1.107-0.554-1.938-1.107-2.215-2.215c-0.831-5.538-6.646-6.092-9.69-9.414c-3.6-0.554-4.984-6.645-7.476-5.537
	c4.983,8.306,14.674,11.905,19.657,20.488c0.277,1.107,1.662,0.831,2.216,1.661c2.491,2.492,5.813,8.583,9.137,7.753
	c-0.554-4.984-5.261-6.092-7.476-9.414C193.534,382.737,193.534,380.522,190.488,381.076 M148.403,332.623
	c-0.276,1.661,0.554,2.492,2.215,2.215c2.216,4.153,6.368,6.368,9.691,9.414c2.769-0.277,2.215,2.492,3.876,3.046
	c0.276,0.83,0.83,1.107,1.384,1.661c2.216,2.491,4.707,5.261,7.476,7.198c2.492,3.046,4.984,6.092,9.137,7.753
	c4.431,1.938,3.6,9.137,10.521,8.583c3.046-2.492-4.707-6.922-6.645-9.414c-2.769-1.107-4.707-3.046-6.922-4.707
	c-2.492-1.661-4.707-3.599-6.922-5.537c0-1.107-1.107-1.107-0.831-2.215h-1.661c-0.83-3.322-3.876-4.707-6.645-6.368
	c-0.554,0-0.831,0-0.831-0.83c-3.045-3.323-5.261-7.476-9.69-9.414c-0.554-0.277-1.384,0-1.384-0.831v-0.83
	c-1.108-0.277-1.385-1.385-2.216-1.661c-3.045-1.107-3.876-7.476-7.476-5.538C141.481,330.132,146.742,329.854,148.403,332.623
	 M168.615,396.027c3.322,3.045,7.476,4.983,10.521,8.029C177.752,399.626,171.937,395.75,168.615,396.027 M315.081,513.697
	c-3.323-1.938-7.476-5.813-12.183-6.645C301.237,510.375,312.311,518.128,315.081,513.697 M155.325,374.984
	c-1.107-2.215-1.661-4.983-5.261-4.706c-1.107-2.492-6.091-5.814-7.475-5.538c14.12,13.29,28.24,26.58,43.745,38.485
	C176.091,393.812,166.677,383.291,155.325,374.984 M172.215,406.825c-1.107-3.6-4.983-4.707-7.476-7.199v-0.83
	c-1.107-0.277-1.385-1.107-3.046-0.831c-5.537-3.876-9.967-13.013-16.612-13.289c5.261,4.152,9.968,8.859,14.951,13.289
	c0.554,2.215,3.6,2.215,4.43,3.877C168.061,402.672,169.169,405.718,172.215,406.825 M137.605,334.561
	c5.261,3.046,8.029,8.306,13.567,11.075c0.276,2.491,2.215,3.322,3.876,4.706c1.938,1.107,2.491,3.6,5.261,3.877
	c4.152,1.661,5.813,9.413,9.69,8.583c-3.6-4.153-6.092-9.137-11.352-11.629v-3.046c-3.046,0.554-4.153-1.107-5.261-2.491
	c-4.984-4.153-9.137-8.583-14.397-12.46v-0.83c-1.385-0.277-1.938-1.661-3.876-1.661
	C134.837,333.454,136.221,334.284,137.605,334.561"/>
</svg>
