<?xml version="1.0" encoding="utf-8"?>
<!-- Generator: Adobe Illustrator 16.0.0, SVG Export Plug-In . SVG Version: 6.00 Build 0)  -->
<!DOCTYPE svg PUBLIC "-//W3C//DTD SVG 1.1//EN" "http://www.w3.org/Graphics/SVG/1.1/DTD/svg11.dtd">
<svg version="1.1" id="Layer_1" xmlns="http://www.w3.org/2000/svg" xmlns:xlink="http://www.w3.org/1999/xlink" x="0px" y="0px"
	 width="1170.727px" height="226.109px" viewBox="0 145.486 1170.727 226.109" enable-background="new 0 145.486 1170.727 226.109"
	 xml:space="preserve">
<path fill="#146E55" d="M140.971,145.821c-24.78-1.102-50.11,0.551-75.441,4.405L0,215.757l155.84,155.839l155.84-155.839
	C274.785,175.007,215.863,149.125,140.971,145.821z M500.559,196.173c0,1.652-7.709,43.503-7.709,43.503
	c-1.102,6.608-2.753,14.317-6.608,19.273c-7.158,9.361-20.925,9.361-25.33,9.361c-8.812,0-15.419-1.102-20.375-3.854
	c-6.058-3.304-8.811-7.709-9.361-14.868c0-0.551,0-1.102,0-1.652c0-2.753,0.551-6.057,1.102-8.811v-1.102
	c0,0,6.607-36.895,7.709-41.851c1.102,0,22.577,0,23.679,0c0,1.652-8.26,45.706-8.26,45.706v0.551
	c-0.551,3.854-1.102,6.057-1.102,7.158c0,0.551,0,1.102,0,1.652c0.551,2.202,2.203,3.854,4.956,3.854
	c3.854,0,5.507-2.203,6.058-3.304c1.651-2.203,2.202-4.956,2.753-9.912c0,0,7.159-40.75,8.26-46.257
	C477.982,196.173,498.908,196.173,500.559,196.173z M385.469,206.635l-8.811,49.561h2.753c2.754,0,6.058,0,8.26-1.652
	c6.608-3.304,8.812-16.521,9.362-20.926l0,0c0.55-3.304,1.101-7.158,1.651-10.462v-0.551c0-2.203,0.551-4.405,0-7.159
	c-0.551-8.26-6.058-8.26-10.463-8.811H385.469L385.469,206.635z M393.178,196.173c8.261,0,12.666,0.551,17.071,2.202
	c8.811,3.855,10.463,12.115,11.014,18.724c0,1.102,0,2.202,0,3.304c0,7.71-1.652,17.621-3.854,25.331
	c-3.305,9.361-7.71,18.723-22.027,20.926c-2.754,0.55-6.058,0.55-9.361,0.55c0,0-34.142,0-35.794,0
	c0-1.651,12.115-69.384,12.666-70.485C364.544,196.173,393.178,196.173,393.178,196.173z M538.006,206.635l-3.305,20.375h3.305
	c1.651,0,5.507,0,7.709-2.203c2.754-2.753,3.305-8.26,3.305-11.563c-0.551-6.058-4.957-6.608-7.71-6.608l0,0h-2.753H538.006z
	 M551.772,196.173c4.405,0,8.811,0,13.216,2.202c4.956,2.203,7.71,6.058,8.26,12.115c0,0.551,0,1.102,0,1.102
	c0,6.608-3.304,12.665-8.26,15.97c-3.304,2.202-7.158,2.753-9.912,2.753v1.102h0.551c1.102,0,2.754,0.551,4.405,1.652
	c3.854,2.753,5.507,6.057,6.058,12.665v4.405v7.159v3.304c0,2.753,0.551,4.405,1.102,5.507c-2.754,0-23.129,0-23.679,0
	c-0.551-0.551-1.652-1.652-1.652-4.405v-0.551c0-1.102,0-2.754,0-4.956v-4.405c0-1.102,0-1.652,0-2.754c0-1.651,0-3.304,0-4.956
	c0-1.102-0.551-2.753-1.102-3.854c-1.652-3.304-4.956-3.304-6.058-3.304h-2.202c0,0-4.956,28.084-4.956,29.186
	c-1.102,0-22.027,0-23.128,0c0-1.652,12.114-69.385,12.665-70.486C517.631,196.173,551.772,196.173,551.772,196.173z
	 M732.392,196.173c-0.551,1.652-24.78,69.936-24.78,70.486c-1.102,0-36.345,0-37.445,0c0-1.102-2.203-69.385-2.203-70.486
	c1.102,0,22.026,0,23.128,0c0,6.058-1.102,55.618-1.102,55.618h0.551c0,0,16.521-51.213,18.173-55.618
	C710.365,196.173,730.74,196.173,732.392,196.173z M790.213,196.173c0,1.102-2.203,12.665-2.754,13.767c-1.101,0-22.577,0-22.577,0
	l-2.202,13.217c0,0,19.273,0,20.374,0c0,1.101-2.202,12.665-2.753,13.767c-1.102,0-20.375,0-20.375,0l-2.753,15.969
	c0,0,22.577,0,24.229,0c0,1.102-2.203,12.666-2.754,13.768c-1.102,0-45.705,0-47.357,0c0-1.652,12.114-69.385,12.665-70.486
	C745.057,196.173,788.56,196.173,790.213,196.173z M827.107,206.635l-3.854,20.375h3.304c2.754,0,5.507,0,7.71-2.203
	c2.753-2.753,3.304-8.26,3.304-11.563c-0.551-6.058-4.956-6.608-7.709-6.608l0,0H827.107L827.107,206.635z M840.874,196.173
	c4.405,0,8.812,0,13.217,2.202c4.956,2.203,7.709,6.058,8.26,12.115c0,0.551,0,1.102,0,1.102c0,6.608-3.304,12.665-8.26,15.97
	c-3.305,2.202-7.159,2.753-9.912,2.753v1.102h0.551c1.101,0,2.753,0.551,4.405,1.652c3.854,2.753,5.506,6.057,6.057,12.665v4.405
	v7.159v3.304c0,2.753,0.551,4.405,1.102,5.507c-2.753,0-23.128,0-23.679,0c-0.551-0.551-1.652-1.652-1.652-4.405v-0.551
	c0-1.102,0-2.203,0-4.956v-4.405c0-1.102,0-1.652,0-2.754c0-1.651,0-3.304,0-4.956c0-1.102,0-2.753-1.101-3.854
	c-1.652-3.304-4.956-3.304-6.058-3.304H821.6c0,0-4.956,28.084-4.956,29.186c-1.101,0-22.026,0-23.128,0
	c0-1.652,12.115-69.385,12.666-70.486C806.732,196.173,840.874,196.173,840.874,196.173z M1034.16,196.173
	c0,1.102-2.203,12.665-2.754,13.767c-1.102,0-22.577,0-22.577,0l-2.203,13.217c0,0,19.273,0,20.375,0
	c0,1.101-2.202,12.665-2.202,13.767c-1.102,0-20.926,0-20.926,0l-2.754,15.969c0,0,22.578,0,24.23,0
	c0,1.102-2.203,12.666-2.203,13.768c-1.102,0-45.706,0-47.357,0c0-1.652,12.114-69.385,12.665-70.486
	C989.555,196.173,1033.058,196.173,1034.16,196.173z M1096.385,196.173c0,1.102-2.203,12.665-2.754,13.767
	c-1.101,0-22.577,0-22.577,0l-2.203,13.217c0,0,19.273,0,20.375,0c0,1.101-2.202,12.665-2.202,13.767c-1.102,0-20.375,0-20.375,0
	l-2.753,15.969c0,0,22.577,0,23.679,0c0,1.102-2.203,12.666-2.754,13.768c-1.101,0-45.705,0-47.357,0
	c0-1.652,12.114-69.385,12.665-70.486C1051.781,196.173,1094.733,196.173,1096.385,196.173z M1133.831,206.635l-3.854,20.375h3.304
	c2.754,0,5.507,0,7.71-2.203c2.753-2.202,3.304-8.26,3.304-11.563c-0.551-6.058-4.956-6.608-7.709-6.608l0,0H1133.831
	L1133.831,206.635z M1148.148,196.173c4.405,0,9.912,0,14.317,2.202c4.956,2.203,7.71,6.058,8.261,12.115c0,0.551,0,1.102,0,1.102
	c0,6.608-3.305,12.665-8.261,15.97c-3.304,2.202-8.26,2.753-11.013,2.753v1.102h0.551c1.101,0,2.753,0.551,4.405,1.652
	c3.854,2.753,6.607,6.057,7.158,12.665v4.405v7.159v3.304c0,3.304,0.551,4.405,1.102,5.507c-2.754,0-24.229,0-24.78,0
	c-0.551-0.551-1.652-1.652-1.652-4.405v-0.551c0-1.102,0-2.203,0-4.956v-4.405c0-0.551,0-1.652,0-2.754c0-1.651,0-3.304,0-4.956
	c0-1.102,0-2.753-1.102-3.854c-1.651-3.304-4.955-3.304-6.057-3.304h-2.203c0,0-4.956,28.084-4.956,29.186
	c-1.101,0-22.026,0-23.128,0c0-1.652,12.666-69.385,12.666-70.486C1113.456,196.173,1148.148,196.173,1148.148,196.173z
	 M637.126,196.173c0,1.102,2.754,69.385,2.754,70.486c-1.102,0-22.027,0-23.128,0c0-1.102,0-15.419,0-15.419H599.13
	c0,0-5.507,14.317-5.507,15.419c-1.101,0-20.925,0-22.577,0c0.551-1.652,28.084-69.936,28.635-70.486
	C600.231,196.173,636.025,196.173,637.126,196.173z M616.752,206.635h-0.551c0,0-9.361,25.331-11.564,30.838l-0.551,1.101h12.666
	v-1.101C616.752,227.561,616.752,206.635,616.752,206.635L616.752,206.635z M970.833,196.173c0,1.652-12.115,69.385-12.115,70.486
	c-1.101,0-20.374,0-22.026,0c0.551-1.652,11.014-60.023,11.014-60.023h-0.551c0,0-21.477,55.067-23.129,60.023
	c-1.102,0-20.375,0-21.476,0c0-1.102-2.203-60.023-2.203-60.023h-0.551c0,0-9.912,58.922-9.912,60.023c-1.101,0-20.374,0-22.026,0
	c0.551-1.652,12.665-69.385,13.216-70.486c1.102,0,35.243,0,36.345,0c0,1.102,1.102,40.75,1.102,40.75h0.55
	c0,0,14.317-36.896,15.419-40.75C935.59,196.173,969.18,196.173,970.833,196.173z"/>
<g>
	<path fill="#F3EB34" d="M276.987,250.448L235.136,292.3c-19.824-71.037-86.455-121.147-183.924-128.307l9.361-9.361
		c10.463-0.551,20.375-0.551,30.287,0C179.518,158.486,245.049,195.382,276.987,250.448z M37.446,177.76l-18.173,18.173
		c66.632,24.78,105.729,78.745,106.279,144.826l30.838,30.837l30.838-30.837C186.127,260.36,129.408,197.033,37.446,177.76z"/>
</g>
</svg>
