<?xml version="1.0" encoding="utf-8"?>
<!-- Generator: Adobe Illustrator 16.0.0, SVG Export Plug-In . SVG Version: 6.00 Build 0)  -->
<!DOCTYPE svg PUBLIC "-//W3C//DTD SVG 1.1//EN" "http://www.w3.org/Graphics/SVG/1.1/DTD/svg11.dtd">
<svg version="1.1" id="Layer_1" xmlns="http://www.w3.org/2000/svg" xmlns:xlink="http://www.w3.org/1999/xlink" x="0px" y="0px"
	 width="338.256px" height="147.18px" viewBox="0 0 338.256 147.18" enable-background="new 0 0 338.256 147.18"
	 xml:space="preserve">
<g>
	<path fill="#C4104D" d="M209.046,54.384c-14.512,0-24.476,5.943-24.476,26.737c0,20.981,11.542,27.246,25.573,27.246
		c6.267,0,13.912-1.067,18.983-2.78l-3.167-13.401c-3.697,0.721-9.93,1.274-13.437,1.274c-5.959,0-9.164-0.909-9.349-6.262h29.543
		C234.61,59.435,226.863,54.384,209.046,54.384 M202.112,77.321c0.322-5.748,2.936-10.122,7.899-10.122
		c4.888,0,8.388,2.396,8.48,9.382L202.112,77.321z M154.936,54.372c-10.141,0-20.8,2.466-27.638,4.769v47.826h18.196V71.166
		c2.083-0.409,3.861-0.697,5.444-0.697c6.175,0,7.186,2.4,7.186,9.561v26.938h18.188V78.821
		C176.312,60.614,168.847,54.372,154.936,54.372 M267.659,69.673c4.082,0,8.574,1.21,11.261,1.97l3.567-15.094
		c-4.071-1.407-10.934-2.178-16.596-2.178c-15.034,0-25.769,5.941-25.769,26.73c0,20.979,10.642,27.251,25.769,27.251
		c5.379,0,12.427-0.886,16.596-2.487l-3.567-15.107c-2.687,0.985-6.863,2.173-11.261,2.173c-6.045,0-9.328-1.078-9.328-11.51
		C258.331,70.375,261.614,69.673,267.659,69.673 M119.16,55.659l-3.93-16.704H71.706v43.874
		c0.087,17.693,7.338,23.959,20.797,24.138h25.654V90.251H97.761c-4.581-0.354-7.052-2.927-7.052-9.446h21.895V64.414H90.691v-8.755
		H119.16z M312.693,54.372c-16.512,0-25.349,5.845-25.349,26.73c0,20.979,8.627,27.251,25.349,27.251
		c16.89,0,25.563-6.272,25.563-27.251C338.256,60.217,329.489,54.372,312.693,54.372 M312.693,94.428
		c-5.678,0-7.164-1.388-7.164-13.007c0-12.055,1.486-13.138,7.164-13.138c5.757,0,7.249,1.083,7.249,13.138
		C319.942,93.04,318.45,94.428,312.693,94.428"/>
	<g>
		<defs>
			<path id="SVGID_1_" d="M43.391,72.274c0,9.928,8.051,17.977,17.975,17.977l0,0c9.931,0,17.979-8.049,17.979-17.977l0,0
				c0-9.933-8.048-17.978-17.979-17.978l0,0C51.441,54.297,43.391,62.341,43.391,72.274"/>
		</defs>
		<clipPath id="SVGID_2_">
			<use xlink:href="#SVGID_1_"  overflow="visible"/>
		</clipPath>
		<g clip-path="url(#SVGID_2_)">
			<g>
				<defs>
					<rect id="SVGID_3_" x="43.276" y="54.436" width="35.953" height="35.953"/>
				</defs>
				<clipPath id="SVGID_4_">
					<use xlink:href="#SVGID_3_"  overflow="visible"/>
				</clipPath>
				
					<radialGradient id="SVGID_5_" cx="-252.1714" cy="370.3877" r="1" gradientTransform="matrix(30.6253 0 0 -30.6253 7775.3247 11405.8096)" gradientUnits="userSpaceOnUse">
					<stop  offset="0" style="stop-color:#FFDD95"/>
					<stop  offset="0.1227" style="stop-color:#FED58A"/>
					<stop  offset="0.3375" style="stop-color:#F8C06F"/>
					<stop  offset="0.6172" style="stop-color:#F0A044"/>
					<stop  offset="0.7059" style="stop-color:#ED9535"/>
					<stop  offset="1" style="stop-color:#ED9535"/>
				</radialGradient>
				<rect x="43.276" y="54.436" clip-path="url(#SVGID_4_)" fill="url(#SVGID_5_)" width="35.953" height="35.953"/>
			</g>
		</g>
	</g>
	<g>
		<defs>
			<path id="SVGID_6_" d="M0,90.251c0,14.894,12.075,26.961,26.965,26.961l0,0c14.893,0,26.964-12.067,26.964-26.961l0,0
				c0-14.892-12.071-26.968-26.964-26.968l0,0C12.075,63.283,0,75.359,0,90.251"/>
		</defs>
		<clipPath id="SVGID_7_">
			<use xlink:href="#SVGID_6_"  overflow="visible"/>
		</clipPath>
		<g clip-path="url(#SVGID_7_)">
			<g>
				<defs>
					<rect id="SVGID_8_" x="0.413" y="62.831" width="53.929" height="53.93"/>
				</defs>
				<clipPath id="SVGID_9_">
					<use xlink:href="#SVGID_8_"  overflow="visible"/>
				</clipPath>
				
					<radialGradient id="SVGID_10_" cx="-252.1714" cy="370.3877" r="1" gradientTransform="matrix(45.937 0 0 -45.937 11598.2324 17089.543)" gradientUnits="userSpaceOnUse">
					<stop  offset="0" style="stop-color:#FCD588"/>
					<stop  offset="0.0793" style="stop-color:#F8C97F"/>
					<stop  offset="0.2294" style="stop-color:#F0AA68"/>
					<stop  offset="0.4345" style="stop-color:#E47D47"/>
					<stop  offset="0.6843" style="stop-color:#D63826"/>
					<stop  offset="0.754" style="stop-color:#D21820"/>
					<stop  offset="1" style="stop-color:#D21820"/>
				</radialGradient>
				<rect x="0.413" y="62.831" clip-path="url(#SVGID_9_)" fill="url(#SVGID_10_)" width="53.929" height="53.93"/>
			</g>
		</g>
	</g>
	<g>
		<defs>
			<path id="SVGID_11_" d="M56.726,132.2c0,8.272,6.708,14.979,14.984,14.979l0,0c8.269,0,14.979-6.707,14.979-14.979l0,0
				c0-8.279-6.711-14.988-14.979-14.988l0,0C63.434,117.212,56.726,123.921,56.726,132.2"/>
		</defs>
		<clipPath id="SVGID_12_">
			<use xlink:href="#SVGID_11_"  overflow="visible"/>
		</clipPath>
		<g clip-path="url(#SVGID_12_)">
			<g>
				<defs>
					<rect id="SVGID_13_" x="56.835" y="117.136" width="29.963" height="29.967"/>
				</defs>
				<clipPath id="SVGID_14_">
					<use xlink:href="#SVGID_13_"  overflow="visible"/>
				</clipPath>
				
					<radialGradient id="SVGID_15_" cx="-252.1714" cy="370.3877" r="1" gradientTransform="matrix(25.5232 0 0 -25.5232 6500.7368 9577.3975)" gradientUnits="userSpaceOnUse">
					<stop  offset="0" style="stop-color:#F6D0BA"/>
					<stop  offset="0.7059" style="stop-color:#D2133D"/>
					<stop  offset="1" style="stop-color:#D2133D"/>
				</radialGradient>
				<rect x="56.835" y="117.136" clip-path="url(#SVGID_14_)" fill="url(#SVGID_15_)" width="29.963" height="29.967"/>
			</g>
		</g>
	</g>
	<g>
		<defs>
			<path id="SVGID_16_" d="M41.261,8.987c0,4.966,4.02,8.99,8.986,8.99l0,0c4.965,0,8.986-4.024,8.986-8.99l0,0
				C59.232,4.02,55.211,0,50.247,0l0,0C45.281,0,41.261,4.02,41.261,8.987"/>
		</defs>
		<clipPath id="SVGID_17_">
			<use xlink:href="#SVGID_16_"  overflow="visible"/>
		</clipPath>
		<g clip-path="url(#SVGID_17_)">
			<g>
				<defs>
					<rect id="SVGID_18_" x="41.635" y="-0.396" width="17.973" height="17.977"/>
				</defs>
				<clipPath id="SVGID_19_">
					<use xlink:href="#SVGID_18_"  overflow="visible"/>
				</clipPath>
				
					<radialGradient id="SVGID_20_" cx="-252.1714" cy="370.3877" r="1" gradientTransform="matrix(15.3131 0 0 -15.3131 3907.7681 5675.4604)" gradientUnits="userSpaceOnUse">
					<stop  offset="0" style="stop-color:#FACE98"/>
					<stop  offset="0.877" style="stop-color:#D74553"/>
					<stop  offset="1" style="stop-color:#D74553"/>
				</radialGradient>
				<rect x="41.635" y="-0.396" clip-path="url(#SVGID_19_)" fill="url(#SVGID_20_)" width="17.973" height="17.977"/>
			</g>
		</g>
	</g>
	<g>
		<defs>
			<path id="SVGID_21_" d="M14.984,38.955c0,6.615,5.36,11.977,11.981,11.977l0,0c6.625,0,11.984-5.362,11.984-11.977l0,0
				c0-6.625-5.36-11.989-11.984-11.989l0,0C20.344,26.966,14.984,32.331,14.984,38.955"/>
		</defs>
		<clipPath id="SVGID_22_">
			<use xlink:href="#SVGID_21_"  overflow="visible"/>
		</clipPath>
		<g clip-path="url(#SVGID_22_)">
			<g>
				<defs>
					<rect id="SVGID_23_" x="14.819" y="27.148" width="23.966" height="23.966"/>
				</defs>
				<clipPath id="SVGID_24_">
					<use xlink:href="#SVGID_23_"  overflow="visible"/>
				</clipPath>
				
					<radialGradient id="SVGID_25_" cx="-252.1714" cy="370.3877" r="1" gradientTransform="matrix(20.4121 0 0 -20.4121 5168.3169 7592.9658)" gradientUnits="userSpaceOnUse">
					<stop  offset="0" style="stop-color:#F6C799"/>
					<stop  offset="1" style="stop-color:#E16723"/>
				</radialGradient>
				<rect x="14.819" y="27.148" clip-path="url(#SVGID_24_)" fill="url(#SVGID_25_)" width="23.966" height="23.966"/>
			</g>
		</g>
	</g>
</g>
</svg>
