<?xml version="1.0" encoding="utf-8"?>
<!-- Generator: Adobe Illustrator 16.0.0, SVG Export Plug-In . SVG Version: 6.00 Build 0)  -->
<!DOCTYPE svg PUBLIC "-//W3C//DTD SVG 1.1//EN" "http://www.w3.org/Graphics/SVG/1.1/DTD/svg11.dtd">
<svg version="1.1" id="Laag_1_kopie" xmlns="http://www.w3.org/2000/svg" xmlns:xlink="http://www.w3.org/1999/xlink" x="0px"
	 y="0px" width="115.413px" height="56.676px" viewBox="0 0 115.413 56.676" enable-background="new 0 0 115.413 56.676"
	 xml:space="preserve">
<g>
	<g>
		<g>
			<path fill="#552988" d="M14.909,54.028h-1.591v-1.16h2.993v2.742c-0.289,0.282-0.711,0.529-1.265,0.744
				c-0.55,0.215-1.11,0.321-1.677,0.321c-0.721,0-1.347-0.15-1.884-0.453c-0.535-0.302-0.936-0.734-1.206-1.296
				c-0.27-0.563-0.404-1.173-0.404-1.834c0-0.716,0.15-1.354,0.452-1.909c0.299-0.559,0.739-0.984,1.319-1.282
				c0.442-0.229,0.989-0.344,1.647-0.344c0.854,0,1.521,0.18,2.003,0.538c0.48,0.358,0.788,0.854,0.927,1.486l-1.383,0.257
				c-0.098-0.337-0.278-0.604-0.546-0.8c-0.266-0.195-0.601-0.293-1.001-0.293c-0.608,0-1.092,0.192-1.449,0.577
				c-0.358,0.385-0.537,0.957-0.537,1.715c0,0.816,0.181,1.429,0.545,1.838c0.361,0.407,0.838,0.611,1.428,0.611
				c0.289,0,0.581-0.057,0.874-0.171c0.294-0.114,0.543-0.252,0.754-0.415V54.028z"/>
			<path fill="#552988" d="M19.333,52.784c0.188-0.21,0.425-0.314,0.715-0.314c0.271,0,0.497,0.099,0.687,0.298
				c0.188,0.198,0.285,0.489,0.295,0.871h-1.973C19.054,53.278,19.146,52.993,19.333,52.784z M20.635,55.516
				c-0.141,0.112-0.314,0.169-0.52,0.169c-0.306,0-0.559-0.108-0.762-0.325c-0.204-0.218-0.312-0.521-0.32-0.913h3.307
				c0.02-1.011-0.188-1.763-0.616-2.253c-0.43-0.488-1.013-0.733-1.757-0.733c-0.658,0-1.206,0.233-1.637,0.702
				c-0.434,0.467-0.648,1.114-0.648,1.941c0,0.69,0.163,1.264,0.493,1.718c0.414,0.566,1.057,0.85,1.926,0.85
				c0.547,0,1.003-0.125,1.369-0.378c0.362-0.252,0.628-0.618,0.799-1.101l-1.315-0.22C20.883,55.222,20.775,55.403,20.635,55.516z"
				/>
			<path fill="#552988" d="M23.797,56.559v-4.986h1.216v0.681c0.435-0.529,0.955-0.793,1.554-0.793c0.318,0,0.596,0.065,0.83,0.196
				c0.237,0.132,0.429,0.332,0.577,0.597c0.221-0.265,0.456-0.465,0.712-0.597c0.253-0.131,0.522-0.196,0.812-0.196
				c0.367,0,0.676,0.074,0.928,0.224c0.255,0.147,0.444,0.366,0.569,0.653c0.091,0.214,0.135,0.558,0.135,1.034v3.188h-1.316v-2.851
				c0-0.494-0.047-0.813-0.138-0.958c-0.122-0.188-0.31-0.28-0.563-0.28c-0.185,0-0.358,0.056-0.521,0.169
				c-0.164,0.111-0.28,0.276-0.352,0.494c-0.072,0.218-0.107,0.562-0.107,1.031v2.395h-1.321v-2.732
				c0-0.485-0.024-0.799-0.069-0.939c-0.047-0.142-0.121-0.245-0.218-0.314c-0.102-0.069-0.234-0.103-0.402-0.103
				c-0.204,0-0.389,0.053-0.55,0.164c-0.163,0.109-0.281,0.267-0.349,0.473c-0.069,0.207-0.106,0.551-0.106,1.03v2.422H23.797z"/>
			<path fill="#552988" d="M34.193,52.784c0.188-0.21,0.424-0.314,0.715-0.314c0.268,0,0.496,0.099,0.685,0.298
				c0.189,0.198,0.287,0.489,0.296,0.871h-1.972C33.914,53.278,34.007,52.993,34.193,52.784z M35.495,55.516
				c-0.142,0.112-0.316,0.169-0.522,0.169c-0.303,0-0.557-0.108-0.76-0.325c-0.203-0.218-0.309-0.521-0.318-0.913h3.305
				c0.018-1.011-0.188-1.763-0.617-2.253c-0.428-0.488-1.012-0.733-1.756-0.733c-0.657,0-1.205,0.233-1.637,0.702
				c-0.434,0.467-0.648,1.114-0.648,1.941c0,0.69,0.162,1.264,0.493,1.718c0.414,0.566,1.058,0.85,1.925,0.85
				c0.548,0,1.005-0.125,1.37-0.378c0.36-0.252,0.628-0.618,0.799-1.101l-1.314-0.22C35.744,55.222,35.636,55.403,35.495,55.516z"/>
			<path fill="#552988" d="M40.022,52.784c0.187-0.21,0.425-0.314,0.714-0.314c0.267,0,0.498,0.099,0.686,0.298
				c0.189,0.198,0.285,0.489,0.294,0.871h-1.97C39.742,53.278,39.834,52.993,40.022,52.784z M41.324,55.516
				c-0.143,0.112-0.317,0.169-0.523,0.169c-0.303,0-0.557-0.108-0.758-0.325c-0.205-0.218-0.311-0.521-0.32-0.913h3.306
				c0.018-1.011-0.188-1.763-0.619-2.253c-0.426-0.488-1.012-0.733-1.754-0.733c-0.659,0-1.206,0.233-1.639,0.702
				c-0.432,0.467-0.648,1.114-0.648,1.941c0,0.69,0.164,1.264,0.495,1.718c0.414,0.566,1.057,0.85,1.922,0.85
				c0.55,0,1.006-0.125,1.372-0.378c0.363-0.252,0.632-0.618,0.801-1.101l-1.315-0.22C41.57,55.222,41.465,55.403,41.324,55.516z"/>
			<path fill="#552988" d="M49.119,53.46v3.099H47.8v-2.544c0-0.54-0.028-0.888-0.083-1.046c-0.058-0.158-0.149-0.281-0.275-0.369
				c-0.128-0.087-0.279-0.13-0.46-0.13c-0.228,0-0.433,0.062-0.613,0.188c-0.184,0.125-0.308,0.291-0.374,0.497
				c-0.067,0.206-0.1,0.589-0.1,1.146v2.259h-1.32v-4.986h1.225v0.731c0.437-0.563,0.984-0.844,1.645-0.844
				c0.291,0,0.555,0.052,0.795,0.156c0.244,0.105,0.426,0.238,0.548,0.402c0.125,0.163,0.211,0.348,0.261,0.554
				C49.096,52.78,49.119,53.075,49.119,53.46z"/>
		</g>
		<path fill="#552988" d="M66.189,50.84c0.563,0,0.901,0.008,1.015,0.022c0.225,0.039,0.398,0.128,0.524,0.272
			c0.121,0.142,0.184,0.327,0.184,0.56c0,0.207-0.046,0.379-0.141,0.517c-0.093,0.139-0.224,0.233-0.389,0.29
			c-0.168,0.057-0.585,0.085-1.249,0.085h-1.028V50.84H66.189z M65.105,53.686h0.282c0.317,0,0.552,0.025,0.7,0.077
			c0.145,0.052,0.284,0.146,0.417,0.287c0.132,0.138,0.376,0.476,0.731,1.011l1.006,1.498h1.661l-0.84-1.344
			c-0.332-0.535-0.598-0.907-0.792-1.116c-0.194-0.21-0.446-0.402-0.744-0.578c0.605-0.087,1.058-0.299,1.363-0.636
			c0.302-0.337,0.456-0.764,0.456-1.279c0-0.406-0.103-0.77-0.302-1.086c-0.199-0.315-0.466-0.535-0.801-0.658
			c-0.334-0.124-0.867-0.187-1.603-0.187h-2.928v6.884h1.392V53.686z"/>
		<path fill="#552988" d="M72.402,52.93c0.235-0.263,0.522-0.396,0.868-0.396c0.344,0,0.634,0.133,0.866,0.396
			c0.234,0.263,0.349,0.638,0.349,1.126c0,0.501-0.114,0.884-0.349,1.146c-0.232,0.264-0.522,0.395-0.866,0.395
			c-0.346,0-0.633-0.131-0.868-0.395c-0.234-0.262-0.352-0.642-0.352-1.136S72.168,53.192,72.402,52.93z M71.021,55.452
			c0.217,0.399,0.531,0.702,0.947,0.908c0.414,0.209,0.851,0.311,1.308,0.311c0.739,0,1.351-0.249,1.838-0.743
			c0.485-0.497,0.728-1.122,0.728-1.876c0-0.749-0.238-1.368-0.719-1.858c-0.486-0.488-1.101-0.733-1.855-0.733
			c-0.489,0-0.933,0.107-1.329,0.323c-0.396,0.217-0.7,0.528-0.917,0.938c-0.215,0.411-0.324,0.834-0.324,1.274
			C70.697,54.567,70.807,55.054,71.021,55.452z"/>
		<path fill="#552988" d="M78.743,51.572h0.902v1.052h-0.902v2.01c0,0.406,0.008,0.644,0.025,0.712
			c0.016,0.066,0.059,0.121,0.117,0.165c0.063,0.044,0.137,0.066,0.223,0.066c0.121,0,0.3-0.042,0.532-0.127l0.112,1.024
			c-0.309,0.131-0.654,0.196-1.043,0.196c-0.238,0-0.452-0.04-0.642-0.119c-0.192-0.08-0.334-0.184-0.423-0.311
			c-0.09-0.127-0.152-0.298-0.186-0.514c-0.028-0.153-0.043-0.464-0.043-0.929v-2.175h-0.605v-1.052h0.605V50.58l1.326-0.769V51.572
			z"/>
		<path fill="#552988" d="M82.796,51.572h0.901v1.052h-0.901v2.01c0,0.406,0.01,0.644,0.025,0.712
			c0.018,0.066,0.057,0.121,0.12,0.165c0.06,0.044,0.133,0.066,0.22,0.066c0.121,0,0.299-0.042,0.529-0.127l0.115,1.024
			c-0.308,0.131-0.654,0.196-1.043,0.196c-0.238,0-0.453-0.04-0.642-0.119c-0.193-0.08-0.334-0.184-0.422-0.311
			c-0.091-0.127-0.152-0.298-0.187-0.514c-0.027-0.153-0.041-0.464-0.041-0.929v-2.175h-0.607v-1.052h0.607V50.58l1.324-0.769
			V51.572z"/>
		<path fill="#552988" d="M86.479,52.784c0.188-0.21,0.426-0.314,0.714-0.314c0.267,0,0.499,0.099,0.686,0.298
			c0.188,0.198,0.286,0.489,0.294,0.871h-1.972C86.198,53.278,86.292,52.993,86.479,52.784z M87.779,55.516
			c-0.14,0.112-0.314,0.169-0.521,0.169c-0.302,0-0.556-0.108-0.759-0.325c-0.203-0.218-0.31-0.521-0.319-0.913h3.304
			c0.02-1.011-0.184-1.763-0.613-2.253c-0.43-0.488-1.016-0.733-1.756-0.733c-0.662,0-1.209,0.233-1.641,0.702
			c-0.431,0.467-0.647,1.114-0.647,1.941c0,0.69,0.165,1.264,0.493,1.718c0.417,0.566,1.058,0.85,1.926,0.85
			c0.546,0,1.003-0.125,1.369-0.378c0.363-0.252,0.631-0.618,0.8-1.101l-1.314-0.22C88.027,55.222,87.923,55.403,87.779,55.516z"/>
		<path fill="#552988" d="M52.32,51.572h0.906v1.052H52.32v2.01c0,0.406,0.01,0.644,0.026,0.712c0.017,0.066,0.058,0.121,0.12,0.165
			c0.06,0.044,0.135,0.066,0.22,0.066c0.124,0,0.3-0.042,0.535-0.127l0.112,1.024c-0.31,0.131-0.657,0.196-1.045,0.196
			c-0.236,0-0.451-0.04-0.642-0.119c-0.192-0.08-0.33-0.184-0.42-0.311c-0.091-0.127-0.151-0.298-0.188-0.514
			c-0.026-0.153-0.041-0.464-0.041-0.929v-2.175h-0.604v-1.052h0.604V50.58l1.321-0.769V51.572z"/>
		<path fill="#552988" d="M56.005,52.784c0.188-0.21,0.427-0.314,0.716-0.314c0.269,0,0.497,0.099,0.685,0.298
			c0.188,0.198,0.287,0.489,0.298,0.871h-1.974C55.727,53.278,55.817,52.993,56.005,52.784z M57.307,55.516
			c-0.142,0.112-0.313,0.169-0.521,0.169c-0.305,0-0.558-0.108-0.761-0.325c-0.205-0.218-0.309-0.521-0.318-0.913h3.303
			c0.021-1.011-0.186-1.763-0.614-2.253c-0.429-0.488-1.013-0.733-1.756-0.733c-0.661,0-1.206,0.233-1.639,0.702
			c-0.433,0.467-0.646,1.114-0.646,1.941c0,0.69,0.165,1.264,0.491,1.718c0.417,0.566,1.06,0.85,1.926,0.85
			c0.548,0,1.004-0.125,1.367-0.378c0.367-0.252,0.634-0.618,0.802-1.101l-1.313-0.22C57.555,55.222,57.448,55.403,57.307,55.516z"
			/>
		<path fill="#552988" d="M92.304,55.019v1.54h-1.32v-4.986h1.225v0.709c0.212-0.335,0.4-0.556,0.568-0.661
			c0.167-0.106,0.356-0.16,0.569-0.16c0.299,0,0.59,0.083,0.869,0.248l-0.408,1.151c-0.224-0.145-0.431-0.217-0.62-0.217
			c-0.186,0-0.339,0.051-0.471,0.153c-0.128,0.102-0.229,0.285-0.303,0.551C92.341,53.613,92.304,54.171,92.304,55.019z"/>
		<path fill="#552988" d="M96.71,52.844c0.21-0.251,0.473-0.374,0.787-0.374c0.324,0,0.586,0.125,0.795,0.378
			c0.204,0.251,0.309,0.663,0.309,1.236c0,0.513-0.106,0.899-0.318,1.158c-0.216,0.258-0.472,0.386-0.776,0.386
			c-0.382,0-0.68-0.171-0.892-0.515c-0.148-0.238-0.222-0.624-0.222-1.156C96.393,53.463,96.498,53.091,96.71,52.844z
			 M98.593,49.675v2.479c-0.405-0.463-0.887-0.694-1.444-0.694c-0.607,0-1.11,0.22-1.508,0.659
			c-0.398,0.439-0.596,1.083-0.596,1.928c0,0.826,0.203,1.47,0.612,1.933c0.41,0.461,0.9,0.691,1.474,0.691
			c0.28,0,0.561-0.069,0.836-0.209c0.279-0.139,0.519-0.351,0.724-0.637v0.733h1.225v-6.884H98.593z"/>
		<path fill="#552988" d="M104.397,55.07c-0.053,0.172-0.156,0.318-0.317,0.437c-0.215,0.156-0.441,0.234-0.679,0.234
			c-0.215,0-0.39-0.066-0.528-0.202c-0.137-0.135-0.205-0.293-0.205-0.479c0-0.188,0.087-0.342,0.259-0.465
			c0.11-0.075,0.353-0.151,0.718-0.23c0.367-0.078,0.633-0.146,0.803-0.201v0.264C104.447,54.743,104.43,54.958,104.397,55.07z
			 M103,52.607c0.132-0.093,0.316-0.138,0.548-0.138c0.351,0,0.586,0.052,0.71,0.161c0.127,0.108,0.189,0.289,0.189,0.543v0.13
			c-0.239,0.102-0.665,0.208-1.282,0.325c-0.459,0.087-0.806,0.19-1.049,0.307c-0.245,0.119-0.432,0.287-0.566,0.508
			c-0.136,0.221-0.201,0.473-0.201,0.754c0,0.425,0.146,0.777,0.443,1.056c0.295,0.279,0.7,0.418,1.214,0.418
			c0.29,0,0.563-0.055,0.819-0.164c0.259-0.109,0.499-0.274,0.727-0.493c0.01,0.025,0.022,0.078,0.045,0.155
			c0.049,0.172,0.093,0.303,0.128,0.39h1.305c-0.117-0.238-0.195-0.46-0.238-0.669c-0.041-0.208-0.061-0.531-0.061-0.97l0.014-1.54
			c0-0.572-0.059-0.966-0.179-1.182c-0.117-0.213-0.318-0.39-0.605-0.529c-0.291-0.14-0.729-0.209-1.315-0.209
			c-0.648,0-1.136,0.116-1.465,0.347c-0.329,0.231-0.561,0.589-0.697,1.071l1.199,0.215C102.764,52.862,102.868,52.699,103,52.607z"
			/>
		<path fill="#552988" d="M107.427,56.559v-4.986h1.215v0.681c0.437-0.529,0.954-0.793,1.555-0.793c0.317,0,0.596,0.065,0.832,0.196
			c0.231,0.132,0.426,0.332,0.578,0.597c0.216-0.265,0.453-0.465,0.709-0.597c0.252-0.131,0.521-0.196,0.812-0.196
			c0.368,0,0.676,0.074,0.93,0.224c0.254,0.147,0.441,0.366,0.565,0.653c0.092,0.214,0.136,0.558,0.136,1.034v3.188h-1.318v-2.851
			c0-0.494-0.046-0.813-0.136-0.958c-0.122-0.188-0.311-0.28-0.563-0.28c-0.185,0-0.355,0.056-0.521,0.169
			c-0.164,0.111-0.279,0.276-0.353,0.494s-0.107,0.562-0.107,1.031v2.395h-1.318v-2.732c0-0.485-0.024-0.799-0.071-0.939
			c-0.046-0.142-0.12-0.245-0.221-0.314c-0.097-0.069-0.23-0.103-0.4-0.103c-0.203,0-0.386,0.053-0.55,0.164
			c-0.16,0.109-0.28,0.267-0.349,0.473c-0.071,0.207-0.106,0.551-0.106,1.03v2.422H107.427z"/>
	</g>
</g>
<g>
	<path fill="#552988" d="M3.048,6.97C0.834,5.636-0.82,7.361,0.432,8.691c1.065,1.132,1.367,0.412,4.048,1.72
		c1.1,0.537,1.938,1.664,1.305,0.14C5.043,8.765,4.355,7.758,3.048,6.97z"/>
	<path fill="#552988" d="M66.874,17.572c-1.583-0.843-3.483-1.764-5.143-2.538c0.005-0.001,1.211-0.251,2.754,0.492
		c0,0,1.67-0.337,3.433-0.844c2.391,1.23,5.292,2.603,7.292,3.492c-0.262,0.201-0.517,0.403-0.805,0.591l1.761,3.092
		C73.451,20.79,70.176,19.292,66.874,17.572z M78.334,14.413c-1.361-0.593-4.188-1.88-5.674-2.576
		c0.368-0.943,0.503-2.096,0.365-3.192c2.063,1.018,4.506,2.144,6.296,2.9C79.121,12.519,78.799,13.484,78.334,14.413z
		 M72.229,2.994c-0.491-0.255-3.553-1.93-4.002-2.172l-1.232,0.294c0.68,0.363,4.024,2.2,4.84,2.624
		c2.588,1.338,5.656,2.787,7.686,3.68c0.112,1.051,0.099,2.16-0.052,3.274c-1.937-0.826-4.543-2.035-6.709-3.116
		c-0.04-0.125-0.05-0.263-0.099-0.381c-0.725-1.833-2.8-1.388-3.118-1.312c-0.016,0.001-0.027,0.004-0.04,0.008
		C69.2,5.736,68.99,5.626,68.99,5.626c-2.358-1.25-4.73-2.501-6.546-3.419l-1.273,0.305c1.792,0.883,4.425,2.269,7.078,3.677
		c-1.686,0.398-2.734,0.647-3.369,0.797c-3.021-1.568-5.397-2.709-7.465-3.522c-1.39-0.551-2.114-0.729-3.494-0.866
		c-2.329-0.237-4.12,1.874-1.868,1.938c0.004,0,0.016-0.004,0.016-0.004c4.68,0.137,11.555,4.549,19.767,8.61
		c0.165-0.162,0.313-0.348,0.448-0.551c1.457,0.68,4.231,1.944,5.637,2.561c-0.517,0.859-1.183,1.668-1.997,2.416
		c-2.039-0.897-5.291-2.424-7.865-3.76C42.49,0.481,34.256,10.106,27.565,10.106c-4.754,0-7.668-1.645-5.544-6.222
		c0.129-0.274,0.502-0.957-0.208-0.742c-2.978,0.907-12.481,5.71,0.469,10.548c-1.247,0.262-2.745,0.421-4.7,0.418
		c-2.969-0.003-7.138-0.925-7.788-1.098c-1.083-0.288-1.097,0.713-0.128,1.78c2.718,2.992,11.704,5.841,18.638,5.126
		c3.838-0.397,8.236-3.261,8.236-3.261c-1.061-0.775-3.178,0.138-4.049,0.389c-3.067,0.879-5.245,0.06-5.952-0.98
		c0.618-0.22,1.207-0.439,1.769-0.673c14.975-6.268,19.658-7.015,34.078-2.524c-10.716-1.583-21.606,3.698-26.565,7.135
		c-1.873,1.298-1.803,2.508-0.122,1.797c1.628-0.688,2.467-1.281,3.757-1.362c1.643-0.103,3.667,0.977,4.717,1.48
		c4.931,2.356,10.943-3.644,13.243-5.146c0.88-0.577,1.855-1.153,2.854-1.485c1.86,0.848,4.264,1.992,6.212,3.029
		c3.728,1.94,7.442,3.62,10.346,4.697l2.29,4.017c-2.584-0.844-6.379-2.305-10.482-4.274l-0.8-1.623l-1.596,0.383
		c-2.779-1.495-6.315-3.129-8.823-4.186v0.915c2.207,0.939,5.112,2.28,7.585,3.567l-1.133,0.273v2.571
		c-2.054-1.058-4.668-2.324-6.452-3.126v0.924c1.874,0.854,4.488,2.131,6.452,3.151v3.399l-0.834-0.424
		c-1.871-0.996-4.035-2.039-5.618-2.77v0.928c1.535,0.716,3.503,1.67,5.226,2.587c0.003,0.001,0.883,0.449,1.227,0.624v3.377
		c-0.734-0.363-1.652-0.82-2.176-1.091c-1.37-0.731-3.059-1.57-4.276-2.16v0.936c1.17,0.572,2.657,1.315,3.883,1.97
		c0.445,0.233,1.156,0.585,1.812,0.909c-0.934,0.516-2.646,1.245-4.657,1.062c-0.335-0.172-0.717-0.371-1.037-0.53v0.372l5.794,4.93
		c4.263,0.906,6.893-1.694,6.893-1.694v-12.3l-0.867-1.763c4.251,1.981,8.092,3.406,10.497,4.14l0.705,1.237
		c-1.773-0.182-3.317,0.084-4.551,0.469c-1.282-0.479-3.229-1.221-4.665-1.817l0.56,1.139c0.95,0.38,1.996,0.784,2.902,1.126
		c-1.159,0.506-1.842,1.02-1.842,1.02l5.791,4.931c0,0,4.909-3.125,12.667-1.542l-9.408-13.018
		c7.094,3.887,19.667,6.607,19.667,6.607s-2.62,1.725-8.93-0.233c-0.997-0.308-1.937,0.009-0.542,0.746
		c0.353,0.18,4.276,1.883,8.702,2.135c7.278,0.418,9.839-2.43,10.434-3.347c0.961-1.471-1.17-0.658-4.919-0.633
		c-3.743,0.028-7.48-1.186-9.115-2.061c6.26-0.071,17.814-1.231,18.216-4.962c0.1-0.958-0.593-2.3-1.781-2.745
		c-2.524,2.658-6.545,5.128-12.028,5.28c-6.45,0.177-9.865-0.172-17.841-3.713c1.555-2.174,2.18-4.347,2.275-6.815
		c0.13-3.327-1.347-6.205-4.35-8.049c-3.237-1.993-5.185-2.954-5.185-2.954C75.951,0.607,75.002,0.055,73.275,0
		c1.592,0.83,3.262,1.644,4.615,2.278c0.702,1.037,1.205,2.483,1.494,4.16C77.394,5.548,74.665,4.261,72.229,2.994z"/>
</g>
</svg>
