<?xml version="1.0" encoding="utf-8"?>
<!-- Generator: Adobe Illustrator 16.0.0, SVG Export Plug-In . SVG Version: 6.00 Build 0)  -->
<!DOCTYPE svg PUBLIC "-//W3C//DTD SVG 1.1//EN" "http://www.w3.org/Graphics/SVG/1.1/DTD/svg11.dtd">
<svg version="1.1" id="Layer_1" xmlns="http://www.w3.org/2000/svg" xmlns:xlink="http://www.w3.org/1999/xlink" x="0px" y="0px"
	 width="600px" height="550px" viewBox="0 0 600 550" enable-background="new 0 0 600 550" xml:space="preserve">
<circle fill="#F6FBFF" cx="299.936" cy="275" r="250.488"/>
<path fill="none" stroke="#562E86" stroke-width="2" stroke-linecap="round" stroke-linejoin="round" stroke-miterlimit="10" d="
	M151.051,208.093c-11.443,20.405-18.51,43.212-20.846,66.479"/>
<path fill="none" stroke="#562E86" stroke-width="2" stroke-linecap="round" stroke-linejoin="round" stroke-miterlimit="10" d="
	M514.459,275.001c0,118.442-96.016,214.458-214.461,214.458c-118.441,0-214.457-96.016-214.457-214.458
	c0-118.443,96.016-214.461,214.457-214.461C418.443,60.541,514.459,156.558,514.459,275.001z"/>
<path fill="none" stroke="#562E86" stroke-width="2" stroke-linecap="round" stroke-linejoin="round" stroke-miterlimit="10" d="
	M412.998,163.535c-19.008-16.806-41.732-29.295-66.135-36.249c-26.854-7.651-55.566-8.572-82.859-2.709
	c-28.379,6.099-54.977,19.584-76.75,38.771c-8.266,7.288-15.83,15.371-22.555,24.105"/>
<path fill="none" stroke="#562E86" stroke-width="2" stroke-linecap="round" stroke-linejoin="round" stroke-miterlimit="10" d="
	M469.592,272.708c-3.504-31.558-15.797-61.839-35.449-86.79"/>
<path fill="none" stroke="#562E86" stroke-width="2" stroke-linecap="round" stroke-linejoin="round" stroke-miterlimit="10" d="
	M131.219,316.774c4.861,32.258,19.111,62.978,40.707,87.438c4.191,4.749,8.648,9.663,13.34,13.516
	c4.693,5.707,9.619,5.146,14.752,11.961c5.129,2.125,10.463,7.145,15.969,10.271c11.012,6.255,22.713,11.292,34.855,14.933
	c32.908,9.864,68.789,9.584,101.494-0.975c30.225-9.757,57.598-28.122,78.07-52.405c19.84-23.534,33.139-52.435,38.066-82.821"/>
<path fill="none" stroke="#562E86" stroke-width="2" stroke-linecap="round" stroke-linejoin="round" stroke-miterlimit="10" d="
	M414.617,280.03c-6.682-24.496-21.365-46.496-41.334-62.168c-20.375-15.993-45.762-24.934-71.66-25.281
	c-26.889-0.36-53.439,8.528-74.643,25.077c-20.436,15.949-35.367,38.509-41.92,63.6"/>
<path fill="none" stroke="#562E86" stroke-width="2" stroke-linecap="round" stroke-linejoin="round" stroke-miterlimit="10" d="
	M182.396,294.622c-4.584,32.493,4.682,66.23,25.438,91.672c20.104,24.648,49.684,40.493,81.385,43.354
	c32.32,2.918,64.807-7.672,89.189-29.074c24.182-21.226,38.885-52.011,40.273-84.155c0.303-6.991-0.018-14.013-0.945-20.947"/>
<circle fill="none" stroke="#562E86" stroke-width="2" stroke-linecap="round" stroke-linejoin="round" stroke-miterlimit="10" stroke-dasharray="12,5.5" cx="299.924" cy="338.729" r="36.977"/>
<g>
	<g>
		
			<path fill="none" stroke="#562E86" stroke-width="2" stroke-linecap="round" stroke-linejoin="round" stroke-dasharray="12,5.5" d="
			M215.16,109.488c0,0-145.635,103.205,19.437,226.938"/>
		<g>
			<path fill="#562E86" d="M217.948,335.537c0.053-0.549,0.542-0.952,1.092-0.899l15.23,1.464l-5.114-14.42
				c-0.185-0.521,0.088-1.094,0.607-1.277c0.521-0.184,1.094,0.093,1.277,0.608l5.639,15.9c0.114,0.322,0.056,0.681-0.154,0.95
				s-0.544,0.413-0.884,0.38l-16.793-1.613c-0.196-0.02-0.374-0.094-0.519-0.207C218.069,336.218,217.916,335.89,217.948,335.537z"
				/>
		</g>
	</g>
</g>
<g>
	<g>
		
			<path fill="none" stroke="#562E86" stroke-width="2" stroke-linecap="round" stroke-linejoin="round" stroke-dasharray="12,5.5" d="
			M355.512,337.724c0,0,163.148-72.417,25.758-226.309"/>
		<g>
			<path fill="#562E86" d="M397.414,115.574c-0.159,0.528-0.719,0.827-1.248,0.667l-14.641-4.442l2.166,15.146
				c0.078,0.547-0.303,1.055-0.849,1.132c-0.546,0.078-1.054-0.307-1.132-0.848l-2.388-16.701c-0.048-0.338,0.079-0.678,0.339-0.9
				s0.615-0.297,0.941-0.198l16.144,4.898c0.188,0.057,0.349,0.166,0.468,0.305C397.43,114.882,397.516,115.234,397.414,115.574z"/>
		</g>
	</g>
</g>
<g>
	<path fill="#562E86" d="M119.299,296.822h-6.527c0.136,2.38,1.258,3.179,2.584,3.179c1.173,0,2.125-0.73,2.328-2.022h1.53
		c-0.356,2.176-2.073,3.145-3.927,3.145c-2.346,0-4.097-1.53-4.097-4.709c0-2.923,1.819-4.776,4.284-4.776
		c2.481,0,3.858,1.854,3.858,4.488C119.333,296.261,119.333,296.499,119.299,296.822z M112.789,295.7h5.064
		c-0.136-1.869-0.935-2.94-2.413-2.94C114.012,292.759,112.959,293.779,112.789,295.7z"/>
	<path fill="#562E86" d="M122.801,291.059v0.885h1.854v1.121h-1.854v7.819h-1.461v-7.819h-0.969v-1.121h0.969v-0.748
		c0-0.34,0.017-0.782,0.051-1.088c0.152-1.31,1.037-2.04,2.38-2.04c0.374,0,0.73,0.034,1.036,0.085v1.207
		c-1.104-0.204-1.836,0.051-1.954,0.782C122.818,290.379,122.801,290.804,122.801,291.059z"/>
	<path fill="#562E86" d="M127.73,291.059v0.885h1.854v1.121h-1.854v7.819h-1.461v-7.819h-0.969v-1.121h0.969v-0.748
		c0-0.34,0.017-0.782,0.051-1.088c0.152-1.31,1.037-2.04,2.38-2.04c0.374,0,0.73,0.034,1.036,0.085v1.207
		c-1.104-0.204-1.836,0.051-1.954,0.782C127.748,290.379,127.73,290.804,127.73,291.059z"/>
	<path fill="#562E86" d="M138.492,296.822h-6.527c0.135,2.38,1.258,3.179,2.583,3.179c1.173,0,2.125-0.73,2.329-2.022h1.529
		c-0.356,2.176-2.073,3.145-3.926,3.145c-2.346,0-4.098-1.53-4.098-4.709c0-2.923,1.819-4.776,4.284-4.776
		c2.481,0,3.858,1.854,3.858,4.488C138.525,296.261,138.525,296.499,138.492,296.822z M131.981,295.7h5.065
		c-0.137-1.869-0.936-2.94-2.414-2.94C133.205,292.759,132.151,293.779,131.981,295.7z"/>
	<path fill="#562E86" d="M147.756,294.901h-1.529c-0.323-1.444-1.105-2.142-2.313-2.142c-1.41,0-2.6,1.104-2.6,3.536
		c0,2.617,1.155,3.705,2.498,3.705c1.189,0,2.023-0.68,2.329-1.988h1.53c-0.442,2.091-1.938,3.11-3.944,3.11
		c-2.278,0-4.012-1.428-4.012-4.726c0-3.043,1.972-4.76,4.233-4.76C146.107,291.637,147.484,292.929,147.756,294.901z"/>
	<path fill="#562E86" d="M151.208,298.25c0,0.307,0,0.459,0.017,0.697c0.068,0.867,0.426,1.054,1.564,0.918v1.07
		c-0.426,0.068-0.833,0.086-1.241,0.086c-1.122,0-1.7-0.459-1.784-1.581c-0.018-0.238-0.018-0.612-0.018-1.122v-5.253h-1.207v-1.121
		h1.207v-2.091h1.462v2.091h1.683v1.121h-1.683V298.25z"/>
</g>
<g>
	<path fill="#562E86" d="M445.242,289.853c0,0.526-0.408,0.935-0.936,0.935c-0.526,0-0.935-0.408-0.935-0.935
		c0-0.527,0.408-0.936,0.935-0.936C444.834,288.917,445.242,289.326,445.242,289.853z M443.576,300.884v-9.009h1.462v9.009H443.576z
		"/>
	<path fill="#562E86" d="M459.691,295.377v5.507h-1.463v-4.827c0-0.799-0.017-1.292-0.067-1.751
		c-0.136-1.02-0.782-1.513-1.802-1.513c-1.139,0-1.972,0.9-1.972,3.638v4.453h-1.462v-4.827c0-0.799-0.018-1.292-0.068-1.751
		c-0.136-1.02-0.781-1.513-1.802-1.513c-1.139,0-1.972,0.9-1.972,3.638v4.453h-1.462v-9.009h1.462v1.309l0.578-1.02
		c0.459-0.374,1.104-0.527,1.904-0.527c1.376,0,2.26,0.697,2.6,1.683l0.799-1.155c0.459-0.374,1.105-0.527,1.904-0.527
		c1.615,0,2.533,0.952,2.736,2.193C459.674,294.29,459.691,294.646,459.691,295.377z"/>
	<path fill="#562E86" d="M470.775,296.244c0,3.332-2.074,4.879-4.402,4.879c-0.748,0-1.701-0.221-2.16-0.595l-0.594-0.884v4.572
		h-1.463v-12.341h1.463v1.444l0.68-0.969c0.51-0.425,1.461-0.714,2.379-0.714C469.313,291.637,470.775,293.609,470.775,296.244z
		 M469.178,296.414c0-2.039-0.918-3.654-2.721-3.654c-1.496,0-2.838,0.952-2.838,3.536v0.492c0,2.329,1.461,3.213,2.754,3.213
		C467.953,300,469.178,298.777,469.178,296.414z"/>
	<path fill="#562E86" d="M477.559,299.592l-0.493,0.97c-0.612,0.425-1.394,0.561-2.261,0.561c-1.632,0-2.906-0.901-2.906-2.566
		c0-2.04,1.529-3.094,5.064-3.094h0.578v-0.238c0-0.391,0-0.748-0.033-1.088c-0.068-0.833-0.545-1.377-1.751-1.377
		c-1.224,0-1.836,0.663-1.938,1.904h-1.529c0.136-1.921,1.479-3.026,3.468-3.026c2.142,0,3.042,0.901,3.195,2.38
		c0.034,0.357,0.052,0.799,0.052,1.19v3.382c0,0.681,0.033,1.292,0.17,2.295h-1.463L477.559,299.592z M477.541,297.468v-0.918
		c-2.481-0.188-4.045,0.34-4.045,1.887c0,1.088,0.697,1.563,1.802,1.563C476.658,300,477.541,299.1,477.541,297.468z"/>
	<path fill="#562E86" d="M488.863,294.901h-1.529c-0.324-1.444-1.105-2.142-2.313-2.142c-1.41,0-2.601,1.104-2.601,3.536
		c0,2.617,1.155,3.705,2.499,3.705c1.189,0,2.022-0.68,2.328-1.988h1.53c-0.442,2.091-1.938,3.11-3.944,3.11
		c-2.277,0-4.012-1.428-4.012-4.726c0-3.043,1.973-4.76,4.233-4.76C487.215,291.637,488.592,292.929,488.863,294.901z"/>
	<path fill="#562E86" d="M492.314,298.25c0,0.307,0,0.459,0.018,0.697c0.067,0.867,0.424,1.054,1.563,0.918v1.07
		c-0.424,0.068-0.832,0.086-1.24,0.086c-1.122,0-1.699-0.459-1.785-1.581c-0.017-0.238-0.017-0.612-0.017-1.122v-5.253h-1.207
		v-1.121h1.207v-2.091h1.462v2.091h1.683v1.121h-1.683V298.25z"/>
</g>
<g>
	<path fill="#562E86" d="M296.234,332.849c0,0.748-0.527,1.24-1.292,1.24s-1.292-0.492-1.292-1.24c0-0.731,0.527-1.241,1.292-1.241
		S296.234,332.118,296.234,332.849z M293.77,344.017v-9.043h2.346v9.043H293.77z"/>
	<path fill="#562E86" d="M300.637,341.263v2.754h-2.346v-12.494h2.346v7.581l3.639-4.13h2.821l-4.012,4.198l4.063,4.845h-2.958
		l-2.805-3.57L300.637,341.263z"/>
</g>
<g>
	<path fill="#562E86" d="M278.915,233.667c0,0.306,0,0.562,0.017,0.799c0.068,0.884,0.392,1.088,1.7,0.986v1.529
		c-0.526,0.085-1.02,0.119-1.547,0.119c-1.751,0-2.38-0.578-2.481-1.853c-0.034-0.408-0.034-0.799-0.034-1.309v-4.454h-1.325v-1.547
		h1.325v-2.227h2.346v2.227h1.87v1.547h-1.87V233.667z"/>
	<path fill="#562E86" d="M290.271,233.003h-6.425c0.152,1.904,1.002,2.499,2.09,2.499c1.004,0,1.734-0.561,1.887-1.53h2.346
		c-0.459,2.108-2.158,3.179-4.283,3.179c-2.481,0-4.402-1.547-4.402-4.726c0-2.771,1.818-4.793,4.59-4.793
		c2.771,0,4.232,2.107,4.232,4.572C290.305,232.425,290.305,232.698,290.271,233.003z M283.913,231.474h3.978
		c-0.152-1.428-0.799-2.193-1.921-2.193C284.882,229.281,284.117,229.978,283.913,231.474z"/>
	<path fill="#562E86" d="M297.003,235.587l-0.442,0.969c-0.629,0.425-1.394,0.595-2.243,0.595c-1.563,0-2.907-0.918-2.907-2.635
		c0-1.988,1.7-3.11,4.98-3.11h0.578v-0.187c0-0.272,0-0.544-0.033-0.851c-0.068-0.629-0.477-1.088-1.395-1.088
		c-0.935,0-1.445,0.544-1.513,1.53l-2.278,0.017c0.068-2.039,1.717-3.195,3.876-3.195c2.532,0,3.485,1.104,3.62,2.669
		c0.035,0.425,0.052,0.9,0.052,1.394v2.924c0,0.68,0.034,1.292,0.17,2.295h-2.295L297.003,235.587z M296.969,233.582v-0.73
		c-1.869-0.137-3.127,0.289-3.127,1.479c0,0.799,0.543,1.173,1.377,1.173C296.17,235.502,296.969,234.839,296.969,233.582z"/>
	<path fill="#562E86" d="M314.988,231.525v5.389h-2.346v-4.709c0-0.526-0.018-1.02-0.068-1.479
		c-0.119-0.935-0.629-1.445-1.529-1.445c-1.055,0-1.649,0.901-1.649,2.992v4.641h-2.329v-4.709c0-0.526-0.017-1.02-0.068-1.479
		c-0.118-0.935-0.646-1.445-1.547-1.445c-1.053,0-1.631,0.901-1.631,2.992v4.641h-2.346v-9.043h2.346v1.377l0.662-1.088
		c0.51-0.357,1.105-0.527,1.922-0.527c1.479,0,2.413,0.73,2.77,1.717l0.885-1.189c0.51-0.357,1.121-0.527,1.938-0.527
		c1.717,0,2.703,1.003,2.906,2.244C314.971,230.335,314.988,230.793,314.988,231.525z"/>
	<path fill="#562E86" d="M319.188,237.423l4.268-12.749h1.461l-4.266,12.749H319.188z"/>
	<path fill="#562E86" d="M272.65,257.587l-0.441,0.969c-0.629,0.425-1.395,0.595-2.244,0.595c-1.564,0-2.906-0.918-2.906-2.635
		c0-1.988,1.699-3.11,4.98-3.11h0.577v-0.187c0-0.272,0-0.544-0.034-0.851c-0.067-0.629-0.476-1.088-1.394-1.088
		c-0.935,0-1.444,0.544-1.513,1.53l-2.277,0.017c0.067-2.039,1.717-3.195,3.875-3.195c2.533,0,3.484,1.104,3.621,2.669
		c0.033,0.425,0.051,0.9,0.051,1.394v2.924c0,0.68,0.033,1.292,0.17,2.295h-2.295L272.65,257.587z M272.616,255.582v-0.73
		c-1.87-0.137-3.128,0.289-3.128,1.479c0,0.799,0.545,1.173,1.377,1.173C271.817,257.502,272.616,256.839,272.616,255.582z"/>
	<path fill="#562E86" d="M279.705,249.497v0.441h1.854v1.547h-1.854v7.429h-2.346v-7.429h-0.969v-1.547h0.969v-0.374
		c0-0.306,0-0.73,0.034-1.036c0.136-1.53,1.14-2.432,3.28-2.432c0.375,0,0.731,0.052,1.037,0.119v1.632
		c-1.104-0.204-1.887,0.103-1.972,0.867C279.705,248.953,279.705,249.258,279.705,249.497z"/>
	<path fill="#562E86" d="M291.656,258.914h-2.346v-1.395l-0.68,1.003c-0.511,0.392-1.429,0.629-2.347,0.629
		c-2.532,0-4.028-1.92-4.028-4.589c0-3.281,2.006-4.93,4.334-4.93c0.748,0,1.666,0.187,2.125,0.51l0.596,0.935v-4.657h2.346V258.914
		z M289.311,254.494v-0.441c0-2.04-1.174-2.771-2.262-2.771c-1.359,0-2.362,1.037-2.362,3.128c0,1.853,0.884,3.094,2.278,3.094
		C288.256,257.502,289.311,256.704,289.311,254.494z"/>
	<path fill="#562E86" d="M302.009,255.003h-6.425c0.152,1.904,1.002,2.499,2.09,2.499c1.004,0,1.734-0.561,1.887-1.53h2.346
		c-0.459,2.108-2.158,3.179-4.283,3.179c-2.481,0-4.402-1.547-4.402-4.726c0-2.771,1.818-4.793,4.59-4.793
		c2.771,0,4.232,2.107,4.232,4.572C302.043,254.425,302.043,254.698,302.009,255.003z M295.651,253.474h3.978
		c-0.152-1.428-0.799-2.193-1.921-2.193C296.62,251.281,295.855,251.978,295.651,253.474z"/>
	<path fill="#562E86" d="M305.936,255.956c0,0.357,0,0.595,0.018,0.833c0.051,0.459,0.255,0.612,1.054,0.561v1.615
		c-0.459,0.051-0.918,0.068-1.444,0.068c-1.156,0-1.887-0.426-1.938-1.599c-0.035-0.407-0.035-0.833-0.035-1.428v-9.587h2.346
		V255.956z"/>
	<path fill="#562E86" d="M310.866,247.746c0,0.748-0.526,1.24-1.292,1.24c-0.765,0-1.292-0.492-1.292-1.24
		c0-0.731,0.527-1.241,1.292-1.241C310.34,246.504,310.866,247.014,310.866,247.746z M308.401,258.914v-9.043h2.346v9.043H308.401z"
		/>
	<path fill="#562E86" d="M321.422,253.814v5.1h-2.346v-4.776c0-0.374,0-0.8-0.033-1.258c-0.068-0.952-0.596-1.599-1.734-1.599
		s-2.04,0.986-2.04,3.502v4.131h-2.346v-9.043h2.346v1.462l0.697-1.071c0.646-0.459,1.309-0.629,2.176-0.629
		c1.921,0,3.025,0.952,3.212,2.532C321.405,252.624,321.422,253.083,321.422,253.814z"/>
	<path fill="#562E86" d="M332.268,256.653c0,0.561,0,1.258-0.017,1.751c-0.102,2.821-1.938,4.181-4.794,4.181
		c-2.65,0-4.13-1.104-4.334-3.093l-0.018-0.171h2.278l0.017,0.153c0.103,0.833,0.885,1.36,2.092,1.36
		c1.444,0,2.328-0.731,2.413-2.176c0.017-0.34,0.017-0.714,0.017-1.105v-0.221l-0.68,1.003c-0.51,0.391-1.326,0.629-2.244,0.629
		c-2.549,0-4.13-1.819-4.13-4.471c0-3.28,2.006-4.861,4.335-4.861c0.748,0,1.666,0.187,2.125,0.51l0.594,0.935v-1.206h2.346V256.653
		z M329.922,254.307v-0.255c0-2.04-1.172-2.771-2.26-2.771c-1.36,0-2.363,0.936-2.363,3.009c0,1.854,0.884,3.026,2.277,3.026
		C328.869,257.316,329.922,256.516,329.922,254.307z"/>
</g>
<g>
	<path fill="#562E86" d="M264.397,162.392c0,2.736-1.683,4.759-4.691,4.759s-4.691-2.022-4.691-4.759c0-2.754,1.683-4.76,4.691-4.76
		S264.397,159.638,264.397,162.392z M261.967,162.392c0-1.955-0.85-3.111-2.261-3.111s-2.261,1.156-2.261,3.111
		c0,1.938,0.85,3.11,2.261,3.11S261.967,164.33,261.967,162.392z"/>
	<path fill="#562E86" d="M271.197,157.717v1.887c-1.954-0.136-2.924,0.731-2.924,3.162v4.147h-2.346v-9.043h2.346v1.648l0.715-1.258
		c0.441-0.408,1.037-0.612,1.547-0.612C270.807,157.649,270.994,157.667,271.197,157.717z"/>
	<path fill="#562E86" d="M281.092,164.653c0,0.561,0,1.258-0.018,1.751c-0.102,2.821-1.938,4.181-4.793,4.181
		c-2.652,0-4.131-1.104-4.335-3.093l-0.017-0.171h2.277l0.018,0.153c0.102,0.833,0.883,1.36,2.09,1.36
		c1.445,0,2.329-0.731,2.414-2.176c0.018-0.34,0.018-0.714,0.018-1.105v-0.221l-0.68,1.003c-0.511,0.391-1.326,0.629-2.244,0.629
		c-2.55,0-4.131-1.819-4.131-4.471c0-3.28,2.006-4.861,4.334-4.861c0.748,0,1.666,0.187,2.125,0.51l0.596,0.935v-1.206h2.346
		V164.653z M278.746,162.307v-0.255c0-2.04-1.174-2.771-2.262-2.771c-1.359,0-2.362,0.936-2.362,3.009
		c0,1.854,0.884,3.026,2.278,3.026C277.691,165.316,278.746,164.516,278.746,162.307z"/>
	<path fill="#562E86" d="M288.351,165.587l-0.442,0.969c-0.629,0.425-1.394,0.595-2.243,0.595c-1.563,0-2.907-0.918-2.907-2.635
		c0-1.988,1.7-3.11,4.98-3.11h0.578v-0.187c0-0.272,0-0.544-0.033-0.851c-0.068-0.629-0.477-1.088-1.395-1.088
		c-0.935,0-1.445,0.544-1.513,1.53l-2.278,0.017c0.068-2.039,1.717-3.195,3.876-3.195c2.532,0,3.485,1.104,3.62,2.669
		c0.035,0.425,0.052,0.9,0.052,1.394v2.924c0,0.68,0.034,1.292,0.17,2.295h-2.295L288.351,165.587z M288.316,163.582v-0.73
		c-1.869-0.137-3.127,0.289-3.127,1.479c0,0.799,0.543,1.173,1.377,1.173C287.518,165.502,288.316,164.839,288.316,163.582z"/>
	<path fill="#562E86" d="M301.32,161.814v5.1h-2.346v-4.776c0-0.374,0-0.8-0.033-1.258c-0.068-0.952-0.596-1.599-1.734-1.599
		s-2.039,0.986-2.039,3.502v4.131h-2.346v-9.043h2.346v1.462l0.697-1.071c0.646-0.459,1.309-0.629,2.176-0.629
		c1.92,0,3.025,0.952,3.212,2.532C301.305,160.624,301.32,161.083,301.32,161.814z"/>
	<path fill="#562E86" d="M305.844,155.746c0,0.748-0.527,1.24-1.292,1.24s-1.292-0.492-1.292-1.24c0-0.731,0.527-1.241,1.292-1.241
		S305.844,155.014,305.844,155.746z M303.379,166.914v-9.043h2.346v9.043H303.379z"/>
	<path fill="#562E86" d="M314.717,160.488h-2.346c-0.152-0.833-0.611-1.309-1.394-1.309c-0.696,0-1.071,0.408-1.071,0.969
		c0,0.68,0.562,1.037,2.057,1.411c1.854,0.476,2.941,1.224,2.941,2.89c0,1.818-1.648,2.702-3.723,2.702
		c-2.193,0-3.74-0.951-3.994-2.991h2.346c0.187,0.985,0.867,1.444,1.683,1.444c0.747,0,1.325-0.322,1.325-0.985
		c0-0.697-0.594-1.088-2.158-1.479c-1.684-0.426-2.839-1.156-2.839-2.72c0-1.734,1.428-2.788,3.587-2.788
		C313.289,157.632,314.514,158.839,314.717,160.488z"/>
	<path fill="#562E86" d="M321.432,165.587l-0.441,0.969c-0.629,0.425-1.395,0.595-2.244,0.595c-1.563,0-2.906-0.918-2.906-2.635
		c0-1.988,1.699-3.11,4.98-3.11h0.578v-0.187c0-0.272,0-0.544-0.034-0.851c-0.067-0.629-0.476-1.088-1.394-1.088
		c-0.936,0-1.445,0.544-1.514,1.53l-2.277,0.017c0.068-2.039,1.717-3.195,3.875-3.195c2.533,0,3.485,1.104,3.621,2.669
		c0.034,0.425,0.051,0.9,0.051,1.394v2.924c0,0.68,0.034,1.292,0.17,2.295h-2.295L321.432,165.587z M321.398,163.582v-0.73
		c-1.87-0.137-3.128,0.289-3.128,1.479c0,0.799,0.544,1.173,1.377,1.173C320.6,165.502,321.398,164.839,321.398,163.582z"/>
	<path fill="#562E86" d="M328.708,163.667c0,0.306,0,0.562,0.017,0.799c0.068,0.884,0.392,1.088,1.7,0.986v1.529
		c-0.526,0.085-1.02,0.119-1.547,0.119c-1.751,0-2.38-0.578-2.481-1.853c-0.034-0.408-0.034-0.799-0.034-1.309v-4.454h-1.325v-1.547
		h1.325v-2.227h2.346v2.227h1.87v1.547h-1.87V163.667z"/>
	<path fill="#562E86" d="M334.506,155.746c0,0.748-0.527,1.24-1.293,1.24c-0.764,0-1.291-0.492-1.291-1.24
		c0-0.731,0.527-1.241,1.291-1.241C333.979,154.504,334.506,155.014,334.506,155.746z M332.041,166.914v-9.043h2.346v9.043H332.041z
		"/>
	<path fill="#562E86" d="M344.738,163.003h-6.426c0.153,1.904,1.004,2.499,2.092,2.499c1.002,0,1.733-0.561,1.887-1.53h2.346
		c-0.459,2.108-2.159,3.179-4.284,3.179c-2.481,0-4.402-1.547-4.402-4.726c0-2.771,1.819-4.793,4.589-4.793
		c2.771,0,4.233,2.107,4.233,4.572C344.772,162.425,344.772,162.698,344.738,163.003z M338.381,161.474h3.978
		c-0.153-1.428-0.799-2.193-1.921-2.193C339.35,159.281,338.585,159.978,338.381,161.474z"/>
</g>
<g>
	<path fill="#562E86" d="M259.662,94.191v5.389h-2.346v-4.708c0-0.527-0.018-1.021-0.068-1.479
		c-0.119-0.935-0.629-1.444-1.529-1.444c-1.055,0-1.648,0.9-1.648,2.991v4.641h-2.33v-4.708c0-0.527-0.016-1.021-0.067-1.479
		c-0.118-0.935-0.646-1.444-1.547-1.444c-1.054,0-1.632,0.9-1.632,2.991v4.641h-2.346v-9.043h2.346v1.377l0.663-1.088
		c0.51-0.356,1.104-0.527,1.921-0.527c1.479,0,2.414,0.731,2.771,1.717l0.884-1.189c0.51-0.356,1.122-0.527,1.938-0.527
		c1.717,0,2.703,1.003,2.907,2.244C259.645,93.001,259.662,93.46,259.662,94.191z"/>
	<path fill="#562E86" d="M266.803,98.254l-0.441,0.969c-0.629,0.425-1.395,0.595-2.244,0.595c-1.564,0-2.906-0.918-2.906-2.635
		c0-1.989,1.699-3.11,4.98-3.11h0.578v-0.188c0-0.271,0-0.544-0.035-0.85c-0.067-0.629-0.476-1.088-1.394-1.088
		c-0.935,0-1.444,0.544-1.513,1.529l-2.277,0.018c0.067-2.04,1.717-3.196,3.875-3.196c2.533,0,3.484,1.105,3.621,2.669
		c0.033,0.425,0.051,0.901,0.051,1.395v2.923c0,0.681,0.033,1.292,0.17,2.295h-2.295L266.803,98.254z M266.77,96.249v-0.731
		c-1.871-0.136-3.129,0.289-3.129,1.479c0,0.799,0.545,1.173,1.377,1.173C265.97,98.169,266.77,97.506,266.77,96.249z"/>
	<path fill="#562E86" d="M276.356,98.254l-0.442,0.969c-0.629,0.425-1.394,0.595-2.243,0.595c-1.563,0-2.907-0.918-2.907-2.635
		c0-1.989,1.7-3.11,4.98-3.11h0.578v-0.188c0-0.271,0-0.544-0.033-0.85c-0.068-0.629-0.477-1.088-1.395-1.088
		c-0.935,0-1.445,0.544-1.513,1.529l-2.278,0.018c0.068-2.04,1.717-3.196,3.876-3.196c2.532,0,3.485,1.105,3.62,2.669
		c0.035,0.425,0.052,0.901,0.052,1.395v2.923c0,0.681,0.034,1.292,0.17,2.295h-2.295L276.356,98.254z M276.322,96.249v-0.731
		c-1.869-0.136-3.127,0.289-3.127,1.479c0,0.799,0.543,1.173,1.377,1.173C275.523,98.169,276.322,97.506,276.322,96.249z"/>
	<path fill="#562E86" d="M283.633,96.333c0,0.306,0,0.561,0.018,0.799c0.067,0.884,0.391,1.088,1.699,0.985v1.53
		c-0.527,0.085-1.02,0.119-1.547,0.119c-1.75,0-2.379-0.578-2.481-1.854c-0.034-0.407-0.034-0.799-0.034-1.309v-4.453h-1.326v-1.547
		h1.326v-2.227h2.346v2.227h1.87v1.547h-1.87V96.333z"/>
	<path fill="#562E86" d="M293.781,93.155h-2.346c-0.152-0.833-0.611-1.31-1.395-1.31c-0.696,0-1.07,0.408-1.07,0.97
		c0,0.68,0.561,1.036,2.057,1.41c1.854,0.477,2.941,1.225,2.941,2.89c0,1.819-1.649,2.703-3.723,2.703
		c-2.193,0-3.74-0.952-3.995-2.992h2.346c0.187,0.986,0.867,1.445,1.683,1.445c0.748,0,1.326-0.323,1.326-0.986
		c0-0.696-0.595-1.088-2.158-1.479c-1.684-0.425-2.84-1.156-2.84-2.72c0-1.733,1.428-2.788,3.588-2.788
		C292.354,90.298,293.577,91.505,293.781,93.155z"/>
	<path fill="#562E86" d="M303.455,93.8h-2.313c-0.221-1.309-0.9-1.853-1.869-1.853c-1.19,0-2.041,0.969-2.041,3.025
		c0,2.244,0.851,3.196,2.023,3.196c0.918,0,1.598-0.578,1.836-1.717h2.346c-0.391,2.227-2.057,3.365-4.318,3.365
		c-2.465,0-4.316-1.563-4.316-4.691c0-3.094,2.039-4.828,4.521-4.828C301.771,90.298,303.284,91.794,303.455,93.8z"/>
	<path fill="#562E86" d="M313.449,94.48v5.1h-2.346v-4.776c0-0.374,0-0.799-0.033-1.258c-0.068-0.952-0.596-1.598-1.734-1.598
		c-1.139,0.017-2.039,0.985-2.039,3.502v4.13h-2.346V87.001h2.346v4.997l0.697-1.071c0.645-0.458,1.309-0.629,2.176-0.629
		c1.92,0,3.025,0.952,3.212,2.533C313.434,93.291,313.449,93.75,313.449,94.48z"/>
	<path fill="#562E86" d="M320.59,98.254l-0.441,0.969c-0.629,0.425-1.395,0.595-2.244,0.595c-1.564,0-2.906-0.918-2.906-2.635
		c0-1.989,1.699-3.11,4.98-3.11h0.578v-0.188c0-0.271,0-0.544-0.035-0.85c-0.067-0.629-0.476-1.088-1.394-1.088
		c-0.935,0-1.444,0.544-1.513,1.529l-2.277,0.018c0.067-2.04,1.717-3.196,3.875-3.196c2.533,0,3.484,1.105,3.621,2.669
		c0.033,0.425,0.051,0.901,0.051,1.395v2.923c0,0.681,0.033,1.292,0.17,2.295h-2.295L320.59,98.254z M320.557,96.249v-0.731
		c-1.871-0.136-3.129,0.289-3.129,1.479c0,0.799,0.545,1.173,1.377,1.173C319.757,98.169,320.557,97.506,320.557,96.249z"/>
	<path fill="#562E86" d="M334.461,94.888c0,3.264-2.005,4.93-4.334,4.93c-0.748,0-1.666-0.188-2.125-0.51l-0.595-0.936v4.539h-2.346
		V90.537h2.346v1.377l0.681-0.986c0.51-0.407,1.428-0.629,2.346-0.629C332.966,90.298,334.461,92.219,334.461,94.888z
		 M332.031,95.042c0-1.853-0.885-3.094-2.278-3.094c-1.292,0-2.346,0.799-2.346,3.009v0.425c0,2.057,1.173,2.788,2.261,2.788
		C331.027,98.169,332.031,97.132,332.031,95.042z"/>
	<path fill="#562E86" d="M345.393,94.888c0,3.264-2.006,4.93-4.335,4.93c-0.747,0-1.665-0.188-2.124-0.51l-0.596-0.936v4.539h-2.346
		V90.537h2.346v1.377l0.68-0.986c0.51-0.407,1.428-0.629,2.346-0.629C343.896,90.298,345.393,92.219,345.393,94.888z
		 M342.961,95.042c0-1.853-0.883-3.094-2.277-3.094c-1.291,0-2.346,0.799-2.346,3.009v0.425c0,2.057,1.173,2.788,2.261,2.788
		C341.959,98.169,342.961,97.132,342.961,95.042z"/>
	<path fill="#562E86" d="M349.388,88.412c0,0.748-0.526,1.241-1.292,1.241c-0.765,0-1.291-0.493-1.291-1.241
		c0-0.73,0.526-1.24,1.291-1.24C348.861,87.171,349.388,87.681,349.388,88.412z M346.923,99.58v-9.043h2.346v9.043H346.923z"/>
	<path fill="#562E86" d="M353.723,99.784c0,0.34-0.018,0.782-0.034,1.088c-0.118,1.428-0.935,2.278-3.009,2.278
		c-0.322,0-0.611-0.018-0.867-0.052v-1.665c1.021,0.085,1.463-0.137,1.547-0.833c0.018-0.238,0.035-0.527,0.035-0.782v-9.281h2.328
		V99.784z M353.842,88.412c0,0.816-0.441,1.241-1.275,1.241c-0.85,0-1.291-0.425-1.291-1.241c0-0.815,0.441-1.24,1.291-1.24
		C353.4,87.171,353.842,87.596,353.842,88.412z"/>
</g>
</svg>
