<?xml version="1.0" encoding="utf-8"?>
<!-- Generator: Adobe Illustrator 16.0.0, SVG Export Plug-In . SVG Version: 6.00 Build 0)  -->
<!DOCTYPE svg PUBLIC "-//W3C//DTD SVG 1.1//EN" "http://www.w3.org/Graphics/SVG/1.1/DTD/svg11.dtd">
<svg version="1.1" id="Layer_1" xmlns="http://www.w3.org/2000/svg" xmlns:xlink="http://www.w3.org/1999/xlink" x="0px" y="0px"
	 width="600px" height="550px" viewBox="0 0 600 550" enable-background="new 0 0 600 550" xml:space="preserve">
<circle fill="#E6F4FF" cx="299.999" cy="275" r="250.487"/>
<path fill="none" stroke="#562E86" stroke-width="2" stroke-linecap="round" stroke-linejoin="round" stroke-miterlimit="10" stroke-dasharray="12,5.5" d="
	M139.966,141.849c0.191-0.45,6.219,4.107,18.428,10.61c11.814,7.665,27.92,16.717,46.072,26.527
	c18.063,10.454,40.246,22.587,59.895,34.485c21.18,14.861,44.145,23.715,59.895,34.484c19.033,9.408,34.555,19.895,46.072,26.528
	c11.52,6.63,18.43,10.608,18.43,10.608s-24.924,13-58.154,30.333c-16.613,8.671-35.723,20.626-54,28.171
	c-18.594,9.244-37.85,19.196-54,28.169c-17.332,10.365-31.295,16.304-41.537,21.669c-9.178,5.947-14.93,9.249-16.615,8.668"/>
<path fill="none" stroke="#562E86" stroke-width="2" stroke-linecap="round" stroke-linejoin="round" stroke-miterlimit="10" d="
	M461.167,139.307c0.568,0.688-7.363,4.176-18.623,10.266c-11.943,6.633-28.23,15.163-46.555,25.665
	c-18.535,11.041-39.568,21.816-60.516,33.367c-62.848,34.646-125.695,69.294-125.695,69.294s6.547,3.583,17.463,9.555
	c10.914,5.973,26.191,14.336,43.658,23.89c15.553,9.353,38.48,19.471,56.75,31.059c19.656,12.582,39.141,22.429,56.754,31.058
	c17.922,9.159,32.887,17.053,43.654,23.887c10.912,5.973,17.459,9.555,17.459,9.555"/>
<g>
	<path fill="#562E86" d="M104.813,285.887h-2.618l-3.519-9.043h2.601l2.278,7.275l2.227-7.275h2.533L104.813,285.887z"/>
	<path fill="#562E86" d="M117.239,281.977h-6.425c0.153,1.904,1.003,2.499,2.091,2.499c1.003,0,1.734-0.561,1.887-1.53h2.346
		c-0.459,2.108-2.159,3.179-4.284,3.179c-2.481,0-4.402-1.547-4.402-4.726c0-2.771,1.819-4.793,4.589-4.793
		c2.771,0,4.233,2.108,4.233,4.573C117.273,281.399,117.273,281.671,117.239,281.977z M110.882,280.447h3.978
		c-0.153-1.428-0.799-2.193-1.921-2.193C111.851,278.254,111.086,278.952,110.882,280.447z"/>
	<path fill="#562E86" d="M124.159,276.69v1.887c-1.955-0.136-2.924,0.731-2.924,3.162v4.147h-2.346v-9.043h2.346v1.649l0.714-1.258
		c0.442-0.408,1.037-0.612,1.547-0.612C123.768,276.623,123.955,276.64,124.159,276.69z"/>
	<path fill="#562E86" d="M127.626,282.929c0,0.357,0,0.595,0.017,0.833c0.051,0.459,0.255,0.612,1.054,0.561v1.615
		c-0.459,0.051-0.918,0.068-1.445,0.068c-1.156,0-1.887-0.425-1.938-1.598c-0.034-0.408-0.034-0.833-0.034-1.428v-9.587h2.346
		V282.929z"/>
	<path fill="#562E86" d="M138.268,281.977h-6.425c0.153,1.904,1.003,2.499,2.091,2.499c1.003,0,1.734-0.561,1.887-1.53h2.346
		c-0.459,2.108-2.159,3.179-4.284,3.179c-2.481,0-4.402-1.547-4.402-4.726c0-2.771,1.819-4.793,4.589-4.793
		c2.771,0,4.233,2.108,4.233,4.573C138.302,281.399,138.302,281.671,138.268,281.977z M131.911,280.447h3.978
		c-0.153-1.428-0.799-2.193-1.921-2.193C132.879,278.254,132.115,278.952,131.911,280.447z"/>
	<path fill="#562E86" d="M148.706,285.887h-2.346v-1.394l-0.68,1.003c-0.51,0.391-1.428,0.629-2.346,0.629
		c-2.533,0-4.029-1.92-4.029-4.589c0-3.281,2.006-4.93,4.334-4.93c0.748,0,1.666,0.187,2.125,0.51l0.595,0.935v-4.657h2.346V285.887
		z M146.36,281.467v-0.442c0-2.04-1.173-2.771-2.261-2.771c-1.36,0-2.363,1.037-2.363,3.128c0,1.853,0.884,3.094,2.278,3.094
		C145.306,284.476,146.36,283.677,146.36,281.467z"/>
	<path fill="#562E86" d="M159.059,281.977h-6.425c0.153,1.904,1.003,2.499,2.091,2.499c1.003,0,1.734-0.561,1.887-1.53h2.346
		c-0.459,2.108-2.159,3.179-4.284,3.179c-2.481,0-4.402-1.547-4.402-4.726c0-2.771,1.819-4.793,4.589-4.793
		c2.771,0,4.233,2.108,4.233,4.573C159.093,281.399,159.093,281.671,159.059,281.977z M152.701,280.447h3.978
		c-0.153-1.428-0.799-2.193-1.921-2.193C153.67,278.254,152.905,278.952,152.701,280.447z"/>
	<path fill="#562E86" d="M169.207,280.787v5.1h-2.346v-4.776c0-0.374,0-0.799-0.034-1.258c-0.068-0.952-0.595-1.598-1.734-1.598
		c-1.139,0-2.04,0.986-2.04,3.502v4.13h-2.346v-9.043h2.346v1.462l0.697-1.071c0.646-0.458,1.309-0.629,2.176-0.629
		c1.92,0,3.025,0.952,3.212,2.533C169.19,279.597,169.207,280.056,169.207,280.787z"/>
</g>
<g>
	<path fill="#562E86" d="M284.286,280.787v5.1h-2.346v-4.776c0-0.374,0-0.799-0.034-1.258c-0.068-0.952-0.595-1.598-1.734-1.598
		c-1.139,0.017-2.04,0.986-2.04,3.502v4.13h-2.346v-12.579h2.346v4.998l0.697-1.071c0.646-0.458,1.309-0.629,2.176-0.629
		c1.92,0,3.025,0.952,3.212,2.533C284.269,279.597,284.286,280.056,284.286,280.787z"/>
	<path fill="#562E86" d="M294.52,281.977h-6.425c0.153,1.904,1.003,2.499,2.091,2.499c1.003,0,1.734-0.561,1.887-1.53h2.346
		c-0.459,2.108-2.159,3.179-4.284,3.179c-2.481,0-4.402-1.547-4.402-4.726c0-2.771,1.819-4.793,4.589-4.793
		c2.771,0,4.233,2.108,4.233,4.573C294.554,281.399,294.554,281.671,294.52,281.977z M288.162,280.447h3.978
		c-0.153-1.428-0.799-2.193-1.921-2.193C289.131,278.254,288.366,278.952,288.162,280.447z"/>
	<path fill="#562E86" d="M304.957,285.887h-2.346v-1.394l-0.68,1.003c-0.51,0.391-1.428,0.629-2.346,0.629
		c-2.533,0-4.028-1.92-4.028-4.589c0-3.281,2.006-4.93,4.334-4.93c0.748,0,1.666,0.187,2.125,0.51l0.595,0.935v-4.657h2.346V285.887
		z M302.611,281.467v-0.442c0-2.04-1.173-2.771-2.261-2.771c-1.36,0-2.363,1.037-2.363,3.128c0,1.853,0.884,3.094,2.278,3.094
		C301.558,284.476,302.611,283.677,302.611,281.467z"/>
	<path fill="#562E86" d="M315.31,281.977h-6.425c0.153,1.904,1.003,2.499,2.091,2.499c1.003,0,1.734-0.561,1.887-1.53h2.346
		c-0.459,2.108-2.159,3.179-4.284,3.179c-2.481,0-4.402-1.547-4.402-4.726c0-2.771,1.819-4.793,4.589-4.793
		c2.771,0,4.233,2.108,4.233,4.573C315.344,281.399,315.344,281.671,315.31,281.977z M308.953,280.447h3.978
		c-0.153-1.428-0.799-2.193-1.921-2.193C309.921,278.254,309.157,278.952,308.953,280.447z"/>
	<path fill="#562E86" d="M325.459,280.787v5.1h-2.346v-4.776c0-0.374,0-0.799-0.034-1.258c-0.068-0.952-0.595-1.598-1.734-1.598
		c-1.139,0-2.04,0.986-2.04,3.502v4.13h-2.346v-9.043h2.346v1.462l0.697-1.071c0.646-0.458,1.309-0.629,2.176-0.629
		c1.92,0,3.025,0.952,3.212,2.533C325.442,279.597,325.459,280.056,325.459,280.787z"/>
</g>
<g>
	<path fill="#562E86" d="M91.25,320.782h-1.734l-2.006-7.581l-2.006,7.581h-1.734l-2.873-9.009h1.683l2.091,7.615l1.972-7.615h1.819
		l2.006,7.564l2.091-7.564h1.564L91.25,320.782z"/>
	<path fill="#562E86" d="M100.499,319.49l-0.493,0.969c-0.612,0.425-1.394,0.561-2.261,0.561c-1.632,0-2.907-0.901-2.907-2.566
		c0-2.04,1.53-3.094,5.065-3.094h0.578v-0.238c0-0.391,0-0.748-0.034-1.088c-0.068-0.833-0.544-1.376-1.75-1.376
		c-1.224,0-1.836,0.663-1.938,1.904h-1.53c0.136-1.921,1.479-3.026,3.468-3.026c2.142,0,3.042,0.901,3.195,2.38
		c0.034,0.357,0.051,0.799,0.051,1.19v3.382c0,0.68,0.034,1.292,0.17,2.295h-1.462L100.499,319.49z M100.481,317.365v-0.918
		c-2.482-0.187-4.045,0.34-4.045,1.887c0,1.088,0.697,1.564,1.802,1.564C99.598,319.898,100.481,318.997,100.481,317.365z"/>
	<path fill="#562E86" d="M109.525,319.49l-0.493,0.969c-0.612,0.425-1.394,0.561-2.261,0.561c-1.632,0-2.907-0.901-2.907-2.566
		c0-2.04,1.53-3.094,5.065-3.094h0.578v-0.238c0-0.391,0-0.748-0.034-1.088c-0.068-0.833-0.544-1.376-1.75-1.376
		c-1.224,0-1.836,0.663-1.938,1.904h-1.53c0.136-1.921,1.479-3.026,3.468-3.026c2.142,0,3.042,0.901,3.195,2.38
		c0.034,0.357,0.051,0.799,0.051,1.19v3.382c0,0.68,0.034,1.292,0.17,2.295h-1.462L109.525,319.49z M109.508,317.365v-0.918
		c-2.482-0.187-4.045,0.34-4.045,1.887c0,1.088,0.697,1.564,1.802,1.564C108.625,319.898,109.508,318.997,109.508,317.365z"/>
	<path fill="#562E86" d="M117.685,311.688v1.105c-1.53-0.102-2.686,0.799-2.686,2.856v5.133h-1.462v-9.009H115v1.411l0.816-1.207
		c0.374-0.255,0.833-0.408,1.258-0.408C117.311,311.569,117.515,311.603,117.685,311.688z"/>
	<path fill="#562E86" d="M127.137,316.277c0,2.533-1.411,4.742-4.471,4.742s-4.471-2.209-4.471-4.742
		c0-2.55,1.411-4.743,4.471-4.743S127.137,313.728,127.137,316.277z M125.539,316.277c0-2.125-1.054-3.621-2.873-3.621
		s-2.873,1.496-2.873,3.621c0,2.107,1.054,3.621,2.873,3.621S125.539,318.385,125.539,316.277z"/>
	<path fill="#562E86" d="M140.974,315.274v5.507h-1.462v-4.828c0-0.799-0.017-1.292-0.068-1.75c-0.136-1.02-0.782-1.513-1.802-1.513
		c-1.139,0-1.972,0.901-1.972,3.638v4.454h-1.461v-4.828c0-0.799-0.017-1.292-0.068-1.75c-0.136-1.02-0.782-1.513-1.802-1.513
		c-1.139,0-1.972,0.901-1.972,3.638v4.454h-1.462v-9.009h1.462v1.309l0.578-1.02c0.459-0.374,1.104-0.527,1.904-0.527
		c1.376,0,2.261,0.697,2.601,1.683l0.799-1.156c0.459-0.374,1.105-0.527,1.904-0.527c1.615,0,2.533,0.952,2.737,2.193
		C140.957,314.187,140.974,314.543,140.974,315.274z"/>
	<path fill="#562E86" d="M154.982,320.782h-1.462v-1.445l-0.68,0.969c-0.51,0.425-1.462,0.714-2.38,0.714
		c-2.635,0-4.097-1.972-4.097-4.606c0-3.332,2.074-4.878,4.403-4.878c0.748,0,1.7,0.221,2.159,0.595l0.595,0.884v-4.726h1.462
		V320.782z M153.521,316.362v-0.493c0-2.329-1.461-3.212-2.753-3.212c-1.581,0-2.805,1.224-2.805,3.586
		c0,2.04,0.918,3.655,2.72,3.655C152.178,319.898,153.521,318.946,153.521,316.362z"/>
	<path fill="#562E86" d="M165.76,316.277c0,2.533-1.411,4.742-4.471,4.742s-4.471-2.209-4.471-4.742c0-2.55,1.411-4.743,4.471-4.743
		S165.76,313.728,165.76,316.277z M164.162,316.277c0-2.125-1.054-3.621-2.873-3.621s-2.873,1.496-2.873,3.621
		c0,2.107,1.054,3.621,2.873,3.621S164.162,318.385,164.162,316.277z"/>
	<path fill="#562E86" d="M174.889,316.719h-6.527c0.136,2.38,1.258,3.179,2.583,3.179c1.173,0,2.125-0.731,2.329-2.023h1.53
		c-0.357,2.176-2.074,3.145-3.927,3.145c-2.346,0-4.097-1.53-4.097-4.708c0-2.923,1.819-4.776,4.284-4.776
		c2.482,0,3.859,1.853,3.859,4.488C174.923,316.158,174.923,316.396,174.889,316.719z M168.379,315.597h5.065
		c-0.136-1.87-0.935-2.94-2.414-2.94C169.603,312.657,168.549,313.676,168.379,315.597z"/>
	<path fill="#562E86" d="M182.2,309.75c0,0.527-0.408,0.935-0.935,0.935s-0.935-0.408-0.935-0.935c0-0.527,0.408-0.935,0.935-0.935
		S182.2,309.223,182.2,309.75z M180.534,320.782v-9.009h1.462v9.009H180.534z"/>
	<path fill="#562E86" d="M186.892,316.974l-0.85,0.935v2.873h-1.462v-12.494h1.462v8.023l4.199-4.539h1.87l-4.199,4.25l4.25,4.759
		h-1.989L186.892,316.974z"/>
	<path fill="#562E86" d="M103.813,342.782h-1.734l-2.006-7.581l-2.006,7.581h-1.734l-2.873-9.009h1.683l2.091,7.615l1.972-7.615
		h1.819l2.006,7.564l2.091-7.564h1.564L103.813,342.782z"/>
	<path fill="#562E86" d="M113.062,341.49l-0.493,0.969c-0.612,0.425-1.394,0.561-2.261,0.561c-1.632,0-2.907-0.901-2.907-2.566
		c0-2.04,1.53-3.094,5.065-3.094h0.578v-0.238c0-0.391,0-0.748-0.034-1.088c-0.068-0.833-0.544-1.376-1.75-1.376
		c-1.224,0-1.836,0.663-1.938,1.904h-1.53c0.136-1.921,1.479-3.026,3.468-3.026c2.142,0,3.042,0.901,3.195,2.38
		c0.034,0.357,0.051,0.799,0.051,1.19v3.382c0,0.68,0.034,1.292,0.17,2.295h-1.462L113.062,341.49z M113.044,339.365v-0.918
		c-2.482-0.187-4.045,0.34-4.045,1.887c0,1.088,0.697,1.564,1.802,1.564C112.161,341.898,113.044,340.997,113.044,339.365z"/>
	<path fill="#562E86" d="M118.825,340.147c0,0.306,0,0.459,0.017,0.697c0.068,0.867,0.425,1.054,1.563,0.918v1.071
		c-0.425,0.068-0.833,0.085-1.241,0.085c-1.122,0-1.7-0.459-1.785-1.581c-0.017-0.238-0.017-0.612-0.017-1.122v-5.252h-1.207v-1.122
		h1.207v-2.091h1.462v2.091h1.683v1.122h-1.683V340.147z"/>
	<path fill="#562E86" d="M127.732,331.75c0,0.527-0.408,0.935-0.935,0.935s-0.935-0.408-0.935-0.935
		c0-0.527,0.408-0.935,0.935-0.935S127.732,331.223,127.732,331.75z M126.066,342.782v-9.009h1.462v9.009H126.066z"/>
	<path fill="#562E86" d="M132.424,338.974l-0.85,0.935v2.873h-1.462v-12.494h1.462v8.023l4.199-4.539h1.87l-4.199,4.25l4.25,4.759
		h-1.989L132.424,338.974z"/>
	<path fill="#562E86" d="M150.528,342.782h-1.462v-1.445l-0.68,0.969c-0.51,0.425-1.462,0.714-2.38,0.714
		c-2.635,0-4.097-1.972-4.097-4.606c0-3.332,2.074-4.878,4.403-4.878c0.748,0,1.7,0.221,2.159,0.595l0.595,0.884v-4.726h1.462
		V342.782z M149.066,338.362v-0.493c0-2.329-1.461-3.212-2.753-3.212c-1.581,0-2.805,1.224-2.805,3.586
		c0,2.04,0.918,3.655,2.72,3.655C147.723,341.898,149.066,340.946,149.066,338.362z"/>
	<path fill="#562E86" d="M161.306,338.277c0,2.533-1.411,4.742-4.471,4.742s-4.471-2.209-4.471-4.742
		c0-2.55,1.411-4.743,4.471-4.743S161.306,335.728,161.306,338.277z M159.708,338.277c0-2.125-1.054-3.621-2.873-3.621
		s-2.873,1.496-2.873,3.621c0,2.107,1.054,3.621,2.873,3.621S159.708,340.385,159.708,338.277z"/>
	<path fill="#562E86" d="M170.435,338.719h-6.527c0.136,2.38,1.258,3.179,2.583,3.179c1.173,0,2.125-0.731,2.329-2.023h1.53
		c-0.357,2.176-2.074,3.145-3.927,3.145c-2.346,0-4.097-1.53-4.097-4.708c0-2.923,1.819-4.776,4.284-4.776
		c2.482,0,3.859,1.853,3.859,4.488C170.469,338.158,170.469,338.396,170.435,338.719z M163.925,337.597h5.065
		c-0.136-1.87-0.935-2.94-2.414-2.94C165.148,334.657,164.095,335.676,163.925,337.597z"/>
	<path fill="#562E86" d="M179.105,333.926c0,1.19-0.578,2.261-1.785,3.467c-1.037,1.037-1.292,1.496-1.343,2.329h-1.462
		c0.102-1.003,0.408-1.632,1.36-2.72c1.207-1.377,1.598-2.057,1.598-3.077c0-1.173-0.731-1.955-1.955-1.955
		c-1.275,0-2.142,0.833-2.244,2.414h-1.53c0.068-2.176,1.598-3.57,3.825-3.57C177.847,330.815,179.105,332.175,179.105,333.926z
		 M176.334,341.932c0,0.629-0.459,1.088-1.088,1.088s-1.088-0.459-1.088-1.088s0.459-1.088,1.088-1.088
		S176.334,341.303,176.334,341.932z"/>
</g>
<g>
	<path fill="#562E86" d="M429.81,282.64c0,0.306,0,0.561,0.017,0.799c0.068,0.884,0.391,1.088,1.7,0.986v1.53
		c-0.527,0.085-1.02,0.119-1.547,0.119c-1.75,0-2.379-0.578-2.481-1.853c-0.034-0.408-0.034-0.799-0.034-1.309v-4.454h-1.326v-1.547
		h1.326v-2.227h2.346v2.227h1.87v1.547h-1.87V282.64z"/>
	<path fill="#562E86" d="M441.76,281.365c0,2.737-1.683,4.759-4.691,4.759s-4.691-2.022-4.691-4.759c0-2.754,1.683-4.76,4.691-4.76
		S441.76,278.611,441.76,281.365z M439.329,281.365c0-1.955-0.85-3.111-2.261-3.111c-1.411,0-2.261,1.156-2.261,3.111
		c0,1.938,0.85,3.111,2.261,3.111C438.479,284.476,439.329,283.303,439.329,281.365z"/>
	<path fill="#562E86" d="M451.467,281.977h-6.425c0.153,1.904,1.003,2.499,2.091,2.499c1.003,0,1.734-0.561,1.887-1.53h2.346
		c-0.459,2.108-2.159,3.179-4.284,3.179c-2.481,0-4.402-1.547-4.402-4.726c0-2.771,1.819-4.793,4.589-4.793
		c2.771,0,4.233,2.108,4.233,4.573C451.501,281.399,451.501,281.671,451.467,281.977z M445.109,280.447h3.978
		c-0.153-1.428-0.799-2.193-1.921-2.193C446.078,278.254,445.313,278.952,445.109,280.447z"/>
	<path fill="#562E86" d="M455.462,283.133v2.754h-2.346v-12.494h2.346v7.581l3.638-4.13h2.822l-4.012,4.198l4.063,4.845h-2.958
		l-2.805-3.57L455.462,283.133z"/>
	<path fill="#562E86" d="M471.476,281.365c0,2.737-1.683,4.759-4.691,4.759s-4.691-2.022-4.691-4.759c0-2.754,1.683-4.76,4.691-4.76
		S471.476,278.611,471.476,281.365z M469.045,281.365c0-1.955-0.85-3.111-2.261-3.111c-1.411,0-2.261,1.156-2.261,3.111
		c0,1.938,0.85,3.111,2.261,3.111C468.195,284.476,469.045,283.303,469.045,281.365z"/>
	<path fill="#562E86" d="M486.52,280.498v5.389h-2.346v-4.708c0-0.527-0.017-1.02-0.068-1.479c-0.119-0.935-0.629-1.445-1.53-1.445
		c-1.054,0-1.649,0.901-1.649,2.992v4.641h-2.329v-4.708c0-0.527-0.017-1.02-0.068-1.479c-0.119-0.935-0.646-1.445-1.547-1.445
		c-1.054,0-1.632,0.901-1.632,2.992v4.641h-2.346v-9.043h2.346v1.377l0.663-1.088c0.51-0.357,1.105-0.527,1.921-0.527
		c1.479,0,2.414,0.731,2.771,1.717l0.884-1.189c0.51-0.357,1.122-0.527,1.938-0.527c1.717,0,2.703,1.003,2.907,2.244
		C486.503,279.309,486.52,279.767,486.52,280.498z"/>
	<path fill="#562E86" d="M495.395,279.461h-2.346c-0.153-0.833-0.612-1.309-1.394-1.309c-0.697,0-1.071,0.408-1.071,0.969
		c0,0.68,0.561,1.037,2.057,1.411c1.853,0.476,2.941,1.224,2.941,2.89c0,1.819-1.649,2.703-3.723,2.703
		c-2.193,0-3.74-0.952-3.995-2.992h2.346c0.187,0.986,0.867,1.445,1.683,1.445c0.748,0,1.326-0.323,1.326-0.986
		c0-0.697-0.595-1.088-2.159-1.479c-1.683-0.425-2.839-1.156-2.839-2.72c0-1.734,1.428-2.788,3.587-2.788
		C493.967,276.605,495.19,277.813,495.395,279.461z"/>
	<path fill="#562E86" d="M499.832,282.64c0,0.306,0,0.561,0.017,0.799c0.068,0.884,0.391,1.088,1.7,0.986v1.53
		c-0.527,0.085-1.02,0.119-1.547,0.119c-1.75,0-2.379-0.578-2.481-1.853c-0.034-0.408-0.034-0.799-0.034-1.309v-4.454h-1.326v-1.547
		h1.326v-2.227h2.346v2.227h1.87v1.547h-1.87V282.64z"/>
</g>
<g>
	<path fill="#562E86" d="M418.752,309.75c0,0.527-0.408,0.935-0.935,0.935s-0.935-0.408-0.935-0.935
		c0-0.527,0.408-0.935,0.935-0.935S418.752,309.223,418.752,309.75z M417.086,320.782v-9.009h1.462v9.009H417.086z"/>
	<path fill="#562E86" d="M428.747,315.716v5.065h-1.462v-4.963c0-0.459,0-0.833-0.034-1.292c-0.085-1.054-0.663-1.836-2.057-1.836
		c-1.411,0-2.601,1.054-2.601,4.131v3.96h-1.462v-9.009h1.462v1.547l0.561-1.037c0.765-0.595,1.428-0.748,2.346-0.748
		c1.972,0,3.077,1.054,3.212,2.635C428.747,314.628,428.747,314.985,428.747,315.716z"/>
	<path fill="#562E86" d="M432.963,318.147c0,0.306,0,0.459,0.017,0.697c0.068,0.867,0.425,1.054,1.563,0.918v1.071
		c-0.425,0.068-0.833,0.085-1.241,0.085c-1.122,0-1.7-0.459-1.785-1.581c-0.017-0.238-0.017-0.612-0.017-1.122v-5.252h-1.207v-1.122
		h1.207v-2.091h1.462v2.091h1.683v1.122h-1.683V318.147z"/>
	<path fill="#562E86" d="M443.673,316.719h-6.527c0.136,2.38,1.258,3.179,2.583,3.179c1.173,0,2.125-0.731,2.329-2.023h1.53
		c-0.357,2.176-2.074,3.145-3.927,3.145c-2.346,0-4.097-1.53-4.097-4.708c0-2.923,1.819-4.776,4.284-4.776
		c2.482,0,3.859,1.853,3.859,4.488C443.707,316.158,443.707,316.396,443.673,316.719z M437.163,315.597h5.065
		c-0.136-1.87-0.935-2.94-2.414-2.94C438.386,312.657,437.333,313.676,437.163,315.597z"/>
	<path fill="#562E86" d="M453.516,318.572c0,0.561,0,1.258-0.017,1.751c-0.085,2.635-1.683,4.029-4.284,4.029
		c-2.567,0-3.842-1.071-4.029-2.975l-0.017-0.17h1.479l0.017,0.153c0.119,1.104,1.003,1.87,2.55,1.87
		c1.785,0,2.753-1.02,2.822-2.754c0.017-0.425,0.017-0.714,0.017-0.986v-0.153l-0.68,0.969c-0.51,0.425-1.462,0.714-2.38,0.714
		c-2.635,0-4.097-1.972-4.097-4.606c0-3.332,2.074-4.878,4.403-4.878c0.748,0,1.7,0.221,2.159,0.595l0.595,0.884v-1.241h1.462
		V318.572z M452.054,316.362v-0.493c0-2.329-1.461-3.212-2.753-3.212c-1.581,0-2.805,1.224-2.805,3.586
		c0,2.04,0.918,3.655,2.72,3.655C450.711,319.898,452.054,318.946,452.054,316.362z"/>
	<path fill="#562E86" d="M460.248,311.688v1.105c-1.53-0.102-2.686,0.799-2.686,2.856v5.133h-1.462v-9.009h1.462v1.411l0.816-1.207
		c0.374-0.255,0.833-0.408,1.258-0.408C459.874,311.569,460.078,311.603,460.248,311.688z"/>
	<path fill="#562E86" d="M468.867,316.719h-6.527c0.136,2.38,1.258,3.179,2.583,3.179c1.173,0,2.125-0.731,2.329-2.023h1.53
		c-0.357,2.176-2.074,3.145-3.927,3.145c-2.346,0-4.097-1.53-4.097-4.708c0-2.923,1.819-4.776,4.284-4.776
		c2.482,0,3.859,1.853,3.859,4.488C468.901,316.158,468.901,316.396,468.867,316.719z M462.356,315.597h5.065
		c-0.136-1.87-0.935-2.94-2.414-2.94C463.58,312.657,462.526,313.676,462.356,315.597z"/>
	<path fill="#562E86" d="M474.987,311.688v1.105c-1.53-0.102-2.686,0.799-2.686,2.856v5.133h-1.462v-9.009h1.462v1.411l0.816-1.207
		c0.374-0.255,0.833-0.408,1.258-0.408C474.613,311.569,474.817,311.603,474.987,311.688z"/>
	<path fill="#562E86" d="M483.605,316.719h-6.527c0.136,2.38,1.258,3.179,2.583,3.179c1.173,0,2.125-0.731,2.329-2.023h1.53
		c-0.357,2.176-2.074,3.145-3.927,3.145c-2.346,0-4.097-1.53-4.097-4.708c0-2.923,1.819-4.776,4.284-4.776
		c2.482,0,3.859,1.853,3.859,4.488C483.64,316.158,483.64,316.396,483.605,316.719z M477.095,315.597h5.065
		c-0.136-1.87-0.935-2.94-2.414-2.94C478.319,312.657,477.265,313.676,477.095,315.597z"/>
	<path fill="#562E86" d="M493.193,315.716v5.065h-1.462v-4.963c0-0.459,0-0.833-0.034-1.292c-0.085-1.054-0.663-1.836-2.057-1.836
		c-1.411,0-2.601,1.054-2.601,4.131v3.96h-1.462v-9.009h1.462v1.547l0.561-1.037c0.765-0.595,1.428-0.748,2.346-0.748
		c1.972,0,3.077,1.054,3.212,2.635C493.193,314.628,493.193,314.985,493.193,315.716z"/>
	<path fill="#562E86" d="M500.997,309.75c0,0.527-0.408,0.935-0.935,0.935s-0.935-0.408-0.935-0.935
		c0-0.527,0.408-0.935,0.935-0.935S500.997,309.223,500.997,309.75z M499.331,320.782v-9.009h1.462v9.009H499.331z"/>
	<path fill="#562E86" d="M510.992,315.716v5.065h-1.462v-4.963c0-0.459,0-0.833-0.034-1.292c-0.085-1.054-0.663-1.836-2.057-1.836
		c-1.411,0-2.601,1.054-2.601,4.131v3.96h-1.462v-9.009h1.462v1.547l0.561-1.037c0.765-0.595,1.428-0.748,2.346-0.748
		c1.972,0,3.077,1.054,3.213,2.635C510.992,314.628,510.992,314.985,510.992,315.716z"/>
	<path fill="#562E86" d="M422.236,337.274v5.507h-1.462v-4.828c0-0.799-0.017-1.292-0.068-1.75c-0.136-1.02-0.782-1.513-1.802-1.513
		c-1.139,0-1.972,0.901-1.972,3.638v4.454h-1.462v-4.828c0-0.799-0.017-1.292-0.068-1.75c-0.136-1.02-0.782-1.513-1.802-1.513
		c-1.139,0-1.972,0.901-1.972,3.638v4.454h-1.462v-9.009h1.462v1.309l0.578-1.02c0.459-0.374,1.104-0.527,1.904-0.527
		c1.376,0,2.261,0.697,2.601,1.683l0.799-1.156c0.459-0.374,1.105-0.527,1.904-0.527c1.615,0,2.533,0.952,2.737,2.193
		C422.219,336.187,422.236,336.543,422.236,337.274z"/>
	<path fill="#562E86" d="M426.368,331.75c0,0.527-0.408,0.935-0.935,0.935s-0.935-0.408-0.935-0.935
		c0-0.527,0.408-0.935,0.935-0.935S426.368,331.223,426.368,331.75z M424.702,342.782v-9.009h1.462v9.009H424.702z"/>
	<path fill="#562E86" d="M430.125,343.563c0,0.34-0.017,0.782-0.051,1.088c-0.119,1.088-0.714,1.7-2.107,1.7
		c-0.272,0-0.476,0-0.697-0.034v-1.19c0.935,0.085,1.292-0.204,1.36-0.748c0.034-0.238,0.034-0.493,0.034-0.748v-9.859h1.462
		V343.563z M430.329,331.75c0,0.527-0.408,0.935-0.935,0.935s-0.935-0.408-0.935-0.935c0-0.527,0.408-0.935,0.935-0.935
		S430.329,331.223,430.329,331.75z"/>
	<path fill="#562E86" d="M440.324,337.716v5.065h-1.462v-4.963c0-0.459,0-0.833-0.034-1.292c-0.085-1.054-0.663-1.836-2.057-1.836
		c-1.411,0-2.601,1.054-2.601,4.131v3.96h-1.462v-9.009h1.462v1.547l0.561-1.037c0.765-0.595,1.428-0.748,2.346-0.748
		c1.972,0,3.077,1.054,3.213,2.635C440.324,336.628,440.324,336.985,440.324,337.716z"/>
	<path fill="#562E86" d="M450.608,333.688v1.105c-1.53-0.102-2.686,0.799-2.686,2.856v5.133h-1.462v-9.009h1.462v1.411l0.816-1.207
		c0.374-0.255,0.833-0.408,1.258-0.408C450.234,333.569,450.438,333.603,450.608,333.688z"/>
	<path fill="#562E86" d="M459.228,338.719H452.7c0.136,2.38,1.258,3.179,2.583,3.179c1.173,0,2.125-0.731,2.329-2.023h1.53
		c-0.357,2.176-2.074,3.145-3.927,3.145c-2.346,0-4.097-1.53-4.097-4.708c0-2.923,1.819-4.776,4.284-4.776
		c2.482,0,3.859,1.853,3.859,4.488C459.262,338.158,459.262,338.396,459.228,338.719z M452.717,337.597h5.065
		c-0.136-1.87-0.935-2.94-2.414-2.94C453.941,334.657,452.887,335.676,452.717,337.597z"/>
	<path fill="#562E86" d="M469.818,338.141c0,3.332-2.074,4.878-4.402,4.878c-0.748,0-1.7-0.221-2.159-0.595l-0.595-0.884v4.572
		H461.2v-12.341h1.462v1.445l0.68-0.969c0.51-0.425,1.461-0.714,2.379-0.714C468.356,333.535,469.818,335.506,469.818,338.141z
		 M468.22,338.311c0-2.04-0.918-3.654-2.72-3.654c-1.496,0-2.839,0.952-2.839,3.536v0.493c0,2.329,1.462,3.213,2.754,3.213
		C466.996,341.898,468.22,340.674,468.22,338.311z"/>
	<path fill="#562E86" d="M478.947,338.719h-6.527c0.136,2.38,1.258,3.179,2.583,3.179c1.173,0,2.125-0.731,2.329-2.023h1.53
		c-0.357,2.176-2.074,3.145-3.927,3.145c-2.346,0-4.097-1.53-4.097-4.708c0-2.923,1.819-4.776,4.284-4.776
		c2.482,0,3.859,1.853,3.859,4.488C478.981,338.158,478.981,338.396,478.947,338.719z M472.437,337.597h5.065
		c-0.136-1.87-0.935-2.94-2.414-2.94C473.661,334.657,472.607,335.676,472.437,337.597z"/>
	<path fill="#562E86" d="M485.067,333.688v1.105c-1.53-0.102-2.686,0.799-2.686,2.856v5.133h-1.462v-9.009h1.462v1.411l0.816-1.207
		c0.374-0.255,0.833-0.408,1.258-0.408C484.693,333.569,484.897,333.603,485.067,333.688z"/>
	<path fill="#562E86" d="M488.28,340.147c0,0.306,0,0.459,0.017,0.697c0.068,0.867,0.425,1.054,1.563,0.918v1.071
		c-0.425,0.068-0.833,0.085-1.241,0.085c-1.122,0-1.7-0.459-1.785-1.581c-0.017-0.238-0.017-0.612-0.017-1.122v-5.252h-1.207v-1.122
		h1.207v-2.091h1.462v2.091h1.683v1.122h-1.683V340.147z"/>
	<path fill="#562E86" d="M499.823,338.277c0,2.533-1.411,4.742-4.471,4.742s-4.471-2.209-4.471-4.742
		c0-2.55,1.411-4.743,4.471-4.743S499.823,335.728,499.823,338.277z M498.225,338.277c0-2.125-1.054-3.621-2.873-3.621
		s-2.873,1.496-2.873,3.621c0,2.107,1.054,3.621,2.873,3.621S498.225,340.385,498.225,338.277z"/>
	<path fill="#562E86" d="M503.257,331.75c0,0.527-0.408,0.935-0.935,0.935s-0.935-0.408-0.935-0.935
		c0-0.527,0.408-0.935,0.935-0.935S503.257,331.223,503.257,331.75z M501.591,342.782v-9.009h1.462v9.009H501.591z"/>
	<path fill="#562E86" d="M509.785,333.688v1.105c-1.53-0.102-2.686,0.799-2.686,2.856v5.133h-1.462v-9.009h1.462v1.411l0.816-1.207
		c0.374-0.255,0.833-0.408,1.258-0.408C509.411,333.569,509.615,333.603,509.785,333.688z"/>
	<path fill="#562E86" d="M518.404,338.719h-6.527c0.136,2.38,1.258,3.179,2.583,3.179c1.173,0,2.125-0.731,2.329-2.023h1.53
		c-0.357,2.176-2.074,3.145-3.927,3.145c-2.346,0-4.097-1.53-4.097-4.708c0-2.923,1.819-4.776,4.284-4.776
		c2.482,0,3.859,1.853,3.859,4.488C518.438,338.158,518.438,338.396,518.404,338.719z M511.894,337.597h5.065
		c-0.136-1.87-0.935-2.94-2.414-2.94C513.117,334.657,512.063,335.676,511.894,337.597z"/>
</g>
<g>
	<path fill="#562E86" d="M251.604,406.902h-1.734l-2.006-7.581l-2.006,7.581h-1.734l-2.873-9.009h1.683l2.091,7.615l1.972-7.615
		h1.819l2.006,7.564l2.091-7.564h1.564L251.604,406.902z"/>
	<path fill="#562E86" d="M260.853,405.61l-0.493,0.969c-0.612,0.425-1.394,0.561-2.261,0.561c-1.632,0-2.907-0.901-2.907-2.566
		c0-2.04,1.53-3.094,5.065-3.094h0.578v-0.238c0-0.391,0-0.748-0.034-1.088c-0.068-0.833-0.544-1.376-1.75-1.376
		c-1.224,0-1.836,0.663-1.938,1.904h-1.53c0.136-1.921,1.479-3.026,3.468-3.026c2.142,0,3.042,0.901,3.195,2.38
		c0.034,0.357,0.051,0.799,0.051,1.19v3.382c0,0.68,0.034,1.292,0.17,2.295h-1.462L260.853,405.61z M260.835,403.485v-0.918
		c-2.482-0.187-4.045,0.34-4.045,1.887c0,1.088,0.697,1.564,1.802,1.564C259.952,406.018,260.835,405.117,260.835,403.485z"/>
	<path fill="#562E86" d="M266.616,404.267c0,0.306,0,0.459,0.017,0.697c0.068,0.867,0.425,1.054,1.563,0.918v1.071
		c-0.425,0.068-0.833,0.085-1.241,0.085c-1.122,0-1.7-0.459-1.785-1.581c-0.017-0.238-0.017-0.612-0.017-1.122v-5.252h-1.207v-1.122
		h1.207v-2.091h1.462v2.091h1.683v1.122h-1.683V404.267z"/>
	<path fill="#562E86" d="M282.969,406.902h-1.734l-2.006-7.581l-2.006,7.581h-1.734l-2.873-9.009h1.683l2.091,7.615l1.972-7.615
		h1.819l2.006,7.564l2.091-7.564h1.564L282.969,406.902z"/>
	<path fill="#562E86" d="M288.868,395.87c0,0.527-0.408,0.935-0.935,0.935s-0.935-0.408-0.935-0.935
		c0-0.527,0.408-0.935,0.935-0.935S288.868,395.343,288.868,395.87z M287.202,406.902v-9.009h1.462v9.009H287.202z"/>
	<path fill="#562E86" d="M292.642,404.318c0,0.271,0,0.561,0.017,0.85c0.034,0.578,0.306,0.765,1.104,0.68v1.054
		c-0.323,0.051-0.697,0.068-1.037,0.068c-0.85,0-1.479-0.272-1.53-1.411c-0.017-0.306-0.017-0.697-0.017-1.19v-9.961h1.462V404.318z
		"/>
	<path fill="#562E86" d="M300.785,395.87c0,0.527-0.408,0.935-0.935,0.935s-0.935-0.408-0.935-0.935
		c0-0.527,0.408-0.935,0.935-0.935S300.785,395.343,300.785,395.87z M299.119,406.902v-9.009h1.462v9.009H299.119z"/>
	<path fill="#562E86" d="M305.477,403.094l-0.85,0.935v2.873h-1.462v-12.494h1.462v8.023l4.199-4.539h1.87l-4.199,4.25l4.25,4.759
		h-1.989L305.477,403.094z"/>
	<path fill="#562E86" d="M317.104,404.318c0,0.271,0,0.561,0.017,0.85c0.034,0.578,0.306,0.765,1.104,0.68v1.054
		c-0.323,0.051-0.697,0.068-1.037,0.068c-0.85,0-1.479-0.272-1.53-1.411c-0.017-0.306-0.017-0.697-0.017-1.19v-9.961h1.462V404.318z
		"/>
	<path fill="#562E86" d="M327.27,402.839h-6.527c0.136,2.38,1.258,3.179,2.583,3.179c1.173,0,2.125-0.731,2.329-2.023h1.53
		c-0.357,2.176-2.074,3.145-3.927,3.145c-2.346,0-4.097-1.53-4.097-4.708c0-2.923,1.819-4.776,4.284-4.776
		c2.482,0,3.859,1.853,3.859,4.488C327.304,402.278,327.304,402.516,327.27,402.839z M320.759,401.717h5.065
		c-0.136-1.87-0.935-2.94-2.414-2.94C321.983,398.777,320.929,399.796,320.759,401.717z"/>
	<path fill="#562E86" d="M333.39,397.807v1.105c-1.53-0.102-2.686,0.799-2.686,2.856v5.133h-1.462v-9.009h1.462v1.411l0.816-1.207
		c0.374-0.255,0.833-0.408,1.258-0.408C333.016,397.689,333.22,397.722,333.39,397.807z"/>
	<path fill="#562E86" d="M342.008,402.839h-6.527c0.136,2.38,1.258,3.179,2.583,3.179c1.173,0,2.125-0.731,2.329-2.023h1.53
		c-0.357,2.176-2.074,3.145-3.927,3.145c-2.346,0-4.097-1.53-4.097-4.708c0-2.923,1.819-4.776,4.284-4.776
		c2.482,0,3.859,1.853,3.859,4.488C342.042,402.278,342.042,402.516,342.008,402.839z M335.498,401.717h5.065
		c-0.136-1.87-0.935-2.94-2.414-2.94C336.722,398.777,335.668,399.796,335.498,401.717z"/>
	<path fill="#562E86" d="M351.596,401.836v5.065h-1.462v-4.963c0-0.459,0-0.833-0.034-1.292c-0.085-1.054-0.663-1.836-2.057-1.836
		c-1.411,0-2.601,1.054-2.601,4.131v3.96h-1.462v-9.009h1.462v1.547l0.561-1.037c0.765-0.595,1.428-0.748,2.346-0.748
		c1.972,0,3.077,1.054,3.212,2.635C351.596,400.748,351.596,401.105,351.596,401.836z"/>
	<path fill="#562E86" d="M360.759,398.046c0,1.19-0.578,2.261-1.785,3.467c-1.037,1.037-1.292,1.496-1.343,2.329h-1.462
		c0.102-1.003,0.408-1.632,1.36-2.72c1.207-1.377,1.598-2.057,1.598-3.077c0-1.173-0.731-1.955-1.955-1.955
		c-1.275,0-2.142,0.833-2.244,2.414h-1.53c0.068-2.176,1.598-3.57,3.825-3.57C359.501,394.935,360.759,396.295,360.759,398.046z
		 M357.988,406.052c0,0.629-0.459,1.088-1.088,1.088s-1.088-0.459-1.088-1.088s0.459-1.088,1.088-1.088
		S357.988,405.423,357.988,406.052z"/>
</g>
</svg>
