<?xml version="1.0" encoding="utf-8"?>
<!-- Generator: Adobe Illustrator 16.0.0, SVG Export Plug-In . SVG Version: 6.00 Build 0)  -->
<!DOCTYPE svg PUBLIC "-//W3C//DTD SVG 1.1//EN" "http://www.w3.org/Graphics/SVG/1.1/DTD/svg11.dtd">
<svg version="1.1" id="Layer_1" xmlns="http://www.w3.org/2000/svg" xmlns:xlink="http://www.w3.org/1999/xlink" x="0px" y="0px"
	 width="550px" height="550px" viewBox="0 0 550 550" enable-background="new 0 0 550 550" xml:space="preserve">
<g>
	
		<path fill="none" stroke="#562E87" stroke-width="2.2" stroke-linecap="round" stroke-linejoin="round" stroke-miterlimit="10" stroke-dasharray="12,5.5" d="
		M204.17,143.138c0.159-0.367,5.032,3.3,14.922,8.506c9.561,6.155,22.603,13.409,37.305,21.269
		c14.625,8.381,32.592,18.1,48.497,27.646c17.13,11.946,35.754,18.991,48.496,27.646c15.421,7.524,27.979,15.949,37.305,21.268
		c9.327,5.315,14.922,8.505,14.922,8.505s-20.369,10.75-47.526,25.082c-13.578,7.169-29.208,17.028-44.132,23.293
		c-15.192,7.649-30.929,15.881-44.131,23.292c-14.175,8.554-25.578,13.48-33.947,17.918c-7.508,4.901-12.212,7.627-13.58,7.167"/>
	<path fill="none" stroke="#562E87" stroke-width="2.2" stroke-linecap="round" stroke-linejoin="round" stroke-miterlimit="10" d="
		M465.538,138.857c0.458,0.556-6.02,3.448-15.222,8.481c-9.765,5.479-23.074,12.532-38.057,21.203
		c-15.158,9.111-32.346,18.023-49.471,27.567c-51.375,28.622-102.75,57.248-102.75,57.248s5.303,2.87,14.144,7.653
		c8.839,4.784,21.213,11.484,35.357,19.138c12.592,7.502,31.177,15.577,45.962,24.88c15.907,10.103,31.693,17.979,45.964,24.879
		c14.519,7.33,26.643,13.649,35.356,19.136c8.838,4.785,14.141,7.654,14.141,7.654"/>
	<g>
		<path fill="#562E87" d="M160.786,259.894h-2.296l-3.086-7.931h2.281l1.998,6.381l1.953-6.381h2.221L160.786,259.894z"/>
		<path fill="#562E87" d="M171.91,256.465h-5.635c0.134,1.669,0.88,2.191,1.834,2.191c0.879,0,1.521-0.492,1.655-1.342h2.057
			c-0.403,1.849-1.894,2.788-3.757,2.788c-2.177,0-3.861-1.356-3.861-4.144c0-2.43,1.595-4.204,4.025-4.204
			c2.43,0,3.712,1.849,3.712,4.01C171.94,255.958,171.94,256.196,171.91,256.465z M166.334,255.123h3.489
			c-0.134-1.252-0.701-1.923-1.685-1.923C167.185,253.2,166.514,253.811,166.334,255.123z"/>
		<path fill="#562E87" d="M178.204,251.829v1.655c-1.714-0.12-2.564,0.641-2.564,2.772v3.638h-2.058v-7.931h2.058v1.446l0.626-1.103
			c0.388-0.358,0.91-0.537,1.356-0.537C177.861,251.769,178.025,251.784,178.204,251.829z"/>
		<path fill="#562E87" d="M181.471,257.3c0,0.313,0,0.521,0.015,0.73c0.045,0.402,0.224,0.537,0.924,0.492v1.417
			c-0.402,0.044-0.805,0.06-1.267,0.06c-1.014,0-1.655-0.373-1.7-1.401c-0.03-0.358-0.03-0.73-0.03-1.252v-8.408h2.058V257.3z"/>
		<path fill="#562E87" d="M191.028,256.465h-5.635c0.134,1.669,0.88,2.191,1.834,2.191c0.879,0,1.521-0.492,1.654-1.342h2.058
			c-0.403,1.849-1.894,2.788-3.757,2.788c-2.177,0-3.861-1.356-3.861-4.144c0-2.43,1.595-4.204,4.025-4.204
			c2.43,0,3.712,1.849,3.712,4.01C191.058,255.958,191.058,256.196,191.028,256.465z M185.452,255.123h3.489
			c-0.134-1.252-0.701-1.923-1.685-1.923C186.302,253.2,185.631,253.811,185.452,255.123z"/>
		<path fill="#562E87" d="M200.408,259.894h-2.057v-1.223l-0.596,0.88c-0.447,0.343-1.252,0.551-2.058,0.551
			c-2.221,0-3.533-1.685-3.533-4.025c0-2.877,1.759-4.323,3.802-4.323c0.656,0,1.461,0.164,1.863,0.447l0.522,0.82v-4.084h2.057
			V259.894z M198.351,256.018v-0.388c0-1.789-1.029-2.43-1.983-2.43c-1.192,0-2.072,0.91-2.072,2.743
			c0,1.625,0.775,2.713,1.998,2.713C197.426,258.656,198.351,257.956,198.351,256.018z"/>
		<path fill="#562E87" d="M209.713,256.465h-5.635c0.134,1.669,0.88,2.191,1.834,2.191c0.879,0,1.521-0.492,1.654-1.342h2.058
			c-0.403,1.849-1.894,2.788-3.757,2.788c-2.177,0-3.861-1.356-3.861-4.144c0-2.43,1.595-4.204,4.025-4.204
			c2.43,0,3.712,1.849,3.712,4.01C209.743,255.958,209.743,256.196,209.713,256.465z M204.138,255.123h3.489
			c-0.134-1.252-0.701-1.923-1.685-1.923C204.988,253.2,204.317,253.811,204.138,255.123z"/>
		<path fill="#562E87" d="M218.84,255.421v4.472h-2.057v-4.189c0-0.328,0-0.701-0.03-1.104c-0.06-0.834-0.522-1.401-1.521-1.401
			c-0.999,0-1.789,0.865-1.789,3.071v3.623h-2.058v-7.931h2.058v1.282l0.611-0.939c0.566-0.403,1.147-0.552,1.908-0.552
			c1.685,0,2.653,0.835,2.817,2.221C218.825,254.377,218.84,254.78,218.84,255.421z"/>
	</g>
	<g>
		<path fill="#562E87" d="M317.48,255.334v4.472h-2.057v-4.189c0-0.328,0-0.701-0.03-1.104c-0.06-0.834-0.522-1.401-1.521-1.401
			c-0.999,0.015-1.789,0.865-1.789,3.071v3.623h-2.058v-11.032h2.058v4.383l0.611-0.939c0.566-0.403,1.147-0.552,1.908-0.552
			c1.685,0,2.653,0.835,2.817,2.221C317.465,254.291,317.48,254.693,317.48,255.334z"/>
		<path fill="#562E87" d="M326.681,256.378h-5.635c0.134,1.669,0.88,2.191,1.834,2.191c0.879,0,1.521-0.492,1.654-1.342h2.058
			c-0.403,1.849-1.894,2.788-3.757,2.788c-2.177,0-3.861-1.356-3.861-4.144c0-2.43,1.595-4.204,4.025-4.204
			c2.43,0,3.712,1.849,3.712,4.01C326.711,255.871,326.711,256.109,326.681,256.378z M321.105,255.036h3.489
			c-0.134-1.252-0.701-1.923-1.685-1.923C321.956,253.113,321.285,253.724,321.105,255.036z"/>
		<path fill="#562E87" d="M336.061,259.807h-2.057v-1.223l-0.596,0.88c-0.447,0.343-1.252,0.551-2.058,0.551
			c-2.221,0-3.533-1.685-3.533-4.025c0-2.877,1.759-4.323,3.802-4.323c0.656,0,1.461,0.164,1.863,0.447l0.522,0.82v-4.084h2.057
			V259.807z M334.004,255.931v-0.388c0-1.789-1.029-2.43-1.983-2.43c-1.192,0-2.072,0.91-2.072,2.743
			c0,1.625,0.775,2.713,1.998,2.713C333.08,258.569,334.004,257.869,334.004,255.931z"/>
		<path fill="#562E87" d="M345.367,256.378h-5.635c0.134,1.669,0.88,2.191,1.834,2.191c0.879,0,1.521-0.492,1.654-1.342h2.058
			c-0.403,1.849-1.894,2.788-3.757,2.788c-2.177,0-3.861-1.356-3.861-4.144c0-2.43,1.595-4.204,4.025-4.204
			c2.43,0,3.712,1.849,3.712,4.01C345.396,255.871,345.396,256.109,345.367,256.378z M339.791,255.036h3.489
			c-0.134-1.252-0.701-1.923-1.685-1.923C340.641,253.113,339.97,253.724,339.791,255.036z"/>
		<path fill="#562E87" d="M354.493,255.334v4.472h-2.057v-4.189c0-0.328,0-0.701-0.03-1.104c-0.06-0.834-0.522-1.401-1.521-1.401
			c-0.999,0-1.789,0.865-1.789,3.071v3.623h-2.058v-7.931h2.058v1.282l0.611-0.939c0.566-0.403,1.147-0.552,1.908-0.552
			c1.685,0,2.653,0.835,2.817,2.221C354.479,254.291,354.493,254.693,354.493,255.334z"/>
	</g>
	<g>
		<path fill="#562E87" d="M447.656,257.046c0,0.268,0,0.492,0.015,0.701c0.06,0.775,0.343,0.954,1.491,0.864v1.342
			c-0.462,0.075-0.895,0.104-1.357,0.104c-1.535,0-2.087-0.507-2.176-1.625c-0.03-0.358-0.03-0.701-0.03-1.148v-3.906h-1.163v-1.356
			h1.163v-1.953h2.057v1.953h1.64v1.356h-1.64V257.046z"/>
		<path fill="#562E87" d="M458.362,255.928c0,2.4-1.476,4.174-4.115,4.174s-4.115-1.774-4.115-4.174
			c0-2.415,1.476-4.174,4.115-4.174S458.362,253.513,458.362,255.928z M456.23,255.928c0-1.714-0.746-2.729-1.983-2.729
			s-1.983,1.014-1.983,2.729c0,1.699,0.746,2.728,1.983,2.728S456.23,257.627,456.23,255.928z"/>
		<path fill="#562E87" d="M467.101,256.465h-5.635c0.134,1.669,0.88,2.191,1.834,2.191c0.879,0,1.521-0.492,1.655-1.342h2.057
			c-0.403,1.849-1.894,2.788-3.757,2.788c-2.177,0-3.861-1.356-3.861-4.144c0-2.43,1.595-4.204,4.025-4.204
			c2.43,0,3.712,1.849,3.712,4.01C467.13,255.958,467.13,256.196,467.101,256.465z M461.525,255.123h3.489
			c-0.134-1.252-0.701-1.923-1.685-1.923C462.375,253.2,461.704,253.811,461.525,255.123z"/>
		<path fill="#562E87" d="M470.831,257.479v2.415h-2.058v-10.957h2.058v6.648l3.19-3.623h2.475l-3.519,3.683l3.563,4.249h-2.594
			l-2.46-3.131L470.831,257.479z"/>
		<path fill="#562E87" d="M485.1,255.928c0,2.4-1.476,4.174-4.115,4.174s-4.115-1.774-4.115-4.174c0-2.415,1.476-4.174,4.115-4.174
			S485.1,253.513,485.1,255.928z M482.968,255.928c0-1.714-0.746-2.729-1.983-2.729s-1.983,1.014-1.983,2.729
			c0,1.699,0.746,2.728,1.983,2.728S482.968,257.627,482.968,255.928z"/>
		<path fill="#562E87" d="M498.52,255.168v4.726h-2.057v-4.129c0-0.462-0.015-0.895-0.06-1.297c-0.104-0.82-0.551-1.268-1.341-1.268
			c-0.924,0-1.446,0.791-1.446,2.624v4.07h-2.042v-4.129c0-0.462-0.015-0.895-0.06-1.297c-0.104-0.82-0.566-1.268-1.356-1.268
			c-0.924,0-1.431,0.791-1.431,2.624v4.07h-2.058v-7.931h2.058v1.208l0.581-0.954c0.447-0.313,0.969-0.462,1.685-0.462
			c1.297,0,2.117,0.641,2.43,1.506l0.775-1.044c0.447-0.313,0.984-0.462,1.699-0.462c1.506,0,2.371,0.879,2.549,1.968
			C498.505,254.124,498.52,254.527,498.52,255.168z"/>
		<path fill="#562E87" d="M506.53,254.258h-2.058c-0.134-0.73-0.537-1.148-1.222-1.148c-0.611,0-0.939,0.358-0.939,0.85
			c0,0.596,0.492,0.909,1.804,1.237c1.625,0.417,2.579,1.073,2.579,2.534c0,1.595-1.446,2.37-3.265,2.37
			c-1.923,0-3.28-0.834-3.503-2.624h2.057c0.164,0.865,0.761,1.267,1.476,1.267c0.656,0,1.163-0.283,1.163-0.865
			c0-0.611-0.522-0.954-1.894-1.297c-1.476-0.373-2.49-1.014-2.49-2.385c0-1.521,1.252-2.445,3.146-2.445
			C505.278,251.754,506.351,252.813,506.53,254.258z"/>
		<path fill="#562E87" d="M510.647,257.046c0,0.268,0,0.492,0.015,0.701c0.06,0.775,0.343,0.954,1.491,0.864v1.342
			c-0.462,0.075-0.895,0.104-1.357,0.104c-1.535,0-2.087-0.507-2.176-1.625c-0.03-0.358-0.03-0.701-0.03-1.148v-3.906h-1.163v-1.356
			h1.163v-1.953h2.057v1.953h1.64v1.356h-1.64V257.046z"/>
	</g>
	<g>
		<g>
			<path fill="#562E87" d="M153.752,388.979h-2.728l-1.759-8.557l-1.849,8.557h-2.743l-2.579-10.287h2.221l1.729,8.707l1.818-8.557
				h2.892l1.759,8.587l1.849-8.736h2.117L153.752,388.979z"/>
			<path fill="#562E87" d="M161.793,387.816l-0.388,0.85c-0.551,0.373-1.222,0.521-1.968,0.521c-1.371,0-2.549-0.805-2.549-2.311
				c0-1.744,1.491-2.728,4.368-2.728h0.507v-0.164c0-0.238,0-0.477-0.03-0.746c-0.06-0.551-0.417-0.954-1.222-0.954
				c-0.82,0-1.268,0.477-1.327,1.342l-1.998,0.015c0.06-1.789,1.506-2.803,3.399-2.803c2.221,0,3.056,0.969,3.175,2.34
				c0.03,0.373,0.045,0.791,0.045,1.223v2.564c0,0.597,0.03,1.133,0.149,2.013h-2.012L161.793,387.816z M161.763,386.057v-0.641
				c-1.64-0.119-2.743,0.253-2.743,1.297c0,0.701,0.477,1.029,1.208,1.029C161.063,387.741,161.763,387.16,161.763,386.057z"/>
			<path fill="#562E87" d="M170.397,387.816l-0.388,0.85c-0.551,0.373-1.222,0.521-1.968,0.521c-1.371,0-2.549-0.805-2.549-2.311
				c0-1.744,1.491-2.728,4.368-2.728h0.507v-0.164c0-0.238,0-0.477-0.03-0.746c-0.06-0.551-0.417-0.954-1.222-0.954
				c-0.82,0-1.268,0.477-1.327,1.342l-1.998,0.015c0.06-1.789,1.506-2.803,3.399-2.803c2.221,0,3.056,0.969,3.175,2.34
				c0.03,0.373,0.045,0.791,0.045,1.223v2.564c0,0.597,0.03,1.133,0.149,2.013h-2.012L170.397,387.816z M170.368,386.057v-0.641
				c-1.64-0.119-2.743,0.253-2.743,1.297c0,0.701,0.477,1.029,1.208,1.029C169.667,387.741,170.368,387.16,170.368,386.057z"/>
			<path fill="#562E87" d="M179.166,380.914v1.655c-1.714-0.12-2.564,0.641-2.564,2.772v3.638h-2.058v-7.931h2.058v1.446
				l0.626-1.103c0.388-0.358,0.91-0.537,1.356-0.537C178.823,380.854,178.987,380.869,179.166,380.914z"/>
			<path fill="#562E87" d="M188.053,385.013c0,2.4-1.476,4.174-4.115,4.174s-4.115-1.774-4.115-4.174
				c0-2.415,1.476-4.174,4.115-4.174S188.053,382.598,188.053,385.013z M185.921,385.013c0-1.714-0.746-2.729-1.983-2.729
				s-1.983,1.014-1.983,2.729c0,1.699,0.746,2.728,1.983,2.728S185.921,386.712,185.921,385.013z"/>
			<path fill="#562E87" d="M201.473,384.253v4.726h-2.057v-4.129c0-0.462-0.015-0.895-0.06-1.297
				c-0.104-0.82-0.551-1.268-1.341-1.268c-0.924,0-1.446,0.791-1.446,2.624v4.07h-2.042v-4.129c0-0.462-0.015-0.895-0.06-1.297
				c-0.104-0.82-0.566-1.268-1.356-1.268c-0.924,0-1.431,0.791-1.431,2.624v4.07h-2.058v-7.931h2.058v1.208l0.581-0.954
				c0.447-0.313,0.969-0.462,1.685-0.462c1.297,0,2.117,0.641,2.43,1.506l0.775-1.044c0.447-0.313,0.984-0.462,1.699-0.462
				c1.506,0,2.371,0.879,2.549,1.968C201.458,383.209,201.473,383.612,201.473,384.253z"/>
			<path fill="#562E87" d="M214.329,388.979h-2.057v-1.223l-0.596,0.88c-0.447,0.343-1.252,0.551-2.058,0.551
				c-2.221,0-3.533-1.685-3.533-4.025c0-2.877,1.759-4.323,3.802-4.323c0.656,0,1.461,0.164,1.863,0.447l0.522,0.82v-4.084h2.057
				V388.979z M212.272,385.103v-0.388c0-1.789-1.029-2.43-1.983-2.43c-1.192,0-2.072,0.91-2.072,2.743
				c0,1.625,0.775,2.713,1.998,2.713C211.348,387.741,212.272,387.041,212.272,385.103z"/>
			<path fill="#562E87" d="M224.157,385.013c0,2.4-1.476,4.174-4.115,4.174s-4.115-1.774-4.115-4.174
				c0-2.415,1.476-4.174,4.115-4.174S224.157,382.598,224.157,385.013z M222.025,385.013c0-1.714-0.746-2.729-1.983-2.729
				s-1.983,1.014-1.983,2.729c0,1.699,0.746,2.728,1.983,2.728S222.025,386.712,222.025,385.013z"/>
			<path fill="#562E87" d="M232.896,385.55h-5.635c0.134,1.669,0.88,2.191,1.834,2.191c0.879,0,1.521-0.492,1.655-1.342h2.057
				c-0.403,1.849-1.894,2.788-3.757,2.788c-2.177,0-3.861-1.356-3.861-4.144c0-2.43,1.595-4.204,4.025-4.204
				c2.43,0,3.712,1.849,3.712,4.01C232.925,385.043,232.925,385.281,232.896,385.55z M227.32,384.208h3.489
				c-0.134-1.252-0.701-1.923-1.685-1.923C228.17,382.285,227.499,382.896,227.32,384.208z"/>
			<path fill="#562E87" d="M141.394,398.021c0,0.656-0.462,1.088-1.133,1.088s-1.133-0.433-1.133-1.088
				c0-0.641,0.462-1.088,1.133-1.088S141.394,397.38,141.394,398.021z M139.231,407.816v-7.931h2.058v7.931H139.231z"/>
			<path fill="#562E87" d="M145.479,405.401v2.415h-2.058v-10.957h2.058v6.648l3.19-3.623h2.475l-3.519,3.683l3.563,4.249h-2.594
				l-2.46-3.131L145.479,405.401z"/>
			<path fill="#562E87" d="M164.401,407.816h-2.326l-1.341-6.038l-1.357,6.038h-2.34l-2.52-7.931h2.296l1.401,6.217l1.297-6.187
				h2.475l1.342,6.172l1.386-6.202h2.207L164.401,407.816z"/>
			<path fill="#562E87" d="M172.53,406.653l-0.387,0.85c-0.552,0.373-1.223,0.521-1.968,0.521c-1.372,0-2.549-0.805-2.549-2.311
				c0-1.744,1.491-2.728,4.368-2.728h0.507v-0.164c0-0.238,0-0.477-0.03-0.746c-0.06-0.551-0.417-0.954-1.222-0.954
				c-0.82,0-1.268,0.477-1.327,1.342l-1.998,0.015c0.06-1.789,1.506-2.803,3.399-2.803c2.221,0,3.056,0.969,3.175,2.34
				c0.03,0.373,0.045,0.79,0.045,1.223v2.564c0,0.597,0.03,1.133,0.149,2.013h-2.012L172.53,406.653z M172.5,404.894v-0.641
				c-1.64-0.119-2.743,0.253-2.743,1.297c0,0.701,0.478,1.029,1.208,1.029C171.799,406.579,172.5,405.997,172.5,404.894z"/>
			<path fill="#562E87" d="M179.137,404.969c0,0.268,0,0.492,0.015,0.7c0.06,0.775,0.343,0.954,1.491,0.865v1.342
				c-0.462,0.075-0.895,0.104-1.357,0.104c-1.535,0-2.087-0.507-2.176-1.625c-0.03-0.358-0.03-0.701-0.03-1.148v-3.906h-1.163
				v-1.357h1.163v-1.953h2.057v1.953h1.64v1.357h-1.64V404.969z"/>
			<path fill="#562E87" d="M187.563,398.021c0,0.656-0.462,1.088-1.133,1.088s-1.133-0.433-1.133-1.088
				c0-0.641,0.462-1.088,1.133-1.088S187.563,397.38,187.563,398.021z M185.401,407.816v-7.931h2.058v7.931H185.401z"/>
			<path fill="#562E87" d="M191.649,405.401v2.415h-2.058v-10.957h2.058v6.648l3.19-3.623h2.475l-3.519,3.683l3.563,4.249h-2.594
				l-2.46-3.131L191.649,405.401z"/>
			<path fill="#562E87" d="M209.333,407.816h-2.057v-1.223l-0.596,0.88c-0.447,0.343-1.252,0.551-2.058,0.551
				c-2.221,0-3.533-1.685-3.533-4.025c0-2.877,1.759-4.323,3.802-4.323c0.656,0,1.461,0.164,1.863,0.447l0.522,0.82v-4.084h2.057
				V407.816z M207.276,403.94v-0.388c0-1.789-1.029-2.43-1.983-2.43c-1.192,0-2.072,0.91-2.072,2.743
				c0,1.625,0.775,2.713,1.998,2.713C206.352,406.579,207.276,405.878,207.276,403.94z"/>
			<path fill="#562E87" d="M219.161,403.851c0,2.4-1.476,4.174-4.115,4.174s-4.115-1.774-4.115-4.174
				c0-2.415,1.476-4.174,4.115-4.174S219.161,401.436,219.161,403.851z M217.029,403.851c0-1.714-0.746-2.729-1.983-2.729
				s-1.983,1.014-1.983,2.729c0,1.699,0.746,2.728,1.983,2.728S217.029,405.55,217.029,403.851z"/>
			<path fill="#562E87" d="M227.899,404.387h-5.635c0.134,1.669,0.88,2.191,1.834,2.191c0.879,0,1.521-0.492,1.655-1.342h2.057
				c-0.403,1.849-1.894,2.788-3.757,2.788c-2.177,0-3.861-1.356-3.861-4.144c0-2.43,1.595-4.204,4.025-4.204
				c2.43,0,3.712,1.849,3.712,4.01C227.929,403.88,227.929,404.119,227.899,404.387z M222.324,403.045h3.489
				c-0.134-1.252-0.701-1.923-1.685-1.923C223.174,401.122,222.503,401.733,222.324,403.045z"/>
			<path fill="#562E87" d="M236.206,400.124c0,1.133-0.507,1.923-1.565,2.877c-0.82,0.746-1.088,1.118-1.148,1.878h-1.774
				c0.06-1.058,0.343-1.595,1.073-2.4c0.91-1.014,1.237-1.536,1.237-2.221c0-0.88-0.477-1.401-1.356-1.401
				c-0.865,0-1.416,0.581-1.476,1.759h-2.087c0.06-2.042,1.491-3.294,3.697-3.294C234.969,397.321,236.206,398.424,236.206,400.124z
				 M233.791,406.862c0,0.686-0.492,1.163-1.178,1.163c-0.671,0-1.163-0.477-1.163-1.163s0.492-1.163,1.163-1.163
				C233.299,405.699,233.791,406.176,233.791,406.862z"/>
		</g>
	</g>
	<g>
		<g>
			<path fill="#562E87" d="M432.975,388.979v-10.287h2.058v10.287H432.975z"/>
			<path fill="#562E87" d="M444.62,384.507v4.472h-2.057v-4.189c0-0.328,0-0.701-0.03-1.104c-0.06-0.834-0.522-1.401-1.521-1.401
				c-0.999,0-1.789,0.865-1.789,3.071v3.623h-2.058v-7.931h2.058v1.282l0.611-0.939c0.566-0.403,1.147-0.552,1.908-0.552
				c1.685,0,2.653,0.835,2.817,2.221C444.605,383.463,444.62,383.866,444.62,384.507z"/>
			<path fill="#562E87" d="M449.11,386.132c0,0.268,0,0.492,0.015,0.7c0.06,0.775,0.343,0.954,1.491,0.865v1.342
				c-0.462,0.075-0.895,0.104-1.357,0.104c-1.535,0-2.087-0.507-2.176-1.625c-0.03-0.358-0.03-0.701-0.03-1.148v-3.906h-1.163
				v-1.357h1.163v-1.953h2.057v1.953h1.64v1.357h-1.64V386.132z"/>
			<path fill="#562E87" d="M459.294,385.55h-5.635c0.134,1.669,0.88,2.191,1.834,2.191c0.879,0,1.521-0.492,1.655-1.342h2.057
				c-0.403,1.849-1.894,2.788-3.757,2.788c-2.177,0-3.861-1.356-3.861-4.144c0-2.43,1.595-4.204,4.025-4.204
				c2.43,0,3.712,1.849,3.712,4.01C459.324,385.043,459.324,385.282,459.294,385.55z M453.718,384.208h3.489
				c-0.134-1.252-0.701-1.923-1.685-1.923C454.568,382.285,453.897,382.896,453.718,384.208z"/>
			<path fill="#562E87" d="M468.674,386.996c0,0.492,0,1.104-0.015,1.536c-0.09,2.475-1.7,3.667-4.204,3.667
				c-2.326,0-3.623-0.969-3.802-2.713l-0.015-0.149h1.998l0.015,0.134c0.089,0.73,0.775,1.192,1.833,1.192
				c1.267,0,2.042-0.641,2.117-1.908c0.015-0.298,0.015-0.626,0.015-0.969v-0.193l-0.596,0.879
				c-0.447,0.343-1.163,0.552-1.968,0.552c-2.236,0-3.623-1.595-3.623-3.921c0-2.877,1.759-4.264,3.802-4.264
				c0.656,0,1.461,0.164,1.863,0.447l0.522,0.82v-1.059h2.057V386.996z M466.617,384.939v-0.224c0-1.789-1.029-2.43-1.983-2.43
				c-1.192,0-2.072,0.82-2.072,2.639c0,1.625,0.775,2.654,1.998,2.654C465.692,387.578,466.617,386.877,466.617,384.939z"/>
			<path fill="#562E87" d="M475.43,380.914v1.655c-1.714-0.12-2.564,0.641-2.564,2.772v3.638h-2.058v-7.931h2.058v1.446l0.626-1.103
				c0.388-0.358,0.909-0.537,1.356-0.537C475.087,380.854,475.251,380.869,475.43,380.914z"/>
			<path fill="#562E87" d="M483.795,385.55h-5.635c0.134,1.669,0.88,2.191,1.834,2.191c0.879,0,1.521-0.492,1.654-1.342h2.058
				c-0.403,1.849-1.894,2.788-3.757,2.788c-2.177,0-3.861-1.356-3.861-4.144c0-2.43,1.595-4.204,4.025-4.204
				c2.43,0,3.712,1.849,3.712,4.01C483.825,385.043,483.825,385.282,483.795,385.55z M478.22,384.208h3.489
				c-0.134-1.252-0.701-1.923-1.685-1.923C479.07,382.285,478.399,382.896,478.22,384.208z"/>
			<path fill="#562E87" d="M490.089,380.914v1.655c-1.714-0.12-2.564,0.641-2.564,2.772v3.638h-2.058v-7.931h2.058v1.446
				l0.626-1.103c0.388-0.358,0.909-0.537,1.356-0.537C489.747,380.854,489.911,380.869,490.089,380.914z"/>
			<path fill="#562E87" d="M498.455,385.55h-5.635c0.134,1.669,0.88,2.191,1.834,2.191c0.879,0,1.521-0.492,1.654-1.342h2.058
				c-0.403,1.849-1.894,2.788-3.757,2.788c-2.177,0-3.861-1.356-3.861-4.144c0-2.43,1.595-4.204,4.025-4.204
				c2.43,0,3.712,1.849,3.712,4.01C498.484,385.043,498.484,385.282,498.455,385.55z M492.879,384.208h3.489
				c-0.134-1.252-0.701-1.923-1.685-1.923C493.729,382.285,493.058,382.896,492.879,384.208z"/>
			<path fill="#562E87" d="M507.581,384.507v4.472h-2.057v-4.189c0-0.328,0-0.701-0.03-1.104c-0.06-0.834-0.522-1.401-1.521-1.401
				c-0.999,0-1.789,0.865-1.789,3.071v3.623h-2.058v-7.931h2.058v1.282l0.611-0.939c0.566-0.403,1.147-0.552,1.908-0.552
				c1.685,0,2.653,0.835,2.817,2.221C507.566,383.463,507.581,383.866,507.581,384.507z"/>
			<path fill="#562E87" d="M514.89,379.185c0,0.656-0.462,1.088-1.133,1.088s-1.133-0.433-1.133-1.088
				c0-0.641,0.462-1.088,1.133-1.088S514.89,378.543,514.89,379.185z M512.728,388.979v-7.931h2.058v7.931H512.728z"/>
			<path fill="#562E87" d="M524.373,384.507v4.472h-2.057v-4.189c0-0.328,0-0.701-0.03-1.104c-0.06-0.834-0.522-1.401-1.521-1.401
				c-0.999,0-1.789,0.865-1.789,3.071v3.623h-2.058v-7.931h2.058v1.282l0.611-0.939c0.566-0.403,1.147-0.552,1.908-0.552
				c1.685,0,2.653,0.835,2.817,2.221C524.358,383.463,524.373,383.866,524.373,384.507z"/>
			<path fill="#562E87" d="M437.565,403.091v4.726h-2.057v-4.129c0-0.462-0.015-0.895-0.06-1.297
				c-0.104-0.82-0.551-1.268-1.341-1.268c-0.924,0-1.446,0.791-1.446,2.624v4.07h-2.042v-4.129c0-0.462-0.015-0.895-0.06-1.297
				c-0.104-0.82-0.566-1.268-1.356-1.268c-0.924,0-1.431,0.791-1.431,2.624v4.07h-2.058v-7.931h2.058v1.208l0.581-0.954
				c0.447-0.313,0.969-0.462,1.685-0.462c1.297,0,2.117,0.641,2.43,1.506l0.775-1.044c0.447-0.313,0.984-0.462,1.699-0.462
				c1.506,0,2.371,0.879,2.549,1.968C437.55,402.047,437.565,402.45,437.565,403.091z"/>
			<path fill="#562E87" d="M441.759,398.022c0,0.656-0.462,1.088-1.133,1.088s-1.133-0.433-1.133-1.088
				c0-0.641,0.462-1.088,1.133-1.088S441.759,397.381,441.759,398.022z M439.597,407.816v-7.931h2.058v7.931H439.597z"/>
			<path fill="#562E87" d="M445.785,407.995c0,0.298-0.015,0.686-0.03,0.954c-0.104,1.252-0.82,1.998-2.639,1.998
				c-0.284,0-0.537-0.015-0.761-0.045v-1.461c0.895,0.075,1.282-0.119,1.357-0.73c0.015-0.209,0.03-0.462,0.03-0.686v-8.14h2.042
				V407.995z M445.889,398.022c0,0.715-0.387,1.088-1.118,1.088c-0.746,0-1.133-0.373-1.133-1.088c0-0.716,0.388-1.088,1.133-1.088
				C445.502,396.934,445.889,397.306,445.889,398.022z"/>
			<path fill="#562E87" d="M455.342,403.344v4.472h-2.057v-4.189c0-0.328,0-0.701-0.03-1.104c-0.06-0.834-0.522-1.401-1.521-1.401
				c-0.999,0-1.789,0.865-1.789,3.071v3.623h-2.058v-7.931h2.058v1.282l0.611-0.939c0.566-0.403,1.147-0.552,1.908-0.552
				c1.685,0,2.653,0.835,2.817,2.221C455.327,402.3,455.342,402.703,455.342,403.344z"/>
			<path fill="#562E87" d="M465.11,399.751v1.655c-1.714-0.12-2.564,0.641-2.564,2.772v3.638h-2.058v-7.931h2.058v1.446l0.626-1.103
				c0.388-0.358,0.91-0.537,1.356-0.537C464.768,399.691,464.932,399.707,465.11,399.751z"/>
			<path fill="#562E87" d="M473.476,404.388h-5.635c0.134,1.669,0.88,2.191,1.834,2.191c0.879,0,1.521-0.492,1.655-1.342h2.057
				c-0.403,1.849-1.894,2.788-3.757,2.788c-2.177,0-3.861-1.356-3.861-4.144c0-2.43,1.595-4.204,4.025-4.204
				c2.43,0,3.712,1.849,3.712,4.01C473.505,403.881,473.505,404.119,473.476,404.388z M467.9,403.046h3.489
				c-0.134-1.252-0.701-1.923-1.685-1.923C468.75,401.123,468.079,401.734,467.9,403.046z"/>
			<path fill="#562E87" d="M483.392,403.702c0,2.862-1.759,4.323-3.801,4.323c-0.656,0-1.461-0.164-1.864-0.447l-0.521-0.82v3.98
				h-2.058v-10.853h2.058v1.208l0.596-0.864c0.447-0.358,1.252-0.552,2.057-0.552C482.08,399.677,483.392,401.361,483.392,403.702z
				 M481.26,403.836c0-1.625-0.775-2.713-1.998-2.713c-1.133,0-2.057,0.701-2.057,2.639v0.373c0,1.804,1.028,2.445,1.982,2.445
				C480.381,406.579,481.26,405.67,481.26,403.836z"/>
			<path fill="#562E87" d="M492.131,404.388h-5.635c0.134,1.669,0.88,2.191,1.834,2.191c0.879,0,1.521-0.492,1.654-1.342h2.058
				c-0.403,1.849-1.894,2.788-3.757,2.788c-2.177,0-3.861-1.356-3.861-4.144c0-2.43,1.595-4.204,4.025-4.204
				c2.43,0,3.712,1.849,3.712,4.01C492.161,403.881,492.161,404.119,492.131,404.388z M486.556,403.046h3.489
				c-0.134-1.252-0.701-1.923-1.685-1.923C487.406,401.123,486.735,401.734,486.556,403.046z"/>
			<path fill="#562E87" d="M498.425,399.751v1.655c-1.714-0.12-2.564,0.641-2.564,2.772v3.638h-2.058v-7.931h2.058v1.446
				l0.626-1.103c0.388-0.358,0.909-0.537,1.356-0.537C498.083,399.691,498.247,399.707,498.425,399.751z"/>
			<path fill="#562E87" d="M502.154,404.969c0,0.268,0,0.492,0.015,0.701c0.06,0.775,0.343,0.954,1.491,0.864v1.342
				c-0.462,0.075-0.895,0.104-1.357,0.104c-1.535,0-2.087-0.507-2.176-1.625c-0.03-0.358-0.03-0.701-0.03-1.148v-3.906h-1.163
				v-1.356h1.163v-1.953h2.057v1.953h1.64v1.356h-1.64V404.969z"/>
			<path fill="#562E87" d="M512.86,403.851c0,2.4-1.476,4.174-4.115,4.174s-4.115-1.774-4.115-4.174
				c0-2.415,1.476-4.174,4.115-4.174S512.86,401.436,512.86,403.851z M510.729,403.851c0-1.714-0.746-2.729-1.983-2.729
				s-1.983,1.014-1.983,2.729c0,1.699,0.746,2.728,1.983,2.728S510.729,405.55,510.729,403.851z"/>
			<path fill="#562E87" d="M516.59,398.022c0,0.656-0.462,1.088-1.133,1.088s-1.133-0.433-1.133-1.088
				c0-0.641,0.462-1.088,1.133-1.088S516.59,397.381,516.59,398.022z M514.428,407.816v-7.931h2.058v7.931H514.428z"/>
			<path fill="#562E87" d="M523.24,399.751v1.655c-1.714-0.12-2.564,0.641-2.564,2.772v3.638h-2.058v-7.931h2.058v1.446l0.626-1.103
				c0.388-0.358,0.909-0.537,1.356-0.537C522.897,399.691,523.061,399.707,523.24,399.751z"/>
			<path fill="#562E87" d="M531.605,404.388h-5.635c0.134,1.669,0.88,2.191,1.834,2.191c0.879,0,1.521-0.492,1.655-1.342h2.057
				c-0.403,1.849-1.894,2.788-3.757,2.788c-2.177,0-3.861-1.356-3.861-4.144c0-2.43,1.595-4.204,4.025-4.204
				c2.43,0,3.712,1.849,3.712,4.01C531.635,403.881,531.635,404.119,531.605,404.388z M526.03,403.046h3.489
				c-0.134-1.252-0.701-1.923-1.685-1.923C526.88,401.123,526.209,401.734,526.03,403.046z"/>
		</g>
	</g>
	<g>
		<g>
			<path fill="#562E87" d="M285.215,388.979h-2.728l-1.759-8.557l-1.849,8.557h-2.743l-2.579-10.287h2.221l1.729,8.707l1.818-8.557
				h2.892l1.759,8.587l1.849-8.736h2.117L285.215,388.979z"/>
			<path fill="#562E87" d="M293.256,387.816l-0.388,0.85c-0.551,0.373-1.222,0.521-1.968,0.521c-1.371,0-2.549-0.805-2.549-2.311
				c0-1.744,1.491-2.728,4.368-2.728h0.507v-0.164c0-0.238,0-0.477-0.03-0.746c-0.06-0.551-0.417-0.954-1.222-0.954
				c-0.82,0-1.268,0.477-1.327,1.342l-1.998,0.015c0.06-1.789,1.506-2.803,3.399-2.803c2.221,0,3.056,0.969,3.175,2.34
				c0.03,0.373,0.045,0.79,0.045,1.223v2.564c0,0.597,0.03,1.133,0.149,2.013h-2.012L293.256,387.816z M293.226,386.057v-0.641
				c-1.64-0.119-2.743,0.253-2.743,1.297c0,0.701,0.477,1.029,1.208,1.029C292.525,387.742,293.226,387.16,293.226,386.057z"/>
			<path fill="#562E87" d="M299.863,386.132c0,0.268,0,0.492,0.015,0.7c0.06,0.775,0.343,0.954,1.491,0.865v1.342
				c-0.462,0.075-0.895,0.104-1.357,0.104c-1.535,0-2.087-0.507-2.176-1.625c-0.03-0.358-0.03-0.701-0.03-1.148v-3.906h-1.163
				v-1.357h1.163v-1.953h2.057v1.953h1.64v1.357h-1.64V386.132z"/>
			<path fill="#562E87" d="M315.071,388.979h-2.326l-1.341-6.038l-1.357,6.038h-2.34l-2.52-7.931h2.296l1.401,6.217l1.297-6.187
				h2.475l1.342,6.172l1.386-6.202h2.207L315.071,388.979z"/>
			<path fill="#562E87" d="M320.904,379.185c0,0.656-0.462,1.088-1.133,1.088s-1.133-0.433-1.133-1.088
				c0-0.641,0.462-1.088,1.133-1.088S320.904,378.543,320.904,379.185z M318.743,388.979v-7.931h2.058v7.931H318.743z"/>
			<path fill="#562E87" d="M324.931,386.385c0,0.313,0,0.521,0.015,0.73c0.045,0.402,0.224,0.537,0.924,0.492v1.417
				c-0.402,0.044-0.805,0.06-1.267,0.06c-1.014,0-1.655-0.373-1.7-1.401c-0.03-0.358-0.03-0.73-0.03-1.252v-8.408h2.058V386.385z"/>
			<path fill="#562E87" d="M332.596,379.185c0,0.656-0.462,1.088-1.133,1.088s-1.133-0.433-1.133-1.088
				c0-0.641,0.462-1.088,1.133-1.088S332.596,378.543,332.596,379.185z M330.434,388.979v-7.931h2.058v7.931H330.434z"/>
			<path fill="#562E87" d="M336.682,386.564v2.415h-2.058v-10.957h2.058v6.648l3.19-3.623h2.475l-3.519,3.683l3.563,4.249h-2.594
				l-2.46-3.131L336.682,386.564z"/>
			<path fill="#562E87" d="M348.657,386.385c0,0.313,0,0.521,0.015,0.73c0.045,0.402,0.224,0.537,0.924,0.492v1.417
				c-0.402,0.044-0.805,0.06-1.267,0.06c-1.014,0-1.655-0.373-1.7-1.401c-0.03-0.358-0.03-0.73-0.03-1.252v-8.408h2.058V386.385z"/>
			<path fill="#562E87" d="M358.214,385.55h-5.635c0.134,1.669,0.88,2.191,1.834,2.191c0.879,0,1.521-0.492,1.655-1.342h2.057
				c-0.403,1.849-1.894,2.788-3.757,2.788c-2.177,0-3.861-1.356-3.861-4.144c0-2.43,1.595-4.204,4.025-4.204
				c2.43,0,3.712,1.849,3.712,4.01C358.244,385.043,358.244,385.282,358.214,385.55z M352.638,384.208h3.489
				c-0.134-1.252-0.701-1.923-1.685-1.923C353.488,382.285,352.817,382.896,352.638,384.208z"/>
			<path fill="#562E87" d="M364.508,380.914v1.655c-1.714-0.12-2.564,0.641-2.564,2.772v3.638h-2.058v-7.931h2.058v1.446
				l0.626-1.103c0.388-0.358,0.91-0.537,1.356-0.537C364.165,380.854,364.329,380.869,364.508,380.914z"/>
			<path fill="#562E87" d="M372.873,385.55h-5.635c0.134,1.669,0.88,2.191,1.834,2.191c0.879,0,1.521-0.492,1.655-1.342h2.057
				c-0.403,1.849-1.894,2.788-3.757,2.788c-2.177,0-3.861-1.356-3.861-4.144c0-2.43,1.595-4.204,4.025-4.204
				c2.43,0,3.712,1.849,3.712,4.01C372.903,385.043,372.903,385.282,372.873,385.55z M367.297,384.208h3.489
				c-0.134-1.252-0.701-1.923-1.685-1.923C368.147,382.285,367.477,382.896,367.297,384.208z"/>
			<path fill="#562E87" d="M382,384.507v4.472h-2.057v-4.189c0-0.328,0-0.701-0.03-1.104c-0.06-0.834-0.522-1.401-1.521-1.401
				c-0.999,0-1.789,0.865-1.789,3.071v3.623h-2.058v-7.931h2.058v1.282l0.611-0.939c0.566-0.403,1.147-0.552,1.908-0.552
				c1.685,0,2.653,0.835,2.817,2.221C381.985,383.463,382,383.866,382,384.507z"/>
			<path fill="#562E87" d="M390.664,381.287c0,1.133-0.507,1.923-1.565,2.877c-0.82,0.746-1.088,1.118-1.148,1.878h-1.774
				c0.06-1.058,0.343-1.595,1.073-2.4c0.91-1.014,1.237-1.536,1.237-2.221c0-0.88-0.477-1.401-1.356-1.401
				c-0.865,0-1.416,0.581-1.476,1.759h-2.087c0.06-2.042,1.491-3.294,3.697-3.294C389.427,378.484,390.664,379.587,390.664,381.287z
				 M388.249,388.025c0,0.686-0.492,1.163-1.178,1.163c-0.671,0-1.163-0.477-1.163-1.163s0.492-1.163,1.163-1.163
				C387.757,386.862,388.249,387.339,388.249,388.025z"/>
		</g>
	</g>
</g>
</svg>
