<?xml version="1.0" encoding="utf-8"?>
<!-- Generator: Adobe Illustrator 16.0.0, SVG Export Plug-In . SVG Version: 6.00 Build 0)  -->
<!DOCTYPE svg PUBLIC "-//W3C//DTD SVG 1.1//EN" "http://www.w3.org/Graphics/SVG/1.1/DTD/svg11.dtd">
<svg version="1.1" id="Layer_1" xmlns="http://www.w3.org/2000/svg" xmlns:xlink="http://www.w3.org/1999/xlink" x="0px" y="0px"
	 width="600px" height="550px" viewBox="0 0 600 550" enable-background="new 0 0 600 550" xml:space="preserve">
<circle fill="#F6FBFF" cx="300" cy="275" r="250.487"/>
<path fill="none" stroke="#562E86" stroke-width="2" stroke-linecap="round" stroke-linejoin="round" stroke-miterlimit="10" d="
	M351.884,258.687c-1.442-21.673-20.021-38.82-42.731-38.82c-19.297,0-35.613,12.381-40.967,29.401
	c-2.998-1.102-6.248-1.709-9.645-1.709c-6.949,0-13.289,3.127-18.102,6.678c-4.813,3.86-8.097,9.815-8.933,16.459
	c-0.099-0.391-0.2,0.663-0.3-0.008c-5.98-0.136-11.394,1.181-15.312,6.153c-3.919,2.99-6.344,9.558-6.344,14.852
	c0,5.817,2.425,11.051,6.343,14.852c3.919,3.801,9.332,6.152,15.313,6.152c1.423,0,2.813-0.138,4.159-0.392
	c6.539,8.519,17,14.037,28.791,14.037c10.131,0,19.28-4.076,25.803-10.628c4.89,4.75,11.649,7.687,19.115,7.687
	c10.197,0,19.071-5.481,23.668-13.571c3.791,1.833,8.063,2.866,12.581,2.866c7.796,0,14.854-3.064,19.961-8.019
	c5.107-3.411,8.268-12.826,8.268-19.357c0-6.879-2.31-12.334-6.174-17.09C363.514,263.546,358.097,260.121,351.884,258.687z"/>
<line fill="none" stroke="#562E86" stroke-width="2" stroke-linecap="round" stroke-linejoin="round" stroke-miterlimit="10" stroke-dasharray="12,5.5" x1="357.259" y1="210.604" x2="407.509" y2="127.829"/>
<line fill="none" stroke="#562E86" stroke-width="2" stroke-linecap="round" stroke-linejoin="round" stroke-miterlimit="10" stroke-dasharray="12,5.5" x1="192.605" y1="426.171" x2="242.853" y2="343.396"/>
<g>
	<g>
		
			<line fill="none" stroke="#562E86" stroke-width="2" stroke-linecap="round" stroke-linejoin="round" x1="299.582" y1="157.186" x2="299.582" y2="200.142"/>
		<g>
			<path fill="#562E86" d="M291.421,188.523c0.396-0.252,0.922-0.135,1.174,0.26l6.986,10.97l6.986-10.97
				c0.252-0.396,0.778-0.513,1.174-0.26c0.395,0.252,0.509,0.781,0.26,1.173l-7.703,12.095c-0.155,0.245-0.426,0.394-0.717,0.394
				s-0.562-0.148-0.717-0.394l-7.703-12.095c-0.09-0.141-0.133-0.299-0.133-0.456C291.029,188.961,291.167,188.686,291.421,188.523z
				"/>
		</g>
	</g>
</g>
<g>
	<g>
		
			<line fill="none" stroke="#562E86" stroke-width="2" stroke-linecap="round" stroke-linejoin="round" x1="299.582" y1="347.396" x2="299.582" y2="390.353"/>
		<g>
			<path fill="#562E86" d="M291.421,378.734c0.396-0.252,0.922-0.135,1.174,0.261l6.986,10.969l6.986-10.969
				c0.252-0.396,0.778-0.513,1.174-0.261c0.395,0.252,0.509,0.781,0.26,1.174l-7.703,12.095c-0.155,0.245-0.426,0.394-0.717,0.394
				s-0.562-0.149-0.717-0.394l-7.703-12.095c-0.09-0.141-0.133-0.3-0.133-0.456C291.029,379.172,291.167,378.897,291.421,378.734z"
				/>
		</g>
	</g>
</g>
<path fill="none" stroke="#562E86" stroke-width="2" stroke-linecap="round" stroke-linejoin="round" stroke-miterlimit="10" stroke-dasharray="12,5.5" d="
	M242.738,210.604c0,0.686-3.141-5.339-7.852-12.933c-4.711-7.911-10.991-20.319-17.272-28.454
	c-6.281-11.748-12.562-21.3-17.272-28.455c-4.711-7.759-7.852-12.933-7.852-12.933"/>
<path fill="none" stroke="#562E86" stroke-width="2" stroke-linecap="round" stroke-linejoin="round" stroke-miterlimit="10" stroke-dasharray="12,5.5" d="
	M407.509,426.091c0-1.279-3.141-6.05-7.852-12.933c-4.711-8.766-10.992-16.186-17.273-28.454
	c-6.281-10.347-12.563-20.694-17.273-28.454c-4.711-7.76-7.852-12.934-7.852-12.934"/>
<g>
	<path fill="#562E86" d="M287.011,281.199h-2.652l-1.529-6.884l-1.547,6.884h-2.669l-2.872-9.043h2.617l1.598,7.088l1.479-7.055
		h2.822l1.529,7.038l1.582-7.071h2.516L287.011,281.199z"/>
	<path fill="#562E86" d="M293.404,270.031c0,0.748-0.527,1.241-1.292,1.241s-1.292-0.493-1.292-1.241
		c0-0.731,0.527-1.241,1.292-1.241S293.404,269.3,293.404,270.031z M290.939,281.199v-9.043h2.346v9.043H290.939z"/>
	<path fill="#562E86" d="M297.739,278.242c0,0.357,0,0.595,0.017,0.833c0.051,0.459,0.256,0.612,1.055,0.561v1.615
		c-0.459,0.051-0.918,0.068-1.445,0.068c-1.156,0-1.887-0.425-1.938-1.598c-0.034-0.408-0.034-0.833-0.034-1.428v-9.587h2.346
		V278.242z"/>
	<path fill="#562E86" d="M302.482,278.242c0,0.357,0,0.595,0.017,0.833c0.051,0.459,0.255,0.612,1.054,0.561v1.615
		c-0.459,0.051-0.918,0.068-1.445,0.068c-1.155,0-1.887-0.425-1.938-1.598c-0.033-0.408-0.033-0.833-0.033-1.428v-9.587h2.346
		V278.242z"/>
	<path fill="#562E86" d="M313.123,277.29h-6.426c0.153,1.904,1.004,2.499,2.092,2.499c1.002,0,1.733-0.561,1.887-1.53h2.346
		c-0.459,2.108-2.159,3.179-4.284,3.179c-2.481,0-4.402-1.547-4.402-4.726c0-2.771,1.819-4.793,4.589-4.793
		c2.771,0,4.233,2.108,4.233,4.573C313.157,276.711,313.157,276.984,313.123,277.29z M306.765,275.76h3.978
		c-0.153-1.428-0.799-2.193-1.921-2.193C307.734,273.567,306.969,274.264,306.765,275.76z"/>
	<path fill="#562E86" d="M323.271,276.1v5.1h-2.346v-4.776c0-0.374,0-0.799-0.033-1.258c-0.068-0.952-0.596-1.598-1.734-1.598
		s-2.039,0.986-2.039,3.502v4.13h-2.346v-9.043h2.346v1.462l0.697-1.071c0.646-0.458,1.309-0.629,2.176-0.629
		c1.92,0,3.025,0.952,3.212,2.533C323.255,274.91,323.271,275.369,323.271,276.1z"/>
</g>
<g>
	<path fill="#562E86" d="M284.154,135.8v5.507h-1.461v-4.828c0-0.799-0.018-1.292-0.068-1.75c-0.137-1.02-0.782-1.513-1.802-1.513
		c-1.14,0-1.972,0.901-1.972,3.638v4.454h-1.462v-4.828c0-0.799-0.017-1.292-0.068-1.75c-0.136-1.02-0.782-1.513-1.802-1.513
		c-1.139,0-1.972,0.901-1.972,3.638v4.454h-1.462v-9.009h1.462v1.309l0.578-1.02c0.459-0.374,1.104-0.527,1.903-0.527
		c1.377,0,2.262,0.697,2.602,1.683l0.799-1.156c0.459-0.374,1.104-0.527,1.903-0.527c1.614,0,2.532,0.952,2.737,2.193
		C284.137,134.712,284.154,135.069,284.154,135.8z"/>
	<path fill="#562E86" d="M294.814,136.803c0,2.533-1.411,4.742-4.471,4.742s-4.471-2.209-4.471-4.742
		c0-2.55,1.411-4.743,4.471-4.743S294.814,134.253,294.814,136.803z M293.216,136.803c0-2.125-1.055-3.621-2.873-3.621
		s-2.873,1.496-2.873,3.621c0,2.107,1.055,3.621,2.873,3.621S293.216,138.911,293.216,136.803z"/>
	<path fill="#562E86" d="M303.943,137.245h-6.527c0.136,2.38,1.258,3.179,2.584,3.179c1.173,0,2.125-0.731,2.328-2.023h1.53
		c-0.356,2.176-2.073,3.145-3.927,3.145c-2.346,0-4.097-1.53-4.097-4.708c0-2.923,1.819-4.776,4.284-4.776
		c2.481,0,3.858,1.853,3.858,4.488C303.977,136.684,303.977,136.922,303.943,137.245z M297.433,136.123h5.064
		c-0.136-1.87-0.935-2.94-2.413-2.94C298.656,133.183,297.603,134.202,297.433,136.123z"/>
	<path fill="#562E86" d="M307.667,138.673c0,0.306,0,0.459,0.017,0.697c0.068,0.867,0.426,1.054,1.564,0.918v1.071
		c-0.426,0.068-0.833,0.085-1.241,0.085c-1.122,0-1.7-0.459-1.784-1.581c-0.018-0.238-0.018-0.612-0.018-1.122v-5.252h-1.207v-1.122
		h1.207v-2.091h1.462v2.091h1.683v1.122h-1.683V138.673z"/>
	<path fill="#562E86" d="M318.375,137.245h-6.527c0.136,2.38,1.258,3.179,2.583,3.179c1.174,0,2.125-0.731,2.33-2.023h1.529
		c-0.357,2.176-2.074,3.145-3.927,3.145c-2.346,0-4.097-1.53-4.097-4.708c0-2.923,1.818-4.776,4.283-4.776
		c2.482,0,3.859,1.853,3.859,4.488C318.41,136.684,318.41,136.922,318.375,137.245z M311.865,136.123h5.066
		c-0.137-1.87-0.936-2.94-2.414-2.94C313.089,133.183,312.035,134.202,311.865,136.123z"/>
	<path fill="#562E86" d="M327.963,136.242v5.065h-1.462v-4.963c0-0.459,0-0.833-0.033-1.292c-0.086-1.054-0.664-1.836-2.058-1.836
		c-1.411,0-2.601,1.054-2.601,4.131v3.96h-1.462v-9.009h1.462v1.547l0.561-1.037c0.766-0.595,1.428-0.748,2.346-0.748
		c1.973,0,3.077,1.054,3.213,2.635C327.963,135.154,327.963,135.511,327.963,136.242z"/>
</g>
<g>
	<path fill="#562E86" d="M281.623,414.649h-1.53c-0.204-1.054-0.851-1.683-1.903-1.683c-1.021,0-1.496,0.561-1.496,1.343
		c0,0.901,0.748,1.258,1.971,1.581c2.074,0.544,3.061,1.36,3.061,2.89c0,1.7-1.445,2.55-3.349,2.55c-1.853,0-3.264-0.85-3.536-2.89
		h1.53c0.237,1.309,1.071,1.768,2.107,1.768c0.97,0,1.751-0.442,1.751-1.309c0-0.867-0.611-1.326-2.125-1.734
		c-1.615-0.442-2.906-1.105-2.906-2.686c0-1.649,1.258-2.635,3.11-2.635C280.33,411.844,281.435,413,281.623,414.649z"/>
	<path fill="#562E86" d="M292.111,416.451c0,3.332-2.074,4.878-4.402,4.878c-0.748,0-1.7-0.221-2.159-0.595l-0.595-0.884v4.572
		h-1.462v-12.341h1.462v1.445l0.68-0.969c0.51-0.425,1.462-0.714,2.38-0.714C290.649,411.844,292.111,413.816,292.111,416.451z
		 M290.513,416.621c0-2.04-0.918-3.654-2.72-3.654c-1.496,0-2.839,0.952-2.839,3.536v0.493c0,2.329,1.462,3.213,2.754,3.213
		C289.289,420.208,290.513,418.983,290.513,416.621z"/>
	<path fill="#562E86" d="M301.24,417.029h-6.527c0.136,2.38,1.258,3.179,2.584,3.179c1.173,0,2.125-0.731,2.328-2.023h1.53
		c-0.356,2.176-2.073,3.145-3.927,3.145c-2.346,0-4.097-1.53-4.097-4.708c0-2.923,1.819-4.776,4.284-4.776
		c2.481,0,3.858,1.853,3.858,4.488C301.274,416.468,301.274,416.706,301.24,417.029z M294.73,415.907h5.064
		c-0.136-1.87-0.935-2.94-2.413-2.94C295.953,412.966,294.9,413.986,294.73,415.907z"/>
	<path fill="#562E86" d="M304.607,418.508c0,0.271,0,0.561,0.017,0.85c0.034,0.578,0.306,0.765,1.104,0.68v1.054
		c-0.322,0.051-0.697,0.068-1.037,0.068c-0.85,0-1.479-0.272-1.529-1.411c-0.018-0.306-0.018-0.697-0.018-1.19v-9.961h1.463V418.508
		z"/>
	<path fill="#562E86" d="M314.771,417.029h-6.527c0.137,2.38,1.258,3.179,2.584,3.179c1.173,0,2.125-0.731,2.329-2.023h1.53
		c-0.357,2.176-2.074,3.145-3.928,3.145c-2.346,0-4.096-1.53-4.096-4.708c0-2.923,1.818-4.776,4.283-4.776
		c2.482,0,3.859,1.853,3.859,4.488C314.806,416.468,314.806,416.706,314.771,417.029z M308.261,415.907h5.065
		c-0.136-1.87-0.935-2.94-2.414-2.94C309.485,412.966,308.431,413.986,308.261,415.907z"/>
	<path fill="#562E86" d="M324.359,416.026v5.065h-1.461v-4.963c0-0.459,0-0.833-0.034-1.292c-0.085-1.054-0.663-1.836-2.058-1.836
		c-1.41,0-2.6,1.054-2.6,4.131v3.96h-1.463v-9.009h1.463v1.547l0.561-1.037c0.765-0.595,1.428-0.748,2.346-0.748
		c1.972,0,3.076,1.054,3.213,2.635C324.359,414.938,324.359,415.295,324.359,416.026z"/>
</g>
</svg>
