<?xml version="1.0" encoding="utf-8"?>
<!-- Generator: Adobe Illustrator 16.0.0, SVG Export Plug-In . SVG Version: 6.00 Build 0)  -->
<!DOCTYPE svg PUBLIC "-//W3C//DTD SVG 1.1//EN" "http://www.w3.org/Graphics/SVG/1.1/DTD/svg11.dtd">
<svg version="1.1" id="Layer_1" xmlns="http://www.w3.org/2000/svg" xmlns:xlink="http://www.w3.org/1999/xlink" x="0px" y="0px"
	 width="600px" height="550px" viewBox="0 0 600 550" enable-background="new 0 0 600 550" xml:space="preserve">
<circle fill="#F6FBFF" cx="300" cy="275" r="250.487"/>
<g>
	<g>
		<path fill="none" stroke="#562E86" stroke-width="2" stroke-linecap="round" stroke-linejoin="round" d="M144.472,263.216
			c0,0,8.096-12.72,18.816-21.854c5.359-4.568,11.807-9.36,19.09-13.46c7.281-4.409,15.396-7.177,24.094-9.304
			c4.348-0.979,8.842-1.46,13.451-1.41c4.607,0.05,9.33,0.628,14.135,1.765c4.803,0.892,9.689,2.858,14.627,5.521
			c4.938,2.654,9.924,5.72,14.932,9.998c3.336,2.611,6.684,6.504,10.027,9.494c3.346,3.1,6.689,6.811,10.025,11.993
			c3.002,4.201,6.297,8.848,9.336,14.14"/>
		<g>
			<path fill="#562E86" d="M280.093,264.156c0.215-0.416,0.729-0.579,1.146-0.363l11.545,5.986l0.541-12.994
				c0.02-0.469,0.416-0.834,0.885-0.814c0.469,0.021,0.832,0.42,0.814,0.885l-0.598,14.327c-0.012,0.29-0.172,0.555-0.422,0.7
				c-0.252,0.146-0.561,0.153-0.818,0.02l-12.73-6.6c-0.148-0.077-0.266-0.192-0.344-0.327
				C279.972,264.732,279.954,264.424,280.093,264.156z"/>
		</g>
	</g>
</g>
<g>
	<g>
		<path fill="none" stroke="#562E86" stroke-width="2" stroke-linecap="round" stroke-linejoin="round" d="M459.64,295.139
			c-2.303,2.935-7.734,9.489-15.582,16.669c-5.313,4.86-11.734,10.006-19.041,14.512c-7.307,3.994-15.502,8-24.363,10.66
			c-8.861,2.765-18.391,2.463-28.365,1.239c-9.973-1.237-20.395-6.259-31.039-13.751c-10.646-8.793-21.518-17.356-32.395-34.312"/>
		<g>
			<path fill="#562E86" d="M446.085,299.381c0.16,0.44,0.648,0.668,1.09,0.508l12.221-4.445l-1.141,12.955
				c-0.041,0.468,0.305,0.881,0.773,0.922c0.467,0.04,0.879-0.309,0.922-0.772l1.256-14.284c0.025-0.289-0.098-0.572-0.328-0.749
				s-0.535-0.224-0.809-0.125l-13.477,4.901c-0.156,0.057-0.287,0.156-0.383,0.28C446.04,298.794,445.981,299.097,446.085,299.381z"
				/>
		</g>
	</g>
</g>
<g>
	<g>
		
			<path fill="none" stroke="#562E86" stroke-width="2" stroke-linecap="round" stroke-linejoin="round" stroke-dasharray="12,5.5" d="
			M297.032,288.958c0,0-71.283,109.457-150.836,5.939"/>
		<g>
			<path fill="#562E86" d="M159.68,299.052c-0.16,0.441-0.648,0.668-1.089,0.508l-12.224-4.44l1.145,12.954
				c0.041,0.468-0.305,0.882-0.772,0.922c-0.467,0.041-0.88-0.309-0.922-0.771l-1.262-14.284c-0.025-0.289,0.099-0.572,0.329-0.749
				s0.536-0.224,0.809-0.125l13.478,4.896c0.157,0.057,0.288,0.156,0.383,0.28C159.726,298.465,159.782,298.768,159.68,299.052z"/>
		</g>
	</g>
</g>
<g>
	<g>
		
			<path fill="none" stroke="#562E86" stroke-width="2" stroke-linecap="round" stroke-linejoin="round" stroke-dasharray="12,5.5" d="
			M308.854,270.656c0,0,69.096-112.819,146.959-8.025"/>
		<g>
			<path fill="#562E86" d="M321.825,265.101c-0.205-0.421-0.715-0.597-1.137-0.391l-11.687,5.706l-0.228-13.003
				c-0.009-0.47-0.396-0.844-0.865-0.835s-0.842,0.4-0.835,0.865l0.252,14.338c0.005,0.29,0.158,0.558,0.406,0.71
				c0.248,0.151,0.556,0.166,0.817,0.039l12.886-6.291c0.15-0.074,0.27-0.187,0.351-0.319
				C321.932,265.68,321.956,265.373,321.825,265.101z"/>
		</g>
	</g>
</g>
<g>
	<path fill="#562E86" d="M162.934,171.074c0,3.332-2.074,4.879-4.402,4.879c-0.748,0-1.7-0.221-2.159-0.595l-0.595-0.884v1.24
		h-1.462v-12.493h1.462v4.929l0.68-0.969c0.51-0.425,1.462-0.714,2.38-0.714C161.472,166.467,162.934,168.439,162.934,171.074z
		 M161.336,171.244c0-2.039-0.918-3.654-2.72-3.654c-1.496,0-2.839,0.952-2.839,3.536v0.492c0,2.329,1.462,3.213,2.754,3.213
		C160.112,174.831,161.336,173.607,161.336,171.244z"/>
	<path fill="#562E86" d="M172.063,171.652h-6.527c0.136,2.38,1.258,3.179,2.583,3.179c1.173,0,2.125-0.73,2.329-2.022h1.53
		c-0.357,2.176-2.074,3.145-3.927,3.145c-2.346,0-4.097-1.53-4.097-4.709c0-2.923,1.819-4.776,4.284-4.776
		c2.482,0,3.859,1.854,3.859,4.488C172.097,171.091,172.097,171.329,172.063,171.652z M165.552,170.53h5.065
		c-0.136-1.869-0.935-2.94-2.414-2.94C166.776,167.589,165.722,168.609,165.552,170.53z"/>
	<path fill="#562E86" d="M183.146,175.714h-1.734l-2.006-7.581l-2.006,7.581h-1.734l-2.873-9.009h1.683l2.091,7.615l1.972-7.615
		h1.819l2.006,7.564l2.091-7.564h1.564L183.146,175.714z"/>
	<path fill="#562E86" d="M194.859,175.714h-1.462v-1.529l-0.561,1.054c-0.765,0.561-1.428,0.714-2.346,0.714
		c-1.87,0-2.958-1.054-3.162-2.295c-0.068-0.459-0.085-0.815-0.085-1.547v-5.405h1.462v5.134c0,0.289,0.017,0.781,0.068,1.24
		c0.136,1.021,0.867,1.717,2.091,1.717c1.411,0,2.533-1.054,2.533-4.13v-3.961h1.462V175.714z"/>
	<path fill="#562E86" d="M203.376,169.272h-1.53c-0.204-1.054-0.85-1.683-1.904-1.683c-1.02,0-1.496,0.561-1.496,1.343
		c0,0.901,0.748,1.258,1.972,1.581c2.074,0.544,3.06,1.359,3.06,2.89c0,1.7-1.445,2.55-3.349,2.55c-1.853,0-3.264-0.85-3.536-2.89
		h1.53c0.238,1.309,1.071,1.768,2.107,1.768c0.969,0,1.751-0.441,1.751-1.309s-0.612-1.326-2.125-1.734
		c-1.615-0.441-2.906-1.104-2.906-2.686c0-1.648,1.258-2.635,3.11-2.635C202.084,166.467,203.189,167.624,203.376,169.272z"/>
	<path fill="#562E86" d="M206.998,173.08c0,0.307,0,0.459,0.017,0.697c0.068,0.867,0.425,1.054,1.563,0.918v1.07
		c-0.425,0.068-0.833,0.086-1.241,0.086c-1.122,0-1.7-0.459-1.785-1.581c-0.017-0.238-0.017-0.612-0.017-1.122v-5.253h-1.207v-1.121
		h1.207v-2.091h1.462v2.091h1.683v1.121h-1.683V173.08z"/>
	<path fill="#562E86" d="M223.351,175.714h-1.734l-2.006-7.581l-2.006,7.581h-1.734l-2.873-9.009h1.683l2.091,7.615l1.972-7.615
		h1.819l2.006,7.564l2.091-7.564h1.564L223.351,175.714z"/>
	<path fill="#562E86" d="M235.778,171.21c0,2.532-1.411,4.742-4.471,4.742s-4.471-2.21-4.471-4.742c0-2.55,1.411-4.743,4.471-4.743
		S235.778,168.661,235.778,171.21z M234.18,171.21c0-2.125-1.054-3.621-2.873-3.621s-2.873,1.496-2.873,3.621
		c0,2.107,1.054,3.62,2.873,3.62S234.18,173.318,234.18,171.21z"/>
	<path fill="#562E86" d="M241.694,166.621v1.104c-1.53-0.102-2.686,0.799-2.686,2.856v5.133h-1.462v-9.009h1.462v1.411l0.816-1.207
		c0.374-0.255,0.833-0.408,1.258-0.408C241.32,166.501,241.524,166.536,241.694,166.621z"/>
	<path fill="#562E86" d="M250.822,175.714h-1.462v-1.444l-0.68,0.969c-0.51,0.425-1.462,0.714-2.38,0.714
		c-2.635,0-4.097-1.972-4.097-4.606c0-3.332,2.074-4.879,4.403-4.879c0.748,0,1.7,0.222,2.159,0.595l0.595,0.885v-4.726h1.462
		V175.714z M249.36,171.295v-0.493c0-2.329-1.461-3.213-2.753-3.213c-1.581,0-2.805,1.224-2.805,3.587
		c0,2.04,0.918,3.654,2.72,3.654C248.018,174.831,249.36,173.878,249.36,171.295z"/>
	<path fill="#562E86" d="M260.768,171.652h-6.527c0.136,2.38,1.258,3.179,2.583,3.179c1.173,0,2.125-0.73,2.329-2.022h1.53
		c-0.357,2.176-2.074,3.145-3.927,3.145c-2.346,0-4.097-1.53-4.097-4.709c0-2.923,1.819-4.776,4.284-4.776
		c2.482,0,3.859,1.854,3.859,4.488C260.802,171.091,260.802,171.329,260.768,171.652z M254.257,170.53h5.065
		c-0.136-1.869-0.935-2.94-2.414-2.94C255.481,167.589,254.427,168.609,254.257,170.53z"/>
	<path fill="#562E86" d="M270.355,170.649v5.065h-1.462v-4.963c0-0.459,0-0.833-0.034-1.292c-0.085-1.054-0.663-1.836-2.057-1.836
		c-1.411,0-2.601,1.054-2.601,4.131v3.96h-1.462v-9.009h1.462v1.547l0.561-1.037c0.765-0.595,1.428-0.748,2.346-0.748
		c1.972,0,3.077,1.054,3.213,2.635C270.355,169.561,270.355,169.918,270.355,170.649z"/>
</g>
<g>
	<path fill="#562E86" d="M123.528,276.963c0,3.264-2.005,4.93-4.334,4.93c-0.748,0-1.666-0.188-2.125-0.51l-0.595-0.936v1.207
		h-2.346v-12.493h2.346v4.827l0.68-0.986c0.51-0.407,1.428-0.629,2.346-0.629C122.033,272.374,123.528,274.294,123.528,276.963z
		 M121.098,277.117c0-1.853-0.884-3.094-2.278-3.094c-1.292,0-2.346,0.799-2.346,3.009v0.425c0,2.057,1.173,2.788,2.261,2.788
		C120.095,280.245,121.098,279.208,121.098,277.117z"/>
	<path fill="#562E86" d="M127.524,270.487c0,0.748-0.527,1.241-1.292,1.241c-0.765,0-1.292-0.493-1.292-1.241
		c0-0.73,0.527-1.24,1.292-1.24C126.997,269.247,127.524,269.756,127.524,270.487z M125.059,281.655v-9.043h2.346v9.043H125.059z"/>
	<path fill="#562E86" d="M138.08,276.555v5.1h-2.346v-4.776c0-0.374,0-0.799-0.034-1.258c-0.068-0.952-0.595-1.598-1.734-1.598
		c-1.139,0-2.04,0.985-2.04,3.502v4.13h-2.346v-9.043h2.346v1.462l0.697-1.071c0.646-0.458,1.309-0.629,2.176-0.629
		c1.92,0,3.025,0.952,3.212,2.533C138.063,275.366,138.08,275.825,138.08,276.555z"/>
	<path fill="#562E86" d="M148.637,276.555v5.1h-2.346v-4.776c0-0.374,0-0.799-0.034-1.258c-0.068-0.952-0.595-1.598-1.734-1.598
		c-1.139,0-2.04,0.985-2.04,3.502v4.13h-2.346v-9.043h2.346v1.462l0.697-1.071c0.646-0.458,1.309-0.629,2.176-0.629
		c1.92,0,3.025,0.952,3.212,2.533C148.62,275.366,148.637,275.825,148.637,276.555z"/>
	<path fill="#562E86" d="M158.871,277.746h-6.425c0.153,1.903,1.003,2.499,2.091,2.499c1.003,0,1.734-0.562,1.887-1.53h2.346
		c-0.459,2.107-2.159,3.179-4.284,3.179c-2.481,0-4.402-1.547-4.402-4.726c0-2.771,1.819-4.794,4.589-4.794
		c2.771,0,4.233,2.108,4.233,4.573C158.905,277.167,158.905,277.44,158.871,277.746z M152.514,276.215h3.978
		c-0.153-1.428-0.799-2.192-1.921-2.192C153.482,274.023,152.718,274.72,152.514,276.215z"/>
	<path fill="#562E86" d="M169.02,276.555v5.1h-2.346v-4.776c0-0.374,0-0.799-0.034-1.258c-0.068-0.952-0.595-1.598-1.734-1.598
		c-1.139,0-2.04,0.985-2.04,3.502v4.13h-2.346v-9.043h2.346v1.462l0.697-1.071c0.646-0.458,1.309-0.629,2.176-0.629
		c1.92,0,3.025,0.952,3.212,2.533C169.003,275.366,169.02,275.825,169.02,276.555z"/>
</g>
<g>
	<path fill="#562E86" d="M436.283,276.963c0,3.264-2.005,4.93-4.334,4.93c-0.748,0-1.666-0.188-2.125-0.51l-0.595-0.936v1.207
		h-2.346v-12.493h2.346v4.827l0.68-0.986c0.51-0.407,1.428-0.629,2.346-0.629C434.788,272.374,436.283,274.294,436.283,276.963z
		 M433.853,277.117c0-1.853-0.884-3.094-2.278-3.094c-1.292,0-2.346,0.799-2.346,3.009v0.425c0,2.057,1.173,2.788,2.261,2.788
		C432.85,280.245,433.853,279.208,433.853,277.117z"/>
	<path fill="#562E86" d="M446.16,281.655h-2.346v-1.529l-0.697,1.155c-0.663,0.442-1.309,0.612-2.176,0.612
		c-1.87,0-2.992-1.054-3.196-2.295c-0.068-0.459-0.085-0.918-0.085-1.648v-5.338h2.346v4.845c0,0.289,0.017,0.782,0.068,1.241
		c0.119,0.935,0.663,1.529,1.751,1.529c1.173,0,1.989-0.969,1.989-3.009v-4.606h2.346V281.655z"/>
	<path fill="#562E86" d="M450.785,270.487c0,0.748-0.527,1.241-1.292,1.241c-0.765,0-1.292-0.493-1.292-1.241
		c0-0.73,0.527-1.24,1.292-1.24C450.258,269.247,450.785,269.756,450.785,270.487z M448.32,281.655v-9.043h2.346v9.043H448.32z"/>
	<path fill="#562E86" d="M455.646,278.409c0,0.306,0,0.561,0.017,0.799c0.068,0.884,0.391,1.088,1.7,0.985v1.53
		c-0.527,0.085-1.02,0.119-1.547,0.119c-1.75,0-2.379-0.578-2.481-1.854c-0.034-0.407-0.034-0.799-0.034-1.309v-4.453h-1.326v-1.547
		h1.326v-2.227h2.346v2.227h1.87v1.547h-1.87V278.409z"/>
	<path fill="#562E86" d="M467.002,277.746h-6.425c0.153,1.903,1.003,2.499,2.091,2.499c1.003,0,1.734-0.562,1.887-1.53h2.346
		c-0.459,2.107-2.159,3.179-4.284,3.179c-2.481,0-4.402-1.547-4.402-4.726c0-2.771,1.819-4.794,4.589-4.794
		c2.771,0,4.233,2.108,4.233,4.573C467.037,277.167,467.037,277.44,467.002,277.746z M460.645,276.215h3.978
		c-0.153-1.428-0.799-2.192-1.921-2.192C461.614,274.023,460.849,274.72,460.645,276.215z"/>
	<path fill="#562E86" d="M477.151,276.555v5.1h-2.346v-4.776c0-0.374,0-0.799-0.034-1.258c-0.068-0.952-0.595-1.598-1.734-1.598
		c-1.139,0-2.04,0.985-2.04,3.502v4.13h-2.346v-9.043h2.346v1.462l0.697-1.071c0.646-0.458,1.309-0.629,2.176-0.629
		c1.92,0,3.025,0.952,3.212,2.533C477.134,275.366,477.151,275.825,477.151,276.555z"/>
</g>
<g>
	<path fill="#562E86" d="M175.948,383.828c0,0.527-0.408,0.935-0.935,0.935s-0.935-0.407-0.935-0.935s0.408-0.935,0.935-0.935
		S175.948,383.3,175.948,383.828z M174.282,394.86v-9.01h1.462v9.01H174.282z"/>
	<path fill="#562E86" d="M185.943,389.794v5.065h-1.462v-4.964c0-0.459,0-0.833-0.034-1.292c-0.085-1.054-0.663-1.836-2.057-1.836
		c-1.411,0-2.601,1.055-2.601,4.131v3.961h-1.462v-9.01h1.462v1.547l0.561-1.036c0.765-0.596,1.428-0.748,2.346-0.748
		c1.972,0,3.077,1.054,3.212,2.635C185.943,388.707,185.943,389.063,185.943,389.794z"/>
	<path fill="#562E86" d="M190.16,392.225c0,0.306,0,0.459,0.017,0.696c0.068,0.867,0.425,1.055,1.563,0.918v1.071
		c-0.425,0.068-0.833,0.085-1.241,0.085c-1.122,0-1.7-0.459-1.785-1.581c-0.017-0.237-0.017-0.611-0.017-1.122v-5.252h-1.207v-1.122
		h1.207v-2.091h1.462v2.091h1.683v1.122h-1.683V392.225z"/>
	<path fill="#562E86" d="M200.869,390.797h-6.527c0.136,2.38,1.258,3.179,2.583,3.179c1.173,0,2.125-0.731,2.329-2.023h1.53
		c-0.357,2.176-2.074,3.145-3.927,3.145c-2.346,0-4.097-1.529-4.097-4.708c0-2.924,1.819-4.776,4.284-4.776
		c2.482,0,3.859,1.853,3.859,4.487C200.903,390.236,200.903,390.474,200.869,390.797z M194.359,389.675h5.065
		c-0.136-1.87-0.935-2.94-2.414-2.94C195.583,386.735,194.529,387.754,194.359,389.675z"/>
	<path fill="#562E86" d="M210.712,392.65c0,0.561,0,1.258-0.017,1.751c-0.085,2.635-1.683,4.028-4.284,4.028
		c-2.567,0-3.842-1.071-4.029-2.975l-0.017-0.17h1.479l0.017,0.153c0.119,1.104,1.003,1.869,2.55,1.869
		c1.785,0,2.753-1.02,2.822-2.754c0.017-0.425,0.017-0.714,0.017-0.985v-0.153l-0.68,0.969c-0.51,0.426-1.462,0.714-2.38,0.714
		c-2.635,0-4.097-1.972-4.097-4.606c0-3.331,2.074-4.878,4.403-4.878c0.748,0,1.7,0.221,2.159,0.595l0.595,0.884v-1.241h1.462
		V392.65z M209.25,390.44v-0.493c0-2.328-1.461-3.212-2.753-3.212c-1.581,0-2.805,1.224-2.805,3.586c0,2.04,0.918,3.655,2.72,3.655
		C207.907,393.976,209.25,393.024,209.25,390.44z"/>
	<path fill="#562E86" d="M217.444,385.765v1.105c-1.53-0.103-2.686,0.799-2.686,2.855v5.134h-1.462v-9.01h1.462v1.411l0.816-1.207
		c0.374-0.255,0.833-0.407,1.258-0.407C217.07,385.647,217.274,385.68,217.444,385.765z"/>
	<path fill="#562E86" d="M226.063,390.797h-6.527c0.136,2.38,1.258,3.179,2.583,3.179c1.173,0,2.125-0.731,2.329-2.023h1.53
		c-0.357,2.176-2.074,3.145-3.927,3.145c-2.346,0-4.097-1.529-4.097-4.708c0-2.924,1.819-4.776,4.284-4.776
		c2.482,0,3.859,1.853,3.859,4.487C226.097,390.236,226.097,390.474,226.063,390.797z M219.553,389.675h5.065
		c-0.136-1.87-0.935-2.94-2.414-2.94C220.776,386.735,219.723,387.754,219.553,389.675z"/>
	<path fill="#562E86" d="M232.183,385.765v1.105c-1.53-0.103-2.686,0.799-2.686,2.855v5.134h-1.462v-9.01h1.462v1.411l0.816-1.207
		c0.374-0.255,0.833-0.407,1.258-0.407C231.81,385.647,232.013,385.68,232.183,385.765z"/>
	<path fill="#562E86" d="M240.802,390.797h-6.527c0.136,2.38,1.258,3.179,2.583,3.179c1.173,0,2.125-0.731,2.329-2.023h1.53
		c-0.357,2.176-2.074,3.145-3.927,3.145c-2.346,0-4.097-1.529-4.097-4.708c0-2.924,1.819-4.776,4.284-4.776
		c2.482,0,3.859,1.853,3.859,4.487C240.836,390.236,240.836,390.474,240.802,390.797z M234.292,389.675h5.065
		c-0.136-1.87-0.935-2.94-2.414-2.94C235.515,386.735,234.461,387.754,234.292,389.675z"/>
	<path fill="#562E86" d="M250.39,389.794v5.065h-1.462v-4.964c0-0.459,0-0.833-0.034-1.292c-0.085-1.054-0.663-1.836-2.057-1.836
		c-1.411,0-2.601,1.055-2.601,4.131v3.961h-1.462v-9.01h1.462v1.547l0.561-1.036c0.765-0.596,1.428-0.748,2.346-0.748
		c1.972,0,3.077,1.054,3.212,2.635C250.39,388.707,250.39,389.063,250.39,389.794z"/>
</g>
<g>
	<path fill="#562E86" d="M335.695,390.797h-6.527c0.136,2.38,1.258,3.179,2.583,3.179c1.173,0,2.125-0.73,2.329-2.022h1.53
		c-0.357,2.176-2.074,3.145-3.927,3.145c-2.346,0-4.097-1.53-4.097-4.709c0-2.923,1.819-4.776,4.284-4.776
		c2.482,0,3.859,1.854,3.859,4.488C335.729,390.237,335.729,390.474,335.695,390.797z M329.185,389.675h5.065
		c-0.136-1.869-0.935-2.94-2.414-2.94C330.408,386.735,329.354,387.754,329.185,389.675z"/>
	<path fill="#562E86" d="M344.161,394.86h-1.7l-2.363-3.62l-2.346,3.62h-1.683l3.229-4.556l-3.11-4.453h1.734l2.261,3.484
		l2.261-3.484h1.683l-3.162,4.42L344.161,394.86z"/>
	<path fill="#562E86" d="M354.242,390.219c0,3.332-2.074,4.879-4.402,4.879c-0.748,0-1.7-0.221-2.159-0.595l-0.595-0.884v4.572
		h-1.462v-12.341h1.462v1.444l0.68-0.969c0.51-0.425,1.462-0.714,2.38-0.714C352.78,385.613,354.242,387.584,354.242,390.219z
		 M352.644,390.389c0-2.039-0.918-3.654-2.72-3.654c-1.496,0-2.839,0.952-2.839,3.536v0.492c0,2.329,1.462,3.213,2.754,3.213
		C351.42,393.976,352.644,392.752,352.644,390.389z"/>
	<path fill="#562E86" d="M363.371,390.797h-6.527c0.136,2.38,1.258,3.179,2.583,3.179c1.173,0,2.125-0.73,2.329-2.022h1.53
		c-0.357,2.176-2.074,3.145-3.927,3.145c-2.346,0-4.097-1.53-4.097-4.709c0-2.923,1.819-4.776,4.284-4.776
		c2.482,0,3.859,1.854,3.859,4.488C363.405,390.237,363.405,390.474,363.371,390.797z M356.86,389.675h5.065
		c-0.136-1.869-0.935-2.94-2.414-2.94C358.084,386.735,357.03,387.754,356.86,389.675z"/>
	<path fill="#562E86" d="M369.491,385.766v1.104c-1.53-0.102-2.686,0.799-2.686,2.856v5.133h-1.462v-9.009h1.462v1.411l0.816-1.207
		c0.374-0.255,0.833-0.408,1.258-0.408C369.117,385.647,369.321,385.681,369.491,385.766z"/>
	<path fill="#562E86" d="M372.619,383.829c0,0.526-0.408,0.935-0.935,0.935s-0.935-0.408-0.935-0.935
		c0-0.527,0.408-0.936,0.935-0.936S372.619,383.301,372.619,383.829z M370.953,394.86v-9.009h1.462v9.009H370.953z"/>
	<path fill="#562E86" d="M387.068,389.353v5.507h-1.462v-4.827c0-0.799-0.017-1.292-0.068-1.751
		c-0.136-1.02-0.782-1.513-1.802-1.513c-1.139,0-1.972,0.9-1.972,3.638v4.453h-1.461v-4.827c0-0.799-0.017-1.292-0.068-1.751
		c-0.136-1.02-0.782-1.513-1.802-1.513c-1.139,0-1.972,0.9-1.972,3.638v4.453h-1.462v-9.009h1.462v1.309l0.578-1.02
		c0.459-0.374,1.104-0.527,1.904-0.527c1.376,0,2.261,0.697,2.601,1.683l0.799-1.155c0.459-0.374,1.105-0.527,1.904-0.527
		c1.615,0,2.533,0.952,2.737,2.193C387.051,388.265,387.068,388.622,387.068,389.353z"/>
	<path fill="#562E86" d="M396.894,390.797h-6.527c0.136,2.38,1.258,3.179,2.583,3.179c1.173,0,2.125-0.73,2.329-2.022h1.53
		c-0.357,2.176-2.074,3.145-3.927,3.145c-2.346,0-4.097-1.53-4.097-4.709c0-2.923,1.819-4.776,4.284-4.776
		c2.482,0,3.859,1.854,3.859,4.488C396.928,390.237,396.928,390.474,396.894,390.797z M390.384,389.675h5.065
		c-0.136-1.869-0.935-2.94-2.414-2.94C391.607,386.735,390.554,387.754,390.384,389.675z"/>
	<path fill="#562E86" d="M406.482,389.794v5.065h-1.462v-4.963c0-0.459,0-0.833-0.034-1.292c-0.085-1.054-0.663-1.836-2.057-1.836
		c-1.411,0-2.601,1.054-2.601,4.131v3.96h-1.462v-9.009h1.462v1.547l0.561-1.037c0.765-0.595,1.428-0.748,2.346-0.748
		c1.972,0,3.077,1.054,3.212,2.635C406.482,388.707,406.482,389.064,406.482,389.794z"/>
	<path fill="#562E86" d="M410.699,392.225c0,0.307,0,0.459,0.017,0.697c0.068,0.867,0.425,1.054,1.563,0.918v1.07
		c-0.425,0.068-0.833,0.086-1.241,0.086c-1.122,0-1.7-0.459-1.785-1.581c-0.017-0.238-0.017-0.612-0.017-1.122v-5.253h-1.207v-1.121
		h1.207v-2.091h1.462v2.091h1.683v1.121h-1.683V392.225z"/>
	<path fill="#562E86" d="M421.408,390.797h-6.527c0.136,2.38,1.258,3.179,2.583,3.179c1.173,0,2.125-0.73,2.329-2.022h1.53
		c-0.357,2.176-2.074,3.145-3.927,3.145c-2.346,0-4.097-1.53-4.097-4.709c0-2.923,1.819-4.776,4.284-4.776
		c2.482,0,3.859,1.854,3.859,4.488C421.442,390.237,421.442,390.474,421.408,390.797z M414.897,389.675h5.065
		c-0.136-1.869-0.935-2.94-2.414-2.94C416.121,386.735,415.067,387.754,414.897,389.675z"/>
	<path fill="#562E86" d="M427.528,385.766v1.104c-1.53-0.102-2.686,0.799-2.686,2.856v5.133h-1.462v-9.009h1.462v1.411l0.816-1.207
		c0.374-0.255,0.833-0.408,1.258-0.408C427.154,385.647,427.358,385.681,427.528,385.766z"/>
	<path fill="#562E86" d="M436.147,390.797h-6.527c0.136,2.38,1.258,3.179,2.583,3.179c1.173,0,2.125-0.73,2.329-2.022h1.53
		c-0.357,2.176-2.074,3.145-3.927,3.145c-2.346,0-4.097-1.53-4.097-4.709c0-2.923,1.819-4.776,4.284-4.776
		c2.482,0,3.859,1.854,3.859,4.488C436.181,390.237,436.181,390.474,436.147,390.797z M429.637,389.675h5.065
		c-0.136-1.869-0.935-2.94-2.414-2.94C430.86,386.735,429.807,387.754,429.637,389.675z"/>
	<path fill="#562E86" d="M445.734,389.794v5.065h-1.462v-4.963c0-0.459,0-0.833-0.034-1.292c-0.085-1.054-0.663-1.836-2.057-1.836
		c-1.411,0-2.601,1.054-2.601,4.131v3.96h-1.462v-9.009h1.462v1.547l0.561-1.037c0.765-0.595,1.428-0.748,2.346-0.748
		c1.972,0,3.077,1.054,3.213,2.635C445.734,388.707,445.734,389.064,445.734,389.794z"/>
</g>
<g>
	<path fill="#562E86" d="M351.93,166.621v1.104c-1.53-0.102-2.686,0.799-2.686,2.856v5.133h-1.462v-9.009h1.462v1.411l0.816-1.207
		c0.374-0.255,0.833-0.408,1.258-0.408C351.556,166.501,351.76,166.536,351.93,166.621z"/>
	<path fill="#562E86" d="M360.548,171.652h-6.527c0.136,2.38,1.258,3.179,2.583,3.179c1.173,0,2.125-0.73,2.329-2.022h1.53
		c-0.357,2.176-2.074,3.145-3.927,3.145c-2.346,0-4.097-1.53-4.097-4.709c0-2.923,1.819-4.776,4.284-4.776
		c2.482,0,3.859,1.854,3.859,4.488C360.583,171.091,360.583,171.329,360.548,171.652z M354.038,170.53h5.065
		c-0.136-1.869-0.935-2.94-2.414-2.94C355.262,167.589,354.208,168.609,354.038,170.53z"/>
	<path fill="#562E86" d="M369.49,174.644v1.07c-0.323,0.051-0.697,0.068-1.037,0.068c-0.85,0-1.479-0.272-1.53-1.411
		c-0.017-0.306-0.017-0.696-0.017-1.189v-9.061c-0.34-0.067-0.731-0.102-1.173-0.102c-1.156,0-1.683,0.629-1.802,1.462
		c-0.034,0.237-0.051,0.663-0.051,0.918v0.374h1.853v1.121h-1.853v7.819h-1.462v-7.819h-0.799v-1.121h0.799v-0.238
		c0-0.34,0.017-0.782,0.051-1.088c0.187-1.649,1.309-2.55,3.332-2.55c1.054,0,1.887,0.102,2.567,0.323v9.91
		c0,0.271,0,0.561,0.017,0.85C368.419,174.559,368.691,174.746,369.49,174.644z"/>
	<path fill="#562E86" d="M378.534,171.652h-6.527c0.136,2.38,1.258,3.179,2.583,3.179c1.173,0,2.125-0.73,2.329-2.022h1.53
		c-0.357,2.176-2.074,3.145-3.927,3.145c-2.346,0-4.097-1.53-4.097-4.709c0-2.923,1.819-4.776,4.284-4.776
		c2.482,0,3.859,1.854,3.859,4.488C378.568,171.091,378.568,171.329,378.534,171.652z M372.024,170.53h5.065
		c-0.136-1.869-0.935-2.94-2.414-2.94C373.248,167.589,372.194,168.609,372.024,170.53z"/>
	<path fill="#562E86" d="M387.799,169.731h-1.53c-0.323-1.444-1.105-2.142-2.312-2.142c-1.411,0-2.601,1.104-2.601,3.536
		c0,2.617,1.156,3.705,2.499,3.705c1.19,0,2.023-0.68,2.329-1.988h1.53c-0.442,2.091-1.938,3.11-3.944,3.11
		c-2.278,0-4.012-1.428-4.012-4.726c0-3.043,1.972-4.76,4.233-4.76C386.15,166.467,387.527,167.759,387.799,169.731z"/>
	<path fill="#562E86" d="M391.25,173.08c0,0.307,0,0.459,0.017,0.697c0.068,0.867,0.425,1.054,1.563,0.918v1.07
		c-0.425,0.068-0.833,0.086-1.241,0.086c-1.122,0-1.7-0.459-1.785-1.581c-0.017-0.238-0.017-0.612-0.017-1.122v-5.253h-1.207v-1.121
		h1.207v-2.091h1.462v2.091h1.683v1.121h-1.683V173.08z"/>
	<path fill="#562E86" d="M401.96,171.652h-6.527c0.136,2.38,1.258,3.179,2.583,3.179c1.173,0,2.125-0.73,2.329-2.022h1.53
		c-0.357,2.176-2.074,3.145-3.927,3.145c-2.346,0-4.097-1.53-4.097-4.709c0-2.923,1.819-4.776,4.284-4.776
		c2.482,0,3.859,1.854,3.859,4.488C401.994,171.091,401.994,171.329,401.96,171.652z M395.45,170.53h5.065
		c-0.136-1.869-0.935-2.94-2.414-2.94C396.673,167.589,395.62,168.609,395.45,170.53z"/>
	<path fill="#562E86" d="M408.08,166.621v1.104c-1.53-0.102-2.686,0.799-2.686,2.856v5.133h-1.462v-9.009h1.462v1.411l0.816-1.207
		c0.374-0.255,0.833-0.408,1.258-0.408C407.706,166.501,407.91,166.536,408.08,166.621z"/>
	<path fill="#562E86" d="M416.699,171.652h-6.527c0.136,2.38,1.258,3.179,2.583,3.179c1.173,0,2.125-0.73,2.329-2.022h1.53
		c-0.357,2.176-2.074,3.145-3.927,3.145c-2.346,0-4.097-1.53-4.097-4.709c0-2.923,1.819-4.776,4.284-4.776
		c2.482,0,3.859,1.854,3.859,4.488C416.733,171.091,416.733,171.329,416.699,171.652z M410.188,170.53h5.065
		c-0.136-1.869-0.935-2.94-2.414-2.94C411.412,167.589,410.358,168.609,410.188,170.53z"/>
	<path fill="#562E86" d="M426.287,170.649v5.065h-1.462v-4.963c0-0.459,0-0.833-0.034-1.292c-0.085-1.054-0.663-1.836-2.057-1.836
		c-1.411,0-2.601,1.054-2.601,4.131v3.96h-1.462v-9.009h1.462v1.547l0.561-1.037c0.765-0.595,1.428-0.748,2.346-0.748
		c1.972,0,3.077,1.054,3.213,2.635C426.287,169.561,426.287,169.918,426.287,170.649z"/>
</g>
</svg>
