<?xml version="1.0" encoding="utf-8"?>
<!-- Generator: Adobe Illustrator 16.0.0, SVG Export Plug-In . SVG Version: 6.00 Build 0)  -->
<!DOCTYPE svg PUBLIC "-//W3C//DTD SVG 1.1//EN" "http://www.w3.org/Graphics/SVG/1.1/DTD/svg11.dtd">
<svg version="1.1" id="Layer_1" xmlns="http://www.w3.org/2000/svg" xmlns:xlink="http://www.w3.org/1999/xlink" x="0px" y="0px"
	 width="460.083px" height="344.245px" viewBox="0 0 460.083 344.245" enable-background="new 0 0 460.083 344.245"
	 xml:space="preserve">
<path fill="none" stroke="#562E87" stroke-width="2" stroke-linecap="round" stroke-linejoin="round" stroke-miterlimit="10" stroke-dasharray="12,5.5" d="
	M74.787,6.084c0.188-0.437,5.977,3.919,17.724,10.104c11.356,7.311,26.847,15.927,44.31,25.261
	c17.372,9.956,38.712,21.5,57.604,32.838c20.347,14.189,42.469,22.558,57.603,32.838c18.317,8.938,33.232,18.944,44.31,25.261
	c11.079,6.314,17.724,10.102,17.724,10.102s-24.194,12.769-56.451,29.792c-16.127,8.515-34.693,20.226-52.419,27.667
	c-18.045,9.086-36.737,18.862-52.418,27.667c-16.836,10.159-30.381,16.012-40.322,21.282c-8.918,5.822-14.506,9.06-16.129,8.513"/>
<path fill="none" stroke="#562E87" stroke-width="2" stroke-linecap="round" stroke-linejoin="round" stroke-miterlimit="10" d="
	M385.235,1c0.544,0.66-7.15,4.096-18.081,10.074c-11.598,6.506-27.407,14.885-45.204,25.185
	c-18.004,10.822-38.42,21.408-58.76,32.743C202.168,103,141.146,137,141.146,137s6.298,3.409,16.799,9.091
	c10.499,5.683,25.196,13.641,41.997,22.731c14.956,8.911,37.031,18.503,54.593,29.552c18.894,12,37.645,21.356,54.596,29.551
	c17.245,8.706,31.646,16.212,41.995,22.728c10.498,5.684,16.796,9.092,16.796,9.092"/>
<g>
	<path fill="#562E87" d="M22.744,144.764h-2.773l-3.727-9.579h2.755l2.413,7.706l2.359-7.706h2.683L22.744,144.764z"/>
	<path fill="#562E87" d="M36.173,140.623h-6.806c0.162,2.017,1.063,2.646,2.215,2.646c1.062,0,1.836-0.594,1.999-1.62h2.485
		c-0.486,2.232-2.287,3.367-4.538,3.367c-2.629,0-4.663-1.638-4.663-5.005c0-2.935,1.926-5.078,4.861-5.078
		c2.935,0,4.483,2.233,4.483,4.844C36.209,140.011,36.209,140.299,36.173,140.623z M29.439,139.002h4.213
		c-0.162-1.512-0.847-2.323-2.035-2.323C30.466,136.68,29.655,137.418,29.439,139.002z"/>
	<path fill="#562E87" d="M43.768,135.023v1.999c-2.07-0.144-3.097,0.774-3.097,3.349v4.393h-2.485v-9.579h2.485v1.746l0.756-1.332
		c0.468-0.432,1.098-0.648,1.638-0.648C43.354,134.951,43.552,134.969,43.768,135.023z"/>
	<path fill="#562E87" d="M47.708,141.631c0,0.378,0,0.63,0.018,0.882c0.054,0.486,0.27,0.648,1.117,0.594v1.711
		c-0.486,0.054-0.973,0.072-1.531,0.072c-1.224,0-1.999-0.45-2.053-1.692c-0.036-0.432-0.036-0.882-0.036-1.513V131.53h2.484
		V141.631z"/>
	<path fill="#562E87" d="M59.249,140.623h-6.806c0.162,2.017,1.063,2.646,2.215,2.646c1.062,0,1.836-0.594,1.999-1.62h2.485
		c-0.486,2.232-2.287,3.367-4.538,3.367c-2.629,0-4.663-1.638-4.663-5.005c0-2.935,1.926-5.078,4.861-5.078
		c2.935,0,4.483,2.233,4.483,4.844C59.285,140.011,59.285,140.299,59.249,140.623z M52.515,139.002h4.213
		c-0.162-1.512-0.847-2.323-2.035-2.323C53.541,136.68,52.73,137.418,52.515,139.002z"/>
	<path fill="#562E87" d="M70.571,144.764h-2.485v-1.477l-0.72,1.063c-0.54,0.414-1.513,0.666-2.485,0.666
		c-2.683,0-4.267-2.035-4.267-4.861c0-3.475,2.125-5.222,4.591-5.222c0.792,0,1.764,0.198,2.25,0.541l0.63,0.99v-4.934h2.485
		V144.764z M68.086,140.083v-0.468c0-2.161-1.243-2.935-2.395-2.935c-1.44,0-2.502,1.099-2.502,3.313
		c0,1.962,0.936,3.277,2.413,3.277C66.969,143.27,68.086,142.423,68.086,140.083z"/>
	<path fill="#562E87" d="M81.802,140.623h-6.806c0.162,2.017,1.063,2.646,2.215,2.646c1.062,0,1.836-0.594,1.999-1.62h2.485
		c-0.486,2.232-2.287,3.367-4.538,3.367c-2.629,0-4.663-1.638-4.663-5.005c0-2.935,1.926-5.078,4.861-5.078
		c2.935,0,4.483,2.233,4.483,4.844C81.838,140.011,81.838,140.299,81.802,140.623z M75.068,139.002h4.213
		c-0.162-1.512-0.847-2.323-2.035-2.323C76.095,136.68,75.284,137.418,75.068,139.002z"/>
	<path fill="#562E87" d="M92.818,139.362v5.402h-2.485v-5.06c0-0.396,0-0.846-0.036-1.333c-0.072-1.008-0.63-1.692-1.836-1.692
		s-2.161,1.044-2.161,3.709v4.375h-2.485v-9.579H86.3v1.548l0.738-1.134c0.684-0.486,1.386-0.667,2.305-0.667
		c2.035,0,3.205,1.008,3.403,2.683C92.8,138.102,92.818,138.588,92.818,139.362z"/>
</g>
<g>
	<path fill="#562E87" d="M209.096,139.259v5.402h-2.485v-5.06c0-0.396,0-0.846-0.036-1.333c-0.072-1.008-0.63-1.692-1.836-1.692
		c-1.207,0.018-2.161,1.044-2.161,3.709v4.375h-2.485v-13.324h2.485v5.293l0.738-1.134c0.684-0.486,1.386-0.667,2.305-0.667
		c2.035,0,3.205,1.008,3.403,2.683C209.078,137.999,209.096,138.485,209.096,139.259z"/>
	<path fill="#562E87" d="M220.202,140.52h-6.806c0.162,2.017,1.063,2.646,2.215,2.646c1.062,0,1.836-0.594,1.999-1.62h2.485
		c-0.486,2.232-2.287,3.367-4.538,3.367c-2.629,0-4.663-1.638-4.663-5.005c0-2.935,1.926-5.078,4.861-5.078
		c2.935,0,4.483,2.233,4.483,4.844C220.238,139.907,220.238,140.195,220.202,140.52z M213.468,138.899h4.213
		c-0.162-1.512-0.847-2.323-2.035-2.323C214.494,136.576,213.684,137.314,213.468,138.899z"/>
	<path fill="#562E87" d="M231.524,144.661h-2.485v-1.477l-0.72,1.063c-0.54,0.414-1.513,0.666-2.485,0.666
		c-2.683,0-4.267-2.035-4.267-4.861c0-3.475,2.125-5.222,4.591-5.222c0.792,0,1.764,0.198,2.25,0.541l0.63,0.99v-4.934h2.485
		V144.661z M229.039,139.979v-0.468c0-2.161-1.243-2.935-2.395-2.935c-1.44,0-2.502,1.099-2.502,3.313
		c0,1.962,0.936,3.277,2.413,3.277C227.922,143.166,229.039,142.32,229.039,139.979z"/>
	<path fill="#562E87" d="M242.755,140.52h-6.806c0.162,2.017,1.063,2.646,2.215,2.646c1.062,0,1.836-0.594,1.999-1.62h2.485
		c-0.486,2.232-2.287,3.367-4.538,3.367c-2.629,0-4.663-1.638-4.663-5.005c0-2.935,1.926-5.078,4.861-5.078
		c2.935,0,4.483,2.233,4.483,4.844C242.792,139.907,242.792,140.195,242.755,140.52z M236.021,138.899h4.213
		c-0.162-1.512-0.847-2.323-2.035-2.323C237.048,136.576,236.237,137.314,236.021,138.899z"/>
	<path fill="#562E87" d="M253.771,139.259v5.402h-2.485v-5.06c0-0.396,0-0.846-0.036-1.333c-0.072-1.008-0.63-1.692-1.836-1.692
		s-2.161,1.044-2.161,3.709v4.375h-2.485v-9.579h2.485v1.548l0.738-1.134c0.684-0.486,1.386-0.667,2.305-0.667
		c2.035,0,3.205,1.008,3.403,2.683C253.753,137.999,253.771,138.485,253.771,139.259z"/>
</g>
<g>
	<path fill="#562E87" d="M363.404,141.325c0,0.324,0,0.594,0.018,0.846c0.072,0.936,0.415,1.152,1.801,1.044v1.62
		c-0.558,0.09-1.081,0.126-1.639,0.126c-1.854,0-2.521-0.612-2.628-1.963c-0.036-0.432-0.036-0.846-0.036-1.386v-4.717h-1.404
		v-1.639h1.404v-2.359h2.484v2.359h1.981v1.639h-1.981V141.325z"/>
	<path fill="#562E87" d="M376.33,139.975c0,2.899-1.783,5.042-4.97,5.042s-4.969-2.143-4.969-5.042c0-2.917,1.782-5.042,4.969-5.042
		S376.33,137.058,376.33,139.975z M373.755,139.975c0-2.07-0.9-3.295-2.395-3.295s-2.395,1.225-2.395,3.295
		c0,2.053,0.9,3.295,2.395,3.295S373.755,142.027,373.755,139.975z"/>
	<path fill="#562E87" d="M386.877,140.623h-6.806c0.162,2.017,1.063,2.646,2.215,2.646c1.062,0,1.836-0.594,1.999-1.62h2.485
		c-0.486,2.232-2.287,3.367-4.538,3.367c-2.629,0-4.663-1.638-4.663-5.005c0-2.935,1.926-5.078,4.861-5.078
		c2.935,0,4.483,2.233,4.483,4.844C386.914,140.011,386.914,140.299,386.877,140.623z M380.144,139.002h4.213
		c-0.162-1.512-0.847-2.323-2.035-2.323C381.17,136.68,380.359,137.418,380.144,139.002z"/>
	<path fill="#562E87" d="M391.375,141.847v2.917h-2.485V131.53h2.485v8.03l3.853-4.375h2.989l-4.249,4.447l4.303,5.131h-3.133
		l-2.971-3.781L391.375,141.847z"/>
	<path fill="#562E87" d="M408.604,139.975c0,2.899-1.783,5.042-4.97,5.042s-4.969-2.143-4.969-5.042
		c0-2.917,1.782-5.042,4.969-5.042S408.604,137.058,408.604,139.975z M406.029,139.975c0-2.07-0.9-3.295-2.395-3.295
		s-2.395,1.225-2.395,3.295c0,2.053,0.9,3.295,2.395,3.295S406.029,142.027,406.029,139.975z"/>
	<path fill="#562E87" d="M424.805,139.057v5.708h-2.485v-4.987c0-0.558-0.018-1.081-0.072-1.567c-0.126-0.99-0.666-1.53-1.62-1.53
		c-1.116,0-1.747,0.954-1.747,3.169v4.916h-2.467v-4.987c0-0.558-0.018-1.081-0.072-1.567c-0.126-0.99-0.685-1.53-1.639-1.53
		c-1.116,0-1.729,0.954-1.729,3.169v4.916h-2.485v-9.579h2.485v1.458l0.702-1.152c0.54-0.378,1.17-0.558,2.035-0.558
		c1.566,0,2.557,0.774,2.935,1.819l0.936-1.261c0.54-0.378,1.188-0.558,2.053-0.558c1.818,0,2.863,1.063,3.079,2.377
		C424.787,137.796,424.805,138.282,424.805,139.057z"/>
	<path fill="#562E87" d="M434.468,137.958h-2.485c-0.162-0.882-0.648-1.386-1.476-1.386c-0.738,0-1.135,0.432-1.135,1.026
		c0,0.72,0.594,1.098,2.179,1.494c1.963,0.504,3.115,1.296,3.115,3.061c0,1.927-1.747,2.863-3.943,2.863
		c-2.323,0-3.961-1.008-4.231-3.169h2.485c0.198,1.044,0.918,1.531,1.783,1.531c0.792,0,1.404-0.342,1.404-1.044
		c0-0.738-0.63-1.152-2.287-1.566c-1.783-0.45-3.007-1.225-3.007-2.881c0-1.836,1.512-2.953,3.799-2.953
		S434.252,136.211,434.468,137.958z"/>
	<path fill="#562E87" d="M439.435,141.325c0,0.324,0,0.594,0.018,0.846c0.072,0.936,0.414,1.152,1.801,1.044v1.62
		c-0.558,0.09-1.081,0.126-1.639,0.126c-1.854,0-2.521-0.612-2.629-1.963c-0.036-0.432-0.036-0.846-0.036-1.386v-4.717h-1.405
		v-1.639h1.405v-2.359h2.485v2.359h1.98v1.639h-1.98V141.325z"/>
</g>
<g>
	<g>
		<path fill="#562E87" d="M15.853,318.088h-2.035l-2.809-10.713l-2.917,10.713H6.04l-3.277-12.424h1.764l2.611,11.038l2.881-10.857
			h2.089l2.809,10.875l2.755-11.055h1.639L15.853,318.088z"/>
		<path fill="#562E87" d="M26.128,316.72l-0.522,1.026c-0.648,0.45-1.476,0.594-2.395,0.594c-1.729,0-3.079-0.954-3.079-2.719
			c0-2.161,1.621-3.277,5.366-3.277h0.612v-0.252c0-0.414,0-0.792-0.036-1.152c-0.072-0.882-0.576-1.458-1.854-1.458
			c-1.296,0-1.944,0.702-2.053,2.017h-1.62c0.144-2.035,1.566-3.205,3.673-3.205c2.269,0,3.223,0.954,3.385,2.521
			c0.036,0.378,0.054,0.846,0.054,1.26v3.583c0,0.72,0.036,1.368,0.18,2.431h-1.548L26.128,316.72z M26.11,314.469v-0.972
			c-2.629-0.198-4.285,0.36-4.285,1.999c0,1.152,0.738,1.657,1.909,1.657C25.174,317.152,26.11,316.198,26.11,314.469z"/>
		<path fill="#562E87" d="M35.957,316.72l-0.522,1.026c-0.648,0.45-1.476,0.594-2.395,0.594c-1.729,0-3.079-0.954-3.079-2.719
			c0-2.161,1.621-3.277,5.366-3.277h0.612v-0.252c0-0.414,0-0.792-0.036-1.152c-0.072-0.882-0.576-1.458-1.854-1.458
			c-1.296,0-1.944,0.702-2.053,2.017h-1.62c0.144-2.035,1.566-3.205,3.673-3.205c2.269,0,3.223,0.954,3.385,2.521
			c0.036,0.378,0.054,0.846,0.054,1.26v3.583c0,0.72,0.036,1.368,0.18,2.431h-1.548L35.957,316.72z M35.938,314.469v-0.972
			c-2.629-0.198-4.285,0.36-4.285,1.999c0,1.152,0.738,1.657,1.909,1.657C35.002,317.152,35.938,316.198,35.938,314.469z"/>
		<path fill="#562E87" d="M44.866,308.456v1.17c-1.62-0.108-2.845,0.846-2.845,3.025v5.438h-1.548v-9.543h1.548v1.495l0.864-1.278
			c0.396-0.27,0.882-0.432,1.333-0.432C44.47,308.33,44.686,308.365,44.866,308.456z"/>
		<path fill="#562E87" d="M55.145,313.317c0,2.683-1.495,5.023-4.736,5.023c-3.241,0-4.735-2.34-4.735-5.023
			c0-2.701,1.495-5.023,4.735-5.023C53.65,308.293,55.145,310.616,55.145,313.317z M53.452,313.317c0-2.25-1.116-3.835-3.043-3.835
			c-1.926,0-3.042,1.584-3.042,3.835c0,2.233,1.116,3.835,3.042,3.835C52.336,317.152,53.452,315.55,53.452,313.317z"/>
		<path fill="#562E87" d="M70.068,312.255v5.833H68.52v-5.114c0-0.846-0.018-1.368-0.072-1.854c-0.144-1.08-0.828-1.603-1.908-1.603
			c-1.207,0-2.089,0.955-2.089,3.854v4.717h-1.548v-5.114c0-0.846-0.018-1.368-0.072-1.854c-0.144-1.08-0.828-1.603-1.909-1.603
			c-1.206,0-2.088,0.955-2.088,3.854v4.717h-1.548v-9.543h1.548v1.387l0.612-1.081c0.486-0.396,1.17-0.558,2.017-0.558
			c1.458,0,2.395,0.738,2.755,1.783l0.846-1.225c0.486-0.396,1.17-0.558,2.017-0.558c1.71,0,2.683,1.008,2.899,2.323
			C70.05,311.103,70.068,311.48,70.068,312.255z"/>
		<path fill="#562E87" d="M85.438,318.088H83.89v-1.53l-0.72,1.026c-0.541,0.45-1.549,0.756-2.521,0.756
			c-2.791,0-4.339-2.088-4.339-4.879c0-3.529,2.197-5.167,4.664-5.167c0.792,0,1.8,0.234,2.287,0.63l0.63,0.936v-5.005h1.548
			V318.088z M83.89,313.407v-0.522c0-2.467-1.549-3.403-2.917-3.403c-1.675,0-2.971,1.296-2.971,3.799
			c0,2.161,0.972,3.872,2.881,3.872C82.467,317.152,83.89,316.144,83.89,313.407z"/>
		<path fill="#562E87" d="M97.121,313.317c0,2.683-1.495,5.023-4.736,5.023c-3.241,0-4.735-2.34-4.735-5.023
			c0-2.701,1.495-5.023,4.735-5.023C95.626,308.293,97.121,310.616,97.121,313.317z M95.428,313.317c0-2.25-1.116-3.835-3.043-3.835
			c-1.926,0-3.042,1.584-3.042,3.835c0,2.233,1.116,3.835,3.042,3.835C94.312,317.152,95.428,315.55,95.428,313.317z"/>
		<path fill="#562E87" d="M107.057,313.785h-6.914c0.144,2.521,1.332,3.367,2.737,3.367c1.242,0,2.25-0.774,2.467-2.143h1.62
			c-0.378,2.305-2.196,3.331-4.159,3.331c-2.485,0-4.339-1.621-4.339-4.987c0-3.097,1.927-5.06,4.538-5.06
			c2.629,0,4.087,1.962,4.087,4.753C107.092,313.191,107.092,313.443,107.057,313.785z M100.161,312.597h5.365
			c-0.144-1.98-0.99-3.115-2.557-3.115C101.457,309.482,100.34,310.562,100.161,312.597z"/>
		<path fill="#562E87" d="M1.981,328.777c0,0.558-0.433,0.99-0.991,0.99S0,329.335,0,328.777s0.432-0.99,0.99-0.99
			S1.981,328.219,1.981,328.777z M0.216,340.463v-9.543h1.548v9.543H0.216z"/>
		<path fill="#562E87" d="M7.219,336.43l-0.9,0.99v3.043H4.77v-13.234h1.548v8.499l4.447-4.808h1.98l-4.447,4.501l4.501,5.042
			h-2.106L7.219,336.43z"/>
		<path fill="#562E87" d="M28.245,340.463h-1.837l-2.125-8.03l-2.125,8.03h-1.836l-3.043-9.543h1.783l2.214,8.066l2.089-8.066h1.926
			l2.125,8.013l2.214-8.013h1.657L28.245,340.463z"/>
		<path fill="#562E87" d="M38.305,339.095l-0.522,1.026c-0.648,0.45-1.476,0.594-2.395,0.594c-1.729,0-3.079-0.954-3.079-2.719
			c0-2.161,1.621-3.277,5.366-3.277h0.612v-0.252c0-0.415,0-0.792-0.036-1.152c-0.072-0.882-0.576-1.458-1.854-1.458
			c-1.296,0-1.944,0.702-2.053,2.017h-1.62c0.144-2.035,1.566-3.205,3.673-3.205c2.269,0,3.223,0.954,3.385,2.521
			c0.036,0.378,0.054,0.847,0.054,1.261v3.583c0,0.72,0.036,1.368,0.18,2.431h-1.548L38.305,339.095z M38.287,336.844v-0.972
			c-2.629-0.198-4.285,0.36-4.285,1.999c0,1.152,0.738,1.656,1.909,1.656C37.351,339.526,38.287,338.572,38.287,336.844z"/>
		<path fill="#562E87" d="M44.676,337.672c0,0.324,0,0.486,0.018,0.738c0.072,0.918,0.45,1.116,1.656,0.973v1.134
			c-0.45,0.072-0.882,0.09-1.314,0.09c-1.188,0-1.8-0.486-1.891-1.674c-0.018-0.252-0.018-0.648-0.018-1.188v-5.563h-1.278v-1.188
			h1.278v-2.215h1.548v2.215h1.783v1.188h-1.783V337.672z"/>
		<path fill="#562E87" d="M54.647,328.777c0,0.558-0.432,0.99-0.99,0.99c-0.558,0-0.99-0.432-0.99-0.99s0.432-0.99,0.99-0.99
			C54.215,327.787,54.647,328.219,54.647,328.777z M52.883,340.463v-9.543h1.548v9.543H52.883z"/>
		<path fill="#562E87" d="M59.885,336.43l-0.9,0.99v3.043h-1.548v-13.234h1.548v8.499l4.447-4.808h1.98l-4.447,4.501l4.501,5.042
			H63.36L59.885,336.43z"/>
		<path fill="#562E87" d="M79.597,340.463h-1.548v-1.53l-0.72,1.026c-0.541,0.45-1.549,0.756-2.521,0.756
			c-2.791,0-4.339-2.088-4.339-4.879c0-3.529,2.197-5.167,4.664-5.167c0.792,0,1.8,0.234,2.287,0.63l0.63,0.936v-5.005h1.548
			V340.463z M78.048,335.781v-0.522c0-2.467-1.549-3.403-2.917-3.403c-1.675,0-2.971,1.296-2.971,3.799
			c0,2.161,0.972,3.871,2.881,3.871C76.625,339.526,78.048,338.519,78.048,335.781z"/>
		<path fill="#562E87" d="M91.279,335.691c0,2.683-1.495,5.023-4.736,5.023c-3.241,0-4.735-2.341-4.735-5.023
			c0-2.701,1.495-5.023,4.735-5.023C89.784,330.668,91.279,332.991,91.279,335.691z M89.586,335.691c0-2.25-1.116-3.835-3.043-3.835
			c-1.926,0-3.042,1.584-3.042,3.835c0,2.233,1.116,3.835,3.042,3.835C88.47,339.526,89.586,337.924,89.586,335.691z"/>
		<path fill="#562E87" d="M101.214,336.16H94.3c0.144,2.521,1.332,3.367,2.737,3.367c1.242,0,2.25-0.774,2.466-2.143h1.621
			c-0.378,2.305-2.197,3.331-4.159,3.331c-2.485,0-4.339-1.62-4.339-4.987c0-3.097,1.927-5.06,4.538-5.06
			c2.628,0,4.087,1.962,4.087,4.753C101.25,335.565,101.25,335.817,101.214,336.16z M94.318,334.971h5.366
			c-0.144-1.98-0.99-3.115-2.557-3.115C95.615,331.856,94.498,332.937,94.318,334.971z"/>
		<path fill="#562E87" d="M110.664,331.082c0,1.26-0.612,2.395-1.89,3.673c-1.099,1.098-1.369,1.584-1.422,2.466h-1.549
			c0.108-1.062,0.432-1.729,1.44-2.881c1.278-1.458,1.692-2.178,1.692-3.259c0-1.242-0.774-2.07-2.07-2.07
			c-1.351,0-2.269,0.882-2.377,2.557h-1.62c0.072-2.305,1.692-3.781,4.051-3.781C109.332,327.787,110.664,329.228,110.664,331.082z
			 M107.729,339.563c0,0.667-0.486,1.152-1.152,1.152s-1.152-0.486-1.152-1.152c0-0.666,0.486-1.152,1.152-1.152
			S107.729,338.896,107.729,339.563z"/>
	</g>
</g>
<g>
	<g>
		<path fill="#562E87" d="M349.491,318.089v-12.424h1.548v12.424H349.491z"/>
		<path fill="#562E87" d="M362.111,312.724v5.366h-1.549v-5.257c0-0.486,0-0.882-0.036-1.369c-0.09-1.116-0.702-1.945-2.179-1.945
			c-1.495,0-2.755,1.117-2.755,4.375v4.195h-1.548v-9.543h1.548v1.639l0.594-1.098c0.81-0.63,1.512-0.792,2.485-0.792
			c2.088,0,3.259,1.116,3.403,2.791C362.111,311.571,362.111,311.95,362.111,312.724z"/>
		<path fill="#562E87" d="M366.843,315.298c0,0.324,0,0.486,0.018,0.738c0.072,0.918,0.45,1.117,1.656,0.972v1.135
			c-0.45,0.072-0.882,0.09-1.314,0.09c-1.188,0-1.8-0.486-1.891-1.674c-0.018-0.252-0.018-0.648-0.018-1.188v-5.564h-1.278v-1.188
			h1.278v-2.215h1.548v2.215h1.783v1.188h-1.783V315.298z"/>
		<path fill="#562E87" d="M378.455,313.786h-6.914c0.144,2.521,1.332,3.367,2.737,3.367c1.242,0,2.25-0.774,2.466-2.143h1.621
			c-0.378,2.305-2.197,3.331-4.159,3.331c-2.485,0-4.339-1.621-4.339-4.987c0-3.097,1.927-5.06,4.538-5.06
			c2.628,0,4.087,1.962,4.087,4.753C378.49,313.192,378.49,313.444,378.455,313.786z M371.558,312.598h5.366
			c-0.144-1.98-0.99-3.115-2.557-3.115C372.855,309.483,371.738,310.563,371.558,312.598z"/>
		<path fill="#562E87" d="M389.146,315.749c0,0.594,0,1.333-0.018,1.854c-0.09,2.791-1.783,4.268-4.537,4.268
			c-2.719,0-4.069-1.134-4.268-3.151l-0.018-0.18h1.566l0.018,0.162c0.126,1.17,1.063,1.98,2.701,1.98
			c1.89,0,2.917-1.081,2.989-2.917c0.018-0.45,0.018-0.756,0.018-1.044v-0.162l-0.72,1.026c-0.541,0.45-1.549,0.756-2.521,0.756
			c-2.791,0-4.339-2.088-4.339-4.879c0-3.529,2.197-5.167,4.664-5.167c0.792,0,1.8,0.234,2.287,0.63l0.63,0.936v-1.314h1.548
			V315.749z M387.598,313.408v-0.522c0-2.467-1.549-3.403-2.917-3.403c-1.675,0-2.971,1.296-2.971,3.799
			c0,2.161,0.972,3.872,2.881,3.872C386.175,317.153,387.598,316.145,387.598,313.408z"/>
		<path fill="#562E87" d="M396.543,308.457v1.17c-1.621-0.108-2.845,0.846-2.845,3.025v5.438h-1.548v-9.543h1.548v1.495l0.864-1.278
			c0.396-0.27,0.882-0.432,1.333-0.432C396.147,308.331,396.363,308.366,396.543,308.457z"/>
		<path fill="#562E87" d="M405.94,313.786h-6.914c0.144,2.521,1.332,3.367,2.737,3.367c1.242,0,2.25-0.774,2.466-2.143h1.621
			c-0.378,2.305-2.197,3.331-4.159,3.331c-2.485,0-4.339-1.621-4.339-4.987c0-3.097,1.927-5.06,4.538-5.06
			c2.628,0,4.087,1.962,4.087,4.753C405.976,313.192,405.976,313.444,405.94,313.786z M399.043,312.598h5.366
			c-0.144-1.98-0.99-3.115-2.557-3.115C400.34,309.483,399.224,310.563,399.043,312.598z"/>
		<path fill="#562E87" d="M412.689,308.457v1.17c-1.62-0.108-2.845,0.846-2.845,3.025v5.438h-1.548v-9.543h1.548v1.495l0.864-1.278
			c0.396-0.27,0.882-0.432,1.333-0.432C412.293,308.331,412.509,308.366,412.689,308.457z"/>
		<path fill="#562E87" d="M422.086,313.786h-6.914c0.144,2.521,1.332,3.367,2.737,3.367c1.242,0,2.25-0.774,2.467-2.143h1.62
			c-0.378,2.305-2.196,3.331-4.159,3.331c-2.485,0-4.339-1.621-4.339-4.987c0-3.097,1.927-5.06,4.538-5.06
			c2.629,0,4.087,1.962,4.087,4.753C422.122,313.192,422.122,313.444,422.086,313.786z M415.19,312.598h5.365
			c-0.144-1.98-0.99-3.115-2.557-3.115C416.486,309.483,415.37,310.563,415.19,312.598z"/>
		<path fill="#562E87" d="M432.508,312.724v5.366h-1.548v-5.257c0-0.486,0-0.882-0.036-1.369c-0.09-1.116-0.702-1.945-2.179-1.945
			c-1.495,0-2.755,1.117-2.755,4.375v4.195h-1.548v-9.543h1.548v1.639l0.594-1.098c0.81-0.63,1.512-0.792,2.485-0.792
			c2.088,0,3.259,1.116,3.403,2.791C432.508,311.571,432.508,311.95,432.508,312.724z"/>
		<path fill="#562E87" d="M441.307,306.404c0,0.558-0.432,0.99-0.99,0.99c-0.558,0-0.99-0.432-0.99-0.99s0.432-0.99,0.99-0.99
			C440.875,305.414,441.307,305.846,441.307,306.404z M439.543,318.089v-9.543h1.548v9.543H439.543z"/>
		<path fill="#562E87" d="M452.163,312.724v5.366h-1.548v-5.257c0-0.486,0-0.882-0.036-1.369c-0.09-1.116-0.702-1.945-2.179-1.945
			c-1.495,0-2.755,1.117-2.755,4.375v4.195h-1.548v-9.543h1.548v1.639l0.594-1.098c0.81-0.63,1.512-0.792,2.485-0.792
			c2.088,0,3.259,1.116,3.403,2.791C452.163,311.571,452.163,311.95,452.163,312.724z"/>
		<path fill="#562E87" d="M354.444,334.63v5.834h-1.548v-5.113c0-0.847-0.018-1.369-0.072-1.855
			c-0.144-1.08-0.828-1.602-1.908-1.602c-1.207,0-2.089,0.954-2.089,3.853v4.717h-1.548v-5.113c0-0.847-0.018-1.369-0.072-1.855
			c-0.144-1.08-0.828-1.602-1.909-1.602c-1.206,0-2.088,0.954-2.088,3.853v4.717h-1.548v-9.543h1.548v1.387l0.612-1.081
			c0.486-0.396,1.17-0.558,2.017-0.558c1.458,0,2.395,0.738,2.755,1.783l0.846-1.225c0.486-0.396,1.17-0.558,2.017-0.558
			c1.71,0,2.683,1.008,2.899,2.323C354.426,333.478,354.444,333.856,354.444,334.63z"/>
		<path fill="#562E87" d="M359.085,328.778c0,0.558-0.433,0.99-0.991,0.99s-0.99-0.432-0.99-0.99s0.432-0.99,0.99-0.99
			S359.085,328.22,359.085,328.778z M357.321,340.464v-9.543h1.548v9.543H357.321z"/>
		<path fill="#562E87" d="M363.333,341.292c0,0.36-0.018,0.828-0.054,1.152c-0.126,1.152-0.756,1.801-2.232,1.801
			c-0.288,0-0.504,0-0.738-0.036v-1.26c0.99,0.09,1.368-0.216,1.44-0.792c0.036-0.252,0.036-0.522,0.036-0.792v-10.443h1.549
			V341.292z M363.549,328.778c0,0.558-0.432,0.99-0.99,0.99s-0.99-0.432-0.99-0.99s0.432-0.99,0.99-0.99
			S363.549,328.22,363.549,328.778z"/>
		<path fill="#562E87" d="M374.405,335.098v5.366h-1.549v-5.258c0-0.486,0-0.882-0.036-1.368c-0.09-1.116-0.702-1.944-2.179-1.944
			c-1.495,0-2.755,1.116-2.755,4.375v4.195h-1.548v-9.543h1.548v1.639l0.594-1.099c0.81-0.63,1.512-0.792,2.485-0.792
			c2.088,0,3.259,1.116,3.403,2.791C374.405,333.946,374.405,334.324,374.405,335.098z"/>
		<path fill="#562E87" d="M385.833,330.831v1.17c-1.621-0.108-2.845,0.846-2.845,3.025v5.438h-1.548v-9.543h1.548v1.495l0.864-1.278
			c0.396-0.27,0.882-0.432,1.333-0.432C385.437,330.705,385.653,330.741,385.833,330.831z"/>
		<path fill="#562E87" d="M395.23,336.161h-6.914c0.144,2.521,1.332,3.367,2.737,3.367c1.242,0,2.25-0.774,2.466-2.143h1.621
			c-0.378,2.305-2.197,3.331-4.159,3.331c-2.485,0-4.339-1.62-4.339-4.987c0-3.097,1.927-5.06,4.538-5.06
			c2.628,0,4.087,1.962,4.087,4.753C395.266,335.566,395.266,335.818,395.23,336.161z M388.333,334.972h5.366
			c-0.144-1.98-0.99-3.115-2.557-3.115C389.63,331.857,388.514,332.938,388.333,334.972z"/>
		<path fill="#562E87" d="M406.714,335.548c0,3.529-2.196,5.167-4.663,5.167c-0.792,0-1.801-0.234-2.287-0.63l-0.63-0.937v4.844
			h-1.548v-13.072h1.548v1.531l0.72-1.026c0.54-0.45,1.548-0.756,2.521-0.756C405.166,330.669,406.714,332.758,406.714,335.548z
			 M405.021,335.729c0-2.161-0.972-3.871-2.881-3.871c-1.584,0-3.007,1.008-3.007,3.745v0.522c0,2.467,1.548,3.403,2.917,3.403
			C403.725,339.527,405.021,338.231,405.021,335.729z"/>
		<path fill="#562E87" d="M416.65,336.161h-6.914c0.144,2.521,1.332,3.367,2.737,3.367c1.242,0,2.25-0.774,2.466-2.143h1.621
			c-0.378,2.305-2.197,3.331-4.159,3.331c-2.485,0-4.339-1.62-4.339-4.987c0-3.097,1.927-5.06,4.538-5.06
			c2.628,0,4.087,1.962,4.087,4.753C416.686,335.566,416.686,335.818,416.65,336.161z M409.753,334.972h5.366
			c-0.144-1.98-0.99-3.115-2.557-3.115C411.05,331.857,409.934,332.938,409.753,334.972z"/>
		<path fill="#562E87" d="M423.398,330.831v1.17c-1.621-0.108-2.845,0.846-2.845,3.025v5.438h-1.548v-9.543h1.548v1.495l0.864-1.278
			c0.396-0.27,0.882-0.432,1.333-0.432C423.002,330.705,423.218,330.741,423.398,330.831z"/>
		<path fill="#562E87" d="M427.069,337.673c0,0.324,0,0.486,0.018,0.738c0.072,0.918,0.45,1.116,1.656,0.973v1.134
			c-0.45,0.072-0.882,0.09-1.314,0.09c-1.188,0-1.8-0.486-1.891-1.674c-0.018-0.252-0.018-0.648-0.018-1.188v-5.563h-1.278v-1.188
			h1.278v-2.215h1.548v2.215h1.783v1.188h-1.783V337.673z"/>
		<path fill="#562E87" d="M439.564,335.692c0,2.683-1.495,5.023-4.736,5.023c-3.241,0-4.735-2.341-4.735-5.023
			c0-2.701,1.495-5.023,4.735-5.023C438.069,330.669,439.564,332.992,439.564,335.692z M437.871,335.692
			c0-2.25-1.116-3.835-3.043-3.835c-1.926,0-3.042,1.584-3.042,3.835c0,2.233,1.116,3.835,3.042,3.835
			C436.755,339.527,437.871,337.925,437.871,335.692z"/>
		<path fill="#562E87" d="M443.467,328.778c0,0.558-0.432,0.99-0.99,0.99c-0.558,0-0.99-0.432-0.99-0.99s0.432-0.99,0.99-0.99
			C443.036,327.788,443.467,328.22,443.467,328.778z M441.703,340.464v-9.543h1.548v9.543H441.703z"/>
		<path fill="#562E87" d="M450.65,330.831v1.17c-1.62-0.108-2.845,0.846-2.845,3.025v5.438h-1.548v-9.543h1.548v1.495l0.864-1.278
			c0.396-0.27,0.882-0.432,1.333-0.432C450.254,330.705,450.47,330.741,450.65,330.831z"/>
		<path fill="#562E87" d="M460.047,336.161h-6.914c0.144,2.521,1.332,3.367,2.737,3.367c1.242,0,2.25-0.774,2.466-2.143h1.621
			c-0.378,2.305-2.197,3.331-4.159,3.331c-2.485,0-4.339-1.62-4.339-4.987c0-3.097,1.927-5.06,4.538-5.06
			c2.628,0,4.087,1.962,4.087,4.753C460.083,335.566,460.083,335.818,460.047,336.161z M453.151,334.972h5.366
			c-0.144-1.98-0.99-3.115-2.557-3.115C454.448,331.857,453.331,332.938,453.151,334.972z"/>
	</g>
</g>
<g>
	<g>
		<path fill="#562E87" d="M173.332,318.089h-2.035l-2.809-10.713l-2.917,10.713h-2.053l-3.277-12.424h1.765l2.61,11.038
			l2.881-10.857h2.089l2.809,10.875l2.755-11.055h1.639L173.332,318.089z"/>
		<path fill="#562E87" d="M183.607,316.721l-0.522,1.026c-0.648,0.45-1.477,0.594-2.395,0.594c-1.729,0-3.079-0.954-3.079-2.719
			c0-2.161,1.62-3.277,5.365-3.277h0.612v-0.252c0-0.414,0-0.792-0.036-1.152c-0.072-0.882-0.576-1.458-1.854-1.458
			c-1.296,0-1.944,0.702-2.053,2.017h-1.62c0.144-2.035,1.566-3.205,3.673-3.205c2.269,0,3.223,0.954,3.385,2.521
			c0.036,0.378,0.054,0.846,0.054,1.26v3.583c0,0.72,0.036,1.368,0.18,2.431h-1.548L183.607,316.721z M183.589,314.47v-0.972
			c-2.629-0.198-4.285,0.36-4.285,1.999c0,1.152,0.738,1.657,1.908,1.657C182.653,317.153,183.589,316.199,183.589,314.47z"/>
		<path fill="#562E87" d="M189.979,315.298c0,0.324,0,0.486,0.018,0.738c0.072,0.918,0.45,1.117,1.656,0.972v1.135
			c-0.45,0.072-0.882,0.09-1.314,0.09c-1.188,0-1.8-0.486-1.891-1.674c-0.018-0.252-0.018-0.648-0.018-1.188v-5.564h-1.278v-1.188
			h1.278v-2.215h1.548v2.215h1.783v1.188h-1.783V315.298z"/>
		<path fill="#562E87" d="M207.836,318.089H206l-2.125-8.03l-2.125,8.03h-1.836l-3.043-9.543h1.783l2.214,8.066l2.089-8.066h1.926
			l2.125,8.013l2.214-8.013h1.657L207.836,318.089z"/>
		<path fill="#562E87" d="M214.349,306.404c0,0.558-0.432,0.99-0.99,0.99c-0.558,0-0.99-0.432-0.99-0.99s0.432-0.99,0.99-0.99
			C213.917,305.414,214.349,305.846,214.349,306.404z M212.585,318.089v-9.543h1.548v9.543H212.585z"/>
		<path fill="#562E87" d="M218.616,315.353c0,0.288,0,0.594,0.018,0.9c0.036,0.612,0.324,0.81,1.17,0.72v1.116
			c-0.342,0.054-0.738,0.072-1.098,0.072c-0.9,0-1.566-0.288-1.621-1.494c-0.018-0.324-0.018-0.738-0.018-1.26v-10.551h1.549
			V315.353z"/>
		<path fill="#562E87" d="M227.777,306.404c0,0.558-0.432,0.99-0.99,0.99c-0.558,0-0.99-0.432-0.99-0.99s0.432-0.99,0.99-0.99
			C227.345,305.414,227.777,305.846,227.777,306.404z M226.013,318.089v-9.543h1.548v9.543H226.013z"/>
		<path fill="#562E87" d="M233.015,314.056l-0.9,0.99v3.043h-1.548v-13.234h1.548v8.499l4.447-4.808h1.98l-4.447,4.501l4.501,5.042
			h-2.106L233.015,314.056z"/>
		<path fill="#562E87" d="M245.867,315.353c0,0.288,0,0.594,0.018,0.9c0.036,0.612,0.324,0.81,1.17,0.72v1.116
			c-0.342,0.054-0.738,0.072-1.098,0.072c-0.9,0-1.566-0.288-1.621-1.494c-0.018-0.324-0.018-0.738-0.018-1.26v-10.551h1.549
			V315.353z"/>
		<path fill="#562E87" d="M256.902,313.786h-6.914c0.144,2.521,1.332,3.367,2.737,3.367c1.242,0,2.25-0.774,2.467-2.143h1.62
			c-0.378,2.305-2.196,3.331-4.159,3.331c-2.485,0-4.339-1.621-4.339-4.987c0-3.097,1.927-5.06,4.538-5.06
			c2.629,0,4.087,1.962,4.087,4.753C256.938,313.192,256.938,313.444,256.902,313.786z M250.006,312.598h5.365
			c-0.144-1.98-0.99-3.115-2.557-3.115C251.302,309.483,250.186,310.563,250.006,312.598z"/>
		<path fill="#562E87" d="M263.651,308.457v1.17c-1.62-0.108-2.845,0.846-2.845,3.025v5.438h-1.548v-9.543h1.548v1.495l0.864-1.278
			c0.396-0.27,0.882-0.432,1.333-0.432C263.255,308.331,263.471,308.366,263.651,308.457z"/>
		<path fill="#562E87" d="M273.048,313.786h-6.914c0.144,2.521,1.332,3.367,2.737,3.367c1.242,0,2.25-0.774,2.466-2.143h1.621
			c-0.378,2.305-2.197,3.331-4.159,3.331c-2.485,0-4.339-1.621-4.339-4.987c0-3.097,1.927-5.06,4.538-5.06
			c2.628,0,4.087,1.962,4.087,4.753C273.084,313.192,273.084,313.444,273.048,313.786z M266.152,312.598h5.366
			c-0.144-1.98-0.99-3.115-2.557-3.115C267.449,309.483,266.332,310.563,266.152,312.598z"/>
		<path fill="#562E87" d="M283.47,312.724v5.366h-1.549v-5.257c0-0.486,0-0.882-0.036-1.369c-0.09-1.116-0.702-1.945-2.179-1.945
			c-1.495,0-2.755,1.117-2.755,4.375v4.195h-1.548v-9.543h1.548v1.639l0.594-1.098c0.81-0.63,1.512-0.792,2.485-0.792
			c2.088,0,3.259,1.116,3.403,2.791C283.47,311.571,283.47,311.95,283.47,312.724z"/>
		<path fill="#562E87" d="M293.442,308.708c0,1.26-0.612,2.395-1.891,3.673c-1.099,1.098-1.369,1.584-1.423,2.467h-1.548
			c0.108-1.063,0.432-1.729,1.44-2.881c1.278-1.458,1.693-2.179,1.693-3.259c0-1.242-0.774-2.071-2.071-2.071
			c-1.351,0-2.269,0.882-2.377,2.557h-1.62c0.072-2.305,1.692-3.781,4.051-3.781C292.109,305.414,293.442,306.854,293.442,308.708z
			 M290.507,317.189c0,0.667-0.486,1.152-1.152,1.152c-0.667,0-1.152-0.486-1.152-1.152c0-0.666,0.486-1.152,1.152-1.152
			C290.021,316.037,290.507,316.523,290.507,317.189z"/>
	</g>
</g>
</svg>
