<?xml version="1.0" encoding="utf-8"?>
<!-- Generator: Adobe Illustrator 16.0.0, SVG Export Plug-In . SVG Version: 6.00 Build 0)  -->
<!DOCTYPE svg PUBLIC "-//W3C//DTD SVG 1.1//EN" "http://www.w3.org/Graphics/SVG/1.1/DTD/svg11.dtd">
<svg version="1.1" id="Layer_1" xmlns="http://www.w3.org/2000/svg" xmlns:xlink="http://www.w3.org/1999/xlink" x="0px" y="0px"
	 width="800px" height="557.418px" viewBox="0 0 800 557.418" enable-background="new 0 0 800 557.418" xml:space="preserve">
<g>
	<g>
		<path fill="#562E87" d="M120.812,215.352h-3.544l-4.764-12.242h3.521l3.083,9.848l3.015-9.848h3.429L120.812,215.352z"/>
		<path fill="#562E87" d="M137.981,210.059h-8.698c0.207,2.578,1.357,3.383,2.83,3.383c1.358,0,2.348-0.76,2.555-2.072h3.176
			c-0.622,2.854-2.922,4.305-5.799,4.305c-3.36,0-5.96-2.096-5.96-6.398c0-3.75,2.462-6.49,6.213-6.49
			c3.75,0,5.729,2.854,5.729,6.191C138.027,209.275,138.027,209.645,137.981,210.059z M129.375,207.986h5.385
			c-0.208-1.934-1.082-2.967-2.6-2.967C130.688,205.02,129.651,205.963,129.375,207.986z"/>
		<path fill="#562E87" d="M147.695,202.902v2.555c-2.646-0.186-3.958,0.988-3.958,4.281v5.613h-3.176v-12.242h3.176v2.23
			l0.966-1.703c0.599-0.551,1.404-0.828,2.094-0.828C147.167,202.809,147.42,202.834,147.695,202.902z"/>
		<path fill="#562E87" d="M152.737,211.348c0,0.482,0,0.805,0.023,1.127c0.069,0.621,0.345,0.828,1.427,0.76v2.186
			c-0.622,0.068-1.243,0.092-1.956,0.092c-1.565,0-2.555-0.574-2.624-2.164c-0.046-0.551-0.046-1.127-0.046-1.932v-12.979h3.176
			V211.348z"/>
		<path fill="#562E87" d="M167.49,210.059h-8.699c0.208,2.578,1.358,3.383,2.831,3.383c1.357,0,2.347-0.76,2.555-2.072h3.175
			c-0.621,2.854-2.923,4.305-5.799,4.305c-3.36,0-5.96-2.096-5.96-6.398c0-3.75,2.462-6.49,6.213-6.49s5.73,2.854,5.73,6.191
			C167.536,209.275,167.536,209.645,167.49,210.059z M158.883,207.986h5.385c-0.208-1.934-1.083-2.967-2.601-2.967
			C160.195,205.02,159.159,205.963,158.883,207.986z"/>
		<path fill="#562E87" d="M181.967,215.352h-3.175v-1.887l-0.921,1.357c-0.69,0.529-1.933,0.852-3.176,0.852
			c-3.428,0-5.454-2.602-5.454-6.215c0-4.439,2.715-6.674,5.868-6.674c1.013,0,2.255,0.254,2.876,0.693l0.806,1.264v-6.305h3.175
			V215.352z M178.792,209.369v-0.6c0-2.762-1.588-3.75-3.061-3.75c-1.841,0-3.198,1.402-3.198,4.232c0,2.51,1.196,4.189,3.083,4.189
			C177.365,213.441,178.792,212.361,178.792,209.369z"/>
		<path fill="#562E87" d="M196.33,210.059h-8.698c0.207,2.578,1.357,3.383,2.83,3.383c1.357,0,2.347-0.76,2.554-2.072h3.176
			c-0.621,2.854-2.922,4.305-5.799,4.305c-3.36,0-5.96-2.096-5.96-6.398c0-3.75,2.462-6.49,6.213-6.49
			c3.75,0,5.729,2.854,5.729,6.191C196.375,209.275,196.375,209.645,196.33,210.059z M187.724,207.986h5.385
			c-0.208-1.934-1.082-2.967-2.601-2.967C189.035,205.02,188,205.963,187.724,207.986z"/>
		<path fill="#562E87" d="M210.417,208.449v6.902h-3.176v-6.465c0-0.508,0-1.082-0.046-1.705c-0.092-1.287-0.805-2.162-2.347-2.162
			c-1.542,0-2.761,1.334-2.761,4.74v5.592h-3.176v-12.242h3.176v1.979l0.943-1.451c0.875-0.619,1.772-0.852,2.945-0.852
			c2.601,0,4.097,1.289,4.35,3.43C210.393,206.836,210.417,207.459,210.417,208.449z"/>
	</g>
	<g>
		<path fill="#562E87" d="M377.154,208.314v6.904h-3.176v-6.467c0-0.506,0-1.082-0.046-1.703c-0.092-1.289-0.807-2.164-2.348-2.164
			c-1.543,0.023-2.762,1.338-2.762,4.74v5.594h-3.176v-17.029h3.176v6.766l0.943-1.449c0.875-0.623,1.771-0.852,2.945-0.852
			c2.602,0,4.097,1.289,4.35,3.428C377.131,206.705,377.154,207.324,377.154,208.314z"/>
		<path fill="#562E87" d="M391.355,209.924h-8.697c0.206,2.58,1.356,3.383,2.83,3.383c1.356,0,2.347-0.758,2.554-2.068h3.175
			c-0.62,2.854-2.923,4.301-5.798,4.301c-3.36,0-5.96-2.092-5.96-6.396c0-3.752,2.461-6.488,6.212-6.488
			c3.752,0,5.73,2.852,5.73,6.191C391.401,209.143,391.401,209.512,391.355,209.924z M382.749,207.854h5.385
			c-0.207-1.932-1.081-2.969-2.601-2.969C384.062,204.885,383.025,205.83,382.749,207.854z"/>
		<path fill="#562E87" d="M405.834,215.219h-3.177v-1.889l-0.92,1.359c-0.69,0.529-1.933,0.85-3.176,0.85
			c-3.43,0-5.455-2.6-5.455-6.211c0-4.443,2.716-6.674,5.868-6.674c1.013,0,2.255,0.252,2.878,0.689l0.805,1.266v-6.305h3.177
			V215.219z M402.657,209.236v-0.6c0-2.762-1.587-3.752-3.06-3.752c-1.843,0-3.199,1.404-3.199,4.236
			c0,2.506,1.196,4.186,3.084,4.186C401.229,213.307,402.657,212.227,402.657,209.236z"/>
		<path fill="#562E87" d="M420.195,209.924h-8.697c0.207,2.58,1.357,3.383,2.83,3.383c1.358,0,2.348-0.758,2.554-2.068h3.176
			c-0.62,2.854-2.922,4.301-5.799,4.301c-3.36,0-5.96-2.092-5.96-6.396c0-3.752,2.462-6.488,6.212-6.488
			c3.752,0,5.731,2.852,5.731,6.191C420.242,209.143,420.242,209.512,420.195,209.924z M411.59,207.854h5.385
			c-0.208-1.932-1.081-2.969-2.6-2.969C412.901,204.885,411.865,205.83,411.59,207.854z"/>
		<path fill="#562E87" d="M434.282,208.314v6.904h-3.176v-6.467c0-0.506,0-1.082-0.045-1.703c-0.093-1.289-0.807-2.164-2.348-2.164
			c-1.543,0-2.762,1.338-2.762,4.74v5.594h-3.176v-12.244h3.176v1.98l0.943-1.449c0.874-0.623,1.771-0.852,2.945-0.852
			c2.602,0,4.097,1.289,4.349,3.428C434.259,206.705,434.282,207.324,434.282,208.314z"/>
	</g>
	<g>
		<path fill="#562E87" d="M584.645,210.955c0,0.414,0,0.762,0.022,1.082c0.092,1.197,0.529,1.473,2.301,1.334v2.072
			c-0.713,0.113-1.381,0.162-2.093,0.162c-2.371,0-3.223-0.783-3.36-2.51c-0.046-0.551-0.046-1.082-0.046-1.771v-6.029h-1.795
			v-2.092h1.795v-3.018h3.176v3.018h2.53v2.092h-2.53V210.955z"/>
		<path fill="#562E87" d="M601.169,209.23c0,3.703-2.279,6.443-6.352,6.443c-4.073,0-6.352-2.74-6.352-6.443
			c0-3.729,2.278-6.445,6.352-6.445C598.89,202.785,601.169,205.502,601.169,209.23z M597.878,209.23
			c0-2.646-1.151-4.211-3.061-4.211c-1.91,0-3.062,1.564-3.062,4.211c0,2.623,1.151,4.211,3.062,4.211
			C596.727,213.441,597.878,211.854,597.878,209.23z"/>
		<path fill="#562E87" d="M614.658,210.059h-8.699c0.207,2.578,1.356,3.383,2.83,3.383c1.358,0,2.348-0.76,2.555-2.072h3.175
			c-0.621,2.854-2.922,4.305-5.799,4.305c-3.358,0-5.959-2.096-5.959-6.398c0-3.75,2.461-6.49,6.213-6.49
			c3.751,0,5.729,2.854,5.729,6.191C614.702,209.275,614.702,209.645,614.658,210.059z M606.051,207.986h5.384
			c-0.206-1.934-1.08-2.967-2.601-2.967C607.362,205.02,606.326,205.963,606.051,207.986z"/>
		<path fill="#562E87" d="M620.414,211.623v3.729h-3.177v-16.914h3.177v10.264l4.923-5.592h3.82l-5.431,5.684l5.5,6.559h-4.004
			l-3.797-4.834L620.414,211.623z"/>
		<path fill="#562E87" d="M642.438,209.23c0,3.703-2.277,6.443-6.352,6.443c-4.073,0-6.352-2.74-6.352-6.443
			c0-3.729,2.278-6.445,6.352-6.445C640.161,202.785,642.438,205.502,642.438,209.23z M639.147,209.23
			c0-2.646-1.151-4.211-3.061-4.211s-3.06,1.564-3.06,4.211c0,2.623,1.15,4.211,3.06,4.211S639.147,211.854,639.147,209.23z"/>
		<path fill="#562E87" d="M663.152,208.057v7.295h-3.175v-6.375c0-0.713-0.024-1.379-0.093-2.002
			c-0.161-1.266-0.852-1.955-2.07-1.955c-1.427,0-2.231,1.219-2.231,4.051v6.281h-3.154v-6.375c0-0.713-0.022-1.379-0.092-2.002
			c-0.161-1.266-0.874-1.955-2.094-1.955c-1.427,0-2.21,1.219-2.21,4.051v6.281h-3.175v-12.242h3.175v1.863l0.898-1.473
			c0.689-0.482,1.495-0.715,2.601-0.715c2.002,0,3.269,0.99,3.751,2.326l1.196-1.611c0.69-0.482,1.519-0.715,2.623-0.715
			c2.324,0,3.659,1.359,3.935,3.039C663.13,206.445,663.152,207.066,663.152,208.057z"/>
		<path fill="#562E87" d="M675.517,206.652h-3.177c-0.207-1.127-0.829-1.771-1.888-1.771c-0.942,0-1.449,0.553-1.449,1.311
			c0,0.92,0.76,1.406,2.785,1.91c2.508,0.645,3.98,1.658,3.98,3.912c0,2.463-2.232,3.66-5.04,3.66c-2.969,0-5.062-1.289-5.407-4.051
			h3.176c0.253,1.334,1.173,1.955,2.277,1.955c1.014,0,1.795-0.438,1.795-1.334c0-0.943-0.805-1.473-2.922-2.002
			c-2.278-0.576-3.844-1.564-3.844-3.682c0-2.348,1.934-3.775,4.855-3.775C673.583,202.785,675.238,204.42,675.517,206.652z"/>
		<path fill="#562E87" d="M681.869,210.955c0,0.414,0,0.762,0.023,1.082c0.091,1.197,0.528,1.473,2.301,1.334v2.072
			c-0.714,0.113-1.381,0.162-2.095,0.162c-2.37,0-3.222-0.783-3.358-2.51c-0.047-0.551-0.047-1.082-0.047-1.771v-6.029h-1.795
			v-2.092h1.795v-3.018h3.176v3.018h2.532v2.092h-2.532V210.955z"/>
	</g>
	
		<path fill="none" stroke="#562E87" stroke-width="3" stroke-linecap="round" stroke-linejoin="round" stroke-miterlimit="10" stroke-dasharray="5,5.5" d="
		M243.29,71.104c0.19-0.445,6.131,4.037,18.175,10.418c11.649,7.533,27.533,16.418,45.438,26.049
		c17.813,10.268,39.695,22.178,59.07,33.865c20.877,14.611,43.541,23.275,59.068,33.863c18.775,9.229,34.079,19.535,45.438,26.051
		c11.361,6.51,18.176,10.416,18.176,10.416s-24.68,12.939-57.586,30.193c-16.451,8.627-35.381,20.512-53.474,28.037
		c-18.409,9.205-37.478,19.111-53.471,28.037c-17.168,10.307-30.989,16.229-41.131,21.566c-9.092,5.912-14.791,9.197-16.453,8.629"
		/>
	<path fill="none" stroke="#562E87" stroke-width="3" stroke-linecap="round" stroke-linejoin="round" stroke-miterlimit="10" d="
		M560.751,67.418c0.56,0.678-7.293,4.154-18.442,10.215c-11.829,6.596-27.954,15.088-46.104,25.533
		c-18.359,10.98-39.188,21.707-59.933,33.199c-62.241,34.471-124.48,68.945-124.48,68.945s6.458,3.516,17.225,9.379
		c10.765,5.863,25.834,14.072,43.059,23.451c15.339,9.186,37.962,19.104,55.976,30.488c19.381,12.363,38.603,22.025,55.979,30.488
		c17.677,8.986,32.442,16.732,43.057,23.447c10.764,5.863,17.222,9.379,17.222,9.379"/>
	<g>
		<g>
			<path fill="#562E87" d="M111.994,385.635h-2.601l-3.59-13.693l-3.728,13.693h-2.623l-4.188-15.881h2.255l3.336,14.107
				l3.682-13.877h2.67l3.589,13.9l3.521-14.131h2.093L111.994,385.635z"/>
			<path fill="#562E87" d="M125.138,383.885l-0.667,1.313c-0.828,0.574-1.887,0.758-3.06,0.758c-2.209,0-3.936-1.219-3.936-3.475
				c0-2.762,2.071-4.188,6.858-4.188h0.782v-0.322c0-0.529,0-1.014-0.046-1.475c-0.091-1.127-0.736-1.861-2.37-1.861
				c-1.657,0-2.485,0.896-2.623,2.576h-2.071c0.184-2.6,2.002-4.096,4.694-4.096c2.899,0,4.12,1.219,4.327,3.223
				c0.045,0.482,0.069,1.082,0.069,1.609v4.578c0,0.924,0.046,1.75,0.23,3.109h-1.979L125.138,383.885z M125.116,381.008v-1.242
				c-3.36-0.254-5.478,0.459-5.478,2.553c0,1.475,0.944,2.119,2.44,2.119C123.919,384.438,125.116,383.219,125.116,381.008z"/>
			<path fill="#562E87" d="M137.706,383.885l-0.667,1.313c-0.829,0.574-1.887,0.758-3.061,0.758c-2.208,0-3.935-1.219-3.935-3.475
				c0-2.762,2.071-4.188,6.857-4.188h0.782v-0.322c0-0.529,0-1.014-0.046-1.475c-0.092-1.127-0.736-1.861-2.371-1.861
				c-1.656,0-2.485,0.896-2.623,2.576h-2.071c0.185-2.6,2.002-4.096,4.694-4.096c2.9,0,4.119,1.219,4.327,3.223
				c0.045,0.482,0.068,1.082,0.068,1.609v4.578c0,0.924,0.046,1.75,0.23,3.109h-1.979L137.706,383.885z M137.683,381.008v-1.242
				c-3.359-0.254-5.477,0.459-5.477,2.553c0,1.475,0.944,2.119,2.439,2.119C136.486,384.438,137.683,383.219,137.683,381.008z"/>
			<path fill="#562E87" d="M149.101,373.322v1.496c-2.072-0.139-3.636,1.082-3.636,3.867v6.949h-1.979v-12.197h1.979v1.91
				l1.104-1.635c0.507-0.344,1.128-0.553,1.703-0.553C148.594,373.16,148.87,373.207,149.101,373.322z"/>
			<path fill="#562E87" d="M162.241,379.537c0,3.426-1.91,6.418-6.052,6.418c-4.142,0-6.051-2.992-6.051-6.418
				c0-3.453,1.91-6.422,6.051-6.422C160.332,373.115,162.241,376.084,162.241,379.537z M160.079,379.537
				c0-2.879-1.427-4.902-3.89-4.902c-2.462,0-3.889,2.023-3.889,4.902c0,2.85,1.427,4.9,3.889,4.9
				C158.652,384.438,160.079,382.387,160.079,379.537z"/>
			<path fill="#562E87" d="M181.322,378.178v7.457h-1.979v-6.537c0-1.082-0.022-1.75-0.092-2.371
				c-0.184-1.379-1.059-2.047-2.439-2.047c-1.542,0-2.669,1.221-2.669,4.926v6.029h-1.98v-6.537c0-1.082-0.023-1.75-0.092-2.371
				c-0.184-1.379-1.058-2.047-2.439-2.047c-1.542,0-2.669,1.221-2.669,4.926v6.029h-1.979v-12.197h1.979v1.771l0.782-1.381
				c0.621-0.506,1.496-0.713,2.577-0.713c1.865,0,3.061,0.943,3.521,2.277l1.082-1.564c0.622-0.506,1.496-0.713,2.578-0.713
				c2.186,0,3.429,1.289,3.705,2.969C181.299,376.703,181.322,377.188,181.322,378.178z"/>
			<path fill="#562E87" d="M200.979,385.635h-1.979v-1.957l-0.921,1.311c-0.69,0.576-1.979,0.967-3.222,0.967
				c-3.566,0-5.546-2.668-5.546-6.236c0-4.51,2.808-6.604,5.96-6.604c1.013,0,2.301,0.299,2.923,0.805l0.806,1.197v-6.396h1.979
				V385.635z M199.001,379.65v-0.668c0-3.152-1.98-4.348-3.729-4.348c-2.14,0-3.797,1.654-3.797,4.854
				c0,2.762,1.243,4.949,3.682,4.949C197.183,384.438,199.001,383.148,199.001,379.65z"/>
			<path fill="#562E87" d="M215.918,379.537c0,3.426-1.91,6.418-6.052,6.418c-4.143,0-6.052-2.992-6.052-6.418
				c0-3.453,1.91-6.422,6.052-6.422C214.008,373.115,215.918,376.084,215.918,379.537z M213.755,379.537
				c0-2.879-1.427-4.902-3.889-4.902c-2.463,0-3.889,2.023-3.889,4.902c0,2.85,1.426,4.9,3.889,4.9
				C212.328,384.438,213.755,382.387,213.755,379.537z"/>
			<path fill="#562E87" d="M228.624,380.133h-8.837c0.185,3.223,1.703,4.305,3.498,4.305c1.588,0,2.876-0.988,3.152-2.74h2.072
				c-0.484,2.947-2.808,4.258-5.316,4.258c-3.176,0-5.545-2.07-5.545-6.373c0-3.959,2.462-6.467,5.799-6.467
				c3.36,0,5.224,2.508,5.224,6.076C228.67,379.373,228.67,379.695,228.624,380.133z M219.81,378.615h6.858
				c-0.184-2.531-1.266-3.98-3.268-3.98C221.467,374.635,220.041,376.014,219.81,378.615z"/>
			<path fill="#562E87" d="M94.262,398.318c0,0.715-0.551,1.268-1.265,1.268c-0.713,0-1.266-0.553-1.266-1.268
				c0-0.711,0.552-1.266,1.266-1.266C93.711,397.053,94.262,397.607,94.262,398.318z M92.007,413.254v-12.195h1.979v12.195H92.007z"
				/>
			<path fill="#562E87" d="M100.96,408.102l-1.15,1.266v3.887h-1.979V396.34h1.979v10.861l5.684-6.143h2.532l-5.684,5.754
				l5.753,6.441h-2.692L100.96,408.102z"/>
			<path fill="#562E87" d="M127.842,413.254h-2.347l-2.716-10.262l-2.715,10.262h-2.347l-3.889-12.195h2.278l2.83,10.311
				l2.67-10.311h2.462l2.715,10.242l2.83-10.242h2.117L127.842,413.254z"/>
			<path fill="#562E87" d="M140.71,411.506l-0.667,1.311c-0.829,0.576-1.887,0.76-3.061,0.76c-2.209,0-3.935-1.219-3.935-3.475
				c0-2.762,2.071-4.186,6.857-4.186h0.782v-0.324c0-0.527,0-1.014-0.045-1.473c-0.092-1.127-0.737-1.865-2.371-1.865
				c-1.656,0-2.485,0.896-2.623,2.58h-2.071c0.185-2.602,2.002-4.1,4.694-4.1c2.9,0,4.12,1.221,4.327,3.223
				c0.045,0.484,0.069,1.082,0.069,1.611v4.58c0,0.92,0.046,1.748,0.23,3.105h-1.979L140.71,411.506z M140.687,408.629v-1.242
				c-3.359-0.254-5.477,0.459-5.477,2.555c0,1.473,0.944,2.117,2.439,2.117C139.491,412.059,140.687,410.838,140.687,408.629z"/>
			<path fill="#562E87" d="M148.859,409.688c0,0.414,0,0.623,0.023,0.943c0.092,1.174,0.576,1.428,2.117,1.242v1.451
				c-0.575,0.092-1.128,0.113-1.68,0.113c-1.519,0-2.301-0.621-2.416-2.137c-0.023-0.324-0.023-0.832-0.023-1.521v-7.111h-1.634
				v-1.518h1.634v-2.832h1.979v2.832h2.279v1.518h-2.279V409.688z"/>
			<path fill="#562E87" d="M161.61,398.318c0,0.715-0.551,1.268-1.265,1.268c-0.713,0-1.266-0.553-1.266-1.268
				c0-0.711,0.552-1.266,1.266-1.266C161.059,397.053,161.61,397.607,161.61,398.318z M159.355,413.254v-12.195h1.979v12.195
				H159.355z"/>
			<path fill="#562E87" d="M168.308,408.102l-1.15,1.266v3.887h-1.979V396.34h1.979v10.861l5.684-6.143h2.532l-5.684,5.754
				l5.753,6.441h-2.692L168.308,408.102z"/>
			<path fill="#562E87" d="M193.51,413.254h-1.979v-1.953l-0.921,1.309c-0.69,0.576-1.979,0.967-3.221,0.967
				c-3.567,0-5.546-2.67-5.546-6.236c0-4.51,2.808-6.605,5.96-6.605c1.013,0,2.302,0.301,2.923,0.807l0.805,1.197v-6.398h1.979
				V413.254z M191.531,407.271v-0.668c0-3.152-1.979-4.35-3.729-4.35c-2.14,0-3.796,1.658-3.796,4.857
				c0,2.762,1.243,4.947,3.682,4.947C189.713,412.059,191.531,410.77,191.531,407.271z"/>
			<path fill="#562E87" d="M208.448,407.156c0,3.43-1.91,6.42-6.052,6.42c-4.143,0-6.052-2.99-6.052-6.42
				c0-3.451,1.91-6.422,6.052-6.422C206.538,400.734,208.448,403.705,208.448,407.156z M206.285,407.156
				c0-2.877-1.427-4.902-3.889-4.902c-2.462,0-3.889,2.025-3.889,4.902c0,2.854,1.427,4.902,3.889,4.902
				C204.858,412.059,206.285,410.01,206.285,407.156z"/>
			<path fill="#562E87" d="M221.154,407.756h-8.837c0.184,3.221,1.703,4.303,3.499,4.303c1.587,0,2.875-0.99,3.152-2.74h2.071
				c-0.483,2.947-2.808,4.258-5.315,4.258c-3.176,0-5.546-2.07-5.546-6.375c0-3.957,2.463-6.467,5.799-6.467
				c3.36,0,5.224,2.51,5.224,6.078C221.2,406.994,221.2,407.318,221.154,407.756z M212.341,406.236h6.857
				c-0.184-2.531-1.266-3.982-3.268-3.982C213.998,402.254,212.57,403.637,212.341,406.236z"/>
			<path fill="#562E87" d="M233.239,401.266c0,1.609-0.783,3.061-2.417,4.695c-1.404,1.402-1.75,2.023-1.818,3.15h-1.979
				c0.138-1.355,0.553-2.209,1.841-3.682c1.634-1.861,2.164-2.785,2.164-4.164c0-1.588-0.99-2.648-2.647-2.648
				c-1.726,0-2.899,1.129-3.038,3.27h-2.071c0.092-2.945,2.163-4.834,5.178-4.834C231.536,397.053,233.239,398.895,233.239,401.266z
				 M229.488,412.104c0,0.852-0.622,1.473-1.473,1.473c-0.852,0-1.473-0.621-1.473-1.473s0.622-1.473,1.473-1.473
				C228.866,410.631,229.488,411.252,229.488,412.104z"/>
		</g>
	</g>
	<g>
		<g>
			<path fill="#562E87" d="M566.854,385.635v-15.881h1.979v15.881H566.854z"/>
			<path fill="#562E87" d="M582.985,378.775v6.859h-1.979v-6.721c0-0.621,0-1.127-0.047-1.748c-0.115-1.428-0.897-2.486-2.783-2.486
				c-1.911,0-3.521,1.428-3.521,5.592v5.363h-1.979v-12.197h1.979v2.094l0.759-1.402c1.036-0.807,1.934-1.014,3.176-1.014
				c2.671,0,4.165,1.428,4.35,3.568C582.985,377.303,582.985,377.787,582.985,378.775z"/>
			<path fill="#562E87" d="M589.041,382.068c0,0.414,0,0.619,0.022,0.943c0.093,1.172,0.576,1.426,2.118,1.24v1.451
				c-0.575,0.094-1.128,0.115-1.68,0.115c-1.52,0-2.302-0.621-2.417-2.141c-0.023-0.322-0.023-0.828-0.023-1.518v-7.111h-1.633
				v-1.52h1.633v-2.83h1.979v2.83h2.279v1.52h-2.279V382.068z"/>
			<path fill="#562E87" d="M603.886,380.135h-8.836c0.184,3.221,1.702,4.303,3.497,4.303c1.589,0,2.877-0.988,3.152-2.738h2.071
				c-0.483,2.945-2.807,4.256-5.315,4.256c-3.176,0-5.546-2.07-5.546-6.373c0-3.957,2.462-6.467,5.8-6.467
				c3.359,0,5.224,2.51,5.224,6.076C603.933,379.375,603.933,379.699,603.886,380.135z M595.072,378.617h6.857
				c-0.184-2.533-1.265-3.982-3.268-3.982C596.729,374.635,595.303,376.016,595.072,378.617z"/>
			<path fill="#562E87" d="M617.559,382.643c0,0.76,0,1.703-0.023,2.369c-0.115,3.568-2.278,5.457-5.8,5.457
				c-3.475,0-5.2-1.451-5.453-4.029l-0.023-0.229h2.002l0.023,0.207c0.16,1.496,1.357,2.531,3.451,2.531
				c2.417,0,3.729-1.381,3.82-3.729c0.023-0.576,0.023-0.969,0.023-1.336v-0.207l-0.921,1.313c-0.69,0.576-1.979,0.965-3.222,0.965
				c-3.566,0-5.545-2.668-5.545-6.236c0-4.508,2.807-6.604,5.959-6.604c1.012,0,2.302,0.301,2.923,0.807l0.806,1.195v-1.68h1.979
				V382.643z M615.579,379.65v-0.668c0-3.15-1.979-4.348-3.729-4.348c-2.141,0-3.796,1.656-3.796,4.854
				c0,2.762,1.242,4.949,3.681,4.949C613.761,384.438,615.579,383.15,615.579,379.65z"/>
			<path fill="#562E87" d="M627.02,373.322v1.496c-2.071-0.139-3.637,1.082-3.637,3.867v6.949h-1.979v-12.197h1.979v1.912
				l1.105-1.635c0.506-0.346,1.127-0.555,1.703-0.555C626.514,373.16,626.789,373.207,627.02,373.322z"/>
			<path fill="#562E87" d="M639.032,380.135h-8.837c0.186,3.221,1.703,4.303,3.499,4.303c1.588,0,2.877-0.988,3.152-2.738h2.071
				c-0.483,2.945-2.807,4.256-5.316,4.256c-3.175,0-5.545-2.07-5.545-6.373c0-3.957,2.462-6.467,5.799-6.467
				c3.359,0,5.224,2.51,5.224,6.076C639.079,379.375,639.079,379.699,639.032,380.135z M630.22,378.617h6.856
				c-0.183-2.533-1.265-3.982-3.267-3.982C631.876,374.635,630.449,376.016,630.22,378.617z"/>
			<path fill="#562E87" d="M647.667,373.322v1.496c-2.072-0.139-3.637,1.082-3.637,3.867v6.949h-1.979v-12.197h1.979v1.912
				l1.104-1.635c0.506-0.346,1.127-0.555,1.702-0.555C647.159,373.16,647.436,373.207,647.667,373.322z"/>
			<path fill="#562E87" d="M659.68,380.135h-8.837c0.185,3.221,1.703,4.303,3.499,4.303c1.587,0,2.876-0.988,3.152-2.738h2.071
				c-0.484,2.945-2.808,4.256-5.316,4.256c-3.175,0-5.545-2.07-5.545-6.373c0-3.957,2.461-6.467,5.798-6.467
				c3.359,0,5.224,2.51,5.224,6.076C659.726,379.375,659.726,379.699,659.68,380.135z M650.866,378.617h6.857
				c-0.183-2.533-1.266-3.982-3.267-3.982C652.523,374.635,651.096,376.016,650.866,378.617z"/>
			<path fill="#562E87" d="M673.007,378.775v6.859h-1.979v-6.721c0-0.621,0-1.127-0.046-1.748c-0.115-1.428-0.896-2.486-2.784-2.486
				c-1.909,0-3.521,1.428-3.521,5.592v5.363h-1.978v-12.197h1.978v2.094l0.761-1.402c1.034-0.807,1.933-1.014,3.175-1.014
				c2.67,0,4.166,1.428,4.349,3.568C673.007,377.303,673.007,377.787,673.007,378.775z"/>
			<path fill="#562E87" d="M684.265,370.699c0,0.713-0.553,1.266-1.267,1.266s-1.266-0.553-1.266-1.266
				c0-0.715,0.552-1.266,1.266-1.266S684.265,369.984,684.265,370.699z M682.009,385.635v-12.197h1.979v12.197H682.009z"/>
			<path fill="#562E87" d="M698.142,378.775v6.859h-1.979v-6.721c0-0.621,0-1.127-0.045-1.748c-0.115-1.428-0.898-2.486-2.785-2.486
				c-1.911,0-3.521,1.428-3.521,5.592v5.363h-1.979v-12.197h1.979v2.094l0.76-1.402c1.036-0.807,1.933-1.014,3.177-1.014
				c2.668,0,4.164,1.428,4.349,3.568C698.142,377.303,698.142,377.787,698.142,378.775z"/>
			<path fill="#562E87" d="M573.179,405.799v7.457H571.2v-6.537c0-1.082-0.023-1.748-0.093-2.371
				c-0.183-1.379-1.059-2.047-2.438-2.047c-1.543,0-2.67,1.221-2.67,4.926v6.029h-1.979v-6.537c0-1.082-0.023-1.748-0.092-2.371
				c-0.185-1.379-1.06-2.047-2.44-2.047c-1.541,0-2.668,1.221-2.668,4.926v6.029h-1.98v-12.197h1.98v1.773l0.782-1.383
				c0.62-0.504,1.495-0.711,2.576-0.711c1.864,0,3.062,0.941,3.521,2.275l1.081-1.564c0.622-0.504,1.496-0.711,2.579-0.711
				c2.185,0,3.428,1.287,3.703,2.969C573.155,404.328,573.179,404.811,573.179,405.799z"/>
			<path fill="#562E87" d="M579.12,398.322c0,0.711-0.552,1.264-1.265,1.264s-1.265-0.553-1.265-1.264
				c0-0.715,0.552-1.268,1.265-1.268S579.12,397.607,579.12,398.322z M576.865,413.256v-12.197h1.98v12.197H576.865z"/>
			<path fill="#562E87" d="M584.553,414.314c0,0.461-0.023,1.059-0.069,1.471c-0.16,1.475-0.967,2.303-2.853,2.303
				c-0.369,0-0.645,0-0.944-0.045v-1.613c1.267,0.117,1.75-0.275,1.841-1.01c0.047-0.324,0.047-0.668,0.047-1.014v-13.348h1.979
				V414.314z M584.828,398.322c0,0.711-0.552,1.264-1.265,1.264c-0.714,0-1.266-0.553-1.266-1.264c0-0.715,0.552-1.268,1.266-1.268
				C584.276,397.055,584.828,397.607,584.828,398.322z"/>
			<path fill="#562E87" d="M598.706,406.398v6.857h-1.979v-6.719c0-0.621,0-1.127-0.045-1.75c-0.115-1.426-0.897-2.486-2.785-2.486
				c-1.909,0-3.521,1.428-3.521,5.594v5.361h-1.978v-12.197h1.978v2.094l0.761-1.404c1.035-0.803,1.933-1.01,3.175-1.01
				c2.67,0,4.166,1.426,4.35,3.564C598.706,404.924,598.706,405.41,598.706,406.398z"/>
			<path fill="#562E87" d="M613.323,400.945v1.496c-2.072-0.141-3.636,1.08-3.636,3.865v6.949h-1.979v-12.197h1.979v1.91
				l1.104-1.635c0.507-0.344,1.128-0.551,1.704-0.551C612.816,400.783,613.094,400.828,613.323,400.945z"/>
			<path fill="#562E87" d="M625.337,407.756h-8.836c0.185,3.221,1.702,4.303,3.497,4.303c1.589,0,2.877-0.988,3.152-2.74h2.072
				c-0.484,2.947-2.808,4.258-5.316,4.258c-3.176,0-5.546-2.068-5.546-6.373c0-3.957,2.463-6.465,5.8-6.465
				c3.359,0,5.224,2.508,5.224,6.074C625.384,406.996,625.384,407.318,625.337,407.756z M616.523,406.236h6.857
				c-0.184-2.529-1.265-3.98-3.268-3.98C618.181,402.256,616.755,403.637,616.523,406.236z"/>
			<path fill="#562E87" d="M640.021,406.975c0,4.508-2.807,6.602-5.96,6.602c-1.013,0-2.301-0.297-2.922-0.803l-0.807-1.197v6.191
				h-1.979v-16.709h1.979v1.955l0.922-1.311c0.689-0.574,1.979-0.965,3.222-0.965C638.043,400.738,640.021,403.406,640.021,406.975z
				 M637.858,407.203c0-2.762-1.243-4.947-3.682-4.947c-2.025,0-3.844,1.289-3.844,4.787v0.666c0,3.154,1.98,4.35,3.729,4.35
				C636.202,412.059,637.858,410.4,637.858,407.203z"/>
			<path fill="#562E87" d="M652.729,407.756h-8.837c0.184,3.221,1.703,4.303,3.497,4.303c1.589,0,2.877-0.988,3.152-2.74h2.072
				c-0.483,2.947-2.809,4.258-5.315,4.258c-3.177,0-5.547-2.068-5.547-6.373c0-3.957,2.463-6.465,5.8-6.465
				c3.359,0,5.222,2.508,5.222,6.074C652.772,406.996,652.772,407.318,652.729,407.756z M643.914,406.236h6.857
				c-0.184-2.529-1.266-3.98-3.268-3.98C645.571,402.256,644.145,403.637,643.914,406.236z"/>
			<path fill="#562E87" d="M661.36,400.945v1.496c-2.069-0.141-3.635,1.08-3.635,3.865v6.949h-1.98v-12.197h1.98v1.91l1.104-1.635
				c0.506-0.344,1.129-0.551,1.703-0.551C660.854,400.783,661.13,400.828,661.36,400.945z"/>
			<path fill="#562E87" d="M666.057,409.688c0,0.414,0,0.623,0.022,0.945c0.093,1.172,0.575,1.426,2.118,1.24v1.451
				c-0.575,0.092-1.128,0.117-1.68,0.117c-1.52,0-2.302-0.623-2.417-2.141c-0.023-0.324-0.023-0.83-0.023-1.52v-7.111h-1.633v-1.518
				h1.633v-2.83h1.979v2.83h2.279v1.518h-2.279V409.688z"/>
			<path fill="#562E87" d="M682.029,407.158c0,3.428-1.91,6.418-6.054,6.418c-4.142,0-6.051-2.99-6.051-6.418
				c0-3.451,1.909-6.42,6.051-6.42C680.119,400.738,682.029,403.707,682.029,407.158z M679.865,407.158
				c0-2.879-1.427-4.902-3.89-4.902c-2.461,0-3.889,2.023-3.889,4.902c0,2.854,1.428,4.9,3.889,4.9
				C678.438,412.059,679.865,410.012,679.865,407.158z"/>
			<path fill="#562E87" d="M687.024,398.322c0,0.711-0.552,1.264-1.264,1.264c-0.715,0-1.267-0.553-1.267-1.264
				c0-0.715,0.552-1.268,1.267-1.268C686.473,397.055,687.024,397.607,687.024,398.322z M684.771,413.256v-12.197h1.979v12.197
				H684.771z"/>
			<path fill="#562E87" d="M696.208,400.945v1.496c-2.071-0.141-3.635,1.08-3.635,3.865v6.949h-1.979v-12.197h1.979v1.91
				l1.104-1.635c0.507-0.344,1.127-0.551,1.703-0.551C695.702,400.783,695.978,400.828,696.208,400.945z"/>
			<path fill="#562E87" d="M708.223,407.756h-8.837c0.186,3.221,1.703,4.303,3.498,4.303c1.588,0,2.877-0.988,3.152-2.74h2.071
				c-0.483,2.947-2.808,4.258-5.315,4.258c-3.177,0-5.546-2.068-5.546-6.373c0-3.957,2.463-6.465,5.8-6.465
				c3.358,0,5.223,2.508,5.223,6.074C708.269,406.996,708.269,407.318,708.223,407.756z M699.409,406.236h6.857
				c-0.185-2.529-1.266-3.98-3.268-3.98C701.065,402.256,699.64,403.637,699.409,406.236z"/>
		</g>
	</g>
	<g>
		<g>
			<path fill="#562E87" d="M323.512,385.635h-2.601l-3.59-13.691l-3.729,13.691h-2.623l-4.188-15.881h2.255l3.337,14.109
				l3.682-13.879h2.67l3.59,13.9l3.521-14.131h2.092L323.512,385.635z"/>
			<path fill="#562E87" d="M336.656,383.885l-0.667,1.313c-0.829,0.576-1.887,0.758-3.061,0.758c-2.208,0-3.935-1.219-3.935-3.473
				c0-2.764,2.071-4.189,6.857-4.189h0.782v-0.322c0-0.529,0-1.012-0.046-1.471c-0.092-1.131-0.736-1.865-2.37-1.865
				c-1.657,0-2.485,0.896-2.623,2.576h-2.072c0.185-2.6,2.002-4.096,4.695-4.096c2.898,0,4.119,1.221,4.326,3.223
				c0.046,0.482,0.068,1.082,0.068,1.611v4.58c0,0.92,0.046,1.748,0.23,3.105h-1.979L336.656,383.885z M336.634,381.01v-1.244
				c-3.359-0.252-5.477,0.461-5.477,2.553c0,1.475,0.943,2.119,2.439,2.119C335.438,384.438,336.634,383.219,336.634,381.01z"/>
			<path fill="#562E87" d="M344.806,382.068c0,0.414,0,0.619,0.024,0.943c0.092,1.172,0.574,1.426,2.116,1.24v1.451
				c-0.576,0.094-1.127,0.115-1.681,0.115c-1.518,0-2.301-0.621-2.416-2.141c-0.022-0.322-0.022-0.828-0.022-1.518v-7.111h-1.634
				v-1.52h1.634v-2.83h1.979v2.83h2.279v1.52h-2.279V382.068z"/>
			<path fill="#562E87" d="M367.637,385.635h-2.348l-2.715-10.266l-2.716,10.266h-2.348l-3.889-12.197h2.278l2.83,10.309
				l2.67-10.309h2.462l2.716,10.24l2.83-10.24h2.117L367.637,385.635z"/>
			<path fill="#562E87" d="M375.972,370.699c0,0.713-0.553,1.266-1.266,1.266c-0.715,0-1.267-0.553-1.267-1.266
				c0-0.715,0.552-1.266,1.267-1.266C375.419,369.434,375.972,369.984,375.972,370.699z M373.716,385.635v-12.197h1.979v12.197
				H373.716z"/>
			<path fill="#562E87" d="M381.426,382.137c0,0.367,0,0.758,0.022,1.15c0.047,0.783,0.415,1.035,1.498,0.92v1.428
				c-0.438,0.068-0.945,0.09-1.405,0.09c-1.149,0-2.001-0.365-2.071-1.908c-0.022-0.414-0.022-0.943-0.022-1.611v-13.484h1.979
				V382.137z"/>
			<path fill="#562E87" d="M393.141,370.699c0,0.713-0.552,1.266-1.265,1.266s-1.265-0.553-1.265-1.266
				c0-0.715,0.552-1.266,1.265-1.266S393.141,369.984,393.141,370.699z M390.887,385.635v-12.197h1.979v12.197H390.887z"/>
			<path fill="#562E87" d="M399.84,380.479l-1.151,1.268v3.889h-1.979v-16.914h1.979v10.861l5.685-6.145h2.531l-5.684,5.754
				l5.753,6.443h-2.692L399.84,380.479z"/>
			<path fill="#562E87" d="M416.273,382.137c0,0.367,0,0.758,0.022,1.15c0.046,0.783,0.415,1.035,1.496,0.92v1.428
				c-0.437,0.068-0.942,0.09-1.402,0.09c-1.151,0-2.003-0.365-2.072-1.908c-0.023-0.414-0.023-0.943-0.023-1.611v-13.484h1.979
				V382.137z"/>
			<path fill="#562E87" d="M430.382,380.135h-8.837c0.185,3.221,1.703,4.303,3.497,4.303c1.588,0,2.877-0.988,3.152-2.738h2.072
				c-0.483,2.945-2.808,4.256-5.315,4.256c-3.177,0-5.547-2.07-5.547-6.373c0-3.957,2.463-6.467,5.8-6.467
				c3.359,0,5.223,2.51,5.223,6.076C430.427,379.375,430.427,379.699,430.382,380.135z M421.567,378.617h6.857
				c-0.184-2.533-1.265-3.982-3.268-3.982C423.224,374.635,421.799,376.016,421.567,378.617z"/>
			<path fill="#562E87" d="M439.015,373.322v1.496c-2.071-0.139-3.637,1.082-3.637,3.867v6.949h-1.979v-12.197h1.979v1.912
				l1.104-1.635c0.507-0.346,1.129-0.555,1.703-0.555C438.508,373.16,438.785,373.207,439.015,373.322z"/>
			<path fill="#562E87" d="M451.028,380.135h-8.837c0.185,3.221,1.703,4.303,3.498,4.303c1.587,0,2.876-0.988,3.152-2.738h2.071
				c-0.482,2.945-2.808,4.256-5.315,4.256c-3.176,0-5.546-2.07-5.546-6.373c0-3.957,2.463-6.467,5.799-6.467
				c3.359,0,5.223,2.51,5.223,6.076C451.073,379.375,451.073,379.699,451.028,380.135z M442.214,378.617h6.858
				c-0.184-2.533-1.267-3.982-3.268-3.982C443.871,374.635,442.443,376.016,442.214,378.617z"/>
			<path fill="#562E87" d="M464.356,378.775v6.859h-1.98v-6.721c0-0.621,0-1.127-0.047-1.748c-0.114-1.428-0.896-2.486-2.784-2.486
				c-1.909,0-3.521,1.428-3.521,5.592v5.363h-1.979v-12.197h1.979v2.094l0.76-1.402c1.036-0.807,1.933-1.014,3.176-1.014
				c2.669,0,4.166,1.428,4.35,3.568C464.356,377.303,464.356,377.787,464.356,378.775z"/>
			<path fill="#562E87" d="M477.107,373.646c0,1.609-0.782,3.061-2.417,4.693c-1.403,1.404-1.748,2.025-1.818,3.152h-1.978
				c0.138-1.357,0.552-2.209,1.841-3.682c1.633-1.865,2.163-2.785,2.163-4.164c0-1.59-0.99-2.648-2.646-2.648
				c-1.728,0-2.901,1.127-3.039,3.27h-2.071c0.093-2.945,2.163-4.834,5.179-4.834C475.403,369.434,477.107,371.275,477.107,373.646z
				 M473.355,384.484c0,0.852-0.62,1.471-1.472,1.471s-1.474-0.619-1.474-1.471s0.622-1.473,1.474-1.473
				S473.355,383.633,473.355,384.484z"/>
		</g>
	</g>
</g>
</svg>
