<?xml version="1.0" encoding="utf-8"?>
<!-- Generator: Adobe Illustrator 16.0.0, SVG Export Plug-In . SVG Version: 6.00 Build 0)  -->
<!DOCTYPE svg PUBLIC "-//W3C//DTD SVG 1.1//EN" "http://www.w3.org/Graphics/SVG/1.1/DTD/svg11.dtd">
<svg version="1.1" id="Layer_1" xmlns="http://www.w3.org/2000/svg" xmlns:xlink="http://www.w3.org/1999/xlink" x="0px" y="0px"
	 width="365.178px" height="256.95px" viewBox="0 0 365.178 256.95" enable-background="new 0 0 365.178 256.95"
	 xml:space="preserve">
<g>
	<g>
		<g>
			<path fill="none" stroke="#562E87" stroke-width="2" stroke-linecap="round" stroke-linejoin="round" d="M28.786,107.209
				c0,0,6.371-8.237,17.091-17.372c5.359-4.568,11.807-9.361,19.089-13.46c7.281-4.409,15.397-7.176,24.095-9.304
				c4.349-0.979,8.843-1.459,13.451-1.41s9.33,0.628,14.135,1.764c4.804,0.892,9.69,2.858,14.627,5.521
				c4.938,2.654,9.925,5.72,14.932,9.998c3.337,2.611,6.684,6.504,10.028,9.494c3.346,3.1,6.689,6.811,10.024,11.994
				c2.996,4.193,5.983,7.839,8.955,12.918"/>
			<g>
				<path fill="#562E87" d="M162.235,111.535c0.211-0.418,0.724-0.586,1.143-0.374l11.602,5.877l0.419-12.998
					c0.015-0.469,0.409-0.838,0.877-0.822c0.469,0.016,0.837,0.412,0.823,0.877l-0.463,14.332c-0.009,0.29-0.167,0.556-0.417,0.704
					s-0.559,0.158-0.817,0.027l-12.792-6.48c-0.149-0.075-0.267-0.19-0.346-0.324C162.12,112.112,162.1,111.805,162.235,111.535z"/>
			</g>
		</g>
	</g>
	<g>
		<g>
			<path fill="none" stroke="#562E87" stroke-width="2" stroke-linecap="round" stroke-linejoin="round" d="M342.229,143.614
				c-2.303,2.935-7.734,9.49-15.583,16.669c-5.313,4.86-11.733,10.006-19.041,14.511c-7.307,3.995-15.502,8.001-24.363,10.66
				c-8.861,2.765-18.39,2.463-28.364,1.24c-9.974-1.237-20.395-6.259-31.04-13.751c-10.646-8.793-21.518-17.356-32.395-34.312"/>
			<g>
				<path fill="#562E87" d="M328.673,147.856c0.16,0.441,0.648,0.668,1.09,0.508l12.222-4.445l-1.141,12.955
					c-0.041,0.468,0.305,0.881,0.772,0.922c0.467,0.04,0.88-0.309,0.922-0.772l1.257-14.284c0.025-0.289-0.099-0.572-0.329-0.749
					s-0.536-0.224-0.809-0.125l-13.476,4.901c-0.157,0.057-0.288,0.157-0.383,0.281C328.628,147.27,328.571,147.572,328.673,147.856
					z"/>
			</g>
		</g>
	</g>
	<g>
		<g>
			<path fill="none" stroke="#562E87" stroke-width="2" stroke-linecap="round" stroke-linejoin="round" d="M179.621,137.433
				c0,0-1.212,1.862-3.498,4.87"/>
			
				<path fill="none" stroke="#562E87" stroke-width="2" stroke-linecap="round" stroke-linejoin="round" stroke-dasharray="11.4895,5.266" d="
				M172.862,146.434c-19.03,23.231-75.786,78.356-138.666,3.67"/>
			<path fill="none" stroke="#562E87" stroke-width="2" stroke-linecap="round" stroke-linejoin="round" d="M32.514,148.077
				c-1.241-1.517-2.483-3.084-3.729-4.705"/>
			<g>
				<path fill="#562E87" d="M42.27,147.527c-0.16,0.441-0.648,0.668-1.089,0.508l-12.224-4.44l1.145,12.954
					c0.041,0.468-0.305,0.882-0.772,0.922c-0.467,0.041-0.88-0.309-0.922-0.771l-1.262-14.284c-0.025-0.289,0.099-0.572,0.329-0.749
					s0.536-0.224,0.809-0.125l13.478,4.896c0.157,0.057,0.288,0.156,0.383,0.28C42.315,146.94,42.372,147.243,42.27,147.527z"/>
			</g>
		</g>
	</g>
	<g>
		<g>
			
				<path fill="none" stroke="#562E87" stroke-width="2" stroke-linecap="round" stroke-linejoin="round" stroke-dasharray="12,5.5" d="
				M191.443,119.131c0,0,69.097-112.819,146.959-8.025"/>
			<g>
				<path fill="#562E87" d="M204.413,113.576c-0.205-0.421-0.715-0.596-1.137-0.391l-11.687,5.706l-0.228-13.003
					c-0.008-0.47-0.396-0.844-0.865-0.835s-0.843,0.4-0.835,0.865l0.252,14.338c0.005,0.29,0.158,0.558,0.406,0.71
					c0.248,0.151,0.556,0.166,0.817,0.039l12.886-6.291c0.15-0.074,0.27-0.187,0.351-0.319
					C204.52,114.155,204.544,113.848,204.413,113.576z"/>
			</g>
		</g>
	</g>
	<g>
		<path fill="#562E87" d="M9.957,124.887c0,3.457-2.125,5.222-4.591,5.222c-0.792,0-1.765-0.198-2.251-0.54l-0.63-0.99v1.278H0
			v-13.234h2.485v5.113l0.72-1.044c0.54-0.432,1.512-0.667,2.485-0.667C8.373,120.025,9.957,122.06,9.957,124.887z M7.382,125.049
			c0-1.962-0.937-3.277-2.413-3.277c-1.369,0-2.485,0.846-2.485,3.187v0.45c0,2.179,1.242,2.953,2.395,2.953
			C6.32,128.362,7.382,127.264,7.382,125.049z"/>
		<path fill="#562E87" d="M14.455,118.027c0,0.792-0.558,1.314-1.368,1.314c-0.811,0-1.369-0.522-1.369-1.314
			c0-0.774,0.558-1.314,1.369-1.314C13.896,116.712,14.455,117.253,14.455,118.027z M11.844,129.856v-9.579h2.485v9.579H11.844z"/>
		<path fill="#562E87" d="M25.905,124.455v5.401H23.42v-5.06c0-0.396,0-0.846-0.036-1.333c-0.072-1.008-0.63-1.692-1.836-1.692
			c-1.207,0-2.161,1.044-2.161,3.709v4.375h-2.485v-9.579h2.485v1.549l0.738-1.134c0.684-0.486,1.386-0.667,2.305-0.667
			c2.035,0,3.205,1.008,3.403,2.683C25.887,123.194,25.905,123.681,25.905,124.455z"/>
		<path fill="#562E87" d="M37.353,124.455v5.401h-2.485v-5.06c0-0.396,0-0.846-0.036-1.333c-0.072-1.008-0.63-1.692-1.836-1.692
			s-2.161,1.044-2.161,3.709v4.375H28.35v-9.579h2.485v1.549l0.738-1.134c0.684-0.486,1.386-0.667,2.305-0.667
			c2.035,0,3.205,1.008,3.403,2.683C37.334,123.194,37.353,123.681,37.353,124.455z"/>
		<path fill="#562E87" d="M48.458,125.715h-6.806c0.162,2.017,1.063,2.646,2.215,2.646c1.063,0,1.836-0.594,1.999-1.62h2.485
			c-0.486,2.232-2.287,3.367-4.538,3.367c-2.628,0-4.663-1.638-4.663-5.005c0-2.935,1.926-5.078,4.861-5.078
			s4.483,2.233,4.483,4.844C48.494,125.103,48.494,125.391,48.458,125.715z M41.724,124.095h4.213
			c-0.162-1.513-0.846-2.323-2.034-2.323C42.75,121.772,41.94,122.51,41.724,124.095z"/>
		<path fill="#562E87" d="M59.474,124.455v5.401h-2.485v-5.06c0-0.396,0-0.846-0.036-1.333c-0.072-1.008-0.63-1.692-1.836-1.692
			c-1.207,0-2.161,1.044-2.161,3.709v4.375h-2.485v-9.579h2.485v1.549l0.738-1.134c0.684-0.486,1.386-0.667,2.305-0.667
			c2.035,0,3.205,1.008,3.403,2.683C59.456,123.194,59.474,123.681,59.474,124.455z"/>
	</g>
	<g>
		<path fill="#562E87" d="M320.556,124.888c0,3.457-2.125,5.222-4.591,5.222c-0.792,0-1.765-0.198-2.25-0.54l-0.63-0.99v1.278
			h-2.485v-13.234h2.485v5.113l0.72-1.044c0.54-0.432,1.512-0.667,2.485-0.667C318.972,120.026,320.556,122.061,320.556,124.888z
			 M317.981,125.05c0-1.962-0.937-3.277-2.413-3.277c-1.369,0-2.485,0.846-2.485,3.187v0.45c0,2.179,1.242,2.953,2.395,2.953
			C316.919,128.363,317.981,127.265,317.981,125.05z"/>
		<path fill="#562E87" d="M331.284,129.857h-2.485v-1.621l-0.738,1.225c-0.702,0.468-1.386,0.648-2.305,0.648
			c-1.98,0-3.169-1.116-3.385-2.431c-0.072-0.486-0.09-0.972-0.09-1.747v-5.654h2.485v5.132c0,0.306,0.018,0.828,0.072,1.314
			c0.126,0.99,0.703,1.62,1.855,1.62c1.242,0,2.106-1.026,2.106-3.187v-4.88h2.485V129.857z"/>
		<path fill="#562E87" d="M336.448,118.028c0,0.792-0.558,1.314-1.368,1.314c-0.811,0-1.369-0.522-1.369-1.314
			c0-0.774,0.558-1.314,1.369-1.314C335.89,116.713,336.448,117.254,336.448,118.028z M333.837,129.857v-9.579h2.485v9.579H333.837z
			"/>
		<path fill="#562E87" d="M341.866,126.418c0,0.324,0,0.594,0.018,0.846c0.072,0.937,0.414,1.152,1.801,1.044v1.621
			c-0.558,0.09-1.081,0.126-1.639,0.126c-1.854,0-2.521-0.612-2.629-1.963c-0.036-0.432-0.036-0.846-0.036-1.386v-4.717h-1.405
			v-1.639h1.405v-2.359h2.485v2.359h1.98v1.639h-1.98V126.418z"/>
		<path fill="#562E87" d="M354.162,125.716h-6.806c0.162,2.017,1.063,2.646,2.215,2.646c1.062,0,1.836-0.594,1.999-1.62h2.485
			c-0.486,2.232-2.287,3.367-4.538,3.367c-2.629,0-4.663-1.638-4.663-5.005c0-2.935,1.926-5.078,4.861-5.078
			c2.935,0,4.483,2.233,4.483,4.844C354.198,125.104,354.198,125.392,354.162,125.716z M347.428,124.096h4.213
			c-0.162-1.513-0.847-2.323-2.035-2.323C348.454,121.773,347.644,122.511,347.428,124.096z"/>
		<path fill="#562E87" d="M365.178,124.456v5.401h-2.485v-5.06c0-0.396,0-0.846-0.036-1.333c-0.072-1.008-0.63-1.692-1.836-1.692
			s-2.161,1.044-2.161,3.709v4.375h-2.485v-9.579h2.485v1.549l0.738-1.134c0.684-0.486,1.386-0.667,2.305-0.667
			c2.035,0,3.205,1.008,3.403,2.683C365.16,123.195,365.178,123.682,365.178,124.456z"/>
	</g>
</g>
<g>
	<path fill="#562E87" d="M48.605,8.661c0,3.528-2.196,5.167-4.663,5.167c-0.792,0-1.801-0.234-2.287-0.63l-0.63-0.937v1.314h-1.548
		V0.342h1.548v5.222l0.72-1.026c0.54-0.45,1.548-0.756,2.521-0.756C47.057,3.781,48.605,5.87,48.605,8.661z M46.913,8.841
		c0-2.161-0.972-3.871-2.881-3.871c-1.584,0-3.007,1.008-3.007,3.745v0.522c0,2.467,1.548,3.402,2.917,3.402
		C45.617,12.64,46.913,11.344,46.913,8.841z"/>
	<path fill="#562E87" d="M58.542,9.272h-6.914c0.144,2.521,1.332,3.367,2.737,3.367c1.242,0,2.25-0.774,2.466-2.143h1.621
		c-0.378,2.305-2.197,3.331-4.159,3.331c-2.485,0-4.339-1.62-4.339-4.987c0-3.097,1.927-5.06,4.538-5.06
		c2.628,0,4.087,1.963,4.087,4.753C58.577,8.679,58.577,8.931,58.542,9.272z M51.645,8.085h5.366
		c-0.144-1.981-0.99-3.115-2.557-3.115C52.942,4.97,51.825,6.05,51.645,8.085z"/>
	<path fill="#562E87" d="M70.548,13.576h-1.836l-2.125-8.03l-2.125,8.03h-1.836l-3.043-9.543h1.782L63.58,12.1l2.089-8.066h1.926
		l2.125,8.013l2.215-8.013h1.657L70.548,13.576z"/>
	<path fill="#562E87" d="M83.219,13.576H81.67v-1.62l-0.594,1.116c-0.811,0.594-1.513,0.756-2.485,0.756
		c-1.98,0-3.133-1.116-3.349-2.431c-0.072-0.486-0.09-0.864-0.09-1.639V4.033h1.548v5.438c0,0.307,0.018,0.828,0.072,1.314
		c0.145,1.08,0.918,1.818,2.215,1.818c1.495,0,2.683-1.116,2.683-4.375V4.033h1.549V13.576z"/>
	<path fill="#562E87" d="M92.506,6.752h-1.621c-0.216-1.116-0.9-1.782-2.017-1.782c-1.08,0-1.584,0.594-1.584,1.422
		c0,0.955,0.792,1.333,2.089,1.675c2.197,0.576,3.241,1.44,3.241,3.062c0,1.8-1.53,2.7-3.547,2.7c-1.962,0-3.457-0.9-3.745-3.061
		h1.621c0.252,1.386,1.134,1.872,2.232,1.872c1.026,0,1.854-0.468,1.854-1.386c0-0.919-0.648-1.405-2.25-1.837
		c-1.71-0.468-3.079-1.17-3.079-2.845c0-1.747,1.333-2.791,3.295-2.791C91.138,3.781,92.308,5.006,92.506,6.752z"/>
	<path fill="#562E87" d="M96.609,10.785c0,0.324,0,0.486,0.018,0.738c0.072,0.918,0.45,1.116,1.656,0.973v1.134
		c-0.45,0.072-0.882,0.09-1.314,0.09c-1.188,0-1.8-0.485-1.89-1.674c-0.018-0.252-0.018-0.648-0.018-1.188V5.294h-1.279V4.105h1.279
		V1.891h1.548v2.215h1.782v1.188h-1.782V10.785z"/>
	<path fill="#562E87" d="M114.467,13.576h-1.836l-2.125-8.03l-2.125,8.03h-1.836l-3.043-9.543h1.782l2.215,8.066l2.089-8.066h1.926
		l2.125,8.013l2.215-8.013h1.657L114.467,13.576z"/>
	<path fill="#562E87" d="M127.894,8.805c0,2.683-1.494,5.023-4.735,5.023c-3.241,0-4.735-2.341-4.735-5.023
		c0-2.701,1.495-5.023,4.735-5.023C126.4,3.781,127.894,6.104,127.894,8.805z M126.202,8.805c0-2.251-1.116-3.835-3.043-3.835
		c-1.926,0-3.043,1.584-3.043,3.835c0,2.232,1.117,3.835,3.043,3.835C125.085,12.64,126.202,11.037,126.202,8.805z"/>
	<path fill="#562E87" d="M134.427,3.943v1.17c-1.621-0.107-2.845,0.847-2.845,3.025v5.438h-1.548V4.033h1.548v1.494l0.864-1.278
		c0.396-0.27,0.882-0.432,1.333-0.432C134.031,3.817,134.247,3.854,134.427,3.943z"/>
	<path fill="#562E87" d="M144.364,13.576h-1.548v-1.53l-0.72,1.026c-0.541,0.45-1.549,0.756-2.521,0.756
		c-2.791,0-4.339-2.089-4.339-4.879c0-3.529,2.197-5.168,4.664-5.168c0.792,0,1.8,0.234,2.287,0.63l0.63,0.937V0.342h1.548V13.576z
		 M142.816,8.895V8.373c0-2.467-1.549-3.403-2.917-3.403c-1.675,0-2.971,1.296-2.971,3.799c0,2.161,0.972,3.871,2.881,3.871
		C141.393,12.64,142.816,11.632,142.816,8.895z"/>
	<path fill="#562E87" d="M155.164,9.272h-6.914c0.144,2.521,1.332,3.367,2.737,3.367c1.242,0,2.25-0.774,2.467-2.143h1.62
		c-0.378,2.305-2.196,3.331-4.159,3.331c-2.485,0-4.339-1.62-4.339-4.987c0-3.097,1.927-5.06,4.538-5.06
		c2.629,0,4.087,1.963,4.087,4.753C155.2,8.679,155.2,8.931,155.164,9.272z M148.268,8.085h5.365
		c-0.144-1.981-0.99-3.115-2.557-3.115C149.564,4.97,148.448,6.05,148.268,8.085z"/>
	<path fill="#562E87" d="M165.586,8.211v5.365h-1.548V8.318c0-0.486,0-0.882-0.036-1.368c-0.09-1.116-0.702-1.944-2.179-1.944
		c-1.495,0-2.755,1.116-2.755,4.375v4.195h-1.548V4.033h1.548v1.639l0.594-1.099c0.81-0.63,1.512-0.792,2.485-0.792
		c2.088,0,3.259,1.116,3.403,2.791C165.586,7.059,165.586,7.437,165.586,8.211z"/>
</g>
<g>
	<path fill="#562E87" d="M208.838,248.865h-6.914c0.144,2.521,1.332,3.367,2.737,3.367c1.242,0,2.25-0.774,2.467-2.143h1.62
		c-0.378,2.305-2.196,3.331-4.159,3.331c-2.485,0-4.339-1.62-4.339-4.987c0-3.097,1.927-5.06,4.538-5.06
		c2.629,0,4.087,1.963,4.087,4.753C208.874,248.271,208.874,248.523,208.838,248.865z M201.942,247.678h5.365
		c-0.144-1.981-0.99-3.115-2.557-3.115C203.238,244.563,202.122,245.643,201.942,247.678z"/>
	<path fill="#562E87" d="M218.071,253.169h-1.8l-2.503-3.835l-2.485,3.835h-1.782l3.421-4.825l-3.295-4.718h1.836l2.395,3.691
		l2.395-3.691h1.783l-3.349,4.682L218.071,253.169z"/>
	<path fill="#562E87" d="M229.016,248.254c0,3.528-2.196,5.167-4.663,5.167c-0.792,0-1.801-0.234-2.287-0.63l-0.63-0.937v4.844
		h-1.548v-13.072h1.548v1.53l0.72-1.026c0.54-0.45,1.548-0.756,2.521-0.756C227.468,243.374,229.016,245.463,229.016,248.254z
		 M227.324,248.434c0-2.161-0.972-3.871-2.881-3.871c-1.584,0-3.007,1.008-3.007,3.745v0.522c0,2.467,1.548,3.402,2.917,3.402
		C226.027,252.232,227.324,250.937,227.324,248.434z"/>
	<path fill="#562E87" d="M238.952,248.865h-6.914c0.144,2.521,1.332,3.367,2.737,3.367c1.242,0,2.25-0.774,2.466-2.143h1.621
		c-0.378,2.305-2.197,3.331-4.159,3.331c-2.485,0-4.339-1.62-4.339-4.987c0-3.097,1.927-5.06,4.538-5.06
		c2.628,0,4.087,1.963,4.087,4.753C238.987,248.271,238.987,248.523,238.952,248.865z M232.055,247.678h5.366
		c-0.144-1.981-0.99-3.115-2.557-3.115C233.352,244.563,232.235,245.643,232.055,247.678z"/>
	<path fill="#562E87" d="M245.7,243.536v1.17c-1.621-0.107-2.845,0.847-2.845,3.025v5.438h-1.548v-9.543h1.548v1.494l0.864-1.278
		c0.396-0.27,0.882-0.432,1.333-0.432C245.304,243.41,245.52,243.446,245.7,243.536z"/>
	<path fill="#562E87" d="M249.282,241.483c0,0.559-0.433,0.99-0.991,0.99s-0.99-0.432-0.99-0.99c0-0.558,0.432-0.99,0.99-0.99
		S249.282,240.926,249.282,241.483z M247.517,253.169v-9.543h1.548v9.543H247.517z"/>
	<path fill="#562E87" d="M264.854,247.335v5.834h-1.548v-5.113c0-0.847-0.018-1.368-0.072-1.854
		c-0.144-1.081-0.828-1.603-1.908-1.603c-1.207,0-2.089,0.954-2.089,3.853v4.718h-1.548v-5.113c0-0.847-0.018-1.368-0.072-1.854
		c-0.144-1.081-0.828-1.603-1.909-1.603c-1.206,0-2.088,0.954-2.088,3.853v4.718h-1.548v-9.543h1.548v1.387l0.612-1.08
		c0.486-0.396,1.17-0.559,2.017-0.559c1.458,0,2.395,0.738,2.755,1.782l0.846-1.224c0.486-0.396,1.17-0.559,2.017-0.559
		c1.71,0,2.683,1.009,2.899,2.322C264.836,246.183,264.854,246.561,264.854,247.335z"/>
	<path fill="#562E87" d="M275.527,248.865h-6.914c0.144,2.521,1.332,3.367,2.737,3.367c1.242,0,2.25-0.774,2.467-2.143h1.62
		c-0.378,2.305-2.196,3.331-4.159,3.331c-2.485,0-4.339-1.62-4.339-4.987c0-3.097,1.927-5.06,4.538-5.06
		c2.629,0,4.087,1.963,4.087,4.753C275.563,248.271,275.563,248.523,275.527,248.865z M268.631,247.678h5.365
		c-0.144-1.981-0.99-3.115-2.557-3.115C269.927,244.563,268.811,245.643,268.631,247.678z"/>
	<path fill="#562E87" d="M285.949,247.804v5.365h-1.548v-5.258c0-0.486,0-0.882-0.036-1.368c-0.09-1.116-0.702-1.944-2.179-1.944
		c-1.495,0-2.755,1.116-2.755,4.375v4.195h-1.548v-9.543h1.548v1.639l0.594-1.099c0.81-0.63,1.512-0.792,2.485-0.792
		c2.088,0,3.259,1.116,3.403,2.791C285.949,246.651,285.949,247.029,285.949,247.804z"/>
	<path fill="#562E87" d="M290.681,250.378c0,0.324,0,0.486,0.018,0.738c0.072,0.918,0.45,1.116,1.656,0.973v1.134
		c-0.45,0.072-0.882,0.09-1.314,0.09c-1.188,0-1.8-0.485-1.89-1.674c-0.018-0.252-0.018-0.648-0.018-1.188v-5.563h-1.279v-1.188
		h1.279v-2.215h1.548v2.215h1.782v1.188h-1.782V250.378z"/>
	<path fill="#562E87" d="M302.293,248.865h-6.914c0.144,2.521,1.332,3.367,2.737,3.367c1.242,0,2.25-0.774,2.467-2.143h1.62
		c-0.378,2.305-2.196,3.331-4.159,3.331c-2.485,0-4.339-1.62-4.339-4.987c0-3.097,1.927-5.06,4.538-5.06
		c2.629,0,4.087,1.963,4.087,4.753C302.329,248.271,302.329,248.523,302.293,248.865z M295.397,247.678h5.365
		c-0.144-1.981-0.99-3.115-2.557-3.115C296.693,244.563,295.577,245.643,295.397,247.678z"/>
	<path fill="#562E87" d="M309.042,243.536v1.17c-1.62-0.107-2.845,0.847-2.845,3.025v5.438h-1.548v-9.543h1.548v1.494l0.864-1.278
		c0.396-0.27,0.882-0.432,1.333-0.432C308.646,243.41,308.862,243.446,309.042,243.536z"/>
	<path fill="#562E87" d="M318.439,248.865h-6.914c0.144,2.521,1.332,3.367,2.737,3.367c1.242,0,2.25-0.774,2.466-2.143h1.621
		c-0.378,2.305-2.197,3.331-4.159,3.331c-2.485,0-4.339-1.62-4.339-4.987c0-3.097,1.927-5.06,4.538-5.06
		c2.628,0,4.087,1.963,4.087,4.753C318.475,248.271,318.475,248.523,318.439,248.865z M311.542,247.678h5.366
		c-0.144-1.981-0.99-3.115-2.557-3.115C312.839,244.563,311.723,245.643,311.542,247.678z"/>
	<path fill="#562E87" d="M328.861,247.804v5.365h-1.549v-5.258c0-0.486,0-0.882-0.036-1.368c-0.09-1.116-0.702-1.944-2.179-1.944
		c-1.495,0-2.755,1.116-2.755,4.375v4.195h-1.548v-9.543h1.548v1.639l0.594-1.099c0.81-0.63,1.512-0.792,2.485-0.792
		c2.088,0,3.259,1.116,3.403,2.791C328.861,246.651,328.861,247.029,328.861,247.804z"/>
</g>
<g>
	<g>
		<path fill="#562E87" d="M230.49,3.943v1.17c-1.621-0.107-2.845,0.847-2.845,3.025v5.438h-1.548V4.033h1.548v1.494l0.864-1.278
			c0.396-0.27,0.882-0.432,1.333-0.432C230.094,3.817,230.31,3.854,230.49,3.943z"/>
		<path fill="#562E87" d="M239.887,9.272h-6.914c0.144,2.521,1.332,3.367,2.737,3.367c1.242,0,2.25-0.774,2.466-2.143h1.621
			c-0.378,2.305-2.197,3.331-4.159,3.331c-2.485,0-4.339-1.62-4.339-4.987c0-3.097,1.927-5.06,4.538-5.06
			c2.628,0,4.087,1.963,4.087,4.753C239.923,8.679,239.923,8.931,239.887,9.272z M232.991,8.085h5.366
			c-0.144-1.981-0.99-3.115-2.557-3.115C234.288,4.97,233.171,6.05,232.991,8.085z"/>
		<path fill="#562E87" d="M243.864,3.169v0.937h1.962v1.188h-1.962v8.282h-1.549V5.294h-1.026V4.105h1.026V3.313
			c0-0.36,0.018-0.828,0.054-1.152C242.531,0.774,243.467,0,244.89,0c0.396,0,0.774,0.036,1.099,0.09v1.278
			c-1.17-0.216-1.945,0.055-2.071,0.828C243.881,2.449,243.864,2.899,243.864,3.169z"/>
		<path fill="#562E87" d="M249.209,10.839c0,0.289,0,0.595,0.018,0.9c0.036,0.612,0.324,0.811,1.17,0.721v1.116
			c-0.342,0.054-0.738,0.072-1.098,0.072c-0.9,0-1.566-0.288-1.621-1.495c-0.018-0.323-0.018-0.738-0.018-1.26V0.342h1.549V10.839z"
			/>
		<path fill="#562E87" d="M260.245,9.272h-6.914c0.144,2.521,1.332,3.367,2.737,3.367c1.242,0,2.25-0.774,2.467-2.143h1.62
			c-0.378,2.305-2.196,3.331-4.159,3.331c-2.485,0-4.339-1.62-4.339-4.987c0-3.097,1.927-5.06,4.538-5.06
			c2.629,0,4.087,1.963,4.087,4.753C260.281,8.679,260.281,8.931,260.245,9.272z M253.349,8.085h5.365
			c-0.144-1.981-0.99-3.115-2.557-3.115C254.645,4.97,253.529,6.05,253.349,8.085z"/>
		<path fill="#562E87" d="M270.325,7.238h-1.621c-0.342-1.53-1.17-2.269-2.449-2.269c-1.494,0-2.755,1.17-2.755,3.745
			c0,2.772,1.225,3.925,2.647,3.925c1.26,0,2.143-0.72,2.467-2.106h1.621c-0.468,2.215-2.053,3.295-4.177,3.295
			c-2.413,0-4.25-1.513-4.25-5.005c0-3.224,2.089-5.042,4.483-5.042C268.578,3.781,270.037,5.149,270.325,7.238z"/>
		<path fill="#562E87" d="M274.247,10.785c0,0.324,0,0.486,0.018,0.738c0.072,0.918,0.45,1.116,1.656,0.973v1.134
			c-0.45,0.072-0.882,0.09-1.314,0.09c-1.188,0-1.8-0.485-1.891-1.674c-0.018-0.252-0.018-0.648-0.018-1.188V5.294h-1.278V4.105
			h1.278V1.891h1.548v2.215h1.783v1.188h-1.783V10.785z"/>
		<path fill="#562E87" d="M285.859,9.272h-6.914c0.144,2.521,1.332,3.367,2.737,3.367c1.242,0,2.25-0.774,2.466-2.143h1.621
			c-0.378,2.305-2.197,3.331-4.159,3.331c-2.485,0-4.339-1.62-4.339-4.987c0-3.097,1.927-5.06,4.538-5.06
			c2.628,0,4.087,1.963,4.087,4.753C285.895,8.679,285.895,8.931,285.859,9.272z M278.962,8.085h5.366
			c-0.144-1.981-0.99-3.115-2.557-3.115C280.259,4.97,279.143,6.05,278.962,8.085z"/>
		<path fill="#562E87" d="M292.607,3.943v1.17c-1.621-0.107-2.845,0.847-2.845,3.025v5.438h-1.548V4.033h1.548v1.494l0.864-1.278
			c0.396-0.27,0.882-0.432,1.333-0.432C292.211,3.817,292.427,3.854,292.607,3.943z"/>
		<path fill="#562E87" d="M302.005,9.272h-6.914c0.144,2.521,1.332,3.367,2.737,3.367c1.242,0,2.25-0.774,2.467-2.143h1.62
			c-0.378,2.305-2.196,3.331-4.159,3.331c-2.485,0-4.339-1.62-4.339-4.987c0-3.097,1.927-5.06,4.538-5.06
			c2.629,0,4.087,1.963,4.087,4.753C302.041,8.679,302.041,8.931,302.005,9.272z M295.109,8.085h5.365
			c-0.144-1.981-0.99-3.115-2.557-3.115C296.405,4.97,295.289,6.05,295.109,8.085z"/>
		<path fill="#562E87" d="M312.427,8.211v5.365h-1.548V8.318c0-0.486,0-0.882-0.036-1.368c-0.09-1.116-0.702-1.944-2.179-1.944
			c-1.495,0-2.755,1.116-2.755,4.375v4.195h-1.548V4.033h1.548v1.639l0.594-1.099c0.81-0.63,1.512-0.792,2.485-0.792
			c2.088,0,3.259,1.116,3.403,2.791C312.427,7.059,312.427,7.437,312.427,8.211z"/>
	</g>
</g>
<g>
	<g>
		<path fill="#562E87" d="M62.787,241.483c0,0.559-0.432,0.99-0.99,0.99c-0.558,0-0.99-0.432-0.99-0.99
			c0-0.558,0.432-0.99,0.99-0.99C62.355,240.493,62.787,240.926,62.787,241.483z M61.022,253.169v-9.543h1.548v9.543H61.022z"/>
		<path fill="#562E87" d="M73.643,247.804v5.365h-1.548v-5.258c0-0.486,0-0.882-0.036-1.368c-0.09-1.116-0.702-1.944-2.179-1.944
			c-1.495,0-2.755,1.116-2.755,4.375v4.195h-1.548v-9.543h1.548v1.639l0.594-1.099c0.81-0.63,1.512-0.792,2.485-0.792
			c2.088,0,3.259,1.116,3.403,2.791C73.643,246.651,73.643,247.029,73.643,247.804z"/>
		<path fill="#562E87" d="M78.375,250.378c0,0.324,0,0.486,0.018,0.738c0.072,0.918,0.45,1.116,1.656,0.973v1.134
			c-0.45,0.072-0.882,0.09-1.314,0.09c-1.188,0-1.8-0.485-1.89-1.674c-0.018-0.252-0.018-0.648-0.018-1.188v-5.563h-1.279v-1.188
			h1.279v-2.215h1.548v2.215h1.782v1.188h-1.782V250.378z"/>
		<path fill="#562E87" d="M89.986,248.865h-6.914c0.144,2.521,1.332,3.367,2.737,3.367c1.242,0,2.25-0.774,2.467-2.143h1.62
			c-0.378,2.305-2.196,3.331-4.159,3.331c-2.485,0-4.339-1.62-4.339-4.987c0-3.097,1.927-5.06,4.538-5.06
			c2.629,0,4.087,1.963,4.087,4.753C90.022,248.271,90.022,248.523,89.986,248.865z M83.09,247.678h5.365
			c-0.144-1.981-0.99-3.115-2.557-3.115C84.386,244.563,83.27,245.643,83.09,247.678z"/>
		<path fill="#562E87" d="M100.679,250.828c0,0.595,0,1.332-0.018,1.854c-0.09,2.791-1.783,4.268-4.537,4.268
			c-2.719,0-4.069-1.135-4.268-3.151l-0.018-0.18h1.566l0.018,0.162c0.126,1.17,1.063,1.98,2.701,1.98
			c1.89,0,2.917-1.08,2.989-2.917c0.018-0.45,0.018-0.756,0.018-1.044v-0.162l-0.72,1.026c-0.541,0.45-1.549,0.756-2.521,0.756
			c-2.791,0-4.339-2.089-4.339-4.879c0-3.529,2.197-5.168,4.664-5.168c0.792,0,1.8,0.234,2.287,0.63l0.63,0.937v-1.314h1.548
			V250.828z M99.13,248.487v-0.521c0-2.467-1.549-3.403-2.917-3.403c-1.675,0-2.971,1.296-2.971,3.799
			c0,2.161,0.972,3.871,2.881,3.871C97.708,252.232,99.13,251.225,99.13,248.487z"/>
		<path fill="#562E87" d="M108.075,243.536v1.17c-1.62-0.107-2.845,0.847-2.845,3.025v5.438h-1.548v-9.543h1.548v1.494l0.864-1.278
			c0.396-0.27,0.882-0.432,1.333-0.432C107.679,243.41,107.895,243.446,108.075,243.536z"/>
		<path fill="#562E87" d="M117.472,248.865h-6.914c0.144,2.521,1.332,3.367,2.737,3.367c1.242,0,2.25-0.774,2.466-2.143h1.621
			c-0.378,2.305-2.197,3.331-4.159,3.331c-2.485,0-4.339-1.62-4.339-4.987c0-3.097,1.927-5.06,4.538-5.06
			c2.628,0,4.087,1.963,4.087,4.753C117.508,248.271,117.508,248.523,117.472,248.865z M110.576,247.678h5.366
			c-0.144-1.981-0.99-3.115-2.557-3.115C111.873,244.563,110.756,245.643,110.576,247.678z"/>
		<path fill="#562E87" d="M124.221,243.536v1.17c-1.621-0.107-2.845,0.847-2.845,3.025v5.438h-1.548v-9.543h1.548v1.494l0.864-1.278
			c0.396-0.27,0.882-0.432,1.333-0.432C123.825,243.41,124.041,243.446,124.221,243.536z"/>
		<path fill="#562E87" d="M133.618,248.865h-6.914c0.144,2.521,1.332,3.367,2.737,3.367c1.242,0,2.25-0.774,2.467-2.143h1.62
			c-0.378,2.305-2.196,3.331-4.159,3.331c-2.485,0-4.339-1.62-4.339-4.987c0-3.097,1.927-5.06,4.538-5.06
			c2.629,0,4.087,1.963,4.087,4.753C133.654,248.271,133.654,248.523,133.618,248.865z M126.722,247.678h5.365
			c-0.144-1.981-0.99-3.115-2.557-3.115C128.018,244.563,126.902,245.643,126.722,247.678z"/>
		<path fill="#562E87" d="M144.04,247.804v5.365h-1.548v-5.258c0-0.486,0-0.882-0.036-1.368c-0.09-1.116-0.702-1.944-2.179-1.944
			c-1.495,0-2.755,1.116-2.755,4.375v4.195h-1.548v-9.543h1.548v1.639l0.594-1.099c0.81-0.63,1.512-0.792,2.485-0.792
			c2.088,0,3.259,1.116,3.403,2.791C144.04,246.651,144.04,247.029,144.04,247.804z"/>
	</g>
</g>
</svg>
