<?xml version="1.0" encoding="utf-8"?>
<!-- Generator: Adobe Illustrator 16.0.0, SVG Export Plug-In . SVG Version: 6.00 Build 0)  -->
<!DOCTYPE svg PUBLIC "-//W3C//DTD SVG 1.1//EN" "http://www.w3.org/Graphics/SVG/1.1/DTD/svg11.dtd">
<svg version="1.1" id="Layer_1" xmlns="http://www.w3.org/2000/svg" xmlns:xlink="http://www.w3.org/1999/xlink" x="0px" y="0px"
	 width="237.02px" height="383.872px" viewBox="0 0 237.02 383.872" enable-background="new 0 0 237.02 383.872"
	 xml:space="preserve">
<g>
	<g>
		<path fill="#562E87" d="M104.278,200.248h-2.651l-1.53-6.884l-1.547,6.884h-2.668l-2.873-9.043h2.618l1.598,7.088l1.479-7.055
			h2.822l1.529,7.038l1.581-7.071h2.516L104.278,200.248z"/>
		<path fill="#562E87" d="M110.926,189.08c0,0.748-0.526,1.241-1.291,1.241c-0.766,0-1.292-0.493-1.292-1.241
			c0-0.731,0.526-1.241,1.292-1.241C110.399,187.839,110.926,188.349,110.926,189.08z M108.462,200.248v-9.043h2.346v9.043H108.462z
			"/>
		<path fill="#562E87" d="M115.517,197.29c0,0.357,0,0.595,0.017,0.833c0.052,0.459,0.256,0.612,1.055,0.561v1.615
			c-0.459,0.051-0.918,0.068-1.445,0.068c-1.156,0-1.887-0.425-1.938-1.598c-0.034-0.408-0.034-0.833-0.034-1.428v-9.587h2.346
			V197.29z"/>
		<path fill="#562E87" d="M120.514,197.29c0,0.357,0,0.595,0.017,0.833c0.052,0.459,0.256,0.612,1.055,0.561v1.615
			c-0.459,0.051-0.918,0.068-1.445,0.068c-1.156,0-1.887-0.425-1.938-1.598c-0.034-0.408-0.034-0.833-0.034-1.428v-9.587h2.346
			V197.29z"/>
		<path fill="#562E87" d="M131.41,196.338h-6.426c0.153,1.904,1.003,2.499,2.091,2.499c1.003,0,1.734-0.561,1.888-1.53h2.346
			c-0.459,2.108-2.159,3.179-4.284,3.179c-2.481,0-4.402-1.547-4.402-4.725c0-2.771,1.818-4.794,4.59-4.794
			c2.771,0,4.232,2.108,4.232,4.573C131.444,195.76,131.444,196.032,131.41,196.338z M125.053,194.808h3.978
			c-0.153-1.428-0.799-2.193-1.921-2.193C126.021,192.615,125.257,193.312,125.053,194.808z"/>
		<path fill="#562E87" d="M141.814,195.148v5.1h-2.346v-4.776c0-0.374,0-0.799-0.034-1.258c-0.068-0.952-0.595-1.598-1.734-1.598
			c-1.139,0-2.039,0.986-2.039,3.502v4.13h-2.346v-9.043h2.346v1.462l0.696-1.071c0.646-0.459,1.31-0.629,2.176-0.629
			c1.921,0,3.026,0.952,3.213,2.533C141.797,193.958,141.814,194.417,141.814,195.148z"/>
	</g>
	<g>
		<path fill="#562E87" d="M100.819,5.813v5.389h-2.347V6.493c0-0.527-0.017-1.02-0.067-1.479c-0.119-0.935-0.629-1.445-1.53-1.445
			c-1.054,0-1.648,0.901-1.648,2.992v4.641h-2.329V6.493c0-0.527-0.017-1.02-0.067-1.479c-0.119-0.935-0.646-1.445-1.547-1.445
			c-1.055,0-1.632,0.901-1.632,2.992v4.641h-2.346V2.159h2.346v1.377l0.663-1.088c0.51-0.357,1.104-0.527,1.92-0.527
			c1.479,0,2.414,0.731,2.771,1.717l0.884-1.189c0.51-0.357,1.122-0.527,1.938-0.527c1.717,0,2.703,1.003,2.907,2.244
			C100.802,4.624,100.819,5.083,100.819,5.813z"/>
		<path fill="#562E87" d="M111.903,6.68c0,2.737-1.683,4.759-4.691,4.759s-4.691-2.022-4.691-4.759c0-2.754,1.683-4.76,4.691-4.76
			S111.903,3.926,111.903,6.68z M109.473,6.68c0-1.955-0.85-3.111-2.261-3.111s-2.261,1.156-2.261,3.111
			c0,1.938,0.85,3.111,2.261,3.111S109.473,8.618,109.473,6.68z"/>
		<path fill="#562E87" d="M121.865,7.292h-6.426c0.153,1.904,1.003,2.499,2.091,2.499c1.003,0,1.734-0.561,1.888-1.53h2.346
			c-0.459,2.108-2.159,3.179-4.284,3.179c-2.481,0-4.402-1.547-4.402-4.725c0-2.771,1.818-4.794,4.59-4.794
			c2.771,0,4.232,2.108,4.232,4.573C121.899,6.714,121.899,6.986,121.865,7.292z M115.508,5.762h3.978
			c-0.153-1.428-0.799-2.193-1.921-2.193C116.477,3.569,115.712,4.266,115.508,5.762z"/>
		<path fill="#562E87" d="M126.574,7.955c0,0.306,0,0.561,0.017,0.799c0.068,0.884,0.391,1.088,1.7,0.986v1.53
			c-0.527,0.085-1.021,0.119-1.547,0.119c-1.751,0-2.38-0.578-2.482-1.853c-0.033-0.408-0.033-0.799-0.033-1.309V3.773h-1.326V2.227
			h1.326V0h2.346v2.227h1.869v1.547h-1.869V7.955z"/>
		<path fill="#562E87" d="M138.185,7.292h-6.426c0.153,1.904,1.003,2.499,2.091,2.499c1.003,0,1.734-0.561,1.887-1.53h2.347
			c-0.459,2.108-2.159,3.179-4.284,3.179c-2.481,0-4.402-1.547-4.402-4.725c0-2.771,1.818-4.794,4.59-4.794
			c2.771,0,4.232,2.108,4.232,4.573C138.219,6.714,138.219,6.986,138.185,7.292z M131.827,5.762h3.978
			c-0.153-1.428-0.799-2.193-1.921-2.193C132.796,3.569,132.031,4.266,131.827,5.762z"/>
		<path fill="#562E87" d="M148.589,6.102v5.1h-2.346V6.425c0-0.374,0-0.799-0.034-1.258c-0.068-0.952-0.595-1.598-1.734-1.598
			c-1.139,0-2.039,0.986-2.039,3.502v4.13h-2.346V2.159h2.346v1.462l0.696-1.071c0.646-0.459,1.31-0.629,2.176-0.629
			c1.921,0,3.026,0.952,3.213,2.533C148.571,4.912,148.589,5.371,148.589,6.102z"/>
	</g>
	<g>
		<path fill="#562E87" d="M97.988,374.115h-2.346c-0.152-0.833-0.611-1.309-1.394-1.309c-0.697,0-1.07,0.408-1.07,0.969
			c0,0.68,0.561,1.037,2.057,1.411c1.853,0.476,2.94,1.224,2.94,2.89c0,1.819-1.648,2.703-3.723,2.703
			c-2.192,0-3.739-0.952-3.994-2.992h2.346c0.187,0.986,0.866,1.445,1.683,1.445c0.748,0,1.325-0.323,1.325-0.986
			c0-0.697-0.595-1.088-2.158-1.479c-1.683-0.425-2.839-1.156-2.839-2.72c0-1.734,1.428-2.788,3.587-2.788
			C96.561,371.259,97.785,372.466,97.988,374.115z"/>
		<path fill="#562E87" d="M109.276,375.849c0,3.264-2.006,4.929-4.334,4.929c-0.748,0-1.666-0.187-2.125-0.51l-0.595-0.935v4.539
			h-2.346v-12.375h2.346v1.377l0.68-0.986c0.51-0.408,1.428-0.629,2.346-0.629C107.781,371.259,109.276,373.18,109.276,375.849z
			 M106.846,376.002c0-1.853-0.884-3.094-2.277-3.094c-1.292,0-2.346,0.799-2.346,3.009v0.425c0,2.057,1.173,2.788,2.261,2.788
			C105.843,379.13,106.846,378.093,106.846,376.002z"/>
		<path fill="#562E87" d="M119.238,376.631h-6.426c0.153,1.904,1.003,2.499,2.091,2.499c1.003,0,1.734-0.561,1.888-1.53h2.346
			c-0.459,2.108-2.159,3.179-4.284,3.179c-2.481,0-4.402-1.547-4.402-4.725c0-2.771,1.818-4.794,4.59-4.794
			c2.771,0,4.232,2.108,4.232,4.573C119.272,376.053,119.272,376.325,119.238,376.631z M112.881,375.101h3.978
			c-0.153-1.428-0.799-2.193-1.921-2.193C113.85,372.908,113.085,373.605,112.881,375.101z"/>
		<path fill="#562E87" d="M123.421,377.583c0,0.357,0,0.595,0.017,0.833c0.052,0.459,0.256,0.612,1.055,0.561v1.615
			c-0.459,0.051-0.918,0.068-1.445,0.068c-1.156,0-1.887-0.425-1.938-1.598c-0.034-0.408-0.034-0.833-0.034-1.428v-9.587h2.346
			V377.583z"/>
		<path fill="#562E87" d="M134.317,376.631h-6.426c0.153,1.904,1.003,2.499,2.091,2.499c1.003,0,1.734-0.561,1.887-1.53h2.347
			c-0.459,2.108-2.159,3.179-4.284,3.179c-2.481,0-4.402-1.547-4.402-4.725c0-2.771,1.818-4.794,4.59-4.794
			c2.771,0,4.232,2.108,4.232,4.573C134.352,376.053,134.352,376.325,134.317,376.631z M127.96,375.101h3.978
			c-0.153-1.428-0.799-2.193-1.921-2.193C128.929,372.908,128.164,373.605,127.96,375.101z"/>
		<path fill="#562E87" d="M144.721,375.441v5.1h-2.346v-4.776c0-0.374,0-0.799-0.034-1.258c-0.068-0.952-0.595-1.598-1.734-1.598
			c-1.139,0-2.039,0.986-2.039,3.502v4.13h-2.346v-9.043h2.346v1.462l0.696-1.071c0.646-0.459,1.31-0.629,2.176-0.629
			c1.921,0,3.026,0.952,3.213,2.533C144.703,374.251,144.721,374.71,144.721,375.441z"/>
	</g>
	<path fill="none" stroke="#562E87" stroke-width="2" stroke-linecap="round" stroke-linejoin="round" stroke-miterlimit="10" d="
		M186.454,175.419c-1.716-25.788-23.821-46.189-50.845-46.189c-22.961,0-42.375,14.732-48.744,34.983
		c-3.567-1.311-7.435-2.034-11.477-2.034c-8.269,0-15.812,3.721-21.538,7.946c-5.726,4.593-9.634,11.679-10.629,19.584
		c-0.117-0.465-0.237,0.789-0.356-0.009c-7.115-0.163-13.557,1.406-18.219,7.321c-4.663,3.558-7.548,11.373-7.548,17.672
		c0,6.922,2.885,13.149,7.547,17.672c4.663,4.522,11.104,7.32,18.22,7.32c1.693,0,3.348-0.164,4.949-0.466
		c7.78,10.136,20.228,16.702,34.257,16.702c12.055,0,22.941-4.851,30.702-12.646c5.818,5.652,13.861,9.146,22.744,9.146
		c12.134,0,22.692-6.522,28.162-16.147c4.511,2.181,9.593,3.411,14.97,3.411c9.275,0,17.673-3.646,23.751-9.541
		c6.077-4.059,9.837-15.261,9.837-23.033c0-8.186-2.748-14.676-7.347-20.335C200.292,181.201,193.847,177.125,186.454,175.419z"/>
	
		<line fill="none" stroke="#562E87" stroke-width="2" stroke-linecap="round" stroke-linejoin="round" stroke-miterlimit="10" stroke-dasharray="12,5.5" x1="185.77" y1="115.067" x2="236.02" y2="11.202"/>
	
		<line fill="none" stroke="#562E87" stroke-width="2" stroke-linecap="round" stroke-linejoin="round" stroke-miterlimit="10" stroke-dasharray="12,5.5" x1="1.115" y1="380.541" x2="51.363" y2="276.675"/>
	<g>
		<g>
			
				<line fill="none" stroke="#562E87" stroke-width="2" stroke-linecap="round" stroke-linejoin="round" x1="118.092" y1="33.444" x2="118.092" y2="101.74"/>
			<g>
				<path fill="#562E87" d="M109.932,90.122c0.396-0.252,0.922-0.136,1.174,0.261l6.986,10.969l6.986-10.969
					c0.252-0.396,0.778-0.513,1.174-0.261c0.395,0.252,0.509,0.781,0.26,1.174l-7.703,12.095c-0.155,0.245-0.426,0.394-0.717,0.394
					s-0.562-0.148-0.717-0.394l-7.703-12.095c-0.09-0.142-0.133-0.3-0.133-0.456C109.539,90.559,109.678,90.284,109.932,90.122z"/>
			</g>
		</g>
	</g>
	<g>
		<g>
			
				<line fill="none" stroke="#562E87" stroke-width="2" stroke-linecap="round" stroke-linejoin="round" x1="118.092" y1="276.675" x2="118.092" y2="344.972"/>
			<g>
				<path fill="#562E87" d="M109.932,333.353c0.396-0.252,0.922-0.135,1.174,0.261l6.986,10.97l6.986-10.97
					c0.252-0.396,0.778-0.513,1.174-0.261c0.395,0.253,0.509,0.781,0.26,1.174l-7.703,12.095c-0.155,0.245-0.426,0.394-0.717,0.394
					s-0.562-0.149-0.717-0.394l-7.703-12.095c-0.09-0.141-0.133-0.299-0.133-0.456C109.539,333.791,109.678,333.516,109.932,333.353
					z"/>
			</g>
		</g>
	</g>
	
		<path fill="none" stroke="#562E87" stroke-width="2" stroke-linecap="round" stroke-linejoin="round" stroke-miterlimit="10" stroke-dasharray="12,5.5" d="
		M51.248,115.067c0,0.861-3.141-6.7-7.852-16.229c-4.711-9.927-10.991-25.496-17.272-35.704
		C19.843,48.393,13.563,36.408,8.852,27.43C4.141,17.693,1,11.202,1,11.202"/>
	
		<path fill="none" stroke="#562E87" stroke-width="2" stroke-linecap="round" stroke-linejoin="round" stroke-miterlimit="10" stroke-dasharray="12,5.5" d="
		M236.02,380.44c0-1.605-3.141-7.591-7.852-16.229c-4.711-11-10.992-20.31-17.273-35.704c-6.281-12.983-12.563-25.966-17.273-35.704
		c-4.711-9.737-7.852-16.229-7.852-16.229"/>
</g>
</svg>
