<?xml version="1.0" encoding="utf-8"?>
<!-- Generator: Adobe Illustrator 16.0.0, SVG Export Plug-In . SVG Version: 6.00 Build 0)  -->
<!DOCTYPE svg PUBLIC "-//W3C//DTD SVG 1.1//EN" "http://www.w3.org/Graphics/SVG/1.1/DTD/svg11.dtd">
<svg version="1.1" id="Layer_1" xmlns="http://www.w3.org/2000/svg" xmlns:xlink="http://www.w3.org/1999/xlink" x="0px" y="0px"
	 width="458.082px" height="458.082px" viewBox="0 0 458.082 458.082" enable-background="new 0 0 458.082 458.082"
	 xml:space="preserve">
<circle fill="none" stroke="#562E87" stroke-width="2" stroke-linecap="round" stroke-linejoin="round" stroke-miterlimit="10" cx="229.041" cy="229.042" r="228.041"/>
<path fill="none" stroke="#562E87" stroke-width="2" stroke-linecap="round" stroke-linejoin="round" stroke-miterlimit="10" d="
	M349.195,110.517c-20.211-17.87-44.375-31.15-70.324-38.545c-28.553-8.136-59.084-9.115-88.105-2.88
	c-30.176,6.484-58.459,20.823-81.611,41.227c-8.789,7.749-16.832,16.345-23.982,25.632"/>
<path fill="none" stroke="#562E87" stroke-width="2" stroke-linecap="round" stroke-linejoin="round" stroke-miterlimit="10" d="
	M409.373,226.604c-3.727-33.557-16.797-65.756-37.693-92.287"/>
<path fill="none" stroke="#562E87" stroke-width="2" stroke-linecap="round" stroke-linejoin="round" stroke-miterlimit="10" d="
	M49.57,273.46c5.17,34.301,20.322,66.966,43.285,92.976c4.457,5.05,9.197,10.274,14.186,14.371
	c4.99,6.068,10.229,5.473,15.686,12.719c5.453,2.259,11.125,7.597,16.98,10.921c11.709,6.65,24.15,12.007,37.063,15.878
	c34.992,10.489,73.146,10.191,107.922-1.036c32.139-10.375,61.246-29.903,83.014-55.725c21.098-25.024,35.238-55.755,40.479-88.065"
	/>
<path fill="none" stroke="#562E87" stroke-width="2" stroke-linecap="round" stroke-linejoin="round" stroke-miterlimit="10" d="
	M70.658,157.896c-12.168,21.698-19.682,45.949-22.166,70.689"/>
<path fill="none" stroke="#562E87" stroke-width="2" stroke-linecap="round" stroke-linejoin="round" stroke-miterlimit="10" d="
	M350.916,234.39c-7.104-26.048-22.717-49.441-43.951-66.105c-21.664-17.006-48.66-26.513-76.197-26.882
	c-28.592-0.384-56.824,9.068-79.371,26.665c-21.729,16.959-37.605,40.947-44.574,67.627"/>
<path fill="none" stroke="#562E87" stroke-width="2" stroke-linecap="round" stroke-linejoin="round" stroke-miterlimit="10" d="
	M103.99,249.905c-4.875,34.551,4.979,70.425,27.047,97.478c21.377,26.209,52.832,43.057,86.539,46.1
	c34.367,3.103,68.912-8.157,94.838-30.915c25.713-22.57,41.348-55.305,42.824-89.485c0.322-7.434-0.018-14.899-1.004-22.273"/>
<g>
	<g>
		
			<circle fill="none" stroke="#562E87" stroke-width="1.5" stroke-linecap="round" stroke-linejoin="round" stroke-dasharray="5.8806,5.8806" cx="229.041" cy="295.884" r="39.318"/>
	</g>
	<g>
		<g>
			<path fill="#562E87" d="M225.01,291.161c0,0.792-0.559,1.314-1.367,1.314c-0.811,0-1.369-0.522-1.369-1.314
				c0-0.774,0.559-1.314,1.369-1.314C224.451,289.846,225.01,290.387,225.01,291.161z M222.4,302.99v-9.579h2.484v9.579H222.4z"/>
			<path fill="#562E87" d="M229.941,300.073v2.917h-2.484v-13.234h2.484v8.03l3.854-4.375h2.988l-4.248,4.448l4.303,5.131h-3.133
				l-2.971-3.781L229.941,300.073z"/>
		</g>
	</g>
</g>
<g>
	<path fill="#562E87" d="M205.947,187.397c0,0.324,0,0.594,0.018,0.846c0.072,0.937,0.414,1.152,1.801,1.044v1.621
		c-0.559,0.09-1.08,0.126-1.639,0.126c-1.855,0-2.521-0.612-2.629-1.963c-0.037-0.432-0.037-0.846-0.037-1.386v-4.717h-1.404v-1.639
		h1.404v-2.359h2.486v2.359h1.98v1.639h-1.98V187.397z"/>
	<path fill="#562E87" d="M218.242,186.695h-6.805c0.162,2.017,1.061,2.646,2.213,2.646c1.063,0,1.838-0.594,2-1.62h2.484
		c-0.486,2.232-2.287,3.367-4.537,3.367c-2.629,0-4.664-1.638-4.664-5.005c0-2.935,1.928-5.078,4.861-5.078
		c2.936,0,4.484,2.233,4.484,4.844C218.279,186.083,218.279,186.371,218.242,186.695z M211.508,185.074h4.215
		c-0.162-1.513-0.848-2.323-2.035-2.323C212.535,182.751,211.725,183.49,211.508,185.074z"/>
	<path fill="#562E87" d="M225.639,189.432l-0.467,1.026c-0.666,0.45-1.477,0.63-2.377,0.63c-1.656,0-3.08-0.972-3.08-2.791
		c0-2.107,1.801-3.295,5.277-3.295h0.611v-0.198c0-0.288,0-0.576-0.035-0.9c-0.072-0.666-0.506-1.152-1.477-1.152
		c-0.99,0-1.531,0.576-1.604,1.621l-2.412,0.018c0.072-2.161,1.818-3.385,4.105-3.385c2.682,0,3.691,1.17,3.834,2.827
		c0.037,0.45,0.055,0.954,0.055,1.476v3.097c0,0.72,0.035,1.368,0.18,2.431h-2.43L225.639,189.432z M225.604,187.307v-0.774
		c-1.98-0.144-3.313,0.306-3.313,1.566c0,0.846,0.576,1.242,1.457,1.242C224.758,189.341,225.604,188.639,225.604,187.307z"/>
	<path fill="#562E87" d="M244.955,185.128v5.708h-2.484v-4.987c0-0.559-0.018-1.081-0.072-1.566
		c-0.125-0.991-0.666-1.531-1.619-1.531c-1.117,0-1.748,0.955-1.748,3.169v4.916h-2.467v-4.987c0-0.559-0.018-1.081-0.07-1.566
		c-0.127-0.991-0.686-1.531-1.639-1.531c-1.117,0-1.729,0.955-1.729,3.169v4.916h-2.484v-9.579h2.484v1.458l0.701-1.152
		c0.541-0.378,1.17-0.558,2.035-0.558c1.566,0,2.557,0.774,2.936,1.819l0.936-1.261c0.541-0.378,1.188-0.558,2.053-0.558
		c1.818,0,2.863,1.063,3.078,2.377C244.938,183.868,244.955,184.354,244.955,185.128z"/>
	<path fill="#562E87" d="M249.938,191.376l4.52-13.504h1.547l-4.52,13.504H249.938z"/>
	<path fill="#562E87" d="M199.043,213.432l-0.467,1.026c-0.666,0.45-1.477,0.63-2.377,0.63c-1.656,0-3.08-0.972-3.08-2.791
		c0-2.107,1.801-3.295,5.277-3.295h0.611v-0.198c0-0.288,0-0.576-0.035-0.9c-0.072-0.666-0.506-1.152-1.477-1.152
		c-0.99,0-1.531,0.576-1.604,1.621l-2.412,0.018c0.072-2.161,1.818-3.385,4.105-3.385c2.682,0,3.691,1.17,3.834,2.827
		c0.037,0.45,0.055,0.954,0.055,1.476v3.097c0,0.72,0.035,1.368,0.18,2.431h-2.43L199.043,213.432z M199.008,211.307v-0.774
		c-1.98-0.144-3.313,0.306-3.313,1.566c0,0.846,0.576,1.242,1.457,1.242C198.162,213.341,199.008,212.639,199.008,211.307z"/>
	<path fill="#562E87" d="M206.783,204.861v0.468h1.963v1.639h-1.963v7.868h-2.484v-7.868h-1.027v-1.639h1.027v-0.396
		c0-0.324,0-0.774,0.035-1.099c0.145-1.62,1.207-2.575,3.475-2.575c0.396,0,0.775,0.054,1.1,0.126v1.729
		c-1.172-0.216-2,0.108-2.09,0.918C206.783,204.285,206.783,204.609,206.783,204.861z"/>
	<path fill="#562E87" d="M219.709,214.836h-2.484v-1.477l-0.721,1.063c-0.539,0.414-1.512,0.666-2.484,0.666
		c-2.684,0-4.268-2.035-4.268-4.861c0-3.475,2.125-5.222,4.592-5.222c0.793,0,1.764,0.198,2.25,0.54l0.631,0.991v-4.934h2.484
		V214.836z M217.225,210.154v-0.468c0-2.161-1.242-2.935-2.395-2.935c-1.441,0-2.504,1.098-2.504,3.313
		c0,1.963,0.938,3.277,2.414,3.277C216.107,213.341,217.225,212.495,217.225,210.154z"/>
	<path fill="#562E87" d="M230.941,210.695h-6.807c0.162,2.017,1.063,2.646,2.215,2.646c1.063,0,1.836-0.594,1.998-1.62h2.484
		c-0.484,2.232-2.285,3.367-4.537,3.367c-2.629,0-4.662-1.638-4.662-5.005c0-2.935,1.926-5.078,4.861-5.078
		c2.934,0,4.482,2.233,4.482,4.844C230.977,210.083,230.977,210.371,230.941,210.695z M224.207,209.074h4.213
		c-0.162-1.513-0.846-2.323-2.035-2.323C225.232,206.751,224.424,207.49,224.207,209.074z"/>
	<path fill="#562E87" d="M235.367,211.703c0,0.378,0,0.63,0.018,0.882c0.055,0.486,0.27,0.648,1.117,0.594v1.71
		c-0.486,0.054-0.973,0.072-1.531,0.072c-1.225,0-1.998-0.45-2.053-1.692c-0.035-0.432-0.035-0.882-0.035-1.513v-10.155h2.484
		V211.703z"/>
	<path fill="#562E87" d="M240.855,203.006c0,0.792-0.559,1.314-1.367,1.314c-0.811,0-1.369-0.522-1.369-1.314
		c0-0.774,0.559-1.314,1.369-1.314C240.297,201.692,240.855,202.232,240.855,203.006z M238.246,214.836v-9.579h2.484v9.579H238.246z
		"/>
	<path fill="#562E87" d="M252.307,209.435v5.401h-2.484v-5.06c0-0.396,0-0.846-0.037-1.333c-0.072-1.008-0.629-1.692-1.836-1.692
		s-2.16,1.044-2.16,3.709v4.375h-2.484v-9.579h2.484v1.549l0.738-1.134c0.684-0.486,1.387-0.667,2.305-0.667
		c2.033,0,3.205,1.008,3.402,2.683C252.289,208.174,252.307,208.66,252.307,209.435z"/>
	<path fill="#562E87" d="M264.061,212.441c0,0.594,0,1.332-0.02,1.854c-0.107,2.989-2.053,4.429-5.076,4.429
		c-2.809,0-4.375-1.17-4.592-3.277l-0.018-0.18h2.412l0.018,0.162c0.109,0.882,0.938,1.44,2.215,1.44
		c1.531,0,2.467-0.774,2.557-2.305c0.018-0.36,0.018-0.756,0.018-1.17v-0.234l-0.719,1.062c-0.541,0.414-1.404,0.667-2.377,0.667
		c-2.701,0-4.375-1.927-4.375-4.736c0-3.475,2.123-5.149,4.59-5.149c0.793,0,1.766,0.198,2.252,0.54l0.629,0.991v-1.279h2.486
		V212.441z M261.574,209.957v-0.27c0-2.161-1.242-2.935-2.395-2.935c-1.439,0-2.502,0.99-2.502,3.187
		c0,1.962,0.936,3.205,2.412,3.205C260.459,213.144,261.574,212.297,261.574,209.957z"/>
</g>
<g>
	<path fill="#562E87" d="M189.9,109.041c0,2.899-1.781,5.042-4.969,5.042s-4.969-2.143-4.969-5.042c0-2.917,1.781-5.042,4.969-5.042
		S189.9,106.124,189.9,109.041z M187.326,109.041c0-2.07-0.9-3.295-2.395-3.295s-2.395,1.225-2.395,3.295
		c0,2.053,0.9,3.295,2.395,3.295S187.326,111.094,187.326,109.041z"/>
	<path fill="#562E87" d="M197.369,104.09v1.999c-2.07-0.144-3.096,0.774-3.096,3.349v4.393h-2.484v-9.579h2.484v1.746l0.756-1.332
		c0.469-0.432,1.098-0.648,1.639-0.648C196.955,104.018,197.154,104.036,197.369,104.09z"/>
	<path fill="#562E87" d="M208.117,111.436c0,0.594,0,1.332-0.018,1.854c-0.107,2.989-2.053,4.429-5.078,4.429
		c-2.809,0-4.375-1.17-4.592-3.277l-0.018-0.18h2.414l0.018,0.162c0.107,0.882,0.936,1.44,2.215,1.44
		c1.529,0,2.467-0.774,2.557-2.305c0.018-0.36,0.018-0.756,0.018-1.17v-0.234l-0.721,1.062c-0.539,0.414-1.404,0.667-2.377,0.667
		c-2.701,0-4.375-1.927-4.375-4.735c0-3.475,2.125-5.15,4.592-5.15c0.793,0,1.764,0.198,2.25,0.541l0.631,0.99v-1.278h2.484V111.436
		z M205.633,108.951v-0.27c0-2.161-1.242-2.935-2.395-2.935c-1.441,0-2.504,0.99-2.504,3.187c0,1.962,0.938,3.205,2.414,3.205
		C204.516,112.138,205.633,111.292,205.633,108.951z"/>
	<path fill="#562E87" d="M216.07,112.426l-0.467,1.026c-0.666,0.45-1.477,0.63-2.377,0.63c-1.656,0-3.08-0.972-3.08-2.791
		c0-2.107,1.801-3.295,5.277-3.295h0.611v-0.198c0-0.288,0-0.576-0.035-0.9c-0.072-0.666-0.506-1.152-1.477-1.152
		c-0.99,0-1.531,0.576-1.604,1.621l-2.412,0.018c0.072-2.161,1.818-3.385,4.105-3.385c2.682,0,3.691,1.17,3.834,2.827
		c0.037,0.45,0.055,0.954,0.055,1.476v3.097c0,0.72,0.035,1.368,0.18,2.431h-2.43L216.07,112.426z M216.035,110.302v-0.774
		c-1.98-0.144-3.313,0.306-3.313,1.566c0,0.846,0.576,1.242,1.457,1.242C215.189,112.336,216.035,111.634,216.035,110.302z"/>
	<path fill="#562E87" d="M230.076,108.429v5.402h-2.484v-5.06c0-0.396,0-0.846-0.035-1.333c-0.072-1.008-0.631-1.692-1.838-1.692
		c-1.205,0-2.16,1.044-2.16,3.709v4.375h-2.484v-9.579h2.484v1.548l0.738-1.134c0.684-0.486,1.387-0.667,2.305-0.667
		c2.035,0,3.205,1.008,3.404,2.683C230.059,107.168,230.076,107.655,230.076,108.429z"/>
	<path fill="#562E87" d="M235.133,102.001c0,0.792-0.559,1.314-1.369,1.314s-1.369-0.522-1.369-1.314
		c0-0.774,0.559-1.314,1.369-1.314S235.133,101.227,235.133,102.001z M232.521,113.831v-9.579h2.484v9.579H232.521z"/>
	<path fill="#562E87" d="M244.799,107.024h-2.484c-0.162-0.882-0.648-1.386-1.477-1.386c-0.738,0-1.135,0.432-1.135,1.026
		c0,0.72,0.596,1.098,2.18,1.494c1.963,0.504,3.115,1.296,3.115,3.061c0,1.927-1.748,2.863-3.943,2.863
		c-2.322,0-3.961-1.008-4.232-3.169h2.486c0.197,1.044,0.918,1.531,1.781,1.531c0.793,0,1.404-0.342,1.404-1.044
		c0-0.738-0.629-1.152-2.287-1.566c-1.781-0.45-3.006-1.225-3.006-2.881c0-1.836,1.512-2.953,3.799-2.953
		S244.584,105.278,244.799,107.024z"/>
	<path fill="#562E87" d="M252.178,112.426l-0.467,1.026c-0.666,0.45-1.477,0.63-2.377,0.63c-1.656,0-3.08-0.972-3.08-2.791
		c0-2.107,1.801-3.295,5.277-3.295h0.611v-0.198c0-0.288,0-0.576-0.035-0.9c-0.072-0.666-0.506-1.152-1.477-1.152
		c-0.99,0-1.531,0.576-1.604,1.621l-2.412,0.018c0.072-2.161,1.818-3.385,4.105-3.385c2.682,0,3.691,1.17,3.834,2.827
		c0.037,0.45,0.055,0.954,0.055,1.476v3.097c0,0.72,0.035,1.368,0.18,2.431h-2.43L252.178,112.426z M252.143,110.302v-0.774
		c-1.98-0.144-3.313,0.306-3.313,1.566c0,0.846,0.576,1.242,1.457,1.242C251.297,112.336,252.143,111.634,252.143,110.302z"/>
	<path fill="#562E87" d="M260.152,110.392c0,0.324,0,0.594,0.018,0.846c0.072,0.936,0.414,1.152,1.801,1.044v1.62
		c-0.559,0.09-1.08,0.126-1.639,0.126c-1.854,0-2.52-0.612-2.629-1.963c-0.035-0.432-0.035-0.846-0.035-1.386v-4.717h-1.404v-1.639
		h1.404v-2.359h2.484v2.359h1.98v1.639h-1.98V110.392z"/>
	<path fill="#562E87" d="M266.561,102.001c0,0.792-0.559,1.314-1.369,1.314s-1.369-0.522-1.369-1.314
		c0-0.774,0.559-1.314,1.369-1.314S266.561,101.227,266.561,102.001z M263.949,113.831v-9.579h2.484v9.579H263.949z"/>
	<path fill="#562E87" d="M277.668,109.689h-6.807c0.162,2.017,1.063,2.646,2.215,2.646c1.063,0,1.836-0.594,1.998-1.62h2.484
		c-0.484,2.232-2.285,3.367-4.537,3.367c-2.629,0-4.662-1.638-4.662-5.005c0-2.935,1.926-5.078,4.861-5.078
		c2.934,0,4.482,2.233,4.482,4.844C277.703,109.077,277.703,109.365,277.668,109.689z M270.934,108.069h4.213
		c-0.162-1.512-0.846-2.323-2.035-2.323C271.959,105.746,271.15,106.484,270.934,108.069z"/>
</g>
<g>
	<path fill="#562E87" d="M184.754,39.428v5.708h-2.484v-4.987c0-0.559-0.018-1.081-0.072-1.566
		c-0.125-0.991-0.666-1.531-1.619-1.531c-1.117,0-1.748,0.955-1.748,3.169v4.916h-2.467v-4.987c0-0.559-0.018-1.081-0.07-1.566
		c-0.127-0.991-0.686-1.531-1.639-1.531c-1.117,0-1.729,0.955-1.729,3.169v4.916h-2.484v-9.579h2.484v1.458l0.701-1.152
		c0.541-0.378,1.17-0.558,2.035-0.558c1.566,0,2.557,0.774,2.936,1.819l0.936-1.261c0.541-0.378,1.188-0.558,2.053-0.558
		c1.818,0,2.863,1.063,3.078,2.377C184.736,38.167,184.754,38.654,184.754,39.428z"/>
	<path fill="#562E87" d="M192.582,43.731l-0.469,1.026c-0.666,0.45-1.477,0.63-2.377,0.63c-1.656,0-3.078-0.972-3.078-2.791
		c0-2.107,1.801-3.295,5.275-3.295h0.611v-0.198c0-0.288,0-0.576-0.035-0.9c-0.072-0.666-0.504-1.152-1.477-1.152
		c-0.99,0-1.529,0.576-1.602,1.621l-2.414,0.018c0.072-2.161,1.818-3.385,4.105-3.385c2.684,0,3.691,1.17,3.836,2.827
		c0.035,0.45,0.053,0.954,0.053,1.476v3.097c0,0.72,0.037,1.368,0.182,2.431h-2.432L192.582,43.731z M192.545,41.606v-0.774
		c-1.98-0.144-3.313,0.306-3.313,1.566c0,0.846,0.576,1.242,1.459,1.242C191.699,43.641,192.545,42.939,192.545,41.606z"/>
	<path fill="#562E87" d="M202.967,43.731l-0.467,1.026c-0.666,0.45-1.477,0.63-2.377,0.63c-1.656,0-3.08-0.972-3.08-2.791
		c0-2.107,1.801-3.295,5.277-3.295h0.611v-0.198c0-0.288,0-0.576-0.035-0.9c-0.072-0.666-0.506-1.152-1.477-1.152
		c-0.99,0-1.531,0.576-1.604,1.621l-2.412,0.018c0.072-2.161,1.818-3.385,4.105-3.385c2.682,0,3.691,1.17,3.834,2.827
		c0.037,0.45,0.055,0.954,0.055,1.476v3.097c0,0.72,0.035,1.368,0.18,2.431h-2.43L202.967,43.731z M202.932,41.606v-0.774
		c-1.98-0.144-3.313,0.306-3.313,1.566c0,0.846,0.576,1.242,1.457,1.242C202.086,43.641,202.932,42.939,202.932,41.606z"/>
	<path fill="#562E87" d="M210.941,41.697c0,0.324,0,0.594,0.018,0.846c0.072,0.937,0.414,1.152,1.801,1.044v1.621
		c-0.559,0.09-1.08,0.126-1.639,0.126c-1.855,0-2.521-0.612-2.629-1.963c-0.037-0.432-0.037-0.846-0.037-1.386v-4.717h-1.404v-1.639
		h1.404V33.27h2.486v2.359h1.98v1.639h-1.98V41.697z"/>
	<path fill="#562E87" d="M221.959,38.33h-2.484c-0.162-0.882-0.648-1.386-1.477-1.386c-0.738,0-1.135,0.432-1.135,1.026
		c0,0.72,0.594,1.098,2.178,1.494c1.963,0.504,3.115,1.296,3.115,3.061c0,1.927-1.746,2.863-3.943,2.863
		c-2.322,0-3.961-1.008-4.23-3.169h2.484c0.197,1.044,0.918,1.531,1.783,1.531c0.791,0,1.404-0.342,1.404-1.044
		c0-0.738-0.631-1.152-2.287-1.566c-1.783-0.45-3.008-1.225-3.008-2.881c0-1.837,1.514-2.953,3.801-2.953
		C220.445,35.305,221.742,36.583,221.959,38.33z"/>
	<path fill="#562E87" d="M232.471,39.014h-2.449c-0.234-1.386-0.953-1.962-1.98-1.962c-1.26,0-2.16,1.026-2.16,3.205
		c0,2.376,0.9,3.385,2.143,3.385c0.973,0,1.693-0.612,1.945-1.818h2.484c-0.414,2.359-2.18,3.565-4.574,3.565
		c-2.611,0-4.572-1.656-4.572-4.969c0-3.277,2.16-5.114,4.789-5.114C230.688,35.305,232.291,36.889,232.471,39.014z"/>
	<path fill="#562E87" d="M243.324,39.734v5.401h-2.484v-5.06c0-0.396,0-0.846-0.037-1.333c-0.072-1.008-0.629-1.692-1.836-1.692
		c-1.207,0.018-2.16,1.044-2.16,3.709v4.375h-2.484V31.812h2.484v5.294l0.738-1.134c0.684-0.486,1.387-0.667,2.305-0.667
		c2.033,0,3.205,1.008,3.402,2.683C243.307,38.474,243.324,38.96,243.324,39.734z"/>
	<path fill="#562E87" d="M251.152,43.731l-0.467,1.026c-0.666,0.45-1.477,0.63-2.377,0.63c-1.656,0-3.08-0.972-3.08-2.791
		c0-2.107,1.801-3.295,5.277-3.295h0.611v-0.198c0-0.288,0-0.576-0.035-0.9c-0.072-0.666-0.506-1.152-1.477-1.152
		c-0.99,0-1.531,0.576-1.604,1.621l-2.412,0.018c0.072-2.161,1.818-3.385,4.105-3.385c2.682,0,3.691,1.17,3.834,2.827
		c0.037,0.45,0.055,0.954,0.055,1.476v3.097c0,0.72,0.035,1.368,0.18,2.431h-2.43L251.152,43.731z M251.117,41.606v-0.774
		c-1.98-0.144-3.313,0.306-3.313,1.566c0,0.846,0.576,1.242,1.457,1.242C250.271,43.641,251.117,42.939,251.117,41.606z"/>
	<path fill="#562E87" d="M266.111,40.166c0,3.457-2.123,5.222-4.59,5.222c-0.793,0-1.766-0.198-2.252-0.54l-0.629-0.99v4.808h-2.484
		V35.557h2.484v1.458l0.719-1.044c0.541-0.432,1.514-0.667,2.486-0.667C264.527,35.305,266.111,37.339,266.111,40.166z
		 M263.537,40.328c0-1.962-0.936-3.277-2.412-3.277c-1.369,0-2.484,0.846-2.484,3.187v0.45c0,2.179,1.242,2.953,2.395,2.953
		C262.475,43.641,263.537,42.543,263.537,40.328z"/>
	<path fill="#562E87" d="M277.955,40.166c0,3.457-2.123,5.222-4.59,5.222c-0.793,0-1.766-0.198-2.252-0.54l-0.629-0.99v4.808H268
		V35.557h2.484v1.458l0.719-1.044c0.541-0.432,1.514-0.667,2.486-0.667C276.371,35.305,277.955,37.339,277.955,40.166z
		 M275.381,40.328c0-1.962-0.936-3.277-2.412-3.277c-1.369,0-2.484,0.846-2.484,3.187v0.45c0,2.179,1.242,2.953,2.395,2.953
		C274.318,43.641,275.381,42.543,275.381,40.328z"/>
	<path fill="#562E87" d="M282.453,33.306c0,0.792-0.559,1.314-1.367,1.314c-0.811,0-1.369-0.522-1.369-1.314
		c0-0.774,0.559-1.314,1.369-1.314C281.895,31.992,282.453,32.532,282.453,33.306z M279.844,45.136v-9.579h2.484v9.579H279.844z"/>
	<path fill="#562E87" d="M287.313,45.352c0,0.36-0.018,0.829-0.035,1.152c-0.127,1.513-0.99,2.413-3.188,2.413
		c-0.342,0-0.648-0.018-0.918-0.054v-1.765c1.08,0.09,1.549-0.144,1.639-0.882c0.018-0.252,0.035-0.558,0.035-0.828v-9.831h2.467
		V45.352z M287.439,33.306c0,0.864-0.469,1.314-1.352,1.314c-0.898,0-1.367-0.45-1.367-1.314s0.469-1.314,1.367-1.314
		C286.971,31.992,287.439,32.442,287.439,33.306z"/>
</g>
<g>
	<g>
		<path fill="#562E87" d="M33.045,249.695h-6.914c0.143,2.521,1.332,3.367,2.736,3.367c1.242,0,2.25-0.774,2.467-2.143h1.621
			c-0.379,2.305-2.197,3.331-4.16,3.331c-2.484,0-4.34-1.62-4.34-4.987c0-3.097,1.928-5.06,4.537-5.06
			c2.629,0,4.088,1.962,4.088,4.753C33.08,249.101,33.08,249.353,33.045,249.695z M26.148,248.506h5.365
			c-0.145-1.98-0.99-3.115-2.557-3.115C27.445,245.392,26.328,246.472,26.148,248.506z"/>
		<path fill="#562E87" d="M37.021,243.591v0.937h1.961v1.188h-1.961v8.282h-1.549v-8.282h-1.027v-1.188h1.027v-0.792
			c0-0.36,0.018-0.828,0.053-1.152c0.162-1.386,1.1-2.161,2.521-2.161c0.396,0,0.773,0.036,1.098,0.09v1.278
			c-1.17-0.216-1.943,0.054-2.07,0.828C37.039,242.871,37.021,243.321,37.021,243.591z"/>
		<path fill="#562E87" d="M42.51,243.591v0.937h1.963v1.188H42.51v8.282h-1.549v-8.282h-1.025v-1.188h1.025v-0.792
			c0-0.36,0.02-0.828,0.055-1.152c0.162-1.386,1.098-2.161,2.521-2.161c0.395,0,0.773,0.036,1.098,0.09v1.278
			c-1.17-0.216-1.945,0.054-2.07,0.828C42.527,242.871,42.51,243.321,42.51,243.591z"/>
		<path fill="#562E87" d="M54.176,249.695h-6.914c0.145,2.521,1.332,3.367,2.736,3.367c1.242,0,2.252-0.774,2.467-2.143h1.621
			c-0.379,2.305-2.197,3.331-4.158,3.331c-2.486,0-4.34-1.62-4.34-4.987c0-3.097,1.926-5.06,4.537-5.06
			c2.629,0,4.088,1.962,4.088,4.753C54.213,249.101,54.213,249.353,54.176,249.695z M47.279,248.506h5.367
			c-0.145-1.98-0.99-3.115-2.559-3.115C48.576,245.392,47.461,246.472,47.279,248.506z"/>
		<path fill="#562E87" d="M64.256,247.66h-1.621c-0.342-1.53-1.17-2.269-2.449-2.269c-1.494,0-2.754,1.17-2.754,3.745
			c0,2.772,1.225,3.925,2.646,3.925c1.26,0,2.143-0.72,2.467-2.106h1.621c-0.469,2.215-2.053,3.295-4.178,3.295
			c-2.412,0-4.25-1.512-4.25-5.005c0-3.223,2.09-5.042,4.484-5.042C62.51,244.203,63.967,245.571,64.256,247.66z"/>
		<path fill="#562E87" d="M68.178,251.207c0,0.324,0,0.486,0.018,0.738c0.072,0.918,0.451,1.116,1.656,0.973v1.134
			c-0.449,0.072-0.881,0.09-1.314,0.09c-1.188,0-1.801-0.486-1.891-1.674c-0.018-0.252-0.018-0.648-0.018-1.188v-5.563h-1.277
			v-1.188h1.277v-2.215h1.549v2.215h1.783v1.188h-1.783V251.207z"/>
	</g>
</g>
<g>
	<g>
		<path fill="#562E87" d="M380.752,242.313c0,0.558-0.432,0.99-0.99,0.99c-0.557,0-0.99-0.432-0.99-0.99s0.434-0.99,0.99-0.99
			C380.32,241.322,380.752,241.754,380.752,242.313z M378.988,253.998v-9.543h1.549v9.543H378.988z"/>
		<path fill="#562E87" d="M396.326,248.164v5.834h-1.549v-5.113c0-0.847-0.018-1.369-0.072-1.855
			c-0.145-1.08-0.828-1.602-1.908-1.602c-1.207,0-2.09,0.954-2.09,3.853v4.717h-1.547v-5.113c0-0.847-0.02-1.369-0.072-1.855
			c-0.145-1.08-0.828-1.602-1.908-1.602c-1.207,0-2.09,0.954-2.09,3.853v4.717h-1.549v-9.543h1.549v1.387l0.613-1.081
			c0.486-0.396,1.17-0.558,2.016-0.558c1.459,0,2.395,0.738,2.756,1.783l0.846-1.225c0.486-0.396,1.17-0.558,2.016-0.558
			c1.711,0,2.684,1.008,2.9,2.323C396.309,247.012,396.326,247.39,396.326,248.164z"/>
		<path fill="#562E87" d="M408.33,249.083c0,3.529-2.195,5.167-4.662,5.167c-0.793,0-1.801-0.234-2.287-0.63l-0.631-0.937v4.844
			h-1.549v-13.072h1.549v1.531l0.721-1.026c0.541-0.45,1.549-0.756,2.521-0.756C406.783,244.203,408.33,246.292,408.33,249.083z
			 M406.639,249.263c0-2.161-0.973-3.871-2.881-3.871c-1.584,0-3.008,1.008-3.008,3.745v0.522c0,2.467,1.549,3.403,2.918,3.403
			C405.342,253.062,406.639,251.766,406.639,249.263z"/>
		<path fill="#562E87" d="M415.781,252.63l-0.521,1.026c-0.648,0.45-1.477,0.594-2.395,0.594c-1.729,0-3.08-0.954-3.08-2.719
			c0-2.161,1.621-3.277,5.365-3.277h0.613v-0.252c0-0.415,0-0.792-0.037-1.152c-0.072-0.882-0.576-1.458-1.854-1.458
			c-1.297,0-1.945,0.702-2.053,2.017h-1.621c0.145-2.035,1.566-3.205,3.674-3.205c2.268,0,3.223,0.954,3.385,2.521
			c0.035,0.378,0.055,0.847,0.055,1.261v3.583c0,0.72,0.035,1.368,0.18,2.431h-1.549L415.781,252.63z M415.764,250.379v-0.972
			c-2.629-0.198-4.285,0.36-4.285,1.999c0,1.152,0.738,1.656,1.908,1.656C414.826,253.062,415.764,252.107,415.764,250.379z"/>
		<path fill="#562E87" d="M428.021,247.66h-1.619c-0.344-1.53-1.172-2.269-2.449-2.269c-1.494,0-2.756,1.17-2.756,3.745
			c0,2.772,1.225,3.925,2.648,3.925c1.26,0,2.143-0.72,2.465-2.106h1.621c-0.469,2.215-2.053,3.295-4.178,3.295
			c-2.412,0-4.248-1.512-4.248-5.005c0-3.223,2.088-5.042,4.482-5.042C426.275,244.203,427.734,245.571,428.021,247.66z"/>
		<path fill="#562E87" d="M431.943,251.207c0,0.324,0,0.486,0.02,0.738c0.072,0.918,0.449,1.116,1.656,0.973v1.134
			c-0.451,0.072-0.883,0.09-1.314,0.09c-1.189,0-1.801-0.486-1.891-1.674c-0.018-0.252-0.018-0.648-0.018-1.188v-5.563h-1.279
			v-1.188h1.279v-2.215h1.547v2.215h1.783v1.188h-1.783V251.207z"/>
	</g>
</g>
<g>
	<g>
		<path fill="none" stroke="#562E87" stroke-width="1.5" stroke-linecap="round" stroke-linejoin="round" d="M138.828,53.047
			c0,0-0.865,0.613-2.393,1.803"/>
		
			<path fill="none" stroke="#562E87" stroke-width="1.5" stroke-linecap="round" stroke-linejoin="round" stroke-dasharray="6.1164,6.1164" d="
			M131.696,58.711C103.62,82.526,9.212,178.533,155.273,291.146"/>
		<path fill="none" stroke="#562E87" stroke-width="1.5" stroke-linecap="round" stroke-linejoin="round" d="M157.702,293.004
			c0.792,0.601,1.591,1.202,2.397,1.804"/>
		<g>
			<path fill="#562E87" d="M147.614,294.14c0.039-0.412,0.406-0.714,0.818-0.675l11.423,1.099l-3.836-10.815
				c-0.138-0.391,0.066-0.82,0.456-0.958c0.391-0.138,0.82,0.07,0.958,0.456l4.229,11.925c0.085,0.242,0.042,0.51-0.116,0.712
				s-0.408,0.31-0.663,0.285l-12.595-1.21c-0.146-0.014-0.28-0.07-0.389-0.155C147.705,294.651,147.59,294.405,147.614,294.14z"/>
		</g>
	</g>
</g>
<g>
	<g>
		<path fill="none" stroke="#562E87" stroke-width="1.5" stroke-linecap="round" stroke-linejoin="round" d="M288.068,295.737
			c0,0,0.969-0.43,2.701-1.295"/>
		
			<path fill="none" stroke="#562E87" stroke-width="1.5" stroke-linecap="round" stroke-linejoin="round" stroke-dasharray="6.1165,6.1165" d="
			M296.179,291.593c32.226-17.803,143.733-93.278,22.784-232.516"/>
		<path fill="none" stroke="#562E87" stroke-width="1.5" stroke-linecap="round" stroke-linejoin="round" d="M316.948,56.776
			c-0.657-0.745-1.322-1.492-1.993-2.242"/>
		<g>
			<path fill="#562E87" d="M327.062,57.655c-0.119,0.396-0.539,0.62-0.936,0.5l-10.98-3.332l1.624,11.359
				c0.059,0.41-0.227,0.791-0.636,0.849c-0.409,0.059-0.79-0.23-0.849-0.636l-1.791-12.525c-0.036-0.254,0.06-0.509,0.254-0.676
				s0.461-0.223,0.706-0.148l12.108,3.673c0.141,0.043,0.261,0.125,0.351,0.229C327.074,57.136,327.139,57.4,327.062,57.655z"/>
		</g>
	</g>
</g>
<line fill="none" stroke="#562E87" stroke-width="1.5" stroke-linecap="round" stroke-linejoin="round" stroke-miterlimit="10" stroke-dasharray="6" x1="24.374" y1="261.199" x2="70.658" y2="261.199"/>
<line fill="none" stroke="#562E87" stroke-width="1.5" stroke-linecap="round" stroke-linejoin="round" stroke-miterlimit="10" stroke-dasharray="6" x1="378.374" y1="261.199" x2="435.708" y2="261.199"/>
</svg>
